<svg xmlns="http://www.w3.org/2000/svg" xmlns:v="https://svgstorm.com"
viewBox = "0 0 1667 1535"
width="1667"
height="1535">
<g fill="None" fill-opacity="0.0" stroke="#000000" stroke-opacity="0.00" stroke-width="0.3"><path d="
M 0.00 883.00 
C 32.49 786.08 63.84 688.20 96.00 591.00
C 96.27 590.18 96.84 588.55 97.00 588.00
C 105.18 559.30 115.18 530.72 124.31 502.31 C 133.43 473.89 142.69 445.37 151.93 416.93 C 161.16 388.49 170.44 359.99 179.78 331.78 C 189.11 303.56 198.06 274.49 207.32 246.32 C 216.59 218.15 225.60 189.17 235.31 161.31 C 245.01 133.44 252.54 103.05 262.93 75.93 C 273.31 48.80 273.75 15.88 300.00 0.00
L 0.00 0.00
L 0.00 883.00 Z"/>
</g>
<g fill="None" fill-opacity="0.0" stroke="#E24023" stroke-opacity="0.99" stroke-width="0.3"><path d="
M 97.00 588.00 
C 99.49 593.56 113.49 588.86 120.00 590.00 C 126.51 591.14 138.43 589.46 146.00 590.00 C 153.57 590.54 162.90 589.77 171.00 590.00 C 179.10 590.23 188.68 589.89 197.00 590.00 C 205.32 590.11 213.57 589.95 222.00 590.00 C 230.43 590.05 239.53 589.98 248.00 590.00 C 256.47 590.02 264.51 589.99 273.00 590.00 C 281.49 590.01 290.50 590.00 299.00 590.00 C 307.50 590.00 315.49 590.00 324.00 590.00 C 332.51 590.00 341.49 589.99 350.00 590.00 C 358.51 590.01 366.49 589.99 375.00 590.00 C 383.51 590.01 392.49 589.97 401.00 590.00 C 409.51 590.03 417.50 589.94 426.00 590.00 C 434.50 590.06 443.50 589.87 452.00 590.00 C 460.50 590.13 468.52 589.69 477.00 590.00 C 485.48 590.31 494.56 589.34 503.00 590.00 C 511.44 590.66 520.05 588.98 528.00 589.00
C 520.94 583.91 524.48 570.39 519.67 563.33 C 514.86 556.26 514.60 544.99 511.02 536.98 C 507.45 528.96 505.53 519.77 502.67 511.33 C 499.81 502.89 496.40 493.68 494.01 484.99 C 491.61 476.30 488.06 468.11 485.67 459.33 C 483.28 450.55 479.11 441.90 477.02 432.98 C 474.93 424.05 470.39 416.65 468.23 407.77 C 466.06 398.89 462.44 390.00 459.69 381.31 C 456.95 372.61 454.17 364.44 451.23 355.77 C 448.28 347.10 445.98 337.81 442.69 329.31 C 439.41 320.80 438.14 311.81 434.68 303.32 C 431.22 294.83 429.25 285.51 426.07 276.93 C 422.90 268.34 420.72 259.96 417.69 251.31 C 414.67 242.65 412.21 233.56 409.07 224.93 C 405.94 216.30 404.27 207.56 401.01 198.99 C 397.75 190.42 395.64 181.01 392.67 172.33 C 389.70 163.65 386.73 155.63 384.07 146.93 C 381.42 138.22 378.12 129.06 375.67 120.33 C 373.22 111.60 369.28 103.87 367.02 94.98 C 364.77 86.08 361.01 77.16 358.67 68.33 C 356.34 59.50 352.26 51.78 350.02 42.98 C 347.79 34.17 344.28 25.34 341.08 16.92 C 337.88 8.51 330.06 4.14 323.00 0.00
L 300.00 0.00
C 273.75 15.88 273.31 48.80 262.93 75.93 C 252.54 103.05 245.01 133.44 235.31 161.31 C 225.60 189.17 216.59 218.15 207.32 246.32 C 198.06 274.49 189.11 303.56 179.78 331.78 C 170.44 359.99 161.16 388.49 151.93 416.93 C 142.69 445.37 133.43 473.89 124.31 502.31 C 115.18 530.72 105.18 559.30 97.00 588.00 Z"/>
</g>
<g fill="None" fill-opacity="0.0" stroke="#000000" stroke-opacity="0.00" stroke-width="0.3"><path d="
M 528.00 589.00 
C 537.70 589.03 548.45 590.63 559.00 590.00 C 569.55 589.37 580.29 590.28 591.00 590.00 C 601.71 589.72 613.22 590.13 624.00 590.00 C 634.78 589.87 645.19 590.06 656.00 590.00 C 666.81 589.94 678.17 590.03 689.00 590.00 C 699.83 589.97 710.16 590.01 721.00 590.00 C 731.84 589.99 743.16 590.01 754.00 590.00 C 764.84 589.99 775.16 590.00 786.00 590.00 C 796.84 590.00 808.16 590.00 819.00 590.00 C 829.84 590.00 840.16 590.00 851.00 590.00 C 861.84 590.00 873.17 590.01 884.00 590.00 C 894.83 589.99 905.18 590.01 916.00 590.00 C 926.82 589.99 938.20 590.03 949.00 590.00 C 959.80 589.97 970.25 590.06 981.00 590.00 C 991.75 589.94 1003.36 590.14 1014.00 590.00 C 1024.64 589.86 1035.61 590.32 1046.00 590.00 C 1056.39 589.68 1069.13 590.68 1079.00 590.00 C 1088.88 589.32 1102.37 591.55 1111.00 590.00 C 1119.63 588.45 1136.97 594.71 1141.00 587.00
C 1148.29 573.06 1148.64 555.56 1155.00 541.00 C 1161.35 526.44 1165.00 510.35 1170.31 495.31 C 1175.62 480.26 1180.07 464.47 1185.31 449.31 C 1190.54 434.14 1194.92 418.23 1199.98 402.98 C 1205.03 387.73 1210.02 373.22 1214.92 357.92 C 1219.83 342.63 1224.94 327.23 1229.93 311.93 C 1234.91 296.62 1239.79 281.20 1244.92 265.92 C 1250.06 250.65 1254.60 235.04 1259.93 219.93 C 1265.25 204.82 1268.96 189.18 1273.99 173.99 C 1279.02 158.81 1284.80 143.98 1289.77 128.77 C 1294.74 113.56 1299.19 97.19 1304.00 82.00 C 1308.80 66.81 1315.34 51.59 1319.33 36.33 C 1323.31 21.06 1328.76 6.54 1344.00 0.00
L 323.00 0.00
C 330.06 4.14 337.88 8.51 341.08 16.92 C 344.28 25.34 347.79 34.17 350.02 42.98 C 352.26 51.78 356.34 59.50 358.67 68.33 C 361.01 77.16 364.77 86.08 367.02 94.98 C 369.28 103.87 373.22 111.60 375.67 120.33 C 378.12 129.06 381.42 138.22 384.07 146.93 C 386.73 155.63 389.70 163.65 392.67 172.33 C 395.64 181.01 397.75 190.42 401.01 198.99 C 404.27 207.56 405.94 216.30 409.07 224.93 C 412.21 233.56 414.67 242.65 417.69 251.31 C 420.72 259.96 422.90 268.34 426.07 276.93 C 429.25 285.51 431.22 294.83 434.68 303.32 C 438.14 311.81 439.41 320.80 442.69 329.31 C 445.98 337.81 448.28 347.10 451.23 355.77 C 454.17 364.44 456.95 372.61 459.69 381.31 C 462.44 390.00 466.06 398.89 468.23 407.77 C 470.39 416.65 474.93 424.05 477.02 432.98 C 479.11 441.90 483.28 450.55 485.67 459.33 C 488.06 468.11 491.61 476.30 494.01 484.99 C 496.40 493.68 499.81 502.89 502.67 511.33 C 505.53 519.77 507.45 528.96 511.02 536.98 C 514.60 544.99 514.86 556.26 519.67 563.33 C 524.48 570.39 520.94 583.91 528.00 589.00 Z"/>
</g>
<g fill="None" fill-opacity="0.0" stroke="#E24023" stroke-opacity="0.99" stroke-width="0.3"><path d="
M 1141.00 587.00 
C 1142.69 593.14 1153.87 589.23 1160.00 590.00 C 1166.13 590.77 1176.03 589.65 1183.00 590.00 C 1189.97 590.35 1198.65 589.84 1206.00 590.00 C 1213.35 590.16 1221.48 589.93 1229.00 590.00 C 1236.52 590.07 1244.40 589.97 1252.00 590.00 C 1259.60 590.03 1267.37 589.99 1275.00 590.00 C 1282.63 590.01 1290.36 589.99 1298.00 590.00 C 1305.64 590.01 1313.38 590.00 1321.00 590.00 C 1328.62 590.00 1336.42 590.00 1344.00 590.00 C 1351.58 590.00 1358.42 590.00 1366.00 590.00 C 1373.58 590.00 1381.38 590.00 1389.00 590.00 C 1396.62 590.00 1404.37 590.01 1412.00 590.00 C 1419.63 589.99 1427.38 590.02 1435.00 590.00 C 1442.62 589.98 1450.42 590.05 1458.00 590.00 C 1465.58 589.95 1473.53 590.10 1481.00 590.00 C 1488.47 589.90 1496.76 590.22 1504.00 590.00 C 1511.24 589.78 1520.27 590.49 1527.00 590.00 C 1533.73 589.51 1544.41 591.09 1550.00 590.00 C 1555.59 588.91 1568.83 593.34 1571.00 588.00
C 1567.57 565.20 1554.50 544.41 1549.07 521.93 C 1543.65 499.44 1534.17 477.58 1527.69 455.31 C 1521.22 433.03 1512.88 411.16 1506.08 388.92 C 1499.27 366.69 1491.54 344.82 1484.23 322.77 C 1476.92 300.72 1470.76 277.82 1463.03 255.98 C 1455.29 234.13 1449.06 211.21 1441.68 189.32 C 1434.29 167.44 1427.13 144.70 1420.07 122.93 C 1413.02 101.16 1405.30 78.23 1398.08 56.92 C 1390.85 35.62 1389.26 10.84 1367.00 0.00
L 1344.00 0.00
C 1328.76 6.54 1323.31 21.06 1319.33 36.33 C 1315.34 51.59 1308.80 66.81 1304.00 82.00 C 1299.19 97.19 1294.74 113.56 1289.77 128.77 C 1284.80 143.98 1279.02 158.81 1273.99 173.99 C 1268.96 189.18 1265.25 204.82 1259.93 219.93 C 1254.60 235.04 1250.06 250.65 1244.92 265.92 C 1239.79 281.20 1234.91 296.62 1229.93 311.93 C 1224.94 327.23 1219.83 342.63 1214.92 357.92 C 1210.02 373.22 1205.03 387.73 1199.98 402.98 C 1194.92 418.23 1190.54 434.14 1185.31 449.31 C 1180.07 464.47 1175.62 480.26 1170.31 495.31 C 1165.00 510.35 1161.35 526.44 1155.00 541.00 C 1148.64 555.56 1148.29 573.06 1141.00 587.00 Z"/>
</g>
<g fill="None" fill-opacity="0.0" stroke="#000000" stroke-opacity="0.00" stroke-width="0.3"><path d="
M 1571.00 588.00 
C 1571.05 588.32 1571.21 590.80 1571.00 591.00
C 1576.55 595.99 1575.51 606.46 1578.93 613.07 C 1582.35 619.69 1583.58 628.88 1586.00 636.00
C 1586.14 636.41 1586.78 637.29 1587.00 638.00
C 1612.87 719.65 1640.06 800.93 1667.00 882.00
L 1667.00 0.00
L 1367.00 0.00
C 1389.26 10.84 1390.85 35.62 1398.08 56.92 C 1405.30 78.23 1413.02 101.16 1420.07 122.93 C 1427.13 144.70 1434.29 167.44 1441.68 189.32 C 1449.06 211.21 1455.29 234.13 1463.03 255.98 C 1470.76 277.82 1476.92 300.72 1484.23 322.77 C 1491.54 344.82 1499.27 366.69 1506.08 388.92 C 1512.88 411.16 1521.22 433.03 1527.69 455.31 C 1534.17 477.58 1543.65 499.44 1549.07 521.93 C 1554.50 544.41 1567.57 565.20 1571.00 588.00 Z"/>
</g>
<g fill="None" fill-opacity="0.0" stroke="#E54524" stroke-opacity="0.74" stroke-width="0.3"><path d="
M 528.00 589.00 
C 520.05 588.98 511.44 590.66 503.00 590.00 C 494.56 589.34 485.48 590.31 477.00 590.00 C 468.52 589.69 460.50 590.13 452.00 590.00 C 443.50 589.87 434.50 590.06 426.00 590.00 C 417.50 589.94 409.51 590.03 401.00 590.00 C 392.49 589.97 383.51 590.01 375.00 590.00 C 366.49 589.99 358.51 590.01 350.00 590.00 C 341.49 589.99 332.51 590.00 324.00 590.00 C 315.49 590.00 307.50 590.00 299.00 590.00 C 290.50 590.00 281.49 590.01 273.00 590.00 C 264.51 589.99 256.47 590.02 248.00 590.00 C 239.53 589.98 230.43 590.05 222.00 590.00 C 213.57 589.95 205.32 590.11 197.00 590.00 C 188.68 589.89 179.10 590.23 171.00 590.00 C 162.90 589.77 153.57 590.54 146.00 590.00 C 138.43 589.46 126.51 591.14 120.00 590.00 C 113.49 588.86 99.49 593.56 97.00 588.00
C 96.84 588.55 96.27 590.18 96.00 591.00
C 96.35 590.77 97.50 591.00 98.00 591.00
C 108.48 591.00 118.47 591.00 129.00 591.00 C 139.53 591.00 150.41 591.00 161.00 591.00 C 171.59 591.00 182.40 591.00 193.00 591.00 C 203.60 591.00 214.43 591.00 225.00 591.00 C 235.57 591.00 245.43 591.00 256.00 591.00 C 266.57 591.00 277.38 591.01 288.00 591.00 C 298.62 590.99 309.36 591.01 320.00 591.00 C 330.64 590.99 341.35 591.03 352.00 591.00 C 362.65 590.97 373.36 591.07 384.00 591.00 C 394.64 590.93 404.27 591.15 415.00 591.00 C 425.73 590.85 436.06 591.32 447.00 591.00 C 457.94 590.68 467.66 591.71 479.00 591.00 C 490.34 590.29 498.81 592.58 511.00 591.00 C 523.19 589.42 526.25 592.96 531.00 603.00
C 529.95 599.34 528.80 595.74 528.00 592.00
C 540.69 592.00 553.31 592.00 566.00 592.00 C 578.69 592.00 591.28 592.00 604.00 592.00 C 616.72 592.00 629.23 592.00 642.00 592.00 C 654.77 592.00 668.22 592.00 681.00 592.00 C 693.78 592.00 706.24 592.00 719.00 592.00 C 731.76 592.00 744.21 592.00 757.00 592.00 C 769.79 592.00 783.21 592.00 796.00 592.00 C 808.79 592.00 821.24 592.00 834.00 592.00 C 846.76 592.00 859.21 592.00 872.00 592.00 C 884.79 592.00 898.21 591.99 911.00 592.00 C 923.79 592.01 936.26 591.98 949.00 592.00 C 961.74 592.02 974.25 591.95 987.00 592.00 C 999.75 592.05 1013.29 591.89 1026.00 592.00 C 1038.71 592.11 1051.44 591.76 1064.00 592.00 C 1076.56 592.24 1089.65 591.46 1102.00 592.00 C 1114.35 592.54 1129.20 589.94 1139.00 594.00
C 1143.42 586.24 1160.01 592.52 1169.00 591.00 C 1177.99 589.48 1191.80 591.67 1202.00 591.00 C 1212.20 590.33 1225.30 591.31 1236.00 591.00 C 1246.70 590.69 1258.09 591.14 1269.00 591.00 C 1279.91 590.86 1290.94 591.06 1302.00 591.00 C 1313.06 590.94 1324.88 591.03 1336.00 591.00 C 1347.12 590.97 1357.86 591.01 1369.00 591.00 C 1380.14 590.99 1391.86 591.01 1403.00 591.00 C 1414.14 590.99 1424.89 591.00 1436.00 591.00 C 1447.11 591.00 1457.85 591.00 1469.00 591.00 C 1480.15 591.00 1491.83 591.00 1503.00 591.00 C 1514.17 591.00 1524.80 591.00 1536.00 591.00 C 1547.20 591.00 1558.77 590.99 1570.00 591.00
C 1570.50 591.00 1571.00 591.00 1571.00 591.00
C 1571.21 590.80 1571.05 588.32 1571.00 588.00
C 1568.83 593.34 1555.59 588.91 1550.00 590.00 C 1544.41 591.09 1533.73 589.51 1527.00 590.00 C 1520.27 590.49 1511.24 589.78 1504.00 590.00 C 1496.76 590.22 1488.47 589.90 1481.00 590.00 C 1473.53 590.10 1465.58 589.95 1458.00 590.00 C 1450.42 590.05 1442.62 589.98 1435.00 590.00 C 1427.38 590.02 1419.63 589.99 1412.00 590.00 C 1404.37 590.01 1396.62 590.00 1389.00 590.00 C 1381.38 590.00 1373.58 590.00 1366.00 590.00 C 1358.42 590.00 1351.58 590.00 1344.00 590.00 C 1336.42 590.00 1328.62 590.00 1321.00 590.00 C 1313.38 590.00 1305.64 590.01 1298.00 590.00 C 1290.36 589.99 1282.63 590.01 1275.00 590.00 C 1267.37 589.99 1259.60 590.03 1252.00 590.00 C 1244.40 589.97 1236.52 590.07 1229.00 590.00 C 1221.48 589.93 1213.35 590.16 1206.00 590.00 C 1198.65 589.84 1189.97 590.35 1183.00 590.00 C 1176.03 589.65 1166.13 590.77 1160.00 590.00 C 1153.87 589.23 1142.69 593.14 1141.00 587.00
C 1136.97 594.71 1119.63 588.45 1111.00 590.00 C 1102.37 591.55 1088.88 589.32 1079.00 590.00 C 1069.13 590.68 1056.39 589.68 1046.00 590.00 C 1035.61 590.32 1024.64 589.86 1014.00 590.00 C 1003.36 590.14 991.75 589.94 981.00 590.00 C 970.25 590.06 959.80 589.97 949.00 590.00 C 938.20 590.03 926.82 589.99 916.00 590.00 C 905.18 590.01 894.83 589.99 884.00 590.00 C 873.17 590.01 861.84 590.00 851.00 590.00 C 840.16 590.00 829.84 590.00 819.00 590.00 C 808.16 590.00 796.84 590.00 786.00 590.00 C 775.16 590.00 764.84 589.99 754.00 590.00 C 743.16 590.01 731.84 589.99 721.00 590.00 C 710.16 590.01 699.83 589.97 689.00 590.00 C 678.17 590.03 666.81 589.94 656.00 590.00 C 645.19 590.06 634.78 589.87 624.00 590.00 C 613.22 590.13 601.71 589.72 591.00 590.00 C 580.29 590.28 569.55 589.37 559.00 590.00 C 548.45 590.63 537.70 589.03 528.00 589.00 Z"/>
</g>
<g fill="None" fill-opacity="0.0" stroke="#FCA420" stroke-opacity="0.99" stroke-width="0.3"><path d="
M 0.00 883.00 
L 0.00 912.00
C 15.15 954.12 60.16 972.66 93.70 999.30 C 127.24 1025.94 164.73 1049.87 199.25 1075.75 C 233.76 1101.63 268.80 1126.55 303.75 1152.25 C 338.70 1177.95 374.54 1202.89 409.23 1228.77 C 443.92 1254.65 480.28 1279.30 514.75 1305.25 C 549.21 1331.20 585.43 1355.61 620.03 1380.97 C 654.63 1406.34 689.71 1432.70 725.08 1457.92 C 760.45 1483.13 795.70 1509.62 830.00 1535.00
L 832.00 1535.00
C 832.00 1534.50 832.24 1533.30 832.00 1533.00
C 790.65 1481.40 750.81 1428.32 709.70 1376.30 C 668.58 1324.29 628.20 1271.92 587.25 1219.75 C 546.29 1167.58 505.79 1114.36 464.75 1062.25 C 423.71 1010.14 383.38 957.74 342.25 905.75 C 301.12 853.77 262.10 800.20 220.23 748.77 C 178.36 697.34 140.22 641.73 98.00 591.00
C 97.50 591.00 96.35 590.77 96.00 591.00
C 63.84 688.20 32.49 786.08 0.00 883.00 Z"/>
</g>
<g fill="None" fill-opacity="0.0" stroke="#FC6C20" stroke-opacity="1.00" stroke-width="0.3"><path d="
M 832.00 1533.00 
C 834.69 1533.00 834.24 1533.07 837.00 1532.00
C 848.37 1521.89 854.61 1505.62 865.25 1494.25 C 875.88 1482.88 884.52 1468.83 894.92 1456.92 C 905.31 1445.00 914.29 1431.55 924.25 1419.25 C 934.21 1406.95 942.95 1393.38 953.25 1381.25 C 963.56 1369.13 973.02 1356.21 982.75 1343.75 C 992.49 1331.30 1002.97 1319.05 1012.30 1306.30 C 1021.64 1293.55 1032.41 1281.50 1041.75 1268.75 C 1051.09 1256.01 1061.31 1243.74 1071.30 1231.30 C 1081.30 1218.87 1091.29 1206.51 1100.75 1193.75 C 1110.22 1180.99 1119.92 1168.29 1129.75 1155.75 C 1139.59 1143.22 1149.48 1130.82 1159.25 1118.25 C 1169.03 1105.69 1179.05 1093.39 1188.75 1080.75 C 1198.45 1068.12 1207.84 1055.30 1217.92 1042.92 C 1227.99 1030.54 1237.27 1017.67 1247.25 1005.25 C 1257.24 992.84 1266.86 980.26 1276.77 967.77 C 1286.68 955.28 1296.25 942.53 1305.92 929.92 C 1315.59 917.30 1325.58 904.84 1335.25 892.25 C 1344.92 879.66 1355.00 867.31 1364.75 854.75 C 1374.51 842.20 1384.60 829.88 1394.25 817.25 C 1403.90 804.61 1413.93 792.31 1423.75 779.75 C 1433.58 767.19 1443.46 754.54 1452.75 741.75 C 1462.05 728.97 1472.71 716.94 1482.25 704.25 C 1491.79 691.56 1502.77 679.65 1511.75 666.75 C 1520.73 653.85 1531.60 641.50 1540.75 628.75 C 1549.91 616.00 1562.28 605.46 1569.77 591.77
C 1558.77 590.99 1547.20 591.00 1536.00 591.00 C 1524.80 591.00 1514.17 591.00 1503.00 591.00 C 1491.83 591.00 1480.15 591.00 1469.00 591.00 C 1457.85 591.00 1447.11 591.00 1436.00 591.00 C 1424.89 591.00 1414.14 590.99 1403.00 591.00 C 1391.86 591.01 1380.14 590.99 1369.00 591.00 C 1357.86 591.01 1347.12 590.97 1336.00 591.00 C 1324.88 591.03 1313.06 590.94 1302.00 591.00 C 1290.94 591.06 1279.91 590.86 1269.00 591.00 C 1258.09 591.14 1246.70 590.69 1236.00 591.00 C 1225.30 591.31 1212.20 590.33 1202.00 591.00 C 1191.80 591.67 1177.99 589.48 1169.00 591.00 C 1160.01 592.52 1143.42 586.24 1139.00 594.00
C 1131.10 607.87 1130.64 626.33 1124.07 641.07 C 1117.51 655.81 1114.51 672.68 1109.02 688.02 C 1103.54 703.37 1099.10 719.24 1093.67 734.67 C 1088.25 750.10 1084.90 766.14 1078.08 781.08 C 1071.27 796.02 1068.81 813.69 1063.07 829.07 C 1057.34 844.46 1053.31 860.46 1048.07 876.07 C 1042.84 891.68 1036.79 906.47 1032.23 922.23 C 1027.67 937.99 1023.10 954.14 1017.68 969.68 C 1012.26 985.22 1007.28 1000.45 1002.03 1016.03 C 996.77 1031.60 992.59 1048.50 987.02 1064.02 C 981.45 1079.55 976.04 1094.73 971.68 1110.68 C 967.32 1126.63 960.74 1141.28 956.08 1157.08 C 951.41 1172.87 946.77 1188.57 941.03 1204.03 C 935.28 1219.48 931.83 1235.58 926.01 1251.01 C 920.19 1266.44 916.24 1282.96 910.25 1298.25 C 904.26 1313.54 900.71 1330.31 896.01 1346.01 C 891.30 1361.70 885.02 1376.53 880.22 1392.22 C 875.42 1407.91 869.41 1423.18 865.02 1439.02 C 860.64 1454.87 854.62 1470.06 849.67 1485.67 C 844.73 1501.29 840.65 1518.00 834.00 1533.00
C 731.55 1224.17 632.36 912.88 531.00 603.00
C 526.25 592.96 523.19 589.42 511.00 591.00 C 498.81 592.58 490.34 590.29 479.00 591.00 C 467.66 591.71 457.94 590.68 447.00 591.00 C 436.06 591.32 425.73 590.85 415.00 591.00 C 404.27 591.15 394.64 590.93 384.00 591.00 C 373.36 591.07 362.65 590.97 352.00 591.00 C 341.35 591.03 330.64 590.99 320.00 591.00 C 309.36 591.01 298.62 590.99 288.00 591.00 C 277.38 591.01 266.57 591.00 256.00 591.00 C 245.43 591.00 235.57 591.00 225.00 591.00 C 214.43 591.00 203.60 591.00 193.00 591.00 C 182.40 591.00 171.59 591.00 161.00 591.00 C 150.41 591.00 139.53 591.00 129.00 591.00 C 118.47 591.00 108.48 591.00 98.00 591.00
C 140.22 641.73 178.36 697.34 220.23 748.77 C 262.10 800.20 301.12 853.77 342.25 905.75 C 383.38 957.74 423.71 1010.14 464.75 1062.25 C 505.79 1114.36 546.29 1167.58 587.25 1219.75 C 628.20 1271.92 668.58 1324.29 709.70 1376.30 C 750.81 1428.32 790.65 1481.40 832.00 1533.00 Z"/>
</g>
<g fill="None" fill-opacity="0.0" stroke="#FCA420" stroke-opacity="0.99" stroke-width="0.3"><path d="
M 837.00 1532.00 
C 838.90 1531.26 841.22 1530.87 843.00 1530.00
C 876.75 1503.08 912.91 1480.45 947.25 1454.25 C 981.58 1428.04 1017.11 1404.52 1051.70 1378.70 C 1086.30 1352.88 1120.94 1328.62 1155.75 1302.75 C 1190.56 1276.88 1226.10 1252.86 1260.23 1227.23 C 1294.36 1201.60 1330.47 1177.11 1364.70 1151.70 C 1398.92 1126.28 1434.28 1101.28 1468.70 1075.70 C 1503.12 1050.11 1539.45 1026.01 1573.08 1000.08 C 1606.71 974.14 1651.49 953.50 1667.00 913.00
L 1667.00 882.00
C 1640.06 800.93 1612.87 719.65 1587.00 638.00
C 1585.62 641.96 1585.86 634.89 1586.00 636.00
C 1583.58 628.88 1582.35 619.69 1578.93 613.07 C 1575.51 606.46 1576.55 595.99 1571.00 591.00
C 1571.00 591.00 1570.50 591.00 1570.00 591.00
C 1562.28 605.46 1549.91 616.00 1540.75 628.75 C 1531.60 641.50 1520.73 653.85 1511.75 666.75 C 1502.77 679.65 1491.79 691.56 1482.25 704.25 C 1472.71 716.94 1462.05 728.97 1452.75 741.75 C 1443.46 754.54 1433.58 767.19 1423.75 779.75 C 1413.93 792.31 1403.90 804.61 1394.25 817.25 C 1384.60 829.88 1374.51 842.20 1364.75 854.75 C 1355.00 867.31 1344.92 879.66 1335.25 892.25 C 1325.58 904.84 1315.59 917.30 1305.92 929.92 C 1296.25 942.53 1286.68 955.28 1276.77 967.77 C 1266.86 980.26 1257.24 992.84 1247.25 1005.25 C 1237.27 1017.67 1227.99 1030.54 1217.92 1042.92 C 1207.84 1055.30 1198.45 1068.12 1188.75 1080.75 C 1179.05 1093.39 1169.03 1105.69 1159.25 1118.25 C 1149.48 1130.82 1139.59 1143.22 1129.75 1155.75 C 1119.92 1168.29 1110.22 1180.99 1100.75 1193.75 C 1091.29 1206.51 1081.30 1218.87 1071.30 1231.30 C 1061.31 1243.74 1051.09 1256.01 1041.75 1268.75 C 1032.41 1281.50 1021.64 1293.55 1012.30 1306.30 C 1002.97 1319.05 992.49 1331.30 982.75 1343.75 C 973.02 1356.21 963.56 1369.13 953.25 1381.25 C 942.95 1393.38 934.21 1406.95 924.25 1419.25 C 914.29 1431.55 905.31 1445.00 894.92 1456.92 C 884.52 1468.83 875.88 1482.88 865.25 1494.25 C 854.61 1505.62 848.37 1521.89 837.00 1532.00 Z"/>
</g>
<g fill="None" fill-opacity="0.0" stroke="#E24023" stroke-opacity="1.00" stroke-width="0.3"><path d="
M 531.00 603.00 
C 632.36 912.88 731.55 1224.17 834.00 1533.00
C 840.65 1518.00 844.73 1501.29 849.67 1485.67 C 854.62 1470.06 860.64 1454.87 865.02 1439.02 C 869.41 1423.18 875.42 1407.91 880.22 1392.22 C 885.02 1376.53 891.30 1361.70 896.01 1346.01 C 900.71 1330.31 904.26 1313.54 910.25 1298.25 C 916.24 1282.96 920.19 1266.44 926.01 1251.01 C 931.83 1235.58 935.28 1219.48 941.03 1204.03 C 946.77 1188.57 951.41 1172.87 956.08 1157.08 C 960.74 1141.28 967.32 1126.63 971.68 1110.68 C 976.04 1094.73 981.45 1079.55 987.02 1064.02 C 992.59 1048.50 996.77 1031.60 1002.03 1016.03 C 1007.28 1000.45 1012.26 985.22 1017.68 969.68 C 1023.10 954.14 1027.67 937.99 1032.23 922.23 C 1036.79 906.47 1042.84 891.68 1048.07 876.07 C 1053.31 860.46 1057.34 844.46 1063.07 829.07 C 1068.81 813.69 1071.27 796.02 1078.08 781.08 C 1084.90 766.14 1088.25 750.10 1093.67 734.67 C 1099.10 719.24 1103.54 703.37 1109.02 688.02 C 1114.51 672.68 1117.51 655.81 1124.07 641.07 C 1130.64 626.33 1131.10 607.87 1139.00 594.00
C 1129.20 589.94 1114.35 592.54 1102.00 592.00 C 1089.65 591.46 1076.56 592.24 1064.00 592.00 C 1051.44 591.76 1038.71 592.11 1026.00 592.00 C 1013.29 591.89 999.75 592.05 987.00 592.00 C 974.25 591.95 961.74 592.02 949.00 592.00 C 936.26 591.98 923.79 592.01 911.00 592.00 C 898.21 591.99 884.79 592.00 872.00 592.00 C 859.21 592.00 846.76 592.00 834.00 592.00 C 821.24 592.00 808.79 592.00 796.00 592.00 C 783.21 592.00 769.79 592.00 757.00 592.00 C 744.21 592.00 731.76 592.00 719.00 592.00 C 706.24 592.00 693.78 592.00 681.00 592.00 C 668.22 592.00 654.77 592.00 642.00 592.00 C 629.23 592.00 616.72 592.00 604.00 592.00 C 591.28 592.00 578.69 592.00 566.00 592.00 C 553.31 592.00 540.69 592.00 528.00 592.00
C 528.80 595.74 529.95 599.34 531.00 603.00 Z"/>
</g>
<g fill="None" fill-opacity="0.0" stroke="#FBB51C" stroke-opacity="0.39" stroke-width="0.3"><path d="
M 1587.00 638.00 
C 1586.78 637.29 1586.14 636.41 1586.00 636.00
C 1585.86 634.89 1585.62 641.96 1587.00 638.00 Z"/>
</g>
<g fill="None" fill-opacity="0.0" stroke="#000000" stroke-opacity="0.00" stroke-width="0.3"><path d="
M 0.00 1535.00 
L 830.00 1535.00
C 795.70 1509.62 760.45 1483.13 725.08 1457.92 C 689.71 1432.70 654.63 1406.34 620.03 1380.97 C 585.43 1355.61 549.21 1331.20 514.75 1305.25 C 480.28 1279.30 443.92 1254.65 409.23 1228.77 C 374.54 1202.89 338.70 1177.95 303.75 1152.25 C 268.80 1126.55 233.76 1101.63 199.25 1075.75 C 164.73 1049.87 127.24 1025.94 93.70 999.30 C 60.16 972.66 15.15 954.12 0.00 912.00
L 0.00 1535.00 Z"/>
</g>
<g fill="None" fill-opacity="0.0" stroke="#000000" stroke-opacity="0.00" stroke-width="0.3"><path d="
M 843.00 1530.00 
C 841.36 1531.31 839.00 1532.91 838.00 1535.00
L 1667.00 1535.00
L 1667.00 913.00
C 1651.49 953.50 1606.71 974.14 1573.08 1000.08 C 1539.45 1026.01 1503.12 1050.11 1468.70 1075.70 C 1434.28 1101.28 1398.92 1126.28 1364.70 1151.70 C 1330.47 1177.11 1294.36 1201.60 1260.23 1227.23 C 1226.10 1252.86 1190.56 1276.88 1155.75 1302.75 C 1120.94 1328.62 1086.30 1352.88 1051.70 1378.70 C 1017.11 1404.52 981.58 1428.04 947.25 1454.25 C 912.91 1480.45 876.75 1503.08 843.00 1530.00 Z"/>
</g>
<g fill="None" fill-opacity="0.0" stroke="#FE941F" stroke-opacity="0.35" stroke-width="0.3"><path d="
M 837.00 1532.00 
C 834.24 1533.07 834.69 1533.00 832.00 1533.00
C 832.24 1533.30 832.00 1534.50 832.00 1535.00
L 838.00 1535.00
C 839.00 1532.91 841.36 1531.31 843.00 1530.00
C 841.22 1530.87 838.90 1531.26 837.00 1532.00 Z"/>
</g>
<g fill="#000000" fill-opacity="0.00" stroke="None">
<path d="
M 0.00 883.00 
C 32.49 786.08 63.84 688.20 96.00 591.00
C 96.27 590.18 96.84 588.55 97.00 588.00
C 105.18 559.30 115.18 530.72 124.31 502.31 C 133.43 473.89 142.69 445.37 151.93 416.93 C 161.16 388.49 170.44 359.99 179.78 331.78 C 189.11 303.56 198.06 274.49 207.32 246.32 C 216.59 218.15 225.60 189.17 235.31 161.31 C 245.01 133.44 252.54 103.05 262.93 75.93 C 273.31 48.80 273.75 15.88 300.00 0.00
L 0.00 0.00
L 0.00 883.00 Z"/>
</g>
<g fill="#E24023" fill-opacity="0.99" stroke="None">
<path d="
M 97.00 588.00 
C 99.49 593.56 113.49 588.86 120.00 590.00 C 126.51 591.14 138.43 589.46 146.00 590.00 C 153.57 590.54 162.90 589.77 171.00 590.00 C 179.10 590.23 188.68 589.89 197.00 590.00 C 205.32 590.11 213.57 589.95 222.00 590.00 C 230.43 590.05 239.53 589.98 248.00 590.00 C 256.47 590.02 264.51 589.99 273.00 590.00 C 281.49 590.01 290.50 590.00 299.00 590.00 C 307.50 590.00 315.49 590.00 324.00 590.00 C 332.51 590.00 341.49 589.99 350.00 590.00 C 358.51 590.01 366.49 589.99 375.00 590.00 C 383.51 590.01 392.49 589.97 401.00 590.00 C 409.51 590.03 417.50 589.94 426.00 590.00 C 434.50 590.06 443.50 589.87 452.00 590.00 C 460.50 590.13 468.52 589.69 477.00 590.00 C 485.48 590.31 494.56 589.34 503.00 590.00 C 511.44 590.66 520.05 588.98 528.00 589.00
C 520.94 583.91 524.48 570.39 519.67 563.33 C 514.86 556.26 514.60 544.99 511.02 536.98 C 507.45 528.96 505.53 519.77 502.67 511.33 C 499.81 502.89 496.40 493.68 494.01 484.99 C 491.61 476.30 488.06 468.11 485.67 459.33 C 483.28 450.55 479.11 441.90 477.02 432.98 C 474.93 424.05 470.39 416.65 468.23 407.77 C 466.06 398.89 462.44 390.00 459.69 381.31 C 456.95 372.61 454.17 364.44 451.23 355.77 C 448.28 347.10 445.98 337.81 442.69 329.31 C 439.41 320.80 438.14 311.81 434.68 303.32 C 431.22 294.83 429.25 285.51 426.07 276.93 C 422.90 268.34 420.72 259.96 417.69 251.31 C 414.67 242.65 412.21 233.56 409.07 224.93 C 405.94 216.30 404.27 207.56 401.01 198.99 C 397.75 190.42 395.64 181.01 392.67 172.33 C 389.70 163.65 386.73 155.63 384.07 146.93 C 381.42 138.22 378.12 129.06 375.67 120.33 C 373.22 111.60 369.28 103.87 367.02 94.98 C 364.77 86.08 361.01 77.16 358.67 68.33 C 356.34 59.50 352.26 51.78 350.02 42.98 C 347.79 34.17 344.28 25.34 341.08 16.92 C 337.88 8.51 330.06 4.14 323.00 0.00
L 300.00 0.00
C 273.75 15.88 273.31 48.80 262.93 75.93 C 252.54 103.05 245.01 133.44 235.31 161.31 C 225.60 189.17 216.59 218.15 207.32 246.32 C 198.06 274.49 189.11 303.56 179.78 331.78 C 170.44 359.99 161.16 388.49 151.93 416.93 C 142.69 445.37 133.43 473.89 124.31 502.31 C 115.18 530.72 105.18 559.30 97.00 588.00 Z"/>
</g>
<g fill="#000000" fill-opacity="0.00" stroke="None">
<path d="
M 528.00 589.00 
C 537.70 589.03 548.45 590.63 559.00 590.00 C 569.55 589.37 580.29 590.28 591.00 590.00 C 601.71 589.72 613.22 590.13 624.00 590.00 C 634.78 589.87 645.19 590.06 656.00 590.00 C 666.81 589.94 678.17 590.03 689.00 590.00 C 699.83 589.97 710.16 590.01 721.00 590.00 C 731.84 589.99 743.16 590.01 754.00 590.00 C 764.84 589.99 775.16 590.00 786.00 590.00 C 796.84 590.00 808.16 590.00 819.00 590.00 C 829.84 590.00 840.16 590.00 851.00 590.00 C 861.84 590.00 873.17 590.01 884.00 590.00 C 894.83 589.99 905.18 590.01 916.00 590.00 C 926.82 589.99 938.20 590.03 949.00 590.00 C 959.80 589.97 970.25 590.06 981.00 590.00 C 991.75 589.94 1003.36 590.14 1014.00 590.00 C 1024.64 589.86 1035.61 590.32 1046.00 590.00 C 1056.39 589.68 1069.13 590.68 1079.00 590.00 C 1088.88 589.32 1102.37 591.55 1111.00 590.00 C 1119.63 588.45 1136.97 594.71 1141.00 587.00
C 1148.29 573.06 1148.64 555.56 1155.00 541.00 C 1161.35 526.44 1165.00 510.35 1170.31 495.31 C 1175.62 480.26 1180.07 464.47 1185.31 449.31 C 1190.54 434.14 1194.92 418.23 1199.98 402.98 C 1205.03 387.73 1210.02 373.22 1214.92 357.92 C 1219.83 342.63 1224.94 327.23 1229.93 311.93 C 1234.91 296.62 1239.79 281.20 1244.92 265.92 C 1250.06 250.65 1254.60 235.04 1259.93 219.93 C 1265.25 204.82 1268.96 189.18 1273.99 173.99 C 1279.02 158.81 1284.80 143.98 1289.77 128.77 C 1294.74 113.56 1299.19 97.19 1304.00 82.00 C 1308.80 66.81 1315.34 51.59 1319.33 36.33 C 1323.31 21.06 1328.76 6.54 1344.00 0.00
L 323.00 0.00
C 330.06 4.14 337.88 8.51 341.08 16.92 C 344.28 25.34 347.79 34.17 350.02 42.98 C 352.26 51.78 356.34 59.50 358.67 68.33 C 361.01 77.16 364.77 86.08 367.02 94.98 C 369.28 103.87 373.22 111.60 375.67 120.33 C 378.12 129.06 381.42 138.22 384.07 146.93 C 386.73 155.63 389.70 163.65 392.67 172.33 C 395.64 181.01 397.75 190.42 401.01 198.99 C 404.27 207.56 405.94 216.30 409.07 224.93 C 412.21 233.56 414.67 242.65 417.69 251.31 C 420.72 259.96 422.90 268.34 426.07 276.93 C 429.25 285.51 431.22 294.83 434.68 303.32 C 438.14 311.81 439.41 320.80 442.69 329.31 C 445.98 337.81 448.28 347.10 451.23 355.77 C 454.17 364.44 456.95 372.61 459.69 381.31 C 462.44 390.00 466.06 398.89 468.23 407.77 C 470.39 416.65 474.93 424.05 477.02 432.98 C 479.11 441.90 483.28 450.55 485.67 459.33 C 488.06 468.11 491.61 476.30 494.01 484.99 C 496.40 493.68 499.81 502.89 502.67 511.33 C 505.53 519.77 507.45 528.96 511.02 536.98 C 514.60 544.99 514.86 556.26 519.67 563.33 C 524.48 570.39 520.94 583.91 528.00 589.00 Z"/>
</g>
<g fill="#E24023" fill-opacity="0.99" stroke="None">
<path d="
M 1141.00 587.00 
C 1142.69 593.14 1153.87 589.23 1160.00 590.00 C 1166.13 590.77 1176.03 589.65 1183.00 590.00 C 1189.97 590.35 1198.65 589.84 1206.00 590.00 C 1213.35 590.16 1221.48 589.93 1229.00 590.00 C 1236.52 590.07 1244.40 589.97 1252.00 590.00 C 1259.60 590.03 1267.37 589.99 1275.00 590.00 C 1282.63 590.01 1290.36 589.99 1298.00 590.00 C 1305.64 590.01 1313.38 590.00 1321.00 590.00 C 1328.62 590.00 1336.42 590.00 1344.00 590.00 C 1351.58 590.00 1358.42 590.00 1366.00 590.00 C 1373.58 590.00 1381.38 590.00 1389.00 590.00 C 1396.62 590.00 1404.37 590.01 1412.00 590.00 C 1419.63 589.99 1427.38 590.02 1435.00 590.00 C 1442.62 589.98 1450.42 590.05 1458.00 590.00 C 1465.58 589.95 1473.53 590.10 1481.00 590.00 C 1488.47 589.90 1496.76 590.22 1504.00 590.00 C 1511.24 589.78 1520.27 590.49 1527.00 590.00 C 1533.73 589.51 1544.41 591.09 1550.00 590.00 C 1555.59 588.91 1568.83 593.34 1571.00 588.00
C 1567.57 565.20 1554.50 544.41 1549.07 521.93 C 1543.65 499.44 1534.17 477.58 1527.69 455.31 C 1521.22 433.03 1512.88 411.16 1506.08 388.92 C 1499.27 366.69 1491.54 344.82 1484.23 322.77 C 1476.92 300.72 1470.76 277.82 1463.03 255.98 C 1455.29 234.13 1449.06 211.21 1441.68 189.32 C 1434.29 167.44 1427.13 144.70 1420.07 122.93 C 1413.02 101.16 1405.30 78.23 1398.08 56.92 C 1390.85 35.62 1389.26 10.84 1367.00 0.00
L 1344.00 0.00
C 1328.76 6.54 1323.31 21.06 1319.33 36.33 C 1315.34 51.59 1308.80 66.81 1304.00 82.00 C 1299.19 97.19 1294.74 113.56 1289.77 128.77 C 1284.80 143.98 1279.02 158.81 1273.99 173.99 C 1268.96 189.18 1265.25 204.82 1259.93 219.93 C 1254.60 235.04 1250.06 250.65 1244.92 265.92 C 1239.79 281.20 1234.91 296.62 1229.93 311.93 C 1224.94 327.23 1219.83 342.63 1214.92 357.92 C 1210.02 373.22 1205.03 387.73 1199.98 402.98 C 1194.92 418.23 1190.54 434.14 1185.31 449.31 C 1180.07 464.47 1175.62 480.26 1170.31 495.31 C 1165.00 510.35 1161.35 526.44 1155.00 541.00 C 1148.64 555.56 1148.29 573.06 1141.00 587.00 Z"/>
</g>
<g fill="#000000" fill-opacity="0.00" stroke="None">
<path d="
M 1571.00 588.00 
C 1571.05 588.32 1571.21 590.80 1571.00 591.00
C 1576.55 595.99 1575.51 606.46 1578.93 613.07 C 1582.35 619.69 1583.58 628.88 1586.00 636.00
C 1586.14 636.41 1586.78 637.29 1587.00 638.00
C 1612.87 719.65 1640.06 800.93 1667.00 882.00
L 1667.00 0.00
L 1367.00 0.00
C 1389.26 10.84 1390.85 35.62 1398.08 56.92 C 1405.30 78.23 1413.02 101.16 1420.07 122.93 C 1427.13 144.70 1434.29 167.44 1441.68 189.32 C 1449.06 211.21 1455.29 234.13 1463.03 255.98 C 1470.76 277.82 1476.92 300.72 1484.23 322.77 C 1491.54 344.82 1499.27 366.69 1506.08 388.92 C 1512.88 411.16 1521.22 433.03 1527.69 455.31 C 1534.17 477.58 1543.65 499.44 1549.07 521.93 C 1554.50 544.41 1567.57 565.20 1571.00 588.00 Z"/>
</g>
<g fill="#E54524" fill-opacity="0.74" stroke="None">
<path d="
M 528.00 589.00 
C 520.05 588.98 511.44 590.66 503.00 590.00 C 494.56 589.34 485.48 590.31 477.00 590.00 C 468.52 589.69 460.50 590.13 452.00 590.00 C 443.50 589.87 434.50 590.06 426.00 590.00 C 417.50 589.94 409.51 590.03 401.00 590.00 C 392.49 589.97 383.51 590.01 375.00 590.00 C 366.49 589.99 358.51 590.01 350.00 590.00 C 341.49 589.99 332.51 590.00 324.00 590.00 C 315.49 590.00 307.50 590.00 299.00 590.00 C 290.50 590.00 281.49 590.01 273.00 590.00 C 264.51 589.99 256.47 590.02 248.00 590.00 C 239.53 589.98 230.43 590.05 222.00 590.00 C 213.57 589.95 205.32 590.11 197.00 590.00 C 188.68 589.89 179.10 590.23 171.00 590.00 C 162.90 589.77 153.57 590.54 146.00 590.00 C 138.43 589.46 126.51 591.14 120.00 590.00 C 113.49 588.86 99.49 593.56 97.00 588.00
C 96.84 588.55 96.27 590.18 96.00 591.00
C 96.35 590.77 97.50 591.00 98.00 591.00
C 108.48 591.00 118.47 591.00 129.00 591.00 C 139.53 591.00 150.41 591.00 161.00 591.00 C 171.59 591.00 182.40 591.00 193.00 591.00 C 203.60 591.00 214.43 591.00 225.00 591.00 C 235.57 591.00 245.43 591.00 256.00 591.00 C 266.57 591.00 277.38 591.01 288.00 591.00 C 298.62 590.99 309.36 591.01 320.00 591.00 C 330.64 590.99 341.35 591.03 352.00 591.00 C 362.65 590.97 373.36 591.07 384.00 591.00 C 394.64 590.93 404.27 591.15 415.00 591.00 C 425.73 590.85 436.06 591.32 447.00 591.00 C 457.94 590.68 467.66 591.71 479.00 591.00 C 490.34 590.29 498.81 592.58 511.00 591.00 C 523.19 589.42 526.25 592.96 531.00 603.00
C 529.95 599.34 528.80 595.74 528.00 592.00
C 540.69 592.00 553.31 592.00 566.00 592.00 C 578.69 592.00 591.28 592.00 604.00 592.00 C 616.72 592.00 629.23 592.00 642.00 592.00 C 654.77 592.00 668.22 592.00 681.00 592.00 C 693.78 592.00 706.24 592.00 719.00 592.00 C 731.76 592.00 744.21 592.00 757.00 592.00 C 769.79 592.00 783.21 592.00 796.00 592.00 C 808.79 592.00 821.24 592.00 834.00 592.00 C 846.76 592.00 859.21 592.00 872.00 592.00 C 884.79 592.00 898.21 591.99 911.00 592.00 C 923.79 592.01 936.26 591.98 949.00 592.00 C 961.74 592.02 974.25 591.95 987.00 592.00 C 999.75 592.05 1013.29 591.89 1026.00 592.00 C 1038.71 592.11 1051.44 591.76 1064.00 592.00 C 1076.56 592.24 1089.65 591.46 1102.00 592.00 C 1114.35 592.54 1129.20 589.94 1139.00 594.00
C 1143.42 586.24 1160.01 592.52 1169.00 591.00 C 1177.99 589.48 1191.80 591.67 1202.00 591.00 C 1212.20 590.33 1225.30 591.31 1236.00 591.00 C 1246.70 590.69 1258.09 591.14 1269.00 591.00 C 1279.91 590.86 1290.94 591.06 1302.00 591.00 C 1313.06 590.94 1324.88 591.03 1336.00 591.00 C 1347.12 590.97 1357.86 591.01 1369.00 591.00 C 1380.14 590.99 1391.86 591.01 1403.00 591.00 C 1414.14 590.99 1424.89 591.00 1436.00 591.00 C 1447.11 591.00 1457.85 591.00 1469.00 591.00 C 1480.15 591.00 1491.83 591.00 1503.00 591.00 C 1514.17 591.00 1524.80 591.00 1536.00 591.00 C 1547.20 591.00 1558.77 590.99 1570.00 591.00
C 1570.50 591.00 1571.00 591.00 1571.00 591.00
C 1571.21 590.80 1571.05 588.32 1571.00 588.00
C 1568.83 593.34 1555.59 588.91 1550.00 590.00 C 1544.41 591.09 1533.73 589.51 1527.00 590.00 C 1520.27 590.49 1511.24 589.78 1504.00 590.00 C 1496.76 590.22 1488.47 589.90 1481.00 590.00 C 1473.53 590.10 1465.58 589.95 1458.00 590.00 C 1450.42 590.05 1442.62 589.98 1435.00 590.00 C 1427.38 590.02 1419.63 589.99 1412.00 590.00 C 1404.37 590.01 1396.62 590.00 1389.00 590.00 C 1381.38 590.00 1373.58 590.00 1366.00 590.00 C 1358.42 590.00 1351.58 590.00 1344.00 590.00 C 1336.42 590.00 1328.62 590.00 1321.00 590.00 C 1313.38 590.00 1305.64 590.01 1298.00 590.00 C 1290.36 589.99 1282.63 590.01 1275.00 590.00 C 1267.37 589.99 1259.60 590.03 1252.00 590.00 C 1244.40 589.97 1236.52 590.07 1229.00 590.00 C 1221.48 589.93 1213.35 590.16 1206.00 590.00 C 1198.65 589.84 1189.97 590.35 1183.00 590.00 C 1176.03 589.65 1166.13 590.77 1160.00 590.00 C 1153.87 589.23 1142.69 593.14 1141.00 587.00
C 1136.97 594.71 1119.63 588.45 1111.00 590.00 C 1102.37 591.55 1088.88 589.32 1079.00 590.00 C 1069.13 590.68 1056.39 589.68 1046.00 590.00 C 1035.61 590.32 1024.64 589.86 1014.00 590.00 C 1003.36 590.14 991.75 589.94 981.00 590.00 C 970.25 590.06 959.80 589.97 949.00 590.00 C 938.20 590.03 926.82 589.99 916.00 590.00 C 905.18 590.01 894.83 589.99 884.00 590.00 C 873.17 590.01 861.84 590.00 851.00 590.00 C 840.16 590.00 829.84 590.00 819.00 590.00 C 808.16 590.00 796.84 590.00 786.00 590.00 C 775.16 590.00 764.84 589.99 754.00 590.00 C 743.16 590.01 731.84 589.99 721.00 590.00 C 710.16 590.01 699.83 589.97 689.00 590.00 C 678.17 590.03 666.81 589.94 656.00 590.00 C 645.19 590.06 634.78 589.87 624.00 590.00 C 613.22 590.13 601.71 589.72 591.00 590.00 C 580.29 590.28 569.55 589.37 559.00 590.00 C 548.45 590.63 537.70 589.03 528.00 589.00 Z"/>
</g>
<g fill="#FCA420" fill-opacity="0.99" stroke="None">
<path d="
M 0.00 883.00 
L 0.00 912.00
C 15.15 954.12 60.16 972.66 93.70 999.30 C 127.24 1025.94 164.73 1049.87 199.25 1075.75 C 233.76 1101.63 268.80 1126.55 303.75 1152.25 C 338.70 1177.95 374.54 1202.89 409.23 1228.77 C 443.92 1254.65 480.28 1279.30 514.75 1305.25 C 549.21 1331.20 585.43 1355.61 620.03 1380.97 C 654.63 1406.34 689.71 1432.70 725.08 1457.92 C 760.45 1483.13 795.70 1509.62 830.00 1535.00
L 832.00 1535.00
C 832.00 1534.50 832.24 1533.30 832.00 1533.00
C 790.65 1481.40 750.81 1428.32 709.70 1376.30 C 668.58 1324.29 628.20 1271.92 587.25 1219.75 C 546.29 1167.58 505.79 1114.36 464.75 1062.25 C 423.71 1010.14 383.38 957.74 342.25 905.75 C 301.12 853.77 262.10 800.20 220.23 748.77 C 178.36 697.34 140.22 641.73 98.00 591.00
C 97.50 591.00 96.35 590.77 96.00 591.00
C 63.84 688.20 32.49 786.08 0.00 883.00 Z"/>
</g>
<g fill="#FC6C20" fill-opacity="1.00" stroke="None">
<path d="
M 832.00 1533.00 
C 834.69 1533.00 834.24 1533.07 837.00 1532.00
C 848.37 1521.89 854.61 1505.62 865.25 1494.25 C 875.88 1482.88 884.52 1468.83 894.92 1456.92 C 905.31 1445.00 914.29 1431.55 924.25 1419.25 C 934.21 1406.95 942.95 1393.38 953.25 1381.25 C 963.56 1369.13 973.02 1356.21 982.75 1343.75 C 992.49 1331.30 1002.97 1319.05 1012.30 1306.30 C 1021.64 1293.55 1032.41 1281.50 1041.75 1268.75 C 1051.09 1256.01 1061.31 1243.74 1071.30 1231.30 C 1081.30 1218.87 1091.29 1206.51 1100.75 1193.75 C 1110.22 1180.99 1119.92 1168.29 1129.75 1155.75 C 1139.59 1143.22 1149.48 1130.82 1159.25 1118.25 C 1169.03 1105.69 1179.05 1093.39 1188.75 1080.75 C 1198.45 1068.12 1207.84 1055.30 1217.92 1042.92 C 1227.99 1030.54 1237.27 1017.67 1247.25 1005.25 C 1257.24 992.84 1266.86 980.26 1276.77 967.77 C 1286.68 955.28 1296.25 942.53 1305.92 929.92 C 1315.59 917.30 1325.58 904.84 1335.25 892.25 C 1344.92 879.66 1355.00 867.31 1364.75 854.75 C 1374.51 842.20 1384.60 829.88 1394.25 817.25 C 1403.90 804.61 1413.93 792.31 1423.75 779.75 C 1433.58 767.19 1443.46 754.54 1452.75 741.75 C 1462.05 728.97 1472.71 716.94 1482.25 704.25 C 1491.79 691.56 1502.77 679.65 1511.75 666.75 C 1520.73 653.85 1531.60 641.50 1540.75 628.75 C 1549.91 616.00 1562.28 605.46 1569.77 591.77
C 1558.77 590.99 1547.20 591.00 1536.00 591.00 C 1524.80 591.00 1514.17 591.00 1503.00 591.00 C 1491.83 591.00 1480.15 591.00 1469.00 591.00 C 1457.85 591.00 1447.11 591.00 1436.00 591.00 C 1424.89 591.00 1414.14 590.99 1403.00 591.00 C 1391.86 591.01 1380.14 590.99 1369.00 591.00 C 1357.86 591.01 1347.12 590.97 1336.00 591.00 C 1324.88 591.03 1313.06 590.94 1302.00 591.00 C 1290.94 591.06 1279.91 590.86 1269.00 591.00 C 1258.09 591.14 1246.70 590.69 1236.00 591.00 C 1225.30 591.31 1212.20 590.33 1202.00 591.00 C 1191.80 591.67 1177.99 589.48 1169.00 591.00 C 1160.01 592.52 1143.42 586.24 1139.00 594.00
C 1131.10 607.87 1130.64 626.33 1124.07 641.07 C 1117.51 655.81 1114.51 672.68 1109.02 688.02 C 1103.54 703.37 1099.10 719.24 1093.67 734.67 C 1088.25 750.10 1084.90 766.14 1078.08 781.08 C 1071.27 796.02 1068.81 813.69 1063.07 829.07 C 1057.34 844.46 1053.31 860.46 1048.07 876.07 C 1042.84 891.68 1036.79 906.47 1032.23 922.23 C 1027.67 937.99 1023.10 954.14 1017.68 969.68 C 1012.26 985.22 1007.28 1000.45 1002.03 1016.03 C 996.77 1031.60 992.59 1048.50 987.02 1064.02 C 981.45 1079.55 976.04 1094.73 971.68 1110.68 C 967.32 1126.63 960.74 1141.28 956.08 1157.08 C 951.41 1172.87 946.77 1188.57 941.03 1204.03 C 935.28 1219.48 931.83 1235.58 926.01 1251.01 C 920.19 1266.44 916.24 1282.96 910.25 1298.25 C 904.26 1313.54 900.71 1330.31 896.01 1346.01 C 891.30 1361.70 885.02 1376.53 880.22 1392.22 C 875.42 1407.91 869.41 1423.18 865.02 1439.02 C 860.64 1454.87 854.62 1470.06 849.67 1485.67 C 844.73 1501.29 840.65 1518.00 834.00 1533.00
C 731.55 1224.17 632.36 912.88 531.00 603.00
C 526.25 592.96 523.19 589.42 511.00 591.00 C 498.81 592.58 490.34 590.29 479.00 591.00 C 467.66 591.71 457.94 590.68 447.00 591.00 C 436.06 591.32 425.73 590.85 415.00 591.00 C 404.27 591.15 394.64 590.93 384.00 591.00 C 373.36 591.07 362.65 590.97 352.00 591.00 C 341.35 591.03 330.64 590.99 320.00 591.00 C 309.36 591.01 298.62 590.99 288.00 591.00 C 277.38 591.01 266.57 591.00 256.00 591.00 C 245.43 591.00 235.57 591.00 225.00 591.00 C 214.43 591.00 203.60 591.00 193.00 591.00 C 182.40 591.00 171.59 591.00 161.00 591.00 C 150.41 591.00 139.53 591.00 129.00 591.00 C 118.47 591.00 108.48 591.00 98.00 591.00
C 140.22 641.73 178.36 697.34 220.23 748.77 C 262.10 800.20 301.12 853.77 342.25 905.75 C 383.38 957.74 423.71 1010.14 464.75 1062.25 C 505.79 1114.36 546.29 1167.58 587.25 1219.75 C 628.20 1271.92 668.58 1324.29 709.70 1376.30 C 750.81 1428.32 790.65 1481.40 832.00 1533.00 Z"/>
</g>
<g fill="#FCA420" fill-opacity="0.99" stroke="None">
<path d="
M 837.00 1532.00 
C 838.90 1531.26 841.22 1530.87 843.00 1530.00
C 876.75 1503.08 912.91 1480.45 947.25 1454.25 C 981.58 1428.04 1017.11 1404.52 1051.70 1378.70 C 1086.30 1352.88 1120.94 1328.62 1155.75 1302.75 C 1190.56 1276.88 1226.10 1252.86 1260.23 1227.23 C 1294.36 1201.60 1330.47 1177.11 1364.70 1151.70 C 1398.92 1126.28 1434.28 1101.28 1468.70 1075.70 C 1503.12 1050.11 1539.45 1026.01 1573.08 1000.08 C 1606.71 974.14 1651.49 953.50 1667.00 913.00
L 1667.00 882.00
C 1640.06 800.93 1612.87 719.65 1587.00 638.00
C 1585.62 641.96 1585.86 634.89 1586.00 636.00
C 1583.58 628.88 1582.35 619.69 1578.93 613.07 C 1575.51 606.46 1576.55 595.99 1571.00 591.00
C 1571.00 591.00 1570.50 591.00 1570.00 591.00
C 1562.28 605.46 1549.91 616.00 1540.75 628.75 C 1531.60 641.50 1520.73 653.85 1511.75 666.75 C 1502.77 679.65 1491.79 691.56 1482.25 704.25 C 1472.71 716.94 1462.05 728.97 1452.75 741.75 C 1443.46 754.54 1433.58 767.19 1423.75 779.75 C 1413.93 792.31 1403.90 804.61 1394.25 817.25 C 1384.60 829.88 1374.51 842.20 1364.75 854.75 C 1355.00 867.31 1344.92 879.66 1335.25 892.25 C 1325.58 904.84 1315.59 917.30 1305.92 929.92 C 1296.25 942.53 1286.68 955.28 1276.77 967.77 C 1266.86 980.26 1257.24 992.84 1247.25 1005.25 C 1237.27 1017.67 1227.99 1030.54 1217.92 1042.92 C 1207.84 1055.30 1198.45 1068.12 1188.75 1080.75 C 1179.05 1093.39 1169.03 1105.69 1159.25 1118.25 C 1149.48 1130.82 1139.59 1143.22 1129.75 1155.75 C 1119.92 1168.29 1110.22 1180.99 1100.75 1193.75 C 1091.29 1206.51 1081.30 1218.87 1071.30 1231.30 C 1061.31 1243.74 1051.09 1256.01 1041.75 1268.75 C 1032.41 1281.50 1021.64 1293.55 1012.30 1306.30 C 1002.97 1319.05 992.49 1331.30 982.75 1343.75 C 973.02 1356.21 963.56 1369.13 953.25 1381.25 C 942.95 1393.38 934.21 1406.95 924.25 1419.25 C 914.29 1431.55 905.31 1445.00 894.92 1456.92 C 884.52 1468.83 875.88 1482.88 865.25 1494.25 C 854.61 1505.62 848.37 1521.89 837.00 1532.00 Z"/>
</g>
<g fill="#E24023" fill-opacity="1.00" stroke="None">
<path d="
M 531.00 603.00 
C 632.36 912.88 731.55 1224.17 834.00 1533.00
C 840.65 1518.00 844.73 1501.29 849.67 1485.67 C 854.62 1470.06 860.64 1454.87 865.02 1439.02 C 869.41 1423.18 875.42 1407.91 880.22 1392.22 C 885.02 1376.53 891.30 1361.70 896.01 1346.01 C 900.71 1330.31 904.26 1313.54 910.25 1298.25 C 916.24 1282.96 920.19 1266.44 926.01 1251.01 C 931.83 1235.58 935.28 1219.48 941.03 1204.03 C 946.77 1188.57 951.41 1172.87 956.08 1157.08 C 960.74 1141.28 967.32 1126.63 971.68 1110.68 C 976.04 1094.73 981.45 1079.55 987.02 1064.02 C 992.59 1048.50 996.77 1031.60 1002.03 1016.03 C 1007.28 1000.45 1012.26 985.22 1017.68 969.68 C 1023.10 954.14 1027.67 937.99 1032.23 922.23 C 1036.79 906.47 1042.84 891.68 1048.07 876.07 C 1053.31 860.46 1057.34 844.46 1063.07 829.07 C 1068.81 813.69 1071.27 796.02 1078.08 781.08 C 1084.90 766.14 1088.25 750.10 1093.67 734.67 C 1099.10 719.24 1103.54 703.37 1109.02 688.02 C 1114.51 672.68 1117.51 655.81 1124.07 641.07 C 1130.64 626.33 1131.10 607.87 1139.00 594.00
C 1129.20 589.94 1114.35 592.54 1102.00 592.00 C 1089.65 591.46 1076.56 592.24 1064.00 592.00 C 1051.44 591.76 1038.71 592.11 1026.00 592.00 C 1013.29 591.89 999.75 592.05 987.00 592.00 C 974.25 591.95 961.74 592.02 949.00 592.00 C 936.26 591.98 923.79 592.01 911.00 592.00 C 898.21 591.99 884.79 592.00 872.00 592.00 C 859.21 592.00 846.76 592.00 834.00 592.00 C 821.24 592.00 808.79 592.00 796.00 592.00 C 783.21 592.00 769.79 592.00 757.00 592.00 C 744.21 592.00 731.76 592.00 719.00 592.00 C 706.24 592.00 693.78 592.00 681.00 592.00 C 668.22 592.00 654.77 592.00 642.00 592.00 C 629.23 592.00 616.72 592.00 604.00 592.00 C 591.28 592.00 578.69 592.00 566.00 592.00 C 553.31 592.00 540.69 592.00 528.00 592.00
C 528.80 595.74 529.95 599.34 531.00 603.00 Z"/>
</g>
<g fill="#FBB51C" fill-opacity="0.39" stroke="None">
<path d="
M 1587.00 638.00 
C 1586.78 637.29 1586.14 636.41 1586.00 636.00
C 1585.86 634.89 1585.62 641.96 1587.00 638.00 Z"/>
</g>
<g fill="#000000" fill-opacity="0.00" stroke="None">
<path d="
M 0.00 1535.00 
L 830.00 1535.00
C 795.70 1509.62 760.45 1483.13 725.08 1457.92 C 689.71 1432.70 654.63 1406.34 620.03 1380.97 C 585.43 1355.61 549.21 1331.20 514.75 1305.25 C 480.28 1279.30 443.92 1254.65 409.23 1228.77 C 374.54 1202.89 338.70 1177.95 303.75 1152.25 C 268.80 1126.55 233.76 1101.63 199.25 1075.75 C 164.73 1049.87 127.24 1025.94 93.70 999.30 C 60.16 972.66 15.15 954.12 0.00 912.00
L 0.00 1535.00 Z"/>
</g>
<g fill="#000000" fill-opacity="0.00" stroke="None">
<path d="
M 843.00 1530.00 
C 841.36 1531.31 839.00 1532.91 838.00 1535.00
L 1667.00 1535.00
L 1667.00 913.00
C 1651.49 953.50 1606.71 974.14 1573.08 1000.08 C 1539.45 1026.01 1503.12 1050.11 1468.70 1075.70 C 1434.28 1101.28 1398.92 1126.28 1364.70 1151.70 C 1330.47 1177.11 1294.36 1201.60 1260.23 1227.23 C 1226.10 1252.86 1190.56 1276.88 1155.75 1302.75 C 1120.94 1328.62 1086.30 1352.88 1051.70 1378.70 C 1017.11 1404.52 981.58 1428.04 947.25 1454.25 C 912.91 1480.45 876.75 1503.08 843.00 1530.00 Z"/>
</g>
<g fill="#FE941F" fill-opacity="0.35" stroke="None">
<path d="
M 837.00 1532.00 
C 834.24 1533.07 834.69 1533.00 832.00 1533.00
C 832.24 1533.30 832.00 1534.50 832.00 1535.00
L 838.00 1535.00
C 839.00 1532.91 841.36 1531.31 843.00 1530.00
C 841.22 1530.87 838.90 1531.26 837.00 1532.00 Z"/>
</g>
</svg>