<svg xmlns="http://www.w3.org/2000/svg" xmlns:v="https://svgstorm.com"
viewBox = "0 0 64 73"
width="64"
height="73">
<g fill="None" fill-opacity="0.0" stroke="#F7CBBC" stroke-opacity="0.13" stroke-width="0.3"><path d="
M 0.00 1.00 
C 21.33 1.00 42.67 1.00 64.00 1.00
L 64.00 0.00
L 0.00 0.00
L 0.00 1.00 Z"/>
</g>
<g fill="None" fill-opacity="0.0" stroke="#E55129" stroke-opacity="0.98" stroke-width="0.3"><path d="
M 0.00 2.00 
C 1.28 2.27 0.93 4.04 1.00 5.00
C 1.09 6.32 1.00 7.68 1.00 9.00
C 1.00 10.33 1.00 11.67 1.00 13.00
C 1.15 13.96 1.97 15.43 2.00 17.00
C 2.02 18.00 2.00 19.00 2.00 20.00
C 2.00 21.67 2.00 23.33 2.00 25.00
C 2.18 25.59 2.86 25.97 3.00 27.00
C 3.18 28.27 3.00 29.71 3.00 31.00
C 3.00 33.00 3.00 35.00 3.00 37.00
C 3.18 37.81 3.99 38.61 4.00 40.00
C 4.00 40.50 4.00 41.50 4.00 42.00
C 4.00 43.33 4.00 44.67 4.00 46.00
C 4.15 46.94 4.94 48.47 5.00 50.00
C 5.05 51.33 5.00 52.67 5.00 54.00
C 5.00 55.67 5.00 57.33 5.00 59.00
C 5.18 59.59 5.86 59.97 6.00 61.00
C 6.17 62.24 5.63 63.81 6.00 65.00
C 6.23 65.28 6.65 65.97 7.00 66.00
C 7.50 66.05 8.00 66.00 8.00 66.00
C 8.35 66.03 8.74 66.89 9.00 67.00
C 9.50 67.00 10.50 67.00 11.00 67.00
C 11.50 67.00 12.00 67.00 12.00 67.00
C 12.35 67.03 12.74 67.88 13.00 68.00
C 13.50 68.00 14.00 68.00 14.00 68.00
C 15.55 67.90 15.09 68.75 16.00 69.00
C 16.03 68.88 17.50 69.00 18.00 69.00
C 18.50 69.00 19.00 69.00 19.00 69.00
C 19.35 69.03 19.74 69.89 20.00 70.00
C 20.50 70.00 21.53 69.88 22.00 70.00
C 22.35 70.09 22.74 70.89 23.00 71.00
C 23.47 71.12 24.50 71.00 25.00 71.00
C 25.50 71.00 26.00 71.00 26.00 71.00
C 26.35 71.03 26.74 71.89 27.00 72.00
C 27.50 72.00 28.50 72.00 29.00 72.00
C 29.50 72.00 30.00 72.00 30.00 72.00
C 31.33 72.00 32.67 72.00 34.00 72.00
C 34.50 72.00 35.00 72.00 35.00 72.00
C 35.50 72.00 36.50 72.00 37.00 72.00
C 37.26 71.89 37.65 71.03 38.00 71.00
C 38.50 70.95 39.00 71.00 39.00 71.00
C 39.50 71.00 40.00 71.00 40.00 71.00
C 40.26 70.88 40.65 70.03 41.00 70.00
C 41.50 69.95 42.00 70.00 42.00 70.00
C 42.50 70.00 43.50 70.00 44.00 70.00
C 44.26 69.89 44.65 69.03 45.00 69.00
C 45.50 68.95 46.00 69.00 46.00 69.00
C 46.50 69.00 47.53 69.12 48.00 69.00
C 48.26 68.89 48.65 68.09 49.00 68.00
C 49.47 67.88 50.50 68.04 51.00 68.00
C 51.79 67.66 51.74 67.10 53.00 67.00
C 53.50 66.96 54.50 67.00 55.00 67.00
C 55.26 66.89 55.65 66.03 56.00 66.00
C 56.50 65.95 57.00 66.00 57.00 66.00
C 57.35 65.97 57.77 65.28 58.00 65.00
C 58.41 63.54 57.93 61.52 58.00 60.00
C 58.09 58.16 58.61 57.27 59.00 56.00
C 59.00 55.50 59.00 54.50 59.00 54.00
C 59.00 52.35 58.87 50.64 59.00 49.00
C 59.11 47.70 59.85 46.74 60.00 46.00
C 60.00 45.00 60.00 44.00 60.00 43.00
C 60.00 42.01 59.95 40.99 60.00 40.00
C 60.07 38.58 60.82 37.84 61.00 37.00
C 61.00 35.00 61.00 33.00 61.00 31.00
C 61.00 30.50 61.00 29.50 61.00 29.00
C 61.01 27.49 61.80 26.89 62.00 26.00
C 62.00 24.00 62.00 22.00 62.00 20.00
C 62.00 19.03 61.88 17.96 62.00 17.00
C 62.15 15.74 62.76 15.77 63.00 15.00
C 63.00 13.00 63.00 11.00 63.00 9.00
C 63.00 7.68 62.91 6.32 63.00 5.00
C 63.07 4.00 62.55 2.27 64.00 2.00
L 64.00 1.00
C 42.67 1.00 21.33 1.00 0.00 1.00
L 0.00 2.00
M 32.00 59.00 
C 22.41 59.00 11.23 53.63 15.00 42.00
C 20.12 40.62 24.40 43.36 23.00 49.00
C 29.19 51.24 34.66 50.28 41.00 49.00
C 40.32 45.06 42.03 41.79 42.00 38.00
C 32.67 38.00 23.33 38.00 14.00 38.00
C 13.26 30.03 12.89 21.95 12.00 14.00
C 18.67 14.00 25.33 14.00 32.00 14.00
C 32.00 11.33 32.00 8.67 32.00 6.00
C 40.67 6.00 49.33 6.00 58.00 6.00
C 56.40 24.67 54.55 43.30 53.00 62.00
C 45.86 63.00 39.15 65.75 32.00 67.00
C 32.00 64.33 32.00 61.67 32.00 59.00 Z"/>
</g>
<g fill="None" fill-opacity="0.0" stroke="#ED8C73" stroke-opacity="0.42" stroke-width="0.3"><path d="
M 0.00 5.00 
C 0.50 5.00 1.00 5.00 1.00 5.00
C 0.93 4.04 1.28 2.27 0.00 2.00
L 0.00 5.00 Z"/>
</g>
<g fill="None" fill-opacity="0.0" stroke="#EE8D75" stroke-opacity="0.42" stroke-width="0.3"><path d="
M 63.00 5.00 
C 63.13 4.78 64.00 5.00 64.00 5.00
L 64.00 2.00
C 62.55 2.27 63.07 4.00 63.00 5.00 Z"/>
</g>
<g fill="None" fill-opacity="0.0" stroke="#F6C3B7" stroke-opacity="0.15" stroke-width="0.3"><path d="
M 0.00 9.00 
C 0.50 9.00 1.00 9.00 1.00 9.00
C 1.00 7.68 1.09 6.32 1.00 5.00
C 1.00 5.00 0.50 5.00 0.00 5.00
L 0.00 9.00 Z"/>
</g>
<g fill="None" fill-opacity="0.0" stroke="#F6C8B7" stroke-opacity="0.15" stroke-width="0.3"><path d="
M 63.00 9.00 
C 63.13 9.22 64.00 9.00 64.00 9.00
L 64.00 5.00
C 64.00 5.00 63.13 4.78 63.00 5.00
C 62.91 6.32 63.00 7.68 63.00 9.00 Z"/>
</g>
<g fill="None" fill-opacity="0.0" stroke="#EF642C" stroke-opacity="1.00" stroke-width="0.3"><path d="
M 32.00 14.00 
C 38.67 14.00 45.33 14.00 52.00 14.00
C 52.03 16.74 50.37 19.08 51.00 22.00
C 41.00 22.00 31.00 22.00 21.00 22.00
C 18.50 30.40 24.59 30.50 31.00 30.00 C 37.41 29.50 43.61 30.37 50.00 30.00
C 50.46 38.62 48.84 46.69 48.00 55.00
C 42.57 55.90 37.43 57.94 32.00 59.00
C 32.00 61.67 32.00 64.33 32.00 67.00
C 39.15 65.75 45.86 63.00 53.00 62.00
C 54.55 43.30 56.40 24.67 58.00 6.00
C 49.33 6.00 40.67 6.00 32.00 6.00
C 32.00 8.67 32.00 11.33 32.00 14.00 Z"/>
</g>
<g fill="None" fill-opacity="0.0" stroke="#000000" stroke-opacity="0.00" stroke-width="0.3"><path d="
M 0.00 73.00 
L 29.00 73.00
C 29.00 72.50 29.00 72.00 29.00 72.00
C 28.50 72.00 27.50 72.00 27.00 72.00
C 26.50 72.00 26.00 72.00 26.00 72.00
C 25.65 71.97 25.26 71.11 25.00 71.00
C 24.50 71.00 23.47 71.12 23.00 71.00
C 22.65 70.91 22.26 70.11 22.00 70.00
C 21.53 69.88 20.50 70.00 20.00 70.00
C 19.50 70.00 19.00 70.00 19.00 70.00
C 18.65 69.97 18.26 69.11 18.00 69.00
C 17.50 69.00 16.03 68.88 16.00 69.00
C 15.71 70.19 13.92 67.95 14.00 68.00
C 14.00 68.00 13.50 68.00 13.00 68.00
C 12.50 68.00 12.00 68.00 12.00 68.00
C 11.65 67.97 11.26 67.11 11.00 67.00
C 10.50 67.00 9.50 67.00 9.00 67.00
C 8.50 67.00 8.00 67.00 8.00 67.00
C 7.65 66.97 7.25 66.25 7.00 66.00
C 6.65 65.97 6.23 65.28 6.00 65.00
C 5.00 63.78 4.94 62.79 5.00 61.00
C 5.02 60.50 5.00 59.50 5.00 59.00
C 5.00 57.33 5.00 55.67 5.00 54.00
C 4.85 53.06 4.06 51.54 4.00 50.00
C 3.95 48.67 4.00 47.33 4.00 46.00
C 4.00 44.67 4.00 43.33 4.00 42.00
C 3.83 41.42 3.13 41.04 3.00 40.00
C 2.88 39.04 3.00 37.97 3.00 37.00
C 3.00 35.00 3.00 33.00 3.00 31.00
C 2.83 29.98 1.95 28.66 2.00 27.00
C 2.02 26.50 2.00 25.50 2.00 25.00
C 2.00 23.33 2.00 21.67 2.00 20.00
C 1.84 19.27 1.09 18.27 1.00 17.00
C 0.91 15.68 1.00 14.32 1.00 13.00
C 1.00 11.67 1.00 10.33 1.00 9.00
C 1.00 9.00 0.50 9.00 0.00 9.00
L 0.00 73.00 Z"/>
</g>
<g fill="None" fill-opacity="0.0" stroke="#000000" stroke-opacity="0.00" stroke-width="0.3"><path d="
M 63.00 15.00 
C 63.00 15.50 63.00 16.50 63.00 17.00
C 62.99 18.51 62.20 19.11 62.00 20.00
C 62.00 22.00 62.00 24.00 62.00 26.00
C 62.00 26.97 62.12 28.04 62.00 29.00
C 61.85 30.26 61.24 30.23 61.00 31.00
C 61.00 33.00 61.00 35.00 61.00 37.00
C 61.00 37.99 61.05 39.01 61.00 40.00
C 60.93 41.37 60.15 42.22 60.00 43.00
C 60.00 44.00 60.00 45.00 60.00 46.00
C 60.00 47.00 60.00 48.00 60.00 49.00
C 60.01 51.23 59.58 52.38 59.00 54.00
C 59.00 54.50 59.00 55.50 59.00 56.00
C 59.00 57.33 59.02 58.67 59.00 60.00
C 58.96 62.15 59.27 63.47 58.00 65.00
C 57.77 65.28 57.35 65.97 57.00 66.00
C 56.75 66.25 56.35 66.97 56.00 67.00
C 55.50 67.05 55.00 67.00 55.00 67.00
C 54.50 67.00 53.50 66.96 53.00 67.00
C 53.73 67.68 51.00 68.00 51.00 68.00
C 50.50 68.04 49.47 67.88 49.00 68.00
C 48.74 68.11 48.35 68.91 48.00 69.00
C 47.53 69.12 46.50 69.00 46.00 69.00
C 45.74 69.11 45.35 69.97 45.00 70.00
C 44.50 70.05 44.00 70.00 44.00 70.00
C 43.50 70.00 42.50 70.00 42.00 70.00
C 41.74 70.11 41.35 70.97 41.00 71.00
C 40.50 71.05 40.00 71.00 40.00 71.00
C 40.00 71.00 39.50 71.00 39.00 71.00
C 38.74 71.12 38.35 71.97 38.00 72.00
C 37.50 72.05 37.00 72.00 37.00 72.00
C 36.50 72.00 35.50 72.00 35.00 72.00
C 35.25 72.25 35.00 73.00 35.00 73.00
L 64.00 73.00
L 64.00 9.00
C 64.00 9.00 63.13 9.22 63.00 9.00
C 63.00 11.00 63.00 13.00 63.00 15.00 Z"/>
</g>
<g fill="None" fill-opacity="0.0" stroke="#EE9179" stroke-opacity="0.40" stroke-width="0.3"><path d="
M 1.00 17.00 
C 1.13 17.22 2.00 17.00 2.00 17.00
C 1.97 15.43 1.15 13.96 1.00 13.00
C 1.00 14.32 0.91 15.68 1.00 17.00 Z"/>
</g>
<g fill="None" fill-opacity="0.0" stroke="#F4F1F0" stroke-opacity="1.00" stroke-width="0.3"><path d="
M 32.00 59.00 
C 37.43 57.94 42.57 55.90 48.00 55.00
C 48.84 46.69 50.46 38.62 50.00 30.00
C 43.61 30.37 37.41 29.50 31.00 30.00 C 24.59 30.50 18.50 30.40 21.00 22.00
C 31.00 22.00 41.00 22.00 51.00 22.00
C 50.37 19.08 52.03 16.74 52.00 14.00
C 45.33 14.00 38.67 14.00 32.00 14.00
C 25.33 14.00 18.67 14.00 12.00 14.00
C 12.89 21.95 13.26 30.03 14.00 38.00
C 23.33 38.00 32.67 38.00 42.00 38.00
C 42.03 41.79 40.32 45.06 41.00 49.00
C 34.66 50.28 29.19 51.24 23.00 49.00
C 24.40 43.36 20.12 40.62 15.00 42.00
C 11.23 53.63 22.41 59.00 32.00 59.00 Z"/>
</g>
<g fill="None" fill-opacity="0.0" stroke="#EE9F8B" stroke-opacity="0.33" stroke-width="0.3"><path d="
M 62.00 17.00 
C 62.27 16.75 63.00 17.00 63.00 17.00
C 63.00 16.50 63.00 15.50 63.00 15.00
C 62.76 15.77 62.15 15.74 62.00 17.00 Z"/>
</g>
<g fill="None" fill-opacity="0.0" stroke="#F9CAC2" stroke-opacity="0.13" stroke-width="0.3"><path d="
M 2.00 20.00 
C 2.00 19.00 2.02 18.00 2.00 17.00
C 2.00 17.00 1.13 17.22 1.00 17.00
C 1.09 18.27 1.84 19.27 2.00 20.00 Z"/>
</g>
<g fill="None" fill-opacity="0.0" stroke="#F8CDBE" stroke-opacity="0.12" stroke-width="0.3"><path d="
M 62.00 20.00 
C 62.20 19.11 62.99 18.51 63.00 17.00
C 63.00 17.00 62.27 16.75 62.00 17.00
C 61.88 17.96 62.00 19.03 62.00 20.00 Z"/>
</g>
<g fill="None" fill-opacity="0.0" stroke="#EE8E75" stroke-opacity="0.42" stroke-width="0.3"><path d="
M 2.00 27.00 
C 2.34 27.23 3.00 27.00 3.00 27.00
C 2.86 25.97 2.18 25.59 2.00 25.00
C 2.00 25.50 2.02 26.50 2.00 27.00 Z"/>
</g>
<g fill="None" fill-opacity="0.0" stroke="#F0A794" stroke-opacity="0.30" stroke-width="0.3"><path d="
M 61.00 29.00 
C 61.34 28.77 62.00 29.00 62.00 29.00
C 62.12 28.04 62.00 26.97 62.00 26.00
C 61.80 26.89 61.01 27.49 61.00 29.00 Z"/>
</g>
<g fill="None" fill-opacity="0.0" stroke="#F6BFB3" stroke-opacity="0.18" stroke-width="0.3"><path d="
M 3.00 31.00 
C 3.00 29.71 3.18 28.27 3.00 27.00
C 3.00 27.00 2.34 27.23 2.00 27.00
C 1.95 28.66 2.83 29.98 3.00 31.00 Z"/>
</g>
<g fill="None" fill-opacity="0.0" stroke="#FBCFC8" stroke-opacity="0.10" stroke-width="0.3"><path d="
M 61.00 31.00 
C 61.24 30.23 61.85 30.26 62.00 29.00
C 62.00 29.00 61.34 28.77 61.00 29.00
C 61.00 29.50 61.00 30.50 61.00 31.00 Z"/>
</g>
<g fill="None" fill-opacity="0.0" stroke="#F0A18D" stroke-opacity="0.33" stroke-width="0.3"><path d="
M 3.00 40.00 
C 3.27 40.25 4.00 40.00 4.00 40.00
C 3.99 38.61 3.18 37.81 3.00 37.00
C 3.00 37.97 2.88 39.04 3.00 40.00 Z"/>
</g>
<g fill="None" fill-opacity="0.0" stroke="#F0A390" stroke-opacity="0.31" stroke-width="0.3"><path d="
M 60.00 40.00 
C 60.27 39.75 61.00 40.00 61.00 40.00
C 61.05 39.01 61.00 37.99 61.00 37.00
C 60.82 37.84 60.07 38.58 60.00 40.00 Z"/>
</g>
<g fill="None" fill-opacity="0.0" stroke="#FBCDC6" stroke-opacity="0.09" stroke-width="0.3"><path d="
M 4.00 42.00 
C 4.00 41.50 4.00 40.50 4.00 40.00
C 4.00 40.00 3.27 40.25 3.00 40.00
C 3.13 41.04 3.83 41.42 4.00 42.00 Z"/>
</g>
<g fill="None" fill-opacity="0.0" stroke="#FCE1D9" stroke-opacity="0.07" stroke-width="0.3"><path d="
M 60.00 43.00 
C 60.15 42.22 60.93 41.37 61.00 40.00
C 61.00 40.00 60.27 39.75 60.00 40.00
C 59.95 40.99 60.00 42.01 60.00 43.00 Z"/>
</g>
<g fill="None" fill-opacity="0.0" stroke="#ED896E" stroke-opacity="0.44" stroke-width="0.3"><path d="
M 4.00 50.00 
C 4.13 50.22 5.00 50.00 5.00 50.00
C 4.94 48.47 4.15 46.94 4.00 46.00
C 4.00 47.33 3.95 48.67 4.00 50.00 Z"/>
</g>
<g fill="None" fill-opacity="0.0" stroke="#EB7F63" stroke-opacity="0.49" stroke-width="0.3"><path d="
M 59.00 49.00 
C 59.05 48.85 60.00 49.00 60.00 49.00
C 60.00 48.00 60.00 47.00 60.00 46.00
C 59.85 46.74 59.11 47.70 59.00 49.00 Z"/>
</g>
<g fill="None" fill-opacity="0.0" stroke="#F7C2B2" stroke-opacity="0.17" stroke-width="0.3"><path d="
M 59.00 54.00 
C 59.58 52.38 60.01 51.23 60.00 49.00
C 60.00 49.00 59.05 48.85 59.00 49.00
C 58.87 50.64 59.00 52.35 59.00 54.00 Z"/>
</g>
<g fill="None" fill-opacity="0.0" stroke="#F8C9BA" stroke-opacity="0.14" stroke-width="0.3"><path d="
M 5.00 54.00 
C 5.00 52.67 5.05 51.33 5.00 50.00
C 5.00 50.00 4.13 50.22 4.00 50.00
C 4.06 51.54 4.85 53.06 5.00 54.00 Z"/>
</g>
<g fill="None" fill-opacity="0.0" stroke="#E97557" stroke-opacity="0.54" stroke-width="0.3"><path d="
M 58.00 60.00 
C 58.05 59.85 59.00 60.00 59.00 60.00
C 59.02 58.67 59.00 57.33 59.00 56.00
C 58.61 57.27 58.09 58.16 58.00 60.00 Z"/>
</g>
<g fill="None" fill-opacity="0.0" stroke="#EE9881" stroke-opacity="0.37" stroke-width="0.3"><path d="
M 5.00 61.00 
C 5.34 61.23 6.00 61.00 6.00 61.00
C 5.86 59.97 5.18 59.59 5.00 59.00
C 5.00 59.50 5.02 60.50 5.00 61.00 Z"/>
</g>
<g fill="None" fill-opacity="0.0" stroke="#F4BBAD" stroke-opacity="0.20" stroke-width="0.3"><path d="
M 58.00 65.00 
C 59.27 63.47 58.96 62.15 59.00 60.00
C 59.00 60.00 58.05 59.85 58.00 60.00
C 57.93 61.52 58.41 63.54 58.00 65.00 Z"/>
</g>
<g fill="None" fill-opacity="0.0" stroke="#F5C1B3" stroke-opacity="0.18" stroke-width="0.3"><path d="
M 6.00 65.00 
C 5.63 63.81 6.17 62.24 6.00 61.00
C 6.00 61.00 5.34 61.23 5.00 61.00
C 4.94 62.79 5.00 63.78 6.00 65.00 Z"/>
</g>
<g fill="None" fill-opacity="0.0" stroke="#F3D1C5" stroke-opacity="0.09" stroke-width="0.3"><path d="
M 8.00 67.00 
C 7.75 66.75 8.00 66.00 8.00 66.00
C 8.00 66.00 7.50 66.05 7.00 66.00
C 7.25 66.25 7.65 66.97 8.00 67.00 Z"/>
</g>
<g fill="None" fill-opacity="0.0" stroke="#F1A38F" stroke-opacity="0.31" stroke-width="0.3"><path d="
M 8.00 67.00 
C 8.00 67.00 8.50 67.00 9.00 67.00
C 8.74 66.89 8.35 66.03 8.00 66.00
C 8.00 66.00 7.75 66.75 8.00 67.00 Z"/>
</g>
<g fill="None" fill-opacity="0.0" stroke="#F1A894" stroke-opacity="0.30" stroke-width="0.3"><path d="
M 55.00 67.00 
C 55.00 67.00 55.50 67.05 56.00 67.00
C 56.25 66.75 56.00 66.00 56.00 66.00
C 55.65 66.03 55.26 66.89 55.00 67.00 Z"/>
</g>
<g fill="None" fill-opacity="0.0" stroke="#FFDFCF" stroke-opacity="0.06" stroke-width="0.3"><path d="
M 56.00 67.00 
C 56.35 66.97 56.75 66.25 57.00 66.00
C 57.00 66.00 56.50 65.95 56.00 66.00
C 56.00 66.00 56.25 66.75 56.00 67.00 Z"/>
</g>
<g fill="None" fill-opacity="0.0" stroke="#F9C6B9" stroke-opacity="0.16" stroke-width="0.3"><path d="
M 12.00 68.00 
C 11.75 67.75 12.00 67.00 12.00 67.00
C 12.00 67.00 11.50 67.00 11.00 67.00
C 11.26 67.11 11.65 67.97 12.00 68.00 Z"/>
</g>
<g fill="None" fill-opacity="0.0" stroke="#ED9178" stroke-opacity="0.41" stroke-width="0.3"><path d="
M 12.00 68.00 
C 12.00 68.00 12.50 68.00 13.00 68.00
C 12.74 67.88 12.35 67.03 12.00 67.00
C 12.00 67.00 11.75 67.75 12.00 68.00 Z"/>
</g>
<g fill="None" fill-opacity="0.0" stroke="#F1AF9E" stroke-opacity="0.25" stroke-width="0.3"><path d="
M 51.00 68.00 
C 51.00 68.00 53.73 67.68 53.00 67.00
C 51.74 67.10 51.79 67.66 51.00 68.00 Z"/>
</g>
<g fill="None" fill-opacity="0.0" stroke="#FACBBC" stroke-opacity="0.14" stroke-width="0.3"><path d="
M 16.00 69.00 
C 15.09 68.75 15.55 67.90 14.00 68.00
C 13.92 67.95 15.71 70.19 16.00 69.00 Z"/>
</g>
<g fill="None" fill-opacity="0.0" stroke="#F6B8AA" stroke-opacity="0.21" stroke-width="0.3"><path d="
M 48.00 69.00 
C 48.35 68.91 48.74 68.11 49.00 68.00
C 48.65 68.09 48.26 68.89 48.00 69.00 Z"/>
</g>
<g fill="None" fill-opacity="0.0" stroke="#FFD9CC" stroke-opacity="0.08" stroke-width="0.3"><path d="
M 19.00 70.00 
C 18.75 69.75 19.00 69.00 19.00 69.00
C 19.00 69.00 18.50 69.00 18.00 69.00
C 18.26 69.11 18.65 69.97 19.00 70.00 Z"/>
</g>
<g fill="None" fill-opacity="0.0" stroke="#EEA28C" stroke-opacity="0.32" stroke-width="0.3"><path d="
M 19.00 70.00 
C 19.00 70.00 19.50 70.00 20.00 70.00
C 19.74 69.89 19.35 69.03 19.00 69.00
C 19.00 69.00 18.75 69.75 19.00 70.00 Z"/>
</g>
<g fill="None" fill-opacity="0.0" stroke="#EFA18C" stroke-opacity="0.33" stroke-width="0.3"><path d="
M 44.00 70.00 
C 44.00 70.00 44.50 70.05 45.00 70.00
C 45.25 69.75 45.00 69.00 45.00 69.00
C 44.65 69.03 44.26 69.89 44.00 70.00 Z"/>
</g>
<g fill="None" fill-opacity="0.0" stroke="#FFE6CC" stroke-opacity="0.04" stroke-width="0.3"><path d="
M 45.00 70.00 
C 45.35 69.97 45.74 69.11 46.00 69.00
C 46.00 69.00 45.50 68.95 45.00 69.00
C 45.00 69.00 45.25 69.75 45.00 70.00 Z"/>
</g>
<g fill="None" fill-opacity="0.0" stroke="#F4BFAF" stroke-opacity="0.19" stroke-width="0.3"><path d="
M 23.00 71.00 
C 22.74 70.89 22.35 70.09 22.00 70.00
C 22.26 70.11 22.65 70.91 23.00 71.00 Z"/>
</g>
<g fill="None" fill-opacity="0.0" stroke="#ED9178" stroke-opacity="0.41" stroke-width="0.3"><path d="
M 40.00 71.00 
C 40.00 71.00 40.50 71.05 41.00 71.00
C 41.25 70.75 41.00 70.00 41.00 70.00
C 40.65 70.03 40.26 70.88 40.00 71.00 Z"/>
</g>
<g fill="None" fill-opacity="0.0" stroke="#F3BFB4" stroke-opacity="0.17" stroke-width="0.3"><path d="
M 41.00 71.00 
C 41.35 70.97 41.74 70.11 42.00 70.00
C 42.00 70.00 41.50 69.95 41.00 70.00
C 41.00 70.00 41.25 70.75 41.00 71.00 Z"/>
</g>
<g fill="None" fill-opacity="0.0" stroke="#FFD5C6" stroke-opacity="0.07" stroke-width="0.3"><path d="
M 26.00 72.00 
C 25.75 71.75 26.00 71.00 26.00 71.00
C 26.00 71.00 25.50 71.00 25.00 71.00
C 25.26 71.11 25.65 71.97 26.00 72.00 Z"/>
</g>
<g fill="None" fill-opacity="0.0" stroke="#F1AA98" stroke-opacity="0.28" stroke-width="0.3"><path d="
M 26.00 72.00 
C 26.00 72.00 26.50 72.00 27.00 72.00
C 26.74 71.89 26.35 71.03 26.00 71.00
C 26.00 71.00 25.75 71.75 26.00 72.00 Z"/>
</g>
<g fill="None" fill-opacity="0.0" stroke="#F3AE9E" stroke-opacity="0.26" stroke-width="0.3"><path d="
M 37.00 72.00 
C 37.00 72.00 37.50 72.05 38.00 72.00
C 38.25 71.75 38.00 71.00 38.00 71.00
C 37.65 71.03 37.26 71.89 37.00 72.00 Z"/>
</g>
<g fill="None" fill-opacity="0.0" stroke="#FFD5D5" stroke-opacity="0.05" stroke-width="0.3"><path d="
M 38.00 72.00 
C 38.35 71.97 38.74 71.12 39.00 71.00
C 39.00 71.00 38.50 70.95 38.00 71.00
C 38.00 71.00 38.25 71.75 38.00 72.00 Z"/>
</g>
<g fill="None" fill-opacity="0.0" stroke="#F8C6BF" stroke-opacity="0.14" stroke-width="0.3"><path d="
M 29.00 73.00 
L 30.00 73.00
C 30.00 72.50 30.00 72.00 30.00 72.00
C 30.00 72.00 29.50 72.00 29.00 72.00
C 29.00 72.00 29.00 72.50 29.00 73.00 Z"/>
</g>
<g fill="None" fill-opacity="0.0" stroke="#EB7D61" stroke-opacity="0.50" stroke-width="0.3"><path d="
M 30.00 73.00 
L 34.00 73.00
C 34.00 72.50 34.00 72.00 34.00 72.00
C 32.67 72.00 31.33 72.00 30.00 72.00
C 30.00 72.00 30.00 72.50 30.00 73.00 Z"/>
</g>
<g fill="None" fill-opacity="0.0" stroke="#F6D1C8" stroke-opacity="0.11" stroke-width="0.3"><path d="
M 34.00 73.00 
L 35.00 73.00
C 35.00 73.00 35.25 72.25 35.00 72.00
C 35.00 72.00 34.50 72.00 34.00 72.00
C 34.00 72.00 34.00 72.50 34.00 73.00 Z"/>
</g>
<g fill="#F7CBBC" fill-opacity="0.13" stroke="None">
<path d="
M 0.00 1.00 
C 21.33 1.00 42.67 1.00 64.00 1.00
L 64.00 0.00
L 0.00 0.00
L 0.00 1.00 Z"/>
</g>
<g fill="#E55129" fill-opacity="0.98" stroke="None">
<path d="
M 0.00 2.00 
C 1.28 2.27 0.93 4.04 1.00 5.00
C 1.09 6.32 1.00 7.68 1.00 9.00
C 1.00 10.33 1.00 11.67 1.00 13.00
C 1.15 13.96 1.97 15.43 2.00 17.00
C 2.02 18.00 2.00 19.00 2.00 20.00
C 2.00 21.67 2.00 23.33 2.00 25.00
C 2.18 25.59 2.86 25.97 3.00 27.00
C 3.18 28.27 3.00 29.71 3.00 31.00
C 3.00 33.00 3.00 35.00 3.00 37.00
C 3.18 37.81 3.99 38.61 4.00 40.00
C 4.00 40.50 4.00 41.50 4.00 42.00
C 4.00 43.33 4.00 44.67 4.00 46.00
C 4.15 46.94 4.94 48.47 5.00 50.00
C 5.05 51.33 5.00 52.67 5.00 54.00
C 5.00 55.67 5.00 57.33 5.00 59.00
C 5.18 59.59 5.86 59.97 6.00 61.00
C 6.17 62.24 5.63 63.81 6.00 65.00
C 6.23 65.28 6.65 65.97 7.00 66.00
C 7.50 66.05 8.00 66.00 8.00 66.00
C 8.35 66.03 8.74 66.89 9.00 67.00
C 9.50 67.00 10.50 67.00 11.00 67.00
C 11.50 67.00 12.00 67.00 12.00 67.00
C 12.35 67.03 12.74 67.88 13.00 68.00
C 13.50 68.00 14.00 68.00 14.00 68.00
C 15.55 67.90 15.09 68.75 16.00 69.00
C 16.03 68.88 17.50 69.00 18.00 69.00
C 18.50 69.00 19.00 69.00 19.00 69.00
C 19.35 69.03 19.74 69.89 20.00 70.00
C 20.50 70.00 21.53 69.88 22.00 70.00
C 22.35 70.09 22.74 70.89 23.00 71.00
C 23.47 71.12 24.50 71.00 25.00 71.00
C 25.50 71.00 26.00 71.00 26.00 71.00
C 26.35 71.03 26.74 71.89 27.00 72.00
C 27.50 72.00 28.50 72.00 29.00 72.00
C 29.50 72.00 30.00 72.00 30.00 72.00
C 31.33 72.00 32.67 72.00 34.00 72.00
C 34.50 72.00 35.00 72.00 35.00 72.00
C 35.50 72.00 36.50 72.00 37.00 72.00
C 37.26 71.89 37.65 71.03 38.00 71.00
C 38.50 70.95 39.00 71.00 39.00 71.00
C 39.50 71.00 40.00 71.00 40.00 71.00
C 40.26 70.88 40.65 70.03 41.00 70.00
C 41.50 69.95 42.00 70.00 42.00 70.00
C 42.50 70.00 43.50 70.00 44.00 70.00
C 44.26 69.89 44.65 69.03 45.00 69.00
C 45.50 68.95 46.00 69.00 46.00 69.00
C 46.50 69.00 47.53 69.12 48.00 69.00
C 48.26 68.89 48.65 68.09 49.00 68.00
C 49.47 67.88 50.50 68.04 51.00 68.00
C 51.79 67.66 51.74 67.10 53.00 67.00
C 53.50 66.96 54.50 67.00 55.00 67.00
C 55.26 66.89 55.65 66.03 56.00 66.00
C 56.50 65.95 57.00 66.00 57.00 66.00
C 57.35 65.97 57.77 65.28 58.00 65.00
C 58.41 63.54 57.93 61.52 58.00 60.00
C 58.09 58.16 58.61 57.27 59.00 56.00
C 59.00 55.50 59.00 54.50 59.00 54.00
C 59.00 52.35 58.87 50.64 59.00 49.00
C 59.11 47.70 59.85 46.74 60.00 46.00
C 60.00 45.00 60.00 44.00 60.00 43.00
C 60.00 42.01 59.95 40.99 60.00 40.00
C 60.07 38.58 60.82 37.84 61.00 37.00
C 61.00 35.00 61.00 33.00 61.00 31.00
C 61.00 30.50 61.00 29.50 61.00 29.00
C 61.01 27.49 61.80 26.89 62.00 26.00
C 62.00 24.00 62.00 22.00 62.00 20.00
C 62.00 19.03 61.88 17.96 62.00 17.00
C 62.15 15.74 62.76 15.77 63.00 15.00
C 63.00 13.00 63.00 11.00 63.00 9.00
C 63.00 7.68 62.91 6.32 63.00 5.00
C 63.07 4.00 62.55 2.27 64.00 2.00
L 64.00 1.00
C 42.67 1.00 21.33 1.00 0.00 1.00
L 0.00 2.00
M 32.00 59.00 
C 22.41 59.00 11.23 53.63 15.00 42.00
C 20.12 40.62 24.40 43.36 23.00 49.00
C 29.19 51.24 34.66 50.28 41.00 49.00
C 40.32 45.06 42.03 41.79 42.00 38.00
C 32.67 38.00 23.33 38.00 14.00 38.00
C 13.26 30.03 12.89 21.95 12.00 14.00
C 18.67 14.00 25.33 14.00 32.00 14.00
C 32.00 11.33 32.00 8.67 32.00 6.00
C 40.67 6.00 49.33 6.00 58.00 6.00
C 56.40 24.67 54.55 43.30 53.00 62.00
C 45.86 63.00 39.15 65.75 32.00 67.00
C 32.00 64.33 32.00 61.67 32.00 59.00 Z"/>
</g>
<g fill="#ED8C73" fill-opacity="0.42" stroke="None">
<path d="
M 0.00 5.00 
C 0.50 5.00 1.00 5.00 1.00 5.00
C 0.93 4.04 1.28 2.27 0.00 2.00
L 0.00 5.00 Z"/>
</g>
<g fill="#EE8D75" fill-opacity="0.42" stroke="None">
<path d="
M 63.00 5.00 
C 63.13 4.78 64.00 5.00 64.00 5.00
L 64.00 2.00
C 62.55 2.27 63.07 4.00 63.00 5.00 Z"/>
</g>
<g fill="#F6C3B7" fill-opacity="0.15" stroke="None">
<path d="
M 0.00 9.00 
C 0.50 9.00 1.00 9.00 1.00 9.00
C 1.00 7.68 1.09 6.32 1.00 5.00
C 1.00 5.00 0.50 5.00 0.00 5.00
L 0.00 9.00 Z"/>
</g>
<g fill="#F6C8B7" fill-opacity="0.15" stroke="None">
<path d="
M 63.00 9.00 
C 63.13 9.22 64.00 9.00 64.00 9.00
L 64.00 5.00
C 64.00 5.00 63.13 4.78 63.00 5.00
C 62.91 6.32 63.00 7.68 63.00 9.00 Z"/>
</g>
<g fill="#EF642C" fill-opacity="1.00" stroke="None">
<path d="
M 32.00 14.00 
C 38.67 14.00 45.33 14.00 52.00 14.00
C 52.03 16.74 50.37 19.08 51.00 22.00
C 41.00 22.00 31.00 22.00 21.00 22.00
C 18.50 30.40 24.59 30.50 31.00 30.00 C 37.41 29.50 43.61 30.37 50.00 30.00
C 50.46 38.62 48.84 46.69 48.00 55.00
C 42.57 55.90 37.43 57.94 32.00 59.00
C 32.00 61.67 32.00 64.33 32.00 67.00
C 39.15 65.75 45.86 63.00 53.00 62.00
C 54.55 43.30 56.40 24.67 58.00 6.00
C 49.33 6.00 40.67 6.00 32.00 6.00
C 32.00 8.67 32.00 11.33 32.00 14.00 Z"/>
</g>
<g fill="#000000" fill-opacity="0.00" stroke="None">
<path d="
M 0.00 73.00 
L 29.00 73.00
C 29.00 72.50 29.00 72.00 29.00 72.00
C 28.50 72.00 27.50 72.00 27.00 72.00
C 26.50 72.00 26.00 72.00 26.00 72.00
C 25.65 71.97 25.26 71.11 25.00 71.00
C 24.50 71.00 23.47 71.12 23.00 71.00
C 22.65 70.91 22.26 70.11 22.00 70.00
C 21.53 69.88 20.50 70.00 20.00 70.00
C 19.50 70.00 19.00 70.00 19.00 70.00
C 18.65 69.97 18.26 69.11 18.00 69.00
C 17.50 69.00 16.03 68.88 16.00 69.00
C 15.71 70.19 13.92 67.95 14.00 68.00
C 14.00 68.00 13.50 68.00 13.00 68.00
C 12.50 68.00 12.00 68.00 12.00 68.00
C 11.65 67.97 11.26 67.11 11.00 67.00
C 10.50 67.00 9.50 67.00 9.00 67.00
C 8.50 67.00 8.00 67.00 8.00 67.00
C 7.65 66.97 7.25 66.25 7.00 66.00
C 6.65 65.97 6.23 65.28 6.00 65.00
C 5.00 63.78 4.94 62.79 5.00 61.00
C 5.02 60.50 5.00 59.50 5.00 59.00
C 5.00 57.33 5.00 55.67 5.00 54.00
C 4.85 53.06 4.06 51.54 4.00 50.00
C 3.95 48.67 4.00 47.33 4.00 46.00
C 4.00 44.67 4.00 43.33 4.00 42.00
C 3.83 41.42 3.13 41.04 3.00 40.00
C 2.88 39.04 3.00 37.97 3.00 37.00
C 3.00 35.00 3.00 33.00 3.00 31.00
C 2.83 29.98 1.95 28.66 2.00 27.00
C 2.02 26.50 2.00 25.50 2.00 25.00
C 2.00 23.33 2.00 21.67 2.00 20.00
C 1.84 19.27 1.09 18.27 1.00 17.00
C 0.91 15.68 1.00 14.32 1.00 13.00
C 1.00 11.67 1.00 10.33 1.00 9.00
C 1.00 9.00 0.50 9.00 0.00 9.00
L 0.00 73.00 Z"/>
</g>
<g fill="#000000" fill-opacity="0.00" stroke="None">
<path d="
M 63.00 15.00 
C 63.00 15.50 63.00 16.50 63.00 17.00
C 62.99 18.51 62.20 19.11 62.00 20.00
C 62.00 22.00 62.00 24.00 62.00 26.00
C 62.00 26.97 62.12 28.04 62.00 29.00
C 61.85 30.26 61.24 30.23 61.00 31.00
C 61.00 33.00 61.00 35.00 61.00 37.00
C 61.00 37.99 61.05 39.01 61.00 40.00
C 60.93 41.37 60.15 42.22 60.00 43.00
C 60.00 44.00 60.00 45.00 60.00 46.00
C 60.00 47.00 60.00 48.00 60.00 49.00
C 60.01 51.23 59.58 52.38 59.00 54.00
C 59.00 54.50 59.00 55.50 59.00 56.00
C 59.00 57.33 59.02 58.67 59.00 60.00
C 58.96 62.15 59.27 63.47 58.00 65.00
C 57.77 65.28 57.35 65.97 57.00 66.00
C 56.75 66.25 56.35 66.97 56.00 67.00
C 55.50 67.05 55.00 67.00 55.00 67.00
C 54.50 67.00 53.50 66.96 53.00 67.00
C 53.73 67.68 51.00 68.00 51.00 68.00
C 50.50 68.04 49.47 67.88 49.00 68.00
C 48.74 68.11 48.35 68.91 48.00 69.00
C 47.53 69.12 46.50 69.00 46.00 69.00
C 45.74 69.11 45.35 69.97 45.00 70.00
C 44.50 70.05 44.00 70.00 44.00 70.00
C 43.50 70.00 42.50 70.00 42.00 70.00
C 41.74 70.11 41.35 70.97 41.00 71.00
C 40.50 71.05 40.00 71.00 40.00 71.00
C 40.00 71.00 39.50 71.00 39.00 71.00
C 38.74 71.12 38.35 71.97 38.00 72.00
C 37.50 72.05 37.00 72.00 37.00 72.00
C 36.50 72.00 35.50 72.00 35.00 72.00
C 35.25 72.25 35.00 73.00 35.00 73.00
L 64.00 73.00
L 64.00 9.00
C 64.00 9.00 63.13 9.22 63.00 9.00
C 63.00 11.00 63.00 13.00 63.00 15.00 Z"/>
</g>
<g fill="#EE9179" fill-opacity="0.40" stroke="None">
<path d="
M 1.00 17.00 
C 1.13 17.22 2.00 17.00 2.00 17.00
C 1.97 15.43 1.15 13.96 1.00 13.00
C 1.00 14.32 0.91 15.68 1.00 17.00 Z"/>
</g>
<g fill="#F4F1F0" fill-opacity="1.00" stroke="None">
<path d="
M 32.00 59.00 
C 37.43 57.94 42.57 55.90 48.00 55.00
C 48.84 46.69 50.46 38.62 50.00 30.00
C 43.61 30.37 37.41 29.50 31.00 30.00 C 24.59 30.50 18.50 30.40 21.00 22.00
C 31.00 22.00 41.00 22.00 51.00 22.00
C 50.37 19.08 52.03 16.74 52.00 14.00
C 45.33 14.00 38.67 14.00 32.00 14.00
C 25.33 14.00 18.67 14.00 12.00 14.00
C 12.89 21.95 13.26 30.03 14.00 38.00
C 23.33 38.00 32.67 38.00 42.00 38.00
C 42.03 41.79 40.32 45.06 41.00 49.00
C 34.66 50.28 29.19 51.24 23.00 49.00
C 24.40 43.36 20.12 40.62 15.00 42.00
C 11.23 53.63 22.41 59.00 32.00 59.00 Z"/>
</g>
<g fill="#EE9F8B" fill-opacity="0.33" stroke="None">
<path d="
M 62.00 17.00 
C 62.27 16.75 63.00 17.00 63.00 17.00
C 63.00 16.50 63.00 15.50 63.00 15.00
C 62.76 15.77 62.15 15.74 62.00 17.00 Z"/>
</g>
<g fill="#F9CAC2" fill-opacity="0.13" stroke="None">
<path d="
M 2.00 20.00 
C 2.00 19.00 2.02 18.00 2.00 17.00
C 2.00 17.00 1.13 17.22 1.00 17.00
C 1.09 18.27 1.84 19.27 2.00 20.00 Z"/>
</g>
<g fill="#F8CDBE" fill-opacity="0.12" stroke="None">
<path d="
M 62.00 20.00 
C 62.20 19.11 62.99 18.51 63.00 17.00
C 63.00 17.00 62.27 16.75 62.00 17.00
C 61.88 17.96 62.00 19.03 62.00 20.00 Z"/>
</g>
<g fill="#EE8E75" fill-opacity="0.42" stroke="None">
<path d="
M 2.00 27.00 
C 2.34 27.23 3.00 27.00 3.00 27.00
C 2.86 25.97 2.18 25.59 2.00 25.00
C 2.00 25.50 2.02 26.50 2.00 27.00 Z"/>
</g>
<g fill="#F0A794" fill-opacity="0.30" stroke="None">
<path d="
M 61.00 29.00 
C 61.34 28.77 62.00 29.00 62.00 29.00
C 62.12 28.04 62.00 26.97 62.00 26.00
C 61.80 26.89 61.01 27.49 61.00 29.00 Z"/>
</g>
<g fill="#F6BFB3" fill-opacity="0.18" stroke="None">
<path d="
M 3.00 31.00 
C 3.00 29.71 3.18 28.27 3.00 27.00
C 3.00 27.00 2.34 27.23 2.00 27.00
C 1.95 28.66 2.83 29.98 3.00 31.00 Z"/>
</g>
<g fill="#FBCFC8" fill-opacity="0.10" stroke="None">
<path d="
M 61.00 31.00 
C 61.24 30.23 61.85 30.26 62.00 29.00
C 62.00 29.00 61.34 28.77 61.00 29.00
C 61.00 29.50 61.00 30.50 61.00 31.00 Z"/>
</g>
<g fill="#F0A18D" fill-opacity="0.33" stroke="None">
<path d="
M 3.00 40.00 
C 3.27 40.25 4.00 40.00 4.00 40.00
C 3.99 38.61 3.18 37.81 3.00 37.00
C 3.00 37.97 2.88 39.04 3.00 40.00 Z"/>
</g>
<g fill="#F0A390" fill-opacity="0.31" stroke="None">
<path d="
M 60.00 40.00 
C 60.27 39.75 61.00 40.00 61.00 40.00
C 61.05 39.01 61.00 37.99 61.00 37.00
C 60.82 37.84 60.07 38.58 60.00 40.00 Z"/>
</g>
<g fill="#FBCDC6" fill-opacity="0.09" stroke="None">
<path d="
M 4.00 42.00 
C 4.00 41.50 4.00 40.50 4.00 40.00
C 4.00 40.00 3.27 40.25 3.00 40.00
C 3.13 41.04 3.83 41.42 4.00 42.00 Z"/>
</g>
<g fill="#FCE1D9" fill-opacity="0.07" stroke="None">
<path d="
M 60.00 43.00 
C 60.15 42.22 60.93 41.37 61.00 40.00
C 61.00 40.00 60.27 39.75 60.00 40.00
C 59.95 40.99 60.00 42.01 60.00 43.00 Z"/>
</g>
<g fill="#ED896E" fill-opacity="0.44" stroke="None">
<path d="
M 4.00 50.00 
C 4.13 50.22 5.00 50.00 5.00 50.00
C 4.94 48.47 4.15 46.94 4.00 46.00
C 4.00 47.33 3.95 48.67 4.00 50.00 Z"/>
</g>
<g fill="#EB7F63" fill-opacity="0.49" stroke="None">
<path d="
M 59.00 49.00 
C 59.05 48.85 60.00 49.00 60.00 49.00
C 60.00 48.00 60.00 47.00 60.00 46.00
C 59.85 46.74 59.11 47.70 59.00 49.00 Z"/>
</g>
<g fill="#F7C2B2" fill-opacity="0.17" stroke="None">
<path d="
M 59.00 54.00 
C 59.58 52.38 60.01 51.23 60.00 49.00
C 60.00 49.00 59.05 48.85 59.00 49.00
C 58.87 50.64 59.00 52.35 59.00 54.00 Z"/>
</g>
<g fill="#F8C9BA" fill-opacity="0.14" stroke="None">
<path d="
M 5.00 54.00 
C 5.00 52.67 5.05 51.33 5.00 50.00
C 5.00 50.00 4.13 50.22 4.00 50.00
C 4.06 51.54 4.85 53.06 5.00 54.00 Z"/>
</g>
<g fill="#E97557" fill-opacity="0.54" stroke="None">
<path d="
M 58.00 60.00 
C 58.05 59.85 59.00 60.00 59.00 60.00
C 59.02 58.67 59.00 57.33 59.00 56.00
C 58.61 57.27 58.09 58.16 58.00 60.00 Z"/>
</g>
<g fill="#EE9881" fill-opacity="0.37" stroke="None">
<path d="
M 5.00 61.00 
C 5.34 61.23 6.00 61.00 6.00 61.00
C 5.86 59.97 5.18 59.59 5.00 59.00
C 5.00 59.50 5.02 60.50 5.00 61.00 Z"/>
</g>
<g fill="#F4BBAD" fill-opacity="0.20" stroke="None">
<path d="
M 58.00 65.00 
C 59.27 63.47 58.96 62.15 59.00 60.00
C 59.00 60.00 58.05 59.85 58.00 60.00
C 57.93 61.52 58.41 63.54 58.00 65.00 Z"/>
</g>
<g fill="#F5C1B3" fill-opacity="0.18" stroke="None">
<path d="
M 6.00 65.00 
C 5.63 63.81 6.17 62.24 6.00 61.00
C 6.00 61.00 5.34 61.23 5.00 61.00
C 4.94 62.79 5.00 63.78 6.00 65.00 Z"/>
</g>
<g fill="#F3D1C5" fill-opacity="0.09" stroke="None">
<path d="
M 8.00 67.00 
C 7.75 66.75 8.00 66.00 8.00 66.00
C 8.00 66.00 7.50 66.05 7.00 66.00
C 7.25 66.25 7.65 66.97 8.00 67.00 Z"/>
</g>
<g fill="#F1A38F" fill-opacity="0.31" stroke="None">
<path d="
M 8.00 67.00 
C 8.00 67.00 8.50 67.00 9.00 67.00
C 8.74 66.89 8.35 66.03 8.00 66.00
C 8.00 66.00 7.75 66.75 8.00 67.00 Z"/>
</g>
<g fill="#F1A894" fill-opacity="0.30" stroke="None">
<path d="
M 55.00 67.00 
C 55.00 67.00 55.50 67.05 56.00 67.00
C 56.25 66.75 56.00 66.00 56.00 66.00
C 55.65 66.03 55.26 66.89 55.00 67.00 Z"/>
</g>
<g fill="#FFDFCF" fill-opacity="0.06" stroke="None">
<path d="
M 56.00 67.00 
C 56.35 66.97 56.75 66.25 57.00 66.00
C 57.00 66.00 56.50 65.95 56.00 66.00
C 56.00 66.00 56.25 66.75 56.00 67.00 Z"/>
</g>
<g fill="#F9C6B9" fill-opacity="0.16" stroke="None">
<path d="
M 12.00 68.00 
C 11.75 67.75 12.00 67.00 12.00 67.00
C 12.00 67.00 11.50 67.00 11.00 67.00
C 11.26 67.11 11.65 67.97 12.00 68.00 Z"/>
</g>
<g fill="#ED9178" fill-opacity="0.41" stroke="None">
<path d="
M 12.00 68.00 
C 12.00 68.00 12.50 68.00 13.00 68.00
C 12.74 67.88 12.35 67.03 12.00 67.00
C 12.00 67.00 11.75 67.75 12.00 68.00 Z"/>
</g>
<g fill="#F1AF9E" fill-opacity="0.25" stroke="None">
<path d="
M 51.00 68.00 
C 51.00 68.00 53.73 67.68 53.00 67.00
C 51.74 67.10 51.79 67.66 51.00 68.00 Z"/>
</g>
<g fill="#FACBBC" fill-opacity="0.14" stroke="None">
<path d="
M 16.00 69.00 
C 15.09 68.75 15.55 67.90 14.00 68.00
C 13.92 67.95 15.71 70.19 16.00 69.00 Z"/>
</g>
<g fill="#F6B8AA" fill-opacity="0.21" stroke="None">
<path d="
M 48.00 69.00 
C 48.35 68.91 48.74 68.11 49.00 68.00
C 48.65 68.09 48.26 68.89 48.00 69.00 Z"/>
</g>
<g fill="#FFD9CC" fill-opacity="0.08" stroke="None">
<path d="
M 19.00 70.00 
C 18.75 69.75 19.00 69.00 19.00 69.00
C 19.00 69.00 18.50 69.00 18.00 69.00
C 18.26 69.11 18.65 69.97 19.00 70.00 Z"/>
</g>
<g fill="#EEA28C" fill-opacity="0.32" stroke="None">
<path d="
M 19.00 70.00 
C 19.00 70.00 19.50 70.00 20.00 70.00
C 19.74 69.89 19.35 69.03 19.00 69.00
C 19.00 69.00 18.75 69.75 19.00 70.00 Z"/>
</g>
<g fill="#EFA18C" fill-opacity="0.33" stroke="None">
<path d="
M 44.00 70.00 
C 44.00 70.00 44.50 70.05 45.00 70.00
C 45.25 69.75 45.00 69.00 45.00 69.00
C 44.65 69.03 44.26 69.89 44.00 70.00 Z"/>
</g>
<g fill="#FFE6CC" fill-opacity="0.04" stroke="None">
<path d="
M 45.00 70.00 
C 45.35 69.97 45.74 69.11 46.00 69.00
C 46.00 69.00 45.50 68.95 45.00 69.00
C 45.00 69.00 45.25 69.75 45.00 70.00 Z"/>
</g>
<g fill="#F4BFAF" fill-opacity="0.19" stroke="None">
<path d="
M 23.00 71.00 
C 22.74 70.89 22.35 70.09 22.00 70.00
C 22.26 70.11 22.65 70.91 23.00 71.00 Z"/>
</g>
<g fill="#ED9178" fill-opacity="0.41" stroke="None">
<path d="
M 40.00 71.00 
C 40.00 71.00 40.50 71.05 41.00 71.00
C 41.25 70.75 41.00 70.00 41.00 70.00
C 40.65 70.03 40.26 70.88 40.00 71.00 Z"/>
</g>
<g fill="#F3BFB4" fill-opacity="0.17" stroke="None">
<path d="
M 41.00 71.00 
C 41.35 70.97 41.74 70.11 42.00 70.00
C 42.00 70.00 41.50 69.95 41.00 70.00
C 41.00 70.00 41.25 70.75 41.00 71.00 Z"/>
</g>
<g fill="#FFD5C6" fill-opacity="0.07" stroke="None">
<path d="
M 26.00 72.00 
C 25.75 71.75 26.00 71.00 26.00 71.00
C 26.00 71.00 25.50 71.00 25.00 71.00
C 25.26 71.11 25.65 71.97 26.00 72.00 Z"/>
</g>
<g fill="#F1AA98" fill-opacity="0.28" stroke="None">
<path d="
M 26.00 72.00 
C 26.00 72.00 26.50 72.00 27.00 72.00
C 26.74 71.89 26.35 71.03 26.00 71.00
C 26.00 71.00 25.75 71.75 26.00 72.00 Z"/>
</g>
<g fill="#F3AE9E" fill-opacity="0.26" stroke="None">
<path d="
M 37.00 72.00 
C 37.00 72.00 37.50 72.05 38.00 72.00
C 38.25 71.75 38.00 71.00 38.00 71.00
C 37.65 71.03 37.26 71.89 37.00 72.00 Z"/>
</g>
<g fill="#FFD5D5" fill-opacity="0.05" stroke="None">
<path d="
M 38.00 72.00 
C 38.35 71.97 38.74 71.12 39.00 71.00
C 39.00 71.00 38.50 70.95 38.00 71.00
C 38.00 71.00 38.25 71.75 38.00 72.00 Z"/>
</g>
<g fill="#F8C6BF" fill-opacity="0.14" stroke="None">
<path d="
M 29.00 73.00 
L 30.00 73.00
C 30.00 72.50 30.00 72.00 30.00 72.00
C 30.00 72.00 29.50 72.00 29.00 72.00
C 29.00 72.00 29.00 72.50 29.00 73.00 Z"/>
</g>
<g fill="#EB7D61" fill-opacity="0.50" stroke="None">
<path d="
M 30.00 73.00 
L 34.00 73.00
C 34.00 72.50 34.00 72.00 34.00 72.00
C 32.67 72.00 31.33 72.00 30.00 72.00
C 30.00 72.00 30.00 72.50 30.00 73.00 Z"/>
</g>
<g fill="#F6D1C8" fill-opacity="0.11" stroke="None">
<path d="
M 34.00 73.00 
L 35.00 73.00
C 35.00 73.00 35.25 72.25 35.00 72.00
C 35.00 72.00 34.50 72.00 34.00 72.00
C 34.00 72.00 34.00 72.50 34.00 73.00 Z"/>
</g>
</svg>