<svg xmlns="http://www.w3.org/2000/svg" xmlns:v="https://svgstorm.com"
viewBox = "0 0 222 224"
width="222"
height="224">
<g fill="None" fill-opacity="0.0" stroke="#000000" stroke-opacity="0.00" stroke-width="0.3"><path d="
M 0.00 91.00 
C 0.50 91.00 1.00 91.00 1.00 91.00
C 0.98 88.57 1.50 87.16 2.00 85.00
C 2.71 81.92 3.06 78.39 5.00 76.00
C 5.00 75.50 5.00 75.00 5.00 75.00
C 5.43 72.40 6.37 69.90 8.00 68.00
C 8.08 67.51 8.00 67.00 8.00 67.00
C 9.82 59.23 16.48 49.63 21.75 43.75 C 27.03 37.88 32.77 28.54 40.00 25.00
C 40.40 24.80 41.00 25.00 41.00 25.00
C 42.73 22.53 44.41 21.33 47.00 20.00
C 47.52 19.73 48.59 19.33 49.00 19.00
C 51.85 16.72 54.40 14.42 58.00 13.00
C 58.43 12.83 59.00 13.00 59.00 13.00
C 59.26 12.88 59.65 12.03 60.00 12.00
C 60.50 11.95 61.00 12.00 61.00 12.00
C 61.26 11.88 61.65 11.03 62.00 11.00
C 62.50 10.95 63.00 11.00 63.00 11.00
C 63.26 10.88 63.65 10.03 64.00 10.00
C 64.50 9.95 65.00 10.00 65.00 10.00
C 66.10 9.34 67.54 8.45 69.00 8.00
C 69.46 7.86 70.00 8.00 70.00 8.00
C 71.13 6.95 71.52 7.47 73.00 7.00
C 75.69 6.15 79.01 4.91 82.00 4.00
C 85.73 2.87 89.62 1.15 94.00 1.00
C 95.00 0.97 96.00 1.00 97.00 1.00
C 97.25 0.73 97.00 0.00 97.00 0.00
L 0.00 0.00
L 0.00 91.00 Z"/>
</g>
<g fill="None" fill-opacity="0.0" stroke="#E6A7CC" stroke-opacity="0.07" stroke-width="0.3"><path d="
M 97.00 1.00 
C 99.00 1.00 101.00 1.00 103.00 1.00
C 103.10 0.98 103.00 0.00 103.00 0.00
L 97.00 0.00
C 97.00 0.00 97.25 0.73 97.00 1.00 Z"/>
</g>
<g fill="None" fill-opacity="0.0" stroke="#823452" stroke-opacity="0.31" stroke-width="0.3"><path d="
M 103.00 1.00 
C 108.33 1.00 113.67 1.00 119.00 1.00
C 118.85 0.95 119.00 0.00 119.00 0.00
L 103.00 0.00
C 103.00 0.00 103.10 0.98 103.00 1.00 Z"/>
</g>
<g fill="None" fill-opacity="0.0" stroke="#DE9BBA" stroke-opacity="0.08" stroke-width="0.3"><path d="
M 119.00 1.00 
C 120.67 1.00 122.33 1.00 124.00 1.00
C 124.50 1.00 125.50 1.03 126.00 1.00
C 126.23 0.66 126.00 0.00 126.00 0.00
L 119.00 0.00
C 119.00 0.00 118.85 0.95 119.00 1.00 Z"/>
</g>
<g fill="None" fill-opacity="0.0" stroke="#000000" stroke-opacity="0.00" stroke-width="0.3"><path d="
M 126.00 1.00 
C 132.58 0.54 139.01 2.99 145.00 5.00
C 146.87 5.63 148.49 5.91 150.00 7.00
C 150.33 7.24 151.00 7.00 151.00 7.00
C 152.73 7.11 153.91 7.87 155.00 9.00
C 155.24 9.25 156.00 9.00 156.00 9.00
C 156.50 9.00 157.00 9.00 157.00 9.00
C 159.56 10.00 161.83 11.83 164.00 13.00
C 167.35 13.30 170.23 16.29 173.00 18.00
C 175.12 19.31 176.59 19.83 178.00 22.00
C 178.36 22.22 179.00 22.00 179.00 22.00
C 185.12 26.68 195.48 33.82 199.00 41.00
C 199.20 41.40 199.00 42.00 199.00 42.00
C 201.73 43.91 203.30 46.27 205.00 49.00
C 205.22 49.36 205.00 50.00 205.00 50.00
C 207.58 52.47 209.65 55.57 211.00 59.00
C 211.17 59.43 211.00 60.00 211.00 60.00
C 211.12 60.26 211.97 60.65 212.00 61.00
C 212.05 61.50 212.00 62.00 212.00 62.00
C 212.12 62.26 212.97 62.65 213.00 63.00
C 213.05 63.50 213.00 64.00 213.00 64.00
C 214.45 65.81 215.44 67.60 216.00 70.00
C 216.11 70.47 216.00 71.00 216.00 71.00
C 217.28 72.24 217.45 73.28 218.00 75.00
C 218.54 76.68 218.54 78.29 219.00 80.00
C 219.53 81.96 221.33 85.11 222.00 87.00
L 222.00 0.00
L 126.00 0.00
C 126.00 0.00 126.23 0.66 126.00 1.00 Z"/>
</g>
<g fill="None" fill-opacity="0.0" stroke="#900139" stroke-opacity="0.99" stroke-width="0.3"><path d="
M 82.00 4.00 
C 83.00 4.00 84.73 3.60 85.00 5.00
C 80.98 4.75 76.43 9.49 73.00 7.00
C 71.52 7.47 71.13 6.95 70.00 8.00
C 74.16 8.85 66.72 11.41 69.00 8.00
C 67.54 8.45 66.10 9.34 65.00 10.00
C 68.64 10.74 59.22 14.48 57.00 15.00
C 56.53 15.11 56.00 15.00 56.00 15.00
C 53.84 18.31 51.40 18.71 49.00 19.00
C 48.59 19.33 47.52 19.73 47.00 20.00
C 45.08 21.54 43.06 23.42 41.00 25.00
C 41.00 25.00 40.40 24.80 40.00 25.00
C 39.75 25.25 40.00 26.00 40.00 26.00
C 41.49 28.34 33.52 33.12 31.25 36.25 C 28.98 39.37 23.43 44.33 21.23 48.23 C 19.03 52.13 14.16 57.20 12.00 61.00
C 8.98 66.30 8.98 73.04 5.00 78.00
C 5.00 78.50 5.00 79.00 5.00 79.00
C 4.92 81.05 4.47 83.70 3.00 85.00
C 2.72 85.25 2.00 85.00 2.00 85.00
C 1.50 87.16 0.98 88.57 1.00 91.00
C 1.06 92.83 2.87 93.87 1.00 96.00
C 1.00 96.50 1.00 97.00 1.00 97.00
C 1.00 99.52 1.78 103.30 0.00 105.00
L 0.00 120.00
C 1.75 122.85 0.55 128.29 2.78 131.22 C 5.00 134.16 1.95 141.42 2.00 140.00
C 2.47 142.13 3.07 144.30 4.00 146.00
C 4.03 145.00 3.58 143.27 5.00 143.00
C 8.31 157.77 17.18 170.78 26.00 183.00
C 29.68 187.95 35.31 194.15 40.00 198.00
C 46.46 202.52 53.58 207.04 59.00 212.00
C 61.65 213.42 64.45 214.40 67.00 216.00
C 64.95 212.39 72.24 214.83 68.00 216.00
C 72.06 219.30 81.56 221.87 87.00 222.00
C 88.27 219.20 91.24 220.42 88.00 222.00
C 89.58 223.35 91.78 223.01 94.00 223.00
C 94.78 222.16 100.13 222.96 102.00 223.00
C 106.31 223.09 114.02 223.27 118.00 223.00 C 121.98 222.73 129.28 219.65 129.00 224.00
L 130.00 224.00
C 141.32 221.92 152.69 217.10 163.00 212.00
C 164.40 210.71 169.79 208.03 172.00 207.00
C 174.12 205.69 176.12 204.29 178.00 203.00
C 172.05 204.42 183.09 198.96 183.00 199.00
C 183.88 198.23 185.11 197.67 186.00 197.00
C 186.25 196.73 186.00 196.00 186.00 196.00
C 184.50 193.64 193.64 187.76 195.75 184.75 C 197.86 181.74 202.52 174.13 206.00 172.00
C 206.43 171.74 207.71 171.30 208.00 171.00
C 208.54 169.84 208.76 169.28 209.00 168.00
C 209.17 167.09 209.93 160.78 212.00 162.00
C 212.37 162.22 213.00 162.00 213.00 162.00
C 213.44 160.80 213.48 159.20 214.00 158.00
C 214.50 154.43 216.01 152.30 217.00 151.00
C 218.54 146.68 220.66 141.33 222.00 137.00
L 222.00 134.00
C 220.57 132.97 220.31 128.96 222.00 128.00
L 222.00 96.00
C 220.61 95.26 220.35 91.68 222.00 91.00
L 222.00 87.00
C 221.33 85.11 219.53 81.96 219.00 80.00
C 217.75 78.50 215.09 73.45 212.08 65.92 C 209.06 58.40 208.59 57.81 202.75 49.25 C 196.90 40.70 186.10 29.73 177.75 23.25 C 169.41 16.77 169.66 18.31 162.00 13.00
C 160.07 11.66 158.54 10.61 157.00 9.00
C 157.00 9.00 156.50 9.00 156.00 9.00
C 157.03 11.65 153.94 11.53 155.00 9.00
C 153.91 7.87 152.73 7.11 151.00 7.00
C 151.60 7.35 152.67 8.25 153.00 9.00
C 151.27 10.09 145.87 7.31 150.00 7.00
C 148.49 5.91 146.87 5.63 145.00 5.00
C 145.65 5.48 146.63 6.14 147.00 7.00
C 139.33 5.44 131.62 3.79 124.00 2.00
C 112.55 0.93 101.21 2.81 90.00 3.00
C 90.47 1.02 93.60 3.11 94.00 1.00
C 89.62 1.15 85.73 2.87 82.00 4.00
M 84.00 64.00 
C 87.86 66.73 83.90 76.27 85.00 81.00 C 86.10 85.73 84.46 93.43 85.00 99.00 C 85.54 104.57 84.67 110.89 85.00 117.00 C 85.33 123.11 84.64 129.47 85.00 136.00 C 85.36 142.53 84.35 146.71 85.00 154.00 C 85.65 161.29 80.39 160.61 74.00 161.00 C 67.61 161.39 61.83 160.38 63.00 153.00 C 64.18 145.62 62.45 141.52 63.00 135.00 C 63.55 128.48 62.71 123.01 63.00 117.00 C 63.29 110.99 62.75 103.47 63.00 98.00 C 63.25 92.53 62.61 84.32 63.00 80.00 C 63.39 75.68 61.28 64.59 65.08 64.08 C 68.89 63.58 81.18 62.01 84.00 64.00
M 159.00 64.00 
C 162.11 66.20 160.21 78.82 160.00 83.00 C 159.79 87.18 147.60 86.42 143.00 86.00 C 138.40 85.58 127.92 86.98 123.00 86.00 C 118.08 85.02 106.25 88.24 102.33 85.67 C 98.41 83.10 100.92 71.44 101.00 67.00 C 101.08 62.56 113.44 63.54 118.00 64.00 C 122.56 64.46 133.05 62.67 138.00 64.00 C 142.95 65.33 154.89 61.09 159.00 64.00
M 158.00 123.00 
C 145.24 124.15 131.82 123.00 119.00 123.00
C 115.88 123.00 101.57 125.01 101.08 120.92 C 100.60 116.82 98.86 104.60 102.75 101.75 C 106.64 98.91 116.84 101.78 122.00 101.00 C 127.16 100.22 138.05 101.42 143.00 101.00 C 147.95 100.58 159.39 99.99 159.97 104.03 C 160.55 108.07 161.65 122.22 158.00 123.00
M 158.00 160.00 
C 153.99 162.89 144.04 160.60 139.00 161.00 C 133.96 161.40 123.40 161.37 119.00 161.00 C 114.60 160.63 101.92 163.31 101.00 159.00
C 100.46 153.07 98.18 138.77 106.00 139.00 C 113.83 139.24 124.44 138.68 132.00 139.00 C 139.56 139.32 150.42 138.36 157.00 139.00 C 163.58 139.64 160.62 158.11 158.00 160.00 Z"/>
</g>
<g fill="None" fill-opacity="0.0" stroke="#791239" stroke-opacity="0.74" stroke-width="0.3"><path d="
M 124.00 2.00 
C 123.76 1.80 124.00 1.00 124.00 1.00
C 122.33 1.00 120.67 1.00 119.00 1.00
C 113.67 1.00 108.33 1.00 103.00 1.00
C 101.00 1.00 99.00 1.00 97.00 1.00
C 96.00 1.00 95.00 0.97 94.00 1.00
C 93.60 3.11 90.47 1.02 90.00 3.00
C 101.21 2.81 112.55 0.93 124.00 2.00 Z"/>
</g>
<g fill="None" fill-opacity="0.0" stroke="#8C3855" stroke-opacity="0.49" stroke-width="0.3"><path d="
M 124.00 2.00 
C 131.62 3.79 139.33 5.44 147.00 7.00
C 146.63 6.14 145.65 5.48 145.00 5.00
C 139.01 2.99 132.58 0.54 126.00 1.00
C 125.50 1.03 124.50 1.00 124.00 1.00
C 124.00 1.00 123.76 1.80 124.00 2.00 Z"/>
</g>
<g fill="None" fill-opacity="0.0" stroke="#84354D" stroke-opacity="0.49" stroke-width="0.3"><path d="
M 73.00 7.00 
C 76.43 9.49 80.98 4.75 85.00 5.00
C 84.73 3.60 83.00 4.00 82.00 4.00
C 79.01 4.91 75.69 6.15 73.00 7.00 Z"/>
</g>
<g fill="None" fill-opacity="0.0" stroke="#721034" stroke-opacity="0.63" stroke-width="0.3"><path d="
M 151.00 7.00 
C 151.00 7.00 150.33 7.24 150.00 7.00
C 145.87 7.31 151.27 10.09 153.00 9.00
C 152.67 8.25 151.60 7.35 151.00 7.00 Z"/>
</g>
<g fill="None" fill-opacity="0.0" stroke="#781D3D" stroke-opacity="0.55" stroke-width="0.3"><path d="
M 70.00 8.00 
C 70.00 8.00 69.46 7.86 69.00 8.00
C 66.72 11.41 74.16 8.85 70.00 8.00 Z"/>
</g>
<g fill="None" fill-opacity="0.0" stroke="#6C1133" stroke-opacity="0.66" stroke-width="0.3"><path d="
M 156.00 9.00 
C 156.00 9.00 155.24 9.25 155.00 9.00
C 153.94 11.53 157.03 11.65 156.00 9.00 Z"/>
</g>
<g fill="None" fill-opacity="0.0" stroke="#C08196" stroke-opacity="0.13" stroke-width="0.3"><path d="
M 162.00 13.00 
C 162.43 13.17 163.50 12.96 164.00 13.00
C 161.83 11.83 159.56 10.00 157.00 9.00
C 158.54 10.61 160.07 11.66 162.00 13.00 Z"/>
</g>
<g fill="None" fill-opacity="0.0" stroke="#FFC6C6" stroke-opacity="0.04" stroke-width="0.3"><path d="
M 63.00 11.00 
C 63.35 10.97 63.74 10.12 64.00 10.00
C 63.65 10.03 63.26 10.88 63.00 11.00 Z"/>
</g>
<g fill="None" fill-opacity="0.0" stroke="#792846" stroke-opacity="0.47" stroke-width="0.3"><path d="
M 63.00 11.00 
C 63.00 11.00 62.50 10.95 62.00 11.00
C 61.74 11.12 61.35 11.97 61.00 12.00
C 61.00 12.00 60.50 11.95 60.00 12.00
C 59.74 12.12 59.35 12.97 59.00 13.00
C 59.00 13.00 58.43 12.83 58.00 13.00
C 57.58 13.21 57.28 14.86 57.00 15.00
C 59.22 14.48 68.64 10.74 65.00 10.00
C 65.00 10.00 64.50 9.95 64.00 10.00
C 63.74 10.12 63.35 10.97 63.00 11.00 Z"/>
</g>
<g fill="None" fill-opacity="0.0" stroke="#FFFFFF" stroke-opacity="0.01" stroke-width="0.3"><path d="
M 61.00 12.00 
C 61.35 11.97 61.74 11.12 62.00 11.00
C 61.65 11.03 61.26 11.88 61.00 12.00 Z"/>
</g>
<g fill="None" fill-opacity="0.0" stroke="#FFBFD5" stroke-opacity="0.05" stroke-width="0.3"><path d="
M 59.00 13.00 
C 59.35 12.97 59.74 12.12 60.00 12.00
C 59.65 12.03 59.26 12.88 59.00 13.00 Z"/>
</g>
<g fill="None" fill-opacity="0.0" stroke="#EBB8D0" stroke-opacity="0.06" stroke-width="0.3"><path d="
M 49.00 19.00 
C 51.59 18.03 53.42 15.93 56.00 15.00
C 56.00 15.00 56.53 15.11 57.00 15.00
C 57.28 14.86 57.58 13.21 58.00 13.00
C 54.40 14.42 51.85 16.72 49.00 19.00 Z"/>
</g>
<g fill="None" fill-opacity="0.0" stroke="#7B2443" stroke-opacity="0.64" stroke-width="0.3"><path d="
M 219.00 80.00 
C 218.54 78.29 218.54 76.68 218.00 75.00
C 217.37 73.57 216.12 72.97 216.00 71.00
C 216.00 71.00 216.11 70.47 216.00 70.00
C 214.55 68.19 213.56 66.40 213.00 64.00
C 213.00 64.00 213.05 63.50 213.00 63.00
C 212.88 62.74 212.03 62.35 212.00 62.00
C 212.00 62.00 212.05 61.50 212.00 61.00
C 211.88 60.74 211.03 60.35 211.00 60.00
C 211.00 60.00 211.17 59.43 211.00 59.00
C 208.60 57.50 205.98 52.71 205.00 50.00
C 205.00 50.00 205.22 49.36 205.00 49.00
C 202.37 47.29 200.86 44.44 199.00 42.00
C 199.00 42.00 199.20 41.40 199.00 41.00
C 192.54 36.48 183.37 28.25 179.00 22.00
C 179.00 22.00 178.36 22.22 178.00 22.00
C 176.07 20.80 174.62 19.25 173.00 18.00
C 170.23 16.29 167.35 13.30 164.00 13.00
C 163.50 12.96 162.43 13.17 162.00 13.00
C 169.66 18.31 169.41 16.77 177.75 23.25 C 186.10 29.73 196.90 40.70 202.75 49.25 C 208.59 57.81 209.06 58.40 212.08 65.92 C 215.09 73.45 217.75 78.50 219.00 80.00 Z"/>
</g>
<g fill="None" fill-opacity="0.0" stroke="#671332" stroke-opacity="0.59" stroke-width="0.3"><path d="
M 49.00 19.00 
C 51.40 18.71 53.84 18.31 56.00 15.00
C 53.42 15.93 51.59 18.03 49.00 19.00 Z"/>
</g>
<g fill="None" fill-opacity="0.0" stroke="#DA98BC" stroke-opacity="0.08" stroke-width="0.3"><path d="
M 178.00 22.00 
C 176.59 19.83 175.12 19.31 173.00 18.00
C 174.62 19.25 176.07 20.80 178.00 22.00 Z"/>
</g>
<g fill="None" fill-opacity="0.0" stroke="#E2B0C6" stroke-opacity="0.07" stroke-width="0.3"><path d="
M 41.00 25.00 
C 43.06 23.42 45.08 21.54 47.00 20.00
C 44.41 21.33 42.73 22.53 41.00 25.00 Z"/>
</g>
<g fill="None" fill-opacity="0.0" stroke="#DEA2BB" stroke-opacity="0.10" stroke-width="0.3"><path d="
M 199.00 41.00 
C 195.48 33.82 185.12 26.68 179.00 22.00
C 183.37 28.25 192.54 36.48 199.00 41.00 Z"/>
</g>
<g fill="None" fill-opacity="0.0" stroke="#F0C1D8" stroke-opacity="0.07" stroke-width="0.3"><path d="
M 8.00 67.00 
C 9.35 65.32 10.96 62.82 12.00 61.00
C 14.61 56.41 16.90 51.51 20.00 47.00
C 21.54 44.76 23.33 42.88 25.00 41.00
C 29.31 36.15 33.91 30.97 39.00 27.00
C 39.20 26.68 39.88 26.26 40.00 26.00
C 40.00 26.00 39.75 25.25 40.00 25.00
C 32.77 28.54 27.03 37.88 21.75 43.75 C 16.48 49.63 9.82 59.23 8.00 67.00 Z"/>
</g>
<g fill="None" fill-opacity="0.0" stroke="#731839" stroke-opacity="0.78" stroke-width="0.3"><path d="
M 39.00 27.00 
C 35.55 32.57 29.06 36.15 25.00 41.00
C 23.38 42.93 21.65 45.11 20.00 47.00
C 16.90 51.51 14.61 56.41 12.00 61.00
C 14.16 57.20 19.03 52.13 21.23 48.23 C 23.43 44.33 28.98 39.37 31.25 36.25 C 33.52 33.12 41.49 28.34 40.00 26.00
C 39.88 26.26 39.20 26.68 39.00 27.00 Z"/>
</g>
<g fill="None" fill-opacity="0.0" stroke="#6A1B38" stroke-opacity="0.63" stroke-width="0.3"><path d="
M 25.00 41.00 
C 29.06 36.15 35.55 32.57 39.00 27.00
C 33.91 30.97 29.31 36.15 25.00 41.00 Z"/>
</g>
<g fill="None" fill-opacity="0.0" stroke="#8E435F" stroke-opacity="0.44" stroke-width="0.3"><path d="
M 20.00 47.00 
C 21.65 45.11 23.38 42.93 25.00 41.00
C 23.33 42.88 21.54 44.76 20.00 47.00 Z"/>
</g>
<g fill="None" fill-opacity="0.0" stroke="#E5B0CD" stroke-opacity="0.08" stroke-width="0.3"><path d="
M 205.00 49.00 
C 203.30 46.27 201.73 43.91 199.00 42.00
C 200.86 44.44 202.37 47.29 205.00 49.00 Z"/>
</g>
<g fill="None" fill-opacity="0.0" stroke="#E5B2C6" stroke-opacity="0.11" stroke-width="0.3"><path d="
M 211.00 59.00 
C 209.65 55.57 207.58 52.47 205.00 50.00
C 205.98 52.71 208.60 57.50 211.00 59.00 Z"/>
</g>
<g fill="None" fill-opacity="0.0" stroke="#F2BFD9" stroke-opacity="0.08" stroke-width="0.3"><path d="
M 212.00 61.00 
C 211.97 60.65 211.12 60.26 211.00 60.00
C 211.03 60.35 211.88 60.74 212.00 61.00 Z"/>
</g>
<g fill="None" fill-opacity="0.0" stroke="#762240" stroke-opacity="0.66" stroke-width="0.3"><path d="
M 8.00 67.00 
C 8.00 67.00 8.08 67.51 8.00 68.00
C 7.57 70.60 6.63 73.10 5.00 75.00
C 5.00 75.00 5.00 75.50 5.00 76.00
C 5.00 76.50 5.00 77.50 5.00 78.00
C 8.98 73.04 8.98 66.30 12.00 61.00
C 10.96 62.82 9.35 65.32 8.00 67.00 Z"/>
</g>
<g fill="None" fill-opacity="0.0" stroke="#FFC3E1" stroke-opacity="0.07" stroke-width="0.3"><path d="
M 213.00 63.00 
C 212.97 62.65 212.12 62.26 212.00 62.00
C 212.03 62.35 212.88 62.74 213.00 63.00 Z"/>
</g>
<g fill="None" fill-opacity="0.0" stroke="#730F36" stroke-opacity="0.82" stroke-width="0.3"><path d="
M 84.00 64.00 
C 81.18 62.01 68.89 63.58 65.08 64.08 C 61.28 64.59 63.39 75.68 63.00 80.00 C 62.61 84.32 63.25 92.53 63.00 98.00 C 62.75 103.47 63.29 110.99 63.00 117.00 C 62.71 123.01 63.55 128.48 63.00 135.00 C 62.45 141.52 64.18 145.62 63.00 153.00 C 61.83 160.38 67.61 161.39 74.00 161.00 C 80.39 160.61 85.65 161.29 85.00 154.00 C 84.35 146.71 85.36 142.53 85.00 136.00 C 84.64 129.47 85.33 123.11 85.00 117.00 C 84.67 110.89 85.54 104.57 85.00 99.00 C 84.46 93.43 86.10 85.73 85.00 81.00 C 83.90 76.27 87.86 66.73 84.00 64.00
M 84.00 65.00 
C 83.89 73.47 84.15 81.48 84.00 90.00 C 83.85 98.52 84.27 107.44 84.00 116.00 C 83.73 124.56 84.61 132.34 84.00 141.00 C 83.39 149.66 87.92 159.42 77.00 160.00 C 66.07 160.58 62.97 158.39 64.00 148.00 C 65.03 137.61 63.60 131.55 64.00 122.00 C 64.40 112.45 64.02 106.33 64.00 97.00 C 63.98 87.67 64.42 80.65 64.00 71.00 C 63.58 61.35 76.98 65.94 84.00 65.00 Z"/>
</g>
<g fill="None" fill-opacity="0.0" stroke="#740C35" stroke-opacity="0.81" stroke-width="0.3"><path d="
M 159.00 64.00 
C 154.89 61.09 142.95 65.33 138.00 64.00 C 133.05 62.67 122.56 64.46 118.00 64.00 C 113.44 63.54 101.08 62.56 101.00 67.00 C 100.92 71.44 98.41 83.10 102.33 85.67 C 106.25 88.24 118.08 85.02 123.00 86.00 C 127.92 86.98 138.40 85.58 143.00 86.00 C 147.60 86.42 159.79 87.18 160.00 83.00 C 160.21 78.82 162.11 66.20 159.00 64.00
M 102.00 84.00 
C 101.49 78.32 101.49 71.68 102.00 66.00
C 106.95 60.85 119.47 66.90 127.00 65.00 C 134.53 63.10 144.27 66.38 153.00 65.00 C 161.73 63.62 158.76 78.71 159.00 85.00
C 140.17 84.33 120.01 86.33 102.00 84.00 Z"/>
</g>
<g fill="None" fill-opacity="0.0" stroke="#DD9CBC" stroke-opacity="0.12" stroke-width="0.3"><path d="
M 216.00 70.00 
C 215.44 67.60 214.45 65.81 213.00 64.00
C 213.56 66.40 214.55 68.19 216.00 70.00 Z"/>
</g>
<g fill="None" fill-opacity="0.0" stroke="#BE7A97" stroke-opacity="0.20" stroke-width="0.3"><path d="
M 84.00 65.00 
C 76.98 65.94 63.58 61.35 64.00 71.00 C 64.42 80.65 63.98 87.67 64.00 97.00 C 64.02 106.33 64.40 112.45 64.00 122.00 C 63.60 131.55 65.03 137.61 64.00 148.00 C 62.97 158.39 66.07 160.58 77.00 160.00 C 87.92 159.42 83.39 149.66 84.00 141.00 C 84.61 132.34 83.73 124.56 84.00 116.00 C 84.27 107.44 83.85 98.52 84.00 90.00 C 84.15 81.48 83.89 73.47 84.00 65.00
M 83.00 66.00 
C 82.67 77.28 83.43 88.73 83.00 100.00 C 82.57 111.27 83.83 122.79 83.00 134.00 C 82.17 145.21 88.24 158.99 74.00 159.00 C 59.76 159.01 65.84 145.20 65.00 134.00 C 64.16 122.80 65.44 111.26 65.00 100.00 C 64.56 88.74 65.33 77.28 65.00 66.00
C 71.00 66.00 77.00 66.00 83.00 66.00 Z"/>
</g>
<g fill="None" fill-opacity="0.0" stroke="#BD7A94" stroke-opacity="0.17" stroke-width="0.3"><path d="
M 102.00 66.00 
C 102.00 65.96 103.00 66.00 103.00 66.00
C 121.33 66.00 139.67 66.00 158.00 66.00
C 157.47 72.63 161.04 84.68 152.00 84.00 C 142.96 83.32 136.63 84.34 128.00 84.00 C 119.37 83.66 111.56 84.26 103.00 84.00
C 102.50 84.00 102.00 84.00 102.00 84.00
C 120.01 86.33 140.17 84.33 159.00 85.00
C 158.76 78.71 161.73 63.62 153.00 65.00 C 144.27 66.38 134.53 63.10 127.00 65.00 C 119.47 66.90 106.95 60.85 102.00 66.00 Z"/>
</g>
<g fill="None" fill-opacity="0.0" stroke="#000000" stroke-opacity="0.00" stroke-width="0.3"><path d="
M 83.00 66.00 
C 77.00 66.00 71.00 66.00 65.00 66.00
C 65.33 77.28 64.56 88.74 65.00 100.00 C 65.44 111.26 64.16 122.80 65.00 134.00 C 65.84 145.20 59.76 159.01 74.00 159.00 C 88.24 158.99 82.17 145.21 83.00 134.00 C 83.83 122.79 82.57 111.27 83.00 100.00 C 83.43 88.73 82.67 77.28 83.00 66.00 Z"/>
</g>
<g fill="None" fill-opacity="0.0" stroke="#FFCDE7" stroke-opacity="0.06" stroke-width="0.3"><path d="
M 102.00 84.00 
C 102.00 84.00 102.50 84.00 103.00 84.00
C 103.51 78.32 103.51 71.68 103.00 66.00
C 103.00 66.00 102.00 65.96 102.00 66.00
C 101.49 71.68 101.49 78.32 102.00 84.00 Z"/>
</g>
<g fill="None" fill-opacity="0.0" stroke="#000000" stroke-opacity="0.00" stroke-width="0.3"><path d="
M 103.00 84.00 
C 111.56 84.26 119.37 83.66 128.00 84.00 C 136.63 84.34 142.96 83.32 152.00 84.00 C 161.04 84.68 157.47 72.63 158.00 66.00
C 139.67 66.00 121.33 66.00 103.00 66.00
C 103.51 71.68 103.51 78.32 103.00 84.00 Z"/>
</g>
<g fill="None" fill-opacity="0.0" stroke="#EAC3D4" stroke-opacity="0.09" stroke-width="0.3"><path d="
M 5.00 75.00 
C 6.63 73.10 7.57 70.60 8.00 68.00
C 6.37 69.90 5.43 72.40 5.00 75.00 Z"/>
</g>
<g fill="None" fill-opacity="0.0" stroke="#E4B7C8" stroke-opacity="0.08" stroke-width="0.3"><path d="
M 218.00 75.00 
C 217.45 73.28 217.28 72.24 216.00 71.00
C 216.12 72.97 217.37 73.57 218.00 75.00 Z"/>
</g>
<g fill="None" fill-opacity="0.0" stroke="#DCA9BA" stroke-opacity="0.12" stroke-width="0.3"><path d="
M 2.00 85.00 
C 2.00 85.00 2.72 85.25 3.00 85.00
C 3.32 82.67 3.60 80.72 5.00 79.00
C 5.00 79.00 5.00 78.50 5.00 78.00
C 5.00 77.50 5.00 76.50 5.00 76.00
C 3.06 78.39 2.71 81.92 2.00 85.00 Z"/>
</g>
<g fill="None" fill-opacity="0.0" stroke="#671534" stroke-opacity="0.69" stroke-width="0.3"><path d="
M 3.00 85.00 
C 4.47 83.70 4.92 81.05 5.00 79.00
C 3.60 80.72 3.32 82.67 3.00 85.00 Z"/>
</g>
<g fill="None" fill-opacity="0.0" stroke="#C98AA8" stroke-opacity="0.17" stroke-width="0.3"><path d="
M 0.00 97.00 
C 0.50 97.00 1.00 97.00 1.00 97.00
C 1.00 97.00 1.00 96.50 1.00 96.00
C 1.00 94.61 1.45 92.31 1.00 91.00
C 1.00 91.00 0.50 91.00 0.00 91.00
L 0.00 97.00 Z"/>
</g>
<g fill="None" fill-opacity="0.0" stroke="#6D1035" stroke-opacity="0.74" stroke-width="0.3"><path d="
M 1.00 96.00 
C 2.87 93.87 1.06 92.83 1.00 91.00
C 1.45 92.31 1.00 94.61 1.00 96.00 Z"/>
</g>
<g fill="None" fill-opacity="0.0" stroke="#721338" stroke-opacity="0.60" stroke-width="0.3"><path d="
M 222.00 96.00 
L 222.00 91.00
C 220.35 91.68 220.61 95.26 222.00 96.00 Z"/>
</g>
<g fill="None" fill-opacity="0.0" stroke="#6E1034" stroke-opacity="0.74" stroke-width="0.3"><path d="
M 0.00 105.00 
C 1.78 103.30 1.00 99.52 1.00 97.00
C 1.00 97.00 0.50 97.00 0.00 97.00
L 0.00 105.00 Z"/>
</g>
<g fill="None" fill-opacity="0.0" stroke="#721039" stroke-opacity="0.73" stroke-width="0.3"><path d="
M 119.00 123.00 
C 118.96 123.00 119.00 122.00 119.00 122.00
C 113.33 122.00 107.67 122.00 102.00 122.00
C 102.00 115.67 102.00 109.33 102.00 103.00
C 104.67 103.00 107.33 103.00 110.00 103.00
C 121.33 103.00 132.67 103.00 144.00 103.00
C 145.69 102.84 157.09 99.88 158.00 103.00
C 160.57 104.67 159.54 119.91 158.00 122.00
C 157.76 122.32 158.00 123.00 158.00 123.00
C 161.65 122.22 160.55 108.07 159.97 104.03 C 159.39 99.99 147.95 100.58 143.00 101.00 C 138.05 101.42 127.16 100.22 122.00 101.00 C 116.84 101.78 106.64 98.91 102.75 101.75 C 98.86 104.60 100.60 116.82 101.08 120.92 C 101.57 125.01 115.88 123.00 119.00 123.00 Z"/>
</g>
<g fill="None" fill-opacity="0.0" stroke="#681339" stroke-opacity="0.52" stroke-width="0.3"><path d="
M 144.00 103.00 
C 144.50 103.00 145.00 103.00 145.00 103.00
C 147.33 103.00 149.67 103.00 152.00 103.00
C 153.33 103.00 154.67 103.00 156.00 103.00
C 156.50 103.00 157.65 102.77 158.00 103.00
C 157.09 99.88 145.69 102.84 144.00 103.00 Z"/>
</g>
<g fill="None" fill-opacity="0.0" stroke="#FFD5EE" stroke-opacity="0.05" stroke-width="0.3"><path d="
M 119.00 122.00 
C 123.33 122.00 127.67 122.00 132.00 122.00
C 123.10 121.14 112.62 120.56 103.00 121.00
C 103.00 115.33 103.00 109.67 103.00 104.00
C 105.19 103.48 108.62 105.14 110.00 103.00
C 107.33 103.00 104.67 103.00 102.00 103.00
C 102.00 109.33 102.00 115.67 102.00 122.00
C 107.67 122.00 113.33 122.00 119.00 122.00 Z"/>
</g>
<g fill="None" fill-opacity="0.0" stroke="#000000" stroke-opacity="0.00" stroke-width="0.3"><path d="
M 132.00 122.00 
C 134.67 122.00 137.33 122.00 140.00 122.00
C 145.31 121.49 151.98 120.46 158.00 121.00
C 158.00 114.52 158.78 108.02 156.00 103.00
C 154.67 103.00 153.33 103.00 152.00 103.00
C 149.59 103.33 147.55 104.89 145.00 103.00
C 145.00 103.00 144.50 103.00 144.00 103.00
C 132.67 103.00 121.33 103.00 110.00 103.00
C 108.62 105.14 105.19 103.48 103.00 104.00
C 103.00 109.67 103.00 115.33 103.00 121.00
C 112.62 120.56 123.10 121.14 132.00 122.00 Z"/>
</g>
<g fill="None" fill-opacity="0.0" stroke="#FFFFFF" stroke-opacity="0.01" stroke-width="0.3"><path d="
M 152.00 103.00 
C 149.67 103.00 147.33 103.00 145.00 103.00
C 147.55 104.89 149.59 103.33 152.00 103.00 Z"/>
</g>
<g fill="None" fill-opacity="0.0" stroke="#BA7E98" stroke-opacity="0.26" stroke-width="0.3"><path d="
M 158.00 121.00 
C 158.00 121.50 158.00 122.00 158.00 122.00
C 159.54 119.91 160.57 104.67 158.00 103.00
C 157.65 102.77 156.50 103.00 156.00 103.00
C 158.78 108.02 158.00 114.52 158.00 121.00 Z"/>
</g>
<g fill="None" fill-opacity="0.0" stroke="#86344F" stroke-opacity="0.56" stroke-width="0.3"><path d="
M 0.00 133.00 
C 1.18 134.76 1.49 137.70 2.00 140.00
C 1.95 141.42 5.00 134.16 2.78 131.22 C 0.55 128.29 1.75 122.85 0.00 120.00
L 0.00 133.00 Z"/>
</g>
<g fill="None" fill-opacity="0.0" stroke="#FFDCF4" stroke-opacity="0.03" stroke-width="0.3"><path d="
M 140.00 122.00 
C 145.92 122.00 152.11 122.53 158.00 122.00
C 158.00 122.00 158.00 121.50 158.00 121.00
C 151.98 120.46 145.31 121.49 140.00 122.00 Z"/>
</g>
<g fill="None" fill-opacity="0.0" stroke="#671734" stroke-opacity="0.60" stroke-width="0.3"><path d="
M 119.00 123.00 
C 131.82 123.00 145.24 124.15 158.00 123.00
C 158.00 123.00 157.76 122.32 158.00 122.00
C 152.11 122.53 145.92 122.00 140.00 122.00
C 137.33 122.00 134.67 122.00 132.00 122.00
C 127.67 122.00 123.33 122.00 119.00 122.00
C 119.00 122.00 118.96 123.00 119.00 123.00 Z"/>
</g>
<g fill="None" fill-opacity="0.0" stroke="#6C1033" stroke-opacity="0.58" stroke-width="0.3"><path d="
M 222.00 134.00 
L 222.00 128.00
C 220.31 128.96 220.57 132.97 222.00 134.00 Z"/>
</g>
<g fill="None" fill-opacity="0.0" stroke="#000000" stroke-opacity="0.00" stroke-width="0.3"><path d="
M 0.00 224.00 
L 94.00 224.00
C 94.00 223.50 94.00 223.00 94.00 223.00
C 91.78 223.01 89.58 223.35 88.00 222.00
C 87.71 221.75 87.00 222.00 87.00 222.00
C 81.56 221.87 72.06 219.30 68.00 216.00
C 67.70 215.76 67.00 216.00 67.00 216.00
C 64.45 214.40 61.65 213.42 59.00 212.00
C 54.88 209.80 50.85 207.64 47.00 205.00
C 44.77 203.47 42.91 201.57 41.00 200.00
C 40.09 199.25 38.89 198.68 38.00 198.00
C 33.55 194.64 29.56 190.17 26.00 186.00
C 21.14 180.32 16.88 174.67 14.00 168.00
C 12.95 166.08 11.06 164.28 10.00 162.00
C 8.96 159.78 8.45 158.42 8.00 156.00
C 7.94 155.76 7.03 155.35 7.00 155.00
C 6.95 154.50 7.00 154.00 7.00 154.00
C 6.88 153.74 6.03 153.35 6.00 153.00
C 5.95 152.50 6.00 152.00 6.00 152.00
C 5.02 150.64 4.26 148.89 4.00 147.00
C 3.93 146.51 4.00 146.00 4.00 146.00
C 3.07 144.30 2.47 142.13 2.00 140.00
C 1.49 137.70 1.18 134.76 0.00 133.00
L 0.00 224.00 Z"/>
</g>
<g fill="None" fill-opacity="0.0" stroke="#000000" stroke-opacity="0.00" stroke-width="0.3"><path d="
M 217.00 151.00 
C 216.13 153.45 214.95 155.81 214.00 158.00
C 213.48 159.20 213.44 160.80 213.00 162.00
C 212.09 164.46 210.09 166.07 209.00 168.00
C 208.76 169.28 208.54 169.84 208.00 171.00
C 207.17 172.78 205.98 173.63 205.00 175.00
C 204.21 176.84 203.30 178.35 202.00 180.00
C 200.47 181.94 199.00 183.60 197.00 185.00
C 196.80 185.40 197.00 186.00 197.00 186.00
C 195.04 190.01 189.44 194.40 186.00 197.00
C 185.11 197.67 183.88 198.23 183.00 199.00
C 181.24 200.55 179.95 201.66 178.00 203.00
C 176.12 204.29 174.12 205.69 172.00 207.00
C 169.05 208.83 166.17 210.43 163.00 212.00
C 152.69 217.10 141.32 221.92 130.00 224.00
L 222.00 224.00
L 222.00 137.00
C 220.66 141.33 218.54 146.68 217.00 151.00 Z"/>
</g>
<g fill="None" fill-opacity="0.0" stroke="#701235" stroke-opacity="0.73" stroke-width="0.3"><path d="
M 101.00 159.00 
C 101.00 159.04 102.00 159.00 102.00 159.00
C 102.54 153.05 101.46 146.95 102.00 141.00
C 105.36 137.51 113.76 140.73 119.00 140.00 C 124.24 139.27 132.27 140.08 138.00 140.00 C 143.73 139.92 151.17 139.47 157.00 140.00
C 160.07 140.66 160.42 158.29 158.00 160.00
C 160.62 158.11 163.58 139.64 157.00 139.00 C 150.42 138.36 139.56 139.32 132.00 139.00 C 124.44 138.68 113.83 139.24 106.00 139.00 C 98.18 138.77 100.46 153.07 101.00 159.00 Z"/>
</g>
<g fill="None" fill-opacity="0.0" stroke="#C2829B" stroke-opacity="0.10" stroke-width="0.3"><path d="
M 102.00 141.00 
C 102.00 140.96 103.00 141.00 103.00 141.00
C 120.75 141.00 139.33 142.60 157.00 141.00
C 156.76 140.68 157.00 140.00 157.00 140.00
C 151.17 139.47 143.73 139.92 138.00 140.00 C 132.27 140.08 124.24 139.27 119.00 140.00 C 113.76 140.73 105.36 137.51 102.00 141.00 Z"/>
</g>
<g fill="None" fill-opacity="0.0" stroke="#BA7894" stroke-opacity="0.22" stroke-width="0.3"><path d="
M 157.00 141.00 
C 159.75 144.72 160.44 159.82 153.00 159.00 C 145.55 158.17 136.71 159.31 129.00 159.00 C 121.29 158.69 112.78 159.00 105.00 159.00
C 104.00 159.00 103.00 159.00 102.00 159.00
C 105.85 161.85 114.89 159.85 120.00 160.00 C 125.11 160.15 134.05 160.97 139.00 160.00 C 143.95 159.03 154.13 162.74 158.00 160.00
C 160.42 158.29 160.07 140.66 157.00 140.00
C 157.00 140.00 156.76 140.68 157.00 141.00 Z"/>
</g>
<g fill="None" fill-opacity="0.0" stroke="#FFD0E9" stroke-opacity="0.05" stroke-width="0.3"><path d="
M 102.00 159.00 
C 103.00 159.00 104.00 159.00 105.00 159.00
C 100.77 156.89 103.39 145.31 103.00 141.00
C 103.00 141.00 102.00 140.96 102.00 141.00
C 101.46 146.95 102.54 153.05 102.00 159.00 Z"/>
</g>
<g fill="None" fill-opacity="0.0" stroke="#000000" stroke-opacity="0.00" stroke-width="0.3"><path d="
M 105.00 159.00 
C 112.78 159.00 121.29 158.69 129.00 159.00 C 136.71 159.31 145.55 158.17 153.00 159.00 C 160.44 159.82 159.75 144.72 157.00 141.00
C 139.33 142.60 120.75 141.00 103.00 141.00
C 103.39 145.31 100.77 156.89 105.00 159.00 Z"/>
</g>
<g fill="None" fill-opacity="0.0" stroke="#802D4A" stroke-opacity="0.51" stroke-width="0.3"><path d="
M 4.00 146.00 
C 4.00 146.00 3.93 146.51 4.00 147.00
C 5.50 148.22 6.06 149.96 6.00 152.00
C 6.00 152.00 5.95 152.50 6.00 153.00
C 6.12 153.26 6.97 153.65 7.00 154.00
C 7.00 154.00 6.95 154.50 7.00 155.00
C 7.12 155.26 7.93 155.65 8.00 156.00
C 8.45 158.42 8.96 159.78 10.00 162.00
C 11.16 163.98 12.97 165.60 14.00 168.00
C 16.88 174.67 21.14 180.32 26.00 186.00
C 29.85 189.85 34.05 194.38 38.00 198.00
C 38.89 198.68 40.09 199.25 41.00 200.00
C 43.33 201.45 44.89 203.16 47.00 205.00
C 50.85 207.64 54.88 209.80 59.00 212.00
C 53.58 207.04 46.46 202.52 40.00 198.00
C 34.75 194.33 28.23 187.12 26.00 183.00
C 17.18 170.78 8.31 157.77 5.00 143.00
C 3.58 143.27 4.03 145.00 4.00 146.00 Z"/>
</g>
<g fill="None" fill-opacity="0.0" stroke="#E2A1C9" stroke-opacity="0.08" stroke-width="0.3"><path d="
M 6.00 152.00 
C 6.06 149.96 5.50 148.22 4.00 147.00
C 4.26 148.89 5.02 150.64 6.00 152.00 Z"/>
</g>
<g fill="None" fill-opacity="0.0" stroke="#873B56" stroke-opacity="0.47" stroke-width="0.3"><path d="
M 214.00 158.00 
C 214.95 155.81 216.13 153.45 217.00 151.00
C 216.01 152.30 214.50 154.43 214.00 158.00 Z"/>
</g>
<g fill="None" fill-opacity="0.0" stroke="#FFFFFF" stroke-opacity="0.00" stroke-width="0.3"><path d="
M 7.00 154.00 
C 6.97 153.65 6.12 153.26 6.00 153.00
C 6.03 153.35 6.88 153.74 7.00 154.00 Z"/>
</g>
<g fill="None" fill-opacity="0.0" stroke="#D699B8" stroke-opacity="0.10" stroke-width="0.3"><path d="
M 8.00 156.00 
C 7.93 155.65 7.12 155.26 7.00 155.00
C 7.03 155.35 7.94 155.76 8.00 156.00 Z"/>
</g>
<g fill="None" fill-opacity="0.0" stroke="#720F36" stroke-opacity="0.83" stroke-width="0.3"><path d="
M 158.00 160.00 
C 154.13 162.74 143.95 159.03 139.00 160.00 C 134.05 160.97 125.11 160.15 120.00 160.00 C 114.89 159.85 105.85 161.85 102.00 159.00
C 102.00 159.00 101.00 159.04 101.00 159.00
C 101.92 163.31 114.60 160.63 119.00 161.00 C 123.40 161.37 133.96 161.40 139.00 161.00 C 144.04 160.60 153.99 162.89 158.00 160.00 Z"/>
</g>
<g fill="None" fill-opacity="0.0" stroke="#681133" stroke-opacity="0.63" stroke-width="0.3"><path d="
M 209.00 168.00 
C 210.13 166.03 210.88 163.96 212.00 162.00
C 209.93 160.78 209.17 167.09 209.00 168.00 Z"/>
</g>
<g fill="None" fill-opacity="0.0" stroke="#CC90AC" stroke-opacity="0.08" stroke-width="0.3"><path d="
M 14.00 168.00 
C 12.97 165.60 11.16 163.98 10.00 162.00
C 11.06 164.28 12.95 166.08 14.00 168.00 Z"/>
</g>
<g fill="None" fill-opacity="0.0" stroke="#C893A5" stroke-opacity="0.09" stroke-width="0.3"><path d="
M 209.00 168.00 
C 210.09 166.07 212.09 164.46 213.00 162.00
C 213.00 162.00 212.37 162.22 212.00 162.00
C 210.88 163.96 210.13 166.03 209.00 168.00 Z"/>
</g>
<g fill="None" fill-opacity="0.0" stroke="#E1ABCB" stroke-opacity="0.07" stroke-width="0.3"><path d="
M 206.00 172.00 
C 205.75 172.30 205.24 174.44 205.00 175.00
C 205.98 173.63 207.17 172.78 208.00 171.00
C 207.71 171.30 206.43 171.74 206.00 172.00 Z"/>
</g>
<g fill="None" fill-opacity="0.0" stroke="#77213F" stroke-opacity="0.64" stroke-width="0.3"><path d="
M 186.00 196.00 
C 190.05 193.17 193.00 188.79 197.00 186.00
C 197.00 186.00 196.80 185.40 197.00 185.00
C 198.11 182.73 200.46 181.67 202.00 180.00
C 203.30 178.35 204.21 176.84 205.00 175.00
C 205.24 174.44 205.75 172.30 206.00 172.00
C 202.52 174.13 197.86 181.74 195.75 184.75 C 193.64 187.76 184.50 193.64 186.00 196.00 Z"/>
</g>
<g fill="None" fill-opacity="0.0" stroke="#C4839D" stroke-opacity="0.13" stroke-width="0.3"><path d="
M 197.00 185.00 
C 199.00 183.60 200.47 181.94 202.00 180.00
C 200.46 181.67 198.11 182.73 197.00 185.00 Z"/>
</g>
<g fill="None" fill-opacity="0.0" stroke="#761137" stroke-opacity="0.80" stroke-width="0.3"><path d="
M 40.00 198.00 
C 35.31 194.15 29.68 187.95 26.00 183.00
C 28.23 187.12 34.75 194.33 40.00 198.00 Z"/>
</g>
<g fill="None" fill-opacity="0.0" stroke="#D9A1B7" stroke-opacity="0.07" stroke-width="0.3"><path d="
M 38.00 198.00 
C 34.05 194.38 29.85 189.85 26.00 186.00
C 29.56 190.17 33.55 194.64 38.00 198.00 Z"/>
</g>
<g fill="None" fill-opacity="0.0" stroke="#D49EB3" stroke-opacity="0.07" stroke-width="0.3"><path d="
M 186.00 196.00 
C 186.00 196.00 186.25 196.73 186.00 197.00
C 189.44 194.40 195.04 190.01 197.00 186.00
C 193.00 188.79 190.05 193.17 186.00 196.00 Z"/>
</g>
<g fill="None" fill-opacity="0.0" stroke="#7F2F4A" stroke-opacity="0.48" stroke-width="0.3"><path d="
M 178.00 203.00 
C 179.95 201.66 181.24 200.55 183.00 199.00
C 183.09 198.96 172.05 204.42 178.00 203.00 Z"/>
</g>
<g fill="None" fill-opacity="0.0" stroke="#AF6985" stroke-opacity="0.16" stroke-width="0.3"><path d="
M 47.00 205.00 
C 44.89 203.16 43.33 201.45 41.00 200.00
C 42.91 201.57 44.77 203.47 47.00 205.00 Z"/>
</g>
<g fill="None" fill-opacity="0.0" stroke="#7F2F4F" stroke-opacity="0.31" stroke-width="0.3"><path d="
M 163.00 212.00 
C 166.17 210.43 169.05 208.83 172.00 207.00
C 169.79 208.03 164.40 210.71 163.00 212.00 Z"/>
</g>
<g fill="None" fill-opacity="0.0" stroke="#750F38" stroke-opacity="0.56" stroke-width="0.3"><path d="
M 67.00 216.00 
C 67.00 216.00 67.70 215.76 68.00 216.00
C 72.24 214.83 64.95 212.39 67.00 216.00 Z"/>
</g>
<g fill="None" fill-opacity="0.0" stroke="#7E0533" stroke-opacity="0.68" stroke-width="0.3"><path d="
M 87.00 222.00 
C 87.00 222.00 87.71 221.75 88.00 222.00
C 91.24 220.42 88.27 219.20 87.00 222.00 Z"/>
</g>
<g fill="None" fill-opacity="0.0" stroke="#78233E" stroke-opacity="0.20" stroke-width="0.3"><path d="
M 94.00 223.00 
C 94.00 223.00 94.00 223.50 94.00 224.00
L 102.00 224.00
C 102.00 223.50 102.00 223.00 102.00 223.00
C 100.13 222.96 94.78 222.16 94.00 223.00 Z"/>
</g>
<g fill="None" fill-opacity="0.0" stroke="#7B1338" stroke-opacity="0.54" stroke-width="0.3"><path d="
M 102.00 223.00 
C 102.00 223.00 102.00 223.50 102.00 224.00
L 129.00 224.00
C 129.28 219.65 121.98 222.73 118.00 223.00 C 114.02 223.27 106.31 223.09 102.00 223.00 Z"/>
</g>
<g fill="#000000" fill-opacity="0.00" stroke="None">
<path d="
M 0.00 91.00 
C 0.50 91.00 1.00 91.00 1.00 91.00
C 0.98 88.57 1.50 87.16 2.00 85.00
C 2.71 81.92 3.06 78.39 5.00 76.00
C 5.00 75.50 5.00 75.00 5.00 75.00
C 5.43 72.40 6.37 69.90 8.00 68.00
C 8.08 67.51 8.00 67.00 8.00 67.00
C 9.82 59.23 16.48 49.63 21.75 43.75 C 27.03 37.88 32.77 28.54 40.00 25.00
C 40.40 24.80 41.00 25.00 41.00 25.00
C 42.73 22.53 44.41 21.33 47.00 20.00
C 47.52 19.73 48.59 19.33 49.00 19.00
C 51.85 16.72 54.40 14.42 58.00 13.00
C 58.43 12.83 59.00 13.00 59.00 13.00
C 59.26 12.88 59.65 12.03 60.00 12.00
C 60.50 11.95 61.00 12.00 61.00 12.00
C 61.26 11.88 61.65 11.03 62.00 11.00
C 62.50 10.95 63.00 11.00 63.00 11.00
C 63.26 10.88 63.65 10.03 64.00 10.00
C 64.50 9.95 65.00 10.00 65.00 10.00
C 66.10 9.34 67.54 8.45 69.00 8.00
C 69.46 7.86 70.00 8.00 70.00 8.00
C 71.13 6.95 71.52 7.47 73.00 7.00
C 75.69 6.15 79.01 4.91 82.00 4.00
C 85.73 2.87 89.62 1.15 94.00 1.00
C 95.00 0.97 96.00 1.00 97.00 1.00
C 97.25 0.73 97.00 0.00 97.00 0.00
L 0.00 0.00
L 0.00 91.00 Z"/>
</g>
<g fill="#E6A7CC" fill-opacity="0.07" stroke="None">
<path d="
M 97.00 1.00 
C 99.00 1.00 101.00 1.00 103.00 1.00
C 103.10 0.98 103.00 0.00 103.00 0.00
L 97.00 0.00
C 97.00 0.00 97.25 0.73 97.00 1.00 Z"/>
</g>
<g fill="#823452" fill-opacity="0.31" stroke="None">
<path d="
M 103.00 1.00 
C 108.33 1.00 113.67 1.00 119.00 1.00
C 118.85 0.95 119.00 0.00 119.00 0.00
L 103.00 0.00
C 103.00 0.00 103.10 0.98 103.00 1.00 Z"/>
</g>
<g fill="#DE9BBA" fill-opacity="0.08" stroke="None">
<path d="
M 119.00 1.00 
C 120.67 1.00 122.33 1.00 124.00 1.00
C 124.50 1.00 125.50 1.03 126.00 1.00
C 126.23 0.66 126.00 0.00 126.00 0.00
L 119.00 0.00
C 119.00 0.00 118.85 0.95 119.00 1.00 Z"/>
</g>
<g fill="#000000" fill-opacity="0.00" stroke="None">
<path d="
M 126.00 1.00 
C 132.58 0.54 139.01 2.99 145.00 5.00
C 146.87 5.63 148.49 5.91 150.00 7.00
C 150.33 7.24 151.00 7.00 151.00 7.00
C 152.73 7.11 153.91 7.87 155.00 9.00
C 155.24 9.25 156.00 9.00 156.00 9.00
C 156.50 9.00 157.00 9.00 157.00 9.00
C 159.56 10.00 161.83 11.83 164.00 13.00
C 167.35 13.30 170.23 16.29 173.00 18.00
C 175.12 19.31 176.59 19.83 178.00 22.00
C 178.36 22.22 179.00 22.00 179.00 22.00
C 185.12 26.68 195.48 33.82 199.00 41.00
C 199.20 41.40 199.00 42.00 199.00 42.00
C 201.73 43.91 203.30 46.27 205.00 49.00
C 205.22 49.36 205.00 50.00 205.00 50.00
C 207.58 52.47 209.65 55.57 211.00 59.00
C 211.17 59.43 211.00 60.00 211.00 60.00
C 211.12 60.26 211.97 60.65 212.00 61.00
C 212.05 61.50 212.00 62.00 212.00 62.00
C 212.12 62.26 212.97 62.65 213.00 63.00
C 213.05 63.50 213.00 64.00 213.00 64.00
C 214.45 65.81 215.44 67.60 216.00 70.00
C 216.11 70.47 216.00 71.00 216.00 71.00
C 217.28 72.24 217.45 73.28 218.00 75.00
C 218.54 76.68 218.54 78.29 219.00 80.00
C 219.53 81.96 221.33 85.11 222.00 87.00
L 222.00 0.00
L 126.00 0.00
C 126.00 0.00 126.23 0.66 126.00 1.00 Z"/>
</g>
<g fill="#900139" fill-opacity="0.99" stroke="None">
<path d="
M 82.00 4.00 
C 83.00 4.00 84.73 3.60 85.00 5.00
C 80.98 4.75 76.43 9.49 73.00 7.00
C 71.52 7.47 71.13 6.95 70.00 8.00
C 74.16 8.85 66.72 11.41 69.00 8.00
C 67.54 8.45 66.10 9.34 65.00 10.00
C 68.64 10.74 59.22 14.48 57.00 15.00
C 56.53 15.11 56.00 15.00 56.00 15.00
C 53.84 18.31 51.40 18.71 49.00 19.00
C 48.59 19.33 47.52 19.73 47.00 20.00
C 45.08 21.54 43.06 23.42 41.00 25.00
C 41.00 25.00 40.40 24.80 40.00 25.00
C 39.75 25.25 40.00 26.00 40.00 26.00
C 41.49 28.34 33.52 33.12 31.25 36.25 C 28.98 39.37 23.43 44.33 21.23 48.23 C 19.03 52.13 14.16 57.20 12.00 61.00
C 8.98 66.30 8.98 73.04 5.00 78.00
C 5.00 78.50 5.00 79.00 5.00 79.00
C 4.92 81.05 4.47 83.70 3.00 85.00
C 2.72 85.25 2.00 85.00 2.00 85.00
C 1.50 87.16 0.98 88.57 1.00 91.00
C 1.06 92.83 2.87 93.87 1.00 96.00
C 1.00 96.50 1.00 97.00 1.00 97.00
C 1.00 99.52 1.78 103.30 0.00 105.00
L 0.00 120.00
C 1.75 122.85 0.55 128.29 2.78 131.22 C 5.00 134.16 1.95 141.42 2.00 140.00
C 2.47 142.13 3.07 144.30 4.00 146.00
C 4.03 145.00 3.58 143.27 5.00 143.00
C 8.31 157.77 17.18 170.78 26.00 183.00
C 29.68 187.95 35.31 194.15 40.00 198.00
C 46.46 202.52 53.58 207.04 59.00 212.00
C 61.65 213.42 64.45 214.40 67.00 216.00
C 64.95 212.39 72.24 214.83 68.00 216.00
C 72.06 219.30 81.56 221.87 87.00 222.00
C 88.27 219.20 91.24 220.42 88.00 222.00
C 89.58 223.35 91.78 223.01 94.00 223.00
C 94.78 222.16 100.13 222.96 102.00 223.00
C 106.31 223.09 114.02 223.27 118.00 223.00 C 121.98 222.73 129.28 219.65 129.00 224.00
L 130.00 224.00
C 141.32 221.92 152.69 217.10 163.00 212.00
C 164.40 210.71 169.79 208.03 172.00 207.00
C 174.12 205.69 176.12 204.29 178.00 203.00
C 172.05 204.42 183.09 198.96 183.00 199.00
C 183.88 198.23 185.11 197.67 186.00 197.00
C 186.25 196.73 186.00 196.00 186.00 196.00
C 184.50 193.64 193.64 187.76 195.75 184.75 C 197.86 181.74 202.52 174.13 206.00 172.00
C 206.43 171.74 207.71 171.30 208.00 171.00
C 208.54 169.84 208.76 169.28 209.00 168.00
C 209.17 167.09 209.93 160.78 212.00 162.00
C 212.37 162.22 213.00 162.00 213.00 162.00
C 213.44 160.80 213.48 159.20 214.00 158.00
C 214.50 154.43 216.01 152.30 217.00 151.00
C 218.54 146.68 220.66 141.33 222.00 137.00
L 222.00 134.00
C 220.57 132.97 220.31 128.96 222.00 128.00
L 222.00 96.00
C 220.61 95.26 220.35 91.68 222.00 91.00
L 222.00 87.00
C 221.33 85.11 219.53 81.96 219.00 80.00
C 217.75 78.50 215.09 73.45 212.08 65.92 C 209.06 58.40 208.59 57.81 202.75 49.25 C 196.90 40.70 186.10 29.73 177.75 23.25 C 169.41 16.77 169.66 18.31 162.00 13.00
C 160.07 11.66 158.54 10.61 157.00 9.00
C 157.00 9.00 156.50 9.00 156.00 9.00
C 157.03 11.65 153.94 11.53 155.00 9.00
C 153.91 7.87 152.73 7.11 151.00 7.00
C 151.60 7.35 152.67 8.25 153.00 9.00
C 151.27 10.09 145.87 7.31 150.00 7.00
C 148.49 5.91 146.87 5.63 145.00 5.00
C 145.65 5.48 146.63 6.14 147.00 7.00
C 139.33 5.44 131.62 3.79 124.00 2.00
C 112.55 0.93 101.21 2.81 90.00 3.00
C 90.47 1.02 93.60 3.11 94.00 1.00
C 89.62 1.15 85.73 2.87 82.00 4.00
M 84.00 64.00 
C 87.86 66.73 83.90 76.27 85.00 81.00 C 86.10 85.73 84.46 93.43 85.00 99.00 C 85.54 104.57 84.67 110.89 85.00 117.00 C 85.33 123.11 84.64 129.47 85.00 136.00 C 85.36 142.53 84.35 146.71 85.00 154.00 C 85.65 161.29 80.39 160.61 74.00 161.00 C 67.61 161.39 61.83 160.38 63.00 153.00 C 64.18 145.62 62.45 141.52 63.00 135.00 C 63.55 128.48 62.71 123.01 63.00 117.00 C 63.29 110.99 62.75 103.47 63.00 98.00 C 63.25 92.53 62.61 84.32 63.00 80.00 C 63.39 75.68 61.28 64.59 65.08 64.08 C 68.89 63.58 81.18 62.01 84.00 64.00
M 159.00 64.00 
C 162.11 66.20 160.21 78.82 160.00 83.00 C 159.79 87.18 147.60 86.42 143.00 86.00 C 138.40 85.58 127.92 86.98 123.00 86.00 C 118.08 85.02 106.25 88.24 102.33 85.67 C 98.41 83.10 100.92 71.44 101.00 67.00 C 101.08 62.56 113.44 63.54 118.00 64.00 C 122.56 64.46 133.05 62.67 138.00 64.00 C 142.95 65.33 154.89 61.09 159.00 64.00
M 158.00 123.00 
C 145.24 124.15 131.82 123.00 119.00 123.00
C 115.88 123.00 101.57 125.01 101.08 120.92 C 100.60 116.82 98.86 104.60 102.75 101.75 C 106.64 98.91 116.84 101.78 122.00 101.00 C 127.16 100.22 138.05 101.42 143.00 101.00 C 147.95 100.58 159.39 99.99 159.97 104.03 C 160.55 108.07 161.65 122.22 158.00 123.00
M 158.00 160.00 
C 153.99 162.89 144.04 160.60 139.00 161.00 C 133.96 161.40 123.40 161.37 119.00 161.00 C 114.60 160.63 101.92 163.31 101.00 159.00
C 100.46 153.07 98.18 138.77 106.00 139.00 C 113.83 139.24 124.44 138.68 132.00 139.00 C 139.56 139.32 150.42 138.36 157.00 139.00 C 163.58 139.64 160.62 158.11 158.00 160.00 Z"/>
</g>
<g fill="#791239" fill-opacity="0.74" stroke="None">
<path d="
M 124.00 2.00 
C 123.76 1.80 124.00 1.00 124.00 1.00
C 122.33 1.00 120.67 1.00 119.00 1.00
C 113.67 1.00 108.33 1.00 103.00 1.00
C 101.00 1.00 99.00 1.00 97.00 1.00
C 96.00 1.00 95.00 0.97 94.00 1.00
C 93.60 3.11 90.47 1.02 90.00 3.00
C 101.21 2.81 112.55 0.93 124.00 2.00 Z"/>
</g>
<g fill="#8C3855" fill-opacity="0.49" stroke="None">
<path d="
M 124.00 2.00 
C 131.62 3.79 139.33 5.44 147.00 7.00
C 146.63 6.14 145.65 5.48 145.00 5.00
C 139.01 2.99 132.58 0.54 126.00 1.00
C 125.50 1.03 124.50 1.00 124.00 1.00
C 124.00 1.00 123.76 1.80 124.00 2.00 Z"/>
</g>
<g fill="#84354D" fill-opacity="0.49" stroke="None">
<path d="
M 73.00 7.00 
C 76.43 9.49 80.98 4.75 85.00 5.00
C 84.73 3.60 83.00 4.00 82.00 4.00
C 79.01 4.91 75.69 6.15 73.00 7.00 Z"/>
</g>
<g fill="#721034" fill-opacity="0.63" stroke="None">
<path d="
M 151.00 7.00 
C 151.00 7.00 150.33 7.24 150.00 7.00
C 145.87 7.31 151.27 10.09 153.00 9.00
C 152.67 8.25 151.60 7.35 151.00 7.00 Z"/>
</g>
<g fill="#781D3D" fill-opacity="0.55" stroke="None">
<path d="
M 70.00 8.00 
C 70.00 8.00 69.46 7.86 69.00 8.00
C 66.72 11.41 74.16 8.85 70.00 8.00 Z"/>
</g>
<g fill="#6C1133" fill-opacity="0.66" stroke="None">
<path d="
M 156.00 9.00 
C 156.00 9.00 155.24 9.25 155.00 9.00
C 153.94 11.53 157.03 11.65 156.00 9.00 Z"/>
</g>
<g fill="#C08196" fill-opacity="0.13" stroke="None">
<path d="
M 162.00 13.00 
C 162.43 13.17 163.50 12.96 164.00 13.00
C 161.83 11.83 159.56 10.00 157.00 9.00
C 158.54 10.61 160.07 11.66 162.00 13.00 Z"/>
</g>
<g fill="#FFC6C6" fill-opacity="0.04" stroke="None">
<path d="
M 63.00 11.00 
C 63.35 10.97 63.74 10.12 64.00 10.00
C 63.65 10.03 63.26 10.88 63.00 11.00 Z"/>
</g>
<g fill="#792846" fill-opacity="0.47" stroke="None">
<path d="
M 63.00 11.00 
C 63.00 11.00 62.50 10.95 62.00 11.00
C 61.74 11.12 61.35 11.97 61.00 12.00
C 61.00 12.00 60.50 11.95 60.00 12.00
C 59.74 12.12 59.35 12.97 59.00 13.00
C 59.00 13.00 58.43 12.83 58.00 13.00
C 57.58 13.21 57.28 14.86 57.00 15.00
C 59.22 14.48 68.64 10.74 65.00 10.00
C 65.00 10.00 64.50 9.95 64.00 10.00
C 63.74 10.12 63.35 10.97 63.00 11.00 Z"/>
</g>
<g fill="#FFFFFF" fill-opacity="0.01" stroke="None">
<path d="
M 61.00 12.00 
C 61.35 11.97 61.74 11.12 62.00 11.00
C 61.65 11.03 61.26 11.88 61.00 12.00 Z"/>
</g>
<g fill="#FFBFD5" fill-opacity="0.05" stroke="None">
<path d="
M 59.00 13.00 
C 59.35 12.97 59.74 12.12 60.00 12.00
C 59.65 12.03 59.26 12.88 59.00 13.00 Z"/>
</g>
<g fill="#EBB8D0" fill-opacity="0.06" stroke="None">
<path d="
M 49.00 19.00 
C 51.59 18.03 53.42 15.93 56.00 15.00
C 56.00 15.00 56.53 15.11 57.00 15.00
C 57.28 14.86 57.58 13.21 58.00 13.00
C 54.40 14.42 51.85 16.72 49.00 19.00 Z"/>
</g>
<g fill="#7B2443" fill-opacity="0.64" stroke="None">
<path d="
M 219.00 80.00 
C 218.54 78.29 218.54 76.68 218.00 75.00
C 217.37 73.57 216.12 72.97 216.00 71.00
C 216.00 71.00 216.11 70.47 216.00 70.00
C 214.55 68.19 213.56 66.40 213.00 64.00
C 213.00 64.00 213.05 63.50 213.00 63.00
C 212.88 62.74 212.03 62.35 212.00 62.00
C 212.00 62.00 212.05 61.50 212.00 61.00
C 211.88 60.74 211.03 60.35 211.00 60.00
C 211.00 60.00 211.17 59.43 211.00 59.00
C 208.60 57.50 205.98 52.71 205.00 50.00
C 205.00 50.00 205.22 49.36 205.00 49.00
C 202.37 47.29 200.86 44.44 199.00 42.00
C 199.00 42.00 199.20 41.40 199.00 41.00
C 192.54 36.48 183.37 28.25 179.00 22.00
C 179.00 22.00 178.36 22.22 178.00 22.00
C 176.07 20.80 174.62 19.25 173.00 18.00
C 170.23 16.29 167.35 13.30 164.00 13.00
C 163.50 12.96 162.43 13.17 162.00 13.00
C 169.66 18.31 169.41 16.77 177.75 23.25 C 186.10 29.73 196.90 40.70 202.75 49.25 C 208.59 57.81 209.06 58.40 212.08 65.92 C 215.09 73.45 217.75 78.50 219.00 80.00 Z"/>
</g>
<g fill="#671332" fill-opacity="0.59" stroke="None">
<path d="
M 49.00 19.00 
C 51.40 18.71 53.84 18.31 56.00 15.00
C 53.42 15.93 51.59 18.03 49.00 19.00 Z"/>
</g>
<g fill="#DA98BC" fill-opacity="0.08" stroke="None">
<path d="
M 178.00 22.00 
C 176.59 19.83 175.12 19.31 173.00 18.00
C 174.62 19.25 176.07 20.80 178.00 22.00 Z"/>
</g>
<g fill="#E2B0C6" fill-opacity="0.07" stroke="None">
<path d="
M 41.00 25.00 
C 43.06 23.42 45.08 21.54 47.00 20.00
C 44.41 21.33 42.73 22.53 41.00 25.00 Z"/>
</g>
<g fill="#DEA2BB" fill-opacity="0.10" stroke="None">
<path d="
M 199.00 41.00 
C 195.48 33.82 185.12 26.68 179.00 22.00
C 183.37 28.25 192.54 36.48 199.00 41.00 Z"/>
</g>
<g fill="#F0C1D8" fill-opacity="0.07" stroke="None">
<path d="
M 8.00 67.00 
C 9.35 65.32 10.96 62.82 12.00 61.00
C 14.61 56.41 16.90 51.51 20.00 47.00
C 21.54 44.76 23.33 42.88 25.00 41.00
C 29.31 36.15 33.91 30.97 39.00 27.00
C 39.20 26.68 39.88 26.26 40.00 26.00
C 40.00 26.00 39.75 25.25 40.00 25.00
C 32.77 28.54 27.03 37.88 21.75 43.75 C 16.48 49.63 9.82 59.23 8.00 67.00 Z"/>
</g>
<g fill="#731839" fill-opacity="0.78" stroke="None">
<path d="
M 39.00 27.00 
C 35.55 32.57 29.06 36.15 25.00 41.00
C 23.38 42.93 21.65 45.11 20.00 47.00
C 16.90 51.51 14.61 56.41 12.00 61.00
C 14.16 57.20 19.03 52.13 21.23 48.23 C 23.43 44.33 28.98 39.37 31.25 36.25 C 33.52 33.12 41.49 28.34 40.00 26.00
C 39.88 26.26 39.20 26.68 39.00 27.00 Z"/>
</g>
<g fill="#6A1B38" fill-opacity="0.63" stroke="None">
<path d="
M 25.00 41.00 
C 29.06 36.15 35.55 32.57 39.00 27.00
C 33.91 30.97 29.31 36.15 25.00 41.00 Z"/>
</g>
<g fill="#8E435F" fill-opacity="0.44" stroke="None">
<path d="
M 20.00 47.00 
C 21.65 45.11 23.38 42.93 25.00 41.00
C 23.33 42.88 21.54 44.76 20.00 47.00 Z"/>
</g>
<g fill="#E5B0CD" fill-opacity="0.08" stroke="None">
<path d="
M 205.00 49.00 
C 203.30 46.27 201.73 43.91 199.00 42.00
C 200.86 44.44 202.37 47.29 205.00 49.00 Z"/>
</g>
<g fill="#E5B2C6" fill-opacity="0.11" stroke="None">
<path d="
M 211.00 59.00 
C 209.65 55.57 207.58 52.47 205.00 50.00
C 205.98 52.71 208.60 57.50 211.00 59.00 Z"/>
</g>
<g fill="#F2BFD9" fill-opacity="0.08" stroke="None">
<path d="
M 212.00 61.00 
C 211.97 60.65 211.12 60.26 211.00 60.00
C 211.03 60.35 211.88 60.74 212.00 61.00 Z"/>
</g>
<g fill="#762240" fill-opacity="0.66" stroke="None">
<path d="
M 8.00 67.00 
C 8.00 67.00 8.08 67.51 8.00 68.00
C 7.57 70.60 6.63 73.10 5.00 75.00
C 5.00 75.00 5.00 75.50 5.00 76.00
C 5.00 76.50 5.00 77.50 5.00 78.00
C 8.98 73.04 8.98 66.30 12.00 61.00
C 10.96 62.82 9.35 65.32 8.00 67.00 Z"/>
</g>
<g fill="#FFC3E1" fill-opacity="0.07" stroke="None">
<path d="
M 213.00 63.00 
C 212.97 62.65 212.12 62.26 212.00 62.00
C 212.03 62.35 212.88 62.74 213.00 63.00 Z"/>
</g>
<g fill="#730F36" fill-opacity="0.82" stroke="None">
<path d="
M 84.00 64.00 
C 81.18 62.01 68.89 63.58 65.08 64.08 C 61.28 64.59 63.39 75.68 63.00 80.00 C 62.61 84.32 63.25 92.53 63.00 98.00 C 62.75 103.47 63.29 110.99 63.00 117.00 C 62.71 123.01 63.55 128.48 63.00 135.00 C 62.45 141.52 64.18 145.62 63.00 153.00 C 61.83 160.38 67.61 161.39 74.00 161.00 C 80.39 160.61 85.65 161.29 85.00 154.00 C 84.35 146.71 85.36 142.53 85.00 136.00 C 84.64 129.47 85.33 123.11 85.00 117.00 C 84.67 110.89 85.54 104.57 85.00 99.00 C 84.46 93.43 86.10 85.73 85.00 81.00 C 83.90 76.27 87.86 66.73 84.00 64.00
M 84.00 65.00 
C 83.89 73.47 84.15 81.48 84.00 90.00 C 83.85 98.52 84.27 107.44 84.00 116.00 C 83.73 124.56 84.61 132.34 84.00 141.00 C 83.39 149.66 87.92 159.42 77.00 160.00 C 66.07 160.58 62.97 158.39 64.00 148.00 C 65.03 137.61 63.60 131.55 64.00 122.00 C 64.40 112.45 64.02 106.33 64.00 97.00 C 63.98 87.67 64.42 80.65 64.00 71.00 C 63.58 61.35 76.98 65.94 84.00 65.00 Z"/>
</g>
<g fill="#740C35" fill-opacity="0.81" stroke="None">
<path d="
M 159.00 64.00 
C 154.89 61.09 142.95 65.33 138.00 64.00 C 133.05 62.67 122.56 64.46 118.00 64.00 C 113.44 63.54 101.08 62.56 101.00 67.00 C 100.92 71.44 98.41 83.10 102.33 85.67 C 106.25 88.24 118.08 85.02 123.00 86.00 C 127.92 86.98 138.40 85.58 143.00 86.00 C 147.60 86.42 159.79 87.18 160.00 83.00 C 160.21 78.82 162.11 66.20 159.00 64.00
M 102.00 84.00 
C 101.49 78.32 101.49 71.68 102.00 66.00
C 106.95 60.85 119.47 66.90 127.00 65.00 C 134.53 63.10 144.27 66.38 153.00 65.00 C 161.73 63.62 158.76 78.71 159.00 85.00
C 140.17 84.33 120.01 86.33 102.00 84.00 Z"/>
</g>
<g fill="#DD9CBC" fill-opacity="0.12" stroke="None">
<path d="
M 216.00 70.00 
C 215.44 67.60 214.45 65.81 213.00 64.00
C 213.56 66.40 214.55 68.19 216.00 70.00 Z"/>
</g>
<g fill="#BE7A97" fill-opacity="0.20" stroke="None">
<path d="
M 84.00 65.00 
C 76.98 65.94 63.58 61.35 64.00 71.00 C 64.42 80.65 63.98 87.67 64.00 97.00 C 64.02 106.33 64.40 112.45 64.00 122.00 C 63.60 131.55 65.03 137.61 64.00 148.00 C 62.97 158.39 66.07 160.58 77.00 160.00 C 87.92 159.42 83.39 149.66 84.00 141.00 C 84.61 132.34 83.73 124.56 84.00 116.00 C 84.27 107.44 83.85 98.52 84.00 90.00 C 84.15 81.48 83.89 73.47 84.00 65.00
M 83.00 66.00 
C 82.67 77.28 83.43 88.73 83.00 100.00 C 82.57 111.27 83.83 122.79 83.00 134.00 C 82.17 145.21 88.24 158.99 74.00 159.00 C 59.76 159.01 65.84 145.20 65.00 134.00 C 64.16 122.80 65.44 111.26 65.00 100.00 C 64.56 88.74 65.33 77.28 65.00 66.00
C 71.00 66.00 77.00 66.00 83.00 66.00 Z"/>
</g>
<g fill="#BD7A94" fill-opacity="0.17" stroke="None">
<path d="
M 102.00 66.00 
C 102.00 65.96 103.00 66.00 103.00 66.00
C 121.33 66.00 139.67 66.00 158.00 66.00
C 157.47 72.63 161.04 84.68 152.00 84.00 C 142.96 83.32 136.63 84.34 128.00 84.00 C 119.37 83.66 111.56 84.26 103.00 84.00
C 102.50 84.00 102.00 84.00 102.00 84.00
C 120.01 86.33 140.17 84.33 159.00 85.00
C 158.76 78.71 161.73 63.62 153.00 65.00 C 144.27 66.38 134.53 63.10 127.00 65.00 C 119.47 66.90 106.95 60.85 102.00 66.00 Z"/>
</g>
<g fill="#000000" fill-opacity="0.00" stroke="None">
<path d="
M 83.00 66.00 
C 77.00 66.00 71.00 66.00 65.00 66.00
C 65.33 77.28 64.56 88.74 65.00 100.00 C 65.44 111.26 64.16 122.80 65.00 134.00 C 65.84 145.20 59.76 159.01 74.00 159.00 C 88.24 158.99 82.17 145.21 83.00 134.00 C 83.83 122.79 82.57 111.27 83.00 100.00 C 83.43 88.73 82.67 77.28 83.00 66.00 Z"/>
</g>
<g fill="#FFCDE7" fill-opacity="0.06" stroke="None">
<path d="
M 102.00 84.00 
C 102.00 84.00 102.50 84.00 103.00 84.00
C 103.51 78.32 103.51 71.68 103.00 66.00
C 103.00 66.00 102.00 65.96 102.00 66.00
C 101.49 71.68 101.49 78.32 102.00 84.00 Z"/>
</g>
<g fill="#000000" fill-opacity="0.00" stroke="None">
<path d="
M 103.00 84.00 
C 111.56 84.26 119.37 83.66 128.00 84.00 C 136.63 84.34 142.96 83.32 152.00 84.00 C 161.04 84.68 157.47 72.63 158.00 66.00
C 139.67 66.00 121.33 66.00 103.00 66.00
C 103.51 71.68 103.51 78.32 103.00 84.00 Z"/>
</g>
<g fill="#EAC3D4" fill-opacity="0.09" stroke="None">
<path d="
M 5.00 75.00 
C 6.63 73.10 7.57 70.60 8.00 68.00
C 6.37 69.90 5.43 72.40 5.00 75.00 Z"/>
</g>
<g fill="#E4B7C8" fill-opacity="0.08" stroke="None">
<path d="
M 218.00 75.00 
C 217.45 73.28 217.28 72.24 216.00 71.00
C 216.12 72.97 217.37 73.57 218.00 75.00 Z"/>
</g>
<g fill="#DCA9BA" fill-opacity="0.12" stroke="None">
<path d="
M 2.00 85.00 
C 2.00 85.00 2.72 85.25 3.00 85.00
C 3.32 82.67 3.60 80.72 5.00 79.00
C 5.00 79.00 5.00 78.50 5.00 78.00
C 5.00 77.50 5.00 76.50 5.00 76.00
C 3.06 78.39 2.71 81.92 2.00 85.00 Z"/>
</g>
<g fill="#671534" fill-opacity="0.69" stroke="None">
<path d="
M 3.00 85.00 
C 4.47 83.70 4.92 81.05 5.00 79.00
C 3.60 80.72 3.32 82.67 3.00 85.00 Z"/>
</g>
<g fill="#C98AA8" fill-opacity="0.17" stroke="None">
<path d="
M 0.00 97.00 
C 0.50 97.00 1.00 97.00 1.00 97.00
C 1.00 97.00 1.00 96.50 1.00 96.00
C 1.00 94.61 1.45 92.31 1.00 91.00
C 1.00 91.00 0.50 91.00 0.00 91.00
L 0.00 97.00 Z"/>
</g>
<g fill="#6D1035" fill-opacity="0.74" stroke="None">
<path d="
M 1.00 96.00 
C 2.87 93.87 1.06 92.83 1.00 91.00
C 1.45 92.31 1.00 94.61 1.00 96.00 Z"/>
</g>
<g fill="#721338" fill-opacity="0.60" stroke="None">
<path d="
M 222.00 96.00 
L 222.00 91.00
C 220.35 91.68 220.61 95.26 222.00 96.00 Z"/>
</g>
<g fill="#6E1034" fill-opacity="0.74" stroke="None">
<path d="
M 0.00 105.00 
C 1.78 103.30 1.00 99.52 1.00 97.00
C 1.00 97.00 0.50 97.00 0.00 97.00
L 0.00 105.00 Z"/>
</g>
<g fill="#721039" fill-opacity="0.73" stroke="None">
<path d="
M 119.00 123.00 
C 118.96 123.00 119.00 122.00 119.00 122.00
C 113.33 122.00 107.67 122.00 102.00 122.00
C 102.00 115.67 102.00 109.33 102.00 103.00
C 104.67 103.00 107.33 103.00 110.00 103.00
C 121.33 103.00 132.67 103.00 144.00 103.00
C 145.69 102.84 157.09 99.88 158.00 103.00
C 160.57 104.67 159.54 119.91 158.00 122.00
C 157.76 122.32 158.00 123.00 158.00 123.00
C 161.65 122.22 160.55 108.07 159.97 104.03 C 159.39 99.99 147.95 100.58 143.00 101.00 C 138.05 101.42 127.16 100.22 122.00 101.00 C 116.84 101.78 106.64 98.91 102.75 101.75 C 98.86 104.60 100.60 116.82 101.08 120.92 C 101.57 125.01 115.88 123.00 119.00 123.00 Z"/>
</g>
<g fill="#681339" fill-opacity="0.52" stroke="None">
<path d="
M 144.00 103.00 
C 144.50 103.00 145.00 103.00 145.00 103.00
C 147.33 103.00 149.67 103.00 152.00 103.00
C 153.33 103.00 154.67 103.00 156.00 103.00
C 156.50 103.00 157.65 102.77 158.00 103.00
C 157.09 99.88 145.69 102.84 144.00 103.00 Z"/>
</g>
<g fill="#FFD5EE" fill-opacity="0.05" stroke="None">
<path d="
M 119.00 122.00 
C 123.33 122.00 127.67 122.00 132.00 122.00
C 123.10 121.14 112.62 120.56 103.00 121.00
C 103.00 115.33 103.00 109.67 103.00 104.00
C 105.19 103.48 108.62 105.14 110.00 103.00
C 107.33 103.00 104.67 103.00 102.00 103.00
C 102.00 109.33 102.00 115.67 102.00 122.00
C 107.67 122.00 113.33 122.00 119.00 122.00 Z"/>
</g>
<g fill="#000000" fill-opacity="0.00" stroke="None">
<path d="
M 132.00 122.00 
C 134.67 122.00 137.33 122.00 140.00 122.00
C 145.31 121.49 151.98 120.46 158.00 121.00
C 158.00 114.52 158.78 108.02 156.00 103.00
C 154.67 103.00 153.33 103.00 152.00 103.00
C 149.59 103.33 147.55 104.89 145.00 103.00
C 145.00 103.00 144.50 103.00 144.00 103.00
C 132.67 103.00 121.33 103.00 110.00 103.00
C 108.62 105.14 105.19 103.48 103.00 104.00
C 103.00 109.67 103.00 115.33 103.00 121.00
C 112.62 120.56 123.10 121.14 132.00 122.00 Z"/>
</g>
<g fill="#FFFFFF" fill-opacity="0.01" stroke="None">
<path d="
M 152.00 103.00 
C 149.67 103.00 147.33 103.00 145.00 103.00
C 147.55 104.89 149.59 103.33 152.00 103.00 Z"/>
</g>
<g fill="#BA7E98" fill-opacity="0.26" stroke="None">
<path d="
M 158.00 121.00 
C 158.00 121.50 158.00 122.00 158.00 122.00
C 159.54 119.91 160.57 104.67 158.00 103.00
C 157.65 102.77 156.50 103.00 156.00 103.00
C 158.78 108.02 158.00 114.52 158.00 121.00 Z"/>
</g>
<g fill="#86344F" fill-opacity="0.56" stroke="None">
<path d="
M 0.00 133.00 
C 1.18 134.76 1.49 137.70 2.00 140.00
C 1.95 141.42 5.00 134.16 2.78 131.22 C 0.55 128.29 1.75 122.85 0.00 120.00
L 0.00 133.00 Z"/>
</g>
<g fill="#FFDCF4" fill-opacity="0.03" stroke="None">
<path d="
M 140.00 122.00 
C 145.92 122.00 152.11 122.53 158.00 122.00
C 158.00 122.00 158.00 121.50 158.00 121.00
C 151.98 120.46 145.31 121.49 140.00 122.00 Z"/>
</g>
<g fill="#671734" fill-opacity="0.60" stroke="None">
<path d="
M 119.00 123.00 
C 131.82 123.00 145.24 124.15 158.00 123.00
C 158.00 123.00 157.76 122.32 158.00 122.00
C 152.11 122.53 145.92 122.00 140.00 122.00
C 137.33 122.00 134.67 122.00 132.00 122.00
C 127.67 122.00 123.33 122.00 119.00 122.00
C 119.00 122.00 118.96 123.00 119.00 123.00 Z"/>
</g>
<g fill="#6C1033" fill-opacity="0.58" stroke="None">
<path d="
M 222.00 134.00 
L 222.00 128.00
C 220.31 128.96 220.57 132.97 222.00 134.00 Z"/>
</g>
<g fill="#000000" fill-opacity="0.00" stroke="None">
<path d="
M 0.00 224.00 
L 94.00 224.00
C 94.00 223.50 94.00 223.00 94.00 223.00
C 91.78 223.01 89.58 223.35 88.00 222.00
C 87.71 221.75 87.00 222.00 87.00 222.00
C 81.56 221.87 72.06 219.30 68.00 216.00
C 67.70 215.76 67.00 216.00 67.00 216.00
C 64.45 214.40 61.65 213.42 59.00 212.00
C 54.88 209.80 50.85 207.64 47.00 205.00
C 44.77 203.47 42.91 201.57 41.00 200.00
C 40.09 199.25 38.89 198.68 38.00 198.00
C 33.55 194.64 29.56 190.17 26.00 186.00
C 21.14 180.32 16.88 174.67 14.00 168.00
C 12.95 166.08 11.06 164.28 10.00 162.00
C 8.96 159.78 8.45 158.42 8.00 156.00
C 7.94 155.76 7.03 155.35 7.00 155.00
C 6.95 154.50 7.00 154.00 7.00 154.00
C 6.88 153.74 6.03 153.35 6.00 153.00
C 5.95 152.50 6.00 152.00 6.00 152.00
C 5.02 150.64 4.26 148.89 4.00 147.00
C 3.93 146.51 4.00 146.00 4.00 146.00
C 3.07 144.30 2.47 142.13 2.00 140.00
C 1.49 137.70 1.18 134.76 0.00 133.00
L 0.00 224.00 Z"/>
</g>
<g fill="#000000" fill-opacity="0.00" stroke="None">
<path d="
M 217.00 151.00 
C 216.13 153.45 214.95 155.81 214.00 158.00
C 213.48 159.20 213.44 160.80 213.00 162.00
C 212.09 164.46 210.09 166.07 209.00 168.00
C 208.76 169.28 208.54 169.84 208.00 171.00
C 207.17 172.78 205.98 173.63 205.00 175.00
C 204.21 176.84 203.30 178.35 202.00 180.00
C 200.47 181.94 199.00 183.60 197.00 185.00
C 196.80 185.40 197.00 186.00 197.00 186.00
C 195.04 190.01 189.44 194.40 186.00 197.00
C 185.11 197.67 183.88 198.23 183.00 199.00
C 181.24 200.55 179.95 201.66 178.00 203.00
C 176.12 204.29 174.12 205.69 172.00 207.00
C 169.05 208.83 166.17 210.43 163.00 212.00
C 152.69 217.10 141.32 221.92 130.00 224.00
L 222.00 224.00
L 222.00 137.00
C 220.66 141.33 218.54 146.68 217.00 151.00 Z"/>
</g>
<g fill="#701235" fill-opacity="0.73" stroke="None">
<path d="
M 101.00 159.00 
C 101.00 159.04 102.00 159.00 102.00 159.00
C 102.54 153.05 101.46 146.95 102.00 141.00
C 105.36 137.51 113.76 140.73 119.00 140.00 C 124.24 139.27 132.27 140.08 138.00 140.00 C 143.73 139.92 151.17 139.47 157.00 140.00
C 160.07 140.66 160.42 158.29 158.00 160.00
C 160.62 158.11 163.58 139.64 157.00 139.00 C 150.42 138.36 139.56 139.32 132.00 139.00 C 124.44 138.68 113.83 139.24 106.00 139.00 C 98.18 138.77 100.46 153.07 101.00 159.00 Z"/>
</g>
<g fill="#C2829B" fill-opacity="0.10" stroke="None">
<path d="
M 102.00 141.00 
C 102.00 140.96 103.00 141.00 103.00 141.00
C 120.75 141.00 139.33 142.60 157.00 141.00
C 156.76 140.68 157.00 140.00 157.00 140.00
C 151.17 139.47 143.73 139.92 138.00 140.00 C 132.27 140.08 124.24 139.27 119.00 140.00 C 113.76 140.73 105.36 137.51 102.00 141.00 Z"/>
</g>
<g fill="#BA7894" fill-opacity="0.22" stroke="None">
<path d="
M 157.00 141.00 
C 159.75 144.72 160.44 159.82 153.00 159.00 C 145.55 158.17 136.71 159.31 129.00 159.00 C 121.29 158.69 112.78 159.00 105.00 159.00
C 104.00 159.00 103.00 159.00 102.00 159.00
C 105.85 161.85 114.89 159.85 120.00 160.00 C 125.11 160.15 134.05 160.97 139.00 160.00 C 143.95 159.03 154.13 162.74 158.00 160.00
C 160.42 158.29 160.07 140.66 157.00 140.00
C 157.00 140.00 156.76 140.68 157.00 141.00 Z"/>
</g>
<g fill="#FFD0E9" fill-opacity="0.05" stroke="None">
<path d="
M 102.00 159.00 
C 103.00 159.00 104.00 159.00 105.00 159.00
C 100.77 156.89 103.39 145.31 103.00 141.00
C 103.00 141.00 102.00 140.96 102.00 141.00
C 101.46 146.95 102.54 153.05 102.00 159.00 Z"/>
</g>
<g fill="#000000" fill-opacity="0.00" stroke="None">
<path d="
M 105.00 159.00 
C 112.78 159.00 121.29 158.69 129.00 159.00 C 136.71 159.31 145.55 158.17 153.00 159.00 C 160.44 159.82 159.75 144.72 157.00 141.00
C 139.33 142.60 120.75 141.00 103.00 141.00
C 103.39 145.31 100.77 156.89 105.00 159.00 Z"/>
</g>
<g fill="#802D4A" fill-opacity="0.51" stroke="None">
<path d="
M 4.00 146.00 
C 4.00 146.00 3.93 146.51 4.00 147.00
C 5.50 148.22 6.06 149.96 6.00 152.00
C 6.00 152.00 5.95 152.50 6.00 153.00
C 6.12 153.26 6.97 153.65 7.00 154.00
C 7.00 154.00 6.95 154.50 7.00 155.00
C 7.12 155.26 7.93 155.65 8.00 156.00
C 8.45 158.42 8.96 159.78 10.00 162.00
C 11.16 163.98 12.97 165.60 14.00 168.00
C 16.88 174.67 21.14 180.32 26.00 186.00
C 29.85 189.85 34.05 194.38 38.00 198.00
C 38.89 198.68 40.09 199.25 41.00 200.00
C 43.33 201.45 44.89 203.16 47.00 205.00
C 50.85 207.64 54.88 209.80 59.00 212.00
C 53.58 207.04 46.46 202.52 40.00 198.00
C 34.75 194.33 28.23 187.12 26.00 183.00
C 17.18 170.78 8.31 157.77 5.00 143.00
C 3.58 143.27 4.03 145.00 4.00 146.00 Z"/>
</g>
<g fill="#E2A1C9" fill-opacity="0.08" stroke="None">
<path d="
M 6.00 152.00 
C 6.06 149.96 5.50 148.22 4.00 147.00
C 4.26 148.89 5.02 150.64 6.00 152.00 Z"/>
</g>
<g fill="#873B56" fill-opacity="0.47" stroke="None">
<path d="
M 214.00 158.00 
C 214.95 155.81 216.13 153.45 217.00 151.00
C 216.01 152.30 214.50 154.43 214.00 158.00 Z"/>
</g>
<g fill="#FFFFFF" fill-opacity="0.00" stroke="None">
<path d="
M 7.00 154.00 
C 6.97 153.65 6.12 153.26 6.00 153.00
C 6.03 153.35 6.88 153.74 7.00 154.00 Z"/>
</g>
<g fill="#D699B8" fill-opacity="0.10" stroke="None">
<path d="
M 8.00 156.00 
C 7.93 155.65 7.12 155.26 7.00 155.00
C 7.03 155.35 7.94 155.76 8.00 156.00 Z"/>
</g>
<g fill="#720F36" fill-opacity="0.83" stroke="None">
<path d="
M 158.00 160.00 
C 154.13 162.74 143.95 159.03 139.00 160.00 C 134.05 160.97 125.11 160.15 120.00 160.00 C 114.89 159.85 105.85 161.85 102.00 159.00
C 102.00 159.00 101.00 159.04 101.00 159.00
C 101.92 163.31 114.60 160.63 119.00 161.00 C 123.40 161.37 133.96 161.40 139.00 161.00 C 144.04 160.60 153.99 162.89 158.00 160.00 Z"/>
</g>
<g fill="#681133" fill-opacity="0.63" stroke="None">
<path d="
M 209.00 168.00 
C 210.13 166.03 210.88 163.96 212.00 162.00
C 209.93 160.78 209.17 167.09 209.00 168.00 Z"/>
</g>
<g fill="#CC90AC" fill-opacity="0.08" stroke="None">
<path d="
M 14.00 168.00 
C 12.97 165.60 11.16 163.98 10.00 162.00
C 11.06 164.28 12.95 166.08 14.00 168.00 Z"/>
</g>
<g fill="#C893A5" fill-opacity="0.09" stroke="None">
<path d="
M 209.00 168.00 
C 210.09 166.07 212.09 164.46 213.00 162.00
C 213.00 162.00 212.37 162.22 212.00 162.00
C 210.88 163.96 210.13 166.03 209.00 168.00 Z"/>
</g>
<g fill="#E1ABCB" fill-opacity="0.07" stroke="None">
<path d="
M 206.00 172.00 
C 205.75 172.30 205.24 174.44 205.00 175.00
C 205.98 173.63 207.17 172.78 208.00 171.00
C 207.71 171.30 206.43 171.74 206.00 172.00 Z"/>
</g>
<g fill="#77213F" fill-opacity="0.64" stroke="None">
<path d="
M 186.00 196.00 
C 190.05 193.17 193.00 188.79 197.00 186.00
C 197.00 186.00 196.80 185.40 197.00 185.00
C 198.11 182.73 200.46 181.67 202.00 180.00
C 203.30 178.35 204.21 176.84 205.00 175.00
C 205.24 174.44 205.75 172.30 206.00 172.00
C 202.52 174.13 197.86 181.74 195.75 184.75 C 193.64 187.76 184.50 193.64 186.00 196.00 Z"/>
</g>
<g fill="#C4839D" fill-opacity="0.13" stroke="None">
<path d="
M 197.00 185.00 
C 199.00 183.60 200.47 181.94 202.00 180.00
C 200.46 181.67 198.11 182.73 197.00 185.00 Z"/>
</g>
<g fill="#761137" fill-opacity="0.80" stroke="None">
<path d="
M 40.00 198.00 
C 35.31 194.15 29.68 187.95 26.00 183.00
C 28.23 187.12 34.75 194.33 40.00 198.00 Z"/>
</g>
<g fill="#D9A1B7" fill-opacity="0.07" stroke="None">
<path d="
M 38.00 198.00 
C 34.05 194.38 29.85 189.85 26.00 186.00
C 29.56 190.17 33.55 194.64 38.00 198.00 Z"/>
</g>
<g fill="#D49EB3" fill-opacity="0.07" stroke="None">
<path d="
M 186.00 196.00 
C 186.00 196.00 186.25 196.73 186.00 197.00
C 189.44 194.40 195.04 190.01 197.00 186.00
C 193.00 188.79 190.05 193.17 186.00 196.00 Z"/>
</g>
<g fill="#7F2F4A" fill-opacity="0.48" stroke="None">
<path d="
M 178.00 203.00 
C 179.95 201.66 181.24 200.55 183.00 199.00
C 183.09 198.96 172.05 204.42 178.00 203.00 Z"/>
</g>
<g fill="#AF6985" fill-opacity="0.16" stroke="None">
<path d="
M 47.00 205.00 
C 44.89 203.16 43.33 201.45 41.00 200.00
C 42.91 201.57 44.77 203.47 47.00 205.00 Z"/>
</g>
<g fill="#7F2F4F" fill-opacity="0.31" stroke="None">
<path d="
M 163.00 212.00 
C 166.17 210.43 169.05 208.83 172.00 207.00
C 169.79 208.03 164.40 210.71 163.00 212.00 Z"/>
</g>
<g fill="#750F38" fill-opacity="0.56" stroke="None">
<path d="
M 67.00 216.00 
C 67.00 216.00 67.70 215.76 68.00 216.00
C 72.24 214.83 64.95 212.39 67.00 216.00 Z"/>
</g>
<g fill="#7E0533" fill-opacity="0.68" stroke="None">
<path d="
M 87.00 222.00 
C 87.00 222.00 87.71 221.75 88.00 222.00
C 91.24 220.42 88.27 219.20 87.00 222.00 Z"/>
</g>
<g fill="#78233E" fill-opacity="0.20" stroke="None">
<path d="
M 94.00 223.00 
C 94.00 223.00 94.00 223.50 94.00 224.00
L 102.00 224.00
C 102.00 223.50 102.00 223.00 102.00 223.00
C 100.13 222.96 94.78 222.16 94.00 223.00 Z"/>
</g>
<g fill="#7B1338" fill-opacity="0.54" stroke="None">
<path d="
M 102.00 223.00 
C 102.00 223.00 102.00 223.50 102.00 224.00
L 129.00 224.00
C 129.28 219.65 121.98 222.73 118.00 223.00 C 114.02 223.27 106.31 223.09 102.00 223.00 Z"/>
</g>
</svg>