<svg xmlns="http://www.w3.org/2000/svg" xmlns:v="https://svgstorm.com"
viewBox = "0 0 1600 1600"
width="1600"
height="1600">
<g fill="None" fill-opacity="0.0" stroke="#000000" stroke-opacity="0.00" stroke-width="0.3"><path d="
M 0.00 1600.00 
L 1600.00 1600.00
L 1600.00 0.00
L 0.00 0.00
L 0.00 1600.00
M 997.00 139.00 
C 1001.04 139.08 1005.69 139.68 1009.00 140.00
C 1011.29 139.79 1013.70 140.00 1016.00 140.00
C 1024.67 140.00 1033.33 140.00 1042.00 140.00
C 1043.97 140.00 1046.04 140.19 1048.00 140.00
C 1052.39 139.58 1057.93 139.00 1063.00 139.00
C 1093.10 139.00 1131.22 139.40 1154.08 157.92 C 1176.94 176.45 1190.18 194.71 1204.30 218.70 C 1218.43 242.68 1230.77 262.59 1251.75 281.25 C 1272.73 299.91 1292.41 314.83 1317.23 326.77 C 1342.04 338.71 1366.53 347.60 1388.25 365.75 C 1409.97 383.91 1422.18 410.04 1425.98 439.02 C 1429.77 468.01 1430.98 508.11 1439.00 536.00 C 1447.02 563.89 1456.20 590.08 1473.00 613.00
C 1473.75 614.03 1474.33 614.97 1475.00 616.00
C 1488.67 636.95 1502.59 649.80 1516.25 672.75 C 1529.91 695.70 1535.03 724.41 1531.00 752.00
C 1531.79 779.24 1520.23 805.47 1508.23 830.23 C 1496.23 854.99 1490.80 883.55 1485.00 910.00
C 1485.00 911.00 1485.00 912.00 1485.00 913.00
C 1485.00 915.67 1485.00 918.33 1485.00 921.00
C 1485.00 925.92 1484.53 931.11 1485.00 936.00
C 1489.78 947.14 1485.71 962.24 1489.78 974.22 C 1493.85 986.20 1494.39 999.12 1496.00 1012.00 C 1497.61 1024.88 1497.33 1040.23 1495.00 1053.00
C 1494.34 1097.16 1463.95 1132.80 1427.75 1157.75 C 1391.56 1182.71 1367.60 1213.93 1349.08 1253.08 C 1330.55 1292.22 1326.70 1338.93 1294.75 1372.75 C 1262.80 1406.58 1211.05 1410.28 1168.78 1420.78 C 1126.50 1431.28 1091.35 1454.66 1059.75 1485.75 C 1028.16 1516.85 995.31 1551.45 947.00 1547.00 C 898.69 1542.55 850.43 1519.16 800.00 1519.00 C 749.57 1518.84 702.17 1542.40 654.00 1547.00 C 605.83 1551.60 572.26 1517.46 540.75 1486.25 C 509.24 1455.04 474.17 1431.69 431.98 1421.02 C 389.78 1410.36 338.02 1406.63 305.75 1373.25 C 273.48 1339.87 269.43 1292.92 251.22 1253.78 C 233.01 1214.63 208.66 1183.20 172.75 1158.25 C 136.85 1133.29 104.61 1097.26 105.00 1053.00
C 97.29 1010.79 114.16 970.86 115.00 929.00
C 115.13 922.67 115.00 916.33 115.00 910.00
C 115.00 907.67 115.08 905.33 115.00 903.00
C 110.04 877.98 101.32 852.26 90.69 828.31 C 80.06 804.35 68.24 778.21 69.00 752.00
C 65.06 725.03 69.33 695.13 83.77 672.77 C 98.21 650.41 109.75 635.57 124.92 614.92 C 140.09 594.27 149.53 573.83 157.00 549.00 C 164.46 524.16 169.09 490.31 171.00 464.00 C 172.91 437.69 179.59 408.42 192.92 386.92 C 206.25 365.42 224.67 353.13 246.68 342.68 C 268.69 332.23 292.52 323.14 312.25 309.25 C 331.97 295.35 349.44 282.43 365.25 263.25 C 381.07 244.08 391.70 226.45 404.30 204.30 C 416.91 182.15 431.01 169.03 453.25 154.25 C 475.48 139.46 509.24 139.00 537.00 139.00
C 542.06 139.00 547.68 139.58 552.00 140.00
C 553.96 139.81 556.03 140.00 558.00 140.00
C 568.33 140.00 578.67 140.00 589.00 140.00
C 589.50 140.00 590.55 139.85 591.00 140.00
C 594.44 138.54 598.89 139.08 603.00 139.00
C 651.26 138.03 691.09 113.43 730.74 87.74 C 770.40 62.06 828.87 61.60 868.69 87.31 C 908.52 113.01 948.46 138.03 997.00 139.00 Z"/>
</g>
<g fill="None" fill-opacity="0.0" stroke="#FEFEFE" stroke-opacity="1.00" stroke-width="0.3"><path d="
M 603.00 139.00 
C 598.92 139.95 596.16 141.78 591.00 140.00
C 590.55 139.85 589.50 140.00 589.00 140.00
C 583.59 146.75 564.50 139.10 556.00 142.00
C 556.08 140.74 558.06 141.44 558.00 140.00
C 556.03 140.00 553.96 139.81 552.00 140.00
C 546.52 140.53 542.10 139.98 537.00 139.00
C 509.24 139.00 475.48 139.46 453.25 154.25 C 431.01 169.03 416.91 182.15 404.30 204.30 C 391.70 226.45 381.07 244.08 365.25 263.25 C 349.44 282.43 331.97 295.35 312.25 309.25 C 292.52 323.14 268.69 332.23 246.68 342.68 C 224.67 353.13 206.25 365.42 192.92 386.92 C 179.59 408.42 172.91 437.69 171.00 464.00 C 169.09 490.31 164.46 524.16 157.00 549.00 C 149.53 573.83 140.09 594.27 124.92 614.92 C 109.75 635.57 98.21 650.41 83.77 672.77 C 69.33 695.13 65.06 725.03 69.00 752.00
C 76.69 804.64 113.13 848.05 115.00 903.00
C 115.08 905.33 115.00 907.67 115.00 910.00
C 116.15 915.82 118.30 923.80 117.00 931.00
C 115.74 930.92 116.44 928.94 115.00 929.00
C 114.16 970.86 97.29 1010.79 105.00 1053.00
C 112.88 1096.17 145.18 1124.08 179.70 1149.30 C 214.22 1174.53 237.44 1208.81 253.92 1247.08 C 270.41 1285.34 275.51 1332.86 309.25 1363.75 C 342.98 1394.64 395.59 1396.07 437.02 1407.98 C 478.46 1419.88 511.65 1443.26 542.75 1474.25 C 573.85 1505.23 608.39 1538.21 656.00 1533.00 C 703.61 1527.79 750.20 1504.38 800.00 1505.00 C 849.80 1505.62 896.08 1526.46 943.67 1532.33 C 991.26 1538.20 1025.69 1505.90 1056.75 1474.75 C 1087.82 1443.61 1120.62 1420.33 1162.22 1408.22 C 1203.83 1396.11 1256.16 1394.82 1290.08 1364.08 C 1324.00 1333.35 1329.53 1286.37 1345.92 1247.92 C 1362.32 1209.47 1385.06 1175.09 1419.75 1149.75 C 1454.44 1124.41 1487.07 1096.40 1495.00 1053.00
C 1497.33 1040.23 1497.61 1024.88 1496.00 1012.00 C 1494.39 999.12 1493.85 986.20 1489.78 974.22 C 1485.71 962.24 1489.78 947.14 1485.00 936.00
C 1484.55 934.94 1484.13 934.54 1484.00 933.00
C 1482.37 926.42 1483.14 918.30 1483.00 911.00
C 1484.26 911.08 1483.56 913.06 1485.00 913.00
C 1485.00 912.00 1485.00 911.00 1485.00 910.00
C 1485.00 851.58 1522.93 807.25 1531.00 752.00
C 1535.03 724.41 1529.91 695.70 1516.25 672.75 C 1502.59 649.80 1488.67 636.95 1475.00 616.00
C 1474.24 615.34 1473.54 614.33 1473.00 613.00
C 1456.20 590.08 1447.02 563.89 1439.00 536.00 C 1430.98 508.11 1429.77 468.01 1425.98 439.02 C 1422.18 410.04 1409.97 383.91 1388.25 365.75 C 1366.53 347.60 1342.04 338.71 1317.23 326.77 C 1292.41 314.83 1272.73 299.91 1251.75 281.25 C 1230.77 262.59 1218.43 242.68 1204.30 218.70 C 1190.18 194.71 1176.94 176.45 1154.08 157.92 C 1131.22 139.40 1093.10 139.00 1063.00 139.00
C 1057.85 139.99 1053.41 140.52 1048.00 140.00
C 1046.04 140.19 1043.97 140.00 1042.00 140.00
C 1042.44 140.14 1043.79 141.40 1044.00 142.00
C 1034.90 140.85 1023.76 144.42 1016.00 140.00
C 1013.70 140.00 1011.29 139.79 1009.00 140.00
C 1003.97 140.46 1001.15 139.97 997.00 139.00
C 948.46 138.03 908.52 113.01 868.69 87.31 C 828.87 61.60 770.40 62.06 730.74 87.74 C 691.09 113.43 651.26 138.03 603.00 139.00
M 837.00 292.00 
C 838.01 299.04 838.31 309.44 838.00 317.00 C 837.69 324.56 838.23 325.11 838.00 331.00 C 837.77 336.89 838.31 339.14 838.00 344.00 C 837.69 348.86 838.55 353.76 838.00 358.00 C 837.45 362.24 839.26 367.74 838.00 371.00 C 836.74 374.26 840.20 382.64 839.00 384.00
C 906.44 408.90 935.20 489.31 901.00 552.00
C 901.06 560.84 910.70 569.12 913.31 577.70 C 915.91 586.27 922.05 594.69 925.77 603.23 C 929.49 611.77 934.19 620.47 937.93 629.07 C 941.66 637.68 947.25 646.31 951.00 655.00
C 956.27 657.18 964.66 649.53 971.02 649.02 C 977.39 648.52 985.69 644.59 993.00 644.00 C 1000.31 643.42 1008.99 641.12 1017.00 641.00 C 1025.01 640.88 1034.18 639.54 1042.22 640.78 C 1050.26 642.02 1059.49 641.16 1067.02 642.98 C 1074.56 644.79 1081.60 645.13 1088.67 647.33 C 1095.74 649.53 1102.58 651.13 1109.22 653.78 C 1115.87 656.43 1122.05 658.57 1128.23 661.77 C 1134.41 664.97 1140.18 667.58 1146.08 670.92 C 1151.98 674.26 1156.68 678.82 1163.00 681.00
C 1167.11 672.93 1173.90 664.13 1178.77 656.77 C 1183.64 649.41 1190.35 639.53 1194.77 632.77 C 1199.19 626.01 1207.47 610.02 1216.25 617.75 C 1225.02 625.49 1211.07 635.87 1207.25 643.25 C 1203.42 650.63 1195.85 659.47 1191.23 667.23 C 1186.61 674.99 1179.37 683.84 1175.00 692.00
C 1227.69 735.36 1257.52 799.27 1260.00 866.00
C 1272.46 866.65 1283.28 868.81 1296.00 869.00 C 1308.72 869.19 1319.34 871.86 1332.67 871.33 C 1346.00 870.80 1346.47 888.72 1333.00 888.00 C 1319.53 887.28 1309.87 885.78 1297.00 885.00 C 1284.13 884.22 1272.81 883.48 1260.00 883.00
C 1256.49 955.92 1215.05 1027.69 1150.00 1064.00
C 1158.51 1081.22 1165.06 1094.95 1172.92 1113.08 C 1180.79 1131.21 1179.00 1158.39 1179.00 1179.00
C 1179.55 1184.70 1180.00 1191.62 1180.00 1198.00
C 1180.00 1210.30 1182.06 1224.38 1171.75 1232.75 C 1161.45 1241.12 1148.98 1236.74 1140.75 1229.25 C 1132.52 1221.76 1124.86 1217.35 1116.92 1210.08 C 1108.98 1202.82 1100.89 1196.97 1092.75 1190.25 C 1084.62 1183.53 1077.73 1176.92 1071.70 1168.30 C 1065.67 1159.69 1060.80 1150.12 1056.69 1140.31 C 1052.59 1130.49 1046.50 1121.54 1042.25 1111.75 C 1037.99 1101.97 1032.95 1091.57 1028.08 1081.92 C 1023.20 1072.28 1019.19 1062.65 1014.08 1052.92 C 1008.96 1043.20 1004.96 1033.93 1000.08 1023.92 C 995.19 1013.92 990.09 1004.74 985.70 994.31 C 981.30 983.87 976.97 972.01 964.98 977.98 C 952.98 983.94 943.97 983.78 931.98 987.98 C 919.98 992.17 908.38 991.90 896.00 995.00 C 883.62 998.10 870.97 999.17 857.99 1000.99 C 845.02 1002.81 831.39 1002.70 817.98 1003.98 C 804.56 1005.25 789.29 1003.16 776.00 1003.00 C 762.71 1002.84 748.80 1001.59 735.98 1000.02 C 723.15 998.46 710.11 996.67 697.78 994.22 C 685.45 991.78 674.43 990.09 662.77 986.23 C 651.11 982.37 640.74 981.91 629.33 976.67 C 617.92 971.44 616.72 988.28 611.08 997.08 C 605.43 1005.87 602.44 1016.89 597.08 1026.08 C 591.71 1035.27 588.10 1045.61 583.08 1055.08 C 578.05 1064.54 573.59 1074.42 569.07 1084.07 C 564.56 1093.73 558.74 1103.88 554.68 1113.68 C 550.61 1123.48 544.56 1132.51 540.23 1142.23 C 535.90 1151.95 531.52 1161.59 525.23 1170.23 C 518.94 1178.87 511.49 1184.80 503.30 1191.30 C 495.11 1197.81 488.03 1205.06 479.75 1211.75 C 471.48 1218.45 464.07 1223.26 455.77 1230.77 C 447.47 1238.28 433.96 1240.39 424.75 1231.25 C 415.55 1222.11 418.00 1206.68 418.00 1194.00
C 418.00 1187.29 418.42 1179.95 419.00 1174.00
C 419.00 1157.92 418.18 1136.70 421.99 1121.99 C 425.81 1107.28 432.39 1096.81 438.77 1083.77 C 445.15 1070.74 450.27 1058.57 456.92 1045.92 C 463.58 1033.28 468.15 1021.52 474.92 1008.92 C 481.69 996.32 486.14 984.05 493.31 971.31 C 500.47 958.56 502.68 947.35 511.31 934.31 C 519.93 921.26 502.67 915.54 491.92 908.08 C 481.17 900.63 470.26 892.27 459.92 884.08 C 449.58 875.89 440.25 867.69 430.25 858.75 C 420.26 849.80 412.12 839.99 402.75 830.25 C 393.39 820.51 386.25 811.45 377.08 800.92 C 367.91 790.39 363.65 780.65 353.75 769.25 C 343.85 757.85 348.57 740.11 362.25 733.25 C 375.93 726.38 381.31 718.05 393.75 709.75 C 406.19 701.46 413.67 695.98 426.25 686.25 C 438.82 676.51 453.79 686.64 459.92 699.08 C 466.05 711.53 476.02 719.34 483.75 730.25 C 491.49 741.16 501.54 749.46 510.75 759.25 C 519.97 769.04 529.66 776.95 540.08 784.92 C 550.50 792.89 561.19 802.89 573.00 808.00
C 613.69 722.57 655.82 637.32 697.00 552.00
C 661.19 490.41 692.06 407.50 759.00 384.00
C 763.85 378.65 758.49 366.25 760.00 359.00 C 761.51 351.75 759.34 340.91 760.00 333.00 C 760.66 325.09 759.68 313.90 760.00 306.00 C 760.32 298.10 759.21 288.99 762.33 282.33 C 765.45 275.66 768.39 271.71 773.75 266.75 C 779.11 261.80 785.09 260.77 792.00 259.00 C 798.92 257.24 808.46 258.05 814.69 261.31 C 820.93 264.57 824.51 267.42 829.25 272.75 C 833.99 278.08 836.73 284.84 837.00 292.00 Z"/>
</g>
<g fill="None" fill-opacity="0.0" stroke="#FFFFFF" stroke-opacity="0.32" stroke-width="0.3"><path d="
M 552.00 140.00 
C 547.68 139.58 542.06 139.00 537.00 139.00
C 542.10 139.98 546.52 140.53 552.00 140.00 Z"/>
</g>
<g fill="None" fill-opacity="0.0" stroke="#FFFFFF" stroke-opacity="0.32" stroke-width="0.3"><path d="
M 591.00 140.00 
C 596.16 141.78 598.92 139.95 603.00 139.00
C 598.89 139.08 594.44 138.54 591.00 140.00 Z"/>
</g>
<g fill="None" fill-opacity="0.0" stroke="#FFFFFF" stroke-opacity="0.32" stroke-width="0.3"><path d="
M 1009.00 140.00 
C 1005.69 139.68 1001.04 139.08 997.00 139.00
C 1001.15 139.97 1003.97 140.46 1009.00 140.00 Z"/>
</g>
<g fill="None" fill-opacity="0.0" stroke="#FFFFFF" stroke-opacity="0.32" stroke-width="0.3"><path d="
M 1048.00 140.00 
C 1053.41 140.52 1057.85 139.99 1063.00 139.00
C 1057.93 139.00 1052.39 139.58 1048.00 140.00 Z"/>
</g>
<g fill="None" fill-opacity="0.0" stroke="#FFFFFF" stroke-opacity="0.55" stroke-width="0.3"><path d="
M 589.00 140.00 
C 578.67 140.00 568.33 140.00 558.00 140.00
C 558.06 141.44 556.08 140.74 556.00 142.00
C 564.50 139.10 583.59 146.75 589.00 140.00 Z"/>
</g>
<g fill="None" fill-opacity="0.0" stroke="#FFFFFF" stroke-opacity="0.53" stroke-width="0.3"><path d="
M 1042.00 140.00 
C 1033.33 140.00 1024.67 140.00 1016.00 140.00
C 1023.76 144.42 1034.90 140.85 1044.00 142.00
C 1043.79 141.40 1042.44 140.14 1042.00 140.00 Z"/>
</g>
<g fill="None" fill-opacity="0.0" stroke="#4086F3" stroke-opacity="1.00" stroke-width="0.3"><path d="
M 759.00 384.00 
C 781.80 376.00 814.15 371.79 837.00 383.00
C 834.16 376.81 838.23 367.98 837.00 361.00 C 835.77 354.02 837.58 345.35 837.00 338.00 C 836.42 330.65 837.33 322.50 837.00 315.00 C 836.67 307.50 837.29 299.54 837.00 292.00
C 836.73 284.84 833.99 278.08 829.25 272.75 C 824.51 267.42 820.93 264.57 814.69 261.31 C 808.46 258.05 798.92 257.24 792.00 259.00 C 785.09 260.77 779.11 261.80 773.75 266.75 C 768.39 271.71 765.45 275.66 762.33 282.33 C 759.21 288.99 760.32 298.10 760.00 306.00 C 759.68 313.90 760.66 325.09 760.00 333.00 C 759.34 340.91 761.51 351.75 760.00 359.00 C 758.49 366.25 763.85 378.65 759.00 384.00 Z"/>
</g>
<g fill="None" fill-opacity="0.0" stroke="#72A5F5" stroke-opacity="1.00" stroke-width="0.3"><path d="
M 837.00 383.00 
C 837.74 383.36 838.23 383.72 839.00 384.00
C 840.20 382.64 836.74 374.26 838.00 371.00 C 839.26 367.74 837.45 362.24 838.00 358.00 C 838.55 353.76 837.69 348.86 838.00 344.00 C 838.31 339.14 837.77 336.89 838.00 331.00 C 838.23 325.11 837.69 324.56 838.00 317.00 C 838.31 309.44 838.01 299.04 837.00 292.00
C 837.29 299.54 836.67 307.50 837.00 315.00 C 837.33 322.50 836.42 330.65 837.00 338.00 C 837.58 345.35 835.77 354.02 837.00 361.00 C 838.23 367.98 834.16 376.81 837.00 383.00 Z"/>
</g>
<g fill="None" fill-opacity="0.0" stroke="#012C40" stroke-opacity="1.00" stroke-width="0.3"><path d="
M 759.00 384.00 
C 692.06 407.50 661.19 490.41 697.00 552.00
C 717.69 587.59 756.92 611.00 798.00 611.00
C 798.50 611.00 799.50 610.97 800.00 611.00
C 838.98 613.73 882.65 585.64 901.00 552.00
C 935.20 489.31 906.44 408.90 839.00 384.00
C 838.23 383.72 837.74 383.36 837.00 383.00
C 814.15 371.79 781.80 376.00 759.00 384.00
M 805.00 429.00 
C 853.03 433.65 879.79 492.22 851.23 531.23 C 822.67 570.24 763.35 565.74 741.23 522.77 C 719.10 479.80 754.69 424.13 805.00 429.00 Z"/>
</g>
<g fill="None" fill-opacity="0.0" stroke="#FDFDFD" stroke-opacity="1.00" stroke-width="0.3"><path d="
M 805.00 429.00 
C 754.69 424.13 719.10 479.80 741.23 522.77 C 763.35 565.74 822.67 570.24 851.23 531.23 C 879.79 492.22 853.03 433.65 805.00 429.00 Z"/>
</g>
<g fill="None" fill-opacity="0.0" stroke="#4086F3" stroke-opacity="1.00" stroke-width="0.3"><path d="
M 419.00 1174.00 
C 419.00 1180.70 418.58 1188.05 418.00 1194.00
C 418.00 1206.68 415.55 1222.11 424.75 1231.25 C 433.96 1240.39 447.47 1238.28 455.77 1230.77 C 464.07 1223.26 471.48 1218.45 479.75 1211.75 C 488.03 1205.06 495.11 1197.81 503.30 1191.30 C 511.49 1184.80 518.94 1178.87 525.23 1170.23 C 531.52 1161.59 535.90 1151.95 540.23 1142.23 C 544.56 1132.51 550.61 1123.48 554.68 1113.68 C 558.74 1103.88 564.56 1093.73 569.07 1084.07 C 573.59 1074.42 578.05 1064.54 583.08 1055.08 C 588.10 1045.61 591.71 1035.27 597.08 1026.08 C 602.44 1016.89 605.43 1005.87 611.08 997.08 C 616.72 988.28 617.92 971.44 629.33 976.67 C 640.74 981.91 651.11 982.37 662.77 986.23 C 674.43 990.09 685.45 991.78 697.78 994.22 C 710.11 996.67 723.15 998.46 735.98 1000.02 C 748.80 1001.59 762.71 1002.84 776.00 1003.00 C 789.29 1003.16 804.56 1005.25 817.98 1003.98 C 831.39 1002.70 845.02 1002.81 857.99 1000.99 C 870.97 999.17 883.62 998.10 896.00 995.00 C 908.38 991.90 919.98 992.17 931.98 987.98 C 943.97 983.78 952.98 983.94 964.98 977.98 C 976.97 972.01 981.30 983.87 985.70 994.31 C 990.09 1004.74 995.19 1013.92 1000.08 1023.92 C 1004.96 1033.93 1008.96 1043.20 1014.08 1052.92 C 1019.19 1062.65 1023.20 1072.28 1028.08 1081.92 C 1032.95 1091.57 1037.99 1101.97 1042.25 1111.75 C 1046.50 1121.54 1052.59 1130.49 1056.69 1140.31 C 1060.80 1150.12 1065.67 1159.69 1071.70 1168.30 C 1077.73 1176.92 1084.62 1183.53 1092.75 1190.25 C 1100.89 1196.97 1108.98 1202.82 1116.92 1210.08 C 1124.86 1217.35 1132.52 1221.76 1140.75 1229.25 C 1148.98 1236.74 1161.45 1241.12 1171.75 1232.75 C 1182.06 1224.38 1180.00 1210.30 1180.00 1198.00
C 1179.45 1192.30 1179.00 1185.38 1179.00 1179.00
C 1179.00 1158.39 1180.79 1131.21 1172.92 1113.08 C 1165.06 1094.95 1158.51 1081.22 1150.00 1064.00
C 1116.54 996.32 1082.20 928.34 1050.23 859.77 C 1018.26 791.20 980.95 724.38 951.00 655.00
C 947.25 646.31 941.66 637.68 937.93 629.07 C 934.19 620.47 929.49 611.77 925.77 603.23 C 922.05 594.69 915.91 586.27 913.31 577.70 C 910.70 569.12 901.06 560.84 901.00 552.00
C 882.65 585.64 838.98 613.73 800.00 611.00
C 807.23 620.98 810.04 635.73 816.32 646.68 C 822.61 657.62 828.19 669.63 833.77 681.23 C 839.35 692.83 845.29 705.37 850.92 717.08 C 856.56 728.78 862.38 740.27 867.92 752.08 C 873.47 763.88 879.64 776.00 885.26 787.74 C 890.88 799.49 896.62 811.13 901.98 823.03 C 907.33 834.92 915.08 846.51 919.00 859.00
C 885.91 869.02 851.62 875.40 816.00 876.00
C 806.25 876.94 794.68 876.94 785.00 876.00
C 748.36 876.00 713.29 868.19 679.00 859.00
C 716.91 775.84 759.56 694.08 798.00 611.00
C 756.92 611.00 717.69 587.59 697.00 552.00
C 655.82 637.32 613.69 722.57 573.00 808.00
C 561.19 802.89 550.50 792.89 540.08 784.92 C 529.66 776.95 519.97 769.04 510.75 759.25 C 501.54 749.46 491.49 741.16 483.75 730.25 C 476.02 719.34 466.05 711.53 459.92 699.08 C 453.79 686.64 438.82 676.51 426.25 686.25 C 413.67 695.98 406.19 701.46 393.75 709.75 C 381.31 718.05 375.93 726.38 362.25 733.25 C 348.57 740.11 343.85 757.85 353.75 769.25 C 363.65 780.65 367.91 790.39 377.08 800.92 C 386.25 811.45 393.39 820.51 402.75 830.25 C 412.12 839.99 420.26 849.80 430.25 858.75 C 440.25 867.69 449.58 875.89 459.92 884.08 C 470.26 892.27 481.17 900.63 491.92 908.08 C 502.67 915.54 519.93 921.26 511.31 934.31 C 502.68 947.35 500.47 958.56 493.31 971.31 C 486.14 984.05 481.69 996.32 474.92 1008.92 C 468.15 1021.52 463.58 1033.28 456.92 1045.92 C 450.27 1058.57 445.15 1070.74 438.77 1083.77 C 432.39 1096.81 425.81 1107.28 421.99 1121.99 C 418.18 1136.70 419.00 1157.92 419.00 1174.00 Z"/>
</g>
<g fill="None" fill-opacity="0.0" stroke="#FEFEFE" stroke-opacity="1.00" stroke-width="0.3"><path d="
M 785.00 876.00 
C 795.33 876.00 805.67 876.00 816.00 876.00
C 851.62 875.40 885.91 869.02 919.00 859.00
C 915.08 846.51 907.33 834.92 901.98 823.03 C 896.62 811.13 890.88 799.49 885.26 787.74 C 879.64 776.00 873.47 763.88 867.92 752.08 C 862.38 740.27 856.56 728.78 850.92 717.08 C 845.29 705.37 839.35 692.83 833.77 681.23 C 828.19 669.63 822.61 657.62 816.32 646.68 C 810.04 635.73 807.23 620.98 800.00 611.00
C 799.50 610.97 798.50 611.00 798.00 611.00
C 759.56 694.08 716.91 775.84 679.00 859.00
C 713.29 868.19 748.36 876.00 785.00 876.00 Z"/>
</g>
<g fill="None" fill-opacity="0.0" stroke="#FFFFFF" stroke-opacity="0.43" stroke-width="0.3"><path d="
M 1475.00 616.00 
C 1474.33 614.97 1473.75 614.03 1473.00 613.00
C 1473.54 614.33 1474.24 615.34 1475.00 616.00 Z"/>
</g>
<g fill="None" fill-opacity="0.0" stroke="#3BDD85" stroke-opacity="1.00" stroke-width="0.3"><path d="
M 951.00 655.00 
C 980.95 724.38 1018.26 791.20 1050.23 859.77 C 1082.20 928.34 1116.54 996.32 1150.00 1064.00
C 1215.05 1027.69 1256.49 955.92 1260.00 883.00
C 1272.81 883.48 1284.13 884.22 1297.00 885.00 C 1309.87 885.78 1319.53 887.28 1333.00 888.00 C 1346.47 888.72 1346.00 870.80 1332.67 871.33 C 1319.34 871.86 1308.72 869.19 1296.00 869.00 C 1283.28 868.81 1272.46 866.65 1260.00 866.00
C 1257.52 799.27 1227.69 735.36 1175.00 692.00
C 1179.37 683.84 1186.61 674.99 1191.23 667.23 C 1195.85 659.47 1203.42 650.63 1207.25 643.25 C 1211.07 635.87 1225.02 625.49 1216.25 617.75 C 1207.47 610.02 1199.19 626.01 1194.77 632.77 C 1190.35 639.53 1183.64 649.41 1178.77 656.77 C 1173.90 664.13 1167.11 672.93 1163.00 681.00
C 1156.68 678.82 1151.98 674.26 1146.08 670.92 C 1140.18 667.58 1134.41 664.97 1128.23 661.77 C 1122.05 658.57 1115.87 656.43 1109.22 653.78 C 1102.58 651.13 1095.74 649.53 1088.67 647.33 C 1081.60 645.13 1074.56 644.79 1067.02 642.98 C 1059.49 641.16 1050.26 642.02 1042.22 640.78 C 1034.18 639.54 1025.01 640.88 1017.00 641.00 C 1008.99 641.12 1000.31 643.42 993.00 644.00 C 985.69 644.59 977.39 648.52 971.02 649.02 C 964.66 649.53 956.27 657.18 951.00 655.00
M 1084.00 711.00 
C 1107.51 715.87 1098.40 754.12 1075.00 748.00 C 1051.60 741.88 1060.50 706.13 1084.00 711.00
M 1175.00 899.00 
C 1197.59 903.68 1192.03 940.23 1168.33 936.67 C 1144.63 933.11 1150.46 893.92 1175.00 899.00 Z"/>
</g>
<g fill="None" fill-opacity="0.0" stroke="#FDFEFE" stroke-opacity="1.00" stroke-width="0.3"><path d="
M 1084.00 711.00 
C 1060.50 706.13 1051.60 741.88 1075.00 748.00 C 1098.40 754.12 1107.51 715.87 1084.00 711.00 Z"/>
</g>
<g fill="None" fill-opacity="0.0" stroke="#000000" stroke-opacity="0.20" stroke-width="0.3"><path d="
M 115.00 903.00 
C 113.13 848.05 76.69 804.64 69.00 752.00
C 68.24 778.21 80.06 804.35 90.69 828.31 C 101.32 852.26 110.04 877.98 115.00 903.00 Z"/>
</g>
<g fill="None" fill-opacity="0.0" stroke="#000000" stroke-opacity="0.20" stroke-width="0.3"><path d="
M 1485.00 910.00 
C 1490.80 883.55 1496.23 854.99 1508.23 830.23 C 1520.23 805.47 1531.79 779.24 1531.00 752.00
C 1522.93 807.25 1485.00 851.58 1485.00 910.00 Z"/>
</g>
<g fill="None" fill-opacity="0.0" stroke="#AFCCFA" stroke-opacity="1.00" stroke-width="0.3"><path d="
M 816.00 876.00 
C 805.67 876.00 795.33 876.00 785.00 876.00
C 794.68 876.94 806.25 876.94 816.00 876.00 Z"/>
</g>
<g fill="None" fill-opacity="0.0" stroke="#FDFEFE" stroke-opacity="1.00" stroke-width="0.3"><path d="
M 1175.00 899.00 
C 1150.46 893.92 1144.63 933.11 1168.33 936.67 C 1192.03 940.23 1197.59 903.68 1175.00 899.00 Z"/>
</g>
<g fill="None" fill-opacity="0.0" stroke="#D9D9D9" stroke-opacity="0.57" stroke-width="0.3"><path d="
M 115.00 929.00 
C 116.44 928.94 115.74 930.92 117.00 931.00
C 118.30 923.80 116.15 915.82 115.00 910.00
C 115.00 916.33 115.13 922.67 115.00 929.00 Z"/>
</g>
<g fill="None" fill-opacity="0.0" stroke="#E1E1E1" stroke-opacity="0.70" stroke-width="0.3"><path d="
M 1484.00 933.00 
C 1483.65 928.87 1484.68 924.35 1485.00 921.00
C 1485.00 918.33 1485.00 915.67 1485.00 913.00
C 1483.56 913.06 1484.26 911.08 1483.00 911.00
C 1483.14 918.30 1482.37 926.42 1484.00 933.00 Z"/>
</g>
<g fill="None" fill-opacity="0.0" stroke="#E6E6E6" stroke-opacity="0.23" stroke-width="0.3"><path d="
M 1484.00 933.00 
C 1484.13 934.54 1484.55 934.94 1485.00 936.00
C 1484.53 931.11 1485.00 925.92 1485.00 921.00
C 1484.68 924.35 1483.65 928.87 1484.00 933.00 Z"/>
</g>
<g fill="None" fill-opacity="0.0" stroke="#000000" stroke-opacity="0.20" stroke-width="0.3"><path d="
M 1495.00 1053.00 
C 1487.07 1096.40 1454.44 1124.41 1419.75 1149.75 C 1385.06 1175.09 1362.32 1209.47 1345.92 1247.92 C 1329.53 1286.37 1324.00 1333.35 1290.08 1364.08 C 1256.16 1394.82 1203.83 1396.11 1162.22 1408.22 C 1120.62 1420.33 1087.82 1443.61 1056.75 1474.75 C 1025.69 1505.90 991.26 1538.20 943.67 1532.33 C 896.08 1526.46 849.80 1505.62 800.00 1505.00 C 750.20 1504.38 703.61 1527.79 656.00 1533.00 C 608.39 1538.21 573.85 1505.23 542.75 1474.25 C 511.65 1443.26 478.46 1419.88 437.02 1407.98 C 395.59 1396.07 342.98 1394.64 309.25 1363.75 C 275.51 1332.86 270.41 1285.34 253.92 1247.08 C 237.44 1208.81 214.22 1174.53 179.70 1149.30 C 145.18 1124.08 112.88 1096.17 105.00 1053.00
C 104.61 1097.26 136.85 1133.29 172.75 1158.25 C 208.66 1183.20 233.01 1214.63 251.22 1253.78 C 269.43 1292.92 273.48 1339.87 305.75 1373.25 C 338.02 1406.63 389.78 1410.36 431.98 1421.02 C 474.17 1431.69 509.24 1455.04 540.75 1486.25 C 572.26 1517.46 605.83 1551.60 654.00 1547.00 C 702.17 1542.40 749.57 1518.84 800.00 1519.00 C 850.43 1519.16 898.69 1542.55 947.00 1547.00 C 995.31 1551.45 1028.16 1516.85 1059.75 1485.75 C 1091.35 1454.66 1126.50 1431.28 1168.78 1420.78 C 1211.05 1410.28 1262.80 1406.58 1294.75 1372.75 C 1326.70 1338.93 1330.55 1292.22 1349.08 1253.08 C 1367.60 1213.93 1391.56 1182.71 1427.75 1157.75 C 1463.95 1132.80 1494.34 1097.16 1495.00 1053.00 Z"/>
</g>
<g fill="None" fill-opacity="0.0" stroke="#A7C7FA" stroke-opacity="1.00" stroke-width="0.3"><path d="
M 418.00 1194.00 
C 418.58 1188.05 419.00 1180.70 419.00 1174.00
C 418.42 1179.95 418.00 1187.29 418.00 1194.00 Z"/>
</g>
<g fill="None" fill-opacity="0.0" stroke="#9EC1F9" stroke-opacity="1.00" stroke-width="0.3"><path d="
M 1180.00 1198.00 
C 1180.00 1191.62 1179.55 1184.70 1179.00 1179.00
C 1179.00 1185.38 1179.45 1192.30 1180.00 1198.00 Z"/>
</g>
<g fill="#000000" fill-opacity="0.00" stroke="None">
<path d="
M 0.00 1600.00 
L 1600.00 1600.00
L 1600.00 0.00
L 0.00 0.00
L 0.00 1600.00
M 997.00 139.00 
C 1001.04 139.08 1005.69 139.68 1009.00 140.00
C 1011.29 139.79 1013.70 140.00 1016.00 140.00
C 1024.67 140.00 1033.33 140.00 1042.00 140.00
C 1043.97 140.00 1046.04 140.19 1048.00 140.00
C 1052.39 139.58 1057.93 139.00 1063.00 139.00
C 1093.10 139.00 1131.22 139.40 1154.08 157.92 C 1176.94 176.45 1190.18 194.71 1204.30 218.70 C 1218.43 242.68 1230.77 262.59 1251.75 281.25 C 1272.73 299.91 1292.41 314.83 1317.23 326.77 C 1342.04 338.71 1366.53 347.60 1388.25 365.75 C 1409.97 383.91 1422.18 410.04 1425.98 439.02 C 1429.77 468.01 1430.98 508.11 1439.00 536.00 C 1447.02 563.89 1456.20 590.08 1473.00 613.00
C 1473.75 614.03 1474.33 614.97 1475.00 616.00
C 1488.67 636.95 1502.59 649.80 1516.25 672.75 C 1529.91 695.70 1535.03 724.41 1531.00 752.00
C 1531.79 779.24 1520.23 805.47 1508.23 830.23 C 1496.23 854.99 1490.80 883.55 1485.00 910.00
C 1485.00 911.00 1485.00 912.00 1485.00 913.00
C 1485.00 915.67 1485.00 918.33 1485.00 921.00
C 1485.00 925.92 1484.53 931.11 1485.00 936.00
C 1489.78 947.14 1485.71 962.24 1489.78 974.22 C 1493.85 986.20 1494.39 999.12 1496.00 1012.00 C 1497.61 1024.88 1497.33 1040.23 1495.00 1053.00
C 1494.34 1097.16 1463.95 1132.80 1427.75 1157.75 C 1391.56 1182.71 1367.60 1213.93 1349.08 1253.08 C 1330.55 1292.22 1326.70 1338.93 1294.75 1372.75 C 1262.80 1406.58 1211.05 1410.28 1168.78 1420.78 C 1126.50 1431.28 1091.35 1454.66 1059.75 1485.75 C 1028.16 1516.85 995.31 1551.45 947.00 1547.00 C 898.69 1542.55 850.43 1519.16 800.00 1519.00 C 749.57 1518.84 702.17 1542.40 654.00 1547.00 C 605.83 1551.60 572.26 1517.46 540.75 1486.25 C 509.24 1455.04 474.17 1431.69 431.98 1421.02 C 389.78 1410.36 338.02 1406.63 305.75 1373.25 C 273.48 1339.87 269.43 1292.92 251.22 1253.78 C 233.01 1214.63 208.66 1183.20 172.75 1158.25 C 136.85 1133.29 104.61 1097.26 105.00 1053.00
C 97.29 1010.79 114.16 970.86 115.00 929.00
C 115.13 922.67 115.00 916.33 115.00 910.00
C 115.00 907.67 115.08 905.33 115.00 903.00
C 110.04 877.98 101.32 852.26 90.69 828.31 C 80.06 804.35 68.24 778.21 69.00 752.00
C 65.06 725.03 69.33 695.13 83.77 672.77 C 98.21 650.41 109.75 635.57 124.92 614.92 C 140.09 594.27 149.53 573.83 157.00 549.00 C 164.46 524.16 169.09 490.31 171.00 464.00 C 172.91 437.69 179.59 408.42 192.92 386.92 C 206.25 365.42 224.67 353.13 246.68 342.68 C 268.69 332.23 292.52 323.14 312.25 309.25 C 331.97 295.35 349.44 282.43 365.25 263.25 C 381.07 244.08 391.70 226.45 404.30 204.30 C 416.91 182.15 431.01 169.03 453.25 154.25 C 475.48 139.46 509.24 139.00 537.00 139.00
C 542.06 139.00 547.68 139.58 552.00 140.00
C 553.96 139.81 556.03 140.00 558.00 140.00
C 568.33 140.00 578.67 140.00 589.00 140.00
C 589.50 140.00 590.55 139.85 591.00 140.00
C 594.44 138.54 598.89 139.08 603.00 139.00
C 651.26 138.03 691.09 113.43 730.74 87.74 C 770.40 62.06 828.87 61.60 868.69 87.31 C 908.52 113.01 948.46 138.03 997.00 139.00 Z"/>
</g>
<g fill="#FEFEFE" fill-opacity="1.00" stroke="None">
<path d="
M 603.00 139.00 
C 598.92 139.95 596.16 141.78 591.00 140.00
C 590.55 139.85 589.50 140.00 589.00 140.00
C 583.59 146.75 564.50 139.10 556.00 142.00
C 556.08 140.74 558.06 141.44 558.00 140.00
C 556.03 140.00 553.96 139.81 552.00 140.00
C 546.52 140.53 542.10 139.98 537.00 139.00
C 509.24 139.00 475.48 139.46 453.25 154.25 C 431.01 169.03 416.91 182.15 404.30 204.30 C 391.70 226.45 381.07 244.08 365.25 263.25 C 349.44 282.43 331.97 295.35 312.25 309.25 C 292.52 323.14 268.69 332.23 246.68 342.68 C 224.67 353.13 206.25 365.42 192.92 386.92 C 179.59 408.42 172.91 437.69 171.00 464.00 C 169.09 490.31 164.46 524.16 157.00 549.00 C 149.53 573.83 140.09 594.27 124.92 614.92 C 109.75 635.57 98.21 650.41 83.77 672.77 C 69.33 695.13 65.06 725.03 69.00 752.00
C 76.69 804.64 113.13 848.05 115.00 903.00
C 115.08 905.33 115.00 907.67 115.00 910.00
C 116.15 915.82 118.30 923.80 117.00 931.00
C 115.74 930.92 116.44 928.94 115.00 929.00
C 114.16 970.86 97.29 1010.79 105.00 1053.00
C 112.88 1096.17 145.18 1124.08 179.70 1149.30 C 214.22 1174.53 237.44 1208.81 253.92 1247.08 C 270.41 1285.34 275.51 1332.86 309.25 1363.75 C 342.98 1394.64 395.59 1396.07 437.02 1407.98 C 478.46 1419.88 511.65 1443.26 542.75 1474.25 C 573.85 1505.23 608.39 1538.21 656.00 1533.00 C 703.61 1527.79 750.20 1504.38 800.00 1505.00 C 849.80 1505.62 896.08 1526.46 943.67 1532.33 C 991.26 1538.20 1025.69 1505.90 1056.75 1474.75 C 1087.82 1443.61 1120.62 1420.33 1162.22 1408.22 C 1203.83 1396.11 1256.16 1394.82 1290.08 1364.08 C 1324.00 1333.35 1329.53 1286.37 1345.92 1247.92 C 1362.32 1209.47 1385.06 1175.09 1419.75 1149.75 C 1454.44 1124.41 1487.07 1096.40 1495.00 1053.00
C 1497.33 1040.23 1497.61 1024.88 1496.00 1012.00 C 1494.39 999.12 1493.85 986.20 1489.78 974.22 C 1485.71 962.24 1489.78 947.14 1485.00 936.00
C 1484.55 934.94 1484.13 934.54 1484.00 933.00
C 1482.37 926.42 1483.14 918.30 1483.00 911.00
C 1484.26 911.08 1483.56 913.06 1485.00 913.00
C 1485.00 912.00 1485.00 911.00 1485.00 910.00
C 1485.00 851.58 1522.93 807.25 1531.00 752.00
C 1535.03 724.41 1529.91 695.70 1516.25 672.75 C 1502.59 649.80 1488.67 636.95 1475.00 616.00
C 1474.24 615.34 1473.54 614.33 1473.00 613.00
C 1456.20 590.08 1447.02 563.89 1439.00 536.00 C 1430.98 508.11 1429.77 468.01 1425.98 439.02 C 1422.18 410.04 1409.97 383.91 1388.25 365.75 C 1366.53 347.60 1342.04 338.71 1317.23 326.77 C 1292.41 314.83 1272.73 299.91 1251.75 281.25 C 1230.77 262.59 1218.43 242.68 1204.30 218.70 C 1190.18 194.71 1176.94 176.45 1154.08 157.92 C 1131.22 139.40 1093.10 139.00 1063.00 139.00
C 1057.85 139.99 1053.41 140.52 1048.00 140.00
C 1046.04 140.19 1043.97 140.00 1042.00 140.00
C 1042.44 140.14 1043.79 141.40 1044.00 142.00
C 1034.90 140.85 1023.76 144.42 1016.00 140.00
C 1013.70 140.00 1011.29 139.79 1009.00 140.00
C 1003.97 140.46 1001.15 139.97 997.00 139.00
C 948.46 138.03 908.52 113.01 868.69 87.31 C 828.87 61.60 770.40 62.06 730.74 87.74 C 691.09 113.43 651.26 138.03 603.00 139.00
M 837.00 292.00 
C 838.01 299.04 838.31 309.44 838.00 317.00 C 837.69 324.56 838.23 325.11 838.00 331.00 C 837.77 336.89 838.31 339.14 838.00 344.00 C 837.69 348.86 838.55 353.76 838.00 358.00 C 837.45 362.24 839.26 367.74 838.00 371.00 C 836.74 374.26 840.20 382.64 839.00 384.00
C 906.44 408.90 935.20 489.31 901.00 552.00
C 901.06 560.84 910.70 569.12 913.31 577.70 C 915.91 586.27 922.05 594.69 925.77 603.23 C 929.49 611.77 934.19 620.47 937.93 629.07 C 941.66 637.68 947.25 646.31 951.00 655.00
C 956.27 657.18 964.66 649.53 971.02 649.02 C 977.39 648.52 985.69 644.59 993.00 644.00 C 1000.31 643.42 1008.99 641.12 1017.00 641.00 C 1025.01 640.88 1034.18 639.54 1042.22 640.78 C 1050.26 642.02 1059.49 641.16 1067.02 642.98 C 1074.56 644.79 1081.60 645.13 1088.67 647.33 C 1095.74 649.53 1102.58 651.13 1109.22 653.78 C 1115.87 656.43 1122.05 658.57 1128.23 661.77 C 1134.41 664.97 1140.18 667.58 1146.08 670.92 C 1151.98 674.26 1156.68 678.82 1163.00 681.00
C 1167.11 672.93 1173.90 664.13 1178.77 656.77 C 1183.64 649.41 1190.35 639.53 1194.77 632.77 C 1199.19 626.01 1207.47 610.02 1216.25 617.75 C 1225.02 625.49 1211.07 635.87 1207.25 643.25 C 1203.42 650.63 1195.85 659.47 1191.23 667.23 C 1186.61 674.99 1179.37 683.84 1175.00 692.00
C 1227.69 735.36 1257.52 799.27 1260.00 866.00
C 1272.46 866.65 1283.28 868.81 1296.00 869.00 C 1308.72 869.19 1319.34 871.86 1332.67 871.33 C 1346.00 870.80 1346.47 888.72 1333.00 888.00 C 1319.53 887.28 1309.87 885.78 1297.00 885.00 C 1284.13 884.22 1272.81 883.48 1260.00 883.00
C 1256.49 955.92 1215.05 1027.69 1150.00 1064.00
C 1158.51 1081.22 1165.06 1094.95 1172.92 1113.08 C 1180.79 1131.21 1179.00 1158.39 1179.00 1179.00
C 1179.55 1184.70 1180.00 1191.62 1180.00 1198.00
C 1180.00 1210.30 1182.06 1224.38 1171.75 1232.75 C 1161.45 1241.12 1148.98 1236.74 1140.75 1229.25 C 1132.52 1221.76 1124.86 1217.35 1116.92 1210.08 C 1108.98 1202.82 1100.89 1196.97 1092.75 1190.25 C 1084.62 1183.53 1077.73 1176.92 1071.70 1168.30 C 1065.67 1159.69 1060.80 1150.12 1056.69 1140.31 C 1052.59 1130.49 1046.50 1121.54 1042.25 1111.75 C 1037.99 1101.97 1032.95 1091.57 1028.08 1081.92 C 1023.20 1072.28 1019.19 1062.65 1014.08 1052.92 C 1008.96 1043.20 1004.96 1033.93 1000.08 1023.92 C 995.19 1013.92 990.09 1004.74 985.70 994.31 C 981.30 983.87 976.97 972.01 964.98 977.98 C 952.98 983.94 943.97 983.78 931.98 987.98 C 919.98 992.17 908.38 991.90 896.00 995.00 C 883.62 998.10 870.97 999.17 857.99 1000.99 C 845.02 1002.81 831.39 1002.70 817.98 1003.98 C 804.56 1005.25 789.29 1003.16 776.00 1003.00 C 762.71 1002.84 748.80 1001.59 735.98 1000.02 C 723.15 998.46 710.11 996.67 697.78 994.22 C 685.45 991.78 674.43 990.09 662.77 986.23 C 651.11 982.37 640.74 981.91 629.33 976.67 C 617.92 971.44 616.72 988.28 611.08 997.08 C 605.43 1005.87 602.44 1016.89 597.08 1026.08 C 591.71 1035.27 588.10 1045.61 583.08 1055.08 C 578.05 1064.54 573.59 1074.42 569.07 1084.07 C 564.56 1093.73 558.74 1103.88 554.68 1113.68 C 550.61 1123.48 544.56 1132.51 540.23 1142.23 C 535.90 1151.95 531.52 1161.59 525.23 1170.23 C 518.94 1178.87 511.49 1184.80 503.30 1191.30 C 495.11 1197.81 488.03 1205.06 479.75 1211.75 C 471.48 1218.45 464.07 1223.26 455.77 1230.77 C 447.47 1238.28 433.96 1240.39 424.75 1231.25 C 415.55 1222.11 418.00 1206.68 418.00 1194.00
C 418.00 1187.29 418.42 1179.95 419.00 1174.00
C 419.00 1157.92 418.18 1136.70 421.99 1121.99 C 425.81 1107.28 432.39 1096.81 438.77 1083.77 C 445.15 1070.74 450.27 1058.57 456.92 1045.92 C 463.58 1033.28 468.15 1021.52 474.92 1008.92 C 481.69 996.32 486.14 984.05 493.31 971.31 C 500.47 958.56 502.68 947.35 511.31 934.31 C 519.93 921.26 502.67 915.54 491.92 908.08 C 481.17 900.63 470.26 892.27 459.92 884.08 C 449.58 875.89 440.25 867.69 430.25 858.75 C 420.26 849.80 412.12 839.99 402.75 830.25 C 393.39 820.51 386.25 811.45 377.08 800.92 C 367.91 790.39 363.65 780.65 353.75 769.25 C 343.85 757.85 348.57 740.11 362.25 733.25 C 375.93 726.38 381.31 718.05 393.75 709.75 C 406.19 701.46 413.67 695.98 426.25 686.25 C 438.82 676.51 453.79 686.64 459.92 699.08 C 466.05 711.53 476.02 719.34 483.75 730.25 C 491.49 741.16 501.54 749.46 510.75 759.25 C 519.97 769.04 529.66 776.95 540.08 784.92 C 550.50 792.89 561.19 802.89 573.00 808.00
C 613.69 722.57 655.82 637.32 697.00 552.00
C 661.19 490.41 692.06 407.50 759.00 384.00
C 763.85 378.65 758.49 366.25 760.00 359.00 C 761.51 351.75 759.34 340.91 760.00 333.00 C 760.66 325.09 759.68 313.90 760.00 306.00 C 760.32 298.10 759.21 288.99 762.33 282.33 C 765.45 275.66 768.39 271.71 773.75 266.75 C 779.11 261.80 785.09 260.77 792.00 259.00 C 798.92 257.24 808.46 258.05 814.69 261.31 C 820.93 264.57 824.51 267.42 829.25 272.75 C 833.99 278.08 836.73 284.84 837.00 292.00 Z"/>
</g>
<g fill="#FFFFFF" fill-opacity="0.32" stroke="None">
<path d="
M 552.00 140.00 
C 547.68 139.58 542.06 139.00 537.00 139.00
C 542.10 139.98 546.52 140.53 552.00 140.00 Z"/>
</g>
<g fill="#FFFFFF" fill-opacity="0.32" stroke="None">
<path d="
M 591.00 140.00 
C 596.16 141.78 598.92 139.95 603.00 139.00
C 598.89 139.08 594.44 138.54 591.00 140.00 Z"/>
</g>
<g fill="#FFFFFF" fill-opacity="0.32" stroke="None">
<path d="
M 1009.00 140.00 
C 1005.69 139.68 1001.04 139.08 997.00 139.00
C 1001.15 139.97 1003.97 140.46 1009.00 140.00 Z"/>
</g>
<g fill="#FFFFFF" fill-opacity="0.32" stroke="None">
<path d="
M 1048.00 140.00 
C 1053.41 140.52 1057.85 139.99 1063.00 139.00
C 1057.93 139.00 1052.39 139.58 1048.00 140.00 Z"/>
</g>
<g fill="#FFFFFF" fill-opacity="0.55" stroke="None">
<path d="
M 589.00 140.00 
C 578.67 140.00 568.33 140.00 558.00 140.00
C 558.06 141.44 556.08 140.74 556.00 142.00
C 564.50 139.10 583.59 146.75 589.00 140.00 Z"/>
</g>
<g fill="#FFFFFF" fill-opacity="0.53" stroke="None">
<path d="
M 1042.00 140.00 
C 1033.33 140.00 1024.67 140.00 1016.00 140.00
C 1023.76 144.42 1034.90 140.85 1044.00 142.00
C 1043.79 141.40 1042.44 140.14 1042.00 140.00 Z"/>
</g>
<g fill="#4086F3" fill-opacity="1.00" stroke="None">
<path d="
M 759.00 384.00 
C 781.80 376.00 814.15 371.79 837.00 383.00
C 834.16 376.81 838.23 367.98 837.00 361.00 C 835.77 354.02 837.58 345.35 837.00 338.00 C 836.42 330.65 837.33 322.50 837.00 315.00 C 836.67 307.50 837.29 299.54 837.00 292.00
C 836.73 284.84 833.99 278.08 829.25 272.75 C 824.51 267.42 820.93 264.57 814.69 261.31 C 808.46 258.05 798.92 257.24 792.00 259.00 C 785.09 260.77 779.11 261.80 773.75 266.75 C 768.39 271.71 765.45 275.66 762.33 282.33 C 759.21 288.99 760.32 298.10 760.00 306.00 C 759.68 313.90 760.66 325.09 760.00 333.00 C 759.34 340.91 761.51 351.75 760.00 359.00 C 758.49 366.25 763.85 378.65 759.00 384.00 Z"/>
</g>
<g fill="#72A5F5" fill-opacity="1.00" stroke="None">
<path d="
M 837.00 383.00 
C 837.74 383.36 838.23 383.72 839.00 384.00
C 840.20 382.64 836.74 374.26 838.00 371.00 C 839.26 367.74 837.45 362.24 838.00 358.00 C 838.55 353.76 837.69 348.86 838.00 344.00 C 838.31 339.14 837.77 336.89 838.00 331.00 C 838.23 325.11 837.69 324.56 838.00 317.00 C 838.31 309.44 838.01 299.04 837.00 292.00
C 837.29 299.54 836.67 307.50 837.00 315.00 C 837.33 322.50 836.42 330.65 837.00 338.00 C 837.58 345.35 835.77 354.02 837.00 361.00 C 838.23 367.98 834.16 376.81 837.00 383.00 Z"/>
</g>
<g fill="#012C40" fill-opacity="1.00" stroke="None">
<path d="
M 759.00 384.00 
C 692.06 407.50 661.19 490.41 697.00 552.00
C 717.69 587.59 756.92 611.00 798.00 611.00
C 798.50 611.00 799.50 610.97 800.00 611.00
C 838.98 613.73 882.65 585.64 901.00 552.00
C 935.20 489.31 906.44 408.90 839.00 384.00
C 838.23 383.72 837.74 383.36 837.00 383.00
C 814.15 371.79 781.80 376.00 759.00 384.00
M 805.00 429.00 
C 853.03 433.65 879.79 492.22 851.23 531.23 C 822.67 570.24 763.35 565.74 741.23 522.77 C 719.10 479.80 754.69 424.13 805.00 429.00 Z"/>
</g>
<g fill="#FDFDFD" fill-opacity="1.00" stroke="None">
<path d="
M 805.00 429.00 
C 754.69 424.13 719.10 479.80 741.23 522.77 C 763.35 565.74 822.67 570.24 851.23 531.23 C 879.79 492.22 853.03 433.65 805.00 429.00 Z"/>
</g>
<g fill="#4086F3" fill-opacity="1.00" stroke="None">
<path d="
M 419.00 1174.00 
C 419.00 1180.70 418.58 1188.05 418.00 1194.00
C 418.00 1206.68 415.55 1222.11 424.75 1231.25 C 433.96 1240.39 447.47 1238.28 455.77 1230.77 C 464.07 1223.26 471.48 1218.45 479.75 1211.75 C 488.03 1205.06 495.11 1197.81 503.30 1191.30 C 511.49 1184.80 518.94 1178.87 525.23 1170.23 C 531.52 1161.59 535.90 1151.95 540.23 1142.23 C 544.56 1132.51 550.61 1123.48 554.68 1113.68 C 558.74 1103.88 564.56 1093.73 569.07 1084.07 C 573.59 1074.42 578.05 1064.54 583.08 1055.08 C 588.10 1045.61 591.71 1035.27 597.08 1026.08 C 602.44 1016.89 605.43 1005.87 611.08 997.08 C 616.72 988.28 617.92 971.44 629.33 976.67 C 640.74 981.91 651.11 982.37 662.77 986.23 C 674.43 990.09 685.45 991.78 697.78 994.22 C 710.11 996.67 723.15 998.46 735.98 1000.02 C 748.80 1001.59 762.71 1002.84 776.00 1003.00 C 789.29 1003.16 804.56 1005.25 817.98 1003.98 C 831.39 1002.70 845.02 1002.81 857.99 1000.99 C 870.97 999.17 883.62 998.10 896.00 995.00 C 908.38 991.90 919.98 992.17 931.98 987.98 C 943.97 983.78 952.98 983.94 964.98 977.98 C 976.97 972.01 981.30 983.87 985.70 994.31 C 990.09 1004.74 995.19 1013.92 1000.08 1023.92 C 1004.96 1033.93 1008.96 1043.20 1014.08 1052.92 C 1019.19 1062.65 1023.20 1072.28 1028.08 1081.92 C 1032.95 1091.57 1037.99 1101.97 1042.25 1111.75 C 1046.50 1121.54 1052.59 1130.49 1056.69 1140.31 C 1060.80 1150.12 1065.67 1159.69 1071.70 1168.30 C 1077.73 1176.92 1084.62 1183.53 1092.75 1190.25 C 1100.89 1196.97 1108.98 1202.82 1116.92 1210.08 C 1124.86 1217.35 1132.52 1221.76 1140.75 1229.25 C 1148.98 1236.74 1161.45 1241.12 1171.75 1232.75 C 1182.06 1224.38 1180.00 1210.30 1180.00 1198.00
C 1179.45 1192.30 1179.00 1185.38 1179.00 1179.00
C 1179.00 1158.39 1180.79 1131.21 1172.92 1113.08 C 1165.06 1094.95 1158.51 1081.22 1150.00 1064.00
C 1116.54 996.32 1082.20 928.34 1050.23 859.77 C 1018.26 791.20 980.95 724.38 951.00 655.00
C 947.25 646.31 941.66 637.68 937.93 629.07 C 934.19 620.47 929.49 611.77 925.77 603.23 C 922.05 594.69 915.91 586.27 913.31 577.70 C 910.70 569.12 901.06 560.84 901.00 552.00
C 882.65 585.64 838.98 613.73 800.00 611.00
C 807.23 620.98 810.04 635.73 816.32 646.68 C 822.61 657.62 828.19 669.63 833.77 681.23 C 839.35 692.83 845.29 705.37 850.92 717.08 C 856.56 728.78 862.38 740.27 867.92 752.08 C 873.47 763.88 879.64 776.00 885.26 787.74 C 890.88 799.49 896.62 811.13 901.98 823.03 C 907.33 834.92 915.08 846.51 919.00 859.00
C 885.91 869.02 851.62 875.40 816.00 876.00
C 806.25 876.94 794.68 876.94 785.00 876.00
C 748.36 876.00 713.29 868.19 679.00 859.00
C 716.91 775.84 759.56 694.08 798.00 611.00
C 756.92 611.00 717.69 587.59 697.00 552.00
C 655.82 637.32 613.69 722.57 573.00 808.00
C 561.19 802.89 550.50 792.89 540.08 784.92 C 529.66 776.95 519.97 769.04 510.75 759.25 C 501.54 749.46 491.49 741.16 483.75 730.25 C 476.02 719.34 466.05 711.53 459.92 699.08 C 453.79 686.64 438.82 676.51 426.25 686.25 C 413.67 695.98 406.19 701.46 393.75 709.75 C 381.31 718.05 375.93 726.38 362.25 733.25 C 348.57 740.11 343.85 757.85 353.75 769.25 C 363.65 780.65 367.91 790.39 377.08 800.92 C 386.25 811.45 393.39 820.51 402.75 830.25 C 412.12 839.99 420.26 849.80 430.25 858.75 C 440.25 867.69 449.58 875.89 459.92 884.08 C 470.26 892.27 481.17 900.63 491.92 908.08 C 502.67 915.54 519.93 921.26 511.31 934.31 C 502.68 947.35 500.47 958.56 493.31 971.31 C 486.14 984.05 481.69 996.32 474.92 1008.92 C 468.15 1021.52 463.58 1033.28 456.92 1045.92 C 450.27 1058.57 445.15 1070.74 438.77 1083.77 C 432.39 1096.81 425.81 1107.28 421.99 1121.99 C 418.18 1136.70 419.00 1157.92 419.00 1174.00 Z"/>
</g>
<g fill="#FEFEFE" fill-opacity="1.00" stroke="None">
<path d="
M 785.00 876.00 
C 795.33 876.00 805.67 876.00 816.00 876.00
C 851.62 875.40 885.91 869.02 919.00 859.00
C 915.08 846.51 907.33 834.92 901.98 823.03 C 896.62 811.13 890.88 799.49 885.26 787.74 C 879.64 776.00 873.47 763.88 867.92 752.08 C 862.38 740.27 856.56 728.78 850.92 717.08 C 845.29 705.37 839.35 692.83 833.77 681.23 C 828.19 669.63 822.61 657.62 816.32 646.68 C 810.04 635.73 807.23 620.98 800.00 611.00
C 799.50 610.97 798.50 611.00 798.00 611.00
C 759.56 694.08 716.91 775.84 679.00 859.00
C 713.29 868.19 748.36 876.00 785.00 876.00 Z"/>
</g>
<g fill="#FFFFFF" fill-opacity="0.43" stroke="None">
<path d="
M 1475.00 616.00 
C 1474.33 614.97 1473.75 614.03 1473.00 613.00
C 1473.54 614.33 1474.24 615.34 1475.00 616.00 Z"/>
</g>
<g fill="#3BDD85" fill-opacity="1.00" stroke="None">
<path d="
M 951.00 655.00 
C 980.95 724.38 1018.26 791.20 1050.23 859.77 C 1082.20 928.34 1116.54 996.32 1150.00 1064.00
C 1215.05 1027.69 1256.49 955.92 1260.00 883.00
C 1272.81 883.48 1284.13 884.22 1297.00 885.00 C 1309.87 885.78 1319.53 887.28 1333.00 888.00 C 1346.47 888.72 1346.00 870.80 1332.67 871.33 C 1319.34 871.86 1308.72 869.19 1296.00 869.00 C 1283.28 868.81 1272.46 866.65 1260.00 866.00
C 1257.52 799.27 1227.69 735.36 1175.00 692.00
C 1179.37 683.84 1186.61 674.99 1191.23 667.23 C 1195.85 659.47 1203.42 650.63 1207.25 643.25 C 1211.07 635.87 1225.02 625.49 1216.25 617.75 C 1207.47 610.02 1199.19 626.01 1194.77 632.77 C 1190.35 639.53 1183.64 649.41 1178.77 656.77 C 1173.90 664.13 1167.11 672.93 1163.00 681.00
C 1156.68 678.82 1151.98 674.26 1146.08 670.92 C 1140.18 667.58 1134.41 664.97 1128.23 661.77 C 1122.05 658.57 1115.87 656.43 1109.22 653.78 C 1102.58 651.13 1095.74 649.53 1088.67 647.33 C 1081.60 645.13 1074.56 644.79 1067.02 642.98 C 1059.49 641.16 1050.26 642.02 1042.22 640.78 C 1034.18 639.54 1025.01 640.88 1017.00 641.00 C 1008.99 641.12 1000.31 643.42 993.00 644.00 C 985.69 644.59 977.39 648.52 971.02 649.02 C 964.66 649.53 956.27 657.18 951.00 655.00
M 1084.00 711.00 
C 1107.51 715.87 1098.40 754.12 1075.00 748.00 C 1051.60 741.88 1060.50 706.13 1084.00 711.00
M 1175.00 899.00 
C 1197.59 903.68 1192.03 940.23 1168.33 936.67 C 1144.63 933.11 1150.46 893.92 1175.00 899.00 Z"/>
</g>
<g fill="#FDFEFE" fill-opacity="1.00" stroke="None">
<path d="
M 1084.00 711.00 
C 1060.50 706.13 1051.60 741.88 1075.00 748.00 C 1098.40 754.12 1107.51 715.87 1084.00 711.00 Z"/>
</g>
<g fill="#000000" fill-opacity="0.20" stroke="None">
<path d="
M 115.00 903.00 
C 113.13 848.05 76.69 804.64 69.00 752.00
C 68.24 778.21 80.06 804.35 90.69 828.31 C 101.32 852.26 110.04 877.98 115.00 903.00 Z"/>
</g>
<g fill="#000000" fill-opacity="0.20" stroke="None">
<path d="
M 1485.00 910.00 
C 1490.80 883.55 1496.23 854.99 1508.23 830.23 C 1520.23 805.47 1531.79 779.24 1531.00 752.00
C 1522.93 807.25 1485.00 851.58 1485.00 910.00 Z"/>
</g>
<g fill="#AFCCFA" fill-opacity="1.00" stroke="None">
<path d="
M 816.00 876.00 
C 805.67 876.00 795.33 876.00 785.00 876.00
C 794.68 876.94 806.25 876.94 816.00 876.00 Z"/>
</g>
<g fill="#FDFEFE" fill-opacity="1.00" stroke="None">
<path d="
M 1175.00 899.00 
C 1150.46 893.92 1144.63 933.11 1168.33 936.67 C 1192.03 940.23 1197.59 903.68 1175.00 899.00 Z"/>
</g>
<g fill="#D9D9D9" fill-opacity="0.57" stroke="None">
<path d="
M 115.00 929.00 
C 116.44 928.94 115.74 930.92 117.00 931.00
C 118.30 923.80 116.15 915.82 115.00 910.00
C 115.00 916.33 115.13 922.67 115.00 929.00 Z"/>
</g>
<g fill="#E1E1E1" fill-opacity="0.70" stroke="None">
<path d="
M 1484.00 933.00 
C 1483.65 928.87 1484.68 924.35 1485.00 921.00
C 1485.00 918.33 1485.00 915.67 1485.00 913.00
C 1483.56 913.06 1484.26 911.08 1483.00 911.00
C 1483.14 918.30 1482.37 926.42 1484.00 933.00 Z"/>
</g>
<g fill="#E6E6E6" fill-opacity="0.23" stroke="None">
<path d="
M 1484.00 933.00 
C 1484.13 934.54 1484.55 934.94 1485.00 936.00
C 1484.53 931.11 1485.00 925.92 1485.00 921.00
C 1484.68 924.35 1483.65 928.87 1484.00 933.00 Z"/>
</g>
<g fill="#000000" fill-opacity="0.20" stroke="None">
<path d="
M 1495.00 1053.00 
C 1487.07 1096.40 1454.44 1124.41 1419.75 1149.75 C 1385.06 1175.09 1362.32 1209.47 1345.92 1247.92 C 1329.53 1286.37 1324.00 1333.35 1290.08 1364.08 C 1256.16 1394.82 1203.83 1396.11 1162.22 1408.22 C 1120.62 1420.33 1087.82 1443.61 1056.75 1474.75 C 1025.69 1505.90 991.26 1538.20 943.67 1532.33 C 896.08 1526.46 849.80 1505.62 800.00 1505.00 C 750.20 1504.38 703.61 1527.79 656.00 1533.00 C 608.39 1538.21 573.85 1505.23 542.75 1474.25 C 511.65 1443.26 478.46 1419.88 437.02 1407.98 C 395.59 1396.07 342.98 1394.64 309.25 1363.75 C 275.51 1332.86 270.41 1285.34 253.92 1247.08 C 237.44 1208.81 214.22 1174.53 179.70 1149.30 C 145.18 1124.08 112.88 1096.17 105.00 1053.00
C 104.61 1097.26 136.85 1133.29 172.75 1158.25 C 208.66 1183.20 233.01 1214.63 251.22 1253.78 C 269.43 1292.92 273.48 1339.87 305.75 1373.25 C 338.02 1406.63 389.78 1410.36 431.98 1421.02 C 474.17 1431.69 509.24 1455.04 540.75 1486.25 C 572.26 1517.46 605.83 1551.60 654.00 1547.00 C 702.17 1542.40 749.57 1518.84 800.00 1519.00 C 850.43 1519.16 898.69 1542.55 947.00 1547.00 C 995.31 1551.45 1028.16 1516.85 1059.75 1485.75 C 1091.35 1454.66 1126.50 1431.28 1168.78 1420.78 C 1211.05 1410.28 1262.80 1406.58 1294.75 1372.75 C 1326.70 1338.93 1330.55 1292.22 1349.08 1253.08 C 1367.60 1213.93 1391.56 1182.71 1427.75 1157.75 C 1463.95 1132.80 1494.34 1097.16 1495.00 1053.00 Z"/>
</g>
<g fill="#A7C7FA" fill-opacity="1.00" stroke="None">
<path d="
M 418.00 1194.00 
C 418.58 1188.05 419.00 1180.70 419.00 1174.00
C 418.42 1179.95 418.00 1187.29 418.00 1194.00 Z"/>
</g>
<g fill="#9EC1F9" fill-opacity="1.00" stroke="None">
<path d="
M 1180.00 1198.00 
C 1180.00 1191.62 1179.55 1184.70 1179.00 1179.00
C 1179.00 1185.38 1179.45 1192.30 1180.00 1198.00 Z"/>
</g>
</svg>