<svg xmlns="http://www.w3.org/2000/svg" xmlns:v="https://svgstorm.com"
viewBox = "0 0 1024 1024"
width="1024"
height="1024">
<g fill="None" fill-opacity="0.0" stroke="#000000" stroke-opacity="0.00" stroke-width="0.3"><path d="
M 0.00 480.00 
C 3.82 417.46 22.63 345.62 49.77 290.77 C 76.92 235.92 105.36 193.40 149.25 150.25 C 193.14 107.10 233.88 76.33 289.23 50.23 C 344.58 24.13 416.21 1.00 480.00 1.00
C 479.96 1.00 480.00 0.00 480.00 0.00
L 0.00 0.00
L 0.00 480.00 Z"/>
</g>
<g fill="None" fill-opacity="0.0" stroke="#1273A2" stroke-opacity="0.42" stroke-width="0.3"><path d="
M 480.00 1.00 
C 485.50 1.00 492.33 1.83 497.00 0.00
L 480.00 0.00
C 480.00 0.00 479.96 1.00 480.00 1.00 Z"/>
</g>
<g fill="None" fill-opacity="0.0" stroke="#1A759C" stroke-opacity="0.95" stroke-width="0.3"><path d="
M 480.00 1.00 
C 416.21 1.00 344.58 24.13 289.23 50.23 C 233.88 76.33 193.14 107.10 149.25 150.25 C 105.36 193.40 76.92 235.92 49.77 290.77 C 22.63 345.62 3.82 417.46 0.00 480.00
L 0.00 484.00
C 1.59 487.60 1.71 494.47 0.00 498.00
L 0.00 544.00
C 4.04 606.67 22.61 679.08 49.92 734.08 C 77.24 789.07 105.95 830.84 149.75 874.25 C 193.55 917.65 234.69 947.71 290.08 973.92 C 345.46 1000.14 417.06 1023.00 481.00 1023.00
C 485.17 1023.00 490.66 1022.18 494.00 1024.00
L 543.00 1024.00
C 666.94 1015.94 784.26 963.99 873.75 874.75 C 963.24 785.52 1015.77 667.90 1024.00 544.00
L 1024.00 498.00
C 1022.40 494.07 1022.30 486.86 1024.00 483.00
L 1024.00 480.00
C 1015.77 356.24 963.50 239.00 874.25 149.75 C 785.00 60.50 667.72 8.31 544.00 0.00
L 539.00 0.00
C 536.06 1.57 529.87 1.71 527.00 0.00
L 497.00 0.00
C 492.33 1.83 485.50 1.00 480.00 1.00
M 535.00 24.00 
C 573.87 27.76 620.88 34.05 657.02 45.98 C 693.17 57.90 725.67 72.00 757.25 90.75 C 788.83 109.51 813.49 126.81 840.25 151.75 C 867.00 176.69 887.93 198.58 908.75 228.25 C 929.58 257.91 945.83 285.66 960.77 320.23 C 975.71 354.80 986.60 393.79 993.33 432.67 C 1000.06 471.55 1002.05 528.22 997.00 568.00 C 991.95 607.78 982.15 648.17 968.69 683.69 C 955.24 719.22 939.78 749.23 919.70 779.70 C 899.61 810.17 880.86 832.87 854.75 858.75 C 828.64 884.64 805.02 903.36 774.25 923.25 C 743.48 943.15 712.80 957.95 676.98 970.98 C 641.15 984.00 600.07 993.64 559.98 997.98 C 519.88 1002.31 463.53 999.29 424.98 992.02 C 386.42 984.76 348.95 973.49 314.78 958.22 C 280.61 942.96 252.25 926.27 223.25 904.75 C 194.24 883.23 171.38 863.17 147.25 835.75 C 123.11 808.34 105.58 783.89 87.23 751.77 C 68.88 719.65 55.07 686.92 44.02 649.98 C 32.98 613.03 25.14 566.88 24.00 526.00 C 22.86 485.12 28.39 432.55 37.99 394.99 C 47.59 357.43 60.77 322.67 77.77 289.77 C 94.77 256.87 111.83 230.58 134.77 202.77 C 157.71 174.96 179.51 152.96 207.75 130.75 C 236.00 108.55 262.30 90.67 295.69 74.69 C 329.09 58.72 364.13 44.08 402.22 36.22 C 440.32 28.36 492.38 19.88 534.00 24.00 Z"/>
</g>
<g fill="None" fill-opacity="0.0" stroke="#1B759C" stroke-opacity="0.54" stroke-width="0.3"><path d="
M 539.00 0.00 
L 527.00 0.00
C 529.87 1.71 536.06 1.57 539.00 0.00 Z"/>
</g>
<g fill="None" fill-opacity="0.0" stroke="#000000" stroke-opacity="0.00" stroke-width="0.3"><path d="
M 1024.00 480.00 
L 1024.00 0.00
L 544.00 0.00
C 667.72 8.31 785.00 60.50 874.25 149.75 C 963.50 239.00 1015.77 356.24 1024.00 480.00 Z"/>
</g>
<g fill="None" fill-opacity="0.0" stroke="#000000" stroke-opacity="0.00" stroke-width="0.3"><path d="
M 534.00 24.00 
C 492.38 19.88 440.32 28.36 402.22 36.22 C 364.13 44.08 329.09 58.72 295.69 74.69 C 262.30 90.67 236.00 108.55 207.75 130.75 C 179.51 152.96 157.71 174.96 134.77 202.77 C 111.83 230.58 94.77 256.87 77.77 289.77 C 60.77 322.67 47.59 357.43 37.99 394.99 C 28.39 432.55 22.86 485.12 24.00 526.00 C 25.14 566.88 32.98 613.03 44.02 649.98 C 55.07 686.92 68.88 719.65 87.23 751.77 C 105.58 783.89 123.11 808.34 147.25 835.75 C 171.38 863.17 194.24 883.23 223.25 904.75 C 252.25 926.27 280.61 942.96 314.78 958.22 C 348.95 973.49 386.42 984.76 424.98 992.02 C 463.53 999.29 519.88 1002.31 559.98 997.98 C 600.07 993.64 641.15 984.00 676.98 970.98 C 712.80 957.95 743.48 943.15 774.25 923.25 C 805.02 903.36 828.64 884.64 854.75 858.75 C 880.86 832.87 899.61 810.17 919.70 779.70 C 939.78 749.23 955.24 719.22 968.69 683.69 C 982.15 648.17 991.95 607.78 997.00 568.00 C 1002.05 528.22 1000.06 471.55 993.33 432.67 C 986.60 393.79 975.71 354.80 960.77 320.23 C 945.83 285.66 929.58 257.91 908.75 228.25 C 887.93 198.58 867.00 176.69 840.25 151.75 C 813.49 126.81 788.83 109.51 757.25 90.75 C 725.67 72.00 693.17 57.90 657.02 45.98 C 620.88 34.05 573.87 27.76 535.00 24.00
M 809.00 189.00 
C 763.64 182.69 724.81 228.90 730.00 273.00 C 735.19 317.10 762.21 347.64 782.77 386.23 C 803.33 424.82 815.01 477.35 806.01 522.01 C 797.01 566.66 782.97 608.94 770.01 652.01 C 757.04 695.08 744.52 736.66 731.00 779.00
C 677.88 621.35 624.88 463.72 572.00 306.00
C 584.21 304.91 599.63 303.22 611.67 302.67 C 623.71 302.12 636.14 299.57 638.33 286.33 C 640.52 273.08 629.17 264.48 616.33 266.33 C 603.49 268.18 589.35 268.02 576.00 269.00 C 562.65 269.98 547.62 270.87 534.00 271.00 C 520.38 271.13 505.62 273.00 492.00 272.00 C 478.38 271.00 463.23 270.96 450.00 270.00 C 436.77 269.04 421.41 269.06 409.00 268.00 C 396.59 266.94 381.69 263.44 373.25 272.25 C 364.81 281.06 367.47 298.12 379.69 300.31 C 391.92 302.49 405.25 305.65 419.01 304.99 C 432.77 304.33 435.55 316.30 438.98 328.02 C 442.40 339.75 447.34 348.93 450.93 360.07 C 454.51 371.22 458.64 380.81 462.32 391.68 C 466.00 402.55 470.11 412.29 473.93 423.07 C 477.74 433.86 481.76 444.47 485.78 455.22 C 489.79 465.98 492.93 476.15 496.98 487.02 C 501.02 497.90 493.98 509.90 490.68 520.68 C 487.38 531.46 483.48 542.17 480.02 553.02 C 476.57 563.88 472.31 575.08 469.02 586.02 C 465.73 596.97 461.36 607.10 458.07 618.07 C 454.79 629.04 450.47 640.11 447.07 651.07 C 443.68 662.03 439.74 672.29 436.22 683.22 C 432.71 694.16 428.98 705.38 425.22 716.22 C 421.47 727.07 418.39 737.78 414.68 748.68 C 410.96 759.58 406.81 770.77 404.00 782.00
C 393.32 762.11 388.11 737.30 380.02 714.98 C 371.94 692.65 364.61 669.58 357.02 646.98 C 349.44 624.37 341.63 601.60 334.07 578.93 C 326.52 556.25 318.38 533.74 311.07 510.93 C 303.77 488.12 295.78 465.64 288.07 442.93 C 280.37 420.21 272.99 397.53 265.22 374.78 C 257.45 352.02 250.33 328.61 242.00 306.00
C 258.11 305.98 276.50 301.27 292.22 301.22 C 307.94 301.17 316.26 277.41 301.75 269.25 C 287.24 261.08 269.64 269.35 253.00 269.00 C 236.35 268.64 216.35 271.02 199.00 271.00 C 181.65 270.98 162.51 273.34 145.00 271.00
C 162.28 242.28 182.91 218.51 208.25 194.25 C 233.59 169.98 257.15 151.70 287.70 133.70 C 318.25 115.70 349.44 101.63 385.02 91.02 C 420.61 80.42 466.64 72.36 506.00 72.00 C 545.36 71.64 594.07 77.92 630.01 87.99 C 665.94 98.06 697.58 111.56 728.75 129.25 C 759.91 146.95 784.25 164.07 809.00 189.00
M 732.00 892.00 
C 764.33 795.67 797.91 705.97 829.93 608.93 C 861.95 511.88 913.68 409.34 897.00 301.00
C 1013.84 498.39 936.68 781.81 732.00 892.00
M 321.00 908.00 
C 289.64 893.16 260.79 874.87 233.75 852.25 C 206.71 829.62 184.26 807.94 162.75 779.25 C 141.23 750.57 124.02 723.08 109.22 688.78 C 94.43 654.47 82.91 617.13 77.02 577.98 C 71.14 538.82 70.63 484.04 77.33 444.33 C 84.03 404.62 94.26 369.58 110.00 333.00
C 123.85 362.56 133.83 396.38 145.98 428.02 C 158.12 459.67 169.06 492.20 180.98 524.02 C 192.89 555.85 204.18 588.11 215.98 620.02 C 227.77 651.94 239.32 684.04 250.98 716.02 C 262.63 748.00 274.60 779.94 285.98 812.02 C 297.35 844.10 310.17 875.72 321.00 908.00
M 658.00 927.00 
C 573.05 957.43 473.91 959.46 387.00 934.00
C 431.09 806.01 475.38 678.15 519.00 550.00
C 567.33 674.24 611.13 801.85 658.00 927.00 Z"/>
</g>
<g fill="None" fill-opacity="0.0" stroke="#1A759B" stroke-opacity="0.99" stroke-width="0.3"><path d="
M 809.00 189.00 
C 784.25 164.07 759.91 146.95 728.75 129.25 C 697.58 111.56 665.94 98.06 630.01 87.99 C 594.07 77.92 545.36 71.64 506.00 72.00 C 466.64 72.36 420.61 80.42 385.02 91.02 C 349.44 101.63 318.25 115.70 287.70 133.70 C 257.15 151.70 233.59 169.98 208.25 194.25 C 182.91 218.51 162.28 242.28 145.00 271.00
C 162.51 273.34 181.65 270.98 199.00 271.00 C 216.35 271.02 236.35 268.64 253.00 269.00 C 269.64 269.35 287.24 261.08 301.75 269.25 C 316.26 277.41 307.94 301.17 292.22 301.22 C 276.50 301.27 258.11 305.98 242.00 306.00
C 250.33 328.61 257.45 352.02 265.22 374.78 C 272.99 397.53 280.37 420.21 288.07 442.93 C 295.78 465.64 303.77 488.12 311.07 510.93 C 318.38 533.74 326.52 556.25 334.07 578.93 C 341.63 601.60 349.44 624.37 357.02 646.98 C 364.61 669.58 371.94 692.65 380.02 714.98 C 388.11 737.30 393.32 762.11 404.00 782.00
C 406.81 770.77 410.96 759.58 414.68 748.68 C 418.39 737.78 421.47 727.07 425.22 716.22 C 428.98 705.38 432.71 694.16 436.22 683.22 C 439.74 672.29 443.68 662.03 447.07 651.07 C 450.47 640.11 454.79 629.04 458.07 618.07 C 461.36 607.10 465.73 596.97 469.02 586.02 C 472.31 575.08 476.57 563.88 480.02 553.02 C 483.48 542.17 487.38 531.46 490.68 520.68 C 493.98 509.90 501.02 497.90 496.98 487.02 C 492.93 476.15 489.79 465.98 485.78 455.22 C 481.76 444.47 477.74 433.86 473.93 423.07 C 470.11 412.29 466.00 402.55 462.32 391.68 C 458.64 380.81 454.51 371.22 450.93 360.07 C 447.34 348.93 442.40 339.75 438.98 328.02 C 435.55 316.30 432.77 304.33 419.01 304.99 C 405.25 305.65 391.92 302.49 379.69 300.31 C 367.47 298.12 364.81 281.06 373.25 272.25 C 381.69 263.44 396.59 266.94 409.00 268.00 C 421.41 269.06 436.77 269.04 450.00 270.00 C 463.23 270.96 478.38 271.00 492.00 272.00 C 505.62 273.00 520.38 271.13 534.00 271.00 C 547.62 270.87 562.65 269.98 576.00 269.00 C 589.35 268.02 603.49 268.18 616.33 266.33 C 629.17 264.48 640.52 273.08 638.33 286.33 C 636.14 299.57 623.71 302.12 611.67 302.67 C 599.63 303.22 584.21 304.91 572.00 306.00
C 624.88 463.72 677.88 621.35 731.00 779.00
C 744.52 736.66 757.04 695.08 770.01 652.01 C 782.97 608.94 797.01 566.66 806.01 522.01 C 815.01 477.35 803.33 424.82 782.77 386.23 C 762.21 347.64 735.19 317.10 730.00 273.00 C 724.81 228.90 763.64 182.69 809.00 189.00 Z"/>
</g>
<g fill="None" fill-opacity="0.0" stroke="#1B759C" stroke-opacity="0.98" stroke-width="0.3"><path d="
M 732.00 892.00 
C 936.68 781.81 1013.84 498.39 897.00 301.00
C 913.68 409.34 861.95 511.88 829.93 608.93 C 797.91 705.97 764.33 795.67 732.00 892.00 Z"/>
</g>
<g fill="None" fill-opacity="0.0" stroke="#1B769C" stroke-opacity="0.98" stroke-width="0.3"><path d="
M 321.00 908.00 
C 310.17 875.72 297.35 844.10 285.98 812.02 C 274.60 779.94 262.63 748.00 250.98 716.02 C 239.32 684.04 227.77 651.94 215.98 620.02 C 204.18 588.11 192.89 555.85 180.98 524.02 C 169.06 492.20 158.12 459.67 145.98 428.02 C 133.83 396.38 123.85 362.56 110.00 333.00
C 94.26 369.58 84.03 404.62 77.33 444.33 C 70.63 484.04 71.14 538.82 77.02 577.98 C 82.91 617.13 94.43 654.47 109.22 688.78 C 124.02 723.08 141.23 750.57 162.75 779.25 C 184.26 807.94 206.71 829.62 233.75 852.25 C 260.79 874.87 289.64 893.16 321.00 908.00 Z"/>
</g>
<g fill="None" fill-opacity="0.0" stroke="#1B759C" stroke-opacity="0.55" stroke-width="0.3"><path d="
M 1024.00 498.00 
L 1024.00 483.00
C 1022.30 486.86 1022.40 494.07 1024.00 498.00 Z"/>
</g>
<g fill="None" fill-opacity="0.0" stroke="#1A759C" stroke-opacity="0.53" stroke-width="0.3"><path d="
M 0.00 498.00 
C 1.71 494.47 1.59 487.60 0.00 484.00
L 0.00 498.00 Z"/>
</g>
<g fill="None" fill-opacity="0.0" stroke="#000000" stroke-opacity="0.00" stroke-width="0.3"><path d="
M 0.00 1024.00 
L 481.00 1024.00
C 481.00 1023.50 481.00 1023.00 481.00 1023.00
C 417.06 1023.00 345.46 1000.14 290.08 973.92 C 234.69 947.71 193.55 917.65 149.75 874.25 C 105.95 830.84 77.24 789.07 49.92 734.08 C 22.61 679.08 4.04 606.67 0.00 544.00
L 0.00 1024.00 Z"/>
</g>
<g fill="None" fill-opacity="0.0" stroke="#000000" stroke-opacity="0.00" stroke-width="0.3"><path d="
M 543.00 1024.00 
L 1024.00 1024.00
L 1024.00 544.00
C 1015.77 667.90 963.24 785.52 873.75 874.75 C 784.26 963.99 666.94 1015.94 543.00 1024.00 Z"/>
</g>
<g fill="None" fill-opacity="0.0" stroke="#1B769C" stroke-opacity="0.99" stroke-width="0.3"><path d="
M 658.00 927.00 
C 611.13 801.85 567.33 674.24 519.00 550.00
C 475.38 678.15 431.09 806.01 387.00 934.00
C 473.91 959.46 573.05 957.43 658.00 927.00 Z"/>
</g>
<g fill="None" fill-opacity="0.0" stroke="#1B749C" stroke-opacity="0.38" stroke-width="0.3"><path d="
M 481.00 1024.00 
L 494.00 1024.00
C 490.66 1022.18 485.17 1023.00 481.00 1023.00
C 481.00 1023.00 481.00 1023.50 481.00 1024.00 Z"/>
</g>
<g fill="#000000" fill-opacity="0.00" stroke="None">
<path d="
M 0.00 480.00 
C 3.82 417.46 22.63 345.62 49.77 290.77 C 76.92 235.92 105.36 193.40 149.25 150.25 C 193.14 107.10 233.88 76.33 289.23 50.23 C 344.58 24.13 416.21 1.00 480.00 1.00
C 479.96 1.00 480.00 0.00 480.00 0.00
L 0.00 0.00
L 0.00 480.00 Z"/>
</g>
<g fill="#1273A2" fill-opacity="0.42" stroke="None">
<path d="
M 480.00 1.00 
C 485.50 1.00 492.33 1.83 497.00 0.00
L 480.00 0.00
C 480.00 0.00 479.96 1.00 480.00 1.00 Z"/>
</g>
<g fill="#1A759C" fill-opacity="0.95" stroke="None">
<path d="
M 480.00 1.00 
C 416.21 1.00 344.58 24.13 289.23 50.23 C 233.88 76.33 193.14 107.10 149.25 150.25 C 105.36 193.40 76.92 235.92 49.77 290.77 C 22.63 345.62 3.82 417.46 0.00 480.00
L 0.00 484.00
C 1.59 487.60 1.71 494.47 0.00 498.00
L 0.00 544.00
C 4.04 606.67 22.61 679.08 49.92 734.08 C 77.24 789.07 105.95 830.84 149.75 874.25 C 193.55 917.65 234.69 947.71 290.08 973.92 C 345.46 1000.14 417.06 1023.00 481.00 1023.00
C 485.17 1023.00 490.66 1022.18 494.00 1024.00
L 543.00 1024.00
C 666.94 1015.94 784.26 963.99 873.75 874.75 C 963.24 785.52 1015.77 667.90 1024.00 544.00
L 1024.00 498.00
C 1022.40 494.07 1022.30 486.86 1024.00 483.00
L 1024.00 480.00
C 1015.77 356.24 963.50 239.00 874.25 149.75 C 785.00 60.50 667.72 8.31 544.00 0.00
L 539.00 0.00
C 536.06 1.57 529.87 1.71 527.00 0.00
L 497.00 0.00
C 492.33 1.83 485.50 1.00 480.00 1.00
M 535.00 24.00 
C 573.87 27.76 620.88 34.05 657.02 45.98 C 693.17 57.90 725.67 72.00 757.25 90.75 C 788.83 109.51 813.49 126.81 840.25 151.75 C 867.00 176.69 887.93 198.58 908.75 228.25 C 929.58 257.91 945.83 285.66 960.77 320.23 C 975.71 354.80 986.60 393.79 993.33 432.67 C 1000.06 471.55 1002.05 528.22 997.00 568.00 C 991.95 607.78 982.15 648.17 968.69 683.69 C 955.24 719.22 939.78 749.23 919.70 779.70 C 899.61 810.17 880.86 832.87 854.75 858.75 C 828.64 884.64 805.02 903.36 774.25 923.25 C 743.48 943.15 712.80 957.95 676.98 970.98 C 641.15 984.00 600.07 993.64 559.98 997.98 C 519.88 1002.31 463.53 999.29 424.98 992.02 C 386.42 984.76 348.95 973.49 314.78 958.22 C 280.61 942.96 252.25 926.27 223.25 904.75 C 194.24 883.23 171.38 863.17 147.25 835.75 C 123.11 808.34 105.58 783.89 87.23 751.77 C 68.88 719.65 55.07 686.92 44.02 649.98 C 32.98 613.03 25.14 566.88 24.00 526.00 C 22.86 485.12 28.39 432.55 37.99 394.99 C 47.59 357.43 60.77 322.67 77.77 289.77 C 94.77 256.87 111.83 230.58 134.77 202.77 C 157.71 174.96 179.51 152.96 207.75 130.75 C 236.00 108.55 262.30 90.67 295.69 74.69 C 329.09 58.72 364.13 44.08 402.22 36.22 C 440.32 28.36 492.38 19.88 534.00 24.00 Z"/>
</g>
<g fill="#1B759C" fill-opacity="0.54" stroke="None">
<path d="
M 539.00 0.00 
L 527.00 0.00
C 529.87 1.71 536.06 1.57 539.00 0.00 Z"/>
</g>
<g fill="#000000" fill-opacity="0.00" stroke="None">
<path d="
M 1024.00 480.00 
L 1024.00 0.00
L 544.00 0.00
C 667.72 8.31 785.00 60.50 874.25 149.75 C 963.50 239.00 1015.77 356.24 1024.00 480.00 Z"/>
</g>
<g fill="#000000" fill-opacity="0.00" stroke="None">
<path d="
M 534.00 24.00 
C 492.38 19.88 440.32 28.36 402.22 36.22 C 364.13 44.08 329.09 58.72 295.69 74.69 C 262.30 90.67 236.00 108.55 207.75 130.75 C 179.51 152.96 157.71 174.96 134.77 202.77 C 111.83 230.58 94.77 256.87 77.77 289.77 C 60.77 322.67 47.59 357.43 37.99 394.99 C 28.39 432.55 22.86 485.12 24.00 526.00 C 25.14 566.88 32.98 613.03 44.02 649.98 C 55.07 686.92 68.88 719.65 87.23 751.77 C 105.58 783.89 123.11 808.34 147.25 835.75 C 171.38 863.17 194.24 883.23 223.25 904.75 C 252.25 926.27 280.61 942.96 314.78 958.22 C 348.95 973.49 386.42 984.76 424.98 992.02 C 463.53 999.29 519.88 1002.31 559.98 997.98 C 600.07 993.64 641.15 984.00 676.98 970.98 C 712.80 957.95 743.48 943.15 774.25 923.25 C 805.02 903.36 828.64 884.64 854.75 858.75 C 880.86 832.87 899.61 810.17 919.70 779.70 C 939.78 749.23 955.24 719.22 968.69 683.69 C 982.15 648.17 991.95 607.78 997.00 568.00 C 1002.05 528.22 1000.06 471.55 993.33 432.67 C 986.60 393.79 975.71 354.80 960.77 320.23 C 945.83 285.66 929.58 257.91 908.75 228.25 C 887.93 198.58 867.00 176.69 840.25 151.75 C 813.49 126.81 788.83 109.51 757.25 90.75 C 725.67 72.00 693.17 57.90 657.02 45.98 C 620.88 34.05 573.87 27.76 535.00 24.00
M 809.00 189.00 
C 763.64 182.69 724.81 228.90 730.00 273.00 C 735.19 317.10 762.21 347.64 782.77 386.23 C 803.33 424.82 815.01 477.35 806.01 522.01 C 797.01 566.66 782.97 608.94 770.01 652.01 C 757.04 695.08 744.52 736.66 731.00 779.00
C 677.88 621.35 624.88 463.72 572.00 306.00
C 584.21 304.91 599.63 303.22 611.67 302.67 C 623.71 302.12 636.14 299.57 638.33 286.33 C 640.52 273.08 629.17 264.48 616.33 266.33 C 603.49 268.18 589.35 268.02 576.00 269.00 C 562.65 269.98 547.62 270.87 534.00 271.00 C 520.38 271.13 505.62 273.00 492.00 272.00 C 478.38 271.00 463.23 270.96 450.00 270.00 C 436.77 269.04 421.41 269.06 409.00 268.00 C 396.59 266.94 381.69 263.44 373.25 272.25 C 364.81 281.06 367.47 298.12 379.69 300.31 C 391.92 302.49 405.25 305.65 419.01 304.99 C 432.77 304.33 435.55 316.30 438.98 328.02 C 442.40 339.75 447.34 348.93 450.93 360.07 C 454.51 371.22 458.64 380.81 462.32 391.68 C 466.00 402.55 470.11 412.29 473.93 423.07 C 477.74 433.86 481.76 444.47 485.78 455.22 C 489.79 465.98 492.93 476.15 496.98 487.02 C 501.02 497.90 493.98 509.90 490.68 520.68 C 487.38 531.46 483.48 542.17 480.02 553.02 C 476.57 563.88 472.31 575.08 469.02 586.02 C 465.73 596.97 461.36 607.10 458.07 618.07 C 454.79 629.04 450.47 640.11 447.07 651.07 C 443.68 662.03 439.74 672.29 436.22 683.22 C 432.71 694.16 428.98 705.38 425.22 716.22 C 421.47 727.07 418.39 737.78 414.68 748.68 C 410.96 759.58 406.81 770.77 404.00 782.00
C 393.32 762.11 388.11 737.30 380.02 714.98 C 371.94 692.65 364.61 669.58 357.02 646.98 C 349.44 624.37 341.63 601.60 334.07 578.93 C 326.52 556.25 318.38 533.74 311.07 510.93 C 303.77 488.12 295.78 465.64 288.07 442.93 C 280.37 420.21 272.99 397.53 265.22 374.78 C 257.45 352.02 250.33 328.61 242.00 306.00
C 258.11 305.98 276.50 301.27 292.22 301.22 C 307.94 301.17 316.26 277.41 301.75 269.25 C 287.24 261.08 269.64 269.35 253.00 269.00 C 236.35 268.64 216.35 271.02 199.00 271.00 C 181.65 270.98 162.51 273.34 145.00 271.00
C 162.28 242.28 182.91 218.51 208.25 194.25 C 233.59 169.98 257.15 151.70 287.70 133.70 C 318.25 115.70 349.44 101.63 385.02 91.02 C 420.61 80.42 466.64 72.36 506.00 72.00 C 545.36 71.64 594.07 77.92 630.01 87.99 C 665.94 98.06 697.58 111.56 728.75 129.25 C 759.91 146.95 784.25 164.07 809.00 189.00
M 732.00 892.00 
C 764.33 795.67 797.91 705.97 829.93 608.93 C 861.95 511.88 913.68 409.34 897.00 301.00
C 1013.84 498.39 936.68 781.81 732.00 892.00
M 321.00 908.00 
C 289.64 893.16 260.79 874.87 233.75 852.25 C 206.71 829.62 184.26 807.94 162.75 779.25 C 141.23 750.57 124.02 723.08 109.22 688.78 C 94.43 654.47 82.91 617.13 77.02 577.98 C 71.14 538.82 70.63 484.04 77.33 444.33 C 84.03 404.62 94.26 369.58 110.00 333.00
C 123.85 362.56 133.83 396.38 145.98 428.02 C 158.12 459.67 169.06 492.20 180.98 524.02 C 192.89 555.85 204.18 588.11 215.98 620.02 C 227.77 651.94 239.32 684.04 250.98 716.02 C 262.63 748.00 274.60 779.94 285.98 812.02 C 297.35 844.10 310.17 875.72 321.00 908.00
M 658.00 927.00 
C 573.05 957.43 473.91 959.46 387.00 934.00
C 431.09 806.01 475.38 678.15 519.00 550.00
C 567.33 674.24 611.13 801.85 658.00 927.00 Z"/>
</g>
<g fill="#1A759B" fill-opacity="0.99" stroke="None">
<path d="
M 809.00 189.00 
C 784.25 164.07 759.91 146.95 728.75 129.25 C 697.58 111.56 665.94 98.06 630.01 87.99 C 594.07 77.92 545.36 71.64 506.00 72.00 C 466.64 72.36 420.61 80.42 385.02 91.02 C 349.44 101.63 318.25 115.70 287.70 133.70 C 257.15 151.70 233.59 169.98 208.25 194.25 C 182.91 218.51 162.28 242.28 145.00 271.00
C 162.51 273.34 181.65 270.98 199.00 271.00 C 216.35 271.02 236.35 268.64 253.00 269.00 C 269.64 269.35 287.24 261.08 301.75 269.25 C 316.26 277.41 307.94 301.17 292.22 301.22 C 276.50 301.27 258.11 305.98 242.00 306.00
C 250.33 328.61 257.45 352.02 265.22 374.78 C 272.99 397.53 280.37 420.21 288.07 442.93 C 295.78 465.64 303.77 488.12 311.07 510.93 C 318.38 533.74 326.52 556.25 334.07 578.93 C 341.63 601.60 349.44 624.37 357.02 646.98 C 364.61 669.58 371.94 692.65 380.02 714.98 C 388.11 737.30 393.32 762.11 404.00 782.00
C 406.81 770.77 410.96 759.58 414.68 748.68 C 418.39 737.78 421.47 727.07 425.22 716.22 C 428.98 705.38 432.71 694.16 436.22 683.22 C 439.74 672.29 443.68 662.03 447.07 651.07 C 450.47 640.11 454.79 629.04 458.07 618.07 C 461.36 607.10 465.73 596.97 469.02 586.02 C 472.31 575.08 476.57 563.88 480.02 553.02 C 483.48 542.17 487.38 531.46 490.68 520.68 C 493.98 509.90 501.02 497.90 496.98 487.02 C 492.93 476.15 489.79 465.98 485.78 455.22 C 481.76 444.47 477.74 433.86 473.93 423.07 C 470.11 412.29 466.00 402.55 462.32 391.68 C 458.64 380.81 454.51 371.22 450.93 360.07 C 447.34 348.93 442.40 339.75 438.98 328.02 C 435.55 316.30 432.77 304.33 419.01 304.99 C 405.25 305.65 391.92 302.49 379.69 300.31 C 367.47 298.12 364.81 281.06 373.25 272.25 C 381.69 263.44 396.59 266.94 409.00 268.00 C 421.41 269.06 436.77 269.04 450.00 270.00 C 463.23 270.96 478.38 271.00 492.00 272.00 C 505.62 273.00 520.38 271.13 534.00 271.00 C 547.62 270.87 562.65 269.98 576.00 269.00 C 589.35 268.02 603.49 268.18 616.33 266.33 C 629.17 264.48 640.52 273.08 638.33 286.33 C 636.14 299.57 623.71 302.12 611.67 302.67 C 599.63 303.22 584.21 304.91 572.00 306.00
C 624.88 463.72 677.88 621.35 731.00 779.00
C 744.52 736.66 757.04 695.08 770.01 652.01 C 782.97 608.94 797.01 566.66 806.01 522.01 C 815.01 477.35 803.33 424.82 782.77 386.23 C 762.21 347.64 735.19 317.10 730.00 273.00 C 724.81 228.90 763.64 182.69 809.00 189.00 Z"/>
</g>
<g fill="#1B759C" fill-opacity="0.98" stroke="None">
<path d="
M 732.00 892.00 
C 936.68 781.81 1013.84 498.39 897.00 301.00
C 913.68 409.34 861.95 511.88 829.93 608.93 C 797.91 705.97 764.33 795.67 732.00 892.00 Z"/>
</g>
<g fill="#1B769C" fill-opacity="0.98" stroke="None">
<path d="
M 321.00 908.00 
C 310.17 875.72 297.35 844.10 285.98 812.02 C 274.60 779.94 262.63 748.00 250.98 716.02 C 239.32 684.04 227.77 651.94 215.98 620.02 C 204.18 588.11 192.89 555.85 180.98 524.02 C 169.06 492.20 158.12 459.67 145.98 428.02 C 133.83 396.38 123.85 362.56 110.00 333.00
C 94.26 369.58 84.03 404.62 77.33 444.33 C 70.63 484.04 71.14 538.82 77.02 577.98 C 82.91 617.13 94.43 654.47 109.22 688.78 C 124.02 723.08 141.23 750.57 162.75 779.25 C 184.26 807.94 206.71 829.62 233.75 852.25 C 260.79 874.87 289.64 893.16 321.00 908.00 Z"/>
</g>
<g fill="#1B759C" fill-opacity="0.55" stroke="None">
<path d="
M 1024.00 498.00 
L 1024.00 483.00
C 1022.30 486.86 1022.40 494.07 1024.00 498.00 Z"/>
</g>
<g fill="#1A759C" fill-opacity="0.53" stroke="None">
<path d="
M 0.00 498.00 
C 1.71 494.47 1.59 487.60 0.00 484.00
L 0.00 498.00 Z"/>
</g>
<g fill="#000000" fill-opacity="0.00" stroke="None">
<path d="
M 0.00 1024.00 
L 481.00 1024.00
C 481.00 1023.50 481.00 1023.00 481.00 1023.00
C 417.06 1023.00 345.46 1000.14 290.08 973.92 C 234.69 947.71 193.55 917.65 149.75 874.25 C 105.95 830.84 77.24 789.07 49.92 734.08 C 22.61 679.08 4.04 606.67 0.00 544.00
L 0.00 1024.00 Z"/>
</g>
<g fill="#000000" fill-opacity="0.00" stroke="None">
<path d="
M 543.00 1024.00 
L 1024.00 1024.00
L 1024.00 544.00
C 1015.77 667.90 963.24 785.52 873.75 874.75 C 784.26 963.99 666.94 1015.94 543.00 1024.00 Z"/>
</g>
<g fill="#1B769C" fill-opacity="0.99" stroke="None">
<path d="
M 658.00 927.00 
C 611.13 801.85 567.33 674.24 519.00 550.00
C 475.38 678.15 431.09 806.01 387.00 934.00
C 473.91 959.46 573.05 957.43 658.00 927.00 Z"/>
</g>
<g fill="#1B749C" fill-opacity="0.38" stroke="None">
<path d="
M 481.00 1024.00 
L 494.00 1024.00
C 490.66 1022.18 485.17 1023.00 481.00 1023.00
C 481.00 1023.00 481.00 1023.50 481.00 1024.00 Z"/>
</g>
</svg>