<svg xmlns="http://www.w3.org/2000/svg" xmlns:v="https://svgstorm.com"
viewBox = "0 0 63 72"
width="63"
height="72">
<g fill="None" fill-opacity="0.0" stroke="#8FA2EF" stroke-opacity="0.32" stroke-width="0.3"><path d="
M 0.00 1.00 
C 21.00 1.00 42.00 1.00 63.00 1.00
L 63.00 0.00
L 0.00 0.00
L 0.00 1.00 Z"/>
</g>
<g fill="None" fill-opacity="0.0" stroke="#2750E5" stroke-opacity="0.99" stroke-width="0.3"><path d="
M 0.00 3.00 
C 1.02 3.05 0.91 4.32 1.00 5.00
C 1.18 6.27 1.00 7.71 1.00 9.00
C 1.00 9.50 1.00 10.50 1.00 11.00
C 1.00 11.50 1.00 12.00 1.00 12.00
C 2.34 13.57 2.04 15.79 2.00 18.00
C 1.98 19.00 2.00 20.00 2.00 21.00
C 2.00 21.50 2.00 22.00 2.00 22.00
C 2.00 23.00 2.00 24.00 2.00 25.00
C 2.17 25.99 2.94 27.43 3.00 29.00
C 3.05 30.33 3.00 31.67 3.00 33.00
C 3.00 33.50 3.00 34.00 3.00 34.00
C 3.00 35.67 3.00 37.33 3.00 39.00
C 3.17 39.79 3.99 40.62 4.00 42.00
C 4.00 42.50 4.03 43.50 4.00 44.00
C 3.95 44.99 4.11 46.02 4.00 47.00
C 4.14 47.51 4.86 48.05 5.00 49.00
C 5.23 50.59 5.00 52.39 5.00 54.00
C 5.00 54.50 5.00 55.50 5.00 56.00
C 5.00 57.67 5.00 59.33 5.00 61.00
C 5.20 61.65 5.91 61.87 6.00 63.00
C 6.04 63.50 5.77 64.84 6.00 65.00
C 6.50 65.05 7.00 65.00 7.00 65.00
C 7.50 65.00 8.00 65.00 8.00 65.00
C 8.35 65.03 8.74 65.88 9.00 66.00
C 9.50 66.00 10.00 66.00 10.00 66.00
C 10.50 66.00 11.00 66.00 11.00 66.00
C 11.35 66.03 11.74 66.89 12.00 67.00
C 12.50 67.00 13.50 67.00 14.00 67.00
C 14.50 67.00 15.00 67.00 15.00 67.00
C 15.35 67.03 15.74 67.88 16.00 68.00
C 16.50 68.00 17.00 68.00 17.00 68.00
C 17.50 68.00 18.53 67.88 19.00 68.00
C 19.35 68.09 19.74 68.88 20.00 69.00
C 20.50 69.00 21.00 69.00 21.00 69.00
C 21.50 69.00 22.00 69.00 22.00 69.00
C 23.58 68.90 23.03 69.36 24.00 70.00
C 24.50 70.00 25.00 70.00 25.00 70.00
C 25.50 70.00 26.00 70.00 26.00 70.00
C 26.35 70.03 26.74 70.88 27.00 71.00
C 27.50 71.00 28.00 71.00 28.00 71.00
C 28.50 71.00 29.00 71.00 29.00 71.00
C 29.50 71.00 30.00 71.00 30.00 71.00
C 31.00 71.00 32.00 71.00 33.00 71.00
C 33.50 71.00 34.00 71.00 34.00 71.00
C 34.50 71.00 35.50 71.00 36.00 71.00
C 36.26 70.89 36.65 70.03 37.00 70.00
C 37.50 69.95 38.00 70.00 38.00 70.00
C 38.50 70.00 39.50 70.00 40.00 70.00
C 40.26 69.89 40.65 69.03 41.00 69.00
C 41.50 68.95 42.00 69.00 42.00 69.00
C 42.50 69.00 43.00 69.00 43.00 69.00
C 43.26 68.88 43.65 68.03 44.00 68.00
C 44.50 67.95 45.00 68.00 45.00 68.00
C 45.50 68.00 46.00 68.00 46.00 68.00
C 46.50 68.00 47.00 68.00 47.00 68.00
C 47.26 67.88 47.65 67.03 48.00 67.00
C 48.50 66.95 49.00 67.00 49.00 67.00
C 49.50 67.00 50.00 67.00 50.00 67.00
C 50.26 66.88 50.65 66.03 51.00 66.00
C 51.50 65.95 52.00 66.00 52.00 66.00
C 52.50 66.00 53.00 66.00 53.00 66.00
C 53.50 66.00 54.00 66.00 54.00 66.00
C 54.26 65.88 54.65 65.03 55.00 65.00
C 55.50 64.95 56.00 65.00 56.00 65.00
C 56.50 65.00 57.00 65.00 57.00 65.00
C 57.26 64.75 56.99 62.40 57.00 62.00
C 57.03 60.33 57.82 59.02 58.00 58.00
C 58.00 57.00 58.00 56.00 58.00 55.00
C 58.00 54.50 58.02 53.50 58.00 53.00
C 57.95 51.28 58.84 50.02 59.00 49.00
C 59.00 47.33 59.00 45.67 59.00 44.00
C 59.00 43.00 59.00 42.00 59.00 41.00
C 59.00 40.50 59.00 39.50 59.00 39.00
C 59.01 37.54 59.84 36.83 60.00 36.00
C 60.00 35.00 60.00 34.00 60.00 33.00
C 60.00 31.35 59.87 29.64 60.00 28.00
C 60.11 26.69 60.85 25.74 61.00 25.00
C 61.00 23.67 61.00 22.33 61.00 21.00
C 61.00 20.50 60.75 19.26 61.00 19.00
C 61.28 18.70 60.99 16.44 61.00 16.00
C 61.03 14.12 61.61 13.29 62.00 12.00
C 62.00 11.50 62.00 10.50 62.00 10.00
C 62.00 8.35 61.87 6.64 62.00 5.00
C 62.08 4.00 61.55 2.27 63.00 2.00
L 63.00 1.00
C 42.00 1.00 21.00 1.00 0.00 1.00
L 0.00 3.00
M 30.00 58.00 
C 30.47 58.40 27.56 56.83 28.00 57.00
C 23.64 56.00 19.39 54.97 15.00 54.00
C 15.00 52.00 15.00 50.00 15.00 48.00
C 14.71 46.27 13.16 43.41 14.00 41.00
C 16.52 41.56 20.30 39.81 22.00 42.00
C 22.99 43.13 21.25 46.66 22.00 48.00
C 29.99 51.28 44.77 50.68 41.00 38.00
C 37.12 37.38 30.62 38.83 27.00 38.00 C 23.38 37.17 15.99 40.06 14.00 37.00
C 13.77 36.65 14.08 35.49 14.00 35.00
C 13.22 33.35 12.55 31.27 13.00 29.00
C 22.67 29.00 32.33 29.00 42.00 29.00
C 42.38 28.23 41.77 26.84 42.00 26.00
C 42.03 24.67 41.97 23.33 42.00 22.00
C 32.00 22.00 22.00 22.00 12.00 22.00
C 12.00 21.00 12.00 20.00 12.00 19.00
C 11.82 17.75 11.95 16.26 12.00 15.00
C 12.13 11.45 26.70 13.00 31.00 13.00
C 31.00 10.67 31.00 8.33 31.00 6.00
C 39.67 6.00 48.33 6.00 57.00 6.00
C 56.50 24.53 53.08 42.34 53.00 61.00
C 45.57 62.24 38.53 64.97 31.00 66.00
C 30.83 63.28 31.61 60.33 30.00 58.00 Z"/>
</g>
<g fill="None" fill-opacity="0.0" stroke="#5D7CEA" stroke-opacity="0.51" stroke-width="0.3"><path d="
M 62.00 5.00 
C 62.05 4.85 63.00 5.00 63.00 5.00
L 63.00 2.00
C 61.55 2.27 62.08 4.00 62.00 5.00 Z"/>
</g>
<g fill="None" fill-opacity="0.0" stroke="#5D7AEB" stroke-opacity="0.51" stroke-width="0.3"><path d="
M 0.00 5.00 
C 0.50 5.00 1.00 5.00 1.00 5.00
C 0.91 4.32 1.02 3.05 0.00 3.00
L 0.00 5.00 Z"/>
</g>
<g fill="None" fill-opacity="0.0" stroke="#A0B0F3" stroke-opacity="0.25" stroke-width="0.3"><path d="
M 0.00 9.00 
C 0.50 9.00 1.00 9.00 1.00 9.00
C 1.00 7.71 1.18 6.27 1.00 5.00
C 1.00 5.00 0.50 5.00 0.00 5.00
L 0.00 9.00 Z"/>
</g>
<g fill="None" fill-opacity="0.0" stroke="#B1BDF5" stroke-opacity="0.18" stroke-width="0.3"><path d="
M 62.00 10.00 
C 62.34 9.77 63.00 10.00 63.00 10.00
L 63.00 5.00
C 63.00 5.00 62.05 4.85 62.00 5.00
C 61.87 6.64 62.00 8.35 62.00 10.00 Z"/>
</g>
<g fill="None" fill-opacity="0.0" stroke="#2B66F0" stroke-opacity="1.00" stroke-width="0.3"><path d="
M 31.00 13.00 
C 38.00 13.00 45.00 13.00 52.00 13.00
C 51.89 14.00 52.47 15.73 51.00 16.00
C 51.84 28.65 46.84 41.13 48.00 54.00
C 41.99 55.27 36.31 57.77 30.00 58.00
C 31.61 60.33 30.83 63.28 31.00 66.00
C 38.53 64.97 45.57 62.24 53.00 61.00
C 53.08 42.34 56.50 24.53 57.00 6.00
C 48.33 6.00 39.67 6.00 31.00 6.00
C 31.00 8.33 31.00 10.67 31.00 13.00 Z"/>
</g>
<g fill="None" fill-opacity="0.0" stroke="#D0D7FF" stroke-opacity="0.05" stroke-width="0.3"><path d="
M 0.00 11.00 
C 0.50 11.00 1.00 11.00 1.00 11.00
C 1.00 10.50 1.00 9.50 1.00 9.00
C 1.00 9.00 0.50 9.00 0.00 9.00
L 0.00 11.00 Z"/>
</g>
<g fill="None" fill-opacity="0.0" stroke="#000000" stroke-opacity="0.00" stroke-width="0.3"><path d="
M 62.00 12.00 
C 62.00 13.33 62.00 14.67 62.00 16.00
C 62.00 16.97 62.12 18.04 62.00 19.00
C 61.85 20.24 61.22 20.25 61.00 21.00
C 61.00 22.33 61.00 23.67 61.00 25.00
C 61.00 26.00 61.00 27.00 61.00 28.00
C 61.01 30.01 60.24 31.66 60.00 33.00
C 60.00 34.00 60.00 35.00 60.00 36.00
C 60.00 37.00 60.00 38.00 60.00 39.00
C 60.00 39.50 60.00 40.50 60.00 41.00
C 59.99 42.49 59.18 43.13 59.00 44.00
C 59.00 45.67 59.00 47.33 59.00 49.00
C 59.00 50.29 59.18 51.73 59.00 53.00
C 58.84 54.12 58.18 54.35 58.00 55.00
C 58.00 56.00 58.00 57.00 58.00 58.00
C 58.00 59.32 58.09 60.68 58.00 62.00
C 57.93 62.98 58.45 64.76 57.00 65.00
C 57.00 65.00 56.50 65.00 56.00 65.00
C 55.74 65.12 55.35 65.97 55.00 66.00
C 54.50 66.05 54.00 66.00 54.00 66.00
C 54.00 66.00 53.50 66.00 53.00 66.00
C 52.74 66.12 52.35 66.97 52.00 67.00
C 51.50 67.05 51.00 67.00 51.00 67.00
C 50.50 67.00 50.00 67.00 50.00 67.00
C 50.00 67.00 49.50 67.00 49.00 67.00
C 48.74 67.12 48.35 67.97 48.00 68.00
C 47.50 68.05 47.00 68.00 47.00 68.00
C 47.00 68.00 46.50 68.00 46.00 68.00
C 45.74 68.12 45.35 68.97 45.00 69.00
C 44.50 69.05 44.00 69.00 44.00 69.00
C 43.50 69.00 43.00 69.00 43.00 69.00
C 43.00 69.00 42.50 69.00 42.00 69.00
C 41.74 69.12 41.35 69.97 41.00 70.00
C 40.50 70.05 40.00 70.00 40.00 70.00
C 39.50 70.00 38.50 70.00 38.00 70.00
C 37.74 70.11 37.35 70.97 37.00 71.00
C 36.50 71.05 36.00 71.00 36.00 71.00
C 35.50 71.00 34.50 71.00 34.00 71.00
C 34.25 71.25 34.00 72.00 34.00 72.00
L 63.00 72.00
L 63.00 10.00
C 63.00 10.00 62.34 9.77 62.00 10.00
C 62.00 10.50 62.00 11.50 62.00 12.00 Z"/>
</g>
<g fill="None" fill-opacity="0.0" stroke="#000000" stroke-opacity="0.00" stroke-width="0.3"><path d="
M 0.00 72.00 
L 28.00 72.00
C 28.00 71.50 28.00 71.00 28.00 71.00
C 28.00 71.00 27.50 71.00 27.00 71.00
C 26.50 71.00 26.00 71.00 26.00 71.00
C 25.65 70.97 25.26 70.12 25.00 70.00
C 25.00 70.00 24.50 70.00 24.00 70.00
C 23.50 70.00 22.47 70.12 22.00 70.00
C 21.65 69.91 21.26 69.12 21.00 69.00
C 21.00 69.00 20.50 69.00 20.00 69.00
C 19.50 69.00 19.00 69.00 19.00 69.00
C 17.42 69.10 17.97 68.64 17.00 68.00
C 17.00 68.00 16.50 68.00 16.00 68.00
C 15.50 68.00 15.00 68.00 15.00 68.00
C 14.65 67.97 14.26 67.11 14.00 67.00
C 13.50 67.00 12.50 67.00 12.00 67.00
C 11.50 67.00 11.00 67.00 11.00 67.00
C 10.65 66.97 10.26 66.12 10.00 66.00
C 10.00 66.00 9.50 66.00 9.00 66.00
C 8.50 66.00 8.00 66.00 8.00 66.00
C 7.65 65.97 7.26 65.12 7.00 65.00
C 7.00 65.00 6.50 65.05 6.00 65.00
C 5.01 64.91 5.05 63.72 5.00 63.00
C 4.96 62.50 5.00 61.50 5.00 61.00
C 5.00 59.33 5.00 57.67 5.00 56.00
C 4.82 55.42 4.15 55.02 4.00 54.00
C 3.77 52.41 4.00 50.61 4.00 49.00
C 4.00 48.50 3.95 47.49 4.00 47.00
C 4.11 46.02 3.95 44.99 4.00 44.00
C 3.85 43.46 3.12 43.00 3.00 42.00
C 2.88 41.04 3.00 39.97 3.00 39.00
C 3.00 37.33 3.00 35.67 3.00 34.00
C 2.88 33.74 2.11 33.35 2.00 33.00
C 1.67 31.91 2.00 30.14 2.00 29.00
C 2.00 27.67 2.00 26.33 2.00 25.00
C 2.00 24.00 2.00 23.00 2.00 22.00
C 1.87 21.73 0.92 21.26 1.00 21.00
C 1.25 20.21 1.00 18.83 1.00 18.00
C 1.00 16.00 1.00 14.00 1.00 12.00
C 1.00 12.00 1.00 11.50 1.00 11.00
C 1.00 11.00 0.50 11.00 0.00 11.00
L 0.00 72.00 Z"/>
</g>
<g fill="None" fill-opacity="0.0" stroke="#607EEC" stroke-opacity="0.49" stroke-width="0.3"><path d="
M 1.00 18.00 
C 1.27 17.75 2.00 18.00 2.00 18.00
C 2.04 15.79 2.34 13.57 1.00 12.00
C 1.00 14.00 1.00 16.00 1.00 18.00 Z"/>
</g>
<g fill="None" fill-opacity="0.0" stroke="#5A79EA" stroke-opacity="0.52" stroke-width="0.3"><path d="
M 61.00 16.00 
C 61.27 15.75 62.00 16.00 62.00 16.00
C 62.00 14.67 62.00 13.33 62.00 12.00
C 61.61 13.29 61.03 14.12 61.00 16.00 Z"/>
</g>
<g fill="None" fill-opacity="0.0" stroke="#6C8DEE" stroke-opacity="1.00" stroke-width="0.3"><path d="
M 12.00 15.00 
C 13.54 11.77 28.10 14.46 32.00 14.00 C 35.90 13.54 49.43 12.54 51.00 16.00
C 52.47 15.73 51.89 14.00 52.00 13.00
C 45.00 13.00 38.00 13.00 31.00 13.00
C 26.70 13.00 12.13 11.45 12.00 15.00 Z"/>
</g>
<g fill="None" fill-opacity="0.0" stroke="#F3F4F6" stroke-opacity="1.00" stroke-width="0.3"><path d="
M 12.00 15.00 
C 11.95 16.26 11.82 17.75 12.00 19.00
C 13.37 23.25 21.82 20.32 26.00 21.00 C 30.18 21.68 38.45 20.49 43.00 21.00
C 42.61 22.57 43.94 25.22 42.00 26.00
C 41.77 26.84 42.38 28.23 42.00 29.00
C 40.48 32.07 32.55 29.21 29.00 30.00 C 25.45 30.79 17.91 29.40 14.00 30.00
C 14.00 31.67 14.00 33.33 14.00 35.00
C 14.08 35.49 13.77 36.65 14.00 37.00
C 17.59 38.59 24.39 35.73 28.00 37.00 C 31.61 38.27 38.74 34.77 41.00 38.00
C 44.77 50.68 29.99 51.28 22.00 48.00
C 21.25 46.66 22.99 43.13 22.00 42.00
C 19.67 42.00 17.33 42.00 15.00 42.00
C 15.00 44.00 15.00 46.00 15.00 48.00
C 15.00 50.00 15.00 52.00 15.00 54.00
C 19.39 54.97 23.64 56.00 28.00 57.00
C 28.65 57.15 29.72 57.94 30.00 58.00
C 36.31 57.77 41.99 55.27 48.00 54.00
C 46.84 41.13 51.84 28.65 51.00 16.00
C 49.43 12.54 35.90 13.54 32.00 14.00 C 28.10 14.46 13.54 11.77 12.00 15.00 Z"/>
</g>
<g fill="None" fill-opacity="0.0" stroke="#91A4F0" stroke-opacity="0.31" stroke-width="0.3"><path d="
M 61.00 19.00 
C 61.34 18.77 62.00 19.00 62.00 19.00
C 62.12 18.04 62.00 16.97 62.00 16.00
C 62.00 16.00 61.27 15.75 61.00 16.00
C 60.99 16.44 61.28 18.70 61.00 19.00 Z"/>
</g>
<g fill="None" fill-opacity="0.0" stroke="#AFBFF3" stroke-opacity="0.18" stroke-width="0.3"><path d="
M 1.00 21.00 
C 1.27 21.25 2.00 21.00 2.00 21.00
C 2.00 20.00 1.98 19.00 2.00 18.00
C 2.00 18.00 1.27 17.75 1.00 18.00
C 1.00 18.83 1.25 20.21 1.00 21.00 Z"/>
</g>
<g fill="None" fill-opacity="0.0" stroke="#9AAFEF" stroke-opacity="1.00" stroke-width="0.3"><path d="
M 42.00 26.00 
C 43.94 25.22 42.61 22.57 43.00 21.00
C 38.45 20.49 30.18 21.68 26.00 21.00 C 21.82 20.32 13.37 23.25 12.00 19.00
C 12.00 20.00 12.00 21.00 12.00 22.00
C 22.00 22.00 32.00 22.00 42.00 22.00
C 41.97 23.33 42.03 24.67 42.00 26.00 Z"/>
</g>
<g fill="None" fill-opacity="0.0" stroke="#C8D0FB" stroke-opacity="0.09" stroke-width="0.3"><path d="
M 61.00 21.00 
C 61.22 20.25 61.85 20.24 62.00 19.00
C 62.00 19.00 61.34 18.77 61.00 19.00
C 60.75 19.26 61.00 20.50 61.00 21.00 Z"/>
</g>
<g fill="None" fill-opacity="0.0" stroke="#FFFFFF" stroke-opacity="0.01" stroke-width="0.3"><path d="
M 2.00 22.00 
C 2.00 22.00 2.00 21.50 2.00 21.00
C 2.00 21.00 1.27 21.25 1.00 21.00
C 0.92 21.26 1.87 21.73 2.00 22.00 Z"/>
</g>
<g fill="None" fill-opacity="0.0" stroke="#6884EC" stroke-opacity="0.47" stroke-width="0.3"><path d="
M 2.00 29.00 
C 2.13 28.78 3.00 29.00 3.00 29.00
C 2.94 27.43 2.17 25.99 2.00 25.00
C 2.00 26.33 2.00 27.67 2.00 29.00 Z"/>
</g>
<g fill="None" fill-opacity="0.0" stroke="#6B86ED" stroke-opacity="0.45" stroke-width="0.3"><path d="
M 60.00 28.00 
C 60.05 27.85 61.00 28.00 61.00 28.00
C 61.00 27.00 61.00 26.00 61.00 25.00
C 60.85 25.74 60.11 26.69 60.00 28.00 Z"/>
</g>
<g fill="None" fill-opacity="0.0" stroke="#B5C0F6" stroke-opacity="0.16" stroke-width="0.3"><path d="
M 60.00 33.00 
C 60.24 31.66 61.01 30.01 61.00 28.00
C 61.00 28.00 60.05 27.85 60.00 28.00
C 59.87 29.64 60.00 31.35 60.00 33.00 Z"/>
</g>
<g fill="None" fill-opacity="0.0" stroke="#B2C1F8" stroke-opacity="0.17" stroke-width="0.3"><path d="
M 2.00 33.00 
C 2.13 33.22 3.00 33.00 3.00 33.00
C 3.00 31.67 3.05 30.33 3.00 29.00
C 3.00 29.00 2.13 28.78 2.00 29.00
C 2.00 30.14 1.67 31.91 2.00 33.00 Z"/>
</g>
<g fill="None" fill-opacity="0.0" stroke="#7592EC" stroke-opacity="1.00" stroke-width="0.3"><path d="
M 14.00 35.00 
C 14.00 33.33 14.00 31.67 14.00 30.00
C 17.91 29.40 25.45 30.79 29.00 30.00 C 32.55 29.21 40.48 32.07 42.00 29.00
C 32.33 29.00 22.67 29.00 13.00 29.00
C 12.55 31.27 13.22 33.35 14.00 35.00 Z"/>
</g>
<g fill="None" fill-opacity="0.0" stroke="#BFFFFF" stroke-opacity="0.02" stroke-width="0.3"><path d="
M 3.00 34.00 
C 3.00 34.00 3.00 33.50 3.00 33.00
C 3.00 33.00 2.13 33.22 2.00 33.00
C 2.11 33.35 2.88 33.74 3.00 34.00 Z"/>
</g>
<g fill="None" fill-opacity="0.0" stroke="#637EEA" stroke-opacity="0.49" stroke-width="0.3"><path d="
M 59.00 39.00 
C 59.34 38.77 60.00 39.00 60.00 39.00
C 60.00 38.00 60.00 37.00 60.00 36.00
C 59.84 36.83 59.01 37.54 59.00 39.00 Z"/>
</g>
<g fill="None" fill-opacity="0.0" stroke="#91A7ED" stroke-opacity="1.00" stroke-width="0.3"><path d="
M 41.00 38.00 
C 38.74 34.77 31.61 38.27 28.00 37.00 C 24.39 35.73 17.59 38.59 14.00 37.00
C 15.99 40.06 23.38 37.17 27.00 38.00 C 30.62 38.83 37.12 37.38 41.00 38.00 Z"/>
</g>
<g fill="None" fill-opacity="0.0" stroke="#8FA2F0" stroke-opacity="0.31" stroke-width="0.3"><path d="
M 3.00 42.00 
C 3.27 42.25 4.00 42.00 4.00 42.00
C 3.99 40.62 3.17 39.79 3.00 39.00
C 3.00 39.97 2.88 41.04 3.00 42.00 Z"/>
</g>
<g fill="None" fill-opacity="0.0" stroke="#92A7F1" stroke-opacity="0.30" stroke-width="0.3"><path d="
M 59.00 41.00 
C 59.34 41.23 60.00 41.00 60.00 41.00
C 60.00 40.50 60.00 39.50 60.00 39.00
C 60.00 39.00 59.34 38.77 59.00 39.00
C 59.00 39.50 59.00 40.50 59.00 41.00 Z"/>
</g>
<g fill="None" fill-opacity="0.0" stroke="#8B9EE8" stroke-opacity="1.00" stroke-width="0.3"><path d="
M 15.00 48.00 
C 15.00 46.00 15.00 44.00 15.00 42.00
C 17.33 42.00 19.67 42.00 22.00 42.00
C 20.30 39.81 16.52 41.56 14.00 41.00
C 13.16 43.41 14.71 46.27 15.00 48.00 Z"/>
</g>
<g fill="None" fill-opacity="0.0" stroke="#C5CDF9" stroke-opacity="0.09" stroke-width="0.3"><path d="
M 59.00 44.00 
C 59.18 43.13 59.99 42.49 60.00 41.00
C 60.00 41.00 59.34 41.23 59.00 41.00
C 59.00 42.00 59.00 43.00 59.00 44.00 Z"/>
</g>
<g fill="None" fill-opacity="0.0" stroke="#C8D0FB" stroke-opacity="0.09" stroke-width="0.3"><path d="
M 4.00 44.00 
C 4.03 43.50 4.00 42.50 4.00 42.00
C 4.00 42.00 3.27 42.25 3.00 42.00
C 3.12 43.00 3.85 43.46 4.00 44.00 Z"/>
</g>
<g fill="None" fill-opacity="0.0" stroke="#4868E5" stroke-opacity="0.59" stroke-width="0.3"><path d="
M 4.00 49.00 
C 4.34 49.23 5.00 49.00 5.00 49.00
C 4.86 48.05 4.14 47.51 4.00 47.00
C 3.95 47.49 4.00 48.50 4.00 49.00 Z"/>
</g>
<g fill="None" fill-opacity="0.0" stroke="#8CA1F1" stroke-opacity="0.32" stroke-width="0.3"><path d="
M 4.00 54.00 
C 4.05 54.15 5.00 54.00 5.00 54.00
C 5.00 52.39 5.23 50.59 5.00 49.00
C 5.00 49.00 4.34 49.23 4.00 49.00
C 4.00 50.61 3.77 52.41 4.00 54.00 Z"/>
</g>
<g fill="None" fill-opacity="0.0" stroke="#8FA2F1" stroke-opacity="0.31" stroke-width="0.3"><path d="
M 58.00 53.00 
C 58.34 52.77 59.00 53.00 59.00 53.00
C 59.18 51.73 59.00 50.29 59.00 49.00
C 58.84 50.02 57.95 51.28 58.00 53.00 Z"/>
</g>
<g fill="None" fill-opacity="0.0" stroke="#C5D3FB" stroke-opacity="0.11" stroke-width="0.3"><path d="
M 58.00 55.00 
C 58.18 54.35 58.84 54.12 59.00 53.00
C 59.00 53.00 58.34 52.77 58.00 53.00
C 58.02 53.50 58.00 54.50 58.00 55.00 Z"/>
</g>
<g fill="None" fill-opacity="0.0" stroke="#CCD0FB" stroke-opacity="0.07" stroke-width="0.3"><path d="
M 5.00 56.00 
C 5.00 55.50 5.00 54.50 5.00 54.00
C 5.00 54.00 4.05 54.15 4.00 54.00
C 4.15 55.02 4.82 55.42 5.00 56.00 Z"/>
</g>
<g fill="None" fill-opacity="0.0" stroke="#A5B3E9" stroke-opacity="1.00" stroke-width="0.3"><path d="
M 30.00 58.00 
C 29.72 57.94 28.65 57.15 28.00 57.00
C 27.56 56.83 30.47 58.40 30.00 58.00 Z"/>
</g>
<g fill="None" fill-opacity="0.0" stroke="#5D7CEB" stroke-opacity="0.51" stroke-width="0.3"><path d="
M 57.00 62.00 
C 57.27 61.75 58.00 62.00 58.00 62.00
C 58.09 60.68 58.00 59.32 58.00 58.00
C 57.82 59.02 57.03 60.33 57.00 62.00 Z"/>
</g>
<g fill="None" fill-opacity="0.0" stroke="#7C93F0" stroke-opacity="0.39" stroke-width="0.3"><path d="
M 5.00 63.00 
C 5.34 63.23 6.00 63.00 6.00 63.00
C 5.91 61.87 5.20 61.65 5.00 61.00
C 5.00 61.50 4.96 62.50 5.00 63.00 Z"/>
</g>
<g fill="None" fill-opacity="0.0" stroke="#ABB9F4" stroke-opacity="0.20" stroke-width="0.3"><path d="
M 57.00 65.00 
C 58.45 64.76 57.93 62.98 58.00 62.00
C 58.00 62.00 57.27 61.75 57.00 62.00
C 56.99 62.40 57.26 64.75 57.00 65.00 Z"/>
</g>
<g fill="None" fill-opacity="0.0" stroke="#ADB9F5" stroke-opacity="0.20" stroke-width="0.3"><path d="
M 6.00 65.00 
C 5.77 64.84 6.04 63.50 6.00 63.00
C 6.00 63.00 5.34 63.23 5.00 63.00
C 5.05 63.72 5.01 64.91 6.00 65.00 Z"/>
</g>
<g fill="None" fill-opacity="0.0" stroke="#BCC9F8" stroke-opacity="0.15" stroke-width="0.3"><path d="
M 8.00 66.00 
C 7.75 65.75 8.00 65.00 8.00 65.00
C 8.00 65.00 7.50 65.00 7.00 65.00
C 7.26 65.12 7.65 65.97 8.00 66.00 Z"/>
</g>
<g fill="None" fill-opacity="0.0" stroke="#7D94EF" stroke-opacity="0.38" stroke-width="0.3"><path d="
M 8.00 66.00 
C 8.00 66.00 8.50 66.00 9.00 66.00
C 8.74 65.88 8.35 65.03 8.00 65.00
C 8.00 65.00 7.75 65.75 8.00 66.00 Z"/>
</g>
<g fill="None" fill-opacity="0.0" stroke="#8298EF" stroke-opacity="0.37" stroke-width="0.3"><path d="
M 54.00 66.00 
C 54.00 66.00 54.50 66.05 55.00 66.00
C 55.25 65.75 55.00 65.00 55.00 65.00
C 54.65 65.03 54.26 65.88 54.00 66.00 Z"/>
</g>
<g fill="None" fill-opacity="0.0" stroke="#BCC9F8" stroke-opacity="0.15" stroke-width="0.3"><path d="
M 55.00 66.00 
C 55.35 65.97 55.74 65.12 56.00 65.00
C 56.00 65.00 55.50 64.95 55.00 65.00
C 55.00 65.00 55.25 65.75 55.00 66.00 Z"/>
</g>
<g fill="None" fill-opacity="0.0" stroke="#CFDFFF" stroke-opacity="0.06" stroke-width="0.3"><path d="
M 11.00 67.00 
C 10.75 66.75 11.00 66.00 11.00 66.00
C 11.00 66.00 10.50 66.00 10.00 66.00
C 10.26 66.12 10.65 66.97 11.00 67.00 Z"/>
</g>
<g fill="None" fill-opacity="0.0" stroke="#93A7F2" stroke-opacity="0.31" stroke-width="0.3"><path d="
M 11.00 67.00 
C 11.00 67.00 11.50 67.00 12.00 67.00
C 11.74 66.89 11.35 66.03 11.00 66.00
C 11.00 66.00 10.75 66.75 11.00 67.00 Z"/>
</g>
<g fill="None" fill-opacity="0.0" stroke="#6380EC" stroke-opacity="0.49" stroke-width="0.3"><path d="
M 50.00 67.00 
C 50.00 67.00 50.50 67.00 51.00 67.00
C 50.75 66.75 51.00 66.00 51.00 66.00
C 50.65 66.03 50.26 66.88 50.00 67.00 Z"/>
</g>
<g fill="None" fill-opacity="0.0" stroke="#98AAF1" stroke-opacity="0.28" stroke-width="0.3"><path d="
M 51.00 67.00 
C 51.00 67.00 51.50 67.05 52.00 67.00
C 52.25 66.75 52.00 66.00 52.00 66.00
C 52.00 66.00 51.50 65.95 51.00 66.00
C 51.00 66.00 50.75 66.75 51.00 67.00 Z"/>
</g>
<g fill="None" fill-opacity="0.0" stroke="#D5D5FF" stroke-opacity="0.05" stroke-width="0.3"><path d="
M 52.00 67.00 
C 52.35 66.97 52.74 66.12 53.00 66.00
C 53.00 66.00 52.50 66.00 52.00 66.00
C 52.00 66.00 52.25 66.75 52.00 67.00 Z"/>
</g>
<g fill="None" fill-opacity="0.0" stroke="#BFC7F7" stroke-opacity="0.13" stroke-width="0.3"><path d="
M 15.00 68.00 
C 14.75 67.75 15.00 67.00 15.00 67.00
C 15.00 67.00 14.50 67.00 14.00 67.00
C 14.26 67.11 14.65 67.97 15.00 68.00 Z"/>
</g>
<g fill="None" fill-opacity="0.0" stroke="#8097EF" stroke-opacity="0.38" stroke-width="0.3"><path d="
M 15.00 68.00 
C 15.00 68.00 15.50 68.00 16.00 68.00
C 15.74 67.88 15.35 67.03 15.00 67.00
C 15.00 67.00 14.75 67.75 15.00 68.00 Z"/>
</g>
<g fill="None" fill-opacity="0.0" stroke="#7D94EF" stroke-opacity="0.38" stroke-width="0.3"><path d="
M 47.00 68.00 
C 47.00 68.00 47.50 68.05 48.00 68.00
C 48.25 67.75 48.00 67.00 48.00 67.00
C 47.65 67.03 47.26 67.88 47.00 68.00 Z"/>
</g>
<g fill="None" fill-opacity="0.0" stroke="#BFD1F6" stroke-opacity="0.11" stroke-width="0.3"><path d="
M 48.00 68.00 
C 48.35 67.97 48.74 67.12 49.00 67.00
C 49.00 67.00 48.50 66.95 48.00 67.00
C 48.00 67.00 48.25 67.75 48.00 68.00 Z"/>
</g>
<g fill="None" fill-opacity="0.0" stroke="#B9CEFA" stroke-opacity="0.13" stroke-width="0.3"><path d="
M 19.00 69.00 
C 18.75 68.75 19.00 68.00 19.00 68.00
C 18.53 67.88 17.50 68.00 17.00 68.00
C 17.97 68.64 17.42 69.10 19.00 69.00 Z"/>
</g>
<g fill="None" fill-opacity="0.0" stroke="#6E88ED" stroke-opacity="0.45" stroke-width="0.3"><path d="
M 19.00 69.00 
C 19.00 69.00 19.50 69.00 20.00 69.00
C 19.74 68.88 19.35 68.09 19.00 68.00
C 19.00 68.00 18.75 68.75 19.00 69.00 Z"/>
</g>
<g fill="None" fill-opacity="0.0" stroke="#7089ED" stroke-opacity="0.44" stroke-width="0.3"><path d="
M 43.00 69.00 
C 43.00 69.00 43.50 69.00 44.00 69.00
C 43.75 68.75 44.00 68.00 44.00 68.00
C 43.65 68.03 43.26 68.88 43.00 69.00 Z"/>
</g>
<g fill="None" fill-opacity="0.0" stroke="#AAB8F6" stroke-opacity="0.21" stroke-width="0.3"><path d="
M 44.00 69.00 
C 44.00 69.00 44.50 69.05 45.00 69.00
C 45.25 68.75 45.00 68.00 45.00 68.00
C 45.00 68.00 44.50 67.95 44.00 68.00
C 44.00 68.00 43.75 68.75 44.00 69.00 Z"/>
</g>
<g fill="None" fill-opacity="0.0" stroke="#BFFFFF" stroke-opacity="0.02" stroke-width="0.3"><path d="
M 45.00 69.00 
C 45.35 68.97 45.74 68.12 46.00 68.00
C 46.00 68.00 45.50 68.00 45.00 68.00
C 45.00 68.00 45.25 68.75 45.00 69.00 Z"/>
</g>
<g fill="None" fill-opacity="0.0" stroke="#CCD9F2" stroke-opacity="0.08" stroke-width="0.3"><path d="
M 22.00 70.00 
C 21.77 69.66 22.00 69.00 22.00 69.00
C 22.00 69.00 21.50 69.00 21.00 69.00
C 21.26 69.12 21.65 69.91 22.00 70.00 Z"/>
</g>
<g fill="None" fill-opacity="0.0" stroke="#728CEE" stroke-opacity="0.43" stroke-width="0.3"><path d="
M 22.00 70.00 
C 22.47 70.12 23.50 70.00 24.00 70.00
C 23.03 69.36 23.58 68.90 22.00 69.00
C 22.00 69.00 21.77 69.66 22.00 70.00 Z"/>
</g>
<g fill="None" fill-opacity="0.0" stroke="#94A8F2" stroke-opacity="0.30" stroke-width="0.3"><path d="
M 40.00 70.00 
C 40.00 70.00 40.50 70.05 41.00 70.00
C 41.25 69.75 41.00 69.00 41.00 69.00
C 40.65 69.03 40.26 69.89 40.00 70.00 Z"/>
</g>
<g fill="None" fill-opacity="0.0" stroke="#CCE6FF" stroke-opacity="0.04" stroke-width="0.3"><path d="
M 41.00 70.00 
C 41.35 69.97 41.74 69.12 42.00 69.00
C 42.00 69.00 41.50 68.95 41.00 69.00
C 41.00 69.00 41.25 69.75 41.00 70.00 Z"/>
</g>
<g fill="None" fill-opacity="0.0" stroke="#BCC9F8" stroke-opacity="0.15" stroke-width="0.3"><path d="
M 26.00 71.00 
C 25.75 70.75 26.00 70.00 26.00 70.00
C 26.00 70.00 25.50 70.00 25.00 70.00
C 25.26 70.12 25.65 70.97 26.00 71.00 Z"/>
</g>
<g fill="None" fill-opacity="0.0" stroke="#768EEE" stroke-opacity="0.42" stroke-width="0.3"><path d="
M 26.00 71.00 
C 26.00 71.00 26.50 71.00 27.00 71.00
C 26.74 70.88 26.35 70.03 26.00 70.00
C 26.00 70.00 25.75 70.75 26.00 71.00 Z"/>
</g>
<g fill="None" fill-opacity="0.0" stroke="#829BF1" stroke-opacity="0.36" stroke-width="0.3"><path d="
M 36.00 71.00 
C 36.00 71.00 36.50 71.05 37.00 71.00
C 37.25 70.75 37.00 70.00 37.00 70.00
C 36.65 70.03 36.26 70.89 36.00 71.00 Z"/>
</g>
<g fill="None" fill-opacity="0.0" stroke="#BFCFF7" stroke-opacity="0.13" stroke-width="0.3"><path d="
M 37.00 71.00 
C 37.35 70.97 37.74 70.11 38.00 70.00
C 38.00 70.00 37.50 69.95 37.00 70.00
C 37.00 70.00 37.25 70.75 37.00 71.00 Z"/>
</g>
<g fill="None" fill-opacity="0.0" stroke="#FFFFFF" stroke-opacity="0.01" stroke-width="0.3"><path d="
M 28.00 72.00 
L 29.00 72.00
C 29.00 71.50 29.00 71.00 29.00 71.00
C 29.00 71.00 28.50 71.00 28.00 71.00
C 28.00 71.00 28.00 71.50 28.00 72.00 Z"/>
</g>
<g fill="None" fill-opacity="0.0" stroke="#9EAEF3" stroke-opacity="0.26" stroke-width="0.3"><path d="
M 29.00 72.00 
L 30.00 72.00
C 30.00 71.50 30.00 71.00 30.00 71.00
C 30.00 71.00 29.50 71.00 29.00 71.00
C 29.00 71.00 29.00 71.50 29.00 72.00 Z"/>
</g>
<g fill="None" fill-opacity="0.0" stroke="#5977EA" stroke-opacity="0.53" stroke-width="0.3"><path d="
M 30.00 72.00 
L 33.00 72.00
C 33.00 71.50 33.00 71.00 33.00 71.00
C 32.00 71.00 31.00 71.00 30.00 71.00
C 30.00 71.00 30.00 71.50 30.00 72.00 Z"/>
</g>
<g fill="None" fill-opacity="0.0" stroke="#A0B5F3" stroke-opacity="0.24" stroke-width="0.3"><path d="
M 33.00 72.00 
L 34.00 72.00
C 34.00 72.00 34.25 71.25 34.00 71.00
C 34.00 71.00 33.50 71.00 33.00 71.00
C 33.00 71.00 33.00 71.50 33.00 72.00 Z"/>
</g>
<g fill="#8FA2EF" fill-opacity="0.32" stroke="None">
<path d="
M 0.00 1.00 
C 21.00 1.00 42.00 1.00 63.00 1.00
L 63.00 0.00
L 0.00 0.00
L 0.00 1.00 Z"/>
</g>
<g fill="#2750E5" fill-opacity="0.99" stroke="None">
<path d="
M 0.00 3.00 
C 1.02 3.05 0.91 4.32 1.00 5.00
C 1.18 6.27 1.00 7.71 1.00 9.00
C 1.00 9.50 1.00 10.50 1.00 11.00
C 1.00 11.50 1.00 12.00 1.00 12.00
C 2.34 13.57 2.04 15.79 2.00 18.00
C 1.98 19.00 2.00 20.00 2.00 21.00
C 2.00 21.50 2.00 22.00 2.00 22.00
C 2.00 23.00 2.00 24.00 2.00 25.00
C 2.17 25.99 2.94 27.43 3.00 29.00
C 3.05 30.33 3.00 31.67 3.00 33.00
C 3.00 33.50 3.00 34.00 3.00 34.00
C 3.00 35.67 3.00 37.33 3.00 39.00
C 3.17 39.79 3.99 40.62 4.00 42.00
C 4.00 42.50 4.03 43.50 4.00 44.00
C 3.95 44.99 4.11 46.02 4.00 47.00
C 4.14 47.51 4.86 48.05 5.00 49.00
C 5.23 50.59 5.00 52.39 5.00 54.00
C 5.00 54.50 5.00 55.50 5.00 56.00
C 5.00 57.67 5.00 59.33 5.00 61.00
C 5.20 61.65 5.91 61.87 6.00 63.00
C 6.04 63.50 5.77 64.84 6.00 65.00
C 6.50 65.05 7.00 65.00 7.00 65.00
C 7.50 65.00 8.00 65.00 8.00 65.00
C 8.35 65.03 8.74 65.88 9.00 66.00
C 9.50 66.00 10.00 66.00 10.00 66.00
C 10.50 66.00 11.00 66.00 11.00 66.00
C 11.35 66.03 11.74 66.89 12.00 67.00
C 12.50 67.00 13.50 67.00 14.00 67.00
C 14.50 67.00 15.00 67.00 15.00 67.00
C 15.35 67.03 15.74 67.88 16.00 68.00
C 16.50 68.00 17.00 68.00 17.00 68.00
C 17.50 68.00 18.53 67.88 19.00 68.00
C 19.35 68.09 19.74 68.88 20.00 69.00
C 20.50 69.00 21.00 69.00 21.00 69.00
C 21.50 69.00 22.00 69.00 22.00 69.00
C 23.58 68.90 23.03 69.36 24.00 70.00
C 24.50 70.00 25.00 70.00 25.00 70.00
C 25.50 70.00 26.00 70.00 26.00 70.00
C 26.35 70.03 26.74 70.88 27.00 71.00
C 27.50 71.00 28.00 71.00 28.00 71.00
C 28.50 71.00 29.00 71.00 29.00 71.00
C 29.50 71.00 30.00 71.00 30.00 71.00
C 31.00 71.00 32.00 71.00 33.00 71.00
C 33.50 71.00 34.00 71.00 34.00 71.00
C 34.50 71.00 35.50 71.00 36.00 71.00
C 36.26 70.89 36.65 70.03 37.00 70.00
C 37.50 69.95 38.00 70.00 38.00 70.00
C 38.50 70.00 39.50 70.00 40.00 70.00
C 40.26 69.89 40.65 69.03 41.00 69.00
C 41.50 68.95 42.00 69.00 42.00 69.00
C 42.50 69.00 43.00 69.00 43.00 69.00
C 43.26 68.88 43.65 68.03 44.00 68.00
C 44.50 67.95 45.00 68.00 45.00 68.00
C 45.50 68.00 46.00 68.00 46.00 68.00
C 46.50 68.00 47.00 68.00 47.00 68.00
C 47.26 67.88 47.65 67.03 48.00 67.00
C 48.50 66.95 49.00 67.00 49.00 67.00
C 49.50 67.00 50.00 67.00 50.00 67.00
C 50.26 66.88 50.65 66.03 51.00 66.00
C 51.50 65.95 52.00 66.00 52.00 66.00
C 52.50 66.00 53.00 66.00 53.00 66.00
C 53.50 66.00 54.00 66.00 54.00 66.00
C 54.26 65.88 54.65 65.03 55.00 65.00
C 55.50 64.95 56.00 65.00 56.00 65.00
C 56.50 65.00 57.00 65.00 57.00 65.00
C 57.26 64.75 56.99 62.40 57.00 62.00
C 57.03 60.33 57.82 59.02 58.00 58.00
C 58.00 57.00 58.00 56.00 58.00 55.00
C 58.00 54.50 58.02 53.50 58.00 53.00
C 57.95 51.28 58.84 50.02 59.00 49.00
C 59.00 47.33 59.00 45.67 59.00 44.00
C 59.00 43.00 59.00 42.00 59.00 41.00
C 59.00 40.50 59.00 39.50 59.00 39.00
C 59.01 37.54 59.84 36.83 60.00 36.00
C 60.00 35.00 60.00 34.00 60.00 33.00
C 60.00 31.35 59.87 29.64 60.00 28.00
C 60.11 26.69 60.85 25.74 61.00 25.00
C 61.00 23.67 61.00 22.33 61.00 21.00
C 61.00 20.50 60.75 19.26 61.00 19.00
C 61.28 18.70 60.99 16.44 61.00 16.00
C 61.03 14.12 61.61 13.29 62.00 12.00
C 62.00 11.50 62.00 10.50 62.00 10.00
C 62.00 8.35 61.87 6.64 62.00 5.00
C 62.08 4.00 61.55 2.27 63.00 2.00
L 63.00 1.00
C 42.00 1.00 21.00 1.00 0.00 1.00
L 0.00 3.00
M 30.00 58.00 
C 30.47 58.40 27.56 56.83 28.00 57.00
C 23.64 56.00 19.39 54.97 15.00 54.00
C 15.00 52.00 15.00 50.00 15.00 48.00
C 14.71 46.27 13.16 43.41 14.00 41.00
C 16.52 41.56 20.30 39.81 22.00 42.00
C 22.99 43.13 21.25 46.66 22.00 48.00
C 29.99 51.28 44.77 50.68 41.00 38.00
C 37.12 37.38 30.62 38.83 27.00 38.00 C 23.38 37.17 15.99 40.06 14.00 37.00
C 13.77 36.65 14.08 35.49 14.00 35.00
C 13.22 33.35 12.55 31.27 13.00 29.00
C 22.67 29.00 32.33 29.00 42.00 29.00
C 42.38 28.23 41.77 26.84 42.00 26.00
C 42.03 24.67 41.97 23.33 42.00 22.00
C 32.00 22.00 22.00 22.00 12.00 22.00
C 12.00 21.00 12.00 20.00 12.00 19.00
C 11.82 17.75 11.95 16.26 12.00 15.00
C 12.13 11.45 26.70 13.00 31.00 13.00
C 31.00 10.67 31.00 8.33 31.00 6.00
C 39.67 6.00 48.33 6.00 57.00 6.00
C 56.50 24.53 53.08 42.34 53.00 61.00
C 45.57 62.24 38.53 64.97 31.00 66.00
C 30.83 63.28 31.61 60.33 30.00 58.00 Z"/>
</g>
<g fill="#5D7CEA" fill-opacity="0.51" stroke="None">
<path d="
M 62.00 5.00 
C 62.05 4.85 63.00 5.00 63.00 5.00
L 63.00 2.00
C 61.55 2.27 62.08 4.00 62.00 5.00 Z"/>
</g>
<g fill="#5D7AEB" fill-opacity="0.51" stroke="None">
<path d="
M 0.00 5.00 
C 0.50 5.00 1.00 5.00 1.00 5.00
C 0.91 4.32 1.02 3.05 0.00 3.00
L 0.00 5.00 Z"/>
</g>
<g fill="#A0B0F3" fill-opacity="0.25" stroke="None">
<path d="
M 0.00 9.00 
C 0.50 9.00 1.00 9.00 1.00 9.00
C 1.00 7.71 1.18 6.27 1.00 5.00
C 1.00 5.00 0.50 5.00 0.00 5.00
L 0.00 9.00 Z"/>
</g>
<g fill="#B1BDF5" fill-opacity="0.18" stroke="None">
<path d="
M 62.00 10.00 
C 62.34 9.77 63.00 10.00 63.00 10.00
L 63.00 5.00
C 63.00 5.00 62.05 4.85 62.00 5.00
C 61.87 6.64 62.00 8.35 62.00 10.00 Z"/>
</g>
<g fill="#2B66F0" fill-opacity="1.00" stroke="None">
<path d="
M 31.00 13.00 
C 38.00 13.00 45.00 13.00 52.00 13.00
C 51.89 14.00 52.47 15.73 51.00 16.00
C 51.84 28.65 46.84 41.13 48.00 54.00
C 41.99 55.27 36.31 57.77 30.00 58.00
C 31.61 60.33 30.83 63.28 31.00 66.00
C 38.53 64.97 45.57 62.24 53.00 61.00
C 53.08 42.34 56.50 24.53 57.00 6.00
C 48.33 6.00 39.67 6.00 31.00 6.00
C 31.00 8.33 31.00 10.67 31.00 13.00 Z"/>
</g>
<g fill="#D0D7FF" fill-opacity="0.05" stroke="None">
<path d="
M 0.00 11.00 
C 0.50 11.00 1.00 11.00 1.00 11.00
C 1.00 10.50 1.00 9.50 1.00 9.00
C 1.00 9.00 0.50 9.00 0.00 9.00
L 0.00 11.00 Z"/>
</g>
<g fill="#000000" fill-opacity="0.00" stroke="None">
<path d="
M 62.00 12.00 
C 62.00 13.33 62.00 14.67 62.00 16.00
C 62.00 16.97 62.12 18.04 62.00 19.00
C 61.85 20.24 61.22 20.25 61.00 21.00
C 61.00 22.33 61.00 23.67 61.00 25.00
C 61.00 26.00 61.00 27.00 61.00 28.00
C 61.01 30.01 60.24 31.66 60.00 33.00
C 60.00 34.00 60.00 35.00 60.00 36.00
C 60.00 37.00 60.00 38.00 60.00 39.00
C 60.00 39.50 60.00 40.50 60.00 41.00
C 59.99 42.49 59.18 43.13 59.00 44.00
C 59.00 45.67 59.00 47.33 59.00 49.00
C 59.00 50.29 59.18 51.73 59.00 53.00
C 58.84 54.12 58.18 54.35 58.00 55.00
C 58.00 56.00 58.00 57.00 58.00 58.00
C 58.00 59.32 58.09 60.68 58.00 62.00
C 57.93 62.98 58.45 64.76 57.00 65.00
C 57.00 65.00 56.50 65.00 56.00 65.00
C 55.74 65.12 55.35 65.97 55.00 66.00
C 54.50 66.05 54.00 66.00 54.00 66.00
C 54.00 66.00 53.50 66.00 53.00 66.00
C 52.74 66.12 52.35 66.97 52.00 67.00
C 51.50 67.05 51.00 67.00 51.00 67.00
C 50.50 67.00 50.00 67.00 50.00 67.00
C 50.00 67.00 49.50 67.00 49.00 67.00
C 48.74 67.12 48.35 67.97 48.00 68.00
C 47.50 68.05 47.00 68.00 47.00 68.00
C 47.00 68.00 46.50 68.00 46.00 68.00
C 45.74 68.12 45.35 68.97 45.00 69.00
C 44.50 69.05 44.00 69.00 44.00 69.00
C 43.50 69.00 43.00 69.00 43.00 69.00
C 43.00 69.00 42.50 69.00 42.00 69.00
C 41.74 69.12 41.35 69.97 41.00 70.00
C 40.50 70.05 40.00 70.00 40.00 70.00
C 39.50 70.00 38.50 70.00 38.00 70.00
C 37.74 70.11 37.35 70.97 37.00 71.00
C 36.50 71.05 36.00 71.00 36.00 71.00
C 35.50 71.00 34.50 71.00 34.00 71.00
C 34.25 71.25 34.00 72.00 34.00 72.00
L 63.00 72.00
L 63.00 10.00
C 63.00 10.00 62.34 9.77 62.00 10.00
C 62.00 10.50 62.00 11.50 62.00 12.00 Z"/>
</g>
<g fill="#000000" fill-opacity="0.00" stroke="None">
<path d="
M 0.00 72.00 
L 28.00 72.00
C 28.00 71.50 28.00 71.00 28.00 71.00
C 28.00 71.00 27.50 71.00 27.00 71.00
C 26.50 71.00 26.00 71.00 26.00 71.00
C 25.65 70.97 25.26 70.12 25.00 70.00
C 25.00 70.00 24.50 70.00 24.00 70.00
C 23.50 70.00 22.47 70.12 22.00 70.00
C 21.65 69.91 21.26 69.12 21.00 69.00
C 21.00 69.00 20.50 69.00 20.00 69.00
C 19.50 69.00 19.00 69.00 19.00 69.00
C 17.42 69.10 17.97 68.64 17.00 68.00
C 17.00 68.00 16.50 68.00 16.00 68.00
C 15.50 68.00 15.00 68.00 15.00 68.00
C 14.65 67.97 14.26 67.11 14.00 67.00
C 13.50 67.00 12.50 67.00 12.00 67.00
C 11.50 67.00 11.00 67.00 11.00 67.00
C 10.65 66.97 10.26 66.12 10.00 66.00
C 10.00 66.00 9.50 66.00 9.00 66.00
C 8.50 66.00 8.00 66.00 8.00 66.00
C 7.65 65.97 7.26 65.12 7.00 65.00
C 7.00 65.00 6.50 65.05 6.00 65.00
C 5.01 64.91 5.05 63.72 5.00 63.00
C 4.96 62.50 5.00 61.50 5.00 61.00
C 5.00 59.33 5.00 57.67 5.00 56.00
C 4.82 55.42 4.15 55.02 4.00 54.00
C 3.77 52.41 4.00 50.61 4.00 49.00
C 4.00 48.50 3.95 47.49 4.00 47.00
C 4.11 46.02 3.95 44.99 4.00 44.00
C 3.85 43.46 3.12 43.00 3.00 42.00
C 2.88 41.04 3.00 39.97 3.00 39.00
C 3.00 37.33 3.00 35.67 3.00 34.00
C 2.88 33.74 2.11 33.35 2.00 33.00
C 1.67 31.91 2.00 30.14 2.00 29.00
C 2.00 27.67 2.00 26.33 2.00 25.00
C 2.00 24.00 2.00 23.00 2.00 22.00
C 1.87 21.73 0.92 21.26 1.00 21.00
C 1.25 20.21 1.00 18.83 1.00 18.00
C 1.00 16.00 1.00 14.00 1.00 12.00
C 1.00 12.00 1.00 11.50 1.00 11.00
C 1.00 11.00 0.50 11.00 0.00 11.00
L 0.00 72.00 Z"/>
</g>
<g fill="#607EEC" fill-opacity="0.49" stroke="None">
<path d="
M 1.00 18.00 
C 1.27 17.75 2.00 18.00 2.00 18.00
C 2.04 15.79 2.34 13.57 1.00 12.00
C 1.00 14.00 1.00 16.00 1.00 18.00 Z"/>
</g>
<g fill="#5A79EA" fill-opacity="0.52" stroke="None">
<path d="
M 61.00 16.00 
C 61.27 15.75 62.00 16.00 62.00 16.00
C 62.00 14.67 62.00 13.33 62.00 12.00
C 61.61 13.29 61.03 14.12 61.00 16.00 Z"/>
</g>
<g fill="#6C8DEE" fill-opacity="1.00" stroke="None">
<path d="
M 12.00 15.00 
C 13.54 11.77 28.10 14.46 32.00 14.00 C 35.90 13.54 49.43 12.54 51.00 16.00
C 52.47 15.73 51.89 14.00 52.00 13.00
C 45.00 13.00 38.00 13.00 31.00 13.00
C 26.70 13.00 12.13 11.45 12.00 15.00 Z"/>
</g>
<g fill="#F3F4F6" fill-opacity="1.00" stroke="None">
<path d="
M 12.00 15.00 
C 11.95 16.26 11.82 17.75 12.00 19.00
C 13.37 23.25 21.82 20.32 26.00 21.00 C 30.18 21.68 38.45 20.49 43.00 21.00
C 42.61 22.57 43.94 25.22 42.00 26.00
C 41.77 26.84 42.38 28.23 42.00 29.00
C 40.48 32.07 32.55 29.21 29.00 30.00 C 25.45 30.79 17.91 29.40 14.00 30.00
C 14.00 31.67 14.00 33.33 14.00 35.00
C 14.08 35.49 13.77 36.65 14.00 37.00
C 17.59 38.59 24.39 35.73 28.00 37.00 C 31.61 38.27 38.74 34.77 41.00 38.00
C 44.77 50.68 29.99 51.28 22.00 48.00
C 21.25 46.66 22.99 43.13 22.00 42.00
C 19.67 42.00 17.33 42.00 15.00 42.00
C 15.00 44.00 15.00 46.00 15.00 48.00
C 15.00 50.00 15.00 52.00 15.00 54.00
C 19.39 54.97 23.64 56.00 28.00 57.00
C 28.65 57.15 29.72 57.94 30.00 58.00
C 36.31 57.77 41.99 55.27 48.00 54.00
C 46.84 41.13 51.84 28.65 51.00 16.00
C 49.43 12.54 35.90 13.54 32.00 14.00 C 28.10 14.46 13.54 11.77 12.00 15.00 Z"/>
</g>
<g fill="#91A4F0" fill-opacity="0.31" stroke="None">
<path d="
M 61.00 19.00 
C 61.34 18.77 62.00 19.00 62.00 19.00
C 62.12 18.04 62.00 16.97 62.00 16.00
C 62.00 16.00 61.27 15.75 61.00 16.00
C 60.99 16.44 61.28 18.70 61.00 19.00 Z"/>
</g>
<g fill="#AFBFF3" fill-opacity="0.18" stroke="None">
<path d="
M 1.00 21.00 
C 1.27 21.25 2.00 21.00 2.00 21.00
C 2.00 20.00 1.98 19.00 2.00 18.00
C 2.00 18.00 1.27 17.75 1.00 18.00
C 1.00 18.83 1.25 20.21 1.00 21.00 Z"/>
</g>
<g fill="#9AAFEF" fill-opacity="1.00" stroke="None">
<path d="
M 42.00 26.00 
C 43.94 25.22 42.61 22.57 43.00 21.00
C 38.45 20.49 30.18 21.68 26.00 21.00 C 21.82 20.32 13.37 23.25 12.00 19.00
C 12.00 20.00 12.00 21.00 12.00 22.00
C 22.00 22.00 32.00 22.00 42.00 22.00
C 41.97 23.33 42.03 24.67 42.00 26.00 Z"/>
</g>
<g fill="#C8D0FB" fill-opacity="0.09" stroke="None">
<path d="
M 61.00 21.00 
C 61.22 20.25 61.85 20.24 62.00 19.00
C 62.00 19.00 61.34 18.77 61.00 19.00
C 60.75 19.26 61.00 20.50 61.00 21.00 Z"/>
</g>
<g fill="#FFFFFF" fill-opacity="0.01" stroke="None">
<path d="
M 2.00 22.00 
C 2.00 22.00 2.00 21.50 2.00 21.00
C 2.00 21.00 1.27 21.25 1.00 21.00
C 0.92 21.26 1.87 21.73 2.00 22.00 Z"/>
</g>
<g fill="#6884EC" fill-opacity="0.47" stroke="None">
<path d="
M 2.00 29.00 
C 2.13 28.78 3.00 29.00 3.00 29.00
C 2.94 27.43 2.17 25.99 2.00 25.00
C 2.00 26.33 2.00 27.67 2.00 29.00 Z"/>
</g>
<g fill="#6B86ED" fill-opacity="0.45" stroke="None">
<path d="
M 60.00 28.00 
C 60.05 27.85 61.00 28.00 61.00 28.00
C 61.00 27.00 61.00 26.00 61.00 25.00
C 60.85 25.74 60.11 26.69 60.00 28.00 Z"/>
</g>
<g fill="#B5C0F6" fill-opacity="0.16" stroke="None">
<path d="
M 60.00 33.00 
C 60.24 31.66 61.01 30.01 61.00 28.00
C 61.00 28.00 60.05 27.85 60.00 28.00
C 59.87 29.64 60.00 31.35 60.00 33.00 Z"/>
</g>
<g fill="#B2C1F8" fill-opacity="0.17" stroke="None">
<path d="
M 2.00 33.00 
C 2.13 33.22 3.00 33.00 3.00 33.00
C 3.00 31.67 3.05 30.33 3.00 29.00
C 3.00 29.00 2.13 28.78 2.00 29.00
C 2.00 30.14 1.67 31.91 2.00 33.00 Z"/>
</g>
<g fill="#7592EC" fill-opacity="1.00" stroke="None">
<path d="
M 14.00 35.00 
C 14.00 33.33 14.00 31.67 14.00 30.00
C 17.91 29.40 25.45 30.79 29.00 30.00 C 32.55 29.21 40.48 32.07 42.00 29.00
C 32.33 29.00 22.67 29.00 13.00 29.00
C 12.55 31.27 13.22 33.35 14.00 35.00 Z"/>
</g>
<g fill="#BFFFFF" fill-opacity="0.02" stroke="None">
<path d="
M 3.00 34.00 
C 3.00 34.00 3.00 33.50 3.00 33.00
C 3.00 33.00 2.13 33.22 2.00 33.00
C 2.11 33.35 2.88 33.74 3.00 34.00 Z"/>
</g>
<g fill="#637EEA" fill-opacity="0.49" stroke="None">
<path d="
M 59.00 39.00 
C 59.34 38.77 60.00 39.00 60.00 39.00
C 60.00 38.00 60.00 37.00 60.00 36.00
C 59.84 36.83 59.01 37.54 59.00 39.00 Z"/>
</g>
<g fill="#91A7ED" fill-opacity="1.00" stroke="None">
<path d="
M 41.00 38.00 
C 38.74 34.77 31.61 38.27 28.00 37.00 C 24.39 35.73 17.59 38.59 14.00 37.00
C 15.99 40.06 23.38 37.17 27.00 38.00 C 30.62 38.83 37.12 37.38 41.00 38.00 Z"/>
</g>
<g fill="#8FA2F0" fill-opacity="0.31" stroke="None">
<path d="
M 3.00 42.00 
C 3.27 42.25 4.00 42.00 4.00 42.00
C 3.99 40.62 3.17 39.79 3.00 39.00
C 3.00 39.97 2.88 41.04 3.00 42.00 Z"/>
</g>
<g fill="#92A7F1" fill-opacity="0.30" stroke="None">
<path d="
M 59.00 41.00 
C 59.34 41.23 60.00 41.00 60.00 41.00
C 60.00 40.50 60.00 39.50 60.00 39.00
C 60.00 39.00 59.34 38.77 59.00 39.00
C 59.00 39.50 59.00 40.50 59.00 41.00 Z"/>
</g>
<g fill="#8B9EE8" fill-opacity="1.00" stroke="None">
<path d="
M 15.00 48.00 
C 15.00 46.00 15.00 44.00 15.00 42.00
C 17.33 42.00 19.67 42.00 22.00 42.00
C 20.30 39.81 16.52 41.56 14.00 41.00
C 13.16 43.41 14.71 46.27 15.00 48.00 Z"/>
</g>
<g fill="#C5CDF9" fill-opacity="0.09" stroke="None">
<path d="
M 59.00 44.00 
C 59.18 43.13 59.99 42.49 60.00 41.00
C 60.00 41.00 59.34 41.23 59.00 41.00
C 59.00 42.00 59.00 43.00 59.00 44.00 Z"/>
</g>
<g fill="#C8D0FB" fill-opacity="0.09" stroke="None">
<path d="
M 4.00 44.00 
C 4.03 43.50 4.00 42.50 4.00 42.00
C 4.00 42.00 3.27 42.25 3.00 42.00
C 3.12 43.00 3.85 43.46 4.00 44.00 Z"/>
</g>
<g fill="#4868E5" fill-opacity="0.59" stroke="None">
<path d="
M 4.00 49.00 
C 4.34 49.23 5.00 49.00 5.00 49.00
C 4.86 48.05 4.14 47.51 4.00 47.00
C 3.95 47.49 4.00 48.50 4.00 49.00 Z"/>
</g>
<g fill="#8CA1F1" fill-opacity="0.32" stroke="None">
<path d="
M 4.00 54.00 
C 4.05 54.15 5.00 54.00 5.00 54.00
C 5.00 52.39 5.23 50.59 5.00 49.00
C 5.00 49.00 4.34 49.23 4.00 49.00
C 4.00 50.61 3.77 52.41 4.00 54.00 Z"/>
</g>
<g fill="#8FA2F1" fill-opacity="0.31" stroke="None">
<path d="
M 58.00 53.00 
C 58.34 52.77 59.00 53.00 59.00 53.00
C 59.18 51.73 59.00 50.29 59.00 49.00
C 58.84 50.02 57.95 51.28 58.00 53.00 Z"/>
</g>
<g fill="#C5D3FB" fill-opacity="0.11" stroke="None">
<path d="
M 58.00 55.00 
C 58.18 54.35 58.84 54.12 59.00 53.00
C 59.00 53.00 58.34 52.77 58.00 53.00
C 58.02 53.50 58.00 54.50 58.00 55.00 Z"/>
</g>
<g fill="#CCD0FB" fill-opacity="0.07" stroke="None">
<path d="
M 5.00 56.00 
C 5.00 55.50 5.00 54.50 5.00 54.00
C 5.00 54.00 4.05 54.15 4.00 54.00
C 4.15 55.02 4.82 55.42 5.00 56.00 Z"/>
</g>
<g fill="#A5B3E9" fill-opacity="1.00" stroke="None">
<path d="
M 30.00 58.00 
C 29.72 57.94 28.65 57.15 28.00 57.00
C 27.56 56.83 30.47 58.40 30.00 58.00 Z"/>
</g>
<g fill="#5D7CEB" fill-opacity="0.51" stroke="None">
<path d="
M 57.00 62.00 
C 57.27 61.75 58.00 62.00 58.00 62.00
C 58.09 60.68 58.00 59.32 58.00 58.00
C 57.82 59.02 57.03 60.33 57.00 62.00 Z"/>
</g>
<g fill="#7C93F0" fill-opacity="0.39" stroke="None">
<path d="
M 5.00 63.00 
C 5.34 63.23 6.00 63.00 6.00 63.00
C 5.91 61.87 5.20 61.65 5.00 61.00
C 5.00 61.50 4.96 62.50 5.00 63.00 Z"/>
</g>
<g fill="#ABB9F4" fill-opacity="0.20" stroke="None">
<path d="
M 57.00 65.00 
C 58.45 64.76 57.93 62.98 58.00 62.00
C 58.00 62.00 57.27 61.75 57.00 62.00
C 56.99 62.40 57.26 64.75 57.00 65.00 Z"/>
</g>
<g fill="#ADB9F5" fill-opacity="0.20" stroke="None">
<path d="
M 6.00 65.00 
C 5.77 64.84 6.04 63.50 6.00 63.00
C 6.00 63.00 5.34 63.23 5.00 63.00
C 5.05 63.72 5.01 64.91 6.00 65.00 Z"/>
</g>
<g fill="#BCC9F8" fill-opacity="0.15" stroke="None">
<path d="
M 8.00 66.00 
C 7.75 65.75 8.00 65.00 8.00 65.00
C 8.00 65.00 7.50 65.00 7.00 65.00
C 7.26 65.12 7.65 65.97 8.00 66.00 Z"/>
</g>
<g fill="#7D94EF" fill-opacity="0.38" stroke="None">
<path d="
M 8.00 66.00 
C 8.00 66.00 8.50 66.00 9.00 66.00
C 8.74 65.88 8.35 65.03 8.00 65.00
C 8.00 65.00 7.75 65.75 8.00 66.00 Z"/>
</g>
<g fill="#8298EF" fill-opacity="0.37" stroke="None">
<path d="
M 54.00 66.00 
C 54.00 66.00 54.50 66.05 55.00 66.00
C 55.25 65.75 55.00 65.00 55.00 65.00
C 54.65 65.03 54.26 65.88 54.00 66.00 Z"/>
</g>
<g fill="#BCC9F8" fill-opacity="0.15" stroke="None">
<path d="
M 55.00 66.00 
C 55.35 65.97 55.74 65.12 56.00 65.00
C 56.00 65.00 55.50 64.95 55.00 65.00
C 55.00 65.00 55.25 65.75 55.00 66.00 Z"/>
</g>
<g fill="#CFDFFF" fill-opacity="0.06" stroke="None">
<path d="
M 11.00 67.00 
C 10.75 66.75 11.00 66.00 11.00 66.00
C 11.00 66.00 10.50 66.00 10.00 66.00
C 10.26 66.12 10.65 66.97 11.00 67.00 Z"/>
</g>
<g fill="#93A7F2" fill-opacity="0.31" stroke="None">
<path d="
M 11.00 67.00 
C 11.00 67.00 11.50 67.00 12.00 67.00
C 11.74 66.89 11.35 66.03 11.00 66.00
C 11.00 66.00 10.75 66.75 11.00 67.00 Z"/>
</g>
<g fill="#6380EC" fill-opacity="0.49" stroke="None">
<path d="
M 50.00 67.00 
C 50.00 67.00 50.50 67.00 51.00 67.00
C 50.75 66.75 51.00 66.00 51.00 66.00
C 50.65 66.03 50.26 66.88 50.00 67.00 Z"/>
</g>
<g fill="#98AAF1" fill-opacity="0.28" stroke="None">
<path d="
M 51.00 67.00 
C 51.00 67.00 51.50 67.05 52.00 67.00
C 52.25 66.75 52.00 66.00 52.00 66.00
C 52.00 66.00 51.50 65.95 51.00 66.00
C 51.00 66.00 50.75 66.75 51.00 67.00 Z"/>
</g>
<g fill="#D5D5FF" fill-opacity="0.05" stroke="None">
<path d="
M 52.00 67.00 
C 52.35 66.97 52.74 66.12 53.00 66.00
C 53.00 66.00 52.50 66.00 52.00 66.00
C 52.00 66.00 52.25 66.75 52.00 67.00 Z"/>
</g>
<g fill="#BFC7F7" fill-opacity="0.13" stroke="None">
<path d="
M 15.00 68.00 
C 14.75 67.75 15.00 67.00 15.00 67.00
C 15.00 67.00 14.50 67.00 14.00 67.00
C 14.26 67.11 14.65 67.97 15.00 68.00 Z"/>
</g>
<g fill="#8097EF" fill-opacity="0.38" stroke="None">
<path d="
M 15.00 68.00 
C 15.00 68.00 15.50 68.00 16.00 68.00
C 15.74 67.88 15.35 67.03 15.00 67.00
C 15.00 67.00 14.75 67.75 15.00 68.00 Z"/>
</g>
<g fill="#7D94EF" fill-opacity="0.38" stroke="None">
<path d="
M 47.00 68.00 
C 47.00 68.00 47.50 68.05 48.00 68.00
C 48.25 67.75 48.00 67.00 48.00 67.00
C 47.65 67.03 47.26 67.88 47.00 68.00 Z"/>
</g>
<g fill="#BFD1F6" fill-opacity="0.11" stroke="None">
<path d="
M 48.00 68.00 
C 48.35 67.97 48.74 67.12 49.00 67.00
C 49.00 67.00 48.50 66.95 48.00 67.00
C 48.00 67.00 48.25 67.75 48.00 68.00 Z"/>
</g>
<g fill="#B9CEFA" fill-opacity="0.13" stroke="None">
<path d="
M 19.00 69.00 
C 18.75 68.75 19.00 68.00 19.00 68.00
C 18.53 67.88 17.50 68.00 17.00 68.00
C 17.97 68.64 17.42 69.10 19.00 69.00 Z"/>
</g>
<g fill="#6E88ED" fill-opacity="0.45" stroke="None">
<path d="
M 19.00 69.00 
C 19.00 69.00 19.50 69.00 20.00 69.00
C 19.74 68.88 19.35 68.09 19.00 68.00
C 19.00 68.00 18.75 68.75 19.00 69.00 Z"/>
</g>
<g fill="#7089ED" fill-opacity="0.44" stroke="None">
<path d="
M 43.00 69.00 
C 43.00 69.00 43.50 69.00 44.00 69.00
C 43.75 68.75 44.00 68.00 44.00 68.00
C 43.65 68.03 43.26 68.88 43.00 69.00 Z"/>
</g>
<g fill="#AAB8F6" fill-opacity="0.21" stroke="None">
<path d="
M 44.00 69.00 
C 44.00 69.00 44.50 69.05 45.00 69.00
C 45.25 68.75 45.00 68.00 45.00 68.00
C 45.00 68.00 44.50 67.95 44.00 68.00
C 44.00 68.00 43.75 68.75 44.00 69.00 Z"/>
</g>
<g fill="#BFFFFF" fill-opacity="0.02" stroke="None">
<path d="
M 45.00 69.00 
C 45.35 68.97 45.74 68.12 46.00 68.00
C 46.00 68.00 45.50 68.00 45.00 68.00
C 45.00 68.00 45.25 68.75 45.00 69.00 Z"/>
</g>
<g fill="#CCD9F2" fill-opacity="0.08" stroke="None">
<path d="
M 22.00 70.00 
C 21.77 69.66 22.00 69.00 22.00 69.00
C 22.00 69.00 21.50 69.00 21.00 69.00
C 21.26 69.12 21.65 69.91 22.00 70.00 Z"/>
</g>
<g fill="#728CEE" fill-opacity="0.43" stroke="None">
<path d="
M 22.00 70.00 
C 22.47 70.12 23.50 70.00 24.00 70.00
C 23.03 69.36 23.58 68.90 22.00 69.00
C 22.00 69.00 21.77 69.66 22.00 70.00 Z"/>
</g>
<g fill="#94A8F2" fill-opacity="0.30" stroke="None">
<path d="
M 40.00 70.00 
C 40.00 70.00 40.50 70.05 41.00 70.00
C 41.25 69.75 41.00 69.00 41.00 69.00
C 40.65 69.03 40.26 69.89 40.00 70.00 Z"/>
</g>
<g fill="#CCE6FF" fill-opacity="0.04" stroke="None">
<path d="
M 41.00 70.00 
C 41.35 69.97 41.74 69.12 42.00 69.00
C 42.00 69.00 41.50 68.95 41.00 69.00
C 41.00 69.00 41.25 69.75 41.00 70.00 Z"/>
</g>
<g fill="#BCC9F8" fill-opacity="0.15" stroke="None">
<path d="
M 26.00 71.00 
C 25.75 70.75 26.00 70.00 26.00 70.00
C 26.00 70.00 25.50 70.00 25.00 70.00
C 25.26 70.12 25.65 70.97 26.00 71.00 Z"/>
</g>
<g fill="#768EEE" fill-opacity="0.42" stroke="None">
<path d="
M 26.00 71.00 
C 26.00 71.00 26.50 71.00 27.00 71.00
C 26.74 70.88 26.35 70.03 26.00 70.00
C 26.00 70.00 25.75 70.75 26.00 71.00 Z"/>
</g>
<g fill="#829BF1" fill-opacity="0.36" stroke="None">
<path d="
M 36.00 71.00 
C 36.00 71.00 36.50 71.05 37.00 71.00
C 37.25 70.75 37.00 70.00 37.00 70.00
C 36.65 70.03 36.26 70.89 36.00 71.00 Z"/>
</g>
<g fill="#BFCFF7" fill-opacity="0.13" stroke="None">
<path d="
M 37.00 71.00 
C 37.35 70.97 37.74 70.11 38.00 70.00
C 38.00 70.00 37.50 69.95 37.00 70.00
C 37.00 70.00 37.25 70.75 37.00 71.00 Z"/>
</g>
<g fill="#FFFFFF" fill-opacity="0.01" stroke="None">
<path d="
M 28.00 72.00 
L 29.00 72.00
C 29.00 71.50 29.00 71.00 29.00 71.00
C 29.00 71.00 28.50 71.00 28.00 71.00
C 28.00 71.00 28.00 71.50 28.00 72.00 Z"/>
</g>
<g fill="#9EAEF3" fill-opacity="0.26" stroke="None">
<path d="
M 29.00 72.00 
L 30.00 72.00
C 30.00 71.50 30.00 71.00 30.00 71.00
C 30.00 71.00 29.50 71.00 29.00 71.00
C 29.00 71.00 29.00 71.50 29.00 72.00 Z"/>
</g>
<g fill="#5977EA" fill-opacity="0.53" stroke="None">
<path d="
M 30.00 72.00 
L 33.00 72.00
C 33.00 71.50 33.00 71.00 33.00 71.00
C 32.00 71.00 31.00 71.00 30.00 71.00
C 30.00 71.00 30.00 71.50 30.00 72.00 Z"/>
</g>
<g fill="#A0B5F3" fill-opacity="0.24" stroke="None">
<path d="
M 33.00 72.00 
L 34.00 72.00
C 34.00 72.00 34.25 71.25 34.00 71.00
C 34.00 71.00 33.50 71.00 33.00 71.00
C 33.00 71.00 33.00 71.50 33.00 72.00 Z"/>
</g>
</svg>