<svg xmlns="http://www.w3.org/2000/svg" xmlns:v="https://svgstorm.com"
viewBox = "0 0 80 80"
width="80"
height="80">
<g fill="None" fill-opacity="0.0" stroke="#F7DF1E" stroke-opacity="0.76" stroke-width="0.3"><path d="
M 0.00 80.00 
L 80.00 80.00
L 80.00 0.00
L 0.00 0.00
L 0.00 80.00
M 79.00 1.00 
C 79.00 27.00 79.00 53.00 79.00 79.00
C 53.00 79.00 27.00 79.00 1.00 79.00
C 1.00 53.00 1.00 27.00 1.00 1.00
C 27.00 1.00 53.00 1.00 79.00 1.00 Z"/>
</g>
<g fill="None" fill-opacity="0.0" stroke="#F5DD1D" stroke-opacity="1.00" stroke-width="0.3"><path d="
M 79.00 1.00 
C 53.00 1.00 27.00 1.00 1.00 1.00
C 1.00 27.00 1.00 53.00 1.00 79.00
C 27.00 79.00 53.00 79.00 79.00 79.00
C 79.00 53.00 79.00 27.00 79.00 1.00
M 44.00 37.00 
C 44.77 45.53 44.60 56.29 43.00 64.00
C 41.55 71.00 37.66 74.37 30.33 73.67 C 23.00 72.97 18.71 64.22 28.00 64.00
C 32.63 70.60 37.17 64.40 36.00 58.00 C 34.83 51.60 36.87 43.55 36.00 37.00
C 37.30 35.15 42.64 35.59 44.00 37.00
M 67.00 45.00 
C 64.04 45.79 65.26 43.39 63.00 43.00
C 53.60 41.31 58.83 51.13 65.08 51.92 C 71.32 52.72 75.33 60.03 73.22 66.22 C 71.12 72.41 65.02 73.80 58.33 73.67 C 51.64 73.54 46.84 64.96 51.70 63.70 C 56.56 62.44 65.51 70.79 65.97 62.97 C 66.44 55.16 54.72 58.79 52.25 52.75 C 49.77 46.71 49.07 41.07 55.25 37.25 C 61.42 33.43 68.95 37.18 71.00 43.00
C 69.66 43.73 68.36 44.34 67.00 45.00 Z"/>
</g>
<g fill="None" fill-opacity="0.0" stroke="#BFAD17" stroke-opacity="1.00" stroke-width="0.3"><path d="
M 36.00 37.00 
C 38.33 37.00 40.67 37.00 43.00 37.00
C 43.50 37.00 44.00 37.00 44.00 37.00
C 42.64 35.59 37.30 35.15 36.00 37.00 Z"/>
</g>
<g fill="None" fill-opacity="0.0" stroke="#000000" stroke-opacity="1.00" stroke-width="0.3"><path d="
M 63.00 43.00 
C 64.70 43.31 64.98 45.01 67.00 45.00
C 68.36 44.34 69.66 43.73 71.00 43.00
C 68.95 37.18 61.42 33.43 55.25 37.25 C 49.07 41.07 49.77 46.71 52.25 52.75 C 54.72 58.79 66.44 55.16 65.97 62.97 C 65.51 70.79 56.56 62.44 51.70 63.70 C 46.84 64.96 51.64 73.54 58.33 73.67 C 65.02 73.80 71.12 72.41 73.22 66.22 C 75.33 60.03 71.32 52.72 65.08 51.92 C 58.83 51.13 53.60 41.31 63.00 43.00 Z"/>
</g>
<g fill="None" fill-opacity="0.0" stroke="#000000" stroke-opacity="1.00" stroke-width="0.3"><path d="
M 43.00 64.00 
C 43.81 55.07 42.19 45.93 43.00 37.00
C 40.67 37.00 38.33 37.00 36.00 37.00
C 36.87 43.55 34.83 51.60 36.00 58.00 C 37.17 64.40 32.63 70.60 28.00 64.00
C 18.71 64.22 23.00 72.97 30.33 73.67 C 37.66 74.37 41.55 71.00 43.00 64.00 Z"/>
</g>
<g fill="None" fill-opacity="0.0" stroke="#675D0D" stroke-opacity="1.00" stroke-width="0.3"><path d="
M 43.00 64.00 
C 44.60 56.29 44.77 45.53 44.00 37.00
C 44.00 37.00 43.50 37.00 43.00 37.00
C 42.19 45.93 43.81 55.07 43.00 64.00 Z"/>
</g>
<g fill="None" fill-opacity="0.0" stroke="#756A0E" stroke-opacity="1.00" stroke-width="0.3"><path d="
M 67.00 45.00 
C 64.98 45.01 64.70 43.31 63.00 43.00
C 65.26 43.39 64.04 45.79 67.00 45.00 Z"/>
</g>
<g fill="#F7DF1E" fill-opacity="0.76" stroke="None">
<path d="
M 0.00 80.00 
L 80.00 80.00
L 80.00 0.00
L 0.00 0.00
L 0.00 80.00
M 79.00 1.00 
C 79.00 27.00 79.00 53.00 79.00 79.00
C 53.00 79.00 27.00 79.00 1.00 79.00
C 1.00 53.00 1.00 27.00 1.00 1.00
C 27.00 1.00 53.00 1.00 79.00 1.00 Z"/>
</g>
<g fill="#F5DD1D" fill-opacity="1.00" stroke="None">
<path d="
M 79.00 1.00 
C 53.00 1.00 27.00 1.00 1.00 1.00
C 1.00 27.00 1.00 53.00 1.00 79.00
C 27.00 79.00 53.00 79.00 79.00 79.00
C 79.00 53.00 79.00 27.00 79.00 1.00
M 44.00 37.00 
C 44.77 45.53 44.60 56.29 43.00 64.00
C 41.55 71.00 37.66 74.37 30.33 73.67 C 23.00 72.97 18.71 64.22 28.00 64.00
C 32.63 70.60 37.17 64.40 36.00 58.00 C 34.83 51.60 36.87 43.55 36.00 37.00
C 37.30 35.15 42.64 35.59 44.00 37.00
M 67.00 45.00 
C 64.04 45.79 65.26 43.39 63.00 43.00
C 53.60 41.31 58.83 51.13 65.08 51.92 C 71.32 52.72 75.33 60.03 73.22 66.22 C 71.12 72.41 65.02 73.80 58.33 73.67 C 51.64 73.54 46.84 64.96 51.70 63.70 C 56.56 62.44 65.51 70.79 65.97 62.97 C 66.44 55.16 54.72 58.79 52.25 52.75 C 49.77 46.71 49.07 41.07 55.25 37.25 C 61.42 33.43 68.95 37.18 71.00 43.00
C 69.66 43.73 68.36 44.34 67.00 45.00 Z"/>
</g>
<g fill="#BFAD17" fill-opacity="1.00" stroke="None">
<path d="
M 36.00 37.00 
C 38.33 37.00 40.67 37.00 43.00 37.00
C 43.50 37.00 44.00 37.00 44.00 37.00
C 42.64 35.59 37.30 35.15 36.00 37.00 Z"/>
</g>
<g fill="#000000" fill-opacity="1.00" stroke="None">
<path d="
M 63.00 43.00 
C 64.70 43.31 64.98 45.01 67.00 45.00
C 68.36 44.34 69.66 43.73 71.00 43.00
C 68.95 37.18 61.42 33.43 55.25 37.25 C 49.07 41.07 49.77 46.71 52.25 52.75 C 54.72 58.79 66.44 55.16 65.97 62.97 C 65.51 70.79 56.56 62.44 51.70 63.70 C 46.84 64.96 51.64 73.54 58.33 73.67 C 65.02 73.80 71.12 72.41 73.22 66.22 C 75.33 60.03 71.32 52.72 65.08 51.92 C 58.83 51.13 53.60 41.31 63.00 43.00 Z"/>
</g>
<g fill="#000000" fill-opacity="1.00" stroke="None">
<path d="
M 43.00 64.00 
C 43.81 55.07 42.19 45.93 43.00 37.00
C 40.67 37.00 38.33 37.00 36.00 37.00
C 36.87 43.55 34.83 51.60 36.00 58.00 C 37.17 64.40 32.63 70.60 28.00 64.00
C 18.71 64.22 23.00 72.97 30.33 73.67 C 37.66 74.37 41.55 71.00 43.00 64.00 Z"/>
</g>
<g fill="#675D0D" fill-opacity="1.00" stroke="None">
<path d="
M 43.00 64.00 
C 44.60 56.29 44.77 45.53 44.00 37.00
C 44.00 37.00 43.50 37.00 43.00 37.00
C 42.19 45.93 43.81 55.07 43.00 64.00 Z"/>
</g>
<g fill="#756A0E" fill-opacity="1.00" stroke="None">
<path d="
M 67.00 45.00 
C 64.98 45.01 64.70 43.31 63.00 43.00
C 65.26 43.39 64.04 45.79 67.00 45.00 Z"/>
</g>
</svg>