<svg xmlns="http://www.w3.org/2000/svg" xmlns:v="https://svgstorm.com"
viewBox = "0 0 75 75"
width="75"
height="75">
<g fill="None" fill-opacity="0.0" stroke="#0893D5" stroke-opacity="0.85" stroke-width="0.3"><path d="
M 0.00 39.00 
C 0.50 39.00 1.00 39.00 1.00 39.00
C 1.00 38.50 1.00 38.00 1.00 38.00
C 1.00 25.67 1.00 13.33 1.00 1.00
C 2.00 1.00 3.00 1.00 4.00 1.00
C 4.49 1.06 5.00 1.00 5.00 1.00
C 5.25 0.75 5.00 0.00 5.00 0.00
L 0.00 0.00
L 0.00 39.00 Z"/>
</g>
<g fill="None" fill-opacity="0.0" stroke="#3F82DC" stroke-opacity="0.64" stroke-width="0.3"><path d="
M 5.00 1.00 
C 7.33 1.00 9.67 1.00 12.00 1.00
C 11.75 0.73 12.00 0.00 12.00 0.00
L 5.00 0.00
C 5.00 0.00 5.25 0.75 5.00 1.00 Z"/>
</g>
<g fill="None" fill-opacity="0.0" stroke="#7572E0" stroke-opacity="0.46" stroke-width="0.3"><path d="
M 12.00 1.00 
C 13.00 1.00 14.00 1.00 15.00 1.00
C 21.76 1.00 29.32 1.96 36.00 1.00
C 36.21 0.73 36.84 0.34 37.00 0.00
L 12.00 0.00
C 12.00 0.00 11.75 0.73 12.00 1.00 Z"/>
</g>
<g fill="None" fill-opacity="0.0" stroke="#F58616" stroke-opacity="1.00" stroke-width="0.3"><path d="
M 36.00 1.00 
C 32.61 5.36 29.01 10.26 25.00 14.00
C 23.99 15.29 22.80 16.61 22.00 18.00
C 28.15 22.68 32.89 29.37 39.00 34.00
C 49.41 22.65 62.24 12.92 72.00 1.00
C 60.83 0.33 48.34 2.33 38.00 0.00
L 37.00 0.00
C 36.84 0.34 36.21 0.73 36.00 1.00 Z"/>
</g>
<g fill="None" fill-opacity="0.0" stroke="#F68810" stroke-opacity="0.83" stroke-width="0.3"><path d="
M 39.00 34.00 
C 38.30 34.76 37.35 36.04 37.00 37.00
C 37.25 36.75 38.00 37.00 38.00 37.00
C 47.75 23.06 63.90 13.62 74.00 0.00
L 38.00 0.00
C 48.34 2.33 60.83 0.33 72.00 1.00
C 62.24 12.92 49.41 22.65 39.00 34.00 Z"/>
</g>
<g fill="None" fill-opacity="0.0" stroke="#FAC388" stroke-opacity="0.35" stroke-width="0.3"><path d="
M 38.00 37.00 
C 51.94 27.25 61.38 11.10 75.00 1.00
L 75.00 0.00
L 74.00 0.00
C 63.90 13.62 47.75 23.06 38.00 37.00 Z"/>
</g>
<g fill="None" fill-opacity="0.0" stroke="#0C92D4" stroke-opacity="1.00" stroke-width="0.3"><path d="
M 1.00 38.00 
C 2.19 36.98 3.94 36.05 5.00 35.00
C 5.93 34.08 7.13 32.88 8.00 32.00
C 9.11 30.88 10.03 29.18 11.00 28.00
C 12.54 26.12 14.37 24.63 16.00 23.00
C 16.96 21.03 19.50 18.48 21.00 17.00
C 18.06 17.53 14.37 11.79 12.25 9.75 C 10.12 7.72 5.18 3.82 4.00 1.00
C 3.00 1.00 2.00 1.00 1.00 1.00
C 1.00 13.33 1.00 25.67 1.00 38.00 Z"/>
</g>
<g fill="None" fill-opacity="0.0" stroke="#3E82DB" stroke-opacity="1.00" stroke-width="0.3"><path d="
M 21.00 17.00 
C 21.52 16.48 22.52 15.41 23.00 15.00
C 25.64 11.34 19.37 2.94 15.00 1.00
C 14.00 1.00 13.00 1.00 12.00 1.00
C 9.67 1.00 7.33 1.00 5.00 1.00
C 5.00 1.00 4.49 1.06 4.00 1.00
C 5.18 3.82 10.12 7.72 12.25 9.75 C 14.37 11.79 18.06 17.53 21.00 17.00 Z"/>
</g>
<g fill="None" fill-opacity="0.0" stroke="#7274DC" stroke-opacity="1.00" stroke-width="0.3"><path d="
M 23.00 15.00 
C 23.50 14.57 24.58 14.39 25.00 14.00
C 29.01 10.26 32.61 5.36 36.00 1.00
C 29.32 1.96 21.76 1.00 15.00 1.00
C 19.37 2.94 25.64 11.34 23.00 15.00 Z"/>
</g>
<g fill="None" fill-opacity="0.0" stroke="#000000" stroke-opacity="0.00" stroke-width="0.3"><path d="
M 38.00 37.00 
C 38.25 37.25 38.00 38.00 38.00 38.00
C 51.94 47.75 61.38 63.90 75.00 74.00
L 75.00 1.00
C 61.38 11.10 51.94 27.25 38.00 37.00 Z"/>
</g>
<g fill="None" fill-opacity="0.0" stroke="#EA7C38" stroke-opacity="1.00" stroke-width="0.3"><path d="
M 23.00 15.00 
C 22.52 15.41 21.52 16.48 21.00 17.00
C 19.50 18.48 16.96 21.03 16.00 23.00
C 15.80 23.40 16.00 24.00 16.00 24.00
C 18.62 25.83 23.01 29.68 24.75 32.25 C 26.49 34.81 33.00 38.02 33.00 41.00
C 34.14 39.90 35.84 39.00 37.00 38.00
C 36.75 37.75 37.00 37.00 37.00 37.00
C 37.35 36.04 38.30 34.76 39.00 34.00
C 32.89 29.37 28.15 22.68 22.00 18.00
C 22.80 16.61 23.99 15.29 25.00 14.00
C 24.58 14.39 23.50 14.57 23.00 15.00 Z"/>
</g>
<g fill="None" fill-opacity="0.0" stroke="#868383" stroke-opacity="1.00" stroke-width="0.3"><path d="
M 11.00 28.00 
C 12.36 26.58 14.42 25.10 16.00 24.00
C 16.00 24.00 15.80 23.40 16.00 23.00
C 14.37 24.63 12.54 26.12 11.00 28.00 Z"/>
</g>
<g fill="None" fill-opacity="0.0" stroke="#E47451" stroke-opacity="1.00" stroke-width="0.3"><path d="
M 11.00 28.00 
C 10.03 29.18 9.11 30.88 8.00 32.00
C 7.94 34.26 14.67 39.14 16.25 40.75 C 17.83 42.36 22.76 49.00 25.00 49.00
C 27.56 46.44 30.44 43.46 33.00 41.00
C 33.00 38.02 26.49 34.81 24.75 32.25 C 23.01 29.68 18.62 25.83 16.00 24.00
C 14.42 25.10 12.36 26.58 11.00 28.00 Z"/>
</g>
<g fill="None" fill-opacity="0.0" stroke="#DD6E69" stroke-opacity="1.00" stroke-width="0.3"><path d="
M 5.00 35.00 
C 3.97 37.68 9.24 42.55 11.75 44.25 C 14.26 45.95 18.01 53.00 21.00 53.00
C 22.21 51.74 23.81 50.19 25.00 49.00
C 22.76 49.00 17.83 42.36 16.25 40.75 C 14.67 39.14 7.94 34.26 8.00 32.00
C 7.13 32.88 5.93 34.08 5.00 35.00 Z"/>
</g>
<g fill="None" fill-opacity="0.0" stroke="#D7687C" stroke-opacity="1.00" stroke-width="0.3"><path d="
M 1.00 38.00 
C 1.00 38.00 1.00 38.50 1.00 39.00
C 1.00 40.67 1.00 42.33 1.00 44.00
C 1.56 45.74 6.80 49.20 8.25 50.75 C 9.70 52.31 13.89 57.91 16.00 58.00
C 16.51 57.52 17.53 57.41 18.00 57.00
C 19.15 56.01 19.99 54.05 21.00 53.00
C 18.01 53.00 14.26 45.95 11.75 44.25 C 9.24 42.55 3.97 37.68 5.00 35.00
C 3.94 36.05 2.19 36.98 1.00 38.00 Z"/>
</g>
<g fill="None" fill-opacity="0.0" stroke="#C88C8F" stroke-opacity="0.33" stroke-width="0.3"><path d="
M 37.00 38.00 
C 37.25 37.75 38.00 38.00 38.00 38.00
C 38.00 38.00 38.25 37.25 38.00 37.00
C 38.00 37.00 37.25 36.75 37.00 37.00
C 37.00 37.00 36.75 37.75 37.00 38.00 Z"/>
</g>
<g fill="None" fill-opacity="0.0" stroke="#A4779C" stroke-opacity="1.00" stroke-width="0.3"><path d="
M 33.00 41.00 
C 30.44 43.46 27.56 46.44 25.00 49.00
C 23.81 50.19 22.21 51.74 21.00 53.00
C 19.99 54.05 19.15 56.01 18.00 57.00
C 19.36 55.54 21.63 54.37 23.00 53.00
C 25.59 50.41 28.46 47.54 31.00 45.00
C 33.03 42.97 34.62 40.66 37.00 39.00
C 36.77 38.84 37.00 38.00 37.00 38.00
C 35.84 39.00 34.14 39.90 33.00 41.00 Z"/>
</g>
<g fill="None" fill-opacity="0.0" stroke="#7671E1" stroke-opacity="0.46" stroke-width="0.3"><path d="
M 37.00 39.00 
C 50.31 48.30 59.90 63.45 72.00 74.00
C 68.00 74.00 64.00 74.00 60.00 74.00
C 54.67 74.00 49.33 74.00 44.00 74.00
C 43.50 74.00 43.00 74.00 43.00 74.00
C 42.75 74.25 43.00 75.00 43.00 75.00
L 74.00 75.00
C 63.85 61.34 47.71 51.89 38.00 38.00
C 38.00 38.00 37.25 37.75 37.00 38.00
C 37.00 38.00 36.77 38.84 37.00 39.00 Z"/>
</g>
<g fill="None" fill-opacity="0.0" stroke="#B0A6EE" stroke-opacity="0.23" stroke-width="0.3"><path d="
M 74.00 75.00 
L 75.00 75.00
L 75.00 74.00
C 61.38 63.90 51.94 47.75 38.00 38.00
C 47.71 51.89 63.85 61.34 74.00 75.00 Z"/>
</g>
<g fill="None" fill-opacity="0.0" stroke="#CC5EA3" stroke-opacity="0.51" stroke-width="0.3"><path d="
M 0.00 74.00 
C 0.50 74.00 1.00 74.00 1.00 74.00
C 0.75 73.75 1.00 73.00 1.00 73.00
C 1.00 67.33 1.00 61.67 1.00 56.00
C 1.00 52.00 1.00 48.00 1.00 44.00
C 1.00 42.33 1.00 40.67 1.00 39.00
C 1.00 39.00 0.50 39.00 0.00 39.00
L 0.00 74.00 Z"/>
</g>
<g fill="None" fill-opacity="0.0" stroke="#7870E2" stroke-opacity="1.00" stroke-width="0.3"><path d="
M 31.00 45.00 
C 36.49 45.00 40.56 57.30 45.75 59.25 C 50.94 61.20 55.02 72.16 60.00 74.00
C 64.00 74.00 68.00 74.00 72.00 74.00
C 59.90 63.45 50.31 48.30 37.00 39.00
C 34.62 40.66 33.03 42.97 31.00 45.00 Z"/>
</g>
<g fill="None" fill-opacity="0.0" stroke="#D26292" stroke-opacity="1.00" stroke-width="0.3"><path d="
M 1.00 56.00 
C 1.39 57.05 8.88 64.00 10.00 64.00
C 11.88 62.12 14.12 59.75 16.00 58.00
C 13.89 57.91 9.70 52.31 8.25 50.75 C 6.80 49.20 1.56 45.74 1.00 44.00
C 1.00 48.00 1.00 52.00 1.00 56.00 Z"/>
</g>
<g fill="None" fill-opacity="0.0" stroke="#6277DF" stroke-opacity="1.00" stroke-width="0.3"><path d="
M 23.00 53.00 
C 26.25 53.00 31.10 61.11 33.75 63.25 C 36.40 65.39 42.65 70.77 44.00 74.00
C 49.33 74.00 54.67 74.00 60.00 74.00
C 55.02 72.16 50.94 61.20 45.75 59.25 C 40.56 57.30 36.49 45.00 31.00 45.00
C 28.46 47.54 25.59 50.41 23.00 53.00 Z"/>
</g>
<g fill="None" fill-opacity="0.0" stroke="#467FDC" stroke-opacity="1.00" stroke-width="0.3"><path d="
M 18.00 57.00 
C 17.54 57.49 17.40 58.57 17.00 59.00
C 17.45 60.75 23.25 64.67 24.75 66.25 C 26.26 67.82 30.24 73.35 32.00 74.00
C 35.67 74.00 39.33 74.00 43.00 74.00
C 43.00 74.00 43.50 74.00 44.00 74.00
C 42.65 70.77 36.40 65.39 33.75 63.25 C 31.10 61.11 26.25 53.00 23.00 53.00
C 21.63 54.37 19.36 55.54 18.00 57.00 Z"/>
</g>
<g fill="None" fill-opacity="0.0" stroke="#CA5AAD" stroke-opacity="1.00" stroke-width="0.3"><path d="
M 1.00 73.00 
C 4.52 70.54 7.07 66.93 10.00 64.00
C 8.88 64.00 1.39 57.05 1.00 56.00
C 1.00 61.67 1.00 67.33 1.00 73.00 Z"/>
</g>
<g fill="None" fill-opacity="0.0" stroke="#7677BD" stroke-opacity="1.00" stroke-width="0.3"><path d="
M 16.00 58.00 
C 14.12 59.75 11.88 62.12 10.00 64.00
C 7.07 66.93 4.52 70.54 1.00 73.00
C 1.00 73.00 0.75 73.75 1.00 74.00
C 1.25 73.75 2.00 74.00 2.00 74.00
C 6.03 68.24 12.32 64.01 17.00 59.00
C 17.40 58.57 17.54 57.49 18.00 57.00
C 17.53 57.41 16.51 57.52 16.00 58.00 Z"/>
</g>
<g fill="None" fill-opacity="0.0" stroke="#258AD8" stroke-opacity="1.00" stroke-width="0.3"><path d="
M 2.00 74.00 
C 9.00 74.00 16.00 74.00 23.00 74.00
C 26.00 74.00 29.00 74.00 32.00 74.00
C 30.24 73.35 26.26 67.82 24.75 66.25 C 23.25 64.67 17.45 60.75 17.00 59.00
C 12.32 64.01 6.03 68.24 2.00 74.00 Z"/>
</g>
<g fill="None" fill-opacity="0.0" stroke="#6677CA" stroke-opacity="0.47" stroke-width="0.3"><path d="
M 0.00 75.00 
L 1.00 75.00
C 1.00 74.50 1.00 74.00 1.00 74.00
C 1.00 74.00 0.50 74.00 0.00 74.00
L 0.00 75.00 Z"/>
</g>
<g fill="None" fill-opacity="0.0" stroke="#0D91D6" stroke-opacity="0.83" stroke-width="0.3"><path d="
M 1.00 75.00 
L 23.00 75.00
C 23.00 74.50 23.00 74.00 23.00 74.00
C 16.00 74.00 9.00 74.00 2.00 74.00
C 2.00 74.00 1.25 73.75 1.00 74.00
C 1.00 74.00 1.00 74.50 1.00 75.00 Z"/>
</g>
<g fill="None" fill-opacity="0.0" stroke="#3A83DB" stroke-opacity="0.65" stroke-width="0.3"><path d="
M 23.00 75.00 
L 43.00 75.00
C 43.00 75.00 42.75 74.25 43.00 74.00
C 39.33 74.00 35.67 74.00 32.00 74.00
C 29.00 74.00 26.00 74.00 23.00 74.00
C 23.00 74.00 23.00 74.50 23.00 75.00 Z"/>
</g>
<g fill="#0893D5" fill-opacity="0.85" stroke="None">
<path d="
M 0.00 39.00 
C 0.50 39.00 1.00 39.00 1.00 39.00
C 1.00 38.50 1.00 38.00 1.00 38.00
C 1.00 25.67 1.00 13.33 1.00 1.00
C 2.00 1.00 3.00 1.00 4.00 1.00
C 4.49 1.06 5.00 1.00 5.00 1.00
C 5.25 0.75 5.00 0.00 5.00 0.00
L 0.00 0.00
L 0.00 39.00 Z"/>
</g>
<g fill="#3F82DC" fill-opacity="0.64" stroke="None">
<path d="
M 5.00 1.00 
C 7.33 1.00 9.67 1.00 12.00 1.00
C 11.75 0.73 12.00 0.00 12.00 0.00
L 5.00 0.00
C 5.00 0.00 5.25 0.75 5.00 1.00 Z"/>
</g>
<g fill="#7572E0" fill-opacity="0.46" stroke="None">
<path d="
M 12.00 1.00 
C 13.00 1.00 14.00 1.00 15.00 1.00
C 21.76 1.00 29.32 1.96 36.00 1.00
C 36.21 0.73 36.84 0.34 37.00 0.00
L 12.00 0.00
C 12.00 0.00 11.75 0.73 12.00 1.00 Z"/>
</g>
<g fill="#F58616" fill-opacity="1.00" stroke="None">
<path d="
M 36.00 1.00 
C 32.61 5.36 29.01 10.26 25.00 14.00
C 23.99 15.29 22.80 16.61 22.00 18.00
C 28.15 22.68 32.89 29.37 39.00 34.00
C 49.41 22.65 62.24 12.92 72.00 1.00
C 60.83 0.33 48.34 2.33 38.00 0.00
L 37.00 0.00
C 36.84 0.34 36.21 0.73 36.00 1.00 Z"/>
</g>
<g fill="#F68810" fill-opacity="0.83" stroke="None">
<path d="
M 39.00 34.00 
C 38.30 34.76 37.35 36.04 37.00 37.00
C 37.25 36.75 38.00 37.00 38.00 37.00
C 47.75 23.06 63.90 13.62 74.00 0.00
L 38.00 0.00
C 48.34 2.33 60.83 0.33 72.00 1.00
C 62.24 12.92 49.41 22.65 39.00 34.00 Z"/>
</g>
<g fill="#FAC388" fill-opacity="0.35" stroke="None">
<path d="
M 38.00 37.00 
C 51.94 27.25 61.38 11.10 75.00 1.00
L 75.00 0.00
L 74.00 0.00
C 63.90 13.62 47.75 23.06 38.00 37.00 Z"/>
</g>
<g fill="#0C92D4" fill-opacity="1.00" stroke="None">
<path d="
M 1.00 38.00 
C 2.19 36.98 3.94 36.05 5.00 35.00
C 5.93 34.08 7.13 32.88 8.00 32.00
C 9.11 30.88 10.03 29.18 11.00 28.00
C 12.54 26.12 14.37 24.63 16.00 23.00
C 16.96 21.03 19.50 18.48 21.00 17.00
C 18.06 17.53 14.37 11.79 12.25 9.75 C 10.12 7.72 5.18 3.82 4.00 1.00
C 3.00 1.00 2.00 1.00 1.00 1.00
C 1.00 13.33 1.00 25.67 1.00 38.00 Z"/>
</g>
<g fill="#3E82DB" fill-opacity="1.00" stroke="None">
<path d="
M 21.00 17.00 
C 21.52 16.48 22.52 15.41 23.00 15.00
C 25.64 11.34 19.37 2.94 15.00 1.00
C 14.00 1.00 13.00 1.00 12.00 1.00
C 9.67 1.00 7.33 1.00 5.00 1.00
C 5.00 1.00 4.49 1.06 4.00 1.00
C 5.18 3.82 10.12 7.72 12.25 9.75 C 14.37 11.79 18.06 17.53 21.00 17.00 Z"/>
</g>
<g fill="#7274DC" fill-opacity="1.00" stroke="None">
<path d="
M 23.00 15.00 
C 23.50 14.57 24.58 14.39 25.00 14.00
C 29.01 10.26 32.61 5.36 36.00 1.00
C 29.32 1.96 21.76 1.00 15.00 1.00
C 19.37 2.94 25.64 11.34 23.00 15.00 Z"/>
</g>
<g fill="#000000" fill-opacity="0.00" stroke="None">
<path d="
M 38.00 37.00 
C 38.25 37.25 38.00 38.00 38.00 38.00
C 51.94 47.75 61.38 63.90 75.00 74.00
L 75.00 1.00
C 61.38 11.10 51.94 27.25 38.00 37.00 Z"/>
</g>
<g fill="#EA7C38" fill-opacity="1.00" stroke="None">
<path d="
M 23.00 15.00 
C 22.52 15.41 21.52 16.48 21.00 17.00
C 19.50 18.48 16.96 21.03 16.00 23.00
C 15.80 23.40 16.00 24.00 16.00 24.00
C 18.62 25.83 23.01 29.68 24.75 32.25 C 26.49 34.81 33.00 38.02 33.00 41.00
C 34.14 39.90 35.84 39.00 37.00 38.00
C 36.75 37.75 37.00 37.00 37.00 37.00
C 37.35 36.04 38.30 34.76 39.00 34.00
C 32.89 29.37 28.15 22.68 22.00 18.00
C 22.80 16.61 23.99 15.29 25.00 14.00
C 24.58 14.39 23.50 14.57 23.00 15.00 Z"/>
</g>
<g fill="#868383" fill-opacity="1.00" stroke="None">
<path d="
M 11.00 28.00 
C 12.36 26.58 14.42 25.10 16.00 24.00
C 16.00 24.00 15.80 23.40 16.00 23.00
C 14.37 24.63 12.54 26.12 11.00 28.00 Z"/>
</g>
<g fill="#E47451" fill-opacity="1.00" stroke="None">
<path d="
M 11.00 28.00 
C 10.03 29.18 9.11 30.88 8.00 32.00
C 7.94 34.26 14.67 39.14 16.25 40.75 C 17.83 42.36 22.76 49.00 25.00 49.00
C 27.56 46.44 30.44 43.46 33.00 41.00
C 33.00 38.02 26.49 34.81 24.75 32.25 C 23.01 29.68 18.62 25.83 16.00 24.00
C 14.42 25.10 12.36 26.58 11.00 28.00 Z"/>
</g>
<g fill="#DD6E69" fill-opacity="1.00" stroke="None">
<path d="
M 5.00 35.00 
C 3.97 37.68 9.24 42.55 11.75 44.25 C 14.26 45.95 18.01 53.00 21.00 53.00
C 22.21 51.74 23.81 50.19 25.00 49.00
C 22.76 49.00 17.83 42.36 16.25 40.75 C 14.67 39.14 7.94 34.26 8.00 32.00
C 7.13 32.88 5.93 34.08 5.00 35.00 Z"/>
</g>
<g fill="#D7687C" fill-opacity="1.00" stroke="None">
<path d="
M 1.00 38.00 
C 1.00 38.00 1.00 38.50 1.00 39.00
C 1.00 40.67 1.00 42.33 1.00 44.00
C 1.56 45.74 6.80 49.20 8.25 50.75 C 9.70 52.31 13.89 57.91 16.00 58.00
C 16.51 57.52 17.53 57.41 18.00 57.00
C 19.15 56.01 19.99 54.05 21.00 53.00
C 18.01 53.00 14.26 45.95 11.75 44.25 C 9.24 42.55 3.97 37.68 5.00 35.00
C 3.94 36.05 2.19 36.98 1.00 38.00 Z"/>
</g>
<g fill="#C88C8F" fill-opacity="0.33" stroke="None">
<path d="
M 37.00 38.00 
C 37.25 37.75 38.00 38.00 38.00 38.00
C 38.00 38.00 38.25 37.25 38.00 37.00
C 38.00 37.00 37.25 36.75 37.00 37.00
C 37.00 37.00 36.75 37.75 37.00 38.00 Z"/>
</g>
<g fill="#A4779C" fill-opacity="1.00" stroke="None">
<path d="
M 33.00 41.00 
C 30.44 43.46 27.56 46.44 25.00 49.00
C 23.81 50.19 22.21 51.74 21.00 53.00
C 19.99 54.05 19.15 56.01 18.00 57.00
C 19.36 55.54 21.63 54.37 23.00 53.00
C 25.59 50.41 28.46 47.54 31.00 45.00
C 33.03 42.97 34.62 40.66 37.00 39.00
C 36.77 38.84 37.00 38.00 37.00 38.00
C 35.84 39.00 34.14 39.90 33.00 41.00 Z"/>
</g>
<g fill="#7671E1" fill-opacity="0.46" stroke="None">
<path d="
M 37.00 39.00 
C 50.31 48.30 59.90 63.45 72.00 74.00
C 68.00 74.00 64.00 74.00 60.00 74.00
C 54.67 74.00 49.33 74.00 44.00 74.00
C 43.50 74.00 43.00 74.00 43.00 74.00
C 42.75 74.25 43.00 75.00 43.00 75.00
L 74.00 75.00
C 63.85 61.34 47.71 51.89 38.00 38.00
C 38.00 38.00 37.25 37.75 37.00 38.00
C 37.00 38.00 36.77 38.84 37.00 39.00 Z"/>
</g>
<g fill="#B0A6EE" fill-opacity="0.23" stroke="None">
<path d="
M 74.00 75.00 
L 75.00 75.00
L 75.00 74.00
C 61.38 63.90 51.94 47.75 38.00 38.00
C 47.71 51.89 63.85 61.34 74.00 75.00 Z"/>
</g>
<g fill="#CC5EA3" fill-opacity="0.51" stroke="None">
<path d="
M 0.00 74.00 
C 0.50 74.00 1.00 74.00 1.00 74.00
C 0.75 73.75 1.00 73.00 1.00 73.00
C 1.00 67.33 1.00 61.67 1.00 56.00
C 1.00 52.00 1.00 48.00 1.00 44.00
C 1.00 42.33 1.00 40.67 1.00 39.00
C 1.00 39.00 0.50 39.00 0.00 39.00
L 0.00 74.00 Z"/>
</g>
<g fill="#7870E2" fill-opacity="1.00" stroke="None">
<path d="
M 31.00 45.00 
C 36.49 45.00 40.56 57.30 45.75 59.25 C 50.94 61.20 55.02 72.16 60.00 74.00
C 64.00 74.00 68.00 74.00 72.00 74.00
C 59.90 63.45 50.31 48.30 37.00 39.00
C 34.62 40.66 33.03 42.97 31.00 45.00 Z"/>
</g>
<g fill="#D26292" fill-opacity="1.00" stroke="None">
<path d="
M 1.00 56.00 
C 1.39 57.05 8.88 64.00 10.00 64.00
C 11.88 62.12 14.12 59.75 16.00 58.00
C 13.89 57.91 9.70 52.31 8.25 50.75 C 6.80 49.20 1.56 45.74 1.00 44.00
C 1.00 48.00 1.00 52.00 1.00 56.00 Z"/>
</g>
<g fill="#6277DF" fill-opacity="1.00" stroke="None">
<path d="
M 23.00 53.00 
C 26.25 53.00 31.10 61.11 33.75 63.25 C 36.40 65.39 42.65 70.77 44.00 74.00
C 49.33 74.00 54.67 74.00 60.00 74.00
C 55.02 72.16 50.94 61.20 45.75 59.25 C 40.56 57.30 36.49 45.00 31.00 45.00
C 28.46 47.54 25.59 50.41 23.00 53.00 Z"/>
</g>
<g fill="#467FDC" fill-opacity="1.00" stroke="None">
<path d="
M 18.00 57.00 
C 17.54 57.49 17.40 58.57 17.00 59.00
C 17.45 60.75 23.25 64.67 24.75 66.25 C 26.26 67.82 30.24 73.35 32.00 74.00
C 35.67 74.00 39.33 74.00 43.00 74.00
C 43.00 74.00 43.50 74.00 44.00 74.00
C 42.65 70.77 36.40 65.39 33.75 63.25 C 31.10 61.11 26.25 53.00 23.00 53.00
C 21.63 54.37 19.36 55.54 18.00 57.00 Z"/>
</g>
<g fill="#CA5AAD" fill-opacity="1.00" stroke="None">
<path d="
M 1.00 73.00 
C 4.52 70.54 7.07 66.93 10.00 64.00
C 8.88 64.00 1.39 57.05 1.00 56.00
C 1.00 61.67 1.00 67.33 1.00 73.00 Z"/>
</g>
<g fill="#7677BD" fill-opacity="1.00" stroke="None">
<path d="
M 16.00 58.00 
C 14.12 59.75 11.88 62.12 10.00 64.00
C 7.07 66.93 4.52 70.54 1.00 73.00
C 1.00 73.00 0.75 73.75 1.00 74.00
C 1.25 73.75 2.00 74.00 2.00 74.00
C 6.03 68.24 12.32 64.01 17.00 59.00
C 17.40 58.57 17.54 57.49 18.00 57.00
C 17.53 57.41 16.51 57.52 16.00 58.00 Z"/>
</g>
<g fill="#258AD8" fill-opacity="1.00" stroke="None">
<path d="
M 2.00 74.00 
C 9.00 74.00 16.00 74.00 23.00 74.00
C 26.00 74.00 29.00 74.00 32.00 74.00
C 30.24 73.35 26.26 67.82 24.75 66.25 C 23.25 64.67 17.45 60.75 17.00 59.00
C 12.32 64.01 6.03 68.24 2.00 74.00 Z"/>
</g>
<g fill="#6677CA" fill-opacity="0.47" stroke="None">
<path d="
M 0.00 75.00 
L 1.00 75.00
C 1.00 74.50 1.00 74.00 1.00 74.00
C 1.00 74.00 0.50 74.00 0.00 74.00
L 0.00 75.00 Z"/>
</g>
<g fill="#0D91D6" fill-opacity="0.83" stroke="None">
<path d="
M 1.00 75.00 
L 23.00 75.00
C 23.00 74.50 23.00 74.00 23.00 74.00
C 16.00 74.00 9.00 74.00 2.00 74.00
C 2.00 74.00 1.25 73.75 1.00 74.00
C 1.00 74.00 1.00 74.50 1.00 75.00 Z"/>
</g>
<g fill="#3A83DB" fill-opacity="0.65" stroke="None">
<path d="
M 23.00 75.00 
L 43.00 75.00
C 43.00 75.00 42.75 74.25 43.00 74.00
C 39.33 74.00 35.67 74.00 32.00 74.00
C 29.00 74.00 26.00 74.00 23.00 74.00
C 23.00 74.00 23.00 74.50 23.00 75.00 Z"/>
</g>
</svg>