<svg xmlns="http://www.w3.org/2000/svg" xmlns:v="https://svgstorm.com"
viewBox = "0 0 1715 1492"
width="1715"
height="1492">
<g fill="None" fill-opacity="0.0" stroke="#000000" stroke-opacity="0.00" stroke-width="0.3"><path d="
M 0.00 1492.00 
L 488.00 1492.00
C 454.54 1483.31 423.34 1469.66 399.25 1441.75 C 375.16 1413.85 362.64 1386.41 352.07 1349.93 C 341.51 1313.45 340.00 1263.38 340.00 1223.00
C 340.00 1218.07 339.57 1212.91 340.00 1208.00
C 341.17 1194.70 342.52 1180.24 343.98 1166.98 C 345.43 1153.71 346.98 1140.00 349.00 1127.00 C 351.02 1114.00 353.26 1101.64 355.93 1088.93 C 358.59 1076.21 360.18 1064.45 363.99 1051.99 C 367.81 1039.54 371.67 1025.70 356.93 1024.07 C 342.19 1022.44 335.58 1016.21 322.92 1013.08 C 310.27 1009.94 300.66 1005.68 288.98 1002.03 C 277.29 998.37 267.88 993.13 256.78 989.22 C 245.67 985.31 236.19 979.80 225.75 975.25 C 215.32 970.70 204.98 966.21 195.25 960.75 C 185.53 955.29 175.25 951.18 165.92 945.08 C 156.60 938.98 147.11 933.88 138.30 927.70 C 129.49 921.51 120.94 915.65 112.30 908.70 C 103.67 901.75 96.28 895.54 88.25 887.75 C 80.22 879.96 73.33 873.28 66.25 864.75 C 59.17 856.22 52.86 848.38 47.08 838.92 C 41.30 829.45 35.81 820.23 31.68 809.32 C 27.55 798.42 22.77 787.13 21.02 774.98 C 19.28 762.82 17.98 744.69 19.00 732.00 C 20.02 719.31 23.46 706.46 26.93 694.93 C 30.39 683.40 35.37 673.87 40.92 663.92 C 46.47 653.97 52.11 645.16 58.75 636.75 C 65.39 628.35 71.83 620.58 79.75 612.75 C 87.67 604.93 94.94 597.72 102.92 590.92 C 110.89 584.11 120.08 577.51 128.70 571.70 C 137.31 565.88 145.84 558.83 155.25 553.25 C 164.65 547.66 174.28 542.30 184.08 537.08 C 193.87 531.85 203.64 526.76 213.74 521.74 C 223.84 516.73 234.54 512.69 245.03 508.02 C 255.51 503.36 266.05 498.97 276.74 494.74 C 287.44 490.52 299.02 486.86 310.02 483.02 C 321.03 479.19 332.90 475.44 344.07 472.07 C 355.25 468.70 371.84 467.33 367.02 453.98 C 362.21 440.62 362.59 430.26 358.68 417.32 C 354.76 404.38 355.14 392.06 352.00 379.00 C 348.86 365.94 348.31 353.46 346.00 340.00 C 343.69 326.53 343.35 311.95 342.00 298.00
C 341.74 295.35 341.66 290.10 341.00 287.00
C 340.57 286.53 340.13 285.61 340.00 285.00
C 338.97 280.17 340.00 273.96 340.00 269.00
C 340.00 228.62 341.49 178.50 352.00 142.00 C 362.50 105.50 375.28 78.22 399.30 50.30 C 423.32 22.38 454.54 8.63 488.00 0.00
L 0.00 0.00
L 0.00 1492.00 Z"/>
</g>
<g fill="None" fill-opacity="0.0" stroke="#60DBFA" stroke-opacity="0.98" stroke-width="0.3"><path d="
M 340.00 269.00 
C 341.23 275.35 341.82 279.54 340.00 285.00
C 340.13 285.61 340.57 286.53 341.00 287.00
C 344.27 290.59 342.38 294.06 342.00 298.00
C 343.35 311.95 343.69 326.53 346.00 340.00 C 348.31 353.46 348.86 365.94 352.00 379.00 C 355.14 392.06 354.76 404.38 358.68 417.32 C 362.59 430.26 362.21 440.62 367.02 453.98 C 371.84 467.33 355.25 468.70 344.07 472.07 C 332.90 475.44 321.03 479.19 310.02 483.02 C 299.02 486.86 287.44 490.52 276.74 494.74 C 266.05 498.97 255.51 503.36 245.03 508.02 C 234.54 512.69 223.84 516.73 213.74 521.74 C 203.64 526.76 193.87 531.85 184.08 537.08 C 174.28 542.30 164.65 547.66 155.25 553.25 C 145.84 558.83 137.31 565.88 128.70 571.70 C 120.08 577.51 110.89 584.11 102.92 590.92 C 94.94 597.72 87.67 604.93 79.75 612.75 C 71.83 620.58 65.39 628.35 58.75 636.75 C 52.11 645.16 46.47 653.97 40.92 663.92 C 35.37 673.87 30.39 683.40 26.93 694.93 C 23.46 706.46 20.02 719.31 19.00 732.00 C 17.98 744.69 19.28 762.82 21.02 774.98 C 22.77 787.13 27.55 798.42 31.68 809.32 C 35.81 820.23 41.30 829.45 47.08 838.92 C 52.86 848.38 59.17 856.22 66.25 864.75 C 73.33 873.28 80.22 879.96 88.25 887.75 C 96.28 895.54 103.67 901.75 112.30 908.70 C 120.94 915.65 129.49 921.51 138.30 927.70 C 147.11 933.88 156.60 938.98 165.92 945.08 C 175.25 951.18 185.53 955.29 195.25 960.75 C 204.98 966.21 215.32 970.70 225.75 975.25 C 236.19 979.80 245.67 985.31 256.78 989.22 C 267.88 993.13 277.29 998.37 288.98 1002.03 C 300.66 1005.68 310.27 1009.94 322.92 1013.08 C 335.58 1016.21 342.19 1022.44 356.93 1024.07 C 371.67 1025.70 367.81 1039.54 363.99 1051.99 C 360.18 1064.45 358.59 1076.21 355.93 1088.93 C 353.26 1101.64 351.02 1114.00 349.00 1127.00 C 346.98 1140.00 345.43 1153.71 343.98 1166.98 C 342.52 1180.24 341.17 1194.70 340.00 1208.00
C 340.12 1208.96 341.97 1211.83 342.00 1215.00 C 342.03 1218.17 340.45 1220.68 340.00 1223.00
C 340.00 1263.38 341.51 1313.45 352.07 1349.93 C 362.64 1386.41 375.16 1413.85 399.25 1441.75 C 423.34 1469.66 454.54 1483.31 488.00 1492.00
L 562.00 1492.00
C 676.75 1466.96 775.23 1389.81 856.00 1310.00
C 883.84 1333.24 911.12 1360.46 941.25 1383.75 C 971.38 1407.05 1002.32 1428.42 1037.08 1447.92 C 1071.84 1467.42 1113.81 1483.83 1153.00 1492.00
L 1227.00 1492.00
C 1236.72 1488.28 1249.45 1486.49 1259.07 1482.07 C 1268.69 1477.65 1277.34 1473.09 1286.23 1467.23 C 1295.12 1461.37 1302.12 1455.25 1309.75 1447.75 C 1317.38 1440.25 1322.51 1433.49 1328.77 1424.77 C 1335.03 1416.06 1340.22 1407.89 1344.92 1397.92 C 1349.63 1387.96 1353.25 1378.65 1356.99 1367.99 C 1360.73 1357.34 1363.68 1345.64 1366.00 1334.00 C 1368.32 1322.35 1371.18 1310.59 1372.00 1298.00 C 1372.82 1285.41 1375.53 1272.40 1375.00 1259.00 C 1374.47 1245.60 1375.21 1229.40 1375.00 1216.00 C 1374.79 1202.60 1372.53 1190.02 1372.00 1177.00 C 1371.47 1163.98 1368.60 1151.22 1367.22 1138.78 C 1365.85 1126.34 1363.28 1114.26 1361.67 1102.33 C 1360.06 1090.40 1355.44 1078.41 1354.07 1066.93 C 1352.71 1055.45 1347.10 1043.49 1346.22 1032.78 C 1345.35 1022.07 1365.75 1023.42 1374.03 1019.03 C 1382.30 1014.63 1397.35 1012.85 1406.68 1008.68 C 1416.01 1004.51 1427.93 1001.76 1437.68 997.68 C 1447.43 993.60 1458.21 989.24 1468.08 985.08 C 1477.94 980.91 1487.46 976.45 1497.08 972.08 C 1506.69 967.70 1516.43 962.43 1525.70 957.70 C 1534.97 952.96 1543.92 948.08 1552.70 942.70 C 1561.48 937.31 1570.01 932.09 1578.25 926.25 C 1586.49 920.40 1595.12 915.04 1603.23 908.23 C 1611.34 901.42 1618.08 896.22 1625.75 888.75 C 1633.42 881.28 1639.89 874.87 1646.75 866.75 C 1653.62 858.64 1659.66 851.80 1664.92 842.92 C 1670.19 834.05 1676.74 825.87 1680.78 815.78 C 1684.82 805.68 1689.18 796.15 1691.93 784.93 C 1694.67 773.70 1695.91 758.23 1696.00 746.00 C 1696.09 733.77 1694.57 719.21 1692.00 708.00 C 1689.44 696.79 1685.06 687.08 1681.08 676.92 C 1677.09 666.77 1670.50 658.63 1665.25 649.75 C 1660.00 640.88 1654.05 633.92 1647.25 625.75 C 1640.45 617.58 1633.81 611.34 1626.25 603.75 C 1618.69 596.16 1611.82 591.09 1603.75 584.25 C 1595.68 577.40 1587.03 572.03 1578.77 566.23 C 1570.51 560.43 1562.12 554.98 1553.30 549.70 C 1544.48 544.41 1535.63 539.26 1526.32 534.68 C 1517.01 530.10 1507.47 524.49 1497.92 520.08 C 1488.37 515.66 1478.41 511.65 1468.78 507.22 C 1459.15 502.80 1447.90 498.88 1438.26 494.74 C 1428.61 490.61 1416.64 487.67 1407.31 483.69 C 1397.97 479.72 1383.12 477.41 1374.98 473.02 C 1366.83 468.64 1346.01 470.35 1346.00 460.00 C 1346.00 449.64 1352.90 437.27 1354.00 426.00 C 1355.10 414.73 1359.80 402.18 1361.33 390.33 C 1362.86 378.48 1365.88 366.45 1367.00 354.00 C 1368.12 341.54 1371.52 329.00 1372.00 316.00 C 1372.48 303.00 1374.62 290.38 1375.00 277.00 C 1375.38 263.62 1374.31 247.42 1375.00 234.00 C 1375.69 220.58 1372.81 207.61 1372.00 195.00 C 1371.19 182.38 1368.57 170.45 1366.22 158.78 C 1363.88 147.11 1360.84 135.60 1357.08 124.92 C 1353.31 114.25 1350.10 104.70 1345.23 94.77 C 1340.36 84.84 1335.57 76.49 1329.25 67.75 C 1322.93 59.02 1317.83 52.37 1310.25 44.75 C 1302.67 37.13 1295.67 31.18 1286.77 25.23 C 1277.87 19.28 1269.48 14.74 1259.75 10.25 C 1250.03 5.75 1236.86 3.57 1227.00 0.00
L 1153.00 0.00
C 1038.42 24.94 939.66 102.20 859.00 182.00
C 831.20 158.74 804.15 131.77 773.75 108.25 C 743.35 84.73 712.60 63.55 677.92 44.08 C 643.23 24.61 601.14 8.08 562.00 0.00
L 488.00 0.00
C 454.54 8.63 423.32 22.38 399.30 50.30 C 375.28 78.22 362.50 105.50 352.00 142.00 C 341.49 178.50 340.00 228.62 340.00 269.00
M 805.00 235.00 
C 755.64 291.95 707.57 348.00 665.00 411.00
C 589.64 418.65 514.99 429.21 442.00 446.00
C 428.01 392.02 418.97 338.88 415.00 282.00 C 411.03 225.12 416.62 168.95 441.26 119.26 C 465.89 69.56 529.49 64.75 576.08 80.92 C 622.67 97.10 661.99 118.73 700.75 147.25 C 739.50 175.78 769.92 201.60 805.00 235.00
M 916.00 243.00 
C 913.57 241.18 908.21 239.11 910.00 236.00
C 919.50 219.52 938.81 211.17 950.75 197.75 C 962.69 184.33 980.52 174.29 994.75 161.75 C 1008.98 149.21 1025.55 139.88 1041.70 128.70 C 1057.84 117.51 1074.58 108.64 1092.68 99.68 C 1110.77 90.72 1129.36 83.11 1149.68 77.68 C 1169.99 72.25 1199.78 69.16 1220.22 75.78 C 1240.67 82.39 1254.90 91.46 1266.92 109.08 C 1278.94 126.70 1286.56 142.75 1291.78 164.22 C 1297.00 185.70 1299.87 210.38 1301.00 234.00 C 1302.13 257.63 1299.79 287.57 1298.00 311.00 C 1296.21 334.43 1291.14 357.43 1287.07 380.07 C 1283.01 402.72 1279.10 424.03 1273.00 446.00
C 1200.05 429.22 1125.38 418.58 1050.00 411.00
C 1008.78 350.90 964.31 296.21 916.00 243.00
M 882.00 402.00 
C 882.61 402.15 884.58 403.27 885.00 404.00
C 866.67 404.00 848.33 404.00 830.00 404.00
C 831.64 401.41 836.43 404.66 838.00 402.00
C 828.54 402.00 819.61 403.00 810.00 403.00
C 804.84 404.09 797.53 404.63 791.00 404.00
C 781.24 404.92 771.58 403.58 762.00 405.00
C 790.86 365.27 823.51 327.03 857.00 290.00
C 891.94 326.04 923.64 365.41 953.00 405.00
C 929.57 403.08 905.51 403.62 882.00 402.00
M 732.00 481.00 
C 731.20 481.24 731.74 478.52 734.01 479.01 C 736.29 479.50 737.55 479.86 739.00 480.00
C 753.44 478.64 768.36 479.59 783.00 479.00 C 797.64 478.41 812.22 477.02 827.00 477.00 C 841.78 476.98 857.29 476.91 872.00 477.00 C 886.71 477.09 902.81 476.75 917.00 478.00 C 931.19 479.25 948.43 477.89 962.00 479.00 C 975.57 480.11 991.61 481.05 1004.00 482.00 C 1016.39 482.95 1018.44 498.22 1025.75 506.25 C 1033.06 514.27 1037.01 525.70 1043.75 534.25 C 1050.50 542.79 1054.54 553.08 1060.92 562.08 C 1067.30 571.08 1072.02 581.45 1078.25 590.75 C 1084.49 600.04 1089.15 610.42 1094.92 620.08 C 1100.70 629.74 1105.42 639.29 1110.97 649.03 C 1116.53 658.77 1121.97 668.70 1127.26 678.74 C 1132.54 688.79 1137.32 697.86 1142.77 708.23 C 1148.23 718.60 1152.27 728.52 1157.97 739.03 C 1163.68 749.53 1153.90 760.30 1149.23 770.23 C 1144.56 780.16 1139.28 790.34 1134.22 800.22 C 1129.16 810.11 1123.48 820.32 1118.23 830.23 C 1112.98 840.14 1107.30 850.06 1102.03 860.03 C 1096.75 870.00 1090.67 878.52 1085.25 888.25 C 1079.83 897.97 1074.15 907.62 1068.25 917.25 C 1062.35 926.87 1056.58 935.80 1050.75 945.75 C 1044.91 955.69 1039.58 962.81 1033.25 973.25 C 1026.91 983.68 1021.48 989.20 1015.08 1001.08 C 1008.68 1012.96 992.31 1009.54 979.00 1011.00 C 965.69 1012.46 950.31 1013.00 936.00 1013.00 C 921.69 1013.00 906.61 1014.74 892.00 1015.00 C 877.39 1015.26 861.79 1014.67 847.00 1015.00 C 832.21 1015.33 816.51 1014.60 802.00 1014.00 C 787.49 1013.40 771.38 1012.77 757.00 1013.00 C 742.63 1013.23 729.04 1008.72 715.00 1010.00 C 700.96 1011.28 698.38 996.63 691.23 987.77 C 684.08 978.91 679.45 968.76 673.22 959.78 C 666.99 950.79 661.81 941.77 655.75 932.25 C 649.69 922.74 644.21 913.05 638.68 903.32 C 633.14 893.59 626.42 884.65 621.25 874.75 C 616.07 864.86 610.93 855.47 605.23 845.77 C 599.53 836.07 594.84 825.86 589.08 815.92 C 583.31 805.99 579.71 796.60 573.70 786.31 C 567.68 776.01 565.12 766.14 558.23 755.77 C 551.33 745.40 559.04 734.27 564.26 724.26 C 569.47 714.24 574.44 704.71 579.75 694.75 C 585.07 684.80 589.63 674.08 595.31 664.31 C 600.98 654.53 605.81 644.44 611.77 634.77 C 617.73 625.10 621.82 615.36 627.78 605.78 C 633.73 596.20 639.34 586.81 644.92 576.92 C 650.51 567.04 657.28 558.97 662.77 548.77 C 668.26 538.57 674.09 531.68 679.92 520.92 C 685.75 510.16 692.87 505.88 698.30 493.30 C 703.74 480.73 719.00 481.78 732.00 481.00
M 609.00 493.00 
C 574.74 546.75 543.52 604.17 513.00 658.00
C 496.16 611.41 475.53 565.18 463.00 517.00
C 511.34 507.99 559.36 497.24 609.00 493.00
M 1253.00 517.00 
C 1238.32 564.67 1219.48 611.34 1202.00 658.00
C 1171.49 604.18 1140.24 546.73 1106.00 493.00
C 1155.99 497.10 1204.20 508.35 1253.00 517.00
M 138.00 832.00 
C 138.88 833.22 140.13 834.37 140.00 836.00
C 135.35 832.15 130.78 827.63 127.00 823.00
C 128.28 822.47 128.86 823.97 130.00 824.00
C 102.57 796.57 82.69 750.10 99.93 712.93 C 117.16 675.76 141.69 653.53 173.75 630.75 C 205.80 607.96 237.96 592.15 274.23 576.23 C 310.50 560.31 351.75 546.98 390.00 536.00
C 393.10 547.22 397.17 558.09 400.78 569.22 C 404.39 580.36 408.43 591.66 412.31 602.69 C 416.19 613.73 420.28 624.43 424.77 635.23 C 429.26 646.02 432.17 657.48 436.99 668.01 C 441.81 678.54 445.19 688.37 450.26 698.74 C 455.33 709.12 457.40 719.93 463.78 730.22 C 470.15 740.51 470.93 750.89 464.23 761.23 C 457.53 771.57 455.73 782.14 450.68 792.68 C 445.63 803.21 441.99 812.58 437.23 823.23 C 432.47 833.88 429.60 845.23 425.01 856.01 C 420.41 866.79 416.64 877.63 412.67 888.67 C 408.71 899.72 404.63 910.81 401.07 922.07 C 397.51 933.33 393.02 944.57 390.00 956.00
C 300.12 929.50 208.37 895.92 138.00 832.00
M 1325.00 956.00 
C 1321.90 944.78 1317.83 933.91 1314.22 922.78 C 1310.61 911.65 1306.57 900.34 1302.69 889.31 C 1298.82 878.27 1294.72 867.56 1290.23 856.77 C 1285.74 845.98 1282.82 834.51 1278.01 823.99 C 1273.20 813.47 1269.80 803.62 1264.74 793.26 C 1259.69 782.90 1257.56 772.02 1251.22 761.78 C 1244.88 751.53 1243.98 741.13 1250.77 730.77 C 1257.56 720.41 1259.23 709.87 1264.32 699.32 C 1269.41 688.78 1272.99 679.42 1277.77 668.77 C 1282.55 658.12 1285.39 646.78 1289.99 635.99 C 1294.60 625.21 1298.36 614.37 1302.33 603.33 C 1306.30 592.28 1310.36 581.19 1313.93 569.93 C 1317.49 558.67 1321.84 547.38 1325.00 536.00
C 1365.66 547.33 1411.60 563.05 1449.69 580.31 C 1487.79 597.56 1524.62 616.32 1556.75 642.25 C 1588.87 668.18 1622.01 701.91 1622.00 746.00 C 1621.99 790.09 1588.92 823.88 1556.75 849.75 C 1524.59 875.63 1487.90 894.45 1449.78 911.78 C 1411.66 929.10 1365.65 944.50 1325.00 956.00
M 609.00 999.00 
C 559.37 994.82 511.40 983.91 463.00 975.00
C 475.56 926.78 496.02 880.77 513.00 834.00
C 543.46 887.79 575.08 945.75 609.00 999.00
M 1202.00 834.00 
C 1218.93 880.68 1239.40 926.84 1252.00 975.00
C 1203.64 983.96 1155.65 994.79 1106.00 999.00
C 1140.26 945.24 1171.48 887.84 1202.00 834.00
M 799.00 1249.00 
C 802.04 1251.28 807.28 1253.52 805.00 1256.00
C 772.31 1291.61 739.86 1314.76 701.92 1343.92 C 663.98 1373.08 623.87 1393.85 577.78 1410.78 C 531.68 1427.71 466.40 1422.83 441.70 1373.31 C 416.99 1323.78 410.96 1267.99 415.00 1211.00 C 419.04 1154.01 427.76 1100.15 442.00 1046.00
C 514.98 1062.74 589.62 1073.36 665.00 1081.00
C 705.99 1140.62 750.64 1195.84 799.00 1249.00
M 947.00 1291.00 
C 944.40 1289.59 942.53 1288.22 941.00 1286.00
C 930.89 1277.44 920.92 1266.04 910.00 1257.00
C 959.40 1199.99 1007.60 1143.74 1050.00 1081.00
C 1125.36 1073.37 1199.98 1062.76 1273.00 1046.00
C 1286.65 1095.56 1293.52 1145.05 1299.00 1197.00 C 1304.48 1248.95 1299.11 1306.79 1283.07 1354.07 C 1267.04 1401.36 1220.59 1426.21 1173.00 1419.00 C 1125.41 1411.79 1086.40 1390.98 1047.75 1367.25 C 1009.11 1343.51 980.42 1319.54 947.00 1291.00
M 831.00 1090.00 
C 830.19 1089.85 827.65 1088.79 827.00 1088.00
C 847.33 1088.00 867.67 1088.00 888.00 1088.00
C 887.53 1089.98 884.40 1087.89 884.00 1090.00
C 906.83 1088.45 930.21 1088.79 953.00 1087.00
C 924.16 1126.76 891.72 1164.64 858.00 1202.00
C 823.06 1165.96 791.36 1126.60 762.00 1087.00
C 784.76 1088.92 808.18 1088.27 831.00 1090.00 Z"/>
</g>
<g fill="None" fill-opacity="0.0" stroke="#000000" stroke-opacity="0.00" stroke-width="0.3"><path d="
M 1153.00 0.00 
L 562.00 0.00
C 601.14 8.08 643.23 24.61 677.92 44.08 C 712.60 63.55 743.35 84.73 773.75 108.25 C 804.15 131.77 831.20 158.74 859.00 182.00
C 939.66 102.20 1038.42 24.94 1153.00 0.00 Z"/>
</g>
<g fill="None" fill-opacity="0.0" stroke="#000000" stroke-opacity="0.00" stroke-width="0.3"><path d="
M 1227.00 1492.00 
L 1715.00 1492.00
L 1715.00 0.00
L 1227.00 0.00
C 1236.86 3.57 1250.03 5.75 1259.75 10.25 C 1269.48 14.74 1277.87 19.28 1286.77 25.23 C 1295.67 31.18 1302.67 37.13 1310.25 44.75 C 1317.83 52.37 1322.93 59.02 1329.25 67.75 C 1335.57 76.49 1340.36 84.84 1345.23 94.77 C 1350.10 104.70 1353.31 114.25 1357.08 124.92 C 1360.84 135.60 1363.88 147.11 1366.22 158.78 C 1368.57 170.45 1371.19 182.38 1372.00 195.00 C 1372.81 207.61 1375.69 220.58 1375.00 234.00 C 1374.31 247.42 1375.38 263.62 1375.00 277.00 C 1374.62 290.38 1372.48 303.00 1372.00 316.00 C 1371.52 329.00 1368.12 341.54 1367.00 354.00 C 1365.88 366.45 1362.86 378.48 1361.33 390.33 C 1359.80 402.18 1355.10 414.73 1354.00 426.00 C 1352.90 437.27 1346.00 449.64 1346.00 460.00 C 1346.01 470.35 1366.83 468.64 1374.98 473.02 C 1383.12 477.41 1397.97 479.72 1407.31 483.69 C 1416.64 487.67 1428.61 490.61 1438.26 494.74 C 1447.90 498.88 1459.15 502.80 1468.78 507.22 C 1478.41 511.65 1488.37 515.66 1497.92 520.08 C 1507.47 524.49 1517.01 530.10 1526.32 534.68 C 1535.63 539.26 1544.48 544.41 1553.30 549.70 C 1562.12 554.98 1570.51 560.43 1578.77 566.23 C 1587.03 572.03 1595.68 577.40 1603.75 584.25 C 1611.82 591.09 1618.69 596.16 1626.25 603.75 C 1633.81 611.34 1640.45 617.58 1647.25 625.75 C 1654.05 633.92 1660.00 640.88 1665.25 649.75 C 1670.50 658.63 1677.09 666.77 1681.08 676.92 C 1685.06 687.08 1689.44 696.79 1692.00 708.00 C 1694.57 719.21 1696.09 733.77 1696.00 746.00 C 1695.91 758.23 1694.67 773.70 1691.93 784.93 C 1689.18 796.15 1684.82 805.68 1680.78 815.78 C 1676.74 825.87 1670.19 834.05 1664.92 842.92 C 1659.66 851.80 1653.62 858.64 1646.75 866.75 C 1639.89 874.87 1633.42 881.28 1625.75 888.75 C 1618.08 896.22 1611.34 901.42 1603.23 908.23 C 1595.12 915.04 1586.49 920.40 1578.25 926.25 C 1570.01 932.09 1561.48 937.31 1552.70 942.70 C 1543.92 948.08 1534.97 952.96 1525.70 957.70 C 1516.43 962.43 1506.69 967.70 1497.08 972.08 C 1487.46 976.45 1477.94 980.91 1468.08 985.08 C 1458.21 989.24 1447.43 993.60 1437.68 997.68 C 1427.93 1001.76 1416.01 1004.51 1406.68 1008.68 C 1397.35 1012.85 1382.30 1014.63 1374.03 1019.03 C 1365.75 1023.42 1345.35 1022.07 1346.22 1032.78 C 1347.10 1043.49 1352.71 1055.45 1354.07 1066.93 C 1355.44 1078.41 1360.06 1090.40 1361.67 1102.33 C 1363.28 1114.26 1365.85 1126.34 1367.22 1138.78 C 1368.60 1151.22 1371.47 1163.98 1372.00 1177.00 C 1372.53 1190.02 1374.79 1202.60 1375.00 1216.00 C 1375.21 1229.40 1374.47 1245.60 1375.00 1259.00 C 1375.53 1272.40 1372.82 1285.41 1372.00 1298.00 C 1371.18 1310.59 1368.32 1322.35 1366.00 1334.00 C 1363.68 1345.64 1360.73 1357.34 1356.99 1367.99 C 1353.25 1378.65 1349.63 1387.96 1344.92 1397.92 C 1340.22 1407.89 1335.03 1416.06 1328.77 1424.77 C 1322.51 1433.49 1317.38 1440.25 1309.75 1447.75 C 1302.12 1455.25 1295.12 1461.37 1286.23 1467.23 C 1277.34 1473.09 1268.69 1477.65 1259.07 1482.07 C 1249.45 1486.49 1236.72 1488.28 1227.00 1492.00 Z"/>
</g>
<g fill="None" fill-opacity="0.0" stroke="#000000" stroke-opacity="0.00" stroke-width="0.3"><path d="
M 805.00 235.00 
C 769.92 201.60 739.50 175.78 700.75 147.25 C 661.99 118.73 622.67 97.10 576.08 80.92 C 529.49 64.75 465.89 69.56 441.26 119.26 C 416.62 168.95 411.03 225.12 415.00 282.00 C 418.97 338.88 428.01 392.02 442.00 446.00
C 514.99 429.21 589.64 418.65 665.00 411.00
C 707.57 348.00 755.64 291.95 805.00 235.00 Z"/>
</g>
<g fill="None" fill-opacity="0.0" stroke="#000000" stroke-opacity="0.00" stroke-width="0.3"><path d="
M 910.00 236.00 
C 910.00 237.60 914.95 241.82 916.00 243.00
C 964.31 296.21 1008.78 350.90 1050.00 411.00
C 1125.38 418.58 1200.05 429.22 1273.00 446.00
C 1279.10 424.03 1283.01 402.72 1287.07 380.07 C 1291.14 357.43 1296.21 334.43 1298.00 311.00 C 1299.79 287.57 1302.13 257.63 1301.00 234.00 C 1299.87 210.38 1297.00 185.70 1291.78 164.22 C 1286.56 142.75 1278.94 126.70 1266.92 109.08 C 1254.90 91.46 1240.67 82.39 1220.22 75.78 C 1199.78 69.16 1169.99 72.25 1149.68 77.68 C 1129.36 83.11 1110.77 90.72 1092.68 99.68 C 1074.58 108.64 1057.84 117.51 1041.70 128.70 C 1025.55 139.88 1008.98 149.21 994.75 161.75 C 980.52 174.29 962.69 184.33 950.75 197.75 C 938.81 211.17 919.50 219.52 910.00 236.00 Z"/>
</g>
<g fill="None" fill-opacity="0.0" stroke="#60D8F8" stroke-opacity="0.39" stroke-width="0.3"><path d="
M 916.00 243.00 
C 914.95 241.82 910.00 237.60 910.00 236.00
C 908.21 239.11 913.57 241.18 916.00 243.00 Z"/>
</g>
<g fill="None" fill-opacity="0.0" stroke="#61DAFB" stroke-opacity="0.40" stroke-width="0.3"><path d="
M 340.00 285.00 
C 341.82 279.54 341.23 275.35 340.00 269.00
C 340.00 273.96 338.97 280.17 340.00 285.00 Z"/>
</g>
<g fill="None" fill-opacity="0.0" stroke="#5FDAFB" stroke-opacity="0.55" stroke-width="0.3"><path d="
M 342.00 298.00 
C 342.38 294.06 344.27 290.59 341.00 287.00
C 341.66 290.10 341.74 295.35 342.00 298.00 Z"/>
</g>
<g fill="None" fill-opacity="0.0" stroke="#000000" stroke-opacity="0.00" stroke-width="0.3"><path d="
M 791.00 404.00 
C 797.10 403.43 803.55 403.00 810.00 403.00
C 819.61 403.00 828.54 402.00 838.00 402.00
C 841.67 402.00 845.33 402.00 849.00 402.00
C 854.67 402.00 860.33 402.00 866.00 402.00
C 871.32 402.00 876.68 401.80 882.00 402.00
C 905.51 403.62 929.57 403.08 953.00 405.00
C 923.64 365.41 891.94 326.04 857.00 290.00
C 823.51 327.03 790.86 365.27 762.00 405.00
C 771.58 403.58 781.24 404.92 791.00 404.00 Z"/>
</g>
<g fill="None" fill-opacity="0.0" stroke="#5ED1FB" stroke-opacity="0.37" stroke-width="0.3"><path d="
M 882.00 402.00 
C 876.68 401.80 871.32 402.00 866.00 402.00
C 860.65 402.52 854.28 402.51 849.00 402.00
C 845.33 402.00 841.67 402.00 838.00 402.00
C 836.43 404.66 831.64 401.41 830.00 404.00
C 848.33 404.00 866.67 404.00 885.00 404.00
C 884.58 403.27 882.61 402.15 882.00 402.00 Z"/>
</g>
<g fill="None" fill-opacity="0.0" stroke="#40BFFF" stroke-opacity="0.02" stroke-width="0.3"><path d="
M 866.00 402.00 
C 860.33 402.00 854.67 402.00 849.00 402.00
C 854.28 402.51 860.65 402.52 866.00 402.00 Z"/>
</g>
<g fill="None" fill-opacity="0.0" stroke="#61DBFB" stroke-opacity="0.48" stroke-width="0.3"><path d="
M 791.00 404.00 
C 797.53 404.63 804.84 404.09 810.00 403.00
C 803.55 403.00 797.10 403.43 791.00 404.00 Z"/>
</g>
<g fill="None" fill-opacity="0.0" stroke="#000000" stroke-opacity="0.00" stroke-width="0.3"><path d="
M 739.00 480.00 
C 736.85 480.20 734.42 480.86 732.00 481.00
C 719.00 481.78 703.74 480.73 698.30 493.30 C 692.87 505.88 685.75 510.16 679.92 520.92 C 674.09 531.68 668.26 538.57 662.77 548.77 C 657.28 558.97 650.51 567.04 644.92 576.92 C 639.34 586.81 633.73 596.20 627.78 605.78 C 621.82 615.36 617.73 625.10 611.77 634.77 C 605.81 644.44 600.98 654.53 595.31 664.31 C 589.63 674.08 585.07 684.80 579.75 694.75 C 574.44 704.71 569.47 714.24 564.26 724.26 C 559.04 734.27 551.33 745.40 558.23 755.77 C 565.12 766.14 567.68 776.01 573.70 786.31 C 579.71 796.60 583.31 805.99 589.08 815.92 C 594.84 825.86 599.53 836.07 605.23 845.77 C 610.93 855.47 616.07 864.86 621.25 874.75 C 626.42 884.65 633.14 893.59 638.68 903.32 C 644.21 913.05 649.69 922.74 655.75 932.25 C 661.81 941.77 666.99 950.79 673.22 959.78 C 679.45 968.76 684.08 978.91 691.23 987.77 C 698.38 996.63 700.96 1011.28 715.00 1010.00 C 729.04 1008.72 742.63 1013.23 757.00 1013.00 C 771.38 1012.77 787.49 1013.40 802.00 1014.00 C 816.51 1014.60 832.21 1015.33 847.00 1015.00 C 861.79 1014.67 877.39 1015.26 892.00 1015.00 C 906.61 1014.74 921.69 1013.00 936.00 1013.00 C 950.31 1013.00 965.69 1012.46 979.00 1011.00 C 992.31 1009.54 1008.68 1012.96 1015.08 1001.08 C 1021.48 989.20 1026.91 983.68 1033.25 973.25 C 1039.58 962.81 1044.91 955.69 1050.75 945.75 C 1056.58 935.80 1062.35 926.87 1068.25 917.25 C 1074.15 907.62 1079.83 897.97 1085.25 888.25 C 1090.67 878.52 1096.75 870.00 1102.03 860.03 C 1107.30 850.06 1112.98 840.14 1118.23 830.23 C 1123.48 820.32 1129.16 810.11 1134.22 800.22 C 1139.28 790.34 1144.56 780.16 1149.23 770.23 C 1153.90 760.30 1163.68 749.53 1157.97 739.03 C 1152.27 728.52 1148.23 718.60 1142.77 708.23 C 1137.32 697.86 1132.54 688.79 1127.26 678.74 C 1121.97 668.70 1116.53 658.77 1110.97 649.03 C 1105.42 639.29 1100.70 629.74 1094.92 620.08 C 1089.15 610.42 1084.49 600.04 1078.25 590.75 C 1072.02 581.45 1067.30 571.08 1060.92 562.08 C 1054.54 553.08 1050.50 542.79 1043.75 534.25 C 1037.01 525.70 1033.06 514.27 1025.75 506.25 C 1018.44 498.22 1016.39 482.95 1004.00 482.00 C 991.61 481.05 975.57 480.11 962.00 479.00 C 948.43 477.89 931.19 479.25 917.00 478.00 C 902.81 476.75 886.71 477.09 872.00 477.00 C 857.29 476.91 841.78 476.98 827.00 477.00 C 812.22 477.02 797.64 478.41 783.00 479.00 C 768.36 479.59 753.44 478.64 739.00 480.00
M 1007.00 737.00 
C 1007.48 741.99 1008.53 748.30 1008.00 754.00
C 1002.28 814.99 966.02 868.16 906.31 888.31 C 846.59 908.46 775.08 887.94 736.77 836.23 C 698.46 784.53 698.47 709.83 735.77 657.77 C 773.07 605.71 843.12 583.51 904.07 602.93 C 965.03 622.34 1001.03 675.31 1007.00 737.00 Z"/>
</g>
<g fill="None" fill-opacity="0.0" stroke="#5FD6FB" stroke-opacity="0.50" stroke-width="0.3"><path d="
M 732.00 481.00 
C 734.42 480.86 736.85 480.20 739.00 480.00
C 737.55 479.86 736.29 479.50 734.01 479.01 C 731.74 478.52 731.20 481.24 732.00 481.00 Z"/>
</g>
<g fill="None" fill-opacity="0.0" stroke="#000000" stroke-opacity="0.00" stroke-width="0.3"><path d="
M 609.00 493.00 
C 559.36 497.24 511.34 507.99 463.00 517.00
C 475.53 565.18 496.16 611.41 513.00 658.00
C 543.52 604.17 574.74 546.75 609.00 493.00 Z"/>
</g>
<g fill="None" fill-opacity="0.0" stroke="#000000" stroke-opacity="0.00" stroke-width="0.3"><path d="
M 1253.00 517.00 
C 1204.20 508.35 1155.99 497.10 1106.00 493.00
C 1140.24 546.73 1171.49 604.18 1202.00 658.00
C 1219.48 611.34 1238.32 564.67 1253.00 517.00 Z"/>
</g>
<g fill="None" fill-opacity="0.0" stroke="#000000" stroke-opacity="0.00" stroke-width="0.3"><path d="
M 130.00 824.00 
C 132.72 826.72 135.41 829.61 138.00 832.00
C 208.37 895.92 300.12 929.50 390.00 956.00
C 393.02 944.57 397.51 933.33 401.07 922.07 C 404.63 910.81 408.71 899.72 412.67 888.67 C 416.64 877.63 420.41 866.79 425.01 856.01 C 429.60 845.23 432.47 833.88 437.23 823.23 C 441.99 812.58 445.63 803.21 450.68 792.68 C 455.73 782.14 457.53 771.57 464.23 761.23 C 470.93 750.89 470.15 740.51 463.78 730.22 C 457.40 719.93 455.33 709.12 450.26 698.74 C 445.19 688.37 441.81 678.54 436.99 668.01 C 432.17 657.48 429.26 646.02 424.77 635.23 C 420.28 624.43 416.19 613.73 412.31 602.69 C 408.43 591.66 404.39 580.36 400.78 569.22 C 397.17 558.09 393.10 547.22 390.00 536.00
C 351.75 546.98 310.50 560.31 274.23 576.23 C 237.96 592.15 205.80 607.96 173.75 630.75 C 141.69 653.53 117.16 675.76 99.93 712.93 C 82.69 750.10 102.57 796.57 130.00 824.00 Z"/>
</g>
<g fill="None" fill-opacity="0.0" stroke="#000000" stroke-opacity="0.00" stroke-width="0.3"><path d="
M 1325.00 956.00 
C 1365.65 944.50 1411.66 929.10 1449.78 911.78 C 1487.90 894.45 1524.59 875.63 1556.75 849.75 C 1588.92 823.88 1621.99 790.09 1622.00 746.00 C 1622.01 701.91 1588.87 668.18 1556.75 642.25 C 1524.62 616.32 1487.79 597.56 1449.69 580.31 C 1411.60 563.05 1365.66 547.33 1325.00 536.00
C 1321.84 547.38 1317.49 558.67 1313.93 569.93 C 1310.36 581.19 1306.30 592.28 1302.33 603.33 C 1298.36 614.37 1294.60 625.21 1289.99 635.99 C 1285.39 646.78 1282.55 658.12 1277.77 668.77 C 1272.99 679.42 1269.41 688.78 1264.32 699.32 C 1259.23 709.87 1257.56 720.41 1250.77 730.77 C 1243.98 741.13 1244.88 751.53 1251.22 761.78 C 1257.56 772.02 1259.69 782.90 1264.74 793.26 C 1269.80 803.62 1273.20 813.47 1278.01 823.99 C 1282.82 834.51 1285.74 845.98 1290.23 856.77 C 1294.72 867.56 1298.82 878.27 1302.69 889.31 C 1306.57 900.34 1310.61 911.65 1314.22 922.78 C 1317.83 933.91 1321.90 944.78 1325.00 956.00 Z"/>
</g>
<g fill="None" fill-opacity="0.0" stroke="#61DBFB" stroke-opacity="0.99" stroke-width="0.3"><path d="
M 1008.00 754.00 
C 1007.90 753.12 1005.42 749.06 1006.00 746.00 C 1006.58 742.94 1006.77 739.38 1007.00 737.00
C 1001.03 675.31 965.03 622.34 904.07 602.93 C 843.12 583.51 773.07 605.71 735.77 657.77 C 698.47 709.83 698.46 784.53 736.77 836.23 C 775.08 887.94 846.59 908.46 906.31 888.31 C 966.02 868.16 1002.28 814.99 1008.00 754.00 Z"/>
</g>
<g fill="None" fill-opacity="0.0" stroke="#62D5FA" stroke-opacity="0.40" stroke-width="0.3"><path d="
M 1008.00 754.00 
C 1008.53 748.30 1007.48 741.99 1007.00 737.00
C 1006.77 739.38 1006.58 742.94 1006.00 746.00 C 1005.42 749.06 1007.90 753.12 1008.00 754.00 Z"/>
</g>
<g fill="None" fill-opacity="0.0" stroke="#62E2FC" stroke-opacity="0.53" stroke-width="0.3"><path d="
M 138.00 832.00 
C 135.41 829.61 132.72 826.72 130.00 824.00
C 128.86 823.97 128.28 822.47 127.00 823.00
C 130.78 827.63 135.35 832.15 140.00 836.00
C 140.13 834.37 138.88 833.22 138.00 832.00 Z"/>
</g>
<g fill="None" fill-opacity="0.0" stroke="#000000" stroke-opacity="0.00" stroke-width="0.3"><path d="
M 609.00 999.00 
C 575.08 945.75 543.46 887.79 513.00 834.00
C 496.02 880.77 475.56 926.78 463.00 975.00
C 511.40 983.91 559.37 994.82 609.00 999.00 Z"/>
</g>
<g fill="None" fill-opacity="0.0" stroke="#000000" stroke-opacity="0.00" stroke-width="0.3"><path d="
M 1202.00 834.00 
C 1171.48 887.84 1140.26 945.24 1106.00 999.00
C 1155.65 994.79 1203.64 983.96 1252.00 975.00
C 1239.40 926.84 1218.93 880.68 1202.00 834.00 Z"/>
</g>
<g fill="None" fill-opacity="0.0" stroke="#000000" stroke-opacity="0.00" stroke-width="0.3"><path d="
M 805.00 1256.00 
C 802.93 1254.86 800.57 1250.76 799.00 1249.00
C 750.64 1195.84 705.99 1140.62 665.00 1081.00
C 589.62 1073.36 514.98 1062.74 442.00 1046.00
C 427.76 1100.15 419.04 1154.01 415.00 1211.00 C 410.96 1267.99 416.99 1323.78 441.70 1373.31 C 466.40 1422.83 531.68 1427.71 577.78 1410.78 C 623.87 1393.85 663.98 1373.08 701.92 1343.92 C 739.86 1314.76 772.31 1291.61 805.00 1256.00 Z"/>
</g>
<g fill="None" fill-opacity="0.0" stroke="#000000" stroke-opacity="0.00" stroke-width="0.3"><path d="
M 941.00 1286.00 
C 943.12 1287.79 944.96 1289.04 947.00 1291.00
C 980.42 1319.54 1009.11 1343.51 1047.75 1367.25 C 1086.40 1390.98 1125.41 1411.79 1173.00 1419.00 C 1220.59 1426.21 1267.04 1401.36 1283.07 1354.07 C 1299.11 1306.79 1304.48 1248.95 1299.00 1197.00 C 1293.52 1145.05 1286.65 1095.56 1273.00 1046.00
C 1199.98 1062.76 1125.36 1073.37 1050.00 1081.00
C 1007.60 1143.74 959.40 1199.99 910.00 1257.00
C 920.92 1266.04 930.89 1277.44 941.00 1286.00 Z"/>
</g>
<g fill="None" fill-opacity="0.0" stroke="#000000" stroke-opacity="0.00" stroke-width="0.3"><path d="
M 884.00 1090.00 
C 877.73 1090.43 871.28 1090.00 865.00 1090.00
C 860.00 1090.00 855.00 1090.00 850.00 1090.00
C 843.72 1090.00 837.27 1090.43 831.00 1090.00
C 808.18 1088.27 784.76 1088.92 762.00 1087.00
C 791.36 1126.60 823.06 1165.96 858.00 1202.00
C 891.72 1164.64 924.16 1126.76 953.00 1087.00
C 930.21 1088.79 906.83 1088.45 884.00 1090.00 Z"/>
</g>
<g fill="None" fill-opacity="0.0" stroke="#69D5FC" stroke-opacity="0.33" stroke-width="0.3"><path d="
M 831.00 1090.00 
C 837.27 1090.43 843.72 1090.00 850.00 1090.00
C 854.72 1089.54 860.34 1089.55 865.00 1090.00
C 871.28 1090.00 877.73 1090.43 884.00 1090.00
C 884.40 1087.89 887.53 1089.98 888.00 1088.00
C 867.67 1088.00 847.33 1088.00 827.00 1088.00
C 827.65 1088.79 830.19 1089.85 831.00 1090.00 Z"/>
</g>
<g fill="None" fill-opacity="0.0" stroke="#40BFFF" stroke-opacity="0.02" stroke-width="0.3"><path d="
M 850.00 1090.00 
C 855.00 1090.00 860.00 1090.00 865.00 1090.00
C 860.34 1089.55 854.72 1089.54 850.00 1090.00 Z"/>
</g>
<g fill="None" fill-opacity="0.0" stroke="#61DAFB" stroke-opacity="0.41" stroke-width="0.3"><path d="
M 340.00 1223.00 
C 340.45 1220.68 342.03 1218.17 342.00 1215.00 C 341.97 1211.83 340.12 1208.96 340.00 1208.00
C 339.57 1212.91 340.00 1218.07 340.00 1223.00 Z"/>
</g>
<g fill="None" fill-opacity="0.0" stroke="#61DAFC" stroke-opacity="0.40" stroke-width="0.3"><path d="
M 799.00 1249.00 
C 800.57 1250.76 802.93 1254.86 805.00 1256.00
C 807.28 1253.52 802.04 1251.28 799.00 1249.00 Z"/>
</g>
<g fill="None" fill-opacity="0.0" stroke="#62D4FD" stroke-opacity="0.42" stroke-width="0.3"><path d="
M 947.00 1291.00 
C 944.96 1289.04 943.12 1287.79 941.00 1286.00
C 942.53 1288.22 944.40 1289.59 947.00 1291.00 Z"/>
</g>
<g fill="None" fill-opacity="0.0" stroke="#000000" stroke-opacity="0.00" stroke-width="0.3"><path d="
M 562.00 1492.00 
L 1153.00 1492.00
C 1113.81 1483.83 1071.84 1467.42 1037.08 1447.92 C 1002.32 1428.42 971.38 1407.05 941.25 1383.75 C 911.12 1360.46 883.84 1333.24 856.00 1310.00
C 775.23 1389.81 676.75 1466.96 562.00 1492.00 Z"/>
</g>
<g fill="#000000" fill-opacity="0.00" stroke="None">
<path d="
M 0.00 1492.00 
L 488.00 1492.00
C 454.54 1483.31 423.34 1469.66 399.25 1441.75 C 375.16 1413.85 362.64 1386.41 352.07 1349.93 C 341.51 1313.45 340.00 1263.38 340.00 1223.00
C 340.00 1218.07 339.57 1212.91 340.00 1208.00
C 341.17 1194.70 342.52 1180.24 343.98 1166.98 C 345.43 1153.71 346.98 1140.00 349.00 1127.00 C 351.02 1114.00 353.26 1101.64 355.93 1088.93 C 358.59 1076.21 360.18 1064.45 363.99 1051.99 C 367.81 1039.54 371.67 1025.70 356.93 1024.07 C 342.19 1022.44 335.58 1016.21 322.92 1013.08 C 310.27 1009.94 300.66 1005.68 288.98 1002.03 C 277.29 998.37 267.88 993.13 256.78 989.22 C 245.67 985.31 236.19 979.80 225.75 975.25 C 215.32 970.70 204.98 966.21 195.25 960.75 C 185.53 955.29 175.25 951.18 165.92 945.08 C 156.60 938.98 147.11 933.88 138.30 927.70 C 129.49 921.51 120.94 915.65 112.30 908.70 C 103.67 901.75 96.28 895.54 88.25 887.75 C 80.22 879.96 73.33 873.28 66.25 864.75 C 59.17 856.22 52.86 848.38 47.08 838.92 C 41.30 829.45 35.81 820.23 31.68 809.32 C 27.55 798.42 22.77 787.13 21.02 774.98 C 19.28 762.82 17.98 744.69 19.00 732.00 C 20.02 719.31 23.46 706.46 26.93 694.93 C 30.39 683.40 35.37 673.87 40.92 663.92 C 46.47 653.97 52.11 645.16 58.75 636.75 C 65.39 628.35 71.83 620.58 79.75 612.75 C 87.67 604.93 94.94 597.72 102.92 590.92 C 110.89 584.11 120.08 577.51 128.70 571.70 C 137.31 565.88 145.84 558.83 155.25 553.25 C 164.65 547.66 174.28 542.30 184.08 537.08 C 193.87 531.85 203.64 526.76 213.74 521.74 C 223.84 516.73 234.54 512.69 245.03 508.02 C 255.51 503.36 266.05 498.97 276.74 494.74 C 287.44 490.52 299.02 486.86 310.02 483.02 C 321.03 479.19 332.90 475.44 344.07 472.07 C 355.25 468.70 371.84 467.33 367.02 453.98 C 362.21 440.62 362.59 430.26 358.68 417.32 C 354.76 404.38 355.14 392.06 352.00 379.00 C 348.86 365.94 348.31 353.46 346.00 340.00 C 343.69 326.53 343.35 311.95 342.00 298.00
C 341.74 295.35 341.66 290.10 341.00 287.00
C 340.57 286.53 340.13 285.61 340.00 285.00
C 338.97 280.17 340.00 273.96 340.00 269.00
C 340.00 228.62 341.49 178.50 352.00 142.00 C 362.50 105.50 375.28 78.22 399.30 50.30 C 423.32 22.38 454.54 8.63 488.00 0.00
L 0.00 0.00
L 0.00 1492.00 Z"/>
</g>
<g fill="#60DBFA" fill-opacity="0.98" stroke="None">
<path d="
M 340.00 269.00 
C 341.23 275.35 341.82 279.54 340.00 285.00
C 340.13 285.61 340.57 286.53 341.00 287.00
C 344.27 290.59 342.38 294.06 342.00 298.00
C 343.35 311.95 343.69 326.53 346.00 340.00 C 348.31 353.46 348.86 365.94 352.00 379.00 C 355.14 392.06 354.76 404.38 358.68 417.32 C 362.59 430.26 362.21 440.62 367.02 453.98 C 371.84 467.33 355.25 468.70 344.07 472.07 C 332.90 475.44 321.03 479.19 310.02 483.02 C 299.02 486.86 287.44 490.52 276.74 494.74 C 266.05 498.97 255.51 503.36 245.03 508.02 C 234.54 512.69 223.84 516.73 213.74 521.74 C 203.64 526.76 193.87 531.85 184.08 537.08 C 174.28 542.30 164.65 547.66 155.25 553.25 C 145.84 558.83 137.31 565.88 128.70 571.70 C 120.08 577.51 110.89 584.11 102.92 590.92 C 94.94 597.72 87.67 604.93 79.75 612.75 C 71.83 620.58 65.39 628.35 58.75 636.75 C 52.11 645.16 46.47 653.97 40.92 663.92 C 35.37 673.87 30.39 683.40 26.93 694.93 C 23.46 706.46 20.02 719.31 19.00 732.00 C 17.98 744.69 19.28 762.82 21.02 774.98 C 22.77 787.13 27.55 798.42 31.68 809.32 C 35.81 820.23 41.30 829.45 47.08 838.92 C 52.86 848.38 59.17 856.22 66.25 864.75 C 73.33 873.28 80.22 879.96 88.25 887.75 C 96.28 895.54 103.67 901.75 112.30 908.70 C 120.94 915.65 129.49 921.51 138.30 927.70 C 147.11 933.88 156.60 938.98 165.92 945.08 C 175.25 951.18 185.53 955.29 195.25 960.75 C 204.98 966.21 215.32 970.70 225.75 975.25 C 236.19 979.80 245.67 985.31 256.78 989.22 C 267.88 993.13 277.29 998.37 288.98 1002.03 C 300.66 1005.68 310.27 1009.94 322.92 1013.08 C 335.58 1016.21 342.19 1022.44 356.93 1024.07 C 371.67 1025.70 367.81 1039.54 363.99 1051.99 C 360.18 1064.45 358.59 1076.21 355.93 1088.93 C 353.26 1101.64 351.02 1114.00 349.00 1127.00 C 346.98 1140.00 345.43 1153.71 343.98 1166.98 C 342.52 1180.24 341.17 1194.70 340.00 1208.00
C 340.12 1208.96 341.97 1211.83 342.00 1215.00 C 342.03 1218.17 340.45 1220.68 340.00 1223.00
C 340.00 1263.38 341.51 1313.45 352.07 1349.93 C 362.64 1386.41 375.16 1413.85 399.25 1441.75 C 423.34 1469.66 454.54 1483.31 488.00 1492.00
L 562.00 1492.00
C 676.75 1466.96 775.23 1389.81 856.00 1310.00
C 883.84 1333.24 911.12 1360.46 941.25 1383.75 C 971.38 1407.05 1002.32 1428.42 1037.08 1447.92 C 1071.84 1467.42 1113.81 1483.83 1153.00 1492.00
L 1227.00 1492.00
C 1236.72 1488.28 1249.45 1486.49 1259.07 1482.07 C 1268.69 1477.65 1277.34 1473.09 1286.23 1467.23 C 1295.12 1461.37 1302.12 1455.25 1309.75 1447.75 C 1317.38 1440.25 1322.51 1433.49 1328.77 1424.77 C 1335.03 1416.06 1340.22 1407.89 1344.92 1397.92 C 1349.63 1387.96 1353.25 1378.65 1356.99 1367.99 C 1360.73 1357.34 1363.68 1345.64 1366.00 1334.00 C 1368.32 1322.35 1371.18 1310.59 1372.00 1298.00 C 1372.82 1285.41 1375.53 1272.40 1375.00 1259.00 C 1374.47 1245.60 1375.21 1229.40 1375.00 1216.00 C 1374.79 1202.60 1372.53 1190.02 1372.00 1177.00 C 1371.47 1163.98 1368.60 1151.22 1367.22 1138.78 C 1365.85 1126.34 1363.28 1114.26 1361.67 1102.33 C 1360.06 1090.40 1355.44 1078.41 1354.07 1066.93 C 1352.71 1055.45 1347.10 1043.49 1346.22 1032.78 C 1345.35 1022.07 1365.75 1023.42 1374.03 1019.03 C 1382.30 1014.63 1397.35 1012.85 1406.68 1008.68 C 1416.01 1004.51 1427.93 1001.76 1437.68 997.68 C 1447.43 993.60 1458.21 989.24 1468.08 985.08 C 1477.94 980.91 1487.46 976.45 1497.08 972.08 C 1506.69 967.70 1516.43 962.43 1525.70 957.70 C 1534.97 952.96 1543.92 948.08 1552.70 942.70 C 1561.48 937.31 1570.01 932.09 1578.25 926.25 C 1586.49 920.40 1595.12 915.04 1603.23 908.23 C 1611.34 901.42 1618.08 896.22 1625.75 888.75 C 1633.42 881.28 1639.89 874.87 1646.75 866.75 C 1653.62 858.64 1659.66 851.80 1664.92 842.92 C 1670.19 834.05 1676.74 825.87 1680.78 815.78 C 1684.82 805.68 1689.18 796.15 1691.93 784.93 C 1694.67 773.70 1695.91 758.23 1696.00 746.00 C 1696.09 733.77 1694.57 719.21 1692.00 708.00 C 1689.44 696.79 1685.06 687.08 1681.08 676.92 C 1677.09 666.77 1670.50 658.63 1665.25 649.75 C 1660.00 640.88 1654.05 633.92 1647.25 625.75 C 1640.45 617.58 1633.81 611.34 1626.25 603.75 C 1618.69 596.16 1611.82 591.09 1603.75 584.25 C 1595.68 577.40 1587.03 572.03 1578.77 566.23 C 1570.51 560.43 1562.12 554.98 1553.30 549.70 C 1544.48 544.41 1535.63 539.26 1526.32 534.68 C 1517.01 530.10 1507.47 524.49 1497.92 520.08 C 1488.37 515.66 1478.41 511.65 1468.78 507.22 C 1459.15 502.80 1447.90 498.88 1438.26 494.74 C 1428.61 490.61 1416.64 487.67 1407.31 483.69 C 1397.97 479.72 1383.12 477.41 1374.98 473.02 C 1366.83 468.64 1346.01 470.35 1346.00 460.00 C 1346.00 449.64 1352.90 437.27 1354.00 426.00 C 1355.10 414.73 1359.80 402.18 1361.33 390.33 C 1362.86 378.48 1365.88 366.45 1367.00 354.00 C 1368.12 341.54 1371.52 329.00 1372.00 316.00 C 1372.48 303.00 1374.62 290.38 1375.00 277.00 C 1375.38 263.62 1374.31 247.42 1375.00 234.00 C 1375.69 220.58 1372.81 207.61 1372.00 195.00 C 1371.19 182.38 1368.57 170.45 1366.22 158.78 C 1363.88 147.11 1360.84 135.60 1357.08 124.92 C 1353.31 114.25 1350.10 104.70 1345.23 94.77 C 1340.36 84.84 1335.57 76.49 1329.25 67.75 C 1322.93 59.02 1317.83 52.37 1310.25 44.75 C 1302.67 37.13 1295.67 31.18 1286.77 25.23 C 1277.87 19.28 1269.48 14.74 1259.75 10.25 C 1250.03 5.75 1236.86 3.57 1227.00 0.00
L 1153.00 0.00
C 1038.42 24.94 939.66 102.20 859.00 182.00
C 831.20 158.74 804.15 131.77 773.75 108.25 C 743.35 84.73 712.60 63.55 677.92 44.08 C 643.23 24.61 601.14 8.08 562.00 0.00
L 488.00 0.00
C 454.54 8.63 423.32 22.38 399.30 50.30 C 375.28 78.22 362.50 105.50 352.00 142.00 C 341.49 178.50 340.00 228.62 340.00 269.00
M 805.00 235.00 
C 755.64 291.95 707.57 348.00 665.00 411.00
C 589.64 418.65 514.99 429.21 442.00 446.00
C 428.01 392.02 418.97 338.88 415.00 282.00 C 411.03 225.12 416.62 168.95 441.26 119.26 C 465.89 69.56 529.49 64.75 576.08 80.92 C 622.67 97.10 661.99 118.73 700.75 147.25 C 739.50 175.78 769.92 201.60 805.00 235.00
M 916.00 243.00 
C 913.57 241.18 908.21 239.11 910.00 236.00
C 919.50 219.52 938.81 211.17 950.75 197.75 C 962.69 184.33 980.52 174.29 994.75 161.75 C 1008.98 149.21 1025.55 139.88 1041.70 128.70 C 1057.84 117.51 1074.58 108.64 1092.68 99.68 C 1110.77 90.72 1129.36 83.11 1149.68 77.68 C 1169.99 72.25 1199.78 69.16 1220.22 75.78 C 1240.67 82.39 1254.90 91.46 1266.92 109.08 C 1278.94 126.70 1286.56 142.75 1291.78 164.22 C 1297.00 185.70 1299.87 210.38 1301.00 234.00 C 1302.13 257.63 1299.79 287.57 1298.00 311.00 C 1296.21 334.43 1291.14 357.43 1287.07 380.07 C 1283.01 402.72 1279.10 424.03 1273.00 446.00
C 1200.05 429.22 1125.38 418.58 1050.00 411.00
C 1008.78 350.90 964.31 296.21 916.00 243.00
M 882.00 402.00 
C 882.61 402.15 884.58 403.27 885.00 404.00
C 866.67 404.00 848.33 404.00 830.00 404.00
C 831.64 401.41 836.43 404.66 838.00 402.00
C 828.54 402.00 819.61 403.00 810.00 403.00
C 804.84 404.09 797.53 404.63 791.00 404.00
C 781.24 404.92 771.58 403.58 762.00 405.00
C 790.86 365.27 823.51 327.03 857.00 290.00
C 891.94 326.04 923.64 365.41 953.00 405.00
C 929.57 403.08 905.51 403.62 882.00 402.00
M 732.00 481.00 
C 731.20 481.24 731.74 478.52 734.01 479.01 C 736.29 479.50 737.55 479.86 739.00 480.00
C 753.44 478.64 768.36 479.59 783.00 479.00 C 797.64 478.41 812.22 477.02 827.00 477.00 C 841.78 476.98 857.29 476.91 872.00 477.00 C 886.71 477.09 902.81 476.75 917.00 478.00 C 931.19 479.25 948.43 477.89 962.00 479.00 C 975.57 480.11 991.61 481.05 1004.00 482.00 C 1016.39 482.95 1018.44 498.22 1025.75 506.25 C 1033.06 514.27 1037.01 525.70 1043.75 534.25 C 1050.50 542.79 1054.54 553.08 1060.92 562.08 C 1067.30 571.08 1072.02 581.45 1078.25 590.75 C 1084.49 600.04 1089.15 610.42 1094.92 620.08 C 1100.70 629.74 1105.42 639.29 1110.97 649.03 C 1116.53 658.77 1121.97 668.70 1127.26 678.74 C 1132.54 688.79 1137.32 697.86 1142.77 708.23 C 1148.23 718.60 1152.27 728.52 1157.97 739.03 C 1163.68 749.53 1153.90 760.30 1149.23 770.23 C 1144.56 780.16 1139.28 790.34 1134.22 800.22 C 1129.16 810.11 1123.48 820.32 1118.23 830.23 C 1112.98 840.14 1107.30 850.06 1102.03 860.03 C 1096.75 870.00 1090.67 878.52 1085.25 888.25 C 1079.83 897.97 1074.15 907.62 1068.25 917.25 C 1062.35 926.87 1056.58 935.80 1050.75 945.75 C 1044.91 955.69 1039.58 962.81 1033.25 973.25 C 1026.91 983.68 1021.48 989.20 1015.08 1001.08 C 1008.68 1012.96 992.31 1009.54 979.00 1011.00 C 965.69 1012.46 950.31 1013.00 936.00 1013.00 C 921.69 1013.00 906.61 1014.74 892.00 1015.00 C 877.39 1015.26 861.79 1014.67 847.00 1015.00 C 832.21 1015.33 816.51 1014.60 802.00 1014.00 C 787.49 1013.40 771.38 1012.77 757.00 1013.00 C 742.63 1013.23 729.04 1008.72 715.00 1010.00 C 700.96 1011.28 698.38 996.63 691.23 987.77 C 684.08 978.91 679.45 968.76 673.22 959.78 C 666.99 950.79 661.81 941.77 655.75 932.25 C 649.69 922.74 644.21 913.05 638.68 903.32 C 633.14 893.59 626.42 884.65 621.25 874.75 C 616.07 864.86 610.93 855.47 605.23 845.77 C 599.53 836.07 594.84 825.86 589.08 815.92 C 583.31 805.99 579.71 796.60 573.70 786.31 C 567.68 776.01 565.12 766.14 558.23 755.77 C 551.33 745.40 559.04 734.27 564.26 724.26 C 569.47 714.24 574.44 704.71 579.75 694.75 C 585.07 684.80 589.63 674.08 595.31 664.31 C 600.98 654.53 605.81 644.44 611.77 634.77 C 617.73 625.10 621.82 615.36 627.78 605.78 C 633.73 596.20 639.34 586.81 644.92 576.92 C 650.51 567.04 657.28 558.97 662.77 548.77 C 668.26 538.57 674.09 531.68 679.92 520.92 C 685.75 510.16 692.87 505.88 698.30 493.30 C 703.74 480.73 719.00 481.78 732.00 481.00
M 609.00 493.00 
C 574.74 546.75 543.52 604.17 513.00 658.00
C 496.16 611.41 475.53 565.18 463.00 517.00
C 511.34 507.99 559.36 497.24 609.00 493.00
M 1253.00 517.00 
C 1238.32 564.67 1219.48 611.34 1202.00 658.00
C 1171.49 604.18 1140.24 546.73 1106.00 493.00
C 1155.99 497.10 1204.20 508.35 1253.00 517.00
M 138.00 832.00 
C 138.88 833.22 140.13 834.37 140.00 836.00
C 135.35 832.15 130.78 827.63 127.00 823.00
C 128.28 822.47 128.86 823.97 130.00 824.00
C 102.57 796.57 82.69 750.10 99.93 712.93 C 117.16 675.76 141.69 653.53 173.75 630.75 C 205.80 607.96 237.96 592.15 274.23 576.23 C 310.50 560.31 351.75 546.98 390.00 536.00
C 393.10 547.22 397.17 558.09 400.78 569.22 C 404.39 580.36 408.43 591.66 412.31 602.69 C 416.19 613.73 420.28 624.43 424.77 635.23 C 429.26 646.02 432.17 657.48 436.99 668.01 C 441.81 678.54 445.19 688.37 450.26 698.74 C 455.33 709.12 457.40 719.93 463.78 730.22 C 470.15 740.51 470.93 750.89 464.23 761.23 C 457.53 771.57 455.73 782.14 450.68 792.68 C 445.63 803.21 441.99 812.58 437.23 823.23 C 432.47 833.88 429.60 845.23 425.01 856.01 C 420.41 866.79 416.64 877.63 412.67 888.67 C 408.71 899.72 404.63 910.81 401.07 922.07 C 397.51 933.33 393.02 944.57 390.00 956.00
C 300.12 929.50 208.37 895.92 138.00 832.00
M 1325.00 956.00 
C 1321.90 944.78 1317.83 933.91 1314.22 922.78 C 1310.61 911.65 1306.57 900.34 1302.69 889.31 C 1298.82 878.27 1294.72 867.56 1290.23 856.77 C 1285.74 845.98 1282.82 834.51 1278.01 823.99 C 1273.20 813.47 1269.80 803.62 1264.74 793.26 C 1259.69 782.90 1257.56 772.02 1251.22 761.78 C 1244.88 751.53 1243.98 741.13 1250.77 730.77 C 1257.56 720.41 1259.23 709.87 1264.32 699.32 C 1269.41 688.78 1272.99 679.42 1277.77 668.77 C 1282.55 658.12 1285.39 646.78 1289.99 635.99 C 1294.60 625.21 1298.36 614.37 1302.33 603.33 C 1306.30 592.28 1310.36 581.19 1313.93 569.93 C 1317.49 558.67 1321.84 547.38 1325.00 536.00
C 1365.66 547.33 1411.60 563.05 1449.69 580.31 C 1487.79 597.56 1524.62 616.32 1556.75 642.25 C 1588.87 668.18 1622.01 701.91 1622.00 746.00 C 1621.99 790.09 1588.92 823.88 1556.75 849.75 C 1524.59 875.63 1487.90 894.45 1449.78 911.78 C 1411.66 929.10 1365.65 944.50 1325.00 956.00
M 609.00 999.00 
C 559.37 994.82 511.40 983.91 463.00 975.00
C 475.56 926.78 496.02 880.77 513.00 834.00
C 543.46 887.79 575.08 945.75 609.00 999.00
M 1202.00 834.00 
C 1218.93 880.68 1239.40 926.84 1252.00 975.00
C 1203.64 983.96 1155.65 994.79 1106.00 999.00
C 1140.26 945.24 1171.48 887.84 1202.00 834.00
M 799.00 1249.00 
C 802.04 1251.28 807.28 1253.52 805.00 1256.00
C 772.31 1291.61 739.86 1314.76 701.92 1343.92 C 663.98 1373.08 623.87 1393.85 577.78 1410.78 C 531.68 1427.71 466.40 1422.83 441.70 1373.31 C 416.99 1323.78 410.96 1267.99 415.00 1211.00 C 419.04 1154.01 427.76 1100.15 442.00 1046.00
C 514.98 1062.74 589.62 1073.36 665.00 1081.00
C 705.99 1140.62 750.64 1195.84 799.00 1249.00
M 947.00 1291.00 
C 944.40 1289.59 942.53 1288.22 941.00 1286.00
C 930.89 1277.44 920.92 1266.04 910.00 1257.00
C 959.40 1199.99 1007.60 1143.74 1050.00 1081.00
C 1125.36 1073.37 1199.98 1062.76 1273.00 1046.00
C 1286.65 1095.56 1293.52 1145.05 1299.00 1197.00 C 1304.48 1248.95 1299.11 1306.79 1283.07 1354.07 C 1267.04 1401.36 1220.59 1426.21 1173.00 1419.00 C 1125.41 1411.79 1086.40 1390.98 1047.75 1367.25 C 1009.11 1343.51 980.42 1319.54 947.00 1291.00
M 831.00 1090.00 
C 830.19 1089.85 827.65 1088.79 827.00 1088.00
C 847.33 1088.00 867.67 1088.00 888.00 1088.00
C 887.53 1089.98 884.40 1087.89 884.00 1090.00
C 906.83 1088.45 930.21 1088.79 953.00 1087.00
C 924.16 1126.76 891.72 1164.64 858.00 1202.00
C 823.06 1165.96 791.36 1126.60 762.00 1087.00
C 784.76 1088.92 808.18 1088.27 831.00 1090.00 Z"/>
</g>
<g fill="#000000" fill-opacity="0.00" stroke="None">
<path d="
M 1153.00 0.00 
L 562.00 0.00
C 601.14 8.08 643.23 24.61 677.92 44.08 C 712.60 63.55 743.35 84.73 773.75 108.25 C 804.15 131.77 831.20 158.74 859.00 182.00
C 939.66 102.20 1038.42 24.94 1153.00 0.00 Z"/>
</g>
<g fill="#000000" fill-opacity="0.00" stroke="None">
<path d="
M 1227.00 1492.00 
L 1715.00 1492.00
L 1715.00 0.00
L 1227.00 0.00
C 1236.86 3.57 1250.03 5.75 1259.75 10.25 C 1269.48 14.74 1277.87 19.28 1286.77 25.23 C 1295.67 31.18 1302.67 37.13 1310.25 44.75 C 1317.83 52.37 1322.93 59.02 1329.25 67.75 C 1335.57 76.49 1340.36 84.84 1345.23 94.77 C 1350.10 104.70 1353.31 114.25 1357.08 124.92 C 1360.84 135.60 1363.88 147.11 1366.22 158.78 C 1368.57 170.45 1371.19 182.38 1372.00 195.00 C 1372.81 207.61 1375.69 220.58 1375.00 234.00 C 1374.31 247.42 1375.38 263.62 1375.00 277.00 C 1374.62 290.38 1372.48 303.00 1372.00 316.00 C 1371.52 329.00 1368.12 341.54 1367.00 354.00 C 1365.88 366.45 1362.86 378.48 1361.33 390.33 C 1359.80 402.18 1355.10 414.73 1354.00 426.00 C 1352.90 437.27 1346.00 449.64 1346.00 460.00 C 1346.01 470.35 1366.83 468.64 1374.98 473.02 C 1383.12 477.41 1397.97 479.72 1407.31 483.69 C 1416.64 487.67 1428.61 490.61 1438.26 494.74 C 1447.90 498.88 1459.15 502.80 1468.78 507.22 C 1478.41 511.65 1488.37 515.66 1497.92 520.08 C 1507.47 524.49 1517.01 530.10 1526.32 534.68 C 1535.63 539.26 1544.48 544.41 1553.30 549.70 C 1562.12 554.98 1570.51 560.43 1578.77 566.23 C 1587.03 572.03 1595.68 577.40 1603.75 584.25 C 1611.82 591.09 1618.69 596.16 1626.25 603.75 C 1633.81 611.34 1640.45 617.58 1647.25 625.75 C 1654.05 633.92 1660.00 640.88 1665.25 649.75 C 1670.50 658.63 1677.09 666.77 1681.08 676.92 C 1685.06 687.08 1689.44 696.79 1692.00 708.00 C 1694.57 719.21 1696.09 733.77 1696.00 746.00 C 1695.91 758.23 1694.67 773.70 1691.93 784.93 C 1689.18 796.15 1684.82 805.68 1680.78 815.78 C 1676.74 825.87 1670.19 834.05 1664.92 842.92 C 1659.66 851.80 1653.62 858.64 1646.75 866.75 C 1639.89 874.87 1633.42 881.28 1625.75 888.75 C 1618.08 896.22 1611.34 901.42 1603.23 908.23 C 1595.12 915.04 1586.49 920.40 1578.25 926.25 C 1570.01 932.09 1561.48 937.31 1552.70 942.70 C 1543.92 948.08 1534.97 952.96 1525.70 957.70 C 1516.43 962.43 1506.69 967.70 1497.08 972.08 C 1487.46 976.45 1477.94 980.91 1468.08 985.08 C 1458.21 989.24 1447.43 993.60 1437.68 997.68 C 1427.93 1001.76 1416.01 1004.51 1406.68 1008.68 C 1397.35 1012.85 1382.30 1014.63 1374.03 1019.03 C 1365.75 1023.42 1345.35 1022.07 1346.22 1032.78 C 1347.10 1043.49 1352.71 1055.45 1354.07 1066.93 C 1355.44 1078.41 1360.06 1090.40 1361.67 1102.33 C 1363.28 1114.26 1365.85 1126.34 1367.22 1138.78 C 1368.60 1151.22 1371.47 1163.98 1372.00 1177.00 C 1372.53 1190.02 1374.79 1202.60 1375.00 1216.00 C 1375.21 1229.40 1374.47 1245.60 1375.00 1259.00 C 1375.53 1272.40 1372.82 1285.41 1372.00 1298.00 C 1371.18 1310.59 1368.32 1322.35 1366.00 1334.00 C 1363.68 1345.64 1360.73 1357.34 1356.99 1367.99 C 1353.25 1378.65 1349.63 1387.96 1344.92 1397.92 C 1340.22 1407.89 1335.03 1416.06 1328.77 1424.77 C 1322.51 1433.49 1317.38 1440.25 1309.75 1447.75 C 1302.12 1455.25 1295.12 1461.37 1286.23 1467.23 C 1277.34 1473.09 1268.69 1477.65 1259.07 1482.07 C 1249.45 1486.49 1236.72 1488.28 1227.00 1492.00 Z"/>
</g>
<g fill="#000000" fill-opacity="0.00" stroke="None">
<path d="
M 805.00 235.00 
C 769.92 201.60 739.50 175.78 700.75 147.25 C 661.99 118.73 622.67 97.10 576.08 80.92 C 529.49 64.75 465.89 69.56 441.26 119.26 C 416.62 168.95 411.03 225.12 415.00 282.00 C 418.97 338.88 428.01 392.02 442.00 446.00
C 514.99 429.21 589.64 418.65 665.00 411.00
C 707.57 348.00 755.64 291.95 805.00 235.00 Z"/>
</g>
<g fill="#000000" fill-opacity="0.00" stroke="None">
<path d="
M 910.00 236.00 
C 910.00 237.60 914.95 241.82 916.00 243.00
C 964.31 296.21 1008.78 350.90 1050.00 411.00
C 1125.38 418.58 1200.05 429.22 1273.00 446.00
C 1279.10 424.03 1283.01 402.72 1287.07 380.07 C 1291.14 357.43 1296.21 334.43 1298.00 311.00 C 1299.79 287.57 1302.13 257.63 1301.00 234.00 C 1299.87 210.38 1297.00 185.70 1291.78 164.22 C 1286.56 142.75 1278.94 126.70 1266.92 109.08 C 1254.90 91.46 1240.67 82.39 1220.22 75.78 C 1199.78 69.16 1169.99 72.25 1149.68 77.68 C 1129.36 83.11 1110.77 90.72 1092.68 99.68 C 1074.58 108.64 1057.84 117.51 1041.70 128.70 C 1025.55 139.88 1008.98 149.21 994.75 161.75 C 980.52 174.29 962.69 184.33 950.75 197.75 C 938.81 211.17 919.50 219.52 910.00 236.00 Z"/>
</g>
<g fill="#60D8F8" fill-opacity="0.39" stroke="None">
<path d="
M 916.00 243.00 
C 914.95 241.82 910.00 237.60 910.00 236.00
C 908.21 239.11 913.57 241.18 916.00 243.00 Z"/>
</g>
<g fill="#61DAFB" fill-opacity="0.40" stroke="None">
<path d="
M 340.00 285.00 
C 341.82 279.54 341.23 275.35 340.00 269.00
C 340.00 273.96 338.97 280.17 340.00 285.00 Z"/>
</g>
<g fill="#5FDAFB" fill-opacity="0.55" stroke="None">
<path d="
M 342.00 298.00 
C 342.38 294.06 344.27 290.59 341.00 287.00
C 341.66 290.10 341.74 295.35 342.00 298.00 Z"/>
</g>
<g fill="#000000" fill-opacity="0.00" stroke="None">
<path d="
M 791.00 404.00 
C 797.10 403.43 803.55 403.00 810.00 403.00
C 819.61 403.00 828.54 402.00 838.00 402.00
C 841.67 402.00 845.33 402.00 849.00 402.00
C 854.67 402.00 860.33 402.00 866.00 402.00
C 871.32 402.00 876.68 401.80 882.00 402.00
C 905.51 403.62 929.57 403.08 953.00 405.00
C 923.64 365.41 891.94 326.04 857.00 290.00
C 823.51 327.03 790.86 365.27 762.00 405.00
C 771.58 403.58 781.24 404.92 791.00 404.00 Z"/>
</g>
<g fill="#5ED1FB" fill-opacity="0.37" stroke="None">
<path d="
M 882.00 402.00 
C 876.68 401.80 871.32 402.00 866.00 402.00
C 860.65 402.52 854.28 402.51 849.00 402.00
C 845.33 402.00 841.67 402.00 838.00 402.00
C 836.43 404.66 831.64 401.41 830.00 404.00
C 848.33 404.00 866.67 404.00 885.00 404.00
C 884.58 403.27 882.61 402.15 882.00 402.00 Z"/>
</g>
<g fill="#40BFFF" fill-opacity="0.02" stroke="None">
<path d="
M 866.00 402.00 
C 860.33 402.00 854.67 402.00 849.00 402.00
C 854.28 402.51 860.65 402.52 866.00 402.00 Z"/>
</g>
<g fill="#61DBFB" fill-opacity="0.48" stroke="None">
<path d="
M 791.00 404.00 
C 797.53 404.63 804.84 404.09 810.00 403.00
C 803.55 403.00 797.10 403.43 791.00 404.00 Z"/>
</g>
<g fill="#000000" fill-opacity="0.00" stroke="None">
<path d="
M 739.00 480.00 
C 736.85 480.20 734.42 480.86 732.00 481.00
C 719.00 481.78 703.74 480.73 698.30 493.30 C 692.87 505.88 685.75 510.16 679.92 520.92 C 674.09 531.68 668.26 538.57 662.77 548.77 C 657.28 558.97 650.51 567.04 644.92 576.92 C 639.34 586.81 633.73 596.20 627.78 605.78 C 621.82 615.36 617.73 625.10 611.77 634.77 C 605.81 644.44 600.98 654.53 595.31 664.31 C 589.63 674.08 585.07 684.80 579.75 694.75 C 574.44 704.71 569.47 714.24 564.26 724.26 C 559.04 734.27 551.33 745.40 558.23 755.77 C 565.12 766.14 567.68 776.01 573.70 786.31 C 579.71 796.60 583.31 805.99 589.08 815.92 C 594.84 825.86 599.53 836.07 605.23 845.77 C 610.93 855.47 616.07 864.86 621.25 874.75 C 626.42 884.65 633.14 893.59 638.68 903.32 C 644.21 913.05 649.69 922.74 655.75 932.25 C 661.81 941.77 666.99 950.79 673.22 959.78 C 679.45 968.76 684.08 978.91 691.23 987.77 C 698.38 996.63 700.96 1011.28 715.00 1010.00 C 729.04 1008.72 742.63 1013.23 757.00 1013.00 C 771.38 1012.77 787.49 1013.40 802.00 1014.00 C 816.51 1014.60 832.21 1015.33 847.00 1015.00 C 861.79 1014.67 877.39 1015.26 892.00 1015.00 C 906.61 1014.74 921.69 1013.00 936.00 1013.00 C 950.31 1013.00 965.69 1012.46 979.00 1011.00 C 992.31 1009.54 1008.68 1012.96 1015.08 1001.08 C 1021.48 989.20 1026.91 983.68 1033.25 973.25 C 1039.58 962.81 1044.91 955.69 1050.75 945.75 C 1056.58 935.80 1062.35 926.87 1068.25 917.25 C 1074.15 907.62 1079.83 897.97 1085.25 888.25 C 1090.67 878.52 1096.75 870.00 1102.03 860.03 C 1107.30 850.06 1112.98 840.14 1118.23 830.23 C 1123.48 820.32 1129.16 810.11 1134.22 800.22 C 1139.28 790.34 1144.56 780.16 1149.23 770.23 C 1153.90 760.30 1163.68 749.53 1157.97 739.03 C 1152.27 728.52 1148.23 718.60 1142.77 708.23 C 1137.32 697.86 1132.54 688.79 1127.26 678.74 C 1121.97 668.70 1116.53 658.77 1110.97 649.03 C 1105.42 639.29 1100.70 629.74 1094.92 620.08 C 1089.15 610.42 1084.49 600.04 1078.25 590.75 C 1072.02 581.45 1067.30 571.08 1060.92 562.08 C 1054.54 553.08 1050.50 542.79 1043.75 534.25 C 1037.01 525.70 1033.06 514.27 1025.75 506.25 C 1018.44 498.22 1016.39 482.95 1004.00 482.00 C 991.61 481.05 975.57 480.11 962.00 479.00 C 948.43 477.89 931.19 479.25 917.00 478.00 C 902.81 476.75 886.71 477.09 872.00 477.00 C 857.29 476.91 841.78 476.98 827.00 477.00 C 812.22 477.02 797.64 478.41 783.00 479.00 C 768.36 479.59 753.44 478.64 739.00 480.00
M 1007.00 737.00 
C 1007.48 741.99 1008.53 748.30 1008.00 754.00
C 1002.28 814.99 966.02 868.16 906.31 888.31 C 846.59 908.46 775.08 887.94 736.77 836.23 C 698.46 784.53 698.47 709.83 735.77 657.77 C 773.07 605.71 843.12 583.51 904.07 602.93 C 965.03 622.34 1001.03 675.31 1007.00 737.00 Z"/>
</g>
<g fill="#5FD6FB" fill-opacity="0.50" stroke="None">
<path d="
M 732.00 481.00 
C 734.42 480.86 736.85 480.20 739.00 480.00
C 737.55 479.86 736.29 479.50 734.01 479.01 C 731.74 478.52 731.20 481.24 732.00 481.00 Z"/>
</g>
<g fill="#000000" fill-opacity="0.00" stroke="None">
<path d="
M 609.00 493.00 
C 559.36 497.24 511.34 507.99 463.00 517.00
C 475.53 565.18 496.16 611.41 513.00 658.00
C 543.52 604.17 574.74 546.75 609.00 493.00 Z"/>
</g>
<g fill="#000000" fill-opacity="0.00" stroke="None">
<path d="
M 1253.00 517.00 
C 1204.20 508.35 1155.99 497.10 1106.00 493.00
C 1140.24 546.73 1171.49 604.18 1202.00 658.00
C 1219.48 611.34 1238.32 564.67 1253.00 517.00 Z"/>
</g>
<g fill="#000000" fill-opacity="0.00" stroke="None">
<path d="
M 130.00 824.00 
C 132.72 826.72 135.41 829.61 138.00 832.00
C 208.37 895.92 300.12 929.50 390.00 956.00
C 393.02 944.57 397.51 933.33 401.07 922.07 C 404.63 910.81 408.71 899.72 412.67 888.67 C 416.64 877.63 420.41 866.79 425.01 856.01 C 429.60 845.23 432.47 833.88 437.23 823.23 C 441.99 812.58 445.63 803.21 450.68 792.68 C 455.73 782.14 457.53 771.57 464.23 761.23 C 470.93 750.89 470.15 740.51 463.78 730.22 C 457.40 719.93 455.33 709.12 450.26 698.74 C 445.19 688.37 441.81 678.54 436.99 668.01 C 432.17 657.48 429.26 646.02 424.77 635.23 C 420.28 624.43 416.19 613.73 412.31 602.69 C 408.43 591.66 404.39 580.36 400.78 569.22 C 397.17 558.09 393.10 547.22 390.00 536.00
C 351.75 546.98 310.50 560.31 274.23 576.23 C 237.96 592.15 205.80 607.96 173.75 630.75 C 141.69 653.53 117.16 675.76 99.93 712.93 C 82.69 750.10 102.57 796.57 130.00 824.00 Z"/>
</g>
<g fill="#000000" fill-opacity="0.00" stroke="None">
<path d="
M 1325.00 956.00 
C 1365.65 944.50 1411.66 929.10 1449.78 911.78 C 1487.90 894.45 1524.59 875.63 1556.75 849.75 C 1588.92 823.88 1621.99 790.09 1622.00 746.00 C 1622.01 701.91 1588.87 668.18 1556.75 642.25 C 1524.62 616.32 1487.79 597.56 1449.69 580.31 C 1411.60 563.05 1365.66 547.33 1325.00 536.00
C 1321.84 547.38 1317.49 558.67 1313.93 569.93 C 1310.36 581.19 1306.30 592.28 1302.33 603.33 C 1298.36 614.37 1294.60 625.21 1289.99 635.99 C 1285.39 646.78 1282.55 658.12 1277.77 668.77 C 1272.99 679.42 1269.41 688.78 1264.32 699.32 C 1259.23 709.87 1257.56 720.41 1250.77 730.77 C 1243.98 741.13 1244.88 751.53 1251.22 761.78 C 1257.56 772.02 1259.69 782.90 1264.74 793.26 C 1269.80 803.62 1273.20 813.47 1278.01 823.99 C 1282.82 834.51 1285.74 845.98 1290.23 856.77 C 1294.72 867.56 1298.82 878.27 1302.69 889.31 C 1306.57 900.34 1310.61 911.65 1314.22 922.78 C 1317.83 933.91 1321.90 944.78 1325.00 956.00 Z"/>
</g>
<g fill="#61DBFB" fill-opacity="0.99" stroke="None">
<path d="
M 1008.00 754.00 
C 1007.90 753.12 1005.42 749.06 1006.00 746.00 C 1006.58 742.94 1006.77 739.38 1007.00 737.00
C 1001.03 675.31 965.03 622.34 904.07 602.93 C 843.12 583.51 773.07 605.71 735.77 657.77 C 698.47 709.83 698.46 784.53 736.77 836.23 C 775.08 887.94 846.59 908.46 906.31 888.31 C 966.02 868.16 1002.28 814.99 1008.00 754.00 Z"/>
</g>
<g fill="#62D5FA" fill-opacity="0.40" stroke="None">
<path d="
M 1008.00 754.00 
C 1008.53 748.30 1007.48 741.99 1007.00 737.00
C 1006.77 739.38 1006.58 742.94 1006.00 746.00 C 1005.42 749.06 1007.90 753.12 1008.00 754.00 Z"/>
</g>
<g fill="#62E2FC" fill-opacity="0.53" stroke="None">
<path d="
M 138.00 832.00 
C 135.41 829.61 132.72 826.72 130.00 824.00
C 128.86 823.97 128.28 822.47 127.00 823.00
C 130.78 827.63 135.35 832.15 140.00 836.00
C 140.13 834.37 138.88 833.22 138.00 832.00 Z"/>
</g>
<g fill="#000000" fill-opacity="0.00" stroke="None">
<path d="
M 609.00 999.00 
C 575.08 945.75 543.46 887.79 513.00 834.00
C 496.02 880.77 475.56 926.78 463.00 975.00
C 511.40 983.91 559.37 994.82 609.00 999.00 Z"/>
</g>
<g fill="#000000" fill-opacity="0.00" stroke="None">
<path d="
M 1202.00 834.00 
C 1171.48 887.84 1140.26 945.24 1106.00 999.00
C 1155.65 994.79 1203.64 983.96 1252.00 975.00
C 1239.40 926.84 1218.93 880.68 1202.00 834.00 Z"/>
</g>
<g fill="#000000" fill-opacity="0.00" stroke="None">
<path d="
M 805.00 1256.00 
C 802.93 1254.86 800.57 1250.76 799.00 1249.00
C 750.64 1195.84 705.99 1140.62 665.00 1081.00
C 589.62 1073.36 514.98 1062.74 442.00 1046.00
C 427.76 1100.15 419.04 1154.01 415.00 1211.00 C 410.96 1267.99 416.99 1323.78 441.70 1373.31 C 466.40 1422.83 531.68 1427.71 577.78 1410.78 C 623.87 1393.85 663.98 1373.08 701.92 1343.92 C 739.86 1314.76 772.31 1291.61 805.00 1256.00 Z"/>
</g>
<g fill="#000000" fill-opacity="0.00" stroke="None">
<path d="
M 941.00 1286.00 
C 943.12 1287.79 944.96 1289.04 947.00 1291.00
C 980.42 1319.54 1009.11 1343.51 1047.75 1367.25 C 1086.40 1390.98 1125.41 1411.79 1173.00 1419.00 C 1220.59 1426.21 1267.04 1401.36 1283.07 1354.07 C 1299.11 1306.79 1304.48 1248.95 1299.00 1197.00 C 1293.52 1145.05 1286.65 1095.56 1273.00 1046.00
C 1199.98 1062.76 1125.36 1073.37 1050.00 1081.00
C 1007.60 1143.74 959.40 1199.99 910.00 1257.00
C 920.92 1266.04 930.89 1277.44 941.00 1286.00 Z"/>
</g>
<g fill="#000000" fill-opacity="0.00" stroke="None">
<path d="
M 884.00 1090.00 
C 877.73 1090.43 871.28 1090.00 865.00 1090.00
C 860.00 1090.00 855.00 1090.00 850.00 1090.00
C 843.72 1090.00 837.27 1090.43 831.00 1090.00
C 808.18 1088.27 784.76 1088.92 762.00 1087.00
C 791.36 1126.60 823.06 1165.96 858.00 1202.00
C 891.72 1164.64 924.16 1126.76 953.00 1087.00
C 930.21 1088.79 906.83 1088.45 884.00 1090.00 Z"/>
</g>
<g fill="#69D5FC" fill-opacity="0.33" stroke="None">
<path d="
M 831.00 1090.00 
C 837.27 1090.43 843.72 1090.00 850.00 1090.00
C 854.72 1089.54 860.34 1089.55 865.00 1090.00
C 871.28 1090.00 877.73 1090.43 884.00 1090.00
C 884.40 1087.89 887.53 1089.98 888.00 1088.00
C 867.67 1088.00 847.33 1088.00 827.00 1088.00
C 827.65 1088.79 830.19 1089.85 831.00 1090.00 Z"/>
</g>
<g fill="#40BFFF" fill-opacity="0.02" stroke="None">
<path d="
M 850.00 1090.00 
C 855.00 1090.00 860.00 1090.00 865.00 1090.00
C 860.34 1089.55 854.72 1089.54 850.00 1090.00 Z"/>
</g>
<g fill="#61DAFB" fill-opacity="0.41" stroke="None">
<path d="
M 340.00 1223.00 
C 340.45 1220.68 342.03 1218.17 342.00 1215.00 C 341.97 1211.83 340.12 1208.96 340.00 1208.00
C 339.57 1212.91 340.00 1218.07 340.00 1223.00 Z"/>
</g>
<g fill="#61DAFC" fill-opacity="0.40" stroke="None">
<path d="
M 799.00 1249.00 
C 800.57 1250.76 802.93 1254.86 805.00 1256.00
C 807.28 1253.52 802.04 1251.28 799.00 1249.00 Z"/>
</g>
<g fill="#62D4FD" fill-opacity="0.42" stroke="None">
<path d="
M 947.00 1291.00 
C 944.96 1289.04 943.12 1287.79 941.00 1286.00
C 942.53 1288.22 944.40 1289.59 947.00 1291.00 Z"/>
</g>
<g fill="#000000" fill-opacity="0.00" stroke="None">
<path d="
M 562.00 1492.00 
L 1153.00 1492.00
C 1113.81 1483.83 1071.84 1467.42 1037.08 1447.92 C 1002.32 1428.42 971.38 1407.05 941.25 1383.75 C 911.12 1360.46 883.84 1333.24 856.00 1310.00
C 775.23 1389.81 676.75 1466.96 562.00 1492.00 Z"/>
</g>
</svg>