<svg xmlns="http://www.w3.org/2000/svg" xmlns:v="https://svgstorm.com"
viewBox = "0 0 95 92"
width="95"
height="92">
<g fill="None" fill-opacity="0.0" stroke="#000000" stroke-opacity="0.00" stroke-width="0.3"><path d="
M 0.00 11.00 
C 0.50 11.00 1.00 11.00 1.00 11.00
C 1.18 9.82 1.45 9.07 2.00 8.00
C 3.37 5.32 4.90 4.72 7.00 3.00
C 8.38 1.87 8.21 1.68 10.00 1.00
C 10.35 0.87 10.84 0.34 11.00 0.00
L 0.00 0.00
L 0.00 11.00 Z"/>
</g>
<g fill="None" fill-opacity="0.0" stroke="#001E36" stroke-opacity="1.00" stroke-width="0.3"><path d="
M 10.00 1.00 
C 9.15 1.72 7.94 2.27 7.00 3.00
C 5.81 3.92 2.83 6.86 2.00 8.00
C 1.45 9.07 1.18 9.82 1.00 11.00
C -2.25 32.19 1.00 56.52 1.00 78.00
C 1.00 78.97 0.89 80.03 1.00 81.00
C 1.13 82.16 1.44 82.97 2.00 84.00
C 3.04 85.44 6.61 89.00 8.00 90.00
C 9.13 90.62 9.71 90.80 11.00 91.00
C 22.50 92.76 35.29 91.06 47.00 91.00 C 58.71 90.94 72.40 92.78 84.00 91.00
C 85.16 90.82 85.96 90.57 87.00 90.00
C 88.44 88.96 92.00 85.39 93.00 84.00
C 93.61 82.88 93.86 82.30 94.00 81.00
C 94.11 80.03 94.00 78.97 94.00 78.00
C 94.00 56.52 97.25 32.19 94.00 11.00
C 93.82 9.82 93.55 9.07 93.00 8.00
C 91.73 6.25 87.70 2.22 86.00 1.00
C 85.49 0.74 83.92 1.29 84.00 0.00
L 82.00 0.00
C 60.07 1.66 34.86 1.67 13.00 0.00
L 11.00 0.00
C 10.84 0.34 10.35 0.87 10.00 1.00
M 30.00 52.00 
C 30.00 56.33 30.00 60.67 30.00 65.00
C 27.00 65.00 24.00 65.00 21.00 65.00
C 18.69 52.90 24.09 47.80 21.00 35.00 C 17.91 22.20 29.52 21.76 39.07 23.93 C 48.62 26.09 52.96 32.63 51.00 42.00 C 49.04 51.37 37.24 52.01 30.00 52.00
M 56.00 64.00 
C 53.35 60.96 54.98 57.20 57.00 57.00
C 59.34 56.77 69.16 61.84 69.90 56.90 C 70.64 51.96 61.93 54.08 59.77 50.23 C 57.61 46.38 52.40 44.54 56.93 37.93 C 61.46 31.31 80.96 29.27 77.00 42.00
C 69.85 35.84 60.29 43.70 69.08 45.92 C 77.86 48.15 80.37 54.76 76.69 61.69 C 73.02 68.62 61.36 65.85 56.00 64.00 Z"/>
</g>
<g fill="None" fill-opacity="0.0" stroke="#001E36" stroke-opacity="0.87" stroke-width="0.3"><path d="
M 82.00 0.00 
L 13.00 0.00
C 34.86 1.67 60.07 1.66 82.00 0.00 Z"/>
</g>
<g fill="None" fill-opacity="0.0" stroke="#000000" stroke-opacity="0.00" stroke-width="0.3"><path d="
M 86.00 1.00 
C 88.90 2.50 91.56 5.17 93.00 8.00
C 93.55 9.07 93.82 9.82 94.00 11.00
C 94.14 11.23 95.00 11.00 95.00 11.00
L 95.00 0.00
L 84.00 0.00
C 83.92 1.29 85.49 0.74 86.00 1.00 Z"/>
</g>
<g fill="None" fill-opacity="0.0" stroke="#909BA7" stroke-opacity="0.31" stroke-width="0.3"><path d="
M 7.00 3.00 
C 7.94 2.27 9.15 1.72 10.00 1.00
C 8.21 1.68 8.38 1.87 7.00 3.00 Z"/>
</g>
<g fill="None" fill-opacity="0.0" stroke="#758492" stroke-opacity="0.42" stroke-width="0.3"><path d="
M 93.00 8.00 
C 91.56 5.17 88.90 2.50 86.00 1.00
C 87.70 2.22 91.73 6.25 93.00 8.00 Z"/>
</g>
<g fill="None" fill-opacity="0.0" stroke="#627484" stroke-opacity="0.50" stroke-width="0.3"><path d="
M 2.00 8.00 
C 2.83 6.86 5.81 3.92 7.00 3.00
C 4.90 4.72 3.37 5.32 2.00 8.00 Z"/>
</g>
<g fill="None" fill-opacity="0.0" stroke="#05243B" stroke-opacity="0.84" stroke-width="0.3"><path d="
M 0.00 78.00 
C 0.50 78.00 1.00 78.00 1.00 78.00
C 1.00 56.52 -2.25 32.19 1.00 11.00
C 1.00 11.00 0.50 11.00 0.00 11.00
L 0.00 78.00 Z"/>
</g>
<g fill="None" fill-opacity="0.0" stroke="#05243B" stroke-opacity="0.84" stroke-width="0.3"><path d="
M 94.00 78.00 
C 94.27 77.75 95.00 78.00 95.00 78.00
L 95.00 11.00
C 95.00 11.00 94.14 11.23 94.00 11.00
C 97.25 32.19 94.00 56.52 94.00 78.00 Z"/>
</g>
<g fill="None" fill-opacity="0.0" stroke="#2EA1F6" stroke-opacity="1.00" stroke-width="0.3"><path d="
M 30.00 52.00 
C 37.24 52.01 49.04 51.37 51.00 42.00 C 52.96 32.63 48.62 26.09 39.07 23.93 C 29.52 21.76 17.91 22.20 21.00 35.00 C 24.09 47.80 18.69 52.90 21.00 65.00
C 24.00 65.00 27.00 65.00 30.00 65.00
C 30.00 60.67 30.00 56.33 30.00 52.00
M 30.00 44.00 
C 30.00 39.67 30.00 35.33 30.00 31.00
C 45.64 26.14 46.04 49.50 30.00 44.00 Z"/>
</g>
<g fill="None" fill-opacity="0.0" stroke="#00223B" stroke-opacity="1.00" stroke-width="0.3"><path d="
M 30.00 44.00 
C 46.04 49.50 45.64 26.14 30.00 31.00
C 30.00 35.33 30.00 39.67 30.00 44.00 Z"/>
</g>
<g fill="None" fill-opacity="0.0" stroke="#2FA3F8" stroke-opacity="1.00" stroke-width="0.3"><path d="
M 57.00 57.00 
C 55.86 57.73 55.23 62.70 56.00 64.00
C 61.36 65.85 73.02 68.62 76.69 61.69 C 80.37 54.76 77.86 48.15 69.08 45.92 C 60.29 43.70 69.85 35.84 77.00 42.00
C 80.96 29.27 61.46 31.31 56.93 37.93 C 52.40 44.54 57.61 46.38 59.77 50.23 C 61.93 54.08 70.64 51.96 69.90 56.90 C 69.16 61.84 59.34 56.77 57.00 57.00 Z"/>
</g>
<g fill="None" fill-opacity="0.0" stroke="#176096" stroke-opacity="1.00" stroke-width="0.3"><path d="
M 56.00 64.00 
C 55.23 62.70 55.86 57.73 57.00 57.00
C 54.98 57.20 53.35 60.96 56.00 64.00 Z"/>
</g>
<g fill="None" fill-opacity="0.0" stroke="#929EA7" stroke-opacity="0.31" stroke-width="0.3"><path d="
M 0.00 81.00 
C 0.50 81.00 1.00 81.00 1.00 81.00
C 0.89 80.03 1.00 78.97 1.00 78.00
C 1.00 78.00 0.50 78.00 0.00 78.00
L 0.00 81.00 Z"/>
</g>
<g fill="None" fill-opacity="0.0" stroke="#939EA8" stroke-opacity="0.30" stroke-width="0.3"><path d="
M 94.00 81.00 
C 94.14 80.77 95.00 81.00 95.00 81.00
L 95.00 78.00
C 95.00 78.00 94.27 77.75 94.00 78.00
C 94.00 78.97 94.11 80.03 94.00 81.00 Z"/>
</g>
<g fill="None" fill-opacity="0.0" stroke="#000000" stroke-opacity="0.00" stroke-width="0.3"><path d="
M 0.00 92.00 
L 11.00 92.00
C 11.00 91.50 11.00 91.00 11.00 91.00
C 9.71 90.80 9.13 90.62 8.00 90.00
C 5.77 88.78 3.19 86.17 2.00 84.00
C 1.44 82.97 1.13 82.16 1.00 81.00
C 1.00 81.00 0.50 81.00 0.00 81.00
L 0.00 92.00 Z"/>
</g>
<g fill="None" fill-opacity="0.0" stroke="#000000" stroke-opacity="0.00" stroke-width="0.3"><path d="
M 93.00 84.00 
C 91.78 86.23 89.17 88.81 87.00 90.00
C 85.96 90.57 85.16 90.82 84.00 91.00
C 83.77 91.14 84.00 92.00 84.00 92.00
L 95.00 92.00
L 95.00 81.00
C 95.00 81.00 94.14 80.77 94.00 81.00
C 93.86 82.30 93.61 82.88 93.00 84.00 Z"/>
</g>
<g fill="None" fill-opacity="0.0" stroke="#6E7F8D" stroke-opacity="0.44" stroke-width="0.3"><path d="
M 8.00 90.00 
C 6.61 89.00 3.04 85.44 2.00 84.00
C 3.19 86.17 5.77 88.78 8.00 90.00 Z"/>
</g>
<g fill="None" fill-opacity="0.0" stroke="#6E7F8C" stroke-opacity="0.44" stroke-width="0.3"><path d="
M 87.00 90.00 
C 89.17 88.81 91.78 86.23 93.00 84.00
C 92.00 85.39 88.44 88.96 87.00 90.00 Z"/>
</g>
<g fill="None" fill-opacity="0.0" stroke="#07253D" stroke-opacity="0.84" stroke-width="0.3"><path d="
M 11.00 92.00 
L 84.00 92.00
C 84.00 92.00 83.77 91.14 84.00 91.00
C 72.40 92.78 58.71 90.94 47.00 91.00 C 35.29 91.06 22.50 92.76 11.00 91.00
C 11.00 91.00 11.00 91.50 11.00 92.00 Z"/>
</g>
<g fill="#000000" fill-opacity="0.00" stroke="None">
<path d="
M 0.00 11.00 
C 0.50 11.00 1.00 11.00 1.00 11.00
C 1.18 9.82 1.45 9.07 2.00 8.00
C 3.37 5.32 4.90 4.72 7.00 3.00
C 8.38 1.87 8.21 1.68 10.00 1.00
C 10.35 0.87 10.84 0.34 11.00 0.00
L 0.00 0.00
L 0.00 11.00 Z"/>
</g>
<g fill="#001E36" fill-opacity="1.00" stroke="None">
<path d="
M 10.00 1.00 
C 9.15 1.72 7.94 2.27 7.00 3.00
C 5.81 3.92 2.83 6.86 2.00 8.00
C 1.45 9.07 1.18 9.82 1.00 11.00
C -2.25 32.19 1.00 56.52 1.00 78.00
C 1.00 78.97 0.89 80.03 1.00 81.00
C 1.13 82.16 1.44 82.97 2.00 84.00
C 3.04 85.44 6.61 89.00 8.00 90.00
C 9.13 90.62 9.71 90.80 11.00 91.00
C 22.50 92.76 35.29 91.06 47.00 91.00 C 58.71 90.94 72.40 92.78 84.00 91.00
C 85.16 90.82 85.96 90.57 87.00 90.00
C 88.44 88.96 92.00 85.39 93.00 84.00
C 93.61 82.88 93.86 82.30 94.00 81.00
C 94.11 80.03 94.00 78.97 94.00 78.00
C 94.00 56.52 97.25 32.19 94.00 11.00
C 93.82 9.82 93.55 9.07 93.00 8.00
C 91.73 6.25 87.70 2.22 86.00 1.00
C 85.49 0.74 83.92 1.29 84.00 0.00
L 82.00 0.00
C 60.07 1.66 34.86 1.67 13.00 0.00
L 11.00 0.00
C 10.84 0.34 10.35 0.87 10.00 1.00
M 30.00 52.00 
C 30.00 56.33 30.00 60.67 30.00 65.00
C 27.00 65.00 24.00 65.00 21.00 65.00
C 18.69 52.90 24.09 47.80 21.00 35.00 C 17.91 22.20 29.52 21.76 39.07 23.93 C 48.62 26.09 52.96 32.63 51.00 42.00 C 49.04 51.37 37.24 52.01 30.00 52.00
M 56.00 64.00 
C 53.35 60.96 54.98 57.20 57.00 57.00
C 59.34 56.77 69.16 61.84 69.90 56.90 C 70.64 51.96 61.93 54.08 59.77 50.23 C 57.61 46.38 52.40 44.54 56.93 37.93 C 61.46 31.31 80.96 29.27 77.00 42.00
C 69.85 35.84 60.29 43.70 69.08 45.92 C 77.86 48.15 80.37 54.76 76.69 61.69 C 73.02 68.62 61.36 65.85 56.00 64.00 Z"/>
</g>
<g fill="#001E36" fill-opacity="0.87" stroke="None">
<path d="
M 82.00 0.00 
L 13.00 0.00
C 34.86 1.67 60.07 1.66 82.00 0.00 Z"/>
</g>
<g fill="#000000" fill-opacity="0.00" stroke="None">
<path d="
M 86.00 1.00 
C 88.90 2.50 91.56 5.17 93.00 8.00
C 93.55 9.07 93.82 9.82 94.00 11.00
C 94.14 11.23 95.00 11.00 95.00 11.00
L 95.00 0.00
L 84.00 0.00
C 83.92 1.29 85.49 0.74 86.00 1.00 Z"/>
</g>
<g fill="#909BA7" fill-opacity="0.31" stroke="None">
<path d="
M 7.00 3.00 
C 7.94 2.27 9.15 1.72 10.00 1.00
C 8.21 1.68 8.38 1.87 7.00 3.00 Z"/>
</g>
<g fill="#758492" fill-opacity="0.42" stroke="None">
<path d="
M 93.00 8.00 
C 91.56 5.17 88.90 2.50 86.00 1.00
C 87.70 2.22 91.73 6.25 93.00 8.00 Z"/>
</g>
<g fill="#627484" fill-opacity="0.50" stroke="None">
<path d="
M 2.00 8.00 
C 2.83 6.86 5.81 3.92 7.00 3.00
C 4.90 4.72 3.37 5.32 2.00 8.00 Z"/>
</g>
<g fill="#05243B" fill-opacity="0.84" stroke="None">
<path d="
M 0.00 78.00 
C 0.50 78.00 1.00 78.00 1.00 78.00
C 1.00 56.52 -2.25 32.19 1.00 11.00
C 1.00 11.00 0.50 11.00 0.00 11.00
L 0.00 78.00 Z"/>
</g>
<g fill="#05243B" fill-opacity="0.84" stroke="None">
<path d="
M 94.00 78.00 
C 94.27 77.75 95.00 78.00 95.00 78.00
L 95.00 11.00
C 95.00 11.00 94.14 11.23 94.00 11.00
C 97.25 32.19 94.00 56.52 94.00 78.00 Z"/>
</g>
<g fill="#2EA1F6" fill-opacity="1.00" stroke="None">
<path d="
M 30.00 52.00 
C 37.24 52.01 49.04 51.37 51.00 42.00 C 52.96 32.63 48.62 26.09 39.07 23.93 C 29.52 21.76 17.91 22.20 21.00 35.00 C 24.09 47.80 18.69 52.90 21.00 65.00
C 24.00 65.00 27.00 65.00 30.00 65.00
C 30.00 60.67 30.00 56.33 30.00 52.00
M 30.00 44.00 
C 30.00 39.67 30.00 35.33 30.00 31.00
C 45.64 26.14 46.04 49.50 30.00 44.00 Z"/>
</g>
<g fill="#00223B" fill-opacity="1.00" stroke="None">
<path d="
M 30.00 44.00 
C 46.04 49.50 45.64 26.14 30.00 31.00
C 30.00 35.33 30.00 39.67 30.00 44.00 Z"/>
</g>
<g fill="#2FA3F8" fill-opacity="1.00" stroke="None">
<path d="
M 57.00 57.00 
C 55.86 57.73 55.23 62.70 56.00 64.00
C 61.36 65.85 73.02 68.62 76.69 61.69 C 80.37 54.76 77.86 48.15 69.08 45.92 C 60.29 43.70 69.85 35.84 77.00 42.00
C 80.96 29.27 61.46 31.31 56.93 37.93 C 52.40 44.54 57.61 46.38 59.77 50.23 C 61.93 54.08 70.64 51.96 69.90 56.90 C 69.16 61.84 59.34 56.77 57.00 57.00 Z"/>
</g>
<g fill="#176096" fill-opacity="1.00" stroke="None">
<path d="
M 56.00 64.00 
C 55.23 62.70 55.86 57.73 57.00 57.00
C 54.98 57.20 53.35 60.96 56.00 64.00 Z"/>
</g>
<g fill="#929EA7" fill-opacity="0.31" stroke="None">
<path d="
M 0.00 81.00 
C 0.50 81.00 1.00 81.00 1.00 81.00
C 0.89 80.03 1.00 78.97 1.00 78.00
C 1.00 78.00 0.50 78.00 0.00 78.00
L 0.00 81.00 Z"/>
</g>
<g fill="#939EA8" fill-opacity="0.30" stroke="None">
<path d="
M 94.00 81.00 
C 94.14 80.77 95.00 81.00 95.00 81.00
L 95.00 78.00
C 95.00 78.00 94.27 77.75 94.00 78.00
C 94.00 78.97 94.11 80.03 94.00 81.00 Z"/>
</g>
<g fill="#000000" fill-opacity="0.00" stroke="None">
<path d="
M 0.00 92.00 
L 11.00 92.00
C 11.00 91.50 11.00 91.00 11.00 91.00
C 9.71 90.80 9.13 90.62 8.00 90.00
C 5.77 88.78 3.19 86.17 2.00 84.00
C 1.44 82.97 1.13 82.16 1.00 81.00
C 1.00 81.00 0.50 81.00 0.00 81.00
L 0.00 92.00 Z"/>
</g>
<g fill="#000000" fill-opacity="0.00" stroke="None">
<path d="
M 93.00 84.00 
C 91.78 86.23 89.17 88.81 87.00 90.00
C 85.96 90.57 85.16 90.82 84.00 91.00
C 83.77 91.14 84.00 92.00 84.00 92.00
L 95.00 92.00
L 95.00 81.00
C 95.00 81.00 94.14 80.77 94.00 81.00
C 93.86 82.30 93.61 82.88 93.00 84.00 Z"/>
</g>
<g fill="#6E7F8D" fill-opacity="0.44" stroke="None">
<path d="
M 8.00 90.00 
C 6.61 89.00 3.04 85.44 2.00 84.00
C 3.19 86.17 5.77 88.78 8.00 90.00 Z"/>
</g>
<g fill="#6E7F8C" fill-opacity="0.44" stroke="None">
<path d="
M 87.00 90.00 
C 89.17 88.81 91.78 86.23 93.00 84.00
C 92.00 85.39 88.44 88.96 87.00 90.00 Z"/>
</g>
<g fill="#07253D" fill-opacity="0.84" stroke="None">
<path d="
M 11.00 92.00 
L 84.00 92.00
C 84.00 92.00 83.77 91.14 84.00 91.00
C 72.40 92.78 58.71 90.94 47.00 91.00 C 35.29 91.06 22.50 92.76 11.00 91.00
C 11.00 91.00 11.00 91.50 11.00 92.00 Z"/>
</g>
</svg>