<svg xmlns="http://www.w3.org/2000/svg" xmlns:v="https://svgstorm.com"
viewBox = "0 0 102 93"
width="102"
height="93">
<g fill="None" fill-opacity="0.0" stroke="#000000" stroke-opacity="0.00" stroke-width="0.3"><path d="
M 0.00 17.00 
C 0.50 17.00 1.00 17.00 1.00 17.00
C 1.37 9.92 9.93 1.37 17.00 1.00
C 16.75 0.73 17.00 0.00 17.00 0.00
L 0.00 0.00
L 0.00 17.00 Z"/>
</g>
<g fill="None" fill-opacity="0.0" stroke="#98A3FF" stroke-opacity="0.28" stroke-width="0.3"><path d="
M 17.00 1.00 
C 17.99 0.95 19.01 1.00 20.00 1.00
C 20.25 0.73 20.00 0.00 20.00 0.00
L 17.00 0.00
C 17.00 0.00 16.75 0.73 17.00 1.00 Z"/>
</g>
<g fill="None" fill-opacity="0.0" stroke="#4353FF" stroke-opacity="0.61" stroke-width="0.3"><path d="
M 20.00 1.00 
C 40.67 1.00 61.33 1.00 82.00 1.00
C 81.75 0.73 82.00 0.00 82.00 0.00
L 20.00 0.00
C 20.00 0.00 20.25 0.73 20.00 1.00 Z"/>
</g>
<g fill="None" fill-opacity="0.0" stroke="#98A2FF" stroke-opacity="0.28" stroke-width="0.3"><path d="
M 82.00 1.00 
C 82.99 1.00 84.01 0.95 85.00 1.00
C 84.94 0.99 85.00 0.00 85.00 0.00
L 82.00 0.00
C 82.00 0.00 81.75 0.73 82.00 1.00 Z"/>
</g>
<g fill="None" fill-opacity="0.0" stroke="#000000" stroke-opacity="0.00" stroke-width="0.3"><path d="
M 85.00 1.00 
C 92.08 1.37 100.63 9.93 101.00 17.00
C 101.27 16.75 102.00 17.00 102.00 17.00
L 102.00 0.00
L 85.00 0.00
C 85.00 0.00 84.94 0.99 85.00 1.00 Z"/>
</g>
<g fill="None" fill-opacity="0.0" stroke="#4454FF" stroke-opacity="0.99" stroke-width="0.3"><path d="
M 1.00 17.00 
C 0.95 17.99 1.00 19.01 1.00 20.00
C 1.00 37.67 1.00 55.33 1.00 73.00
C 1.00 73.99 0.95 75.01 1.00 76.00
C 1.37 83.08 9.93 91.63 17.00 92.00
C 17.99 92.05 19.01 92.00 20.00 92.00
C 40.67 92.00 61.33 92.00 82.00 92.00
C 82.99 92.00 84.01 92.05 85.00 92.00
C 92.08 91.63 100.63 83.07 101.00 76.00
C 101.05 75.01 101.00 73.99 101.00 73.00
C 101.00 55.33 101.00 37.67 101.00 20.00
C 101.00 19.01 101.05 17.99 101.00 17.00
C 100.63 9.93 92.08 1.37 85.00 1.00
C 84.01 0.95 82.99 1.00 82.00 1.00
C 61.33 1.00 40.67 1.00 20.00 1.00
C 19.01 1.00 17.99 0.95 17.00 1.00
C 9.93 1.37 1.37 9.92 1.00 17.00
M 38.00 40.00 
C 38.51 42.07 38.89 44.36 39.00 47.00
C 39.09 49.21 38.18 52.61 40.00 54.00
C 42.91 44.49 46.01 28.86 59.00 29.00
C 58.17 36.38 61.19 42.76 61.00 50.00
C 61.12 50.35 62.94 51.74 63.00 52.00
C 67.72 44.56 66.14 27.77 80.00 29.00
C 73.57 41.40 73.00 65.05 55.00 66.00
C 53.81 58.72 53.58 50.55 51.00 44.00
C 48.14 52.84 44.33 67.36 32.00 66.00
C 30.66 53.51 28.35 41.26 26.00 29.00
C 31.80 28.56 37.71 34.38 38.00 40.00 Z"/>
</g>
<g fill="None" fill-opacity="0.0" stroke="#98A2FF" stroke-opacity="0.28" stroke-width="0.3"><path d="
M 0.00 20.00 
C 0.50 20.00 1.00 20.00 1.00 20.00
C 1.00 19.01 0.95 17.99 1.00 17.00
C 1.00 17.00 0.50 17.00 0.00 17.00
L 0.00 20.00 Z"/>
</g>
<g fill="None" fill-opacity="0.0" stroke="#99A2FF" stroke-opacity="0.27" stroke-width="0.3"><path d="
M 101.00 20.00 
C 101.27 20.25 102.00 20.00 102.00 20.00
L 102.00 17.00
C 102.00 17.00 101.27 16.75 101.00 17.00
C 101.05 17.99 101.00 19.01 101.00 20.00 Z"/>
</g>
<g fill="None" fill-opacity="0.0" stroke="#4454FF" stroke-opacity="0.61" stroke-width="0.3"><path d="
M 0.00 73.00 
C 0.50 73.00 1.00 73.00 1.00 73.00
C 1.00 55.33 1.00 37.67 1.00 20.00
C 1.00 20.00 0.50 20.00 0.00 20.00
L 0.00 73.00 Z"/>
</g>
<g fill="None" fill-opacity="0.0" stroke="#4454FF" stroke-opacity="0.61" stroke-width="0.3"><path d="
M 101.00 73.00 
C 101.27 72.75 102.00 73.00 102.00 73.00
L 102.00 20.00
C 102.00 20.00 101.27 20.25 101.00 20.00
C 101.00 37.67 101.00 55.33 101.00 73.00 Z"/>
</g>
<g fill="None" fill-opacity="0.0" stroke="#F9FAFF" stroke-opacity="1.00" stroke-width="0.3"><path d="
M 63.00 52.00 
C 63.32 53.45 62.34 54.11 61.00 54.00
C 61.00 52.67 61.00 51.33 61.00 50.00
C 61.19 42.76 58.17 36.38 59.00 29.00
C 46.01 28.86 42.91 44.49 40.00 54.00
C 38.18 52.61 39.09 49.21 39.00 47.00
C 38.81 45.39 38.32 42.13 38.00 40.00
C 37.71 34.38 31.80 28.56 26.00 29.00
C 28.35 41.26 30.66 53.51 32.00 66.00
C 44.33 67.36 48.14 52.84 51.00 44.00
C 53.58 50.55 53.81 58.72 55.00 66.00
C 73.00 65.05 73.57 41.40 80.00 29.00
C 66.14 27.77 67.72 44.56 63.00 52.00 Z"/>
</g>
<g fill="None" fill-opacity="0.0" stroke="#929CFF" stroke-opacity="1.00" stroke-width="0.3"><path d="
M 39.00 47.00 
C 38.89 44.36 38.51 42.07 38.00 40.00
C 38.32 42.13 38.81 45.39 39.00 47.00 Z"/>
</g>
<g fill="None" fill-opacity="0.0" stroke="#A2ABFF" stroke-opacity="1.00" stroke-width="0.3"><path d="
M 63.00 52.00 
C 62.94 51.74 61.12 50.35 61.00 50.00
C 61.00 51.33 61.00 52.67 61.00 54.00
C 62.34 54.11 63.32 53.45 63.00 52.00 Z"/>
</g>
<g fill="None" fill-opacity="0.0" stroke="#97A2FF" stroke-opacity="0.28" stroke-width="0.3"><path d="
M 0.00 76.00 
C 0.50 76.00 1.00 76.00 1.00 76.00
C 0.95 75.01 1.00 73.99 1.00 73.00
C 1.00 73.00 0.50 73.00 0.00 73.00
L 0.00 76.00 Z"/>
</g>
<g fill="None" fill-opacity="0.0" stroke="#97A4FF" stroke-opacity="0.27" stroke-width="0.3"><path d="
M 101.00 76.00 
C 101.01 75.94 102.00 76.00 102.00 76.00
L 102.00 73.00
C 102.00 73.00 101.27 72.75 101.00 73.00
C 101.00 73.99 101.05 75.01 101.00 76.00 Z"/>
</g>
<g fill="None" fill-opacity="0.0" stroke="#000000" stroke-opacity="0.00" stroke-width="0.3"><path d="
M 0.00 93.00 
L 17.00 93.00
C 17.00 92.50 17.00 92.00 17.00 92.00
C 9.93 91.63 1.37 83.08 1.00 76.00
C 1.00 76.00 0.50 76.00 0.00 76.00
L 0.00 93.00 Z"/>
</g>
<g fill="None" fill-opacity="0.0" stroke="#000000" stroke-opacity="0.00" stroke-width="0.3"><path d="
M 85.00 92.00 
C 85.25 92.27 85.00 93.00 85.00 93.00
L 102.00 93.00
L 102.00 76.00
C 102.00 76.00 101.01 75.94 101.00 76.00
C 100.63 83.07 92.08 91.63 85.00 92.00 Z"/>
</g>
<g fill="None" fill-opacity="0.0" stroke="#98A2FF" stroke-opacity="0.28" stroke-width="0.3"><path d="
M 17.00 93.00 
L 20.00 93.00
C 20.00 92.50 20.00 92.00 20.00 92.00
C 19.01 92.00 17.99 92.05 17.00 92.00
C 17.00 92.00 17.00 92.50 17.00 93.00 Z"/>
</g>
<g fill="None" fill-opacity="0.0" stroke="#4353FF" stroke-opacity="0.61" stroke-width="0.3"><path d="
M 20.00 93.00 
L 82.00 93.00
C 82.00 92.50 82.00 92.00 82.00 92.00
C 61.33 92.00 40.67 92.00 20.00 92.00
C 20.00 92.00 20.00 92.50 20.00 93.00 Z"/>
</g>
<g fill="None" fill-opacity="0.0" stroke="#98A3FF" stroke-opacity="0.28" stroke-width="0.3"><path d="
M 82.00 93.00 
L 85.00 93.00
C 85.00 93.00 85.25 92.27 85.00 92.00
C 84.01 92.05 82.99 92.00 82.00 92.00
C 82.00 92.00 82.00 92.50 82.00 93.00 Z"/>
</g>
<g fill="#000000" fill-opacity="0.00" stroke="None">
<path d="
M 0.00 17.00 
C 0.50 17.00 1.00 17.00 1.00 17.00
C 1.37 9.92 9.93 1.37 17.00 1.00
C 16.75 0.73 17.00 0.00 17.00 0.00
L 0.00 0.00
L 0.00 17.00 Z"/>
</g>
<g fill="#98A3FF" fill-opacity="0.28" stroke="None">
<path d="
M 17.00 1.00 
C 17.99 0.95 19.01 1.00 20.00 1.00
C 20.25 0.73 20.00 0.00 20.00 0.00
L 17.00 0.00
C 17.00 0.00 16.75 0.73 17.00 1.00 Z"/>
</g>
<g fill="#4353FF" fill-opacity="0.61" stroke="None">
<path d="
M 20.00 1.00 
C 40.67 1.00 61.33 1.00 82.00 1.00
C 81.75 0.73 82.00 0.00 82.00 0.00
L 20.00 0.00
C 20.00 0.00 20.25 0.73 20.00 1.00 Z"/>
</g>
<g fill="#98A2FF" fill-opacity="0.28" stroke="None">
<path d="
M 82.00 1.00 
C 82.99 1.00 84.01 0.95 85.00 1.00
C 84.94 0.99 85.00 0.00 85.00 0.00
L 82.00 0.00
C 82.00 0.00 81.75 0.73 82.00 1.00 Z"/>
</g>
<g fill="#000000" fill-opacity="0.00" stroke="None">
<path d="
M 85.00 1.00 
C 92.08 1.37 100.63 9.93 101.00 17.00
C 101.27 16.75 102.00 17.00 102.00 17.00
L 102.00 0.00
L 85.00 0.00
C 85.00 0.00 84.94 0.99 85.00 1.00 Z"/>
</g>
<g fill="#4454FF" fill-opacity="0.99" stroke="None">
<path d="
M 1.00 17.00 
C 0.95 17.99 1.00 19.01 1.00 20.00
C 1.00 37.67 1.00 55.33 1.00 73.00
C 1.00 73.99 0.95 75.01 1.00 76.00
C 1.37 83.08 9.93 91.63 17.00 92.00
C 17.99 92.05 19.01 92.00 20.00 92.00
C 40.67 92.00 61.33 92.00 82.00 92.00
C 82.99 92.00 84.01 92.05 85.00 92.00
C 92.08 91.63 100.63 83.07 101.00 76.00
C 101.05 75.01 101.00 73.99 101.00 73.00
C 101.00 55.33 101.00 37.67 101.00 20.00
C 101.00 19.01 101.05 17.99 101.00 17.00
C 100.63 9.93 92.08 1.37 85.00 1.00
C 84.01 0.95 82.99 1.00 82.00 1.00
C 61.33 1.00 40.67 1.00 20.00 1.00
C 19.01 1.00 17.99 0.95 17.00 1.00
C 9.93 1.37 1.37 9.92 1.00 17.00
M 38.00 40.00 
C 38.51 42.07 38.89 44.36 39.00 47.00
C 39.09 49.21 38.18 52.61 40.00 54.00
C 42.91 44.49 46.01 28.86 59.00 29.00
C 58.17 36.38 61.19 42.76 61.00 50.00
C 61.12 50.35 62.94 51.74 63.00 52.00
C 67.72 44.56 66.14 27.77 80.00 29.00
C 73.57 41.40 73.00 65.05 55.00 66.00
C 53.81 58.72 53.58 50.55 51.00 44.00
C 48.14 52.84 44.33 67.36 32.00 66.00
C 30.66 53.51 28.35 41.26 26.00 29.00
C 31.80 28.56 37.71 34.38 38.00 40.00 Z"/>
</g>
<g fill="#98A2FF" fill-opacity="0.28" stroke="None">
<path d="
M 0.00 20.00 
C 0.50 20.00 1.00 20.00 1.00 20.00
C 1.00 19.01 0.95 17.99 1.00 17.00
C 1.00 17.00 0.50 17.00 0.00 17.00
L 0.00 20.00 Z"/>
</g>
<g fill="#99A2FF" fill-opacity="0.27" stroke="None">
<path d="
M 101.00 20.00 
C 101.27 20.25 102.00 20.00 102.00 20.00
L 102.00 17.00
C 102.00 17.00 101.27 16.75 101.00 17.00
C 101.05 17.99 101.00 19.01 101.00 20.00 Z"/>
</g>
<g fill="#4454FF" fill-opacity="0.61" stroke="None">
<path d="
M 0.00 73.00 
C 0.50 73.00 1.00 73.00 1.00 73.00
C 1.00 55.33 1.00 37.67 1.00 20.00
C 1.00 20.00 0.50 20.00 0.00 20.00
L 0.00 73.00 Z"/>
</g>
<g fill="#4454FF" fill-opacity="0.61" stroke="None">
<path d="
M 101.00 73.00 
C 101.27 72.75 102.00 73.00 102.00 73.00
L 102.00 20.00
C 102.00 20.00 101.27 20.25 101.00 20.00
C 101.00 37.67 101.00 55.33 101.00 73.00 Z"/>
</g>
<g fill="#F9FAFF" fill-opacity="1.00" stroke="None">
<path d="
M 63.00 52.00 
C 63.32 53.45 62.34 54.11 61.00 54.00
C 61.00 52.67 61.00 51.33 61.00 50.00
C 61.19 42.76 58.17 36.38 59.00 29.00
C 46.01 28.86 42.91 44.49 40.00 54.00
C 38.18 52.61 39.09 49.21 39.00 47.00
C 38.81 45.39 38.32 42.13 38.00 40.00
C 37.71 34.38 31.80 28.56 26.00 29.00
C 28.35 41.26 30.66 53.51 32.00 66.00
C 44.33 67.36 48.14 52.84 51.00 44.00
C 53.58 50.55 53.81 58.72 55.00 66.00
C 73.00 65.05 73.57 41.40 80.00 29.00
C 66.14 27.77 67.72 44.56 63.00 52.00 Z"/>
</g>
<g fill="#929CFF" fill-opacity="1.00" stroke="None">
<path d="
M 39.00 47.00 
C 38.89 44.36 38.51 42.07 38.00 40.00
C 38.32 42.13 38.81 45.39 39.00 47.00 Z"/>
</g>
<g fill="#A2ABFF" fill-opacity="1.00" stroke="None">
<path d="
M 63.00 52.00 
C 62.94 51.74 61.12 50.35 61.00 50.00
C 61.00 51.33 61.00 52.67 61.00 54.00
C 62.34 54.11 63.32 53.45 63.00 52.00 Z"/>
</g>
<g fill="#97A2FF" fill-opacity="0.28" stroke="None">
<path d="
M 0.00 76.00 
C 0.50 76.00 1.00 76.00 1.00 76.00
C 0.95 75.01 1.00 73.99 1.00 73.00
C 1.00 73.00 0.50 73.00 0.00 73.00
L 0.00 76.00 Z"/>
</g>
<g fill="#97A4FF" fill-opacity="0.27" stroke="None">
<path d="
M 101.00 76.00 
C 101.01 75.94 102.00 76.00 102.00 76.00
L 102.00 73.00
C 102.00 73.00 101.27 72.75 101.00 73.00
C 101.00 73.99 101.05 75.01 101.00 76.00 Z"/>
</g>
<g fill="#000000" fill-opacity="0.00" stroke="None">
<path d="
M 0.00 93.00 
L 17.00 93.00
C 17.00 92.50 17.00 92.00 17.00 92.00
C 9.93 91.63 1.37 83.08 1.00 76.00
C 1.00 76.00 0.50 76.00 0.00 76.00
L 0.00 93.00 Z"/>
</g>
<g fill="#000000" fill-opacity="0.00" stroke="None">
<path d="
M 85.00 92.00 
C 85.25 92.27 85.00 93.00 85.00 93.00
L 102.00 93.00
L 102.00 76.00
C 102.00 76.00 101.01 75.94 101.00 76.00
C 100.63 83.07 92.08 91.63 85.00 92.00 Z"/>
</g>
<g fill="#98A2FF" fill-opacity="0.28" stroke="None">
<path d="
M 17.00 93.00 
L 20.00 93.00
C 20.00 92.50 20.00 92.00 20.00 92.00
C 19.01 92.00 17.99 92.05 17.00 92.00
C 17.00 92.00 17.00 92.50 17.00 93.00 Z"/>
</g>
<g fill="#4353FF" fill-opacity="0.61" stroke="None">
<path d="
M 20.00 93.00 
L 82.00 93.00
C 82.00 92.50 82.00 92.00 82.00 92.00
C 61.33 92.00 40.67 92.00 20.00 92.00
C 20.00 92.00 20.00 92.50 20.00 93.00 Z"/>
</g>
<g fill="#98A3FF" fill-opacity="0.28" stroke="None">
<path d="
M 82.00 93.00 
L 85.00 93.00
C 85.00 93.00 85.25 92.27 85.00 92.00
C 84.01 92.05 82.99 92.00 82.00 92.00
C 82.00 92.00 82.00 92.50 82.00 93.00 Z"/>
</g>
</svg>