<svg xmlns="http://www.w3.org/2000/svg" xmlns:v="https://svgstorm.com"
viewBox = "0 0 1621 1579"
width="1621"
height="1579">
<g fill="None" fill-opacity="0.0" stroke="#000000" stroke-opacity="0.00" stroke-width="0.3"><path d="
M 0.00 257.00 
C 1.01 256.96 0.92 255.68 1.00 255.00
C 4.87 222.15 14.93 185.48 29.92 156.92 C 44.92 128.37 61.10 104.89 83.75 82.75 C 106.40 60.61 129.15 43.46 158.02 30.02 C 186.90 16.59 223.35 0.29 257.00 1.00
C 256.75 0.73 257.00 0.00 257.00 0.00
L 0.00 0.00
L 0.00 257.00 Z"/>
</g>
<g fill="None" fill-opacity="0.0" stroke="#00005B" stroke-opacity="0.41" stroke-width="0.3"><path d="
M 257.00 1.00 
C 258.41 2.51 264.80 0.54 268.00 1.00 C 271.20 1.46 278.38 1.48 281.00 0.00
L 257.00 0.00
C 257.00 0.00 256.75 0.73 257.00 1.00 Z"/>
</g>
<g fill="None" fill-opacity="0.0" stroke="#00025B" stroke-opacity="1.00" stroke-width="0.3"><path d="
M 257.00 1.00 
C 223.35 0.29 186.90 16.59 158.02 30.02 C 129.15 43.46 106.40 60.61 83.75 82.75 C 61.10 104.89 44.92 128.37 29.92 156.92 C 14.93 185.48 4.87 222.15 1.00 255.00
C 1.00 261.43 1.97 271.34 0.00 278.00
L 0.00 1301.00
C -0.72 1305.52 4.95 1318.18 1.00 1322.00
C 0.43 1348.86 12.46 1379.65 21.31 1403.69 C 30.15 1427.74 44.32 1448.09 59.10 1467.90 C 73.88 1487.71 90.72 1504.52 110.70 1519.30 C 130.67 1534.08 150.68 1548.60 174.70 1557.30 C 198.71 1566.01 230.01 1579.00 257.00 1578.00
C 258.40 1576.49 264.81 1578.46 268.00 1578.00 C 271.19 1577.54 278.39 1577.52 281.00 1579.00
L 1340.00 1579.00
C 1345.50 1578.28 1356.42 1575.88 1360.00 1579.00
L 1364.00 1579.00
C 1491.89 1565.93 1612.93 1455.65 1620.00 1323.00
C 1619.60 1316.26 1619.07 1306.83 1621.00 1300.00
L 1621.00 277.00
C 1618.81 270.72 1619.64 262.17 1620.00 256.00
C 1618.21 222.78 1605.44 186.49 1591.23 157.77 C 1577.02 129.05 1560.19 105.51 1537.75 83.25 C 1515.32 60.99 1491.81 43.50 1462.98 30.02 C 1434.14 16.55 1397.62 0.29 1364.00 1.00
C 1362.33 2.74 1356.36 0.47 1353.00 1.00 C 1349.64 1.53 1342.74 1.43 1340.00 0.00
L 281.00 0.00
C 278.38 1.48 271.20 1.46 268.00 1.00 C 264.80 0.54 258.41 2.51 257.00 1.00
M 429.00 425.00 
C 429.00 420.35 428.39 414.87 430.00 411.00
C 434.75 399.60 456.22 408.02 468.00 406.00 C 479.78 403.98 498.69 407.32 512.00 406.00 C 525.31 404.68 540.87 407.48 555.00 406.00 C 569.13 404.52 584.34 408.59 599.00 406.00 C 613.66 403.41 621.29 412.50 623.78 425.22 C 626.26 437.95 631.69 445.47 634.93 457.07 C 638.16 468.68 642.92 478.18 646.77 489.23 C 650.62 500.28 654.01 511.21 657.98 522.02 C 661.94 532.84 665.65 542.84 669.32 553.68 C 672.99 564.52 677.52 575.12 680.98 586.02 C 684.43 596.93 689.23 607.39 692.78 618.22 C 696.32 629.05 700.28 639.26 703.98 650.02 C 707.67 660.79 711.80 671.54 715.77 682.23 C 719.74 692.92 722.94 704.38 726.98 715.02 C 731.01 725.67 734.61 735.93 738.33 746.67 C 742.05 757.41 746.47 768.17 749.98 779.02 C 753.49 789.88 758.13 800.45 761.78 811.22 C 765.42 822.00 769.26 832.27 772.98 843.03 C 776.69 853.78 781.14 864.42 784.78 875.22 C 788.42 886.03 792.58 896.93 796.31 907.69 C 800.03 918.46 803.80 928.51 807.78 939.22 C 811.75 949.94 815.13 961.21 818.98 972.02 C 822.83 982.84 827.27 993.13 830.92 1004.08 C 834.58 1015.03 838.40 1024.82 841.98 1036.02 C 845.55 1047.23 850.66 1056.35 853.78 1068.22 C 856.90 1080.09 862.90 1087.53 865.32 1100.68 C 867.74 1113.82 845.89 1111.59 834.00 1111.00 C 822.11 1110.41 802.62 1111.67 790.00 1111.00 C 777.38 1110.33 757.99 1112.21 746.00 1111.00 C 734.01 1109.79 714.96 1115.76 708.08 1105.92 C 701.21 1096.08 700.94 1084.33 696.22 1073.78 C 691.51 1063.22 689.41 1051.54 685.08 1040.92 C 680.74 1030.31 678.36 1019.58 674.08 1008.92 C 669.80 998.27 667.17 986.70 663.07 975.93 C 658.98 965.15 655.53 954.02 652.00 943.00
C 639.22 946.98 623.61 944.55 609.00 945.00 C 594.39 945.45 578.82 944.87 564.00 945.00 C 549.18 945.13 533.91 945.11 519.00 945.00 C 504.09 944.89 488.95 945.42 474.00 945.00 C 459.05 944.58 442.84 945.98 428.00 945.00 C 413.16 944.02 398.07 942.94 395.68 957.68 C 393.29 972.42 387.75 978.66 384.68 991.68 C 381.60 1004.70 377.09 1013.25 373.68 1025.68 C 370.27 1038.11 366.05 1047.33 363.01 1060.01 C 359.96 1072.69 353.67 1080.89 351.68 1094.68 C 349.69 1108.47 339.45 1115.11 325.00 1113.00 C 310.55 1110.89 293.95 1113.81 280.00 1113.00 C 266.05 1112.19 247.76 1113.06 235.00 1113.00 C 222.24 1112.94 198.42 1116.66 201.00 1102.00 C 203.58 1087.34 209.80 1080.78 212.93 1067.93 C 216.05 1055.07 221.20 1046.65 224.78 1034.78 C 228.35 1022.90 232.50 1012.76 236.31 1001.31 C 240.11 989.85 244.23 979.30 247.93 967.93 C 251.62 956.56 256.09 946.11 259.78 934.78 C 263.46 923.44 267.62 911.90 271.77 900.77 C 275.92 889.64 278.82 878.05 282.98 866.98 C 287.13 855.90 290.88 845.01 294.92 833.92 C 298.97 822.83 302.27 811.44 306.32 800.32 C 310.37 789.21 314.12 778.19 317.98 766.98 C 321.83 755.76 326.13 744.16 329.93 732.93 C 333.72 721.69 337.77 710.91 341.78 699.78 C 345.78 688.64 349.15 677.14 352.99 665.99 C 356.83 654.84 361.31 644.18 364.93 632.93 C 368.54 621.68 372.76 610.96 376.78 599.78 C 380.79 588.60 384.18 576.50 388.32 565.32 C 392.47 554.14 396.05 543.29 399.98 531.98 C 403.90 520.66 407.66 510.18 411.78 498.78 C 415.90 487.37 418.93 476.80 422.98 464.98 C 427.02 453.15 429.46 438.25 429.00 425.00
M 1193.00 1001.00 
C 1198.67 1001.00 1204.33 1001.00 1210.00 1001.00
C 1254.60 1001.00 1298.44 992.29 1339.00 977.00
C 1339.55 978.46 1341.40 979.18 1341.00 981.00
C 1344.98 991.20 1341.02 1004.50 1342.00 1016.00 C 1342.98 1027.50 1341.82 1041.28 1342.00 1053.00 C 1342.18 1064.72 1342.95 1078.12 1341.00 1089.00
C 1339.74 1107.52 1312.88 1106.33 1297.98 1112.98 C 1283.07 1119.62 1259.00 1120.64 1241.00 1124.00 C 1223.00 1127.36 1197.90 1127.94 1178.00 1128.00 C 1158.10 1128.06 1132.73 1127.12 1113.93 1124.07 C 1095.13 1121.03 1075.77 1117.44 1058.93 1111.07 C 1042.08 1104.70 1027.88 1098.91 1013.30 1089.70 C 998.73 1080.49 987.68 1071.66 975.25 1059.75 C 962.82 1047.85 953.41 1036.95 944.08 1022.92 C 934.75 1008.88 926.69 996.09 920.22 979.78 C 913.76 963.46 907.93 946.01 904.07 927.93 C 900.22 909.84 897.00 886.47 897.00 867.00
C 896.03 856.94 896.03 844.99 897.00 835.00
C 897.00 818.29 900.41 799.11 903.33 783.33 C 906.25 767.55 911.51 751.96 916.32 737.32 C 921.13 722.69 927.78 709.77 934.77 696.77 C 941.76 683.77 949.21 672.55 958.25 661.25 C 967.29 649.95 975.32 640.19 986.25 630.25 C 997.18 620.30 1007.09 612.50 1019.70 604.70 C 1032.31 596.89 1043.54 589.42 1058.22 584.22 C 1072.91 579.03 1088.67 574.41 1105.07 572.07 C 1121.48 569.74 1143.70 569.10 1161.00 569.00 C 1178.30 568.90 1199.17 570.47 1215.00 574.00 C 1230.84 577.52 1245.63 582.33 1259.69 588.31 C 1273.76 594.28 1285.89 600.64 1297.70 609.30 C 1309.51 617.96 1319.02 626.04 1328.75 637.25 C 1338.48 648.45 1345.22 659.15 1352.92 672.08 C 1360.61 685.01 1366.47 697.32 1371.78 712.22 C 1377.09 727.12 1380.88 742.50 1383.78 759.22 C 1386.68 775.95 1387.30 796.55 1387.00 815.00 C 1386.70 833.45 1385.95 851.66 1383.22 870.22 C 1380.49 888.78 1356.79 883.41 1339.99 885.99 C 1323.19 888.58 1301.85 886.31 1284.00 885.00 C 1266.15 883.69 1244.97 883.94 1226.00 884.00 C 1207.03 884.06 1186.34 883.97 1167.00 884.00 C 1147.66 884.03 1127.50 883.99 1108.00 884.00 C 1088.50 884.01 1068.54 883.99 1049.00 884.00
C 1053.89 916.14 1065.37 948.95 1093.25 969.75 C 1121.13 990.56 1158.18 999.38 1193.00 1001.00 Z"/>
</g>
<g fill="None" fill-opacity="0.0" stroke="#00005C" stroke-opacity="0.42" stroke-width="0.3"><path d="
M 1364.00 1.00 
C 1364.25 0.74 1364.00 0.00 1364.00 0.00
L 1340.00 0.00
C 1342.74 1.43 1349.64 1.53 1353.00 1.00 C 1356.36 0.47 1362.33 2.74 1364.00 1.00 Z"/>
</g>
<g fill="None" fill-opacity="0.0" stroke="#000000" stroke-opacity="0.00" stroke-width="0.3"><path d="
M 1364.00 1.00 
C 1397.62 0.29 1434.14 16.55 1462.98 30.02 C 1491.81 43.50 1515.32 60.99 1537.75 83.25 C 1560.19 105.51 1577.02 129.05 1591.23 157.77 C 1605.44 186.49 1618.21 222.78 1620.00 256.00
C 1620.02 256.34 1620.67 256.84 1621.00 257.00
L 1621.00 0.00
L 1364.00 0.00
C 1364.00 0.00 1364.25 0.74 1364.00 1.00 Z"/>
</g>
<g fill="None" fill-opacity="0.0" stroke="#000059" stroke-opacity="0.38" stroke-width="0.3"><path d="
M 0.00 257.00 
L 0.00 278.00
C 1.97 271.34 1.00 261.43 1.00 255.00
C 0.92 255.68 1.01 256.96 0.00 257.00 Z"/>
</g>
<g fill="None" fill-opacity="0.0" stroke="#00005A" stroke-opacity="0.43" stroke-width="0.3"><path d="
M 1621.00 277.00 
L 1621.00 257.00
C 1620.67 256.84 1620.02 256.34 1620.00 256.00
C 1619.64 262.17 1618.81 270.72 1621.00 277.00 Z"/>
</g>
<g fill="None" fill-opacity="0.0" stroke="#9999FE" stroke-opacity="1.00" stroke-width="0.3"><path d="
M 430.00 411.00 
C 429.02 414.79 429.33 421.63 429.00 425.00
C 429.46 438.25 427.02 453.15 422.98 464.98 C 418.93 476.80 415.90 487.37 411.78 498.78 C 407.66 510.18 403.90 520.66 399.98 531.98 C 396.05 543.29 392.47 554.14 388.32 565.32 C 384.18 576.50 380.79 588.60 376.78 599.78 C 372.76 610.96 368.54 621.68 364.93 632.93 C 361.31 644.18 356.83 654.84 352.99 665.99 C 349.15 677.14 345.78 688.64 341.78 699.78 C 337.77 710.91 333.72 721.69 329.93 732.93 C 326.13 744.16 321.83 755.76 317.98 766.98 C 314.12 778.19 310.37 789.21 306.32 800.32 C 302.27 811.44 298.97 822.83 294.92 833.92 C 290.88 845.01 287.13 855.90 282.98 866.98 C 278.82 878.05 275.92 889.64 271.77 900.77 C 267.62 911.90 263.46 923.44 259.78 934.78 C 256.09 946.11 251.62 956.56 247.93 967.93 C 244.23 979.30 240.11 989.85 236.31 1001.31 C 232.50 1012.76 228.35 1022.90 224.78 1034.78 C 221.20 1046.65 216.05 1055.07 212.93 1067.93 C 209.80 1080.78 203.58 1087.34 201.00 1102.00 C 198.42 1116.66 222.24 1112.94 235.00 1113.00 C 247.76 1113.06 266.05 1112.19 280.00 1113.00 C 293.95 1113.81 310.55 1110.89 325.00 1113.00 C 339.45 1115.11 349.69 1108.47 351.68 1094.68 C 353.67 1080.89 359.96 1072.69 363.01 1060.01 C 366.05 1047.33 370.27 1038.11 373.68 1025.68 C 377.09 1013.25 381.60 1004.70 384.68 991.68 C 387.75 978.66 393.29 972.42 395.68 957.68 C 398.07 942.94 413.16 944.02 428.00 945.00 C 442.84 945.98 459.05 944.58 474.00 945.00 C 488.95 945.42 504.09 944.89 519.00 945.00 C 533.91 945.11 549.18 945.13 564.00 945.00 C 578.82 944.87 594.39 945.45 609.00 945.00 C 623.61 944.55 639.22 946.98 652.00 943.00
C 655.53 954.02 658.98 965.15 663.07 975.93 C 667.17 986.70 669.80 998.27 674.08 1008.92 C 678.36 1019.58 680.74 1030.31 685.08 1040.92 C 689.41 1051.54 691.51 1063.22 696.22 1073.78 C 700.94 1084.33 701.21 1096.08 708.08 1105.92 C 714.96 1115.76 734.01 1109.79 746.00 1111.00 C 757.99 1112.21 777.38 1110.33 790.00 1111.00 C 802.62 1111.67 822.11 1110.41 834.00 1111.00 C 845.89 1111.59 867.74 1113.82 865.32 1100.68 C 862.90 1087.53 856.90 1080.09 853.78 1068.22 C 850.66 1056.35 845.55 1047.23 841.98 1036.02 C 838.40 1024.82 834.58 1015.03 830.92 1004.08 C 827.27 993.13 822.83 982.84 818.98 972.02 C 815.13 961.21 811.75 949.94 807.78 939.22 C 803.80 928.51 800.03 918.46 796.31 907.69 C 792.58 896.93 788.42 886.03 784.78 875.22 C 781.14 864.42 776.69 853.78 772.98 843.03 C 769.26 832.27 765.42 822.00 761.78 811.22 C 758.13 800.45 753.49 789.88 749.98 779.02 C 746.47 768.17 742.05 757.41 738.33 746.67 C 734.61 735.93 731.01 725.67 726.98 715.02 C 722.94 704.38 719.74 692.92 715.77 682.23 C 711.80 671.54 707.67 660.79 703.98 650.02 C 700.28 639.26 696.32 629.05 692.78 618.22 C 689.23 607.39 684.43 596.93 680.98 586.02 C 677.52 575.12 672.99 564.52 669.32 553.68 C 665.65 542.84 661.94 532.84 657.98 522.02 C 654.01 511.21 650.62 500.28 646.77 489.23 C 642.92 478.18 638.16 468.68 634.93 457.07 C 631.69 445.47 626.26 437.95 623.78 425.22 C 621.29 412.50 613.66 403.41 599.00 406.00 C 584.34 408.59 569.13 404.52 555.00 406.00 C 540.87 407.48 525.31 404.68 512.00 406.00 C 498.69 407.32 479.78 403.98 468.00 406.00 C 456.22 408.02 434.75 399.60 430.00 411.00
M 610.00 810.00 
C 553.00 810.00 496.00 810.00 439.00 810.00
C 469.11 717.02 499.57 623.99 523.00 529.00
C 550.83 622.26 581.00 716.45 610.00 810.00 Z"/>
</g>
<g fill="None" fill-opacity="0.0" stroke="#4344A7" stroke-opacity="1.00" stroke-width="0.3"><path d="
M 429.00 425.00 
C 429.33 421.63 429.02 414.79 430.00 411.00
C 428.39 414.87 429.00 420.35 429.00 425.00 Z"/>
</g>
<g fill="None" fill-opacity="0.0" stroke="#00005B" stroke-opacity="1.00" stroke-width="0.3"><path d="
M 610.00 810.00 
C 581.00 716.45 550.83 622.26 523.00 529.00
C 499.57 623.99 469.11 717.02 439.00 810.00
C 496.00 810.00 553.00 810.00 610.00 810.00 Z"/>
</g>
<g fill="None" fill-opacity="0.0" stroke="#9999FE" stroke-opacity="1.00" stroke-width="0.3"><path d="
M 897.00 835.00 
C 897.00 845.67 897.00 856.33 897.00 867.00
C 897.00 886.47 900.22 909.84 904.07 927.93 C 907.93 946.01 913.76 963.46 920.22 979.78 C 926.69 996.09 934.75 1008.88 944.08 1022.92 C 953.41 1036.95 962.82 1047.85 975.25 1059.75 C 987.68 1071.66 998.73 1080.49 1013.30 1089.70 C 1027.88 1098.91 1042.08 1104.70 1058.93 1111.07 C 1075.77 1117.44 1095.13 1121.03 1113.93 1124.07 C 1132.73 1127.12 1158.10 1128.06 1178.00 1128.00 C 1197.90 1127.94 1223.00 1127.36 1241.00 1124.00 C 1259.00 1120.64 1283.07 1119.62 1297.98 1112.98 C 1312.88 1106.33 1339.74 1107.52 1341.00 1089.00
C 1341.80 1077.21 1341.08 1064.79 1341.00 1053.00 C 1340.92 1041.21 1342.02 1028.67 1341.00 1017.00 C 1339.98 1005.33 1343.63 992.31 1341.00 981.00
C 1341.40 979.18 1339.55 978.46 1339.00 977.00
C 1298.44 992.29 1254.60 1001.00 1210.00 1001.00
C 1204.65 1001.52 1198.28 1001.51 1193.00 1001.00
C 1158.18 999.38 1121.13 990.56 1093.25 969.75 C 1065.37 948.95 1053.89 916.14 1049.00 884.00
C 1068.54 883.99 1088.50 884.01 1108.00 884.00 C 1127.50 883.99 1147.66 884.03 1167.00 884.00 C 1186.34 883.97 1207.03 884.06 1226.00 884.00 C 1244.97 883.94 1266.15 883.69 1284.00 885.00 C 1301.85 886.31 1323.19 888.58 1339.99 885.99 C 1356.79 883.41 1380.49 888.78 1383.22 870.22 C 1385.95 851.66 1386.70 833.45 1387.00 815.00 C 1387.30 796.55 1386.68 775.95 1383.78 759.22 C 1380.88 742.50 1377.09 727.12 1371.78 712.22 C 1366.47 697.32 1360.61 685.01 1352.92 672.08 C 1345.22 659.15 1338.48 648.45 1328.75 637.25 C 1319.02 626.04 1309.51 617.96 1297.70 609.30 C 1285.89 600.64 1273.76 594.28 1259.69 588.31 C 1245.63 582.33 1230.84 577.52 1215.00 574.00 C 1199.17 570.47 1178.30 568.90 1161.00 569.00 C 1143.70 569.10 1121.48 569.74 1105.07 572.07 C 1088.67 574.41 1072.91 579.03 1058.22 584.22 C 1043.54 589.42 1032.31 596.89 1019.70 604.70 C 1007.09 612.50 997.18 620.30 986.25 630.25 C 975.32 640.19 967.29 649.95 958.25 661.25 C 949.21 672.55 941.76 683.77 934.77 696.77 C 927.78 709.77 921.13 722.69 916.32 737.32 C 911.51 751.96 906.25 767.55 903.33 783.33 C 900.41 799.11 897.00 818.29 897.00 835.00
M 1162.00 686.00 
C 1173.56 686.00 1185.38 689.67 1195.23 694.77 C 1205.07 699.87 1211.94 703.61 1219.75 712.25 C 1227.56 720.89 1232.58 726.09 1237.77 737.23 C 1242.96 748.37 1244.43 757.84 1245.00 772.00 C 1245.57 786.16 1226.86 785.00 1215.00 785.00
C 1208.90 785.59 1201.85 786.39 1195.00 786.00 C 1188.15 785.61 1180.91 786.19 1174.00 786.00 C 1167.09 785.81 1159.91 786.13 1153.00 786.00 C 1146.09 785.87 1138.84 786.14 1132.00 786.00 C 1125.16 785.86 1117.67 786.26 1111.00 786.00 C 1104.33 785.74 1096.28 786.55 1090.00 786.00 C 1083.72 785.45 1074.40 787.20 1069.00 786.00 C 1063.60 784.80 1051.77 789.13 1049.00 785.00
C 1045.99 780.51 1052.85 770.15 1052.93 764.93 C 1053.00 759.70 1057.10 752.14 1058.93 746.93 C 1060.75 741.71 1064.17 735.88 1066.92 730.92 C 1069.68 725.97 1073.54 721.69 1077.25 717.25 C 1080.96 712.81 1085.25 709.36 1089.75 705.75 C 1094.24 702.13 1098.70 698.67 1104.23 696.23 C 1109.76 693.79 1114.98 690.87 1121.08 689.08 C 1127.17 687.28 1135.25 686.00 1142.00 686.00
C 1148.29 685.39 1155.77 685.40 1162.00 686.00 Z"/>
</g>
<g fill="None" fill-opacity="0.0" stroke="#4747AB" stroke-opacity="1.00" stroke-width="0.3"><path d="
M 1142.00 686.00 
C 1148.67 686.00 1155.33 686.00 1162.00 686.00
C 1155.77 685.40 1148.29 685.39 1142.00 686.00 Z"/>
</g>
<g fill="None" fill-opacity="0.0" stroke="#00005B" stroke-opacity="1.00" stroke-width="0.3"><path d="
M 1049.00 785.00 
C 1104.33 785.00 1159.67 785.00 1215.00 785.00
C 1226.86 785.00 1245.57 786.16 1245.00 772.00 C 1244.43 757.84 1242.96 748.37 1237.77 737.23 C 1232.58 726.09 1227.56 720.89 1219.75 712.25 C 1211.94 703.61 1205.07 699.87 1195.23 694.77 C 1185.38 689.67 1173.56 686.00 1162.00 686.00
C 1155.33 686.00 1148.67 686.00 1142.00 686.00
C 1135.25 686.00 1127.17 687.28 1121.08 689.08 C 1114.98 690.87 1109.76 693.79 1104.23 696.23 C 1098.70 698.67 1094.24 702.13 1089.75 705.75 C 1085.25 709.36 1080.96 712.81 1077.25 717.25 C 1073.54 721.69 1069.68 725.97 1066.92 730.92 C 1064.17 735.88 1060.75 741.71 1058.93 746.93 C 1057.10 752.14 1053.00 759.70 1052.93 764.93 C 1052.85 770.15 1045.99 780.51 1049.00 785.00 Z"/>
</g>
<g fill="None" fill-opacity="0.0" stroke="#4949AD" stroke-opacity="1.00" stroke-width="0.3"><path d="
M 1215.00 785.00 
C 1159.67 785.00 1104.33 785.00 1049.00 785.00
C 1051.77 789.13 1063.60 784.80 1069.00 786.00 C 1074.40 787.20 1083.72 785.45 1090.00 786.00 C 1096.28 786.55 1104.33 785.74 1111.00 786.00 C 1117.67 786.26 1125.16 785.86 1132.00 786.00 C 1138.84 786.14 1146.09 785.87 1153.00 786.00 C 1159.91 786.13 1167.09 785.81 1174.00 786.00 C 1180.91 786.19 1188.15 785.61 1195.00 786.00 C 1201.85 786.39 1208.90 785.59 1215.00 785.00 Z"/>
</g>
<g fill="None" fill-opacity="0.0" stroke="#4F50B3" stroke-opacity="1.00" stroke-width="0.3"><path d="
M 897.00 867.00 
C 897.00 856.33 897.00 845.67 897.00 835.00
C 896.03 844.99 896.03 856.94 897.00 867.00 Z"/>
</g>
<g fill="None" fill-opacity="0.0" stroke="#4242A3" stroke-opacity="1.00" stroke-width="0.3"><path d="
M 1341.00 1089.00 
C 1342.95 1078.12 1342.18 1064.72 1342.00 1053.00 C 1341.82 1041.28 1342.98 1027.50 1342.00 1016.00 C 1341.02 1004.50 1344.98 991.20 1341.00 981.00
C 1343.63 992.31 1339.98 1005.33 1341.00 1017.00 C 1342.02 1028.67 1340.92 1041.21 1341.00 1053.00 C 1341.08 1064.79 1341.80 1077.21 1341.00 1089.00 Z"/>
</g>
<g fill="None" fill-opacity="0.0" stroke="#5656BB" stroke-opacity="1.00" stroke-width="0.3"><path d="
M 1210.00 1001.00 
C 1204.33 1001.00 1198.67 1001.00 1193.00 1001.00
C 1198.28 1001.51 1204.65 1001.52 1210.00 1001.00 Z"/>
</g>
<g fill="None" fill-opacity="0.0" stroke="#00005B" stroke-opacity="0.44" stroke-width="0.3"><path d="
M 1620.00 1323.00 
C 1620.02 1322.66 1620.67 1322.17 1621.00 1322.00
L 1621.00 1300.00
C 1619.07 1306.83 1619.60 1316.26 1620.00 1323.00 Z"/>
</g>
<g fill="None" fill-opacity="0.0" stroke="#00005A" stroke-opacity="0.45" stroke-width="0.3"><path d="
M 0.00 1322.00 
C 0.50 1322.00 1.00 1322.00 1.00 1322.00
C 4.95 1318.18 -0.72 1305.52 0.00 1301.00
L 0.00 1322.00 Z"/>
</g>
<g fill="None" fill-opacity="0.0" stroke="#000000" stroke-opacity="0.00" stroke-width="0.3"><path d="
M 0.00 1579.00 
L 257.00 1579.00
C 257.00 1578.50 257.00 1578.00 257.00 1578.00
C 230.01 1579.00 198.71 1566.01 174.70 1557.30 C 150.68 1548.60 130.67 1534.08 110.70 1519.30 C 90.72 1504.52 73.88 1487.71 59.10 1467.90 C 44.32 1448.09 30.15 1427.74 21.31 1403.69 C 12.46 1379.65 0.43 1348.86 1.00 1322.00
C 1.00 1322.00 0.50 1322.00 0.00 1322.00
L 0.00 1579.00 Z"/>
</g>
<g fill="None" fill-opacity="0.0" stroke="#000000" stroke-opacity="0.00" stroke-width="0.3"><path d="
M 1620.00 1323.00 
C 1612.93 1455.65 1491.89 1565.93 1364.00 1579.00
L 1621.00 1579.00
L 1621.00 1322.00
C 1620.67 1322.17 1620.02 1322.66 1620.00 1323.00 Z"/>
</g>
<g fill="None" fill-opacity="0.0" stroke="#00005B" stroke-opacity="0.40" stroke-width="0.3"><path d="
M 257.00 1578.00 
C 257.00 1578.00 257.00 1578.50 257.00 1579.00
L 281.00 1579.00
C 278.39 1577.52 271.19 1577.54 268.00 1578.00 C 264.81 1578.46 258.40 1576.49 257.00 1578.00 Z"/>
</g>
<g fill="None" fill-opacity="0.0" stroke="#00005B" stroke-opacity="0.53" stroke-width="0.3"><path d="
M 1340.00 1579.00 
L 1360.00 1579.00
C 1356.42 1575.88 1345.50 1578.28 1340.00 1579.00 Z"/>
</g>
<g fill="#000000" fill-opacity="0.00" stroke="None">
<path d="
M 0.00 257.00 
C 1.01 256.96 0.92 255.68 1.00 255.00
C 4.87 222.15 14.93 185.48 29.92 156.92 C 44.92 128.37 61.10 104.89 83.75 82.75 C 106.40 60.61 129.15 43.46 158.02 30.02 C 186.90 16.59 223.35 0.29 257.00 1.00
C 256.75 0.73 257.00 0.00 257.00 0.00
L 0.00 0.00
L 0.00 257.00 Z"/>
</g>
<g fill="#00005B" fill-opacity="0.41" stroke="None">
<path d="
M 257.00 1.00 
C 258.41 2.51 264.80 0.54 268.00 1.00 C 271.20 1.46 278.38 1.48 281.00 0.00
L 257.00 0.00
C 257.00 0.00 256.75 0.73 257.00 1.00 Z"/>
</g>
<g fill="#00025B" fill-opacity="1.00" stroke="None">
<path d="
M 257.00 1.00 
C 223.35 0.29 186.90 16.59 158.02 30.02 C 129.15 43.46 106.40 60.61 83.75 82.75 C 61.10 104.89 44.92 128.37 29.92 156.92 C 14.93 185.48 4.87 222.15 1.00 255.00
C 1.00 261.43 1.97 271.34 0.00 278.00
L 0.00 1301.00
C -0.72 1305.52 4.95 1318.18 1.00 1322.00
C 0.43 1348.86 12.46 1379.65 21.31 1403.69 C 30.15 1427.74 44.32 1448.09 59.10 1467.90 C 73.88 1487.71 90.72 1504.52 110.70 1519.30 C 130.67 1534.08 150.68 1548.60 174.70 1557.30 C 198.71 1566.01 230.01 1579.00 257.00 1578.00
C 258.40 1576.49 264.81 1578.46 268.00 1578.00 C 271.19 1577.54 278.39 1577.52 281.00 1579.00
L 1340.00 1579.00
C 1345.50 1578.28 1356.42 1575.88 1360.00 1579.00
L 1364.00 1579.00
C 1491.89 1565.93 1612.93 1455.65 1620.00 1323.00
C 1619.60 1316.26 1619.07 1306.83 1621.00 1300.00
L 1621.00 277.00
C 1618.81 270.72 1619.64 262.17 1620.00 256.00
C 1618.21 222.78 1605.44 186.49 1591.23 157.77 C 1577.02 129.05 1560.19 105.51 1537.75 83.25 C 1515.32 60.99 1491.81 43.50 1462.98 30.02 C 1434.14 16.55 1397.62 0.29 1364.00 1.00
C 1362.33 2.74 1356.36 0.47 1353.00 1.00 C 1349.64 1.53 1342.74 1.43 1340.00 0.00
L 281.00 0.00
C 278.38 1.48 271.20 1.46 268.00 1.00 C 264.80 0.54 258.41 2.51 257.00 1.00
M 429.00 425.00 
C 429.00 420.35 428.39 414.87 430.00 411.00
C 434.75 399.60 456.22 408.02 468.00 406.00 C 479.78 403.98 498.69 407.32 512.00 406.00 C 525.31 404.68 540.87 407.48 555.00 406.00 C 569.13 404.52 584.34 408.59 599.00 406.00 C 613.66 403.41 621.29 412.50 623.78 425.22 C 626.26 437.95 631.69 445.47 634.93 457.07 C 638.16 468.68 642.92 478.18 646.77 489.23 C 650.62 500.28 654.01 511.21 657.98 522.02 C 661.94 532.84 665.65 542.84 669.32 553.68 C 672.99 564.52 677.52 575.12 680.98 586.02 C 684.43 596.93 689.23 607.39 692.78 618.22 C 696.32 629.05 700.28 639.26 703.98 650.02 C 707.67 660.79 711.80 671.54 715.77 682.23 C 719.74 692.92 722.94 704.38 726.98 715.02 C 731.01 725.67 734.61 735.93 738.33 746.67 C 742.05 757.41 746.47 768.17 749.98 779.02 C 753.49 789.88 758.13 800.45 761.78 811.22 C 765.42 822.00 769.26 832.27 772.98 843.03 C 776.69 853.78 781.14 864.42 784.78 875.22 C 788.42 886.03 792.58 896.93 796.31 907.69 C 800.03 918.46 803.80 928.51 807.78 939.22 C 811.75 949.94 815.13 961.21 818.98 972.02 C 822.83 982.84 827.27 993.13 830.92 1004.08 C 834.58 1015.03 838.40 1024.82 841.98 1036.02 C 845.55 1047.23 850.66 1056.35 853.78 1068.22 C 856.90 1080.09 862.90 1087.53 865.32 1100.68 C 867.74 1113.82 845.89 1111.59 834.00 1111.00 C 822.11 1110.41 802.62 1111.67 790.00 1111.00 C 777.38 1110.33 757.99 1112.21 746.00 1111.00 C 734.01 1109.79 714.96 1115.76 708.08 1105.92 C 701.21 1096.08 700.94 1084.33 696.22 1073.78 C 691.51 1063.22 689.41 1051.54 685.08 1040.92 C 680.74 1030.31 678.36 1019.58 674.08 1008.92 C 669.80 998.27 667.17 986.70 663.07 975.93 C 658.98 965.15 655.53 954.02 652.00 943.00
C 639.22 946.98 623.61 944.55 609.00 945.00 C 594.39 945.45 578.82 944.87 564.00 945.00 C 549.18 945.13 533.91 945.11 519.00 945.00 C 504.09 944.89 488.95 945.42 474.00 945.00 C 459.05 944.58 442.84 945.98 428.00 945.00 C 413.16 944.02 398.07 942.94 395.68 957.68 C 393.29 972.42 387.75 978.66 384.68 991.68 C 381.60 1004.70 377.09 1013.25 373.68 1025.68 C 370.27 1038.11 366.05 1047.33 363.01 1060.01 C 359.96 1072.69 353.67 1080.89 351.68 1094.68 C 349.69 1108.47 339.45 1115.11 325.00 1113.00 C 310.55 1110.89 293.95 1113.81 280.00 1113.00 C 266.05 1112.19 247.76 1113.06 235.00 1113.00 C 222.24 1112.94 198.42 1116.66 201.00 1102.00 C 203.58 1087.34 209.80 1080.78 212.93 1067.93 C 216.05 1055.07 221.20 1046.65 224.78 1034.78 C 228.35 1022.90 232.50 1012.76 236.31 1001.31 C 240.11 989.85 244.23 979.30 247.93 967.93 C 251.62 956.56 256.09 946.11 259.78 934.78 C 263.46 923.44 267.62 911.90 271.77 900.77 C 275.92 889.64 278.82 878.05 282.98 866.98 C 287.13 855.90 290.88 845.01 294.92 833.92 C 298.97 822.83 302.27 811.44 306.32 800.32 C 310.37 789.21 314.12 778.19 317.98 766.98 C 321.83 755.76 326.13 744.16 329.93 732.93 C 333.72 721.69 337.77 710.91 341.78 699.78 C 345.78 688.64 349.15 677.14 352.99 665.99 C 356.83 654.84 361.31 644.18 364.93 632.93 C 368.54 621.68 372.76 610.96 376.78 599.78 C 380.79 588.60 384.18 576.50 388.32 565.32 C 392.47 554.14 396.05 543.29 399.98 531.98 C 403.90 520.66 407.66 510.18 411.78 498.78 C 415.90 487.37 418.93 476.80 422.98 464.98 C 427.02 453.15 429.46 438.25 429.00 425.00
M 1193.00 1001.00 
C 1198.67 1001.00 1204.33 1001.00 1210.00 1001.00
C 1254.60 1001.00 1298.44 992.29 1339.00 977.00
C 1339.55 978.46 1341.40 979.18 1341.00 981.00
C 1344.98 991.20 1341.02 1004.50 1342.00 1016.00 C 1342.98 1027.50 1341.82 1041.28 1342.00 1053.00 C 1342.18 1064.72 1342.95 1078.12 1341.00 1089.00
C 1339.74 1107.52 1312.88 1106.33 1297.98 1112.98 C 1283.07 1119.62 1259.00 1120.64 1241.00 1124.00 C 1223.00 1127.36 1197.90 1127.94 1178.00 1128.00 C 1158.10 1128.06 1132.73 1127.12 1113.93 1124.07 C 1095.13 1121.03 1075.77 1117.44 1058.93 1111.07 C 1042.08 1104.70 1027.88 1098.91 1013.30 1089.70 C 998.73 1080.49 987.68 1071.66 975.25 1059.75 C 962.82 1047.85 953.41 1036.95 944.08 1022.92 C 934.75 1008.88 926.69 996.09 920.22 979.78 C 913.76 963.46 907.93 946.01 904.07 927.93 C 900.22 909.84 897.00 886.47 897.00 867.00
C 896.03 856.94 896.03 844.99 897.00 835.00
C 897.00 818.29 900.41 799.11 903.33 783.33 C 906.25 767.55 911.51 751.96 916.32 737.32 C 921.13 722.69 927.78 709.77 934.77 696.77 C 941.76 683.77 949.21 672.55 958.25 661.25 C 967.29 649.95 975.32 640.19 986.25 630.25 C 997.18 620.30 1007.09 612.50 1019.70 604.70 C 1032.31 596.89 1043.54 589.42 1058.22 584.22 C 1072.91 579.03 1088.67 574.41 1105.07 572.07 C 1121.48 569.74 1143.70 569.10 1161.00 569.00 C 1178.30 568.90 1199.17 570.47 1215.00 574.00 C 1230.84 577.52 1245.63 582.33 1259.69 588.31 C 1273.76 594.28 1285.89 600.64 1297.70 609.30 C 1309.51 617.96 1319.02 626.04 1328.75 637.25 C 1338.48 648.45 1345.22 659.15 1352.92 672.08 C 1360.61 685.01 1366.47 697.32 1371.78 712.22 C 1377.09 727.12 1380.88 742.50 1383.78 759.22 C 1386.68 775.95 1387.30 796.55 1387.00 815.00 C 1386.70 833.45 1385.95 851.66 1383.22 870.22 C 1380.49 888.78 1356.79 883.41 1339.99 885.99 C 1323.19 888.58 1301.85 886.31 1284.00 885.00 C 1266.15 883.69 1244.97 883.94 1226.00 884.00 C 1207.03 884.06 1186.34 883.97 1167.00 884.00 C 1147.66 884.03 1127.50 883.99 1108.00 884.00 C 1088.50 884.01 1068.54 883.99 1049.00 884.00
C 1053.89 916.14 1065.37 948.95 1093.25 969.75 C 1121.13 990.56 1158.18 999.38 1193.00 1001.00 Z"/>
</g>
<g fill="#00005C" fill-opacity="0.42" stroke="None">
<path d="
M 1364.00 1.00 
C 1364.25 0.74 1364.00 0.00 1364.00 0.00
L 1340.00 0.00
C 1342.74 1.43 1349.64 1.53 1353.00 1.00 C 1356.36 0.47 1362.33 2.74 1364.00 1.00 Z"/>
</g>
<g fill="#000000" fill-opacity="0.00" stroke="None">
<path d="
M 1364.00 1.00 
C 1397.62 0.29 1434.14 16.55 1462.98 30.02 C 1491.81 43.50 1515.32 60.99 1537.75 83.25 C 1560.19 105.51 1577.02 129.05 1591.23 157.77 C 1605.44 186.49 1618.21 222.78 1620.00 256.00
C 1620.02 256.34 1620.67 256.84 1621.00 257.00
L 1621.00 0.00
L 1364.00 0.00
C 1364.00 0.00 1364.25 0.74 1364.00 1.00 Z"/>
</g>
<g fill="#000059" fill-opacity="0.38" stroke="None">
<path d="
M 0.00 257.00 
L 0.00 278.00
C 1.97 271.34 1.00 261.43 1.00 255.00
C 0.92 255.68 1.01 256.96 0.00 257.00 Z"/>
</g>
<g fill="#00005A" fill-opacity="0.43" stroke="None">
<path d="
M 1621.00 277.00 
L 1621.00 257.00
C 1620.67 256.84 1620.02 256.34 1620.00 256.00
C 1619.64 262.17 1618.81 270.72 1621.00 277.00 Z"/>
</g>
<g fill="#9999FE" fill-opacity="1.00" stroke="None">
<path d="
M 430.00 411.00 
C 429.02 414.79 429.33 421.63 429.00 425.00
C 429.46 438.25 427.02 453.15 422.98 464.98 C 418.93 476.80 415.90 487.37 411.78 498.78 C 407.66 510.18 403.90 520.66 399.98 531.98 C 396.05 543.29 392.47 554.14 388.32 565.32 C 384.18 576.50 380.79 588.60 376.78 599.78 C 372.76 610.96 368.54 621.68 364.93 632.93 C 361.31 644.18 356.83 654.84 352.99 665.99 C 349.15 677.14 345.78 688.64 341.78 699.78 C 337.77 710.91 333.72 721.69 329.93 732.93 C 326.13 744.16 321.83 755.76 317.98 766.98 C 314.12 778.19 310.37 789.21 306.32 800.32 C 302.27 811.44 298.97 822.83 294.92 833.92 C 290.88 845.01 287.13 855.90 282.98 866.98 C 278.82 878.05 275.92 889.64 271.77 900.77 C 267.62 911.90 263.46 923.44 259.78 934.78 C 256.09 946.11 251.62 956.56 247.93 967.93 C 244.23 979.30 240.11 989.85 236.31 1001.31 C 232.50 1012.76 228.35 1022.90 224.78 1034.78 C 221.20 1046.65 216.05 1055.07 212.93 1067.93 C 209.80 1080.78 203.58 1087.34 201.00 1102.00 C 198.42 1116.66 222.24 1112.94 235.00 1113.00 C 247.76 1113.06 266.05 1112.19 280.00 1113.00 C 293.95 1113.81 310.55 1110.89 325.00 1113.00 C 339.45 1115.11 349.69 1108.47 351.68 1094.68 C 353.67 1080.89 359.96 1072.69 363.01 1060.01 C 366.05 1047.33 370.27 1038.11 373.68 1025.68 C 377.09 1013.25 381.60 1004.70 384.68 991.68 C 387.75 978.66 393.29 972.42 395.68 957.68 C 398.07 942.94 413.16 944.02 428.00 945.00 C 442.84 945.98 459.05 944.58 474.00 945.00 C 488.95 945.42 504.09 944.89 519.00 945.00 C 533.91 945.11 549.18 945.13 564.00 945.00 C 578.82 944.87 594.39 945.45 609.00 945.00 C 623.61 944.55 639.22 946.98 652.00 943.00
C 655.53 954.02 658.98 965.15 663.07 975.93 C 667.17 986.70 669.80 998.27 674.08 1008.92 C 678.36 1019.58 680.74 1030.31 685.08 1040.92 C 689.41 1051.54 691.51 1063.22 696.22 1073.78 C 700.94 1084.33 701.21 1096.08 708.08 1105.92 C 714.96 1115.76 734.01 1109.79 746.00 1111.00 C 757.99 1112.21 777.38 1110.33 790.00 1111.00 C 802.62 1111.67 822.11 1110.41 834.00 1111.00 C 845.89 1111.59 867.74 1113.82 865.32 1100.68 C 862.90 1087.53 856.90 1080.09 853.78 1068.22 C 850.66 1056.35 845.55 1047.23 841.98 1036.02 C 838.40 1024.82 834.58 1015.03 830.92 1004.08 C 827.27 993.13 822.83 982.84 818.98 972.02 C 815.13 961.21 811.75 949.94 807.78 939.22 C 803.80 928.51 800.03 918.46 796.31 907.69 C 792.58 896.93 788.42 886.03 784.78 875.22 C 781.14 864.42 776.69 853.78 772.98 843.03 C 769.26 832.27 765.42 822.00 761.78 811.22 C 758.13 800.45 753.49 789.88 749.98 779.02 C 746.47 768.17 742.05 757.41 738.33 746.67 C 734.61 735.93 731.01 725.67 726.98 715.02 C 722.94 704.38 719.74 692.92 715.77 682.23 C 711.80 671.54 707.67 660.79 703.98 650.02 C 700.28 639.26 696.32 629.05 692.78 618.22 C 689.23 607.39 684.43 596.93 680.98 586.02 C 677.52 575.12 672.99 564.52 669.32 553.68 C 665.65 542.84 661.94 532.84 657.98 522.02 C 654.01 511.21 650.62 500.28 646.77 489.23 C 642.92 478.18 638.16 468.68 634.93 457.07 C 631.69 445.47 626.26 437.95 623.78 425.22 C 621.29 412.50 613.66 403.41 599.00 406.00 C 584.34 408.59 569.13 404.52 555.00 406.00 C 540.87 407.48 525.31 404.68 512.00 406.00 C 498.69 407.32 479.78 403.98 468.00 406.00 C 456.22 408.02 434.75 399.60 430.00 411.00
M 610.00 810.00 
C 553.00 810.00 496.00 810.00 439.00 810.00
C 469.11 717.02 499.57 623.99 523.00 529.00
C 550.83 622.26 581.00 716.45 610.00 810.00 Z"/>
</g>
<g fill="#4344A7" fill-opacity="1.00" stroke="None">
<path d="
M 429.00 425.00 
C 429.33 421.63 429.02 414.79 430.00 411.00
C 428.39 414.87 429.00 420.35 429.00 425.00 Z"/>
</g>
<g fill="#00005B" fill-opacity="1.00" stroke="None">
<path d="
M 610.00 810.00 
C 581.00 716.45 550.83 622.26 523.00 529.00
C 499.57 623.99 469.11 717.02 439.00 810.00
C 496.00 810.00 553.00 810.00 610.00 810.00 Z"/>
</g>
<g fill="#9999FE" fill-opacity="1.00" stroke="None">
<path d="
M 897.00 835.00 
C 897.00 845.67 897.00 856.33 897.00 867.00
C 897.00 886.47 900.22 909.84 904.07 927.93 C 907.93 946.01 913.76 963.46 920.22 979.78 C 926.69 996.09 934.75 1008.88 944.08 1022.92 C 953.41 1036.95 962.82 1047.85 975.25 1059.75 C 987.68 1071.66 998.73 1080.49 1013.30 1089.70 C 1027.88 1098.91 1042.08 1104.70 1058.93 1111.07 C 1075.77 1117.44 1095.13 1121.03 1113.93 1124.07 C 1132.73 1127.12 1158.10 1128.06 1178.00 1128.00 C 1197.90 1127.94 1223.00 1127.36 1241.00 1124.00 C 1259.00 1120.64 1283.07 1119.62 1297.98 1112.98 C 1312.88 1106.33 1339.74 1107.52 1341.00 1089.00
C 1341.80 1077.21 1341.08 1064.79 1341.00 1053.00 C 1340.92 1041.21 1342.02 1028.67 1341.00 1017.00 C 1339.98 1005.33 1343.63 992.31 1341.00 981.00
C 1341.40 979.18 1339.55 978.46 1339.00 977.00
C 1298.44 992.29 1254.60 1001.00 1210.00 1001.00
C 1204.65 1001.52 1198.28 1001.51 1193.00 1001.00
C 1158.18 999.38 1121.13 990.56 1093.25 969.75 C 1065.37 948.95 1053.89 916.14 1049.00 884.00
C 1068.54 883.99 1088.50 884.01 1108.00 884.00 C 1127.50 883.99 1147.66 884.03 1167.00 884.00 C 1186.34 883.97 1207.03 884.06 1226.00 884.00 C 1244.97 883.94 1266.15 883.69 1284.00 885.00 C 1301.85 886.31 1323.19 888.58 1339.99 885.99 C 1356.79 883.41 1380.49 888.78 1383.22 870.22 C 1385.95 851.66 1386.70 833.45 1387.00 815.00 C 1387.30 796.55 1386.68 775.95 1383.78 759.22 C 1380.88 742.50 1377.09 727.12 1371.78 712.22 C 1366.47 697.32 1360.61 685.01 1352.92 672.08 C 1345.22 659.15 1338.48 648.45 1328.75 637.25 C 1319.02 626.04 1309.51 617.96 1297.70 609.30 C 1285.89 600.64 1273.76 594.28 1259.69 588.31 C 1245.63 582.33 1230.84 577.52 1215.00 574.00 C 1199.17 570.47 1178.30 568.90 1161.00 569.00 C 1143.70 569.10 1121.48 569.74 1105.07 572.07 C 1088.67 574.41 1072.91 579.03 1058.22 584.22 C 1043.54 589.42 1032.31 596.89 1019.70 604.70 C 1007.09 612.50 997.18 620.30 986.25 630.25 C 975.32 640.19 967.29 649.95 958.25 661.25 C 949.21 672.55 941.76 683.77 934.77 696.77 C 927.78 709.77 921.13 722.69 916.32 737.32 C 911.51 751.96 906.25 767.55 903.33 783.33 C 900.41 799.11 897.00 818.29 897.00 835.00
M 1162.00 686.00 
C 1173.56 686.00 1185.38 689.67 1195.23 694.77 C 1205.07 699.87 1211.94 703.61 1219.75 712.25 C 1227.56 720.89 1232.58 726.09 1237.77 737.23 C 1242.96 748.37 1244.43 757.84 1245.00 772.00 C 1245.57 786.16 1226.86 785.00 1215.00 785.00
C 1208.90 785.59 1201.85 786.39 1195.00 786.00 C 1188.15 785.61 1180.91 786.19 1174.00 786.00 C 1167.09 785.81 1159.91 786.13 1153.00 786.00 C 1146.09 785.87 1138.84 786.14 1132.00 786.00 C 1125.16 785.86 1117.67 786.26 1111.00 786.00 C 1104.33 785.74 1096.28 786.55 1090.00 786.00 C 1083.72 785.45 1074.40 787.20 1069.00 786.00 C 1063.60 784.80 1051.77 789.13 1049.00 785.00
C 1045.99 780.51 1052.85 770.15 1052.93 764.93 C 1053.00 759.70 1057.10 752.14 1058.93 746.93 C 1060.75 741.71 1064.17 735.88 1066.92 730.92 C 1069.68 725.97 1073.54 721.69 1077.25 717.25 C 1080.96 712.81 1085.25 709.36 1089.75 705.75 C 1094.24 702.13 1098.70 698.67 1104.23 696.23 C 1109.76 693.79 1114.98 690.87 1121.08 689.08 C 1127.17 687.28 1135.25 686.00 1142.00 686.00
C 1148.29 685.39 1155.77 685.40 1162.00 686.00 Z"/>
</g>
<g fill="#4747AB" fill-opacity="1.00" stroke="None">
<path d="
M 1142.00 686.00 
C 1148.67 686.00 1155.33 686.00 1162.00 686.00
C 1155.77 685.40 1148.29 685.39 1142.00 686.00 Z"/>
</g>
<g fill="#00005B" fill-opacity="1.00" stroke="None">
<path d="
M 1049.00 785.00 
C 1104.33 785.00 1159.67 785.00 1215.00 785.00
C 1226.86 785.00 1245.57 786.16 1245.00 772.00 C 1244.43 757.84 1242.96 748.37 1237.77 737.23 C 1232.58 726.09 1227.56 720.89 1219.75 712.25 C 1211.94 703.61 1205.07 699.87 1195.23 694.77 C 1185.38 689.67 1173.56 686.00 1162.00 686.00
C 1155.33 686.00 1148.67 686.00 1142.00 686.00
C 1135.25 686.00 1127.17 687.28 1121.08 689.08 C 1114.98 690.87 1109.76 693.79 1104.23 696.23 C 1098.70 698.67 1094.24 702.13 1089.75 705.75 C 1085.25 709.36 1080.96 712.81 1077.25 717.25 C 1073.54 721.69 1069.68 725.97 1066.92 730.92 C 1064.17 735.88 1060.75 741.71 1058.93 746.93 C 1057.10 752.14 1053.00 759.70 1052.93 764.93 C 1052.85 770.15 1045.99 780.51 1049.00 785.00 Z"/>
</g>
<g fill="#4949AD" fill-opacity="1.00" stroke="None">
<path d="
M 1215.00 785.00 
C 1159.67 785.00 1104.33 785.00 1049.00 785.00
C 1051.77 789.13 1063.60 784.80 1069.00 786.00 C 1074.40 787.20 1083.72 785.45 1090.00 786.00 C 1096.28 786.55 1104.33 785.74 1111.00 786.00 C 1117.67 786.26 1125.16 785.86 1132.00 786.00 C 1138.84 786.14 1146.09 785.87 1153.00 786.00 C 1159.91 786.13 1167.09 785.81 1174.00 786.00 C 1180.91 786.19 1188.15 785.61 1195.00 786.00 C 1201.85 786.39 1208.90 785.59 1215.00 785.00 Z"/>
</g>
<g fill="#4F50B3" fill-opacity="1.00" stroke="None">
<path d="
M 897.00 867.00 
C 897.00 856.33 897.00 845.67 897.00 835.00
C 896.03 844.99 896.03 856.94 897.00 867.00 Z"/>
</g>
<g fill="#4242A3" fill-opacity="1.00" stroke="None">
<path d="
M 1341.00 1089.00 
C 1342.95 1078.12 1342.18 1064.72 1342.00 1053.00 C 1341.82 1041.28 1342.98 1027.50 1342.00 1016.00 C 1341.02 1004.50 1344.98 991.20 1341.00 981.00
C 1343.63 992.31 1339.98 1005.33 1341.00 1017.00 C 1342.02 1028.67 1340.92 1041.21 1341.00 1053.00 C 1341.08 1064.79 1341.80 1077.21 1341.00 1089.00 Z"/>
</g>
<g fill="#5656BB" fill-opacity="1.00" stroke="None">
<path d="
M 1210.00 1001.00 
C 1204.33 1001.00 1198.67 1001.00 1193.00 1001.00
C 1198.28 1001.51 1204.65 1001.52 1210.00 1001.00 Z"/>
</g>
<g fill="#00005B" fill-opacity="0.44" stroke="None">
<path d="
M 1620.00 1323.00 
C 1620.02 1322.66 1620.67 1322.17 1621.00 1322.00
L 1621.00 1300.00
C 1619.07 1306.83 1619.60 1316.26 1620.00 1323.00 Z"/>
</g>
<g fill="#00005A" fill-opacity="0.45" stroke="None">
<path d="
M 0.00 1322.00 
C 0.50 1322.00 1.00 1322.00 1.00 1322.00
C 4.95 1318.18 -0.72 1305.52 0.00 1301.00
L 0.00 1322.00 Z"/>
</g>
<g fill="#000000" fill-opacity="0.00" stroke="None">
<path d="
M 0.00 1579.00 
L 257.00 1579.00
C 257.00 1578.50 257.00 1578.00 257.00 1578.00
C 230.01 1579.00 198.71 1566.01 174.70 1557.30 C 150.68 1548.60 130.67 1534.08 110.70 1519.30 C 90.72 1504.52 73.88 1487.71 59.10 1467.90 C 44.32 1448.09 30.15 1427.74 21.31 1403.69 C 12.46 1379.65 0.43 1348.86 1.00 1322.00
C 1.00 1322.00 0.50 1322.00 0.00 1322.00
L 0.00 1579.00 Z"/>
</g>
<g fill="#000000" fill-opacity="0.00" stroke="None">
<path d="
M 1620.00 1323.00 
C 1612.93 1455.65 1491.89 1565.93 1364.00 1579.00
L 1621.00 1579.00
L 1621.00 1322.00
C 1620.67 1322.17 1620.02 1322.66 1620.00 1323.00 Z"/>
</g>
<g fill="#00005B" fill-opacity="0.40" stroke="None">
<path d="
M 257.00 1578.00 
C 257.00 1578.00 257.00 1578.50 257.00 1579.00
L 281.00 1579.00
C 278.39 1577.52 271.19 1577.54 268.00 1578.00 C 264.81 1578.46 258.40 1576.49 257.00 1578.00 Z"/>
</g>
<g fill="#00005B" fill-opacity="0.53" stroke="None">
<path d="
M 1340.00 1579.00 
L 1360.00 1579.00
C 1356.42 1575.88 1345.50 1578.28 1340.00 1579.00 Z"/>
</g>
</svg>