<svg xmlns="http://www.w3.org/2000/svg" xmlns:v="https://svgstorm.com"
viewBox = "0 0 2136 1198"
width="2136"
height="1198">
<g fill="None" fill-opacity="0.0" stroke="#000000" stroke-opacity="0.00" stroke-width="0.3"><path d="
M 0.00 1191.00 
C 6.76 1129.22 20.71 1057.54 36.98 998.98 C 53.25 940.42 75.04 886.12 99.77 832.77 C 124.50 779.42 151.59 734.61 182.92 686.92 C 214.26 639.23 249.61 602.17 286.00 560.00
C 289.20 556.29 292.86 552.67 296.00 549.00
C 329.90 509.33 372.13 479.08 412.23 446.23 C 452.33 413.38 501.43 385.61 546.00 360.00
C 535.52 339.63 522.50 320.77 511.25 300.75 C 500.00 280.74 489.12 260.68 477.23 240.77 C 465.34 220.86 454.53 200.63 442.25 180.75 C 429.97 160.88 420.82 140.67 408.08 120.92 C 395.33 101.18 387.30 80.98 373.75 61.25 C 360.19 41.53 363.10 8.51 390.00 0.00
L 0.00 0.00
L 0.00 1191.00 Z"/>
</g>
<g fill="None" fill-opacity="0.0" stroke="#27DF85" stroke-opacity="1.00" stroke-width="0.3"><path d="
M 296.00 549.00 
C 297.60 547.40 299.81 545.34 302.00 545.00
C 297.25 549.91 291.09 558.08 286.00 560.00
C 249.61 602.17 214.26 639.23 182.92 686.92 C 151.59 734.61 124.50 779.42 99.77 832.77 C 75.04 886.12 53.25 940.42 36.98 998.98 C 20.71 1057.54 6.76 1129.22 0.00 1191.00
L 0.00 1192.00
C 2.26 1189.82 2.08 1193.49 2.00 1195.00
C 713.01 1195.01 1423.99 1194.99 2135.00 1195.00
C 2135.00 1190.00 2135.00 1185.00 2135.00 1180.00
C 2135.00 1141.86 2122.17 1099.46 2116.00 1063.00 C 2109.84 1026.54 2097.38 990.46 2086.69 956.31 C 2076.00 922.15 2063.13 888.62 2049.08 856.92 C 2035.03 825.22 2020.03 795.91 2003.68 766.32 C 1987.33 736.73 1969.31 709.55 1950.75 682.25 C 1932.18 654.96 1912.82 630.31 1891.75 605.25 C 1870.68 580.19 1849.85 557.35 1826.75 534.25 C 1803.66 511.15 1779.34 490.72 1754.25 469.75 C 1729.17 448.77 1703.37 429.94 1676.25 411.75 C 1649.13 393.56 1619.90 375.34 1591.00 360.00
C 1602.07 339.80 1613.99 320.25 1625.30 300.30 C 1636.61 280.36 1648.35 260.74 1659.75 240.75 C 1671.15 220.77 1682.79 200.55 1694.75 180.75 C 1706.72 160.95 1716.26 140.66 1728.92 120.92 C 1741.59 101.19 1749.75 81.04 1763.25 61.25 C 1776.76 41.47 1773.69 8.67 1747.00 0.00
L 1724.00 0.00
C 1696.67 16.96 1686.03 49.51 1669.23 76.23 C 1652.42 102.94 1637.65 132.75 1621.08 160.08 C 1604.51 187.42 1589.44 215.58 1573.08 243.08 C 1556.72 270.59 1540.78 299.25 1525.00 327.00
C 1244.89 197.81 892.02 198.07 612.00 327.00
C 573.74 258.91 533.92 191.21 495.00 124.00
C 494.15 123.14 493.59 122.56 493.00 121.00
C 479.00 101.50 470.51 76.95 456.70 57.30 C 442.88 37.66 436.57 10.51 413.00 0.00
L 390.00 0.00
C 363.10 8.51 360.19 41.53 373.75 61.25 C 387.30 80.98 395.33 101.18 408.08 120.92 C 420.82 140.67 429.97 160.88 442.25 180.75 C 454.53 200.63 465.34 220.86 477.23 240.77 C 489.12 260.68 500.00 280.74 511.25 300.75 C 522.50 320.77 535.52 339.63 546.00 360.00
C 501.43 385.61 452.33 413.38 412.23 446.23 C 372.13 479.08 329.90 509.33 296.00 549.00
M 667.00 799.00 
C 669.00 805.00 668.98 808.82 667.00 815.00
C 665.43 832.82 657.90 850.25 646.23 864.23 C 634.56 878.21 620.36 885.59 602.93 891.93 C 585.49 898.26 560.98 896.07 543.93 888.07 C 526.87 880.08 516.92 871.78 505.75 856.25 C 494.57 840.73 489.71 821.12 490.00 801.00 C 490.29 780.88 502.26 767.02 510.00 750.00
C 512.19 745.17 519.84 739.96 522.00 739.00
C 574.88 693.81 660.93 729.96 667.00 799.00
M 1642.00 777.00 
C 1642.42 777.49 1642.43 776.69 1643.97 779.03 C 1645.52 781.37 1643.00 781.93 1643.00 781.00
C 1652.06 810.08 1644.96 843.17 1625.00 866.00
C 1626.51 867.45 1620.44 871.86 1619.00 873.00
C 1618.96 869.85 1623.02 868.70 1624.00 866.00
C 1614.43 870.67 1610.38 881.80 1599.31 885.31 C 1588.23 888.81 1577.11 895.38 1564.93 895.93 C 1552.74 896.47 1538.06 893.94 1527.32 889.68 C 1516.58 885.42 1507.77 880.37 1499.25 872.75 C 1490.74 865.12 1485.76 857.71 1480.23 847.77 C 1474.70 837.83 1470.79 824.65 1470.00 813.00
C 1469.99 812.94 1469.00 813.00 1469.00 813.00
C 1467.04 811.10 1467.09 799.84 1469.00 798.00
C 1469.26 797.75 1470.00 798.00 1470.00 798.00
C 1473.74 758.19 1506.19 725.31 1546.07 719.07 C 1585.96 712.83 1627.86 739.62 1642.00 777.00 Z"/>
</g>
<g fill="None" fill-opacity="0.0" stroke="#000000" stroke-opacity="0.00" stroke-width="0.3"><path d="
M 493.00 121.00 
C 493.83 122.15 494.29 122.73 495.00 124.00
C 533.92 191.21 573.74 258.91 612.00 327.00
C 892.02 198.07 1244.89 197.81 1525.00 327.00
C 1540.78 299.25 1556.72 270.59 1573.08 243.08 C 1589.44 215.58 1604.51 187.42 1621.08 160.08 C 1637.65 132.75 1652.42 102.94 1669.23 76.23 C 1686.03 49.51 1696.67 16.96 1724.00 0.00
L 413.00 0.00
C 436.57 10.51 442.88 37.66 456.70 57.30 C 470.51 76.95 479.00 101.50 493.00 121.00 Z"/>
</g>
<g fill="None" fill-opacity="0.0" stroke="#000000" stroke-opacity="0.00" stroke-width="0.3"><path d="
M 2135.00 1180.00 
C 2135.00 1179.96 2136.00 1180.00 2136.00 1180.00
L 2136.00 0.00
L 1747.00 0.00
C 1773.69 8.67 1776.76 41.47 1763.25 61.25 C 1749.75 81.04 1741.59 101.19 1728.92 120.92 C 1716.26 140.66 1706.72 160.95 1694.75 180.75 C 1682.79 200.55 1671.15 220.77 1659.75 240.75 C 1648.35 260.74 1636.61 280.36 1625.30 300.30 C 1613.99 320.25 1602.07 339.80 1591.00 360.00
C 1619.90 375.34 1649.13 393.56 1676.25 411.75 C 1703.37 429.94 1729.17 448.77 1754.25 469.75 C 1779.34 490.72 1803.66 511.15 1826.75 534.25 C 1849.85 557.35 1870.68 580.19 1891.75 605.25 C 1912.82 630.31 1932.18 654.96 1950.75 682.25 C 1969.31 709.55 1987.33 736.73 2003.68 766.32 C 2020.03 795.91 2035.03 825.22 2049.08 856.92 C 2063.13 888.62 2076.00 922.15 2086.69 956.31 C 2097.38 990.46 2109.84 1026.54 2116.00 1063.00 C 2122.17 1099.46 2135.00 1141.86 2135.00 1180.00 Z"/>
</g>
<g fill="None" fill-opacity="0.0" stroke="#2AE194" stroke-opacity="0.32" stroke-width="0.3"><path d="
M 495.00 124.00 
C 494.29 122.73 493.83 122.15 493.00 121.00
C 493.59 122.56 494.15 123.14 495.00 124.00 Z"/>
</g>
<g fill="None" fill-opacity="0.0" stroke="#2EDF84" stroke-opacity="0.31" stroke-width="0.3"><path d="
M 296.00 549.00 
C 292.86 552.67 289.20 556.29 286.00 560.00
C 291.09 558.08 297.25 549.91 302.00 545.00
C 299.81 545.34 297.60 547.40 296.00 549.00 Z"/>
</g>
<g fill="None" fill-opacity="0.0" stroke="#000000" stroke-opacity="0.00" stroke-width="0.3"><path d="
M 522.00 739.00 
C 518.24 742.22 513.06 746.01 510.00 750.00
C 502.26 767.02 490.29 780.88 490.00 801.00 C 489.71 821.12 494.57 840.73 505.75 856.25 C 516.92 871.78 526.87 880.08 543.93 888.07 C 560.98 896.07 585.49 898.26 602.93 891.93 C 620.36 885.59 634.56 878.21 646.23 864.23 C 657.90 850.25 665.43 832.82 667.00 815.00
C 667.45 809.94 667.45 804.06 667.00 799.00
C 660.93 729.96 574.88 693.81 522.00 739.00 Z"/>
</g>
<g fill="None" fill-opacity="0.0" stroke="#000000" stroke-opacity="0.00" stroke-width="0.3"><path d="
M 1470.00 798.00 
C 1469.55 802.77 1469.67 808.21 1470.00 813.00
C 1470.79 824.65 1474.70 837.83 1480.23 847.77 C 1485.76 857.71 1490.74 865.12 1499.25 872.75 C 1507.77 880.37 1516.58 885.42 1527.32 889.68 C 1538.06 893.94 1552.74 896.47 1564.93 895.93 C 1577.11 895.38 1588.23 888.81 1599.31 885.31 C 1610.38 881.80 1614.43 870.67 1624.00 866.00
C 1624.40 865.80 1625.00 866.00 1625.00 866.00
C 1644.96 843.17 1652.06 810.08 1643.00 781.00
C 1642.62 779.79 1642.43 778.14 1642.00 777.00
C 1627.86 739.62 1585.96 712.83 1546.07 719.07 C 1506.19 725.31 1473.74 758.19 1470.00 798.00 Z"/>
</g>
<g fill="None" fill-opacity="0.0" stroke="#2CDF82" stroke-opacity="0.38" stroke-width="0.3"><path d="
M 510.00 750.00 
C 513.06 746.01 518.24 742.22 522.00 739.00
C 519.84 739.96 512.19 745.17 510.00 750.00 Z"/>
</g>
<g fill="None" fill-opacity="0.0" stroke="#35D980" stroke-opacity="0.48" stroke-width="0.3"><path d="
M 1642.00 777.00 
C 1642.43 778.14 1642.62 779.79 1643.00 781.00
C 1643.00 781.93 1645.52 781.37 1643.97 779.03 C 1642.43 776.69 1642.42 777.49 1642.00 777.00 Z"/>
</g>
<g fill="None" fill-opacity="0.0" stroke="#2DDE85" stroke-opacity="0.82" stroke-width="0.3"><path d="
M 1469.00 813.00 
C 1468.56 808.28 1468.57 802.72 1469.00 798.00
C 1467.09 799.84 1467.04 811.10 1469.00 813.00 Z"/>
</g>
<g fill="None" fill-opacity="0.0" stroke="#2EDF85" stroke-opacity="0.27" stroke-width="0.3"><path d="
M 1469.00 813.00 
C 1469.00 813.00 1469.99 812.94 1470.00 813.00
C 1469.67 808.21 1469.55 802.77 1470.00 798.00
C 1470.00 798.00 1469.26 797.75 1469.00 798.00
C 1468.57 802.72 1468.56 808.28 1469.00 813.00 Z"/>
</g>
<g fill="None" fill-opacity="0.0" stroke="#2DDE85" stroke-opacity="0.56" stroke-width="0.3"><path d="
M 667.00 815.00 
C 668.98 808.82 669.00 805.00 667.00 799.00
C 667.45 804.06 667.45 809.94 667.00 815.00 Z"/>
</g>
<g fill="None" fill-opacity="0.0" stroke="#2EDF84" stroke-opacity="0.40" stroke-width="0.3"><path d="
M 1625.00 866.00 
C 1625.00 866.00 1624.40 865.80 1624.00 866.00
C 1623.02 868.70 1618.96 869.85 1619.00 873.00
C 1620.44 871.86 1626.51 867.45 1625.00 866.00 Z"/>
</g>
<g fill="None" fill-opacity="0.0" stroke="#2DDE84" stroke-opacity="0.39" stroke-width="0.3"><path d="
M 0.00 1192.00 
L 0.00 1197.00
C 712.00 1197.01 1424.00 1196.99 2136.00 1197.00
L 2136.00 1180.00
C 2136.00 1180.00 2135.00 1179.96 2135.00 1180.00
C 2135.00 1185.00 2135.00 1190.00 2135.00 1195.00
C 1423.99 1194.99 713.01 1195.01 2.00 1195.00
C 2.08 1193.49 2.26 1189.82 0.00 1192.00 Z"/>
</g>
<g fill="None" fill-opacity="0.0" stroke="#000000" stroke-opacity="0.00" stroke-width="0.3"><path d="
M 0.00 1198.00 
L 2136.00 1198.00
L 2136.00 1197.00
C 1424.00 1196.99 712.00 1197.01 0.00 1197.00
L 0.00 1198.00 Z"/>
</g>
<g fill="#000000" fill-opacity="0.00" stroke="None">
<path d="
M 0.00 1191.00 
C 6.76 1129.22 20.71 1057.54 36.98 998.98 C 53.25 940.42 75.04 886.12 99.77 832.77 C 124.50 779.42 151.59 734.61 182.92 686.92 C 214.26 639.23 249.61 602.17 286.00 560.00
C 289.20 556.29 292.86 552.67 296.00 549.00
C 329.90 509.33 372.13 479.08 412.23 446.23 C 452.33 413.38 501.43 385.61 546.00 360.00
C 535.52 339.63 522.50 320.77 511.25 300.75 C 500.00 280.74 489.12 260.68 477.23 240.77 C 465.34 220.86 454.53 200.63 442.25 180.75 C 429.97 160.88 420.82 140.67 408.08 120.92 C 395.33 101.18 387.30 80.98 373.75 61.25 C 360.19 41.53 363.10 8.51 390.00 0.00
L 0.00 0.00
L 0.00 1191.00 Z"/>
</g>
<g fill="#27DF85" fill-opacity="1.00" stroke="None">
<path d="
M 296.00 549.00 
C 297.60 547.40 299.81 545.34 302.00 545.00
C 297.25 549.91 291.09 558.08 286.00 560.00
C 249.61 602.17 214.26 639.23 182.92 686.92 C 151.59 734.61 124.50 779.42 99.77 832.77 C 75.04 886.12 53.25 940.42 36.98 998.98 C 20.71 1057.54 6.76 1129.22 0.00 1191.00
L 0.00 1192.00
C 2.26 1189.82 2.08 1193.49 2.00 1195.00
C 713.01 1195.01 1423.99 1194.99 2135.00 1195.00
C 2135.00 1190.00 2135.00 1185.00 2135.00 1180.00
C 2135.00 1141.86 2122.17 1099.46 2116.00 1063.00 C 2109.84 1026.54 2097.38 990.46 2086.69 956.31 C 2076.00 922.15 2063.13 888.62 2049.08 856.92 C 2035.03 825.22 2020.03 795.91 2003.68 766.32 C 1987.33 736.73 1969.31 709.55 1950.75 682.25 C 1932.18 654.96 1912.82 630.31 1891.75 605.25 C 1870.68 580.19 1849.85 557.35 1826.75 534.25 C 1803.66 511.15 1779.34 490.72 1754.25 469.75 C 1729.17 448.77 1703.37 429.94 1676.25 411.75 C 1649.13 393.56 1619.90 375.34 1591.00 360.00
C 1602.07 339.80 1613.99 320.25 1625.30 300.30 C 1636.61 280.36 1648.35 260.74 1659.75 240.75 C 1671.15 220.77 1682.79 200.55 1694.75 180.75 C 1706.72 160.95 1716.26 140.66 1728.92 120.92 C 1741.59 101.19 1749.75 81.04 1763.25 61.25 C 1776.76 41.47 1773.69 8.67 1747.00 0.00
L 1724.00 0.00
C 1696.67 16.96 1686.03 49.51 1669.23 76.23 C 1652.42 102.94 1637.65 132.75 1621.08 160.08 C 1604.51 187.42 1589.44 215.58 1573.08 243.08 C 1556.72 270.59 1540.78 299.25 1525.00 327.00
C 1244.89 197.81 892.02 198.07 612.00 327.00
C 573.74 258.91 533.92 191.21 495.00 124.00
C 494.15 123.14 493.59 122.56 493.00 121.00
C 479.00 101.50 470.51 76.95 456.70 57.30 C 442.88 37.66 436.57 10.51 413.00 0.00
L 390.00 0.00
C 363.10 8.51 360.19 41.53 373.75 61.25 C 387.30 80.98 395.33 101.18 408.08 120.92 C 420.82 140.67 429.97 160.88 442.25 180.75 C 454.53 200.63 465.34 220.86 477.23 240.77 C 489.12 260.68 500.00 280.74 511.25 300.75 C 522.50 320.77 535.52 339.63 546.00 360.00
C 501.43 385.61 452.33 413.38 412.23 446.23 C 372.13 479.08 329.90 509.33 296.00 549.00
M 667.00 799.00 
C 669.00 805.00 668.98 808.82 667.00 815.00
C 665.43 832.82 657.90 850.25 646.23 864.23 C 634.56 878.21 620.36 885.59 602.93 891.93 C 585.49 898.26 560.98 896.07 543.93 888.07 C 526.87 880.08 516.92 871.78 505.75 856.25 C 494.57 840.73 489.71 821.12 490.00 801.00 C 490.29 780.88 502.26 767.02 510.00 750.00
C 512.19 745.17 519.84 739.96 522.00 739.00
C 574.88 693.81 660.93 729.96 667.00 799.00
M 1642.00 777.00 
C 1642.42 777.49 1642.43 776.69 1643.97 779.03 C 1645.52 781.37 1643.00 781.93 1643.00 781.00
C 1652.06 810.08 1644.96 843.17 1625.00 866.00
C 1626.51 867.45 1620.44 871.86 1619.00 873.00
C 1618.96 869.85 1623.02 868.70 1624.00 866.00
C 1614.43 870.67 1610.38 881.80 1599.31 885.31 C 1588.23 888.81 1577.11 895.38 1564.93 895.93 C 1552.74 896.47 1538.06 893.94 1527.32 889.68 C 1516.58 885.42 1507.77 880.37 1499.25 872.75 C 1490.74 865.12 1485.76 857.71 1480.23 847.77 C 1474.70 837.83 1470.79 824.65 1470.00 813.00
C 1469.99 812.94 1469.00 813.00 1469.00 813.00
C 1467.04 811.10 1467.09 799.84 1469.00 798.00
C 1469.26 797.75 1470.00 798.00 1470.00 798.00
C 1473.74 758.19 1506.19 725.31 1546.07 719.07 C 1585.96 712.83 1627.86 739.62 1642.00 777.00 Z"/>
</g>
<g fill="#000000" fill-opacity="0.00" stroke="None">
<path d="
M 493.00 121.00 
C 493.83 122.15 494.29 122.73 495.00 124.00
C 533.92 191.21 573.74 258.91 612.00 327.00
C 892.02 198.07 1244.89 197.81 1525.00 327.00
C 1540.78 299.25 1556.72 270.59 1573.08 243.08 C 1589.44 215.58 1604.51 187.42 1621.08 160.08 C 1637.65 132.75 1652.42 102.94 1669.23 76.23 C 1686.03 49.51 1696.67 16.96 1724.00 0.00
L 413.00 0.00
C 436.57 10.51 442.88 37.66 456.70 57.30 C 470.51 76.95 479.00 101.50 493.00 121.00 Z"/>
</g>
<g fill="#000000" fill-opacity="0.00" stroke="None">
<path d="
M 2135.00 1180.00 
C 2135.00 1179.96 2136.00 1180.00 2136.00 1180.00
L 2136.00 0.00
L 1747.00 0.00
C 1773.69 8.67 1776.76 41.47 1763.25 61.25 C 1749.75 81.04 1741.59 101.19 1728.92 120.92 C 1716.26 140.66 1706.72 160.95 1694.75 180.75 C 1682.79 200.55 1671.15 220.77 1659.75 240.75 C 1648.35 260.74 1636.61 280.36 1625.30 300.30 C 1613.99 320.25 1602.07 339.80 1591.00 360.00
C 1619.90 375.34 1649.13 393.56 1676.25 411.75 C 1703.37 429.94 1729.17 448.77 1754.25 469.75 C 1779.34 490.72 1803.66 511.15 1826.75 534.25 C 1849.85 557.35 1870.68 580.19 1891.75 605.25 C 1912.82 630.31 1932.18 654.96 1950.75 682.25 C 1969.31 709.55 1987.33 736.73 2003.68 766.32 C 2020.03 795.91 2035.03 825.22 2049.08 856.92 C 2063.13 888.62 2076.00 922.15 2086.69 956.31 C 2097.38 990.46 2109.84 1026.54 2116.00 1063.00 C 2122.17 1099.46 2135.00 1141.86 2135.00 1180.00 Z"/>
</g>
<g fill="#2AE194" fill-opacity="0.32" stroke="None">
<path d="
M 495.00 124.00 
C 494.29 122.73 493.83 122.15 493.00 121.00
C 493.59 122.56 494.15 123.14 495.00 124.00 Z"/>
</g>
<g fill="#2EDF84" fill-opacity="0.31" stroke="None">
<path d="
M 296.00 549.00 
C 292.86 552.67 289.20 556.29 286.00 560.00
C 291.09 558.08 297.25 549.91 302.00 545.00
C 299.81 545.34 297.60 547.40 296.00 549.00 Z"/>
</g>
<g fill="#000000" fill-opacity="0.00" stroke="None">
<path d="
M 522.00 739.00 
C 518.24 742.22 513.06 746.01 510.00 750.00
C 502.26 767.02 490.29 780.88 490.00 801.00 C 489.71 821.12 494.57 840.73 505.75 856.25 C 516.92 871.78 526.87 880.08 543.93 888.07 C 560.98 896.07 585.49 898.26 602.93 891.93 C 620.36 885.59 634.56 878.21 646.23 864.23 C 657.90 850.25 665.43 832.82 667.00 815.00
C 667.45 809.94 667.45 804.06 667.00 799.00
C 660.93 729.96 574.88 693.81 522.00 739.00 Z"/>
</g>
<g fill="#000000" fill-opacity="0.00" stroke="None">
<path d="
M 1470.00 798.00 
C 1469.55 802.77 1469.67 808.21 1470.00 813.00
C 1470.79 824.65 1474.70 837.83 1480.23 847.77 C 1485.76 857.71 1490.74 865.12 1499.25 872.75 C 1507.77 880.37 1516.58 885.42 1527.32 889.68 C 1538.06 893.94 1552.74 896.47 1564.93 895.93 C 1577.11 895.38 1588.23 888.81 1599.31 885.31 C 1610.38 881.80 1614.43 870.67 1624.00 866.00
C 1624.40 865.80 1625.00 866.00 1625.00 866.00
C 1644.96 843.17 1652.06 810.08 1643.00 781.00
C 1642.62 779.79 1642.43 778.14 1642.00 777.00
C 1627.86 739.62 1585.96 712.83 1546.07 719.07 C 1506.19 725.31 1473.74 758.19 1470.00 798.00 Z"/>
</g>
<g fill="#2CDF82" fill-opacity="0.38" stroke="None">
<path d="
M 510.00 750.00 
C 513.06 746.01 518.24 742.22 522.00 739.00
C 519.84 739.96 512.19 745.17 510.00 750.00 Z"/>
</g>
<g fill="#35D980" fill-opacity="0.48" stroke="None">
<path d="
M 1642.00 777.00 
C 1642.43 778.14 1642.62 779.79 1643.00 781.00
C 1643.00 781.93 1645.52 781.37 1643.97 779.03 C 1642.43 776.69 1642.42 777.49 1642.00 777.00 Z"/>
</g>
<g fill="#2DDE85" fill-opacity="0.82" stroke="None">
<path d="
M 1469.00 813.00 
C 1468.56 808.28 1468.57 802.72 1469.00 798.00
C 1467.09 799.84 1467.04 811.10 1469.00 813.00 Z"/>
</g>
<g fill="#2EDF85" fill-opacity="0.27" stroke="None">
<path d="
M 1469.00 813.00 
C 1469.00 813.00 1469.99 812.94 1470.00 813.00
C 1469.67 808.21 1469.55 802.77 1470.00 798.00
C 1470.00 798.00 1469.26 797.75 1469.00 798.00
C 1468.57 802.72 1468.56 808.28 1469.00 813.00 Z"/>
</g>
<g fill="#2DDE85" fill-opacity="0.56" stroke="None">
<path d="
M 667.00 815.00 
C 668.98 808.82 669.00 805.00 667.00 799.00
C 667.45 804.06 667.45 809.94 667.00 815.00 Z"/>
</g>
<g fill="#2EDF84" fill-opacity="0.40" stroke="None">
<path d="
M 1625.00 866.00 
C 1625.00 866.00 1624.40 865.80 1624.00 866.00
C 1623.02 868.70 1618.96 869.85 1619.00 873.00
C 1620.44 871.86 1626.51 867.45 1625.00 866.00 Z"/>
</g>
<g fill="#2DDE84" fill-opacity="0.39" stroke="None">
<path d="
M 0.00 1192.00 
L 0.00 1197.00
C 712.00 1197.01 1424.00 1196.99 2136.00 1197.00
L 2136.00 1180.00
C 2136.00 1180.00 2135.00 1179.96 2135.00 1180.00
C 2135.00 1185.00 2135.00 1190.00 2135.00 1195.00
C 1423.99 1194.99 713.01 1195.01 2.00 1195.00
C 2.08 1193.49 2.26 1189.82 0.00 1192.00 Z"/>
</g>
<g fill="#000000" fill-opacity="0.00" stroke="None">
<path d="
M 0.00 1198.00 
L 2136.00 1198.00
L 2136.00 1197.00
C 1424.00 1196.99 712.00 1197.01 0.00 1197.00
L 0.00 1198.00 Z"/>
</g>
</svg>