<svg xmlns="http://www.w3.org/2000/svg" xmlns:v="https://svgstorm.com"
viewBox = "0 0 251 300"
width="251"
height="300">
<g fill="None" fill-opacity="0.0" stroke="#000000" stroke-opacity="0.00" stroke-width="0.3"><path d="
M 0.00 230.00 
C 7.29 226.25 17.35 214.24 24.25 211.25 C 31.15 208.25 42.60 191.34 49.25 196.76 C 55.89 202.17 62.93 212.96 70.00 219.00
C 83.14 230.23 100.16 239.37 117.00 241.00
C 126.28 241.90 136.32 241.05 145.00 239.00
C 154.89 236.66 164.57 231.78 173.00 226.00
C 182.06 219.78 188.25 210.12 197.00 204.00
C 202.99 196.71 204.52 194.09 212.23 200.77 C 219.94 207.45 222.50 208.15 230.00 214.00
C 230.78 214.61 231.36 215.44 232.00 216.00
C 237.67 220.94 245.13 224.31 251.00 229.00
L 251.00 0.00
L 128.00 0.00
C 131.18 2.49 133.88 6.39 137.00 9.00
C 140.11 11.60 143.80 14.34 147.00 17.00
C 148.15 17.95 149.48 18.47 150.00 20.00
C 153.54 23.61 157.67 26.10 161.00 30.00
C 161.93 30.67 163.03 31.15 164.00 32.00
C 165.45 33.27 166.72 34.70 168.00 36.00
C 169.44 37.18 171.46 38.58 173.00 40.00
C 177.95 43.61 182.57 48.06 187.00 52.00
C 191.94 56.40 197.23 60.76 202.00 65.00
C 208.75 71.00 216.12 76.12 222.00 83.00
C 223.06 83.86 224.82 84.98 226.00 86.00
C 232.53 91.69 239.48 97.30 246.00 103.00
C 242.82 108.48 237.83 114.57 233.25 119.25 C 228.66 123.92 224.33 130.50 219.75 134.75 C 215.17 139.01 210.21 149.29 205.00 146.00
C 204.82 145.73 204.20 145.32 204.00 145.00
C 202.44 143.62 200.51 142.19 199.00 141.00
C 196.60 139.10 195.73 138.19 194.00 136.00
C 191.86 134.10 188.39 130.97 186.00 129.00
C 179.38 124.90 173.86 119.11 168.00 114.00
C 166.88 113.03 165.37 111.22 164.00 110.00
C 160.56 107.77 158.02 105.41 155.00 103.00
C 153.44 101.75 152.20 102.38 152.00 100.00
C 150.07 99.73 149.21 98.02 148.00 97.00
C 144.66 94.19 140.54 90.15 137.00 87.00
C 133.49 83.88 129.23 81.74 127.00 78.00
C 124.63 77.87 123.42 79.71 122.00 81.00
C 117.88 84.92 113.30 88.40 109.00 92.00
C 100.23 99.35 91.73 107.47 83.00 115.00
C 77.56 119.70 71.48 124.41 66.00 129.00
C 60.02 134.01 54.06 143.48 46.75 146.75 C 39.45 150.03 34.26 135.19 27.75 130.25 C 21.24 125.31 18.98 116.45 10.75 110.25 C 2.52 104.05 12.67 95.91 19.75 90.75 C 26.83 85.60 32.88 79.34 39.75 73.75 C 46.62 68.15 53.62 61.40 60.00 56.00
C 68.12 49.13 77.86 41.60 86.00 34.00
C 90.56 29.75 95.50 26.35 100.00 22.00
C 101.04 20.99 101.88 19.91 103.00 19.00
C 104.26 17.98 105.82 17.01 107.00 16.00
C 110.92 12.63 115.27 8.28 119.00 5.00
C 120.95 3.28 123.29 1.66 125.00 0.00
L 0.00 0.00
L 0.00 230.00 Z"/>
</g>
<g fill="None" fill-opacity="0.0" stroke="#FE6676" stroke-opacity="0.98" stroke-width="0.3"><path d="
M 119.00 5.00 
C 116.58 10.67 119.97 23.08 119.00 30.00 C 118.03 36.92 119.28 51.84 119.00 58.00 C 118.72 64.16 117.40 82.09 122.00 81.00
C 123.42 79.71 124.63 77.87 127.00 78.00
C 129.23 81.74 133.49 83.88 137.00 87.00
C 134.25 80.77 138.60 69.84 137.00 62.00 C 135.40 54.16 138.54 42.99 137.00 35.00 C 135.46 27.01 139.47 15.92 137.00 9.00
C 133.88 6.39 131.18 2.49 128.00 0.00
L 125.00 0.00
C 123.29 1.66 120.95 3.28 119.00 5.00 Z"/>
</g>
<g fill="None" fill-opacity="0.0" stroke="#FE5A86" stroke-opacity="0.98" stroke-width="0.3"><path d="
M 107.00 16.00 
C 106.24 17.39 106.00 25.32 106.00 31.00 C 106.00 36.68 106.00 44.74 106.00 51.00 C 106.00 57.26 106.00 64.42 106.00 71.00 C 106.00 77.58 106.00 85.32 106.00 92.00
C 107.28 91.31 109.22 88.89 109.00 92.00
C 113.30 88.40 117.88 84.92 122.00 81.00
C 117.40 82.09 118.72 64.16 119.00 58.00 C 119.28 51.84 118.03 36.92 119.00 30.00 C 119.97 23.08 116.58 10.67 119.00 5.00
C 115.27 8.28 110.92 12.63 107.00 16.00 Z"/>
</g>
<g fill="None" fill-opacity="0.0" stroke="#FE7367" stroke-opacity="0.98" stroke-width="0.3"><path d="
M 137.00 87.00 
C 140.54 90.15 144.66 94.19 148.00 97.00
C 148.46 97.13 149.56 96.83 150.00 97.00
C 146.98 90.89 151.28 80.70 150.00 73.00 C 148.72 65.30 150.48 55.16 150.00 47.00 C 149.52 38.84 150.00 29.29 150.00 21.00
C 147.67 20.63 147.93 18.16 147.00 17.00
C 143.80 14.34 140.11 11.60 137.00 9.00
C 139.47 15.92 135.46 27.01 137.00 35.00 C 138.54 42.99 135.40 54.16 137.00 62.00 C 138.60 69.84 134.25 80.77 137.00 87.00 Z"/>
</g>
<g fill="None" fill-opacity="0.0" stroke="#FE4B98" stroke-opacity="0.98" stroke-width="0.3"><path d="
M 103.00 19.00 
C 101.74 20.37 100.61 21.60 100.00 22.00
C 95.50 26.35 90.56 29.75 86.00 34.00
C 82.12 40.38 83.48 50.29 83.00 59.00 C 82.52 67.71 84.30 80.77 83.00 89.00 C 81.70 97.23 86.14 109.93 83.00 115.00
C 91.73 107.47 100.23 99.35 109.00 92.00
C 109.22 88.89 107.28 91.31 106.00 92.00
C 106.00 85.32 106.00 77.58 106.00 71.00 C 106.00 64.42 106.00 57.26 106.00 51.00 C 106.00 44.74 106.00 36.68 106.00 31.00 C 106.00 25.32 106.24 17.39 107.00 16.00
C 105.82 17.01 104.26 17.98 103.00 19.00 Z"/>
</g>
<g fill="None" fill-opacity="0.0" stroke="#F66C77" stroke-opacity="0.42" stroke-width="0.3"><path d="
M 150.00 21.00 
C 150.00 20.50 150.00 20.00 150.00 20.00
C 149.48 18.47 148.15 17.95 147.00 17.00
C 147.93 18.16 147.67 20.63 150.00 21.00 Z"/>
</g>
<g fill="None" fill-opacity="0.0" stroke="#F65499" stroke-opacity="0.38" stroke-width="0.3"><path d="
M 100.00 22.00 
C 100.61 21.60 101.74 20.37 103.00 19.00
C 101.88 19.91 101.04 20.99 100.00 22.00 Z"/>
</g>
<g fill="None" fill-opacity="0.0" stroke="#FE8057" stroke-opacity="0.99" stroke-width="0.3"><path d="
M 150.00 21.00 
C 150.00 29.29 149.52 38.84 150.00 47.00 C 150.48 55.16 148.72 65.30 150.00 73.00 C 151.28 80.70 146.98 90.89 150.00 97.00
C 150.15 97.06 151.72 98.78 152.00 99.00
C 153.81 100.42 153.83 101.48 155.00 103.00
C 158.02 105.41 160.56 107.77 164.00 110.00
C 164.86 110.56 166.34 111.32 167.00 112.00
C 163.84 99.73 169.18 84.44 167.00 72.00 C 164.82 59.56 170.52 45.22 165.00 34.00
C 164.12 32.76 162.03 31.21 161.00 30.00
C 157.67 26.10 153.54 23.61 150.00 20.00
C 150.00 20.00 150.00 20.50 150.00 21.00 Z"/>
</g>
<g fill="None" fill-opacity="0.0" stroke="#F58065" stroke-opacity="0.49" stroke-width="0.3"><path d="
M 165.00 34.00 
C 164.71 33.40 164.35 32.52 164.00 32.00
C 163.03 31.15 161.93 30.67 161.00 30.00
C 162.03 31.21 164.12 32.76 165.00 34.00 Z"/>
</g>
<g fill="None" fill-opacity="0.0" stroke="#FE9044" stroke-opacity="0.98" stroke-width="0.3"><path d="
M 165.00 34.00 
C 170.52 45.22 164.82 59.56 167.00 72.00 C 169.18 84.44 163.84 99.73 167.00 112.00
C 167.83 112.85 167.44 112.96 168.00 114.00
C 173.86 119.11 179.38 124.90 186.00 129.00
C 186.99 129.61 188.11 130.33 189.00 131.00
C 192.82 130.76 190.59 119.81 191.00 116.00 C 191.41 112.19 190.85 103.75 191.00 99.00 C 191.15 94.25 191.00 87.07 191.00 82.00 C 191.00 76.93 191.16 69.99 191.00 65.00 C 190.84 60.01 189.53 55.84 187.00 52.00
C 182.57 48.06 177.95 43.61 173.00 40.00
C 171.26 38.73 169.37 37.38 168.00 36.00
C 166.72 34.70 165.45 33.27 164.00 32.00
C 164.35 32.52 164.71 33.40 165.00 34.00 Z"/>
</g>
<g fill="None" fill-opacity="0.0" stroke="#FE39AE" stroke-opacity="0.98" stroke-width="0.3"><path d="
M 60.00 56.00 
C 63.05 56.42 60.37 67.47 61.00 72.00 C 61.63 76.53 60.69 86.45 61.00 92.00 C 61.31 97.55 60.85 104.94 61.00 111.00 C 61.15 117.06 60.89 124.79 61.00 131.00
C 62.59 129.99 63.85 128.47 66.00 129.00
C 71.48 124.41 77.56 119.70 83.00 115.00
C 86.14 109.93 81.70 97.23 83.00 89.00 C 84.30 80.77 82.52 67.71 83.00 59.00 C 83.48 50.29 82.12 40.38 86.00 34.00
C 77.86 41.60 68.12 49.13 60.00 56.00 Z"/>
</g>
<g fill="None" fill-opacity="0.0" stroke="#EA6A82" stroke-opacity="0.16" stroke-width="0.3"><path d="
M 173.00 40.00 
C 171.46 38.58 169.44 37.18 168.00 36.00
C 169.37 37.38 171.26 38.73 173.00 40.00 Z"/>
</g>
<g fill="None" fill-opacity="0.0" stroke="#FEA031" stroke-opacity="0.98" stroke-width="0.3"><path d="
M 189.00 131.00 
C 190.99 132.51 192.50 134.10 194.00 136.00
C 195.73 138.19 196.60 139.10 199.00 141.00
C 200.11 141.61 202.51 142.59 204.00 145.00
C 204.20 145.32 204.82 145.73 205.00 146.00
C 207.06 144.60 204.00 133.38 205.00 128.00 C 206.00 122.62 204.38 111.30 205.00 105.00 C 205.62 98.70 204.37 89.46 205.00 83.00 C 205.63 76.54 204.38 68.82 202.00 65.00
C 197.23 60.76 191.94 56.40 187.00 52.00
C 189.53 55.84 190.84 60.01 191.00 65.00 C 191.16 69.99 191.00 76.93 191.00 82.00 C 191.00 87.07 191.15 94.25 191.00 99.00 C 190.85 103.75 191.41 112.19 191.00 116.00 C 190.59 119.81 192.82 130.76 189.00 131.00 Z"/>
</g>
<g fill="None" fill-opacity="0.0" stroke="#FE23CC" stroke-opacity="0.96" stroke-width="0.3"><path d="
M 66.00 129.00 
C 63.85 128.47 62.59 129.99 61.00 131.00
C 60.89 124.79 61.15 117.06 61.00 111.00 C 60.85 104.94 61.31 97.55 61.00 92.00 C 60.69 86.45 61.63 76.53 61.00 72.00 C 60.37 67.47 63.05 56.42 60.00 56.00
C 53.62 61.40 46.62 68.15 39.75 73.75 C 32.88 79.34 26.83 85.60 19.75 90.75 C 12.67 95.91 2.52 104.05 10.75 110.25 C 18.98 116.45 21.24 125.31 27.75 130.25 C 34.26 135.19 39.45 150.03 46.75 146.75 C 54.06 143.48 60.02 134.01 66.00 129.00 Z"/>
</g>
<g fill="None" fill-opacity="0.0" stroke="#FEB021" stroke-opacity="0.96" stroke-width="0.3"><path d="
M 205.00 146.00 
C 210.21 149.29 215.17 139.01 219.75 134.75 C 224.33 130.50 228.66 123.92 233.25 119.25 C 237.83 114.57 242.82 108.48 246.00 103.00
C 239.48 97.30 232.53 91.69 226.00 86.00
C 225.27 85.57 223.47 84.72 222.00 83.00
C 216.12 76.12 208.75 71.00 202.00 65.00
C 204.38 68.82 205.63 76.54 205.00 83.00 C 204.37 89.46 205.62 98.70 205.00 105.00 C 204.38 111.30 206.00 122.62 205.00 128.00 C 204.00 133.38 207.06 144.60 205.00 146.00 Z"/>
</g>
<g fill="None" fill-opacity="0.0" stroke="#F79D51" stroke-opacity="0.42" stroke-width="0.3"><path d="
M 226.00 86.00 
C 224.82 84.98 223.06 83.86 222.00 83.00
C 223.47 84.72 225.27 85.57 226.00 86.00 Z"/>
</g>
<g fill="None" fill-opacity="0.0" stroke="#EA6585" stroke-opacity="0.16" stroke-width="0.3"><path d="
M 152.00 100.00 
C 151.96 99.50 152.00 99.00 152.00 99.00
C 151.72 98.78 150.15 97.06 150.00 97.00
C 149.56 96.83 148.46 97.13 148.00 97.00
C 149.21 98.02 150.07 99.73 152.00 100.00 Z"/>
</g>
<g fill="None" fill-opacity="0.0" stroke="#F07773" stroke-opacity="0.34" stroke-width="0.3"><path d="
M 152.00 100.00 
C 152.20 102.38 153.44 101.75 155.00 103.00
C 153.83 101.48 153.81 100.42 152.00 99.00
C 152.00 99.00 151.96 99.50 152.00 100.00 Z"/>
</g>
<g fill="None" fill-opacity="0.0" stroke="#F59450" stroke-opacity="0.31" stroke-width="0.3"><path d="
M 168.00 114.00 
C 167.44 112.96 167.83 112.85 167.00 112.00
C 166.34 111.32 164.86 110.56 164.00 110.00
C 165.37 111.22 166.88 113.03 168.00 114.00 Z"/>
</g>
<g fill="None" fill-opacity="0.0" stroke="#FA984A" stroke-opacity="0.45" stroke-width="0.3"><path d="
M 194.00 136.00 
C 192.50 134.10 190.99 132.51 189.00 131.00
C 188.11 130.33 186.99 129.61 186.00 129.00
C 188.39 130.97 191.86 134.10 194.00 136.00 Z"/>
</g>
<g fill="None" fill-opacity="0.0" stroke="#F79654" stroke-opacity="0.37" stroke-width="0.3"><path d="
M 199.00 141.00 
C 200.51 142.19 202.44 143.62 204.00 145.00
C 202.51 142.59 200.11 141.61 199.00 141.00 Z"/>
</g>
<g fill="None" fill-opacity="0.0" stroke="#7E4CFC" stroke-opacity="0.97" stroke-width="0.3"><path d="
M 0.00 230.00 
L 0.00 232.00
C 19.58 256.04 43.19 276.86 71.00 289.00
C 74.38 288.04 71.20 277.46 72.00 273.00 C 72.80 268.54 71.64 259.27 72.00 254.00 C 72.36 248.73 71.85 240.37 72.00 235.00 C 72.15 229.63 72.28 222.46 70.00 219.00
C 62.93 212.96 55.89 202.17 49.25 196.76 C 42.60 191.34 31.15 208.25 24.25 211.25 C 17.35 214.24 7.29 226.25 0.00 230.00 Z"/>
</g>
<g fill="None" fill-opacity="0.0" stroke="#52B7FA" stroke-opacity="0.96" stroke-width="0.3"><path d="
M 197.00 204.00 
C 198.72 202.80 201.45 201.81 203.00 200.00
C 203.66 224.58 201.67 249.87 204.00 274.00
C 202.11 276.19 198.10 276.74 198.00 280.00
C 206.56 274.92 214.00 271.20 221.00 263.00
C 226.43 256.64 232.70 250.39 239.00 245.00
C 243.71 240.97 247.07 235.49 251.00 231.00
L 251.00 229.00
C 245.13 224.31 237.67 220.94 232.00 216.00
C 229.85 214.97 231.42 215.65 230.00 214.00
C 222.50 208.15 219.94 207.45 212.23 200.77 C 204.52 194.09 202.99 196.71 197.00 204.00 Z"/>
</g>
<g fill="None" fill-opacity="0.0" stroke="#59A5FA" stroke-opacity="0.98" stroke-width="0.3"><path d="
M 197.00 204.00 
C 188.25 210.12 182.06 219.78 173.00 226.00
C 175.52 234.10 176.34 249.61 175.00 259.00 C 173.66 268.39 178.53 286.18 174.00 292.00
C 182.98 288.04 190.42 284.50 198.00 280.00
C 198.10 276.74 202.11 276.19 204.00 274.00
C 201.67 249.87 203.66 224.58 203.00 200.00
C 201.45 201.81 198.72 202.80 197.00 204.00 Z"/>
</g>
<g fill="None" fill-opacity="0.0" stroke="#50C2FA" stroke-opacity="0.69" stroke-width="0.3"><path d="
M 232.00 216.00 
C 231.36 215.44 230.78 214.61 230.00 214.00
C 231.42 215.65 229.85 214.97 232.00 216.00 Z"/>
</g>
<g fill="None" fill-opacity="0.0" stroke="#7269FC" stroke-opacity="0.98" stroke-width="0.3"><path d="
M 71.00 289.00 
C 82.29 293.93 94.94 297.82 107.00 300.00
L 113.00 300.00
C 110.85 298.73 111.27 297.70 114.00 298.00
C 113.94 279.47 114.08 259.81 114.00 242.00
C 115.00 241.89 116.73 242.47 117.00 241.00
C 100.16 239.37 83.14 230.23 70.00 219.00
C 72.28 222.46 72.15 229.63 72.00 235.00 C 71.85 240.37 72.36 248.73 72.00 254.00 C 71.64 259.27 72.80 268.54 72.00 273.00 C 71.20 277.46 74.38 288.04 71.00 289.00 Z"/>
</g>
<g fill="None" fill-opacity="0.0" stroke="#6094FA" stroke-opacity="0.97" stroke-width="0.3"><path d="
M 145.00 239.00 
C 145.10 239.01 148.21 241.86 150.00 241.00
C 150.09 257.46 149.94 277.95 150.00 296.00
C 147.91 294.57 146.26 298.47 143.00 297.00
C 143.08 298.26 145.06 297.56 145.00 299.00
C 156.39 299.24 164.65 296.13 174.00 292.00
C 178.53 286.18 173.66 268.39 175.00 259.00 C 176.34 249.61 175.52 234.10 173.00 226.00
C 164.57 231.78 154.89 236.66 145.00 239.00 Z"/>
</g>
<g fill="None" fill-opacity="0.0" stroke="#000000" stroke-opacity="0.00" stroke-width="0.3"><path d="
M 239.00 245.00 
C 237.55 246.66 236.38 248.45 235.00 250.00
C 233.43 251.77 231.60 253.40 230.00 255.00
C 227.15 258.33 224.15 260.36 221.00 263.00
C 214.00 271.20 206.56 274.92 198.00 280.00
C 190.42 284.50 182.98 288.04 174.00 292.00
C 164.65 296.13 156.39 299.24 145.00 299.00
C 145.24 299.17 145.00 300.00 145.00 300.00
L 251.00 300.00
L 251.00 231.00
C 247.07 235.49 243.71 240.97 239.00 245.00 Z"/>
</g>
<g fill="None" fill-opacity="0.0" stroke="#000000" stroke-opacity="0.00" stroke-width="0.3"><path d="
M 0.00 300.00 
L 107.00 300.00
C 94.94 297.82 82.29 293.93 71.00 289.00
C 43.19 276.86 19.58 256.04 0.00 232.00
L 0.00 300.00 Z"/>
</g>
<g fill="None" fill-opacity="0.0" stroke="#6781FB" stroke-opacity="0.99" stroke-width="0.3"><path d="
M 117.00 241.00 
C 116.73 242.47 115.00 241.89 114.00 242.00
C 114.08 259.81 113.94 279.47 114.00 298.00
C 111.27 297.70 110.85 298.73 113.00 300.00
L 145.00 300.00
C 145.00 300.00 145.24 299.17 145.00 299.00
C 145.06 297.56 143.08 298.26 143.00 297.00
C 146.26 298.47 147.91 294.57 150.00 296.00
C 149.94 277.95 150.09 257.46 150.00 241.00
C 148.21 241.86 145.10 239.01 145.00 239.00
C 136.32 241.05 126.28 241.90 117.00 241.00 Z"/>
</g>
<g fill="None" fill-opacity="0.0" stroke="#61ABF7" stroke-opacity="0.47" stroke-width="0.3"><path d="
M 221.00 263.00 
C 224.15 260.36 227.15 258.33 230.00 255.00
C 231.57 253.16 233.33 251.61 235.00 250.00
C 236.38 248.45 237.55 246.66 239.00 245.00
C 232.70 250.39 226.43 256.64 221.00 263.00 Z"/>
</g>
<g fill="None" fill-opacity="0.0" stroke="#52B8F5" stroke-opacity="0.10" stroke-width="0.3"><path d="
M 230.00 255.00 
C 231.60 253.40 233.43 251.77 235.00 250.00
C 233.33 251.61 231.57 253.16 230.00 255.00 Z"/>
</g>
<g fill="#000000" fill-opacity="0.00" stroke="None">
<path d="
M 0.00 230.00 
C 7.29 226.25 17.35 214.24 24.25 211.25 C 31.15 208.25 42.60 191.34 49.25 196.76 C 55.89 202.17 62.93 212.96 70.00 219.00
C 83.14 230.23 100.16 239.37 117.00 241.00
C 126.28 241.90 136.32 241.05 145.00 239.00
C 154.89 236.66 164.57 231.78 173.00 226.00
C 182.06 219.78 188.25 210.12 197.00 204.00
C 202.99 196.71 204.52 194.09 212.23 200.77 C 219.94 207.45 222.50 208.15 230.00 214.00
C 230.78 214.61 231.36 215.44 232.00 216.00
C 237.67 220.94 245.13 224.31 251.00 229.00
L 251.00 0.00
L 128.00 0.00
C 131.18 2.49 133.88 6.39 137.00 9.00
C 140.11 11.60 143.80 14.34 147.00 17.00
C 148.15 17.95 149.48 18.47 150.00 20.00
C 153.54 23.61 157.67 26.10 161.00 30.00
C 161.93 30.67 163.03 31.15 164.00 32.00
C 165.45 33.27 166.72 34.70 168.00 36.00
C 169.44 37.18 171.46 38.58 173.00 40.00
C 177.95 43.61 182.57 48.06 187.00 52.00
C 191.94 56.40 197.23 60.76 202.00 65.00
C 208.75 71.00 216.12 76.12 222.00 83.00
C 223.06 83.86 224.82 84.98 226.00 86.00
C 232.53 91.69 239.48 97.30 246.00 103.00
C 242.82 108.48 237.83 114.57 233.25 119.25 C 228.66 123.92 224.33 130.50 219.75 134.75 C 215.17 139.01 210.21 149.29 205.00 146.00
C 204.82 145.73 204.20 145.32 204.00 145.00
C 202.44 143.62 200.51 142.19 199.00 141.00
C 196.60 139.10 195.73 138.19 194.00 136.00
C 191.86 134.10 188.39 130.97 186.00 129.00
C 179.38 124.90 173.86 119.11 168.00 114.00
C 166.88 113.03 165.37 111.22 164.00 110.00
C 160.56 107.77 158.02 105.41 155.00 103.00
C 153.44 101.75 152.20 102.38 152.00 100.00
C 150.07 99.73 149.21 98.02 148.00 97.00
C 144.66 94.19 140.54 90.15 137.00 87.00
C 133.49 83.88 129.23 81.74 127.00 78.00
C 124.63 77.87 123.42 79.71 122.00 81.00
C 117.88 84.92 113.30 88.40 109.00 92.00
C 100.23 99.35 91.73 107.47 83.00 115.00
C 77.56 119.70 71.48 124.41 66.00 129.00
C 60.02 134.01 54.06 143.48 46.75 146.75 C 39.45 150.03 34.26 135.19 27.75 130.25 C 21.24 125.31 18.98 116.45 10.75 110.25 C 2.52 104.05 12.67 95.91 19.75 90.75 C 26.83 85.60 32.88 79.34 39.75 73.75 C 46.62 68.15 53.62 61.40 60.00 56.00
C 68.12 49.13 77.86 41.60 86.00 34.00
C 90.56 29.75 95.50 26.35 100.00 22.00
C 101.04 20.99 101.88 19.91 103.00 19.00
C 104.26 17.98 105.82 17.01 107.00 16.00
C 110.92 12.63 115.27 8.28 119.00 5.00
C 120.95 3.28 123.29 1.66 125.00 0.00
L 0.00 0.00
L 0.00 230.00 Z"/>
</g>
<g fill="#FE6676" fill-opacity="0.98" stroke="None">
<path d="
M 119.00 5.00 
C 116.58 10.67 119.97 23.08 119.00 30.00 C 118.03 36.92 119.28 51.84 119.00 58.00 C 118.72 64.16 117.40 82.09 122.00 81.00
C 123.42 79.71 124.63 77.87 127.00 78.00
C 129.23 81.74 133.49 83.88 137.00 87.00
C 134.25 80.77 138.60 69.84 137.00 62.00 C 135.40 54.16 138.54 42.99 137.00 35.00 C 135.46 27.01 139.47 15.92 137.00 9.00
C 133.88 6.39 131.18 2.49 128.00 0.00
L 125.00 0.00
C 123.29 1.66 120.95 3.28 119.00 5.00 Z"/>
</g>
<g fill="#FE5A86" fill-opacity="0.98" stroke="None">
<path d="
M 107.00 16.00 
C 106.24 17.39 106.00 25.32 106.00 31.00 C 106.00 36.68 106.00 44.74 106.00 51.00 C 106.00 57.26 106.00 64.42 106.00 71.00 C 106.00 77.58 106.00 85.32 106.00 92.00
C 107.28 91.31 109.22 88.89 109.00 92.00
C 113.30 88.40 117.88 84.92 122.00 81.00
C 117.40 82.09 118.72 64.16 119.00 58.00 C 119.28 51.84 118.03 36.92 119.00 30.00 C 119.97 23.08 116.58 10.67 119.00 5.00
C 115.27 8.28 110.92 12.63 107.00 16.00 Z"/>
</g>
<g fill="#FE7367" fill-opacity="0.98" stroke="None">
<path d="
M 137.00 87.00 
C 140.54 90.15 144.66 94.19 148.00 97.00
C 148.46 97.13 149.56 96.83 150.00 97.00
C 146.98 90.89 151.28 80.70 150.00 73.00 C 148.72 65.30 150.48 55.16 150.00 47.00 C 149.52 38.84 150.00 29.29 150.00 21.00
C 147.67 20.63 147.93 18.16 147.00 17.00
C 143.80 14.34 140.11 11.60 137.00 9.00
C 139.47 15.92 135.46 27.01 137.00 35.00 C 138.54 42.99 135.40 54.16 137.00 62.00 C 138.60 69.84 134.25 80.77 137.00 87.00 Z"/>
</g>
<g fill="#FE4B98" fill-opacity="0.98" stroke="None">
<path d="
M 103.00 19.00 
C 101.74 20.37 100.61 21.60 100.00 22.00
C 95.50 26.35 90.56 29.75 86.00 34.00
C 82.12 40.38 83.48 50.29 83.00 59.00 C 82.52 67.71 84.30 80.77 83.00 89.00 C 81.70 97.23 86.14 109.93 83.00 115.00
C 91.73 107.47 100.23 99.35 109.00 92.00
C 109.22 88.89 107.28 91.31 106.00 92.00
C 106.00 85.32 106.00 77.58 106.00 71.00 C 106.00 64.42 106.00 57.26 106.00 51.00 C 106.00 44.74 106.00 36.68 106.00 31.00 C 106.00 25.32 106.24 17.39 107.00 16.00
C 105.82 17.01 104.26 17.98 103.00 19.00 Z"/>
</g>
<g fill="#F66C77" fill-opacity="0.42" stroke="None">
<path d="
M 150.00 21.00 
C 150.00 20.50 150.00 20.00 150.00 20.00
C 149.48 18.47 148.15 17.95 147.00 17.00
C 147.93 18.16 147.67 20.63 150.00 21.00 Z"/>
</g>
<g fill="#F65499" fill-opacity="0.38" stroke="None">
<path d="
M 100.00 22.00 
C 100.61 21.60 101.74 20.37 103.00 19.00
C 101.88 19.91 101.04 20.99 100.00 22.00 Z"/>
</g>
<g fill="#FE8057" fill-opacity="0.99" stroke="None">
<path d="
M 150.00 21.00 
C 150.00 29.29 149.52 38.84 150.00 47.00 C 150.48 55.16 148.72 65.30 150.00 73.00 C 151.28 80.70 146.98 90.89 150.00 97.00
C 150.15 97.06 151.72 98.78 152.00 99.00
C 153.81 100.42 153.83 101.48 155.00 103.00
C 158.02 105.41 160.56 107.77 164.00 110.00
C 164.86 110.56 166.34 111.32 167.00 112.00
C 163.84 99.73 169.18 84.44 167.00 72.00 C 164.82 59.56 170.52 45.22 165.00 34.00
C 164.12 32.76 162.03 31.21 161.00 30.00
C 157.67 26.10 153.54 23.61 150.00 20.00
C 150.00 20.00 150.00 20.50 150.00 21.00 Z"/>
</g>
<g fill="#F58065" fill-opacity="0.49" stroke="None">
<path d="
M 165.00 34.00 
C 164.71 33.40 164.35 32.52 164.00 32.00
C 163.03 31.15 161.93 30.67 161.00 30.00
C 162.03 31.21 164.12 32.76 165.00 34.00 Z"/>
</g>
<g fill="#FE9044" fill-opacity="0.98" stroke="None">
<path d="
M 165.00 34.00 
C 170.52 45.22 164.82 59.56 167.00 72.00 C 169.18 84.44 163.84 99.73 167.00 112.00
C 167.83 112.85 167.44 112.96 168.00 114.00
C 173.86 119.11 179.38 124.90 186.00 129.00
C 186.99 129.61 188.11 130.33 189.00 131.00
C 192.82 130.76 190.59 119.81 191.00 116.00 C 191.41 112.19 190.85 103.75 191.00 99.00 C 191.15 94.25 191.00 87.07 191.00 82.00 C 191.00 76.93 191.16 69.99 191.00 65.00 C 190.84 60.01 189.53 55.84 187.00 52.00
C 182.57 48.06 177.95 43.61 173.00 40.00
C 171.26 38.73 169.37 37.38 168.00 36.00
C 166.72 34.70 165.45 33.27 164.00 32.00
C 164.35 32.52 164.71 33.40 165.00 34.00 Z"/>
</g>
<g fill="#FE39AE" fill-opacity="0.98" stroke="None">
<path d="
M 60.00 56.00 
C 63.05 56.42 60.37 67.47 61.00 72.00 C 61.63 76.53 60.69 86.45 61.00 92.00 C 61.31 97.55 60.85 104.94 61.00 111.00 C 61.15 117.06 60.89 124.79 61.00 131.00
C 62.59 129.99 63.85 128.47 66.00 129.00
C 71.48 124.41 77.56 119.70 83.00 115.00
C 86.14 109.93 81.70 97.23 83.00 89.00 C 84.30 80.77 82.52 67.71 83.00 59.00 C 83.48 50.29 82.12 40.38 86.00 34.00
C 77.86 41.60 68.12 49.13 60.00 56.00 Z"/>
</g>
<g fill="#EA6A82" fill-opacity="0.16" stroke="None">
<path d="
M 173.00 40.00 
C 171.46 38.58 169.44 37.18 168.00 36.00
C 169.37 37.38 171.26 38.73 173.00 40.00 Z"/>
</g>
<g fill="#FEA031" fill-opacity="0.98" stroke="None">
<path d="
M 189.00 131.00 
C 190.99 132.51 192.50 134.10 194.00 136.00
C 195.73 138.19 196.60 139.10 199.00 141.00
C 200.11 141.61 202.51 142.59 204.00 145.00
C 204.20 145.32 204.82 145.73 205.00 146.00
C 207.06 144.60 204.00 133.38 205.00 128.00 C 206.00 122.62 204.38 111.30 205.00 105.00 C 205.62 98.70 204.37 89.46 205.00 83.00 C 205.63 76.54 204.38 68.82 202.00 65.00
C 197.23 60.76 191.94 56.40 187.00 52.00
C 189.53 55.84 190.84 60.01 191.00 65.00 C 191.16 69.99 191.00 76.93 191.00 82.00 C 191.00 87.07 191.15 94.25 191.00 99.00 C 190.85 103.75 191.41 112.19 191.00 116.00 C 190.59 119.81 192.82 130.76 189.00 131.00 Z"/>
</g>
<g fill="#FE23CC" fill-opacity="0.96" stroke="None">
<path d="
M 66.00 129.00 
C 63.85 128.47 62.59 129.99 61.00 131.00
C 60.89 124.79 61.15 117.06 61.00 111.00 C 60.85 104.94 61.31 97.55 61.00 92.00 C 60.69 86.45 61.63 76.53 61.00 72.00 C 60.37 67.47 63.05 56.42 60.00 56.00
C 53.62 61.40 46.62 68.15 39.75 73.75 C 32.88 79.34 26.83 85.60 19.75 90.75 C 12.67 95.91 2.52 104.05 10.75 110.25 C 18.98 116.45 21.24 125.31 27.75 130.25 C 34.26 135.19 39.45 150.03 46.75 146.75 C 54.06 143.48 60.02 134.01 66.00 129.00 Z"/>
</g>
<g fill="#FEB021" fill-opacity="0.96" stroke="None">
<path d="
M 205.00 146.00 
C 210.21 149.29 215.17 139.01 219.75 134.75 C 224.33 130.50 228.66 123.92 233.25 119.25 C 237.83 114.57 242.82 108.48 246.00 103.00
C 239.48 97.30 232.53 91.69 226.00 86.00
C 225.27 85.57 223.47 84.72 222.00 83.00
C 216.12 76.12 208.75 71.00 202.00 65.00
C 204.38 68.82 205.63 76.54 205.00 83.00 C 204.37 89.46 205.62 98.70 205.00 105.00 C 204.38 111.30 206.00 122.62 205.00 128.00 C 204.00 133.38 207.06 144.60 205.00 146.00 Z"/>
</g>
<g fill="#F79D51" fill-opacity="0.42" stroke="None">
<path d="
M 226.00 86.00 
C 224.82 84.98 223.06 83.86 222.00 83.00
C 223.47 84.72 225.27 85.57 226.00 86.00 Z"/>
</g>
<g fill="#EA6585" fill-opacity="0.16" stroke="None">
<path d="
M 152.00 100.00 
C 151.96 99.50 152.00 99.00 152.00 99.00
C 151.72 98.78 150.15 97.06 150.00 97.00
C 149.56 96.83 148.46 97.13 148.00 97.00
C 149.21 98.02 150.07 99.73 152.00 100.00 Z"/>
</g>
<g fill="#F07773" fill-opacity="0.34" stroke="None">
<path d="
M 152.00 100.00 
C 152.20 102.38 153.44 101.75 155.00 103.00
C 153.83 101.48 153.81 100.42 152.00 99.00
C 152.00 99.00 151.96 99.50 152.00 100.00 Z"/>
</g>
<g fill="#F59450" fill-opacity="0.31" stroke="None">
<path d="
M 168.00 114.00 
C 167.44 112.96 167.83 112.85 167.00 112.00
C 166.34 111.32 164.86 110.56 164.00 110.00
C 165.37 111.22 166.88 113.03 168.00 114.00 Z"/>
</g>
<g fill="#FA984A" fill-opacity="0.45" stroke="None">
<path d="
M 194.00 136.00 
C 192.50 134.10 190.99 132.51 189.00 131.00
C 188.11 130.33 186.99 129.61 186.00 129.00
C 188.39 130.97 191.86 134.10 194.00 136.00 Z"/>
</g>
<g fill="#F79654" fill-opacity="0.37" stroke="None">
<path d="
M 199.00 141.00 
C 200.51 142.19 202.44 143.62 204.00 145.00
C 202.51 142.59 200.11 141.61 199.00 141.00 Z"/>
</g>
<g fill="#7E4CFC" fill-opacity="0.97" stroke="None">
<path d="
M 0.00 230.00 
L 0.00 232.00
C 19.58 256.04 43.19 276.86 71.00 289.00
C 74.38 288.04 71.20 277.46 72.00 273.00 C 72.80 268.54 71.64 259.27 72.00 254.00 C 72.36 248.73 71.85 240.37 72.00 235.00 C 72.15 229.63 72.28 222.46 70.00 219.00
C 62.93 212.96 55.89 202.17 49.25 196.76 C 42.60 191.34 31.15 208.25 24.25 211.25 C 17.35 214.24 7.29 226.25 0.00 230.00 Z"/>
</g>
<g fill="#52B7FA" fill-opacity="0.96" stroke="None">
<path d="
M 197.00 204.00 
C 198.72 202.80 201.45 201.81 203.00 200.00
C 203.66 224.58 201.67 249.87 204.00 274.00
C 202.11 276.19 198.10 276.74 198.00 280.00
C 206.56 274.92 214.00 271.20 221.00 263.00
C 226.43 256.64 232.70 250.39 239.00 245.00
C 243.71 240.97 247.07 235.49 251.00 231.00
L 251.00 229.00
C 245.13 224.31 237.67 220.94 232.00 216.00
C 229.85 214.97 231.42 215.65 230.00 214.00
C 222.50 208.15 219.94 207.45 212.23 200.77 C 204.52 194.09 202.99 196.71 197.00 204.00 Z"/>
</g>
<g fill="#59A5FA" fill-opacity="0.98" stroke="None">
<path d="
M 197.00 204.00 
C 188.25 210.12 182.06 219.78 173.00 226.00
C 175.52 234.10 176.34 249.61 175.00 259.00 C 173.66 268.39 178.53 286.18 174.00 292.00
C 182.98 288.04 190.42 284.50 198.00 280.00
C 198.10 276.74 202.11 276.19 204.00 274.00
C 201.67 249.87 203.66 224.58 203.00 200.00
C 201.45 201.81 198.72 202.80 197.00 204.00 Z"/>
</g>
<g fill="#50C2FA" fill-opacity="0.69" stroke="None">
<path d="
M 232.00 216.00 
C 231.36 215.44 230.78 214.61 230.00 214.00
C 231.42 215.65 229.85 214.97 232.00 216.00 Z"/>
</g>
<g fill="#7269FC" fill-opacity="0.98" stroke="None">
<path d="
M 71.00 289.00 
C 82.29 293.93 94.94 297.82 107.00 300.00
L 113.00 300.00
C 110.85 298.73 111.27 297.70 114.00 298.00
C 113.94 279.47 114.08 259.81 114.00 242.00
C 115.00 241.89 116.73 242.47 117.00 241.00
C 100.16 239.37 83.14 230.23 70.00 219.00
C 72.28 222.46 72.15 229.63 72.00 235.00 C 71.85 240.37 72.36 248.73 72.00 254.00 C 71.64 259.27 72.80 268.54 72.00 273.00 C 71.20 277.46 74.38 288.04 71.00 289.00 Z"/>
</g>
<g fill="#6094FA" fill-opacity="0.97" stroke="None">
<path d="
M 145.00 239.00 
C 145.10 239.01 148.21 241.86 150.00 241.00
C 150.09 257.46 149.94 277.95 150.00 296.00
C 147.91 294.57 146.26 298.47 143.00 297.00
C 143.08 298.26 145.06 297.56 145.00 299.00
C 156.39 299.24 164.65 296.13 174.00 292.00
C 178.53 286.18 173.66 268.39 175.00 259.00 C 176.34 249.61 175.52 234.10 173.00 226.00
C 164.57 231.78 154.89 236.66 145.00 239.00 Z"/>
</g>
<g fill="#000000" fill-opacity="0.00" stroke="None">
<path d="
M 239.00 245.00 
C 237.55 246.66 236.38 248.45 235.00 250.00
C 233.43 251.77 231.60 253.40 230.00 255.00
C 227.15 258.33 224.15 260.36 221.00 263.00
C 214.00 271.20 206.56 274.92 198.00 280.00
C 190.42 284.50 182.98 288.04 174.00 292.00
C 164.65 296.13 156.39 299.24 145.00 299.00
C 145.24 299.17 145.00 300.00 145.00 300.00
L 251.00 300.00
L 251.00 231.00
C 247.07 235.49 243.71 240.97 239.00 245.00 Z"/>
</g>
<g fill="#000000" fill-opacity="0.00" stroke="None">
<path d="
M 0.00 300.00 
L 107.00 300.00
C 94.94 297.82 82.29 293.93 71.00 289.00
C 43.19 276.86 19.58 256.04 0.00 232.00
L 0.00 300.00 Z"/>
</g>
<g fill="#6781FB" fill-opacity="0.99" stroke="None">
<path d="
M 117.00 241.00 
C 116.73 242.47 115.00 241.89 114.00 242.00
C 114.08 259.81 113.94 279.47 114.00 298.00
C 111.27 297.70 110.85 298.73 113.00 300.00
L 145.00 300.00
C 145.00 300.00 145.24 299.17 145.00 299.00
C 145.06 297.56 143.08 298.26 143.00 297.00
C 146.26 298.47 147.91 294.57 150.00 296.00
C 149.94 277.95 150.09 257.46 150.00 241.00
C 148.21 241.86 145.10 239.01 145.00 239.00
C 136.32 241.05 126.28 241.90 117.00 241.00 Z"/>
</g>
<g fill="#61ABF7" fill-opacity="0.47" stroke="None">
<path d="
M 221.00 263.00 
C 224.15 260.36 227.15 258.33 230.00 255.00
C 231.57 253.16 233.33 251.61 235.00 250.00
C 236.38 248.45 237.55 246.66 239.00 245.00
C 232.70 250.39 226.43 256.64 221.00 263.00 Z"/>
</g>
<g fill="#52B8F5" fill-opacity="0.10" stroke="None">
<path d="
M 230.00 255.00 
C 231.60 253.40 233.43 251.77 235.00 250.00
C 233.33 251.61 231.57 253.16 230.00 255.00 Z"/>
</g>
</svg>