<svg xmlns="http://www.w3.org/2000/svg" xmlns:v="https://svgstorm.com"
viewBox = "0 0 800 600"
width="800"
height="600">
<g fill="None" fill-opacity="0.0" stroke="#000000" stroke-opacity="0.00" stroke-width="0.3"><path d="
M 0.00 600.00 
L 284.00 600.00
C 236.05 593.01 200.42 549.05 200.00 501.00 C 199.58 452.95 234.70 406.90 283.00 400.00
C 235.01 393.14 200.02 347.60 200.00 300.00 C 199.98 252.40 235.08 206.85 283.00 200.00
C 234.91 193.13 200.14 147.89 200.00 100.00 C 199.86 52.11 235.81 6.58 284.00 0.00
L 0.00 0.00
L 0.00 600.00 Z"/>
</g>
<g fill="None" fill-opacity="0.0" stroke="#F14C18" stroke-opacity="0.99" stroke-width="0.3"><path d="
M 283.00 200.00 
C 301.88 197.30 321.90 201.01 341.00 200.00 C 360.10 198.99 379.84 200.00 399.00 200.00
C 399.50 200.00 400.00 200.00 400.00 200.00
C 399.81 199.59 400.00 199.00 400.00 199.00
C 400.00 132.67 400.00 66.33 400.00 0.00
L 284.00 0.00
C 235.81 6.58 199.86 52.11 200.00 100.00 C 200.14 147.89 234.91 193.13 283.00 200.00 Z"/>
</g>
<g fill="None" fill-opacity="0.0" stroke="#FF7261" stroke-opacity="0.99" stroke-width="0.3"><path d="
M 400.00 199.00 
C 415.45 197.59 431.49 199.52 447.00 199.00 C 462.51 198.48 479.32 198.58 494.00 200.00
C 501.41 200.00 509.68 198.95 517.00 200.00
C 565.09 193.13 599.86 147.89 600.00 100.00 C 600.14 52.11 564.19 6.58 516.00 0.00
L 400.00 0.00
C 400.00 66.33 400.00 132.67 400.00 199.00 Z"/>
</g>
<g fill="None" fill-opacity="0.0" stroke="#000000" stroke-opacity="0.00" stroke-width="0.3"><path d="
M 517.00 200.00 
C 566.81 207.12 601.31 254.52 600.00 304.00 C 598.69 353.48 558.00 396.85 508.78 400.78 C 459.56 404.71 409.26 369.87 401.00 321.00
C 401.53 347.31 401.00 373.68 401.00 400.00
C 401.00 441.74 405.53 497.30 394.22 535.22 C 382.92 573.15 349.91 591.18 316.00 600.00
L 800.00 600.00
L 800.00 0.00
L 516.00 0.00
C 564.19 6.58 600.14 52.11 600.00 100.00 C 599.86 147.89 565.09 193.13 517.00 200.00 Z"/>
</g>
<g fill="None" fill-opacity="0.0" stroke="#FE7162" stroke-opacity="0.49" stroke-width="0.3"><path d="
M 400.00 200.00 
C 400.35 200.03 400.77 200.95 401.00 201.00
C 413.06 203.68 426.55 200.13 439.00 201.00 C 451.45 201.87 465.43 201.25 478.00 201.00
C 483.52 200.89 488.39 200.00 494.00 200.00
C 479.32 198.58 462.51 198.48 447.00 199.00 C 431.49 199.52 415.45 197.59 400.00 199.00
C 400.00 199.00 399.81 199.59 400.00 200.00 Z"/>
</g>
<g fill="None" fill-opacity="0.0" stroke="#A359FE" stroke-opacity="0.99" stroke-width="0.3"><path d="
M 283.00 400.00 
C 301.88 397.30 321.90 401.01 341.00 400.00 C 360.10 398.99 379.84 400.00 399.00 400.00
C 397.60 384.55 399.52 368.51 399.00 353.00 C 398.48 337.49 398.58 320.68 400.00 306.00
C 400.00 302.33 400.00 298.67 400.00 295.00
C 398.56 280.12 398.46 263.68 399.00 248.00 C 399.54 232.32 397.58 215.67 399.00 200.00
C 379.84 200.00 360.10 198.99 341.00 200.00 C 321.90 201.01 301.88 197.30 283.00 200.00
C 235.08 206.85 199.98 252.40 200.00 300.00 C 200.02 347.60 235.01 393.14 283.00 400.00 Z"/>
</g>
<g fill="None" fill-opacity="0.0" stroke="#A35AFD" stroke-opacity="0.87" stroke-width="0.3"><path d="
M 400.00 295.00 
C 400.00 292.00 400.00 289.00 400.00 286.00
C 400.00 272.10 399.14 256.76 400.00 243.00 C 400.86 229.24 397.24 213.57 401.00 201.00
C 400.77 200.95 400.35 200.03 400.00 200.00
C 400.00 200.00 399.50 200.00 399.00 200.00
C 397.58 215.67 399.54 232.32 399.00 248.00 C 398.46 263.68 398.56 280.12 400.00 295.00 Z"/>
</g>
<g fill="None" fill-opacity="0.0" stroke="#13BDFE" stroke-opacity="0.98" stroke-width="0.3"><path d="
M 478.00 201.00 
C 441.95 207.83 407.12 242.81 401.00 279.00
C 400.95 281.41 400.16 284.30 400.00 286.00
C 400.00 289.00 400.00 292.00 400.00 295.00
C 400.00 298.67 400.00 302.33 400.00 306.00
C 400.00 308.67 400.00 311.33 400.00 314.00
C 400.17 315.75 400.95 318.60 401.00 321.00
C 409.26 369.87 459.56 404.71 508.78 400.78 C 558.00 396.85 598.69 353.48 600.00 304.00 C 601.31 254.52 566.81 207.12 517.00 200.00
C 509.68 198.95 501.41 200.00 494.00 200.00
C 488.39 200.00 483.52 200.89 478.00 201.00 Z"/>
</g>
<g fill="None" fill-opacity="0.0" stroke="#A155FF" stroke-opacity="0.12" stroke-width="0.3"><path d="
M 400.00 286.00 
C 400.16 284.30 400.95 281.41 401.00 279.00
C 401.52 253.01 400.61 226.99 401.00 201.00
C 397.24 213.57 400.86 229.24 400.00 243.00 C 399.14 256.76 400.00 272.10 400.00 286.00 Z"/>
</g>
<g fill="None" fill-opacity="0.0" stroke="#000000" stroke-opacity="0.00" stroke-width="0.3"><path d="
M 401.00 279.00 
C 407.12 242.81 441.95 207.83 478.00 201.00
C 465.43 201.25 451.45 201.87 439.00 201.00 C 426.55 200.13 413.06 203.68 401.00 201.00
C 400.61 226.99 401.52 253.01 401.00 279.00 Z"/>
</g>
<g fill="None" fill-opacity="0.0" stroke="#A359FE" stroke-opacity="0.88" stroke-width="0.3"><path d="
M 399.00 400.00 
C 399.50 400.00 400.00 400.00 400.00 400.00
C 397.47 371.85 400.00 342.28 400.00 314.00
C 400.00 311.33 400.00 308.67 400.00 306.00
C 398.58 320.68 398.48 337.49 399.00 353.00 C 399.52 368.51 397.60 384.55 399.00 400.00 Z"/>
</g>
<g fill="None" fill-opacity="0.0" stroke="#A056FE" stroke-opacity="0.12" stroke-width="0.3"><path d="
M 400.00 400.00 
C 400.50 400.00 401.00 400.00 401.00 400.00
C 401.00 373.68 401.53 347.31 401.00 321.00
C 400.95 318.60 400.17 315.75 400.00 314.00
C 400.00 342.28 397.47 371.85 400.00 400.00 Z"/>
</g>
<g fill="None" fill-opacity="0.0" stroke="#02D084" stroke-opacity="0.98" stroke-width="0.3"><path d="
M 284.00 600.00 
L 316.00 600.00
C 349.91 591.18 382.92 573.15 394.22 535.22 C 405.53 497.30 401.00 441.74 401.00 400.00
C 401.00 400.00 400.50 400.00 400.00 400.00
C 400.00 400.00 399.50 400.00 399.00 400.00
C 379.84 400.00 360.10 398.99 341.00 400.00 C 321.90 401.01 301.88 397.30 283.00 400.00
C 234.70 406.90 199.58 452.95 200.00 501.00 C 200.42 549.05 236.05 593.01 284.00 600.00 Z"/>
</g>
<g fill="#000000" fill-opacity="0.00" stroke="None">
<path d="
M 0.00 600.00 
L 284.00 600.00
C 236.05 593.01 200.42 549.05 200.00 501.00 C 199.58 452.95 234.70 406.90 283.00 400.00
C 235.01 393.14 200.02 347.60 200.00 300.00 C 199.98 252.40 235.08 206.85 283.00 200.00
C 234.91 193.13 200.14 147.89 200.00 100.00 C 199.86 52.11 235.81 6.58 284.00 0.00
L 0.00 0.00
L 0.00 600.00 Z"/>
</g>
<g fill="#F14C18" fill-opacity="0.99" stroke="None">
<path d="
M 283.00 200.00 
C 301.88 197.30 321.90 201.01 341.00 200.00 C 360.10 198.99 379.84 200.00 399.00 200.00
C 399.50 200.00 400.00 200.00 400.00 200.00
C 399.81 199.59 400.00 199.00 400.00 199.00
C 400.00 132.67 400.00 66.33 400.00 0.00
L 284.00 0.00
C 235.81 6.58 199.86 52.11 200.00 100.00 C 200.14 147.89 234.91 193.13 283.00 200.00 Z"/>
</g>
<g fill="#FF7261" fill-opacity="0.99" stroke="None">
<path d="
M 400.00 199.00 
C 415.45 197.59 431.49 199.52 447.00 199.00 C 462.51 198.48 479.32 198.58 494.00 200.00
C 501.41 200.00 509.68 198.95 517.00 200.00
C 565.09 193.13 599.86 147.89 600.00 100.00 C 600.14 52.11 564.19 6.58 516.00 0.00
L 400.00 0.00
C 400.00 66.33 400.00 132.67 400.00 199.00 Z"/>
</g>
<g fill="#000000" fill-opacity="0.00" stroke="None">
<path d="
M 517.00 200.00 
C 566.81 207.12 601.31 254.52 600.00 304.00 C 598.69 353.48 558.00 396.85 508.78 400.78 C 459.56 404.71 409.26 369.87 401.00 321.00
C 401.53 347.31 401.00 373.68 401.00 400.00
C 401.00 441.74 405.53 497.30 394.22 535.22 C 382.92 573.15 349.91 591.18 316.00 600.00
L 800.00 600.00
L 800.00 0.00
L 516.00 0.00
C 564.19 6.58 600.14 52.11 600.00 100.00 C 599.86 147.89 565.09 193.13 517.00 200.00 Z"/>
</g>
<g fill="#FE7162" fill-opacity="0.49" stroke="None">
<path d="
M 400.00 200.00 
C 400.35 200.03 400.77 200.95 401.00 201.00
C 413.06 203.68 426.55 200.13 439.00 201.00 C 451.45 201.87 465.43 201.25 478.00 201.00
C 483.52 200.89 488.39 200.00 494.00 200.00
C 479.32 198.58 462.51 198.48 447.00 199.00 C 431.49 199.52 415.45 197.59 400.00 199.00
C 400.00 199.00 399.81 199.59 400.00 200.00 Z"/>
</g>
<g fill="#A359FE" fill-opacity="0.99" stroke="None">
<path d="
M 283.00 400.00 
C 301.88 397.30 321.90 401.01 341.00 400.00 C 360.10 398.99 379.84 400.00 399.00 400.00
C 397.60 384.55 399.52 368.51 399.00 353.00 C 398.48 337.49 398.58 320.68 400.00 306.00
C 400.00 302.33 400.00 298.67 400.00 295.00
C 398.56 280.12 398.46 263.68 399.00 248.00 C 399.54 232.32 397.58 215.67 399.00 200.00
C 379.84 200.00 360.10 198.99 341.00 200.00 C 321.90 201.01 301.88 197.30 283.00 200.00
C 235.08 206.85 199.98 252.40 200.00 300.00 C 200.02 347.60 235.01 393.14 283.00 400.00 Z"/>
</g>
<g fill="#A35AFD" fill-opacity="0.87" stroke="None">
<path d="
M 400.00 295.00 
C 400.00 292.00 400.00 289.00 400.00 286.00
C 400.00 272.10 399.14 256.76 400.00 243.00 C 400.86 229.24 397.24 213.57 401.00 201.00
C 400.77 200.95 400.35 200.03 400.00 200.00
C 400.00 200.00 399.50 200.00 399.00 200.00
C 397.58 215.67 399.54 232.32 399.00 248.00 C 398.46 263.68 398.56 280.12 400.00 295.00 Z"/>
</g>
<g fill="#13BDFE" fill-opacity="0.98" stroke="None">
<path d="
M 478.00 201.00 
C 441.95 207.83 407.12 242.81 401.00 279.00
C 400.95 281.41 400.16 284.30 400.00 286.00
C 400.00 289.00 400.00 292.00 400.00 295.00
C 400.00 298.67 400.00 302.33 400.00 306.00
C 400.00 308.67 400.00 311.33 400.00 314.00
C 400.17 315.75 400.95 318.60 401.00 321.00
C 409.26 369.87 459.56 404.71 508.78 400.78 C 558.00 396.85 598.69 353.48 600.00 304.00 C 601.31 254.52 566.81 207.12 517.00 200.00
C 509.68 198.95 501.41 200.00 494.00 200.00
C 488.39 200.00 483.52 200.89 478.00 201.00 Z"/>
</g>
<g fill="#A155FF" fill-opacity="0.12" stroke="None">
<path d="
M 400.00 286.00 
C 400.16 284.30 400.95 281.41 401.00 279.00
C 401.52 253.01 400.61 226.99 401.00 201.00
C 397.24 213.57 400.86 229.24 400.00 243.00 C 399.14 256.76 400.00 272.10 400.00 286.00 Z"/>
</g>
<g fill="#000000" fill-opacity="0.00" stroke="None">
<path d="
M 401.00 279.00 
C 407.12 242.81 441.95 207.83 478.00 201.00
C 465.43 201.25 451.45 201.87 439.00 201.00 C 426.55 200.13 413.06 203.68 401.00 201.00
C 400.61 226.99 401.52 253.01 401.00 279.00 Z"/>
</g>
<g fill="#A359FE" fill-opacity="0.88" stroke="None">
<path d="
M 399.00 400.00 
C 399.50 400.00 400.00 400.00 400.00 400.00
C 397.47 371.85 400.00 342.28 400.00 314.00
C 400.00 311.33 400.00 308.67 400.00 306.00
C 398.58 320.68 398.48 337.49 399.00 353.00 C 399.52 368.51 397.60 384.55 399.00 400.00 Z"/>
</g>
<g fill="#A056FE" fill-opacity="0.12" stroke="None">
<path d="
M 400.00 400.00 
C 400.50 400.00 401.00 400.00 401.00 400.00
C 401.00 373.68 401.53 347.31 401.00 321.00
C 400.95 318.60 400.17 315.75 400.00 314.00
C 400.00 342.28 397.47 371.85 400.00 400.00 Z"/>
</g>
<g fill="#02D084" fill-opacity="0.98" stroke="None">
<path d="
M 284.00 600.00 
L 316.00 600.00
C 349.91 591.18 382.92 573.15 394.22 535.22 C 405.53 497.30 401.00 441.74 401.00 400.00
C 401.00 400.00 400.50 400.00 400.00 400.00
C 400.00 400.00 399.50 400.00 399.00 400.00
C 379.84 400.00 360.10 398.99 341.00 400.00 C 321.90 401.01 301.88 397.30 283.00 400.00
C 234.70 406.90 199.58 452.95 200.00 501.00 C 200.42 549.05 236.05 593.01 284.00 600.00 Z"/>
</g>
</svg>