<svg xmlns="http://www.w3.org/2000/svg" xmlns:v="https://svgstorm.com"
viewBox = "0 0 1600 1600"
width="1600"
height="1600">
<g fill="None" fill-opacity="0.0" stroke="#000000" stroke-opacity="0.00" stroke-width="0.3"><path d="
M 0.00 1600.00 
L 1600.00 1600.00
L 1600.00 0.00
L 0.00 0.00
L 0.00 1600.00
M 735.00 87.00 
C 735.52 87.75 735.55 88.12 736.00 89.00
C 774.65 164.08 754.03 256.01 759.00 341.00
C 725.67 341.04 686.77 340.95 654.00 341.00 C 621.23 341.05 582.27 342.66 552.93 336.07 C 523.59 329.48 504.79 318.39 482.75 300.25 C 460.72 282.11 449.85 263.86 438.22 238.78 C 426.59 213.69 421.98 175.78 426.99 147.99 C 432.00 120.20 441.08 95.87 457.77 73.77 C 474.46 51.67 491.19 38.59 515.23 25.23 C 539.26 11.87 574.41 5.25 603.00 7.00 C 631.59 8.75 659.62 18.39 682.75 33.25 C 705.87 48.12 720.75 64.15 735.00 87.00
M 1028.00 7.00 
C 1055.77 10.36 1083.05 20.60 1105.75 37.25 C 1128.44 53.91 1143.16 69.45 1156.92 95.08 C 1170.67 120.71 1177.04 151.23 1176.00 184.00 C 1174.97 216.77 1176.60 258.70 1176.00 293.00 C 1175.40 327.30 1176.57 366.39 1176.00 401.00 C 1175.43 435.61 1176.91 476.11 1176.00 510.00 C 1175.09 543.89 1178.44 585.43 1174.67 616.67 C 1170.90 647.91 1158.57 669.04 1141.75 692.75 C 1124.92 716.45 1106.95 727.85 1082.30 741.30 C 1057.65 754.76 1019.64 760.45 991.00 757.00 C 962.36 753.55 935.27 744.69 912.31 727.70 C 889.34 710.70 875.37 695.66 861.25 669.75 C 847.12 643.85 841.53 613.75 842.00 581.00 C 842.47 548.25 841.71 506.30 842.00 472.00 C 842.29 437.70 841.70 398.63 842.00 364.00 C 842.30 329.37 841.50 288.93 842.00 255.00 C 842.50 221.07 840.17 180.07 843.93 148.93 C 847.68 117.78 858.99 95.97 876.25 72.25 C 893.52 48.54 910.50 36.76 935.69 23.69 C 960.89 10.63 997.74 3.34 1028.00 7.00
M 8.00 600.00 
C 7.48 592.36 8.34 583.85 9.00 577.00
C 6.79 549.12 21.87 520.06 36.30 497.30 C 50.74 474.55 67.58 460.21 92.03 446.03 C 116.48 431.84 144.88 423.27 177.00 424.00 C 209.12 424.73 251.16 423.67 285.00 424.00 C 318.84 424.33 357.73 423.85 392.00 424.00 C 426.27 424.15 465.24 423.93 499.00 424.00 C 532.76 424.07 574.41 423.53 606.02 424.98 C 637.64 426.42 661.54 436.58 685.75 452.25 C 709.95 467.93 722.14 483.49 737.26 507.74 C 752.37 532.00 759.76 564.90 759.00 594.00 C 758.24 623.10 751.00 654.01 735.68 677.68 C 720.36 701.35 707.13 715.91 682.77 731.77 C 658.41 747.63 632.73 755.78 601.00 757.00 C 569.27 758.22 527.81 758.13 494.00 758.00 C 460.19 757.87 421.29 758.12 387.00 758.00 C 352.71 757.88 313.86 758.18 280.00 758.00 C 246.14 757.82 204.14 758.36 172.00 758.00 C 139.86 757.64 113.91 748.95 88.77 734.23 C 63.63 719.50 49.97 704.42 34.30 681.70 C 18.62 658.99 9.89 627.81 8.00 600.00
M 1591.00 578.00 
C 1591.73 585.50 1592.77 594.79 1592.00 603.00
C 1589.62 628.38 1581.63 655.05 1568.25 676.25 C 1554.87 697.44 1543.26 713.04 1521.30 727.30 C 1499.34 741.57 1480.11 752.36 1451.98 755.98 C 1423.84 759.59 1386.58 757.56 1356.00 758.00 C 1325.42 758.44 1289.10 757.67 1258.00 758.00
C 1257.58 721.43 1258.55 676.76 1258.00 641.00 C 1257.45 605.24 1256.20 564.13 1267.92 533.92 C 1279.65 503.72 1291.72 485.31 1315.25 464.25 C 1338.78 443.19 1364.32 432.65 1395.07 426.07 C 1425.82 419.50 1468.10 425.99 1495.03 438.97 C 1521.96 451.96 1541.48 467.23 1559.75 491.25 C 1578.03 515.27 1589.29 547.55 1591.00 578.00
M 288.00 1132.00 
C 285.65 1134.35 283.63 1136.02 281.00 1138.00
C 250.16 1161.16 212.73 1176.74 173.00 1175.00 C 133.27 1173.26 97.15 1160.91 68.00 1135.00
C 62.02 1129.69 57.26 1125.03 52.00 1119.00
C 22.55 1085.21 6.66 1042.12 10.00 997.00 C 13.34 951.88 31.09 914.43 64.00 884.00
C 65.59 882.53 67.20 881.35 69.00 880.00
C 92.12 862.63 108.39 851.37 138.07 845.07 C 167.76 838.77 205.25 841.34 238.00 841.00 C 270.75 840.66 309.69 841.26 343.00 841.00
C 343.02 877.25 342.97 920.45 343.00 956.00 C 343.03 991.55 345.68 1031.89 334.68 1062.68 C 323.67 1093.47 311.11 1109.81 288.00 1132.00
M 606.00 841.00 
C 633.79 843.69 662.82 852.62 685.75 869.25 C 708.68 885.89 723.47 899.84 737.75 925.25 C 752.04 950.65 759.85 980.35 759.00 1013.00 C 758.15 1045.65 759.44 1086.71 759.00 1121.00 C 758.56 1155.29 759.33 1195.36 759.00 1230.00 C 758.67 1264.64 759.44 1304.02 759.00 1338.00 C 758.56 1371.98 760.43 1413.08 757.67 1444.67 C 754.92 1476.26 743.40 1498.68 726.75 1522.75 C 710.10 1546.83 693.21 1558.29 668.31 1572.31 C 643.40 1586.32 608.27 1592.41 579.00 1590.00 C 549.73 1587.59 522.10 1578.96 498.75 1562.25 C 475.41 1545.54 461.00 1532.16 446.70 1506.31 C 432.39 1480.44 424.26 1451.81 425.00 1419.00 C 425.74 1386.19 424.53 1345.33 425.00 1311.00 C 425.47 1276.67 424.50 1236.60 425.00 1202.00 C 425.50 1167.40 424.12 1127.82 425.00 1094.00 C 425.88 1060.18 422.72 1018.30 426.00 987.00 C 429.28 955.70 440.22 932.81 456.92 908.92 C 473.62 885.03 490.75 872.84 515.25 859.25 C 539.74 845.65 576.17 838.11 606.00 841.00
M 1440.00 841.00 
C 1466.57 843.57 1494.34 852.49 1516.70 867.30 C 1539.06 882.11 1553.41 896.14 1567.92 919.08 C 1582.43 942.02 1591.36 969.81 1593.00 998.00 C 1594.64 1026.19 1588.31 1059.34 1575.23 1083.23 C 1562.15 1107.12 1551.06 1123.15 1528.77 1139.77 C 1506.48 1156.39 1486.29 1167.09 1456.98 1171.98 C 1427.66 1176.86 1389.33 1174.68 1357.00 1175.00 C 1324.67 1175.32 1287.16 1174.71 1254.00 1175.00 C 1220.84 1175.29 1183.08 1174.55 1150.00 1175.00 C 1116.92 1175.45 1079.05 1174.07 1047.00 1175.00 C 1014.95 1175.93 980.75 1175.19 953.77 1165.23 C 926.79 1155.27 909.33 1144.98 889.75 1125.25 C 870.18 1105.52 860.17 1086.98 850.68 1061.32 C 841.18 1035.66 839.72 997.87 846.00 971.00 C 852.28 944.13 862.55 922.60 880.25 901.25 C 897.96 879.91 912.94 869.14 938.68 856.68 C 964.42 844.22 993.93 839.63 1026.00 841.00 C 1058.07 842.37 1096.66 840.14 1130.00 841.00 C 1163.34 841.86 1199.13 840.08 1233.00 841.00 C 1266.87 841.92 1301.91 839.41 1336.00 841.00 C 1370.09 842.59 1405.97 837.70 1440.00 841.00
M 842.00 1257.00 
C 876.99 1257.03 918.68 1256.96 953.00 1257.00 C 987.32 1257.04 1027.27 1254.40 1057.22 1263.78 C 1087.18 1273.15 1106.20 1284.39 1127.75 1305.25 C 1149.30 1326.11 1159.36 1347.37 1168.93 1375.07 C 1178.50 1402.77 1177.92 1444.38 1169.07 1472.07 C 1160.22 1499.77 1147.40 1522.33 1127.25 1542.25 C 1107.10 1562.16 1085.38 1575.08 1057.78 1583.78 C 1030.17 1592.48 988.86 1592.81 961.31 1583.69 C 933.75 1574.58 911.16 1563.54 890.77 1542.23 C 870.38 1520.92 858.68 1502.66 849.22 1472.78 C 839.76 1442.90 842.11 1403.32 842.00 1369.00 C 841.89 1334.68 842.08 1292.07 842.00 1257.00 Z"/>
</g>
<g fill="None" fill-opacity="0.0" stroke="#32C6F0" stroke-opacity="0.99" stroke-width="0.3"><path d="
M 736.00 89.00 
C 734.98 87.73 735.17 87.42 735.00 87.00
C 720.75 64.15 705.87 48.12 682.75 33.25 C 659.62 18.39 631.59 8.75 603.00 7.00 C 574.41 5.25 539.26 11.87 515.23 25.23 C 491.19 38.59 474.46 51.67 457.77 73.77 C 441.08 95.87 432.00 120.20 426.99 147.99 C 421.98 175.78 426.59 213.69 438.22 238.78 C 449.85 263.86 460.72 282.11 482.75 300.25 C 504.79 318.39 523.59 329.48 552.93 336.07 C 582.27 342.66 621.23 341.05 654.00 341.00 C 686.77 340.95 725.67 341.04 759.00 341.00
C 754.03 256.01 774.65 164.08 736.00 89.00 Z"/>
</g>
<g fill="None" fill-opacity="0.0" stroke="#2AB67D" stroke-opacity="1.00" stroke-width="0.3"><path d="
M 1028.00 7.00 
C 997.74 3.34 960.89 10.63 935.69 23.69 C 910.50 36.76 893.52 48.54 876.25 72.25 C 858.99 95.97 847.68 117.78 843.93 148.93 C 840.17 180.07 842.50 221.07 842.00 255.00 C 841.50 288.93 842.30 329.37 842.00 364.00 C 841.70 398.63 842.29 437.70 842.00 472.00 C 841.71 506.30 842.47 548.25 842.00 581.00 C 841.53 613.75 847.12 643.85 861.25 669.75 C 875.37 695.66 889.34 710.70 912.31 727.70 C 935.27 744.69 962.36 753.55 991.00 757.00 C 1019.64 760.45 1057.65 754.76 1082.30 741.30 C 1106.95 727.85 1124.92 716.45 1141.75 692.75 C 1158.57 669.04 1170.90 647.91 1174.67 616.67 C 1178.44 585.43 1175.09 543.89 1176.00 510.00 C 1176.91 476.11 1175.43 435.61 1176.00 401.00 C 1176.57 366.39 1175.40 327.30 1176.00 293.00 C 1176.60 258.70 1174.97 216.77 1176.00 184.00 C 1177.04 151.23 1170.67 120.71 1156.92 95.08 C 1143.16 69.45 1128.44 53.91 1105.75 37.25 C 1083.05 20.60 1055.77 10.36 1028.00 7.00 Z"/>
</g>
<g fill="None" fill-opacity="0.0" stroke="#1AADF4" stroke-opacity="0.14" stroke-width="0.3"><path d="
M 736.00 89.00 
C 735.55 88.12 735.52 87.75 735.00 87.00
C 735.17 87.42 734.98 87.73 736.00 89.00 Z"/>
</g>
<g fill="None" fill-opacity="0.0" stroke="#33C6EF" stroke-opacity="1.00" stroke-width="0.3"><path d="
M 9.00 577.00 
C 9.31 580.95 9.36 584.84 10.00 589.00 C 10.64 593.16 8.28 598.04 8.00 600.00
C 9.89 627.81 18.62 658.99 34.30 681.70 C 49.97 704.42 63.63 719.50 88.77 734.23 C 113.91 748.95 139.86 757.64 172.00 758.00 C 204.14 758.36 246.14 757.82 280.00 758.00 C 313.86 758.18 352.71 757.88 387.00 758.00 C 421.29 758.12 460.19 757.87 494.00 758.00 C 527.81 758.13 569.27 758.22 601.00 757.00 C 632.73 755.78 658.41 747.63 682.77 731.77 C 707.13 715.91 720.36 701.35 735.68 677.68 C 751.00 654.01 758.24 623.10 759.00 594.00 C 759.76 564.90 752.37 532.00 737.26 507.74 C 722.14 483.49 709.95 467.93 685.75 452.25 C 661.54 436.58 637.64 426.42 606.02 424.98 C 574.41 423.53 532.76 424.07 499.00 424.00 C 465.24 423.93 426.27 424.15 392.00 424.00 C 357.73 423.85 318.84 424.33 285.00 424.00 C 251.16 423.67 209.12 424.73 177.00 424.00 C 144.88 423.27 116.48 431.84 92.03 446.03 C 67.58 460.21 50.74 474.55 36.30 497.30 C 21.87 520.06 6.79 549.12 9.00 577.00 Z"/>
</g>
<g fill="None" fill-opacity="0.0" stroke="#29B67D" stroke-opacity="0.99" stroke-width="0.3"><path d="
M 1592.00 603.00 
C 1591.91 602.36 1588.23 591.81 1590.00 587.00 C 1591.77 582.19 1590.63 582.20 1591.00 578.00
C 1589.29 547.55 1578.03 515.27 1559.75 491.25 C 1541.48 467.23 1521.96 451.96 1495.03 438.97 C 1468.10 425.99 1425.82 419.50 1395.07 426.07 C 1364.32 432.65 1338.78 443.19 1315.25 464.25 C 1291.72 485.31 1279.65 503.72 1267.92 533.92 C 1256.20 564.13 1257.45 605.24 1258.00 641.00 C 1258.55 676.76 1257.58 721.43 1258.00 758.00
C 1289.10 757.67 1325.42 758.44 1356.00 758.00 C 1386.58 757.56 1423.84 759.59 1451.98 755.98 C 1480.11 752.36 1499.34 741.57 1521.30 727.30 C 1543.26 713.04 1554.87 697.44 1568.25 676.25 C 1581.63 655.05 1589.62 628.38 1592.00 603.00 Z"/>
</g>
<g fill="None" fill-opacity="0.0" stroke="#31C8F0" stroke-opacity="0.49" stroke-width="0.3"><path d="
M 8.00 600.00 
C 8.28 598.04 10.64 593.16 10.00 589.00 C 9.36 584.84 9.31 580.95 9.00 577.00
C 8.34 583.85 7.48 592.36 8.00 600.00 Z"/>
</g>
<g fill="None" fill-opacity="0.0" stroke="#29B77E" stroke-opacity="0.49" stroke-width="0.3"><path d="
M 1592.00 603.00 
C 1592.77 594.79 1591.73 585.50 1591.00 578.00
C 1590.63 582.20 1591.77 582.19 1590.00 587.00 C 1588.23 591.81 1591.91 602.36 1592.00 603.00 Z"/>
</g>
<g fill="None" fill-opacity="0.0" stroke="#E01859" stroke-opacity="0.99" stroke-width="0.3"><path d="
M 69.00 880.00 
C 67.64 881.75 66.16 882.78 64.00 884.00
C 31.09 914.43 13.34 951.88 10.00 997.00 C 6.66 1042.12 22.55 1085.21 52.00 1119.00
C 57.09 1122.29 64.54 1130.38 68.00 1135.00
C 97.15 1160.91 133.27 1173.26 173.00 1175.00 C 212.73 1176.74 250.16 1161.16 281.00 1138.00
C 282.85 1135.62 284.64 1134.23 288.00 1132.00
C 311.11 1109.81 323.67 1093.47 334.68 1062.68 C 345.68 1031.89 343.03 991.55 343.00 956.00 C 342.97 920.45 343.02 877.25 343.00 841.00
C 309.69 841.26 270.75 840.66 238.00 841.00 C 205.25 841.34 167.76 838.77 138.07 845.07 C 108.39 851.37 92.12 862.63 69.00 880.00 Z"/>
</g>
<g fill="None" fill-opacity="0.0" stroke="#E01659" stroke-opacity="1.00" stroke-width="0.3"><path d="
M 606.00 841.00 
C 576.17 838.11 539.74 845.65 515.25 859.25 C 490.75 872.84 473.62 885.03 456.92 908.92 C 440.22 932.81 429.28 955.70 426.00 987.00 C 422.72 1018.30 425.88 1060.18 425.00 1094.00 C 424.12 1127.82 425.50 1167.40 425.00 1202.00 C 424.50 1236.60 425.47 1276.67 425.00 1311.00 C 424.53 1345.33 425.74 1386.19 425.00 1419.00 C 424.26 1451.81 432.39 1480.44 446.70 1506.31 C 461.00 1532.16 475.41 1545.54 498.75 1562.25 C 522.10 1578.96 549.73 1587.59 579.00 1590.00 C 608.27 1592.41 643.40 1586.32 668.31 1572.31 C 693.21 1558.29 710.10 1546.83 726.75 1522.75 C 743.40 1498.68 754.92 1476.26 757.67 1444.67 C 760.43 1413.08 758.56 1371.98 759.00 1338.00 C 759.44 1304.02 758.67 1264.64 759.00 1230.00 C 759.33 1195.36 758.56 1155.29 759.00 1121.00 C 759.44 1086.71 758.15 1045.65 759.00 1013.00 C 759.85 980.35 752.04 950.65 737.75 925.25 C 723.47 899.84 708.68 885.89 685.75 869.25 C 662.82 852.62 633.79 843.69 606.00 841.00 Z"/>
</g>
<g fill="None" fill-opacity="0.0" stroke="#ECB229" stroke-opacity="1.00" stroke-width="0.3"><path d="
M 1440.00 841.00 
C 1405.97 837.70 1370.09 842.59 1336.00 841.00 C 1301.91 839.41 1266.87 841.92 1233.00 841.00 C 1199.13 840.08 1163.34 841.86 1130.00 841.00 C 1096.66 840.14 1058.07 842.37 1026.00 841.00 C 993.93 839.63 964.42 844.22 938.68 856.68 C 912.94 869.14 897.96 879.91 880.25 901.25 C 862.55 922.60 852.28 944.13 846.00 971.00 C 839.72 997.87 841.18 1035.66 850.68 1061.32 C 860.17 1086.98 870.18 1105.52 889.75 1125.25 C 909.33 1144.98 926.79 1155.27 953.77 1165.23 C 980.75 1175.19 1014.95 1175.93 1047.00 1175.00 C 1079.05 1174.07 1116.92 1175.45 1150.00 1175.00 C 1183.08 1174.55 1220.84 1175.29 1254.00 1175.00 C 1287.16 1174.71 1324.67 1175.32 1357.00 1175.00 C 1389.33 1174.68 1427.66 1176.86 1456.98 1171.98 C 1486.29 1167.09 1506.48 1156.39 1528.77 1139.77 C 1551.06 1123.15 1562.15 1107.12 1575.23 1083.23 C 1588.31 1059.34 1594.64 1026.19 1593.00 998.00 C 1591.36 969.81 1582.43 942.02 1567.92 919.08 C 1553.41 896.14 1539.06 882.11 1516.70 867.30 C 1494.34 852.49 1466.57 843.57 1440.00 841.00 Z"/>
</g>
<g fill="None" fill-opacity="0.0" stroke="#E81561" stroke-opacity="0.38" stroke-width="0.3"><path d="
M 64.00 884.00 
C 66.16 882.78 67.64 881.75 69.00 880.00
C 67.20 881.35 65.59 882.53 64.00 884.00 Z"/>
</g>
<g fill="None" fill-opacity="0.0" stroke="#E21659" stroke-opacity="0.41" stroke-width="0.3"><path d="
M 52.00 1119.00 
C 57.26 1125.03 62.02 1129.69 68.00 1135.00
C 64.54 1130.38 57.09 1122.29 52.00 1119.00 Z"/>
</g>
<g fill="None" fill-opacity="0.0" stroke="#DE155C" stroke-opacity="0.37" stroke-width="0.3"><path d="
M 281.00 1138.00 
C 283.63 1136.02 285.65 1134.35 288.00 1132.00
C 284.64 1134.23 282.85 1135.62 281.00 1138.00 Z"/>
</g>
<g fill="None" fill-opacity="0.0" stroke="#EDB329" stroke-opacity="0.99" stroke-width="0.3"><path d="
M 842.00 1257.00 
C 842.08 1292.07 841.89 1334.68 842.00 1369.00 C 842.11 1403.32 839.76 1442.90 849.22 1472.78 C 858.68 1502.66 870.38 1520.92 890.77 1542.23 C 911.16 1563.54 933.75 1574.58 961.31 1583.69 C 988.86 1592.81 1030.17 1592.48 1057.78 1583.78 C 1085.38 1575.08 1107.10 1562.16 1127.25 1542.25 C 1147.40 1522.33 1160.22 1499.77 1169.07 1472.07 C 1177.92 1444.38 1178.50 1402.77 1168.93 1375.07 C 1159.36 1347.37 1149.30 1326.11 1127.75 1305.25 C 1106.20 1284.39 1087.18 1273.15 1057.22 1263.78 C 1027.27 1254.40 987.32 1257.04 953.00 1257.00 C 918.68 1256.96 876.99 1257.03 842.00 1257.00 Z"/>
</g>
<g fill="#000000" fill-opacity="0.00" stroke="None">
<path d="
M 0.00 1600.00 
L 1600.00 1600.00
L 1600.00 0.00
L 0.00 0.00
L 0.00 1600.00
M 735.00 87.00 
C 735.52 87.75 735.55 88.12 736.00 89.00
C 774.65 164.08 754.03 256.01 759.00 341.00
C 725.67 341.04 686.77 340.95 654.00 341.00 C 621.23 341.05 582.27 342.66 552.93 336.07 C 523.59 329.48 504.79 318.39 482.75 300.25 C 460.72 282.11 449.85 263.86 438.22 238.78 C 426.59 213.69 421.98 175.78 426.99 147.99 C 432.00 120.20 441.08 95.87 457.77 73.77 C 474.46 51.67 491.19 38.59 515.23 25.23 C 539.26 11.87 574.41 5.25 603.00 7.00 C 631.59 8.75 659.62 18.39 682.75 33.25 C 705.87 48.12 720.75 64.15 735.00 87.00
M 1028.00 7.00 
C 1055.77 10.36 1083.05 20.60 1105.75 37.25 C 1128.44 53.91 1143.16 69.45 1156.92 95.08 C 1170.67 120.71 1177.04 151.23 1176.00 184.00 C 1174.97 216.77 1176.60 258.70 1176.00 293.00 C 1175.40 327.30 1176.57 366.39 1176.00 401.00 C 1175.43 435.61 1176.91 476.11 1176.00 510.00 C 1175.09 543.89 1178.44 585.43 1174.67 616.67 C 1170.90 647.91 1158.57 669.04 1141.75 692.75 C 1124.92 716.45 1106.95 727.85 1082.30 741.30 C 1057.65 754.76 1019.64 760.45 991.00 757.00 C 962.36 753.55 935.27 744.69 912.31 727.70 C 889.34 710.70 875.37 695.66 861.25 669.75 C 847.12 643.85 841.53 613.75 842.00 581.00 C 842.47 548.25 841.71 506.30 842.00 472.00 C 842.29 437.70 841.70 398.63 842.00 364.00 C 842.30 329.37 841.50 288.93 842.00 255.00 C 842.50 221.07 840.17 180.07 843.93 148.93 C 847.68 117.78 858.99 95.97 876.25 72.25 C 893.52 48.54 910.50 36.76 935.69 23.69 C 960.89 10.63 997.74 3.34 1028.00 7.00
M 8.00 600.00 
C 7.48 592.36 8.34 583.85 9.00 577.00
C 6.79 549.12 21.87 520.06 36.30 497.30 C 50.74 474.55 67.58 460.21 92.03 446.03 C 116.48 431.84 144.88 423.27 177.00 424.00 C 209.12 424.73 251.16 423.67 285.00 424.00 C 318.84 424.33 357.73 423.85 392.00 424.00 C 426.27 424.15 465.24 423.93 499.00 424.00 C 532.76 424.07 574.41 423.53 606.02 424.98 C 637.64 426.42 661.54 436.58 685.75 452.25 C 709.95 467.93 722.14 483.49 737.26 507.74 C 752.37 532.00 759.76 564.90 759.00 594.00 C 758.24 623.10 751.00 654.01 735.68 677.68 C 720.36 701.35 707.13 715.91 682.77 731.77 C 658.41 747.63 632.73 755.78 601.00 757.00 C 569.27 758.22 527.81 758.13 494.00 758.00 C 460.19 757.87 421.29 758.12 387.00 758.00 C 352.71 757.88 313.86 758.18 280.00 758.00 C 246.14 757.82 204.14 758.36 172.00 758.00 C 139.86 757.64 113.91 748.95 88.77 734.23 C 63.63 719.50 49.97 704.42 34.30 681.70 C 18.62 658.99 9.89 627.81 8.00 600.00
M 1591.00 578.00 
C 1591.73 585.50 1592.77 594.79 1592.00 603.00
C 1589.62 628.38 1581.63 655.05 1568.25 676.25 C 1554.87 697.44 1543.26 713.04 1521.30 727.30 C 1499.34 741.57 1480.11 752.36 1451.98 755.98 C 1423.84 759.59 1386.58 757.56 1356.00 758.00 C 1325.42 758.44 1289.10 757.67 1258.00 758.00
C 1257.58 721.43 1258.55 676.76 1258.00 641.00 C 1257.45 605.24 1256.20 564.13 1267.92 533.92 C 1279.65 503.72 1291.72 485.31 1315.25 464.25 C 1338.78 443.19 1364.32 432.65 1395.07 426.07 C 1425.82 419.50 1468.10 425.99 1495.03 438.97 C 1521.96 451.96 1541.48 467.23 1559.75 491.25 C 1578.03 515.27 1589.29 547.55 1591.00 578.00
M 288.00 1132.00 
C 285.65 1134.35 283.63 1136.02 281.00 1138.00
C 250.16 1161.16 212.73 1176.74 173.00 1175.00 C 133.27 1173.26 97.15 1160.91 68.00 1135.00
C 62.02 1129.69 57.26 1125.03 52.00 1119.00
C 22.55 1085.21 6.66 1042.12 10.00 997.00 C 13.34 951.88 31.09 914.43 64.00 884.00
C 65.59 882.53 67.20 881.35 69.00 880.00
C 92.12 862.63 108.39 851.37 138.07 845.07 C 167.76 838.77 205.25 841.34 238.00 841.00 C 270.75 840.66 309.69 841.26 343.00 841.00
C 343.02 877.25 342.97 920.45 343.00 956.00 C 343.03 991.55 345.68 1031.89 334.68 1062.68 C 323.67 1093.47 311.11 1109.81 288.00 1132.00
M 606.00 841.00 
C 633.79 843.69 662.82 852.62 685.75 869.25 C 708.68 885.89 723.47 899.84 737.75 925.25 C 752.04 950.65 759.85 980.35 759.00 1013.00 C 758.15 1045.65 759.44 1086.71 759.00 1121.00 C 758.56 1155.29 759.33 1195.36 759.00 1230.00 C 758.67 1264.64 759.44 1304.02 759.00 1338.00 C 758.56 1371.98 760.43 1413.08 757.67 1444.67 C 754.92 1476.26 743.40 1498.68 726.75 1522.75 C 710.10 1546.83 693.21 1558.29 668.31 1572.31 C 643.40 1586.32 608.27 1592.41 579.00 1590.00 C 549.73 1587.59 522.10 1578.96 498.75 1562.25 C 475.41 1545.54 461.00 1532.16 446.70 1506.31 C 432.39 1480.44 424.26 1451.81 425.00 1419.00 C 425.74 1386.19 424.53 1345.33 425.00 1311.00 C 425.47 1276.67 424.50 1236.60 425.00 1202.00 C 425.50 1167.40 424.12 1127.82 425.00 1094.00 C 425.88 1060.18 422.72 1018.30 426.00 987.00 C 429.28 955.70 440.22 932.81 456.92 908.92 C 473.62 885.03 490.75 872.84 515.25 859.25 C 539.74 845.65 576.17 838.11 606.00 841.00
M 1440.00 841.00 
C 1466.57 843.57 1494.34 852.49 1516.70 867.30 C 1539.06 882.11 1553.41 896.14 1567.92 919.08 C 1582.43 942.02 1591.36 969.81 1593.00 998.00 C 1594.64 1026.19 1588.31 1059.34 1575.23 1083.23 C 1562.15 1107.12 1551.06 1123.15 1528.77 1139.77 C 1506.48 1156.39 1486.29 1167.09 1456.98 1171.98 C 1427.66 1176.86 1389.33 1174.68 1357.00 1175.00 C 1324.67 1175.32 1287.16 1174.71 1254.00 1175.00 C 1220.84 1175.29 1183.08 1174.55 1150.00 1175.00 C 1116.92 1175.45 1079.05 1174.07 1047.00 1175.00 C 1014.95 1175.93 980.75 1175.19 953.77 1165.23 C 926.79 1155.27 909.33 1144.98 889.75 1125.25 C 870.18 1105.52 860.17 1086.98 850.68 1061.32 C 841.18 1035.66 839.72 997.87 846.00 971.00 C 852.28 944.13 862.55 922.60 880.25 901.25 C 897.96 879.91 912.94 869.14 938.68 856.68 C 964.42 844.22 993.93 839.63 1026.00 841.00 C 1058.07 842.37 1096.66 840.14 1130.00 841.00 C 1163.34 841.86 1199.13 840.08 1233.00 841.00 C 1266.87 841.92 1301.91 839.41 1336.00 841.00 C 1370.09 842.59 1405.97 837.70 1440.00 841.00
M 842.00 1257.00 
C 876.99 1257.03 918.68 1256.96 953.00 1257.00 C 987.32 1257.04 1027.27 1254.40 1057.22 1263.78 C 1087.18 1273.15 1106.20 1284.39 1127.75 1305.25 C 1149.30 1326.11 1159.36 1347.37 1168.93 1375.07 C 1178.50 1402.77 1177.92 1444.38 1169.07 1472.07 C 1160.22 1499.77 1147.40 1522.33 1127.25 1542.25 C 1107.10 1562.16 1085.38 1575.08 1057.78 1583.78 C 1030.17 1592.48 988.86 1592.81 961.31 1583.69 C 933.75 1574.58 911.16 1563.54 890.77 1542.23 C 870.38 1520.92 858.68 1502.66 849.22 1472.78 C 839.76 1442.90 842.11 1403.32 842.00 1369.00 C 841.89 1334.68 842.08 1292.07 842.00 1257.00 Z"/>
</g>
<g fill="#32C6F0" fill-opacity="0.99" stroke="None">
<path d="
M 736.00 89.00 
C 734.98 87.73 735.17 87.42 735.00 87.00
C 720.75 64.15 705.87 48.12 682.75 33.25 C 659.62 18.39 631.59 8.75 603.00 7.00 C 574.41 5.25 539.26 11.87 515.23 25.23 C 491.19 38.59 474.46 51.67 457.77 73.77 C 441.08 95.87 432.00 120.20 426.99 147.99 C 421.98 175.78 426.59 213.69 438.22 238.78 C 449.85 263.86 460.72 282.11 482.75 300.25 C 504.79 318.39 523.59 329.48 552.93 336.07 C 582.27 342.66 621.23 341.05 654.00 341.00 C 686.77 340.95 725.67 341.04 759.00 341.00
C 754.03 256.01 774.65 164.08 736.00 89.00 Z"/>
</g>
<g fill="#2AB67D" fill-opacity="1.00" stroke="None">
<path d="
M 1028.00 7.00 
C 997.74 3.34 960.89 10.63 935.69 23.69 C 910.50 36.76 893.52 48.54 876.25 72.25 C 858.99 95.97 847.68 117.78 843.93 148.93 C 840.17 180.07 842.50 221.07 842.00 255.00 C 841.50 288.93 842.30 329.37 842.00 364.00 C 841.70 398.63 842.29 437.70 842.00 472.00 C 841.71 506.30 842.47 548.25 842.00 581.00 C 841.53 613.75 847.12 643.85 861.25 669.75 C 875.37 695.66 889.34 710.70 912.31 727.70 C 935.27 744.69 962.36 753.55 991.00 757.00 C 1019.64 760.45 1057.65 754.76 1082.30 741.30 C 1106.95 727.85 1124.92 716.45 1141.75 692.75 C 1158.57 669.04 1170.90 647.91 1174.67 616.67 C 1178.44 585.43 1175.09 543.89 1176.00 510.00 C 1176.91 476.11 1175.43 435.61 1176.00 401.00 C 1176.57 366.39 1175.40 327.30 1176.00 293.00 C 1176.60 258.70 1174.97 216.77 1176.00 184.00 C 1177.04 151.23 1170.67 120.71 1156.92 95.08 C 1143.16 69.45 1128.44 53.91 1105.75 37.25 C 1083.05 20.60 1055.77 10.36 1028.00 7.00 Z"/>
</g>
<g fill="#1AADF4" fill-opacity="0.14" stroke="None">
<path d="
M 736.00 89.00 
C 735.55 88.12 735.52 87.75 735.00 87.00
C 735.17 87.42 734.98 87.73 736.00 89.00 Z"/>
</g>
<g fill="#33C6EF" fill-opacity="1.00" stroke="None">
<path d="
M 9.00 577.00 
C 9.31 580.95 9.36 584.84 10.00 589.00 C 10.64 593.16 8.28 598.04 8.00 600.00
C 9.89 627.81 18.62 658.99 34.30 681.70 C 49.97 704.42 63.63 719.50 88.77 734.23 C 113.91 748.95 139.86 757.64 172.00 758.00 C 204.14 758.36 246.14 757.82 280.00 758.00 C 313.86 758.18 352.71 757.88 387.00 758.00 C 421.29 758.12 460.19 757.87 494.00 758.00 C 527.81 758.13 569.27 758.22 601.00 757.00 C 632.73 755.78 658.41 747.63 682.77 731.77 C 707.13 715.91 720.36 701.35 735.68 677.68 C 751.00 654.01 758.24 623.10 759.00 594.00 C 759.76 564.90 752.37 532.00 737.26 507.74 C 722.14 483.49 709.95 467.93 685.75 452.25 C 661.54 436.58 637.64 426.42 606.02 424.98 C 574.41 423.53 532.76 424.07 499.00 424.00 C 465.24 423.93 426.27 424.15 392.00 424.00 C 357.73 423.85 318.84 424.33 285.00 424.00 C 251.16 423.67 209.12 424.73 177.00 424.00 C 144.88 423.27 116.48 431.84 92.03 446.03 C 67.58 460.21 50.74 474.55 36.30 497.30 C 21.87 520.06 6.79 549.12 9.00 577.00 Z"/>
</g>
<g fill="#29B67D" fill-opacity="0.99" stroke="None">
<path d="
M 1592.00 603.00 
C 1591.91 602.36 1588.23 591.81 1590.00 587.00 C 1591.77 582.19 1590.63 582.20 1591.00 578.00
C 1589.29 547.55 1578.03 515.27 1559.75 491.25 C 1541.48 467.23 1521.96 451.96 1495.03 438.97 C 1468.10 425.99 1425.82 419.50 1395.07 426.07 C 1364.32 432.65 1338.78 443.19 1315.25 464.25 C 1291.72 485.31 1279.65 503.72 1267.92 533.92 C 1256.20 564.13 1257.45 605.24 1258.00 641.00 C 1258.55 676.76 1257.58 721.43 1258.00 758.00
C 1289.10 757.67 1325.42 758.44 1356.00 758.00 C 1386.58 757.56 1423.84 759.59 1451.98 755.98 C 1480.11 752.36 1499.34 741.57 1521.30 727.30 C 1543.26 713.04 1554.87 697.44 1568.25 676.25 C 1581.63 655.05 1589.62 628.38 1592.00 603.00 Z"/>
</g>
<g fill="#31C8F0" fill-opacity="0.49" stroke="None">
<path d="
M 8.00 600.00 
C 8.28 598.04 10.64 593.16 10.00 589.00 C 9.36 584.84 9.31 580.95 9.00 577.00
C 8.34 583.85 7.48 592.36 8.00 600.00 Z"/>
</g>
<g fill="#29B77E" fill-opacity="0.49" stroke="None">
<path d="
M 1592.00 603.00 
C 1592.77 594.79 1591.73 585.50 1591.00 578.00
C 1590.63 582.20 1591.77 582.19 1590.00 587.00 C 1588.23 591.81 1591.91 602.36 1592.00 603.00 Z"/>
</g>
<g fill="#E01859" fill-opacity="0.99" stroke="None">
<path d="
M 69.00 880.00 
C 67.64 881.75 66.16 882.78 64.00 884.00
C 31.09 914.43 13.34 951.88 10.00 997.00 C 6.66 1042.12 22.55 1085.21 52.00 1119.00
C 57.09 1122.29 64.54 1130.38 68.00 1135.00
C 97.15 1160.91 133.27 1173.26 173.00 1175.00 C 212.73 1176.74 250.16 1161.16 281.00 1138.00
C 282.85 1135.62 284.64 1134.23 288.00 1132.00
C 311.11 1109.81 323.67 1093.47 334.68 1062.68 C 345.68 1031.89 343.03 991.55 343.00 956.00 C 342.97 920.45 343.02 877.25 343.00 841.00
C 309.69 841.26 270.75 840.66 238.00 841.00 C 205.25 841.34 167.76 838.77 138.07 845.07 C 108.39 851.37 92.12 862.63 69.00 880.00 Z"/>
</g>
<g fill="#E01659" fill-opacity="1.00" stroke="None">
<path d="
M 606.00 841.00 
C 576.17 838.11 539.74 845.65 515.25 859.25 C 490.75 872.84 473.62 885.03 456.92 908.92 C 440.22 932.81 429.28 955.70 426.00 987.00 C 422.72 1018.30 425.88 1060.18 425.00 1094.00 C 424.12 1127.82 425.50 1167.40 425.00 1202.00 C 424.50 1236.60 425.47 1276.67 425.00 1311.00 C 424.53 1345.33 425.74 1386.19 425.00 1419.00 C 424.26 1451.81 432.39 1480.44 446.70 1506.31 C 461.00 1532.16 475.41 1545.54 498.75 1562.25 C 522.10 1578.96 549.73 1587.59 579.00 1590.00 C 608.27 1592.41 643.40 1586.32 668.31 1572.31 C 693.21 1558.29 710.10 1546.83 726.75 1522.75 C 743.40 1498.68 754.92 1476.26 757.67 1444.67 C 760.43 1413.08 758.56 1371.98 759.00 1338.00 C 759.44 1304.02 758.67 1264.64 759.00 1230.00 C 759.33 1195.36 758.56 1155.29 759.00 1121.00 C 759.44 1086.71 758.15 1045.65 759.00 1013.00 C 759.85 980.35 752.04 950.65 737.75 925.25 C 723.47 899.84 708.68 885.89 685.75 869.25 C 662.82 852.62 633.79 843.69 606.00 841.00 Z"/>
</g>
<g fill="#ECB229" fill-opacity="1.00" stroke="None">
<path d="
M 1440.00 841.00 
C 1405.97 837.70 1370.09 842.59 1336.00 841.00 C 1301.91 839.41 1266.87 841.92 1233.00 841.00 C 1199.13 840.08 1163.34 841.86 1130.00 841.00 C 1096.66 840.14 1058.07 842.37 1026.00 841.00 C 993.93 839.63 964.42 844.22 938.68 856.68 C 912.94 869.14 897.96 879.91 880.25 901.25 C 862.55 922.60 852.28 944.13 846.00 971.00 C 839.72 997.87 841.18 1035.66 850.68 1061.32 C 860.17 1086.98 870.18 1105.52 889.75 1125.25 C 909.33 1144.98 926.79 1155.27 953.77 1165.23 C 980.75 1175.19 1014.95 1175.93 1047.00 1175.00 C 1079.05 1174.07 1116.92 1175.45 1150.00 1175.00 C 1183.08 1174.55 1220.84 1175.29 1254.00 1175.00 C 1287.16 1174.71 1324.67 1175.32 1357.00 1175.00 C 1389.33 1174.68 1427.66 1176.86 1456.98 1171.98 C 1486.29 1167.09 1506.48 1156.39 1528.77 1139.77 C 1551.06 1123.15 1562.15 1107.12 1575.23 1083.23 C 1588.31 1059.34 1594.64 1026.19 1593.00 998.00 C 1591.36 969.81 1582.43 942.02 1567.92 919.08 C 1553.41 896.14 1539.06 882.11 1516.70 867.30 C 1494.34 852.49 1466.57 843.57 1440.00 841.00 Z"/>
</g>
<g fill="#E81561" fill-opacity="0.38" stroke="None">
<path d="
M 64.00 884.00 
C 66.16 882.78 67.64 881.75 69.00 880.00
C 67.20 881.35 65.59 882.53 64.00 884.00 Z"/>
</g>
<g fill="#E21659" fill-opacity="0.41" stroke="None">
<path d="
M 52.00 1119.00 
C 57.26 1125.03 62.02 1129.69 68.00 1135.00
C 64.54 1130.38 57.09 1122.29 52.00 1119.00 Z"/>
</g>
<g fill="#DE155C" fill-opacity="0.37" stroke="None">
<path d="
M 281.00 1138.00 
C 283.63 1136.02 285.65 1134.35 288.00 1132.00
C 284.64 1134.23 282.85 1135.62 281.00 1138.00 Z"/>
</g>
<g fill="#EDB329" fill-opacity="0.99" stroke="None">
<path d="
M 842.00 1257.00 
C 842.08 1292.07 841.89 1334.68 842.00 1369.00 C 842.11 1403.32 839.76 1442.90 849.22 1472.78 C 858.68 1502.66 870.38 1520.92 890.77 1542.23 C 911.16 1563.54 933.75 1574.58 961.31 1583.69 C 988.86 1592.81 1030.17 1592.48 1057.78 1583.78 C 1085.38 1575.08 1107.10 1562.16 1127.25 1542.25 C 1147.40 1522.33 1160.22 1499.77 1169.07 1472.07 C 1177.92 1444.38 1178.50 1402.77 1168.93 1375.07 C 1159.36 1347.37 1149.30 1326.11 1127.75 1305.25 C 1106.20 1284.39 1087.18 1273.15 1057.22 1263.78 C 1027.27 1254.40 987.32 1257.04 953.00 1257.00 C 918.68 1256.96 876.99 1257.03 842.00 1257.00 Z"/>
</g>
</svg>