<svg xmlns="http://www.w3.org/2000/svg" xmlns:v="https://svgstorm.com"
viewBox = "0 0 1619 1581"
width="1619"
height="1581">
<g fill="None" fill-opacity="0.0" stroke="#000000" stroke-opacity="0.00" stroke-width="0.3"><path d="
M 0.00 236.00 
C 12.49 179.42 38.87 124.61 83.00 83.00
C 87.41 78.84 92.22 74.77 97.00 71.00
C 120.61 52.36 138.73 37.29 168.07 26.07 C 197.42 14.85 224.75 4.27 258.74 2.40 C 292.74 0.54 336.18 2.57 373.00 2.00 C 409.82 1.43 452.09 2.27 490.00 2.00 C 527.91 1.73 567.60 2.13 606.00 2.00 C 644.40 1.87 684.40 2.08 723.00 2.00 C 761.60 1.92 800.35 2.07 839.00 2.00 C 877.65 1.93 917.43 2.12 956.00 2.00 C 994.57 1.88 1033.69 2.25 1072.00 2.00 C 1110.31 1.75 1151.29 2.54 1189.00 2.00 C 1226.71 1.46 1268.67 3.21 1305.00 2.00 C 1341.33 0.79 1374.75 3.41 1406.03 11.97 C 1437.30 20.54 1461.22 31.10 1486.75 47.25 C 1512.27 63.41 1529.11 79.31 1549.25 101.75 C 1569.39 124.20 1581.61 145.61 1594.32 172.68 C 1607.03 199.75 1614.77 234.45 1619.00 265.00
L 1619.00 0.00
L 0.00 0.00
L 0.00 236.00 Z"/>
</g>
<g fill="None" fill-opacity="0.0" stroke="#310000" stroke-opacity="1.00" stroke-width="0.3"><path d="
M 97.00 71.00 
C 93.84 75.31 87.81 80.38 83.00 83.00
C 38.87 124.61 12.49 179.42 0.00 236.00
L 0.00 1349.00
C 12.59 1406.73 41.88 1462.12 86.75 1504.25 C 131.62 1546.38 191.19 1572.61 250.00 1581.00
L 252.00 1581.00
C 255.42 1577.41 262.41 1578.96 266.00 1581.00
L 1340.00 1581.00
C 1347.93 1578.62 1359.23 1578.93 1367.00 1579.00
C 1389.39 1579.20 1413.51 1569.84 1434.07 1563.07 C 1454.63 1556.31 1472.18 1545.49 1490.00 1534.00
C 1491.60 1532.36 1494.35 1530.01 1497.00 1529.00
C 1507.95 1521.57 1517.37 1514.45 1527.25 1505.25 C 1537.13 1496.05 1545.10 1486.77 1553.75 1476.75 C 1562.41 1466.73 1569.47 1456.40 1576.77 1444.77 C 1584.07 1433.14 1589.11 1421.54 1595.77 1408.77 C 1602.43 1396.00 1603.84 1380.89 1609.33 1367.33 C 1614.82 1353.77 1612.93 1334.88 1618.00 1321.00
C 1617.03 1301.49 1618.29 1281.68 1618.00 1259.00 C 1617.71 1236.32 1618.13 1211.18 1618.00 1188.00 C 1617.87 1164.82 1618.06 1140.37 1618.00 1117.00 C 1617.94 1093.63 1618.03 1070.47 1618.00 1047.00 C 1617.97 1023.53 1618.01 999.54 1618.00 976.00 C 1617.99 952.46 1618.01 928.53 1618.00 905.00 C 1617.99 881.47 1618.00 858.54 1618.00 835.00 C 1618.00 811.46 1618.00 787.57 1618.00 764.00 C 1618.00 740.43 1617.99 716.54 1618.00 693.00 C 1618.01 669.46 1617.99 646.53 1618.00 623.00 C 1618.01 599.47 1617.97 575.54 1618.00 552.00 C 1618.03 528.46 1617.93 504.46 1618.00 481.00 C 1618.07 457.54 1617.84 434.34 1618.00 411.00 C 1618.16 387.66 1617.66 363.12 1618.00 340.00 C 1618.34 316.88 1616.78 293.33 1619.00 272.00
L 1619.00 265.00
C 1614.77 234.45 1607.03 199.75 1594.32 172.68 C 1581.61 145.61 1569.39 124.20 1549.25 101.75 C 1529.11 79.31 1512.27 63.41 1486.75 47.25 C 1461.22 31.10 1437.30 20.54 1406.03 11.97 C 1374.75 3.41 1341.33 0.79 1305.00 2.00 C 1268.67 3.21 1226.71 1.46 1189.00 2.00 C 1151.29 2.54 1110.31 1.75 1072.00 2.00 C 1033.69 2.25 994.57 1.88 956.00 2.00 C 917.43 2.12 877.65 1.93 839.00 2.00 C 800.35 2.07 761.60 1.92 723.00 2.00 C 684.40 2.08 644.40 1.87 606.00 2.00 C 567.60 2.13 527.91 1.73 490.00 2.00 C 452.09 2.27 409.82 1.43 373.00 2.00 C 336.18 2.57 292.74 0.54 258.74 2.40 C 224.75 4.27 197.42 14.85 168.07 26.07 C 138.73 37.29 120.61 52.36 97.00 71.00
M 1182.00 515.00 
C 1177.18 517.60 1171.73 520.22 1166.00 521.00
C 1152.86 522.79 1138.15 522.67 1125.00 521.00
C 1119.81 520.34 1116.18 518.13 1112.00 516.00
C 1083.84 505.99 1061.57 476.92 1062.00 447.00
C 1061.27 439.76 1061.29 433.00 1062.00 426.00
C 1061.43 387.05 1098.82 356.59 1137.00 353.00 C 1175.19 349.42 1218.71 371.51 1226.92 413.08 C 1235.14 454.64 1219.97 494.51 1182.00 515.00
M 744.00 407.00 
C 755.39 411.20 753.46 428.51 758.98 438.02 C 764.49 447.54 766.46 461.38 770.98 472.02 C 775.49 482.67 779.33 495.15 783.78 506.22 C 788.23 517.30 791.22 529.38 795.33 540.67 C 799.44 551.96 803.61 563.80 807.92 575.08 C 812.24 586.35 815.85 597.77 819.97 609.03 C 824.10 620.28 827.72 631.66 831.98 643.02 C 836.23 654.39 839.83 666.44 844.32 677.68 C 848.82 688.91 851.56 700.76 855.98 712.02 C 860.39 723.29 864.41 735.16 868.33 746.67 C 872.24 758.19 876.94 769.13 880.33 780.67 C 883.71 792.22 889.29 802.47 892.98 814.03 C 896.66 825.58 900.75 837.61 904.98 849.02 C 909.21 860.44 913.02 871.53 916.98 883.03 C 920.93 894.52 925.18 906.39 929.33 917.67 C 933.47 928.96 937.96 940.14 941.32 951.68 C 944.68 963.21 950.76 974.38 953.92 986.08 C 957.09 997.77 962.32 1008.54 966.30 1019.70 C 970.29 1030.86 973.69 1043.25 977.99 1054.01 C 982.29 1064.77 986.03 1078.47 990.31 1088.69 C 994.59 1098.92 1003.37 1118.01 987.00 1118.00 C 970.63 1117.99 955.66 1118.28 940.00 1118.00 C 924.34 1117.72 909.01 1118.77 894.00 1118.00 C 878.99 1117.23 862.15 1119.77 848.00 1118.00 C 833.86 1116.23 835.05 1098.96 830.03 1088.97 C 825.00 1078.99 823.72 1064.74 819.02 1053.98 C 814.33 1043.21 810.34 1031.05 806.23 1019.77 C 802.12 1008.49 798.84 996.74 794.68 985.32 C 790.51 973.90 786.23 961.62 783.00 950.00
C 699.00 950.00 615.00 950.00 531.00 950.00
C 524.39 968.61 519.36 988.17 512.68 1006.68 C 506.00 1025.19 501.25 1045.93 494.07 1064.07 C 486.89 1082.22 486.22 1105.13 471.00 1117.00
C 470.75 1117.09 470.30 1117.78 470.00 1118.00
C 465.54 1121.28 457.89 1118.24 452.00 1119.00 C 446.11 1119.76 438.22 1118.68 432.00 1119.00 C 425.78 1119.32 418.25 1118.90 412.00 1119.00 C 405.75 1119.10 399.10 1119.10 393.00 1119.00 C 386.90 1118.90 378.71 1119.32 373.00 1119.00 C 367.29 1118.68 357.68 1119.76 353.00 1119.00 C 348.32 1118.24 335.99 1121.62 335.00 1117.00
C 325.48 1108.03 339.32 1089.37 341.33 1078.33 C 343.34 1067.28 352.14 1053.16 354.98 1040.98 C 357.82 1028.79 364.23 1015.38 367.93 1002.93 C 371.63 990.47 377.27 977.81 381.33 965.33 C 385.38 952.84 390.34 940.01 394.33 927.33 C 398.32 914.65 403.00 901.91 407.32 889.32 C 411.64 876.73 416.90 864.73 420.92 851.92 C 424.95 839.12 429.62 826.68 433.93 813.93 C 438.23 801.17 442.77 787.85 447.33 775.33 C 451.89 762.81 455.90 749.97 460.32 737.32 C 464.75 724.67 469.38 712.52 473.92 699.92 C 478.47 687.32 482.16 674.51 486.93 661.93 C 491.69 649.34 495.35 636.43 499.78 623.78 C 504.21 611.12 508.74 598.70 512.99 585.99 C 517.24 573.28 522.09 561.18 526.32 548.32 C 530.56 535.46 534.76 523.17 539.33 510.33 C 543.89 497.48 548.07 485.74 552.32 472.32 C 556.58 458.90 560.00 442.89 560.00 428.00
C 560.00 422.75 559.30 416.45 561.00 412.00
C 561.79 409.93 562.16 409.36 564.00 408.00
C 574.15 400.50 593.57 407.74 607.00 406.00 C 620.43 404.26 638.81 406.23 653.00 406.00 C 667.19 405.77 684.80 404.86 699.00 406.00 C 713.20 407.14 731.22 402.28 744.00 407.00
M 1113.00 579.00 
C 1113.50 579.00 1114.00 579.00 1114.00 579.00
C 1117.34 576.53 1125.63 578.02 1130.00 578.00 C 1134.37 577.98 1142.71 576.57 1146.00 579.00
C 1146.50 579.00 1147.00 579.00 1147.00 579.00
C 1150.53 576.39 1171.54 576.44 1175.00 579.00
C 1175.50 579.00 1176.00 579.00 1176.00 579.00
C 1180.12 575.95 1187.66 578.75 1193.00 578.00 C 1198.34 577.25 1206.30 578.03 1211.00 579.00
C 1214.27 579.68 1215.81 579.23 1218.00 582.00
C 1225.31 591.26 1218.03 608.87 1220.00 621.00 C 1221.97 633.13 1219.11 649.03 1220.00 662.00 C 1220.89 674.97 1219.60 689.65 1220.00 703.00 C 1220.40 716.35 1219.82 730.48 1220.00 744.00 C 1220.18 757.52 1219.93 771.40 1220.00 785.00 C 1220.07 798.60 1219.98 812.37 1220.00 826.00 C 1220.02 839.63 1220.02 853.36 1220.00 867.00 C 1219.98 880.64 1220.07 894.37 1220.00 908.00 C 1219.93 921.63 1220.16 935.41 1220.00 949.00 C 1219.84 962.59 1220.36 976.49 1220.00 990.00 C 1219.64 1003.51 1220.79 1017.68 1220.00 1031.00 C 1219.21 1044.32 1221.76 1059.10 1220.00 1072.00 C 1218.24 1084.90 1224.26 1101.75 1219.00 1113.00
C 1214.45 1122.73 1200.57 1116.78 1191.00 1118.00 C 1181.43 1119.22 1167.49 1117.27 1157.00 1118.00 C 1146.51 1118.73 1133.84 1117.27 1123.00 1118.00 C 1112.16 1118.73 1099.86 1116.79 1089.00 1118.00 C 1078.14 1119.21 1067.02 1117.45 1068.00 1105.00 C 1068.98 1092.55 1067.56 1082.84 1068.00 1071.00 C 1068.44 1059.16 1067.80 1048.55 1068.00 1037.00 C 1068.20 1025.45 1067.91 1014.42 1068.00 1003.00 C 1068.09 991.58 1067.96 980.34 1068.00 969.00 C 1068.04 957.66 1067.98 946.27 1068.00 935.00 C 1068.02 923.73 1067.99 913.26 1068.00 902.00 C 1068.01 890.74 1068.00 879.30 1068.00 868.00 C 1068.00 856.70 1068.00 845.32 1068.00 834.00 C 1068.00 822.68 1068.01 811.34 1068.00 800.00 C 1067.99 788.66 1068.02 777.37 1068.00 766.00 C 1067.98 754.63 1068.05 743.42 1068.00 732.00 C 1067.95 720.58 1068.11 709.52 1068.00 698.00 C 1067.89 686.48 1068.26 675.75 1068.00 664.00 C 1067.74 652.25 1068.57 642.26 1068.00 630.00 C 1067.43 617.74 1069.26 609.38 1068.00 596.00 C 1066.74 582.62 1071.42 579.00 1085.00 579.00
C 1091.15 578.40 1107.54 574.97 1113.00 579.00 Z"/>
</g>
<g fill="None" fill-opacity="0.0" stroke="#300000" stroke-opacity="0.43" stroke-width="0.3"><path d="
M 83.00 83.00 
C 87.81 80.38 93.84 75.31 97.00 71.00
C 92.22 74.77 87.41 78.84 83.00 83.00 Z"/>
</g>
<g fill="None" fill-opacity="0.0" stroke="#310000" stroke-opacity="0.26" stroke-width="0.3"><path d="
M 1618.00 1321.00 
C 1618.22 1320.41 1617.75 1318.98 1619.00 1319.00
L 1619.00 272.00
C 1616.78 293.33 1618.34 316.88 1618.00 340.00 C 1617.66 363.12 1618.16 387.66 1618.00 411.00 C 1617.84 434.34 1618.07 457.54 1618.00 481.00 C 1617.93 504.46 1618.03 528.46 1618.00 552.00 C 1617.97 575.54 1618.01 599.47 1618.00 623.00 C 1617.99 646.53 1618.01 669.46 1618.00 693.00 C 1617.99 716.54 1618.00 740.43 1618.00 764.00 C 1618.00 787.57 1618.00 811.46 1618.00 835.00 C 1618.00 858.54 1617.99 881.47 1618.00 905.00 C 1618.01 928.53 1617.99 952.46 1618.00 976.00 C 1618.01 999.54 1617.97 1023.53 1618.00 1047.00 C 1618.03 1070.47 1617.94 1093.63 1618.00 1117.00 C 1618.06 1140.37 1617.87 1164.82 1618.00 1188.00 C 1618.13 1211.18 1617.71 1236.32 1618.00 1259.00 C 1618.29 1281.68 1617.03 1301.49 1618.00 1321.00 Z"/>
</g>
<g fill="None" fill-opacity="0.0" stroke="#FD9900" stroke-opacity="1.00" stroke-width="0.3"><path d="
M 1062.00 426.00 
C 1062.10 432.99 1062.10 440.01 1062.00 447.00
C 1061.57 476.92 1083.84 505.99 1112.00 516.00
C 1115.97 517.41 1121.17 520.15 1125.00 521.00
C 1138.15 522.67 1152.86 522.79 1166.00 521.00
C 1170.70 519.82 1177.16 516.95 1182.00 515.00
C 1219.97 494.51 1235.14 454.64 1226.92 413.08 C 1218.71 371.51 1175.19 349.42 1137.00 353.00 C 1098.82 356.59 1061.43 387.05 1062.00 426.00 Z"/>
</g>
<g fill="None" fill-opacity="0.0" stroke="#874000" stroke-opacity="1.00" stroke-width="0.3"><path d="
M 564.00 408.00 
C 573.76 403.02 587.89 408.49 599.00 407.00 C 610.11 405.51 623.43 407.48 635.00 407.00 C 646.57 406.52 659.25 406.77 671.00 407.00 C 682.75 407.23 695.23 405.92 707.00 407.00 C 718.77 408.08 732.48 404.45 744.00 407.00
C 731.22 402.28 713.20 407.14 699.00 406.00 C 684.80 404.86 667.19 405.77 653.00 406.00 C 638.81 406.23 620.43 404.26 607.00 406.00 C 593.57 407.74 574.15 400.50 564.00 408.00 Z"/>
</g>
<g fill="None" fill-opacity="0.0" stroke="#FE9900" stroke-opacity="1.00" stroke-width="0.3"><path d="
M 564.00 408.00 
C 562.16 409.36 561.79 409.93 561.00 412.00
C 559.94 416.56 560.40 423.90 560.00 428.00
C 560.00 442.89 556.58 458.90 552.32 472.32 C 548.07 485.74 543.89 497.48 539.33 510.33 C 534.76 523.17 530.56 535.46 526.32 548.32 C 522.09 561.18 517.24 573.28 512.99 585.99 C 508.74 598.70 504.21 611.12 499.78 623.78 C 495.35 636.43 491.69 649.34 486.93 661.93 C 482.16 674.51 478.47 687.32 473.92 699.92 C 469.38 712.52 464.75 724.67 460.32 737.32 C 455.90 749.97 451.89 762.81 447.33 775.33 C 442.77 787.85 438.23 801.17 433.93 813.93 C 429.62 826.68 424.95 839.12 420.92 851.92 C 416.90 864.73 411.64 876.73 407.32 889.32 C 403.00 901.91 398.32 914.65 394.33 927.33 C 390.34 940.01 385.38 952.84 381.33 965.33 C 377.27 977.81 371.63 990.47 367.93 1002.93 C 364.23 1015.38 357.82 1028.79 354.98 1040.98 C 352.14 1053.16 343.34 1067.28 341.33 1078.33 C 339.32 1089.37 325.48 1108.03 335.00 1117.00
C 335.26 1117.25 336.00 1117.00 336.00 1117.00
C 347.06 1117.00 357.92 1116.75 369.00 1117.00 C 380.08 1117.25 391.95 1116.35 403.00 1117.00 C 414.05 1117.65 426.18 1115.52 437.00 1117.00 C 447.82 1118.48 460.75 1113.71 471.00 1117.00
C 486.22 1105.13 486.89 1082.22 494.07 1064.07 C 501.25 1045.93 506.00 1025.19 512.68 1006.68 C 519.36 988.17 524.39 968.61 531.00 950.00
C 615.00 950.00 699.00 950.00 783.00 950.00
C 786.23 961.62 790.51 973.90 794.68 985.32 C 798.84 996.74 802.12 1008.49 806.23 1019.77 C 810.34 1031.05 814.33 1043.21 819.02 1053.98 C 823.72 1064.74 825.00 1078.99 830.03 1088.97 C 835.05 1098.96 833.86 1116.23 848.00 1118.00 C 862.15 1119.77 878.99 1117.23 894.00 1118.00 C 909.01 1118.77 924.34 1117.72 940.00 1118.00 C 955.66 1118.28 970.63 1117.99 987.00 1118.00 C 1003.37 1118.01 994.59 1098.92 990.31 1088.69 C 986.03 1078.47 982.29 1064.77 977.99 1054.01 C 973.69 1043.25 970.29 1030.86 966.30 1019.70 C 962.32 1008.54 957.09 997.77 953.92 986.08 C 950.76 974.38 944.68 963.21 941.32 951.68 C 937.96 940.14 933.47 928.96 929.33 917.67 C 925.18 906.39 920.93 894.52 916.98 883.03 C 913.02 871.53 909.21 860.44 904.98 849.02 C 900.75 837.61 896.66 825.58 892.98 814.03 C 889.29 802.47 883.71 792.22 880.33 780.67 C 876.94 769.13 872.24 758.19 868.33 746.67 C 864.41 735.16 860.39 723.29 855.98 712.02 C 851.56 700.76 848.82 688.91 844.32 677.68 C 839.83 666.44 836.23 654.39 831.98 643.02 C 827.72 631.66 824.10 620.28 819.97 609.03 C 815.85 597.77 812.24 586.35 807.92 575.08 C 803.61 563.80 799.44 551.96 795.33 540.67 C 791.22 529.38 788.23 517.30 783.78 506.22 C 779.33 495.15 775.49 482.67 770.98 472.02 C 766.46 461.38 764.49 447.54 758.98 438.02 C 753.46 428.51 755.39 411.20 744.00 407.00
C 732.48 404.45 718.77 408.08 707.00 407.00 C 695.23 405.92 682.75 407.23 671.00 407.00 C 659.25 406.77 646.57 406.52 635.00 407.00 C 623.43 407.48 610.11 405.51 599.00 407.00 C 587.89 408.49 573.76 403.02 564.00 408.00
M 741.00 812.00 
C 738.20 816.21 726.58 811.80 721.00 813.00 C 715.42 814.20 705.47 812.39 699.00 813.00 C 692.53 813.61 685.73 813.01 679.00 813.00 C 672.27 812.99 663.86 813.10 657.00 813.00 C 650.14 812.90 642.77 813.26 636.00 813.00 C 629.23 812.74 620.44 813.57 614.00 813.00 C 607.56 812.43 597.51 814.26 592.00 813.00 C 586.49 811.75 573.68 816.25 571.00 812.00
C 568.53 808.09 576.24 800.57 576.77 795.77 C 577.30 790.97 580.29 783.16 581.98 777.98 C 583.66 772.79 586.55 766.42 587.78 760.78 C 589.00 755.13 591.42 749.69 592.93 743.93 C 594.43 738.16 596.54 731.90 597.98 725.98 C 599.41 720.05 601.66 713.94 602.93 707.93 C 604.19 701.91 607.48 697.68 608.78 691.78 C 610.07 685.88 612.50 679.83 613.93 673.93 C 615.36 668.02 617.93 662.23 619.32 656.32 C 620.71 650.41 623.16 645.70 624.92 639.92 C 626.69 634.15 627.92 627.85 630.26 622.26 C 632.59 616.67 633.53 610.47 635.78 604.78 C 638.02 599.08 638.66 593.59 640.78 587.78 C 642.90 581.97 643.46 575.02 644.98 568.98 C 646.49 562.93 648.35 557.03 649.93 550.93 C 651.50 544.83 652.12 537.65 654.00 532.00
C 663.67 552.80 668.15 578.47 675.33 601.67 C 682.50 624.87 690.33 648.32 697.33 671.67 C 704.32 695.02 712.33 718.07 719.75 741.25 C 727.18 764.42 734.80 788.52 741.00 812.00 Z"/>
</g>
<g fill="None" fill-opacity="0.0" stroke="#904600" stroke-opacity="1.00" stroke-width="0.3"><path d="
M 560.00 428.00 
C 560.40 423.90 559.94 416.56 561.00 412.00
C 559.30 416.45 560.00 422.75 560.00 428.00 Z"/>
</g>
<g fill="None" fill-opacity="0.0" stroke="#C77100" stroke-opacity="1.00" stroke-width="0.3"><path d="
M 1062.00 447.00 
C 1062.10 440.01 1062.10 432.99 1062.00 426.00
C 1061.29 433.00 1061.27 439.76 1062.00 447.00 Z"/>
</g>
<g fill="None" fill-opacity="0.0" stroke="#813B00" stroke-opacity="1.00" stroke-width="0.3"><path d="
M 1166.00 521.00 
C 1171.73 520.22 1177.18 517.60 1182.00 515.00
C 1177.16 516.95 1170.70 519.82 1166.00 521.00 Z"/>
</g>
<g fill="None" fill-opacity="0.0" stroke="#863F00" stroke-opacity="1.00" stroke-width="0.3"><path d="
M 1125.00 521.00 
C 1121.17 520.15 1115.97 517.41 1112.00 516.00
C 1116.18 518.13 1119.81 520.34 1125.00 521.00 Z"/>
</g>
<g fill="None" fill-opacity="0.0" stroke="#340000" stroke-opacity="1.00" stroke-width="0.3"><path d="
M 571.00 812.00 
C 627.67 812.00 684.33 812.00 741.00 812.00
C 734.80 788.52 727.18 764.42 719.75 741.25 C 712.33 718.07 704.32 695.02 697.33 671.67 C 690.33 648.32 682.50 624.87 675.33 601.67 C 668.15 578.47 663.67 552.80 654.00 532.00
C 652.12 537.65 651.50 544.83 649.93 550.93 C 648.35 557.03 646.49 562.93 644.98 568.98 C 643.46 575.02 642.90 581.97 640.78 587.78 C 638.66 593.59 638.02 599.08 635.78 604.78 C 633.53 610.47 632.59 616.67 630.26 622.26 C 627.92 627.85 626.69 634.15 624.92 639.92 C 623.16 645.70 620.71 650.41 619.32 656.32 C 617.93 662.23 615.36 668.02 613.93 673.93 C 612.50 679.83 610.07 685.88 608.78 691.78 C 607.48 697.68 604.19 701.91 602.93 707.93 C 601.66 713.94 599.41 720.05 597.98 725.98 C 596.54 731.90 594.43 738.16 592.93 743.93 C 591.42 749.69 589.00 755.13 587.78 760.78 C 586.55 766.42 583.66 772.79 581.98 777.98 C 580.29 783.16 577.30 790.97 576.77 795.77 C 576.24 800.57 568.53 808.09 571.00 812.00 Z"/>
</g>
<g fill="None" fill-opacity="0.0" stroke="#773400" stroke-opacity="1.00" stroke-width="0.3"><path d="
M 1085.00 579.00 
C 1094.33 579.00 1103.67 579.00 1113.00 579.00
C 1107.54 574.97 1091.15 578.40 1085.00 579.00 Z"/>
</g>
<g fill="None" fill-opacity="0.0" stroke="#773400" stroke-opacity="1.00" stroke-width="0.3"><path d="
M 1114.00 579.00 
C 1124.67 579.00 1135.33 579.00 1146.00 579.00
C 1142.71 576.57 1134.37 577.98 1130.00 578.00 C 1125.63 578.02 1117.34 576.53 1114.00 579.00 Z"/>
</g>
<g fill="None" fill-opacity="0.0" stroke="#773400" stroke-opacity="1.00" stroke-width="0.3"><path d="
M 1147.00 579.00 
C 1156.33 579.00 1165.67 579.00 1175.00 579.00
C 1171.54 576.44 1150.53 576.39 1147.00 579.00 Z"/>
</g>
<g fill="None" fill-opacity="0.0" stroke="#773400" stroke-opacity="1.00" stroke-width="0.3"><path d="
M 1176.00 579.00 
C 1187.50 579.00 1199.55 577.96 1211.00 579.00
C 1206.30 578.03 1198.34 577.25 1193.00 578.00 C 1187.66 578.75 1180.12 575.95 1176.00 579.00 Z"/>
</g>
<g fill="None" fill-opacity="0.0" stroke="#FE9900" stroke-opacity="1.00" stroke-width="0.3"><path d="
M 1219.00 1113.00 
C 1222.48 1101.38 1217.43 1087.20 1219.00 1075.00 C 1220.57 1062.80 1218.29 1049.46 1219.00 1037.00 C 1219.71 1024.54 1218.68 1011.57 1219.00 999.00 C 1219.32 986.43 1218.86 973.62 1219.00 961.00 C 1219.14 948.38 1218.94 935.65 1219.00 923.00 C 1219.06 910.35 1218.98 897.65 1219.00 885.00 C 1219.02 872.35 1219.00 859.65 1219.00 847.00 C 1219.00 834.35 1219.03 821.64 1219.00 809.00 C 1218.97 796.36 1219.07 783.62 1219.00 771.00 C 1218.93 758.38 1219.17 745.57 1219.00 733.00 C 1218.83 720.43 1219.38 707.45 1219.00 695.00 C 1218.62 682.55 1219.84 669.18 1219.00 657.00 C 1218.16 644.82 1220.87 630.59 1219.00 619.00 C 1217.13 607.41 1223.62 591.98 1218.00 582.00
C 1215.81 579.23 1214.27 579.68 1211.00 579.00
C 1199.55 577.96 1187.50 579.00 1176.00 579.00
C 1176.00 579.00 1175.50 579.00 1175.00 579.00
C 1165.67 579.00 1156.33 579.00 1147.00 579.00
C 1147.00 579.00 1146.50 579.00 1146.00 579.00
C 1135.33 579.00 1124.67 579.00 1114.00 579.00
C 1114.00 579.00 1113.50 579.00 1113.00 579.00
C 1103.67 579.00 1094.33 579.00 1085.00 579.00
C 1071.42 579.00 1066.74 582.62 1068.00 596.00 C 1069.26 609.38 1067.43 617.74 1068.00 630.00 C 1068.57 642.26 1067.74 652.25 1068.00 664.00 C 1068.26 675.75 1067.89 686.48 1068.00 698.00 C 1068.11 709.52 1067.95 720.58 1068.00 732.00 C 1068.05 743.42 1067.98 754.63 1068.00 766.00 C 1068.02 777.37 1067.99 788.66 1068.00 800.00 C 1068.01 811.34 1068.00 822.68 1068.00 834.00 C 1068.00 845.32 1068.00 856.70 1068.00 868.00 C 1068.00 879.30 1068.01 890.74 1068.00 902.00 C 1067.99 913.26 1068.02 923.73 1068.00 935.00 C 1067.98 946.27 1068.04 957.66 1068.00 969.00 C 1067.96 980.34 1068.09 991.58 1068.00 1003.00 C 1067.91 1014.42 1068.20 1025.45 1068.00 1037.00 C 1067.80 1048.55 1068.44 1059.16 1068.00 1071.00 C 1067.56 1082.84 1068.98 1092.55 1068.00 1105.00 C 1067.02 1117.45 1078.14 1119.21 1089.00 1118.00 C 1099.86 1116.79 1112.16 1118.73 1123.00 1118.00 C 1133.84 1117.27 1146.51 1118.73 1157.00 1118.00 C 1167.49 1117.27 1181.43 1119.22 1191.00 1118.00 C 1200.57 1116.78 1214.45 1122.73 1219.00 1113.00 Z"/>
</g>
<g fill="None" fill-opacity="0.0" stroke="#9D5000" stroke-opacity="1.00" stroke-width="0.3"><path d="
M 1219.00 1113.00 
C 1224.26 1101.75 1218.24 1084.90 1220.00 1072.00 C 1221.76 1059.10 1219.21 1044.32 1220.00 1031.00 C 1220.79 1017.68 1219.64 1003.51 1220.00 990.00 C 1220.36 976.49 1219.84 962.59 1220.00 949.00 C 1220.16 935.41 1219.93 921.63 1220.00 908.00 C 1220.07 894.37 1219.98 880.64 1220.00 867.00 C 1220.02 853.36 1220.02 839.63 1220.00 826.00 C 1219.98 812.37 1220.07 798.60 1220.00 785.00 C 1219.93 771.40 1220.18 757.52 1220.00 744.00 C 1219.82 730.48 1220.40 716.35 1220.00 703.00 C 1219.60 689.65 1220.89 674.97 1220.00 662.00 C 1219.11 649.03 1221.97 633.13 1220.00 621.00 C 1218.03 608.87 1225.31 591.26 1218.00 582.00
C 1223.62 591.98 1217.13 607.41 1219.00 619.00 C 1220.87 630.59 1218.16 644.82 1219.00 657.00 C 1219.84 669.18 1218.62 682.55 1219.00 695.00 C 1219.38 707.45 1218.83 720.43 1219.00 733.00 C 1219.17 745.57 1218.93 758.38 1219.00 771.00 C 1219.07 783.62 1218.97 796.36 1219.00 809.00 C 1219.03 821.64 1219.00 834.35 1219.00 847.00 C 1219.00 859.65 1219.02 872.35 1219.00 885.00 C 1218.98 897.65 1219.06 910.35 1219.00 923.00 C 1218.94 935.65 1219.14 948.38 1219.00 961.00 C 1218.86 973.62 1219.32 986.43 1219.00 999.00 C 1218.68 1011.57 1219.71 1024.54 1219.00 1037.00 C 1218.29 1049.46 1220.57 1062.80 1219.00 1075.00 C 1217.43 1087.20 1222.48 1101.38 1219.00 1113.00 Z"/>
</g>
<g fill="None" fill-opacity="0.0" stroke="#803A00" stroke-opacity="1.00" stroke-width="0.3"><path d="
M 741.00 812.00 
C 684.33 812.00 627.67 812.00 571.00 812.00
C 573.68 816.25 586.49 811.75 592.00 813.00 C 597.51 814.26 607.56 812.43 614.00 813.00 C 620.44 813.57 629.23 812.74 636.00 813.00 C 642.77 813.26 650.14 812.90 657.00 813.00 C 663.86 813.10 672.27 812.99 679.00 813.00 C 685.73 813.01 692.53 813.61 699.00 813.00 C 705.47 812.39 715.42 814.20 721.00 813.00 C 726.58 811.80 738.20 816.21 741.00 812.00 Z"/>
</g>
<g fill="None" fill-opacity="0.0" stroke="#460E00" stroke-opacity="1.00" stroke-width="0.3"><path d="
M 470.00 1118.00 
C 461.28 1119.26 451.80 1117.53 443.00 1118.00 C 434.20 1118.47 424.74 1118.01 416.00 1118.00 C 407.26 1117.99 397.52 1118.50 389.00 1118.00 C 380.48 1117.50 369.97 1119.31 362.00 1118.00 C 354.03 1116.69 342.06 1121.47 336.00 1117.00
C 336.00 1117.00 335.26 1117.25 335.00 1117.00
C 335.99 1121.62 348.32 1118.24 353.00 1119.00 C 357.68 1119.76 367.29 1118.68 373.00 1119.00 C 378.71 1119.32 386.90 1118.90 393.00 1119.00 C 399.10 1119.10 405.75 1119.10 412.00 1119.00 C 418.25 1118.90 425.78 1119.32 432.00 1119.00 C 438.22 1118.68 446.11 1119.76 452.00 1119.00 C 457.89 1118.24 465.54 1121.28 470.00 1118.00 Z"/>
</g>
<g fill="None" fill-opacity="0.0" stroke="#B26100" stroke-opacity="1.00" stroke-width="0.3"><path d="
M 470.00 1118.00 
C 470.30 1117.78 470.75 1117.09 471.00 1117.00
C 460.75 1113.71 447.82 1118.48 437.00 1117.00 C 426.18 1115.52 414.05 1117.65 403.00 1117.00 C 391.95 1116.35 380.08 1117.25 369.00 1117.00 C 357.92 1116.75 347.06 1117.00 336.00 1117.00
C 342.06 1121.47 354.03 1116.69 362.00 1118.00 C 369.97 1119.31 380.48 1117.50 389.00 1118.00 C 397.52 1118.50 407.26 1117.99 416.00 1118.00 C 424.74 1118.01 434.20 1118.47 443.00 1118.00 C 451.80 1117.53 461.28 1119.26 470.00 1118.00 Z"/>
</g>
<g fill="None" fill-opacity="0.0" stroke="#000000" stroke-opacity="0.00" stroke-width="0.3"><path d="
M 1618.00 1321.00 
C 1612.93 1334.88 1614.82 1353.77 1609.33 1367.33 C 1603.84 1380.89 1602.43 1396.00 1595.77 1408.77 C 1589.11 1421.54 1584.07 1433.14 1576.77 1444.77 C 1569.47 1456.40 1562.41 1466.73 1553.75 1476.75 C 1545.10 1486.77 1537.13 1496.05 1527.25 1505.25 C 1517.37 1514.45 1507.95 1521.57 1497.00 1529.00
C 1494.75 1530.53 1492.42 1532.44 1490.00 1534.00
C 1472.18 1545.49 1454.63 1556.31 1434.07 1563.07 C 1413.51 1569.84 1389.39 1579.20 1367.00 1579.00
C 1366.38 1579.16 1364.43 1580.26 1364.00 1581.00
L 1619.00 1581.00
L 1619.00 1319.00
C 1617.75 1318.98 1618.22 1320.41 1618.00 1321.00 Z"/>
</g>
<g fill="None" fill-opacity="0.0" stroke="#000000" stroke-opacity="0.00" stroke-width="0.3"><path d="
M 0.00 1581.00 
L 250.00 1581.00
C 191.19 1572.61 131.62 1546.38 86.75 1504.25 C 41.88 1462.12 12.59 1406.73 0.00 1349.00
L 0.00 1581.00 Z"/>
</g>
<g fill="None" fill-opacity="0.0" stroke="#310000" stroke-opacity="0.42" stroke-width="0.3"><path d="
M 1490.00 1534.00 
C 1492.42 1532.44 1494.75 1530.53 1497.00 1529.00
C 1494.35 1530.01 1491.60 1532.36 1490.00 1534.00 Z"/>
</g>
<g fill="None" fill-opacity="0.0" stroke="#2E0000" stroke-opacity="0.48" stroke-width="0.3"><path d="
M 1340.00 1581.00 
L 1364.00 1581.00
C 1364.43 1580.26 1366.38 1579.16 1367.00 1579.00
C 1359.23 1578.93 1347.93 1578.62 1340.00 1581.00 Z"/>
</g>
<g fill="None" fill-opacity="0.0" stroke="#290000" stroke-opacity="0.38" stroke-width="0.3"><path d="
M 252.00 1581.00 
L 266.00 1581.00
C 262.41 1578.96 255.42 1577.41 252.00 1581.00 Z"/>
</g>
<g fill="#000000" fill-opacity="0.00" stroke="None">
<path d="
M 0.00 236.00 
C 12.49 179.42 38.87 124.61 83.00 83.00
C 87.41 78.84 92.22 74.77 97.00 71.00
C 120.61 52.36 138.73 37.29 168.07 26.07 C 197.42 14.85 224.75 4.27 258.74 2.40 C 292.74 0.54 336.18 2.57 373.00 2.00 C 409.82 1.43 452.09 2.27 490.00 2.00 C 527.91 1.73 567.60 2.13 606.00 2.00 C 644.40 1.87 684.40 2.08 723.00 2.00 C 761.60 1.92 800.35 2.07 839.00 2.00 C 877.65 1.93 917.43 2.12 956.00 2.00 C 994.57 1.88 1033.69 2.25 1072.00 2.00 C 1110.31 1.75 1151.29 2.54 1189.00 2.00 C 1226.71 1.46 1268.67 3.21 1305.00 2.00 C 1341.33 0.79 1374.75 3.41 1406.03 11.97 C 1437.30 20.54 1461.22 31.10 1486.75 47.25 C 1512.27 63.41 1529.11 79.31 1549.25 101.75 C 1569.39 124.20 1581.61 145.61 1594.32 172.68 C 1607.03 199.75 1614.77 234.45 1619.00 265.00
L 1619.00 0.00
L 0.00 0.00
L 0.00 236.00 Z"/>
</g>
<g fill="#310000" fill-opacity="1.00" stroke="None">
<path d="
M 97.00 71.00 
C 93.84 75.31 87.81 80.38 83.00 83.00
C 38.87 124.61 12.49 179.42 0.00 236.00
L 0.00 1349.00
C 12.59 1406.73 41.88 1462.12 86.75 1504.25 C 131.62 1546.38 191.19 1572.61 250.00 1581.00
L 252.00 1581.00
C 255.42 1577.41 262.41 1578.96 266.00 1581.00
L 1340.00 1581.00
C 1347.93 1578.62 1359.23 1578.93 1367.00 1579.00
C 1389.39 1579.20 1413.51 1569.84 1434.07 1563.07 C 1454.63 1556.31 1472.18 1545.49 1490.00 1534.00
C 1491.60 1532.36 1494.35 1530.01 1497.00 1529.00
C 1507.95 1521.57 1517.37 1514.45 1527.25 1505.25 C 1537.13 1496.05 1545.10 1486.77 1553.75 1476.75 C 1562.41 1466.73 1569.47 1456.40 1576.77 1444.77 C 1584.07 1433.14 1589.11 1421.54 1595.77 1408.77 C 1602.43 1396.00 1603.84 1380.89 1609.33 1367.33 C 1614.82 1353.77 1612.93 1334.88 1618.00 1321.00
C 1617.03 1301.49 1618.29 1281.68 1618.00 1259.00 C 1617.71 1236.32 1618.13 1211.18 1618.00 1188.00 C 1617.87 1164.82 1618.06 1140.37 1618.00 1117.00 C 1617.94 1093.63 1618.03 1070.47 1618.00 1047.00 C 1617.97 1023.53 1618.01 999.54 1618.00 976.00 C 1617.99 952.46 1618.01 928.53 1618.00 905.00 C 1617.99 881.47 1618.00 858.54 1618.00 835.00 C 1618.00 811.46 1618.00 787.57 1618.00 764.00 C 1618.00 740.43 1617.99 716.54 1618.00 693.00 C 1618.01 669.46 1617.99 646.53 1618.00 623.00 C 1618.01 599.47 1617.97 575.54 1618.00 552.00 C 1618.03 528.46 1617.93 504.46 1618.00 481.00 C 1618.07 457.54 1617.84 434.34 1618.00 411.00 C 1618.16 387.66 1617.66 363.12 1618.00 340.00 C 1618.34 316.88 1616.78 293.33 1619.00 272.00
L 1619.00 265.00
C 1614.77 234.45 1607.03 199.75 1594.32 172.68 C 1581.61 145.61 1569.39 124.20 1549.25 101.75 C 1529.11 79.31 1512.27 63.41 1486.75 47.25 C 1461.22 31.10 1437.30 20.54 1406.03 11.97 C 1374.75 3.41 1341.33 0.79 1305.00 2.00 C 1268.67 3.21 1226.71 1.46 1189.00 2.00 C 1151.29 2.54 1110.31 1.75 1072.00 2.00 C 1033.69 2.25 994.57 1.88 956.00 2.00 C 917.43 2.12 877.65 1.93 839.00 2.00 C 800.35 2.07 761.60 1.92 723.00 2.00 C 684.40 2.08 644.40 1.87 606.00 2.00 C 567.60 2.13 527.91 1.73 490.00 2.00 C 452.09 2.27 409.82 1.43 373.00 2.00 C 336.18 2.57 292.74 0.54 258.74 2.40 C 224.75 4.27 197.42 14.85 168.07 26.07 C 138.73 37.29 120.61 52.36 97.00 71.00
M 1182.00 515.00 
C 1177.18 517.60 1171.73 520.22 1166.00 521.00
C 1152.86 522.79 1138.15 522.67 1125.00 521.00
C 1119.81 520.34 1116.18 518.13 1112.00 516.00
C 1083.84 505.99 1061.57 476.92 1062.00 447.00
C 1061.27 439.76 1061.29 433.00 1062.00 426.00
C 1061.43 387.05 1098.82 356.59 1137.00 353.00 C 1175.19 349.42 1218.71 371.51 1226.92 413.08 C 1235.14 454.64 1219.97 494.51 1182.00 515.00
M 744.00 407.00 
C 755.39 411.20 753.46 428.51 758.98 438.02 C 764.49 447.54 766.46 461.38 770.98 472.02 C 775.49 482.67 779.33 495.15 783.78 506.22 C 788.23 517.30 791.22 529.38 795.33 540.67 C 799.44 551.96 803.61 563.80 807.92 575.08 C 812.24 586.35 815.85 597.77 819.97 609.03 C 824.10 620.28 827.72 631.66 831.98 643.02 C 836.23 654.39 839.83 666.44 844.32 677.68 C 848.82 688.91 851.56 700.76 855.98 712.02 C 860.39 723.29 864.41 735.16 868.33 746.67 C 872.24 758.19 876.94 769.13 880.33 780.67 C 883.71 792.22 889.29 802.47 892.98 814.03 C 896.66 825.58 900.75 837.61 904.98 849.02 C 909.21 860.44 913.02 871.53 916.98 883.03 C 920.93 894.52 925.18 906.39 929.33 917.67 C 933.47 928.96 937.96 940.14 941.32 951.68 C 944.68 963.21 950.76 974.38 953.92 986.08 C 957.09 997.77 962.32 1008.54 966.30 1019.70 C 970.29 1030.86 973.69 1043.25 977.99 1054.01 C 982.29 1064.77 986.03 1078.47 990.31 1088.69 C 994.59 1098.92 1003.37 1118.01 987.00 1118.00 C 970.63 1117.99 955.66 1118.28 940.00 1118.00 C 924.34 1117.72 909.01 1118.77 894.00 1118.00 C 878.99 1117.23 862.15 1119.77 848.00 1118.00 C 833.86 1116.23 835.05 1098.96 830.03 1088.97 C 825.00 1078.99 823.72 1064.74 819.02 1053.98 C 814.33 1043.21 810.34 1031.05 806.23 1019.77 C 802.12 1008.49 798.84 996.74 794.68 985.32 C 790.51 973.90 786.23 961.62 783.00 950.00
C 699.00 950.00 615.00 950.00 531.00 950.00
C 524.39 968.61 519.36 988.17 512.68 1006.68 C 506.00 1025.19 501.25 1045.93 494.07 1064.07 C 486.89 1082.22 486.22 1105.13 471.00 1117.00
C 470.75 1117.09 470.30 1117.78 470.00 1118.00
C 465.54 1121.28 457.89 1118.24 452.00 1119.00 C 446.11 1119.76 438.22 1118.68 432.00 1119.00 C 425.78 1119.32 418.25 1118.90 412.00 1119.00 C 405.75 1119.10 399.10 1119.10 393.00 1119.00 C 386.90 1118.90 378.71 1119.32 373.00 1119.00 C 367.29 1118.68 357.68 1119.76 353.00 1119.00 C 348.32 1118.24 335.99 1121.62 335.00 1117.00
C 325.48 1108.03 339.32 1089.37 341.33 1078.33 C 343.34 1067.28 352.14 1053.16 354.98 1040.98 C 357.82 1028.79 364.23 1015.38 367.93 1002.93 C 371.63 990.47 377.27 977.81 381.33 965.33 C 385.38 952.84 390.34 940.01 394.33 927.33 C 398.32 914.65 403.00 901.91 407.32 889.32 C 411.64 876.73 416.90 864.73 420.92 851.92 C 424.95 839.12 429.62 826.68 433.93 813.93 C 438.23 801.17 442.77 787.85 447.33 775.33 C 451.89 762.81 455.90 749.97 460.32 737.32 C 464.75 724.67 469.38 712.52 473.92 699.92 C 478.47 687.32 482.16 674.51 486.93 661.93 C 491.69 649.34 495.35 636.43 499.78 623.78 C 504.21 611.12 508.74 598.70 512.99 585.99 C 517.24 573.28 522.09 561.18 526.32 548.32 C 530.56 535.46 534.76 523.17 539.33 510.33 C 543.89 497.48 548.07 485.74 552.32 472.32 C 556.58 458.90 560.00 442.89 560.00 428.00
C 560.00 422.75 559.30 416.45 561.00 412.00
C 561.79 409.93 562.16 409.36 564.00 408.00
C 574.15 400.50 593.57 407.74 607.00 406.00 C 620.43 404.26 638.81 406.23 653.00 406.00 C 667.19 405.77 684.80 404.86 699.00 406.00 C 713.20 407.14 731.22 402.28 744.00 407.00
M 1113.00 579.00 
C 1113.50 579.00 1114.00 579.00 1114.00 579.00
C 1117.34 576.53 1125.63 578.02 1130.00 578.00 C 1134.37 577.98 1142.71 576.57 1146.00 579.00
C 1146.50 579.00 1147.00 579.00 1147.00 579.00
C 1150.53 576.39 1171.54 576.44 1175.00 579.00
C 1175.50 579.00 1176.00 579.00 1176.00 579.00
C 1180.12 575.95 1187.66 578.75 1193.00 578.00 C 1198.34 577.25 1206.30 578.03 1211.00 579.00
C 1214.27 579.68 1215.81 579.23 1218.00 582.00
C 1225.31 591.26 1218.03 608.87 1220.00 621.00 C 1221.97 633.13 1219.11 649.03 1220.00 662.00 C 1220.89 674.97 1219.60 689.65 1220.00 703.00 C 1220.40 716.35 1219.82 730.48 1220.00 744.00 C 1220.18 757.52 1219.93 771.40 1220.00 785.00 C 1220.07 798.60 1219.98 812.37 1220.00 826.00 C 1220.02 839.63 1220.02 853.36 1220.00 867.00 C 1219.98 880.64 1220.07 894.37 1220.00 908.00 C 1219.93 921.63 1220.16 935.41 1220.00 949.00 C 1219.84 962.59 1220.36 976.49 1220.00 990.00 C 1219.64 1003.51 1220.79 1017.68 1220.00 1031.00 C 1219.21 1044.32 1221.76 1059.10 1220.00 1072.00 C 1218.24 1084.90 1224.26 1101.75 1219.00 1113.00
C 1214.45 1122.73 1200.57 1116.78 1191.00 1118.00 C 1181.43 1119.22 1167.49 1117.27 1157.00 1118.00 C 1146.51 1118.73 1133.84 1117.27 1123.00 1118.00 C 1112.16 1118.73 1099.86 1116.79 1089.00 1118.00 C 1078.14 1119.21 1067.02 1117.45 1068.00 1105.00 C 1068.98 1092.55 1067.56 1082.84 1068.00 1071.00 C 1068.44 1059.16 1067.80 1048.55 1068.00 1037.00 C 1068.20 1025.45 1067.91 1014.42 1068.00 1003.00 C 1068.09 991.58 1067.96 980.34 1068.00 969.00 C 1068.04 957.66 1067.98 946.27 1068.00 935.00 C 1068.02 923.73 1067.99 913.26 1068.00 902.00 C 1068.01 890.74 1068.00 879.30 1068.00 868.00 C 1068.00 856.70 1068.00 845.32 1068.00 834.00 C 1068.00 822.68 1068.01 811.34 1068.00 800.00 C 1067.99 788.66 1068.02 777.37 1068.00 766.00 C 1067.98 754.63 1068.05 743.42 1068.00 732.00 C 1067.95 720.58 1068.11 709.52 1068.00 698.00 C 1067.89 686.48 1068.26 675.75 1068.00 664.00 C 1067.74 652.25 1068.57 642.26 1068.00 630.00 C 1067.43 617.74 1069.26 609.38 1068.00 596.00 C 1066.74 582.62 1071.42 579.00 1085.00 579.00
C 1091.15 578.40 1107.54 574.97 1113.00 579.00 Z"/>
</g>
<g fill="#300000" fill-opacity="0.43" stroke="None">
<path d="
M 83.00 83.00 
C 87.81 80.38 93.84 75.31 97.00 71.00
C 92.22 74.77 87.41 78.84 83.00 83.00 Z"/>
</g>
<g fill="#310000" fill-opacity="0.26" stroke="None">
<path d="
M 1618.00 1321.00 
C 1618.22 1320.41 1617.75 1318.98 1619.00 1319.00
L 1619.00 272.00
C 1616.78 293.33 1618.34 316.88 1618.00 340.00 C 1617.66 363.12 1618.16 387.66 1618.00 411.00 C 1617.84 434.34 1618.07 457.54 1618.00 481.00 C 1617.93 504.46 1618.03 528.46 1618.00 552.00 C 1617.97 575.54 1618.01 599.47 1618.00 623.00 C 1617.99 646.53 1618.01 669.46 1618.00 693.00 C 1617.99 716.54 1618.00 740.43 1618.00 764.00 C 1618.00 787.57 1618.00 811.46 1618.00 835.00 C 1618.00 858.54 1617.99 881.47 1618.00 905.00 C 1618.01 928.53 1617.99 952.46 1618.00 976.00 C 1618.01 999.54 1617.97 1023.53 1618.00 1047.00 C 1618.03 1070.47 1617.94 1093.63 1618.00 1117.00 C 1618.06 1140.37 1617.87 1164.82 1618.00 1188.00 C 1618.13 1211.18 1617.71 1236.32 1618.00 1259.00 C 1618.29 1281.68 1617.03 1301.49 1618.00 1321.00 Z"/>
</g>
<g fill="#FD9900" fill-opacity="1.00" stroke="None">
<path d="
M 1062.00 426.00 
C 1062.10 432.99 1062.10 440.01 1062.00 447.00
C 1061.57 476.92 1083.84 505.99 1112.00 516.00
C 1115.97 517.41 1121.17 520.15 1125.00 521.00
C 1138.15 522.67 1152.86 522.79 1166.00 521.00
C 1170.70 519.82 1177.16 516.95 1182.00 515.00
C 1219.97 494.51 1235.14 454.64 1226.92 413.08 C 1218.71 371.51 1175.19 349.42 1137.00 353.00 C 1098.82 356.59 1061.43 387.05 1062.00 426.00 Z"/>
</g>
<g fill="#874000" fill-opacity="1.00" stroke="None">
<path d="
M 564.00 408.00 
C 573.76 403.02 587.89 408.49 599.00 407.00 C 610.11 405.51 623.43 407.48 635.00 407.00 C 646.57 406.52 659.25 406.77 671.00 407.00 C 682.75 407.23 695.23 405.92 707.00 407.00 C 718.77 408.08 732.48 404.45 744.00 407.00
C 731.22 402.28 713.20 407.14 699.00 406.00 C 684.80 404.86 667.19 405.77 653.00 406.00 C 638.81 406.23 620.43 404.26 607.00 406.00 C 593.57 407.74 574.15 400.50 564.00 408.00 Z"/>
</g>
<g fill="#FE9900" fill-opacity="1.00" stroke="None">
<path d="
M 564.00 408.00 
C 562.16 409.36 561.79 409.93 561.00 412.00
C 559.94 416.56 560.40 423.90 560.00 428.00
C 560.00 442.89 556.58 458.90 552.32 472.32 C 548.07 485.74 543.89 497.48 539.33 510.33 C 534.76 523.17 530.56 535.46 526.32 548.32 C 522.09 561.18 517.24 573.28 512.99 585.99 C 508.74 598.70 504.21 611.12 499.78 623.78 C 495.35 636.43 491.69 649.34 486.93 661.93 C 482.16 674.51 478.47 687.32 473.92 699.92 C 469.38 712.52 464.75 724.67 460.32 737.32 C 455.90 749.97 451.89 762.81 447.33 775.33 C 442.77 787.85 438.23 801.17 433.93 813.93 C 429.62 826.68 424.95 839.12 420.92 851.92 C 416.90 864.73 411.64 876.73 407.32 889.32 C 403.00 901.91 398.32 914.65 394.33 927.33 C 390.34 940.01 385.38 952.84 381.33 965.33 C 377.27 977.81 371.63 990.47 367.93 1002.93 C 364.23 1015.38 357.82 1028.79 354.98 1040.98 C 352.14 1053.16 343.34 1067.28 341.33 1078.33 C 339.32 1089.37 325.48 1108.03 335.00 1117.00
C 335.26 1117.25 336.00 1117.00 336.00 1117.00
C 347.06 1117.00 357.92 1116.75 369.00 1117.00 C 380.08 1117.25 391.95 1116.35 403.00 1117.00 C 414.05 1117.65 426.18 1115.52 437.00 1117.00 C 447.82 1118.48 460.75 1113.71 471.00 1117.00
C 486.22 1105.13 486.89 1082.22 494.07 1064.07 C 501.25 1045.93 506.00 1025.19 512.68 1006.68 C 519.36 988.17 524.39 968.61 531.00 950.00
C 615.00 950.00 699.00 950.00 783.00 950.00
C 786.23 961.62 790.51 973.90 794.68 985.32 C 798.84 996.74 802.12 1008.49 806.23 1019.77 C 810.34 1031.05 814.33 1043.21 819.02 1053.98 C 823.72 1064.74 825.00 1078.99 830.03 1088.97 C 835.05 1098.96 833.86 1116.23 848.00 1118.00 C 862.15 1119.77 878.99 1117.23 894.00 1118.00 C 909.01 1118.77 924.34 1117.72 940.00 1118.00 C 955.66 1118.28 970.63 1117.99 987.00 1118.00 C 1003.37 1118.01 994.59 1098.92 990.31 1088.69 C 986.03 1078.47 982.29 1064.77 977.99 1054.01 C 973.69 1043.25 970.29 1030.86 966.30 1019.70 C 962.32 1008.54 957.09 997.77 953.92 986.08 C 950.76 974.38 944.68 963.21 941.32 951.68 C 937.96 940.14 933.47 928.96 929.33 917.67 C 925.18 906.39 920.93 894.52 916.98 883.03 C 913.02 871.53 909.21 860.44 904.98 849.02 C 900.75 837.61 896.66 825.58 892.98 814.03 C 889.29 802.47 883.71 792.22 880.33 780.67 C 876.94 769.13 872.24 758.19 868.33 746.67 C 864.41 735.16 860.39 723.29 855.98 712.02 C 851.56 700.76 848.82 688.91 844.32 677.68 C 839.83 666.44 836.23 654.39 831.98 643.02 C 827.72 631.66 824.10 620.28 819.97 609.03 C 815.85 597.77 812.24 586.35 807.92 575.08 C 803.61 563.80 799.44 551.96 795.33 540.67 C 791.22 529.38 788.23 517.30 783.78 506.22 C 779.33 495.15 775.49 482.67 770.98 472.02 C 766.46 461.38 764.49 447.54 758.98 438.02 C 753.46 428.51 755.39 411.20 744.00 407.00
C 732.48 404.45 718.77 408.08 707.00 407.00 C 695.23 405.92 682.75 407.23 671.00 407.00 C 659.25 406.77 646.57 406.52 635.00 407.00 C 623.43 407.48 610.11 405.51 599.00 407.00 C 587.89 408.49 573.76 403.02 564.00 408.00
M 741.00 812.00 
C 738.20 816.21 726.58 811.80 721.00 813.00 C 715.42 814.20 705.47 812.39 699.00 813.00 C 692.53 813.61 685.73 813.01 679.00 813.00 C 672.27 812.99 663.86 813.10 657.00 813.00 C 650.14 812.90 642.77 813.26 636.00 813.00 C 629.23 812.74 620.44 813.57 614.00 813.00 C 607.56 812.43 597.51 814.26 592.00 813.00 C 586.49 811.75 573.68 816.25 571.00 812.00
C 568.53 808.09 576.24 800.57 576.77 795.77 C 577.30 790.97 580.29 783.16 581.98 777.98 C 583.66 772.79 586.55 766.42 587.78 760.78 C 589.00 755.13 591.42 749.69 592.93 743.93 C 594.43 738.16 596.54 731.90 597.98 725.98 C 599.41 720.05 601.66 713.94 602.93 707.93 C 604.19 701.91 607.48 697.68 608.78 691.78 C 610.07 685.88 612.50 679.83 613.93 673.93 C 615.36 668.02 617.93 662.23 619.32 656.32 C 620.71 650.41 623.16 645.70 624.92 639.92 C 626.69 634.15 627.92 627.85 630.26 622.26 C 632.59 616.67 633.53 610.47 635.78 604.78 C 638.02 599.08 638.66 593.59 640.78 587.78 C 642.90 581.97 643.46 575.02 644.98 568.98 C 646.49 562.93 648.35 557.03 649.93 550.93 C 651.50 544.83 652.12 537.65 654.00 532.00
C 663.67 552.80 668.15 578.47 675.33 601.67 C 682.50 624.87 690.33 648.32 697.33 671.67 C 704.32 695.02 712.33 718.07 719.75 741.25 C 727.18 764.42 734.80 788.52 741.00 812.00 Z"/>
</g>
<g fill="#904600" fill-opacity="1.00" stroke="None">
<path d="
M 560.00 428.00 
C 560.40 423.90 559.94 416.56 561.00 412.00
C 559.30 416.45 560.00 422.75 560.00 428.00 Z"/>
</g>
<g fill="#C77100" fill-opacity="1.00" stroke="None">
<path d="
M 1062.00 447.00 
C 1062.10 440.01 1062.10 432.99 1062.00 426.00
C 1061.29 433.00 1061.27 439.76 1062.00 447.00 Z"/>
</g>
<g fill="#813B00" fill-opacity="1.00" stroke="None">
<path d="
M 1166.00 521.00 
C 1171.73 520.22 1177.18 517.60 1182.00 515.00
C 1177.16 516.95 1170.70 519.82 1166.00 521.00 Z"/>
</g>
<g fill="#863F00" fill-opacity="1.00" stroke="None">
<path d="
M 1125.00 521.00 
C 1121.17 520.15 1115.97 517.41 1112.00 516.00
C 1116.18 518.13 1119.81 520.34 1125.00 521.00 Z"/>
</g>
<g fill="#340000" fill-opacity="1.00" stroke="None">
<path d="
M 571.00 812.00 
C 627.67 812.00 684.33 812.00 741.00 812.00
C 734.80 788.52 727.18 764.42 719.75 741.25 C 712.33 718.07 704.32 695.02 697.33 671.67 C 690.33 648.32 682.50 624.87 675.33 601.67 C 668.15 578.47 663.67 552.80 654.00 532.00
C 652.12 537.65 651.50 544.83 649.93 550.93 C 648.35 557.03 646.49 562.93 644.98 568.98 C 643.46 575.02 642.90 581.97 640.78 587.78 C 638.66 593.59 638.02 599.08 635.78 604.78 C 633.53 610.47 632.59 616.67 630.26 622.26 C 627.92 627.85 626.69 634.15 624.92 639.92 C 623.16 645.70 620.71 650.41 619.32 656.32 C 617.93 662.23 615.36 668.02 613.93 673.93 C 612.50 679.83 610.07 685.88 608.78 691.78 C 607.48 697.68 604.19 701.91 602.93 707.93 C 601.66 713.94 599.41 720.05 597.98 725.98 C 596.54 731.90 594.43 738.16 592.93 743.93 C 591.42 749.69 589.00 755.13 587.78 760.78 C 586.55 766.42 583.66 772.79 581.98 777.98 C 580.29 783.16 577.30 790.97 576.77 795.77 C 576.24 800.57 568.53 808.09 571.00 812.00 Z"/>
</g>
<g fill="#773400" fill-opacity="1.00" stroke="None">
<path d="
M 1085.00 579.00 
C 1094.33 579.00 1103.67 579.00 1113.00 579.00
C 1107.54 574.97 1091.15 578.40 1085.00 579.00 Z"/>
</g>
<g fill="#773400" fill-opacity="1.00" stroke="None">
<path d="
M 1114.00 579.00 
C 1124.67 579.00 1135.33 579.00 1146.00 579.00
C 1142.71 576.57 1134.37 577.98 1130.00 578.00 C 1125.63 578.02 1117.34 576.53 1114.00 579.00 Z"/>
</g>
<g fill="#773400" fill-opacity="1.00" stroke="None">
<path d="
M 1147.00 579.00 
C 1156.33 579.00 1165.67 579.00 1175.00 579.00
C 1171.54 576.44 1150.53 576.39 1147.00 579.00 Z"/>
</g>
<g fill="#773400" fill-opacity="1.00" stroke="None">
<path d="
M 1176.00 579.00 
C 1187.50 579.00 1199.55 577.96 1211.00 579.00
C 1206.30 578.03 1198.34 577.25 1193.00 578.00 C 1187.66 578.75 1180.12 575.95 1176.00 579.00 Z"/>
</g>
<g fill="#FE9900" fill-opacity="1.00" stroke="None">
<path d="
M 1219.00 1113.00 
C 1222.48 1101.38 1217.43 1087.20 1219.00 1075.00 C 1220.57 1062.80 1218.29 1049.46 1219.00 1037.00 C 1219.71 1024.54 1218.68 1011.57 1219.00 999.00 C 1219.32 986.43 1218.86 973.62 1219.00 961.00 C 1219.14 948.38 1218.94 935.65 1219.00 923.00 C 1219.06 910.35 1218.98 897.65 1219.00 885.00 C 1219.02 872.35 1219.00 859.65 1219.00 847.00 C 1219.00 834.35 1219.03 821.64 1219.00 809.00 C 1218.97 796.36 1219.07 783.62 1219.00 771.00 C 1218.93 758.38 1219.17 745.57 1219.00 733.00 C 1218.83 720.43 1219.38 707.45 1219.00 695.00 C 1218.62 682.55 1219.84 669.18 1219.00 657.00 C 1218.16 644.82 1220.87 630.59 1219.00 619.00 C 1217.13 607.41 1223.62 591.98 1218.00 582.00
C 1215.81 579.23 1214.27 579.68 1211.00 579.00
C 1199.55 577.96 1187.50 579.00 1176.00 579.00
C 1176.00 579.00 1175.50 579.00 1175.00 579.00
C 1165.67 579.00 1156.33 579.00 1147.00 579.00
C 1147.00 579.00 1146.50 579.00 1146.00 579.00
C 1135.33 579.00 1124.67 579.00 1114.00 579.00
C 1114.00 579.00 1113.50 579.00 1113.00 579.00
C 1103.67 579.00 1094.33 579.00 1085.00 579.00
C 1071.42 579.00 1066.74 582.62 1068.00 596.00 C 1069.26 609.38 1067.43 617.74 1068.00 630.00 C 1068.57 642.26 1067.74 652.25 1068.00 664.00 C 1068.26 675.75 1067.89 686.48 1068.00 698.00 C 1068.11 709.52 1067.95 720.58 1068.00 732.00 C 1068.05 743.42 1067.98 754.63 1068.00 766.00 C 1068.02 777.37 1067.99 788.66 1068.00 800.00 C 1068.01 811.34 1068.00 822.68 1068.00 834.00 C 1068.00 845.32 1068.00 856.70 1068.00 868.00 C 1068.00 879.30 1068.01 890.74 1068.00 902.00 C 1067.99 913.26 1068.02 923.73 1068.00 935.00 C 1067.98 946.27 1068.04 957.66 1068.00 969.00 C 1067.96 980.34 1068.09 991.58 1068.00 1003.00 C 1067.91 1014.42 1068.20 1025.45 1068.00 1037.00 C 1067.80 1048.55 1068.44 1059.16 1068.00 1071.00 C 1067.56 1082.84 1068.98 1092.55 1068.00 1105.00 C 1067.02 1117.45 1078.14 1119.21 1089.00 1118.00 C 1099.86 1116.79 1112.16 1118.73 1123.00 1118.00 C 1133.84 1117.27 1146.51 1118.73 1157.00 1118.00 C 1167.49 1117.27 1181.43 1119.22 1191.00 1118.00 C 1200.57 1116.78 1214.45 1122.73 1219.00 1113.00 Z"/>
</g>
<g fill="#9D5000" fill-opacity="1.00" stroke="None">
<path d="
M 1219.00 1113.00 
C 1224.26 1101.75 1218.24 1084.90 1220.00 1072.00 C 1221.76 1059.10 1219.21 1044.32 1220.00 1031.00 C 1220.79 1017.68 1219.64 1003.51 1220.00 990.00 C 1220.36 976.49 1219.84 962.59 1220.00 949.00 C 1220.16 935.41 1219.93 921.63 1220.00 908.00 C 1220.07 894.37 1219.98 880.64 1220.00 867.00 C 1220.02 853.36 1220.02 839.63 1220.00 826.00 C 1219.98 812.37 1220.07 798.60 1220.00 785.00 C 1219.93 771.40 1220.18 757.52 1220.00 744.00 C 1219.82 730.48 1220.40 716.35 1220.00 703.00 C 1219.60 689.65 1220.89 674.97 1220.00 662.00 C 1219.11 649.03 1221.97 633.13 1220.00 621.00 C 1218.03 608.87 1225.31 591.26 1218.00 582.00
C 1223.62 591.98 1217.13 607.41 1219.00 619.00 C 1220.87 630.59 1218.16 644.82 1219.00 657.00 C 1219.84 669.18 1218.62 682.55 1219.00 695.00 C 1219.38 707.45 1218.83 720.43 1219.00 733.00 C 1219.17 745.57 1218.93 758.38 1219.00 771.00 C 1219.07 783.62 1218.97 796.36 1219.00 809.00 C 1219.03 821.64 1219.00 834.35 1219.00 847.00 C 1219.00 859.65 1219.02 872.35 1219.00 885.00 C 1218.98 897.65 1219.06 910.35 1219.00 923.00 C 1218.94 935.65 1219.14 948.38 1219.00 961.00 C 1218.86 973.62 1219.32 986.43 1219.00 999.00 C 1218.68 1011.57 1219.71 1024.54 1219.00 1037.00 C 1218.29 1049.46 1220.57 1062.80 1219.00 1075.00 C 1217.43 1087.20 1222.48 1101.38 1219.00 1113.00 Z"/>
</g>
<g fill="#803A00" fill-opacity="1.00" stroke="None">
<path d="
M 741.00 812.00 
C 684.33 812.00 627.67 812.00 571.00 812.00
C 573.68 816.25 586.49 811.75 592.00 813.00 C 597.51 814.26 607.56 812.43 614.00 813.00 C 620.44 813.57 629.23 812.74 636.00 813.00 C 642.77 813.26 650.14 812.90 657.00 813.00 C 663.86 813.10 672.27 812.99 679.00 813.00 C 685.73 813.01 692.53 813.61 699.00 813.00 C 705.47 812.39 715.42 814.20 721.00 813.00 C 726.58 811.80 738.20 816.21 741.00 812.00 Z"/>
</g>
<g fill="#460E00" fill-opacity="1.00" stroke="None">
<path d="
M 470.00 1118.00 
C 461.28 1119.26 451.80 1117.53 443.00 1118.00 C 434.20 1118.47 424.74 1118.01 416.00 1118.00 C 407.26 1117.99 397.52 1118.50 389.00 1118.00 C 380.48 1117.50 369.97 1119.31 362.00 1118.00 C 354.03 1116.69 342.06 1121.47 336.00 1117.00
C 336.00 1117.00 335.26 1117.25 335.00 1117.00
C 335.99 1121.62 348.32 1118.24 353.00 1119.00 C 357.68 1119.76 367.29 1118.68 373.00 1119.00 C 378.71 1119.32 386.90 1118.90 393.00 1119.00 C 399.10 1119.10 405.75 1119.10 412.00 1119.00 C 418.25 1118.90 425.78 1119.32 432.00 1119.00 C 438.22 1118.68 446.11 1119.76 452.00 1119.00 C 457.89 1118.24 465.54 1121.28 470.00 1118.00 Z"/>
</g>
<g fill="#B26100" fill-opacity="1.00" stroke="None">
<path d="
M 470.00 1118.00 
C 470.30 1117.78 470.75 1117.09 471.00 1117.00
C 460.75 1113.71 447.82 1118.48 437.00 1117.00 C 426.18 1115.52 414.05 1117.65 403.00 1117.00 C 391.95 1116.35 380.08 1117.25 369.00 1117.00 C 357.92 1116.75 347.06 1117.00 336.00 1117.00
C 342.06 1121.47 354.03 1116.69 362.00 1118.00 C 369.97 1119.31 380.48 1117.50 389.00 1118.00 C 397.52 1118.50 407.26 1117.99 416.00 1118.00 C 424.74 1118.01 434.20 1118.47 443.00 1118.00 C 451.80 1117.53 461.28 1119.26 470.00 1118.00 Z"/>
</g>
<g fill="#000000" fill-opacity="0.00" stroke="None">
<path d="
M 1618.00 1321.00 
C 1612.93 1334.88 1614.82 1353.77 1609.33 1367.33 C 1603.84 1380.89 1602.43 1396.00 1595.77 1408.77 C 1589.11 1421.54 1584.07 1433.14 1576.77 1444.77 C 1569.47 1456.40 1562.41 1466.73 1553.75 1476.75 C 1545.10 1486.77 1537.13 1496.05 1527.25 1505.25 C 1517.37 1514.45 1507.95 1521.57 1497.00 1529.00
C 1494.75 1530.53 1492.42 1532.44 1490.00 1534.00
C 1472.18 1545.49 1454.63 1556.31 1434.07 1563.07 C 1413.51 1569.84 1389.39 1579.20 1367.00 1579.00
C 1366.38 1579.16 1364.43 1580.26 1364.00 1581.00
L 1619.00 1581.00
L 1619.00 1319.00
C 1617.75 1318.98 1618.22 1320.41 1618.00 1321.00 Z"/>
</g>
<g fill="#000000" fill-opacity="0.00" stroke="None">
<path d="
M 0.00 1581.00 
L 250.00 1581.00
C 191.19 1572.61 131.62 1546.38 86.75 1504.25 C 41.88 1462.12 12.59 1406.73 0.00 1349.00
L 0.00 1581.00 Z"/>
</g>
<g fill="#310000" fill-opacity="0.42" stroke="None">
<path d="
M 1490.00 1534.00 
C 1492.42 1532.44 1494.75 1530.53 1497.00 1529.00
C 1494.35 1530.01 1491.60 1532.36 1490.00 1534.00 Z"/>
</g>
<g fill="#2E0000" fill-opacity="0.48" stroke="None">
<path d="
M 1340.00 1581.00 
L 1364.00 1581.00
C 1364.43 1580.26 1366.38 1579.16 1367.00 1579.00
C 1359.23 1578.93 1347.93 1578.62 1340.00 1581.00 Z"/>
</g>
<g fill="#290000" fill-opacity="0.38" stroke="None">
<path d="
M 252.00 1581.00 
L 266.00 1581.00
C 262.41 1578.96 255.42 1577.41 252.00 1581.00 Z"/>
</g>
</svg>