<svg xmlns="http://www.w3.org/2000/svg" xmlns:v="https://svgstorm.com"
viewBox = "0 0 1600 1600"
width="1600"
height="1600">
<g fill="None" fill-opacity="0.0" stroke="#000000" stroke-opacity="0.00" stroke-width="0.3"><path d="
M 0.00 519.00 
C 1.05 517.80 1.38 515.68 2.00 514.00
C 12.47 485.78 34.60 471.04 56.75 450.75 C 78.91 430.46 94.49 415.13 119.70 395.70 C 144.90 376.26 183.75 389.86 205.75 408.25 C 227.74 426.65 249.07 443.56 273.00 459.00
C 276.92 461.53 279.43 464.43 283.00 467.00
C 295.72 476.17 306.84 484.18 318.70 493.30 C 330.55 502.42 342.22 511.69 354.25 520.75 C 366.28 529.82 377.65 537.78 389.70 547.30 C 401.75 556.83 413.20 564.95 425.25 574.75 C 437.30 584.55 448.40 590.57 460.75 601.25 C 473.09 611.94 484.02 593.57 495.25 584.25 C 506.47 574.93 516.33 564.58 527.70 554.70 C 539.06 544.81 549.49 534.04 560.70 524.70 C 571.90 515.35 582.51 503.43 593.30 494.30 C 604.08 485.17 615.05 474.51 625.75 464.75 C 636.46 455.00 647.57 445.10 658.75 434.75 C 669.93 424.41 679.90 415.68 691.25 405.25 C 702.59 394.82 713.27 385.46 724.25 375.25 C 735.22 365.04 746.09 355.40 756.75 345.75 C 767.41 336.09 778.75 325.07 789.30 315.30 C 799.85 305.53 811.10 296.43 822.08 286.08 C 833.06 275.73 843.74 266.31 854.75 255.75 C 865.76 245.19 877.90 236.60 888.00 226.00
C 890.28 223.60 892.58 222.11 895.00 220.00
C 920.27 197.98 945.06 173.92 969.00 152.00
C 971.42 149.78 974.62 147.43 977.00 145.00
C 977.98 144.00 979.01 142.92 980.00 142.00
C 983.70 138.57 988.34 135.13 992.00 132.00
C 993.70 129.93 995.01 128.88 997.00 127.00
C 998.98 125.13 1001.02 122.83 1003.00 121.00
C 1007.56 116.79 1013.22 111.93 1018.00 108.00
C 1021.33 105.26 1024.78 101.70 1028.00 99.00
C 1034.80 91.04 1042.46 84.77 1050.00 78.00
C 1053.48 74.88 1057.32 71.15 1061.00 68.00
C 1077.45 53.95 1091.09 38.22 1108.00 25.00
C 1112.61 21.40 1118.14 18.69 1123.00 15.00
C 1123.32 14.76 1124.00 15.00 1124.00 15.00
C 1153.61 -0.49 1192.89 1.54 1221.23 16.77 C 1249.57 32.00 1275.01 42.00 1302.75 56.25 C 1330.48 70.51 1357.02 81.60 1384.70 95.30 C 1412.37 109.01 1438.41 121.31 1466.23 134.77 C 1494.05 148.23 1519.74 160.40 1548.08 173.92 C 1576.42 187.44 1590.72 216.35 1599.00 245.00
C 1599.04 245.13 1600.00 245.00 1600.00 245.00
L 1600.00 0.00
L 0.00 0.00
L 0.00 519.00 Z"/>
</g>
<g fill="None" fill-opacity="0.0" stroke="#39AAF1" stroke-opacity="1.00" stroke-width="0.3"><path d="
M 1124.00 15.00 
C 1126.72 15.96 1123.75 17.45 1123.00 15.00
C 1118.14 18.69 1112.61 21.40 1108.00 25.00
C 1110.89 23.64 1119.53 20.86 1126.07 18.07 C 1132.62 15.29 1144.70 15.42 1152.00 17.00 C 1159.30 18.57 1167.04 21.71 1173.25 25.75 C 1179.45 29.79 1183.97 33.36 1188.30 39.70 C 1192.63 46.03 1195.86 51.00 1197.93 59.07 C 1199.99 67.14 1200.17 77.82 1200.00 87.00 C 1199.83 96.18 1200.08 106.51 1200.00 116.00 C 1199.92 125.49 1200.03 135.32 1200.00 145.00 C 1199.97 154.68 1200.02 165.26 1200.00 175.00 C 1199.98 184.74 1200.01 194.26 1200.00 204.00 C 1199.99 213.74 1200.00 223.22 1200.00 233.00 C 1200.00 242.78 1200.00 253.21 1200.00 263.00 C 1200.00 272.79 1200.00 282.24 1200.00 292.00 C 1200.00 301.76 1200.00 311.20 1200.00 321.00 C 1200.00 330.80 1200.00 341.20 1200.00 351.00 C 1200.00 360.80 1200.00 370.22 1200.00 380.00 C 1200.00 389.78 1200.00 399.17 1200.00 409.00 C 1200.00 418.83 1200.00 429.13 1200.00 439.00
C 1199.99 680.01 1200.01 920.99 1200.00 1162.00
C 1200.00 1195.22 1200.09 1229.93 1200.00 1263.00 C 1199.91 1296.07 1200.24 1331.48 1200.00 1364.00 C 1199.76 1396.52 1200.55 1434.87 1200.00 1466.00 C 1199.45 1497.13 1205.02 1532.74 1190.25 1557.25 C 1175.48 1581.76 1143.37 1591.27 1119.00 1580.00
C 1118.48 1580.08 1118.15 1581.17 1117.00 1581.00
C 1152.66 1603.30 1196.81 1597.00 1231.08 1578.08 C 1265.34 1559.15 1297.35 1547.39 1331.23 1530.23 C 1365.11 1513.07 1396.90 1498.57 1430.23 1482.23 C 1463.56 1465.89 1497.50 1450.07 1530.69 1434.69 C 1563.89 1419.31 1594.39 1394.02 1599.00 1355.00
C 1596.41 1352.49 1599.67 1344.77 1600.00 1342.00
L 1600.00 258.00
C 1599.71 255.23 1596.63 247.31 1599.00 245.00
C 1590.72 216.35 1576.42 187.44 1548.08 173.92 C 1519.74 160.40 1494.05 148.23 1466.23 134.77 C 1438.41 121.31 1412.37 109.01 1384.70 95.30 C 1357.02 81.60 1330.48 70.51 1302.75 56.25 C 1275.01 42.00 1249.57 32.00 1221.23 16.77 C 1192.89 1.54 1153.61 -0.49 1124.00 15.00 Z"/>
</g>
<g fill="None" fill-opacity="0.0" stroke="#54B2EE" stroke-opacity="0.53" stroke-width="0.3"><path d="
M 1124.00 15.00 
C 1124.00 15.00 1123.32 14.76 1123.00 15.00
C 1123.75 17.45 1126.72 15.96 1124.00 15.00 Z"/>
</g>
<g fill="None" fill-opacity="0.0" stroke="#1F85C7" stroke-opacity="1.00" stroke-width="0.3"><path d="
M 1108.00 25.00 
C 1091.09 38.22 1077.45 53.95 1061.00 68.00
C 1057.27 72.54 1054.55 75.32 1050.00 78.00
C 1042.46 84.77 1034.80 91.04 1028.00 99.00
C 1024.93 102.60 1020.84 106.58 1018.00 108.00
C 1013.22 111.93 1007.56 116.79 1003.00 121.00
C 1000.92 123.74 998.91 125.86 997.00 127.00
C 995.01 128.88 993.70 129.93 992.00 132.00
C 988.13 136.71 984.29 139.49 980.00 142.00
C 979.01 142.92 977.98 144.00 977.00 145.00
C 975.06 148.08 972.17 150.23 969.00 152.00
C 945.06 173.92 920.27 197.98 895.00 220.00
C 893.39 222.49 891.41 223.78 888.00 226.00
C 877.90 236.60 865.76 245.19 854.75 255.75 C 843.74 266.31 833.06 275.73 822.08 286.08 C 811.10 296.43 799.85 305.53 789.30 315.30 C 778.75 325.07 767.41 336.09 756.75 345.75 C 746.09 355.40 735.22 365.04 724.25 375.25 C 713.27 385.46 702.59 394.82 691.25 405.25 C 679.90 415.68 669.93 424.41 658.75 434.75 C 647.57 445.10 636.46 455.00 625.75 464.75 C 615.05 474.51 604.08 485.17 593.30 494.30 C 582.51 503.43 571.90 515.35 560.70 524.70 C 549.49 534.04 539.06 544.81 527.70 554.70 C 516.33 564.58 506.47 574.93 495.25 584.25 C 484.02 593.57 473.09 611.94 460.75 601.25 C 448.40 590.57 437.30 584.55 425.25 574.75 C 413.20 564.95 401.75 556.83 389.70 547.30 C 377.65 537.78 366.28 529.82 354.25 520.75 C 342.22 511.69 330.55 502.42 318.70 493.30 C 306.84 484.18 295.72 476.17 283.00 467.00
C 279.25 465.36 276.36 462.29 273.00 459.00
C 249.07 443.56 227.74 426.65 205.75 408.25 C 183.75 389.86 144.90 376.26 119.70 395.70 C 94.49 415.13 78.91 430.46 56.75 450.75 C 34.60 471.04 12.47 485.78 2.00 514.00
C 1.35 518.08 2.63 525.70 0.00 530.00
L 0.00 537.00
C 2.78 540.36 0.71 546.79 1.00 550.00
C 6.59 565.64 13.96 577.30 26.00 588.00
C 25.14 587.59 28.60 587.60 30.25 589.75 C 31.90 591.90 33.49 594.31 34.00 595.00
C 43.36 603.49 53.51 614.16 63.23 621.77 C 72.96 629.38 81.70 642.20 93.00 648.00
C 95.51 649.29 98.58 653.11 100.00 655.00
C 117.02 670.13 135.22 687.94 152.00 703.00
C 151.01 702.52 154.24 702.28 155.75 704.25 C 157.27 706.22 158.63 708.51 159.00 709.00
C 171.88 720.45 183.75 731.79 196.00 743.00
C 195.41 742.07 194.86 741.17 195.00 740.00
C 197.25 742.11 202.70 745.57 202.00 748.00
C 219.96 765.96 239.24 784.12 258.00 801.00
C 280.07 820.86 305.85 841.66 328.75 863.25 C 351.65 884.84 375.82 906.52 399.25 927.75 C 422.68 948.98 446.97 970.97 469.00 993.00
C 490.93 1014.93 516.76 1035.52 540.00 1057.00
C 538.92 1056.45 541.84 1055.97 543.25 1057.75 C 544.66 1059.54 545.75 1061.67 546.00 1062.00
C 637.87 1143.66 727.61 1231.25 820.75 1313.25 C 913.90 1395.25 1001.94 1483.61 1096.00 1564.00
C 1093.07 1557.56 1101.63 1545.07 1098.00 1537.00
C 1108.45 1538.09 1106.32 1524.04 1108.78 1515.78 C 1111.23 1507.51 1108.48 1495.22 1112.00 1487.00
C 1126.14 1491.00 1123.21 1476.46 1124.00 1467.00 C 1124.79 1457.54 1126.96 1447.03 1126.00 1437.00
C 1131.33 1437.00 1136.67 1437.00 1142.00 1437.00
C 1142.96 1428.51 1142.99 1419.73 1143.00 1411.00 C 1143.01 1402.27 1142.75 1392.58 1143.00 1384.00 C 1143.25 1375.42 1142.34 1365.16 1143.00 1357.00 C 1143.66 1348.84 1138.77 1335.19 1150.00 1337.00
C 1150.00 1328.67 1150.00 1320.33 1150.00 1312.00
C 1156.64 1308.44 1151.26 1294.62 1153.00 1287.00
C 1159.64 1283.44 1154.26 1269.61 1156.00 1262.00
C 1171.10 1264.37 1165.92 1246.50 1166.00 1235.00 C 1166.08 1223.50 1167.18 1211.58 1168.00 1200.00 C 1168.82 1188.42 1167.38 1173.85 1168.00 1162.00
C 1175.11 1160.17 1168.08 1147.04 1172.00 1142.00
C 1127.11 1108.62 1081.22 1074.15 1038.00 1039.00
C 1039.00 1039.47 1036.31 1039.81 1034.75 1038.25 C 1033.20 1036.68 1032.30 1035.36 1032.00 1035.00
C 1023.02 1028.25 1014.17 1020.80 1004.92 1014.08 C 995.67 1007.36 987.31 1000.73 977.75 993.25 C 968.19 985.77 959.54 980.04 950.25 972.75 C 940.96 965.46 931.78 958.93 922.77 952.23 C 913.76 945.53 904.93 937.72 895.77 931.23 C 886.61 924.74 877.87 917.54 868.30 910.70 C 858.74 903.85 850.84 896.87 841.25 889.75 C 831.65 882.64 823.07 875.79 813.25 868.75 C 803.43 861.71 795.76 854.40 786.08 847.92 C 776.41 841.44 769.13 833.98 758.75 827.25 C 748.38 820.51 743.39 814.28 731.30 806.70 C 719.22 799.11 733.52 791.39 742.70 784.70 C 751.87 778.01 760.56 770.75 770.08 764.08 C 779.61 757.41 787.67 750.19 797.25 743.25 C 806.83 736.30 815.71 728.90 825.00 722.00
C 827.00 719.58 831.97 715.52 835.00 714.00
C 849.13 702.39 865.70 691.74 880.25 680.25 C 894.79 668.76 910.04 656.95 926.00 646.00
C 929.79 641.98 932.73 638.86 937.00 637.00
C 968.99 613.22 999.71 589.01 1032.00 565.00
C 1034.00 562.58 1038.97 558.52 1042.00 557.00
C 1092.24 515.74 1148.69 478.79 1200.00 439.00
C 1200.00 429.13 1200.00 418.83 1200.00 409.00 C 1200.00 399.17 1200.00 389.78 1200.00 380.00 C 1200.00 370.22 1200.00 360.80 1200.00 351.00 C 1200.00 341.20 1200.00 330.80 1200.00 321.00 C 1200.00 311.20 1200.00 301.76 1200.00 292.00 C 1200.00 282.24 1200.00 272.79 1200.00 263.00 C 1200.00 253.21 1200.00 242.78 1200.00 233.00 C 1200.00 223.22 1199.99 213.74 1200.00 204.00 C 1200.01 194.26 1199.98 184.74 1200.00 175.00 C 1200.02 165.26 1199.97 154.68 1200.00 145.00 C 1200.03 135.32 1199.92 125.49 1200.00 116.00 C 1200.08 106.51 1199.83 96.18 1200.00 87.00 C 1200.17 77.82 1199.99 67.14 1197.93 59.07 C 1195.86 51.00 1192.63 46.03 1188.30 39.70 C 1183.97 33.36 1179.45 29.79 1173.25 25.75 C 1167.04 21.71 1159.30 18.57 1152.00 17.00 C 1144.70 15.42 1132.62 15.29 1126.07 18.07 C 1119.53 20.86 1110.89 23.64 1108.00 25.00 Z"/>
</g>
<g fill="None" fill-opacity="0.0" stroke="#5FA3CB" stroke-opacity="0.29" stroke-width="0.3"><path d="
M 1050.00 78.00 
C 1054.55 75.32 1057.27 72.54 1061.00 68.00
C 1057.32 71.15 1053.48 74.88 1050.00 78.00 Z"/>
</g>
<g fill="None" fill-opacity="0.0" stroke="#4592C6" stroke-opacity="0.34" stroke-width="0.3"><path d="
M 1018.00 108.00 
C 1020.84 106.58 1024.93 102.60 1028.00 99.00
C 1024.78 101.70 1021.33 105.26 1018.00 108.00 Z"/>
</g>
<g fill="None" fill-opacity="0.0" stroke="#519FCB" stroke-opacity="0.31" stroke-width="0.3"><path d="
M 997.00 127.00 
C 998.91 125.86 1000.92 123.74 1003.00 121.00
C 1001.02 122.83 998.98 125.13 997.00 127.00 Z"/>
</g>
<g fill="None" fill-opacity="0.0" stroke="#4391C5" stroke-opacity="0.35" stroke-width="0.3"><path d="
M 980.00 142.00 
C 984.29 139.49 988.13 136.71 992.00 132.00
C 988.34 135.13 983.70 138.57 980.00 142.00 Z"/>
</g>
<g fill="None" fill-opacity="0.0" stroke="#4D96C4" stroke-opacity="0.41" stroke-width="0.3"><path d="
M 969.00 152.00 
C 972.17 150.23 975.06 148.08 977.00 145.00
C 974.62 147.43 971.42 149.78 969.00 152.00 Z"/>
</g>
<g fill="None" fill-opacity="0.0" stroke="#3D98C9" stroke-opacity="0.35" stroke-width="0.3"><path d="
M 888.00 226.00 
C 891.41 223.78 893.39 222.49 895.00 220.00
C 892.58 222.11 890.28 223.60 888.00 226.00 Z"/>
</g>
<g fill="None" fill-opacity="0.0" stroke="#0988D9" stroke-opacity="0.39" stroke-width="0.3"><path d="
M 1600.00 258.00 
L 1600.00 245.00
C 1600.00 245.00 1599.04 245.13 1599.00 245.00
C 1596.63 247.31 1599.71 255.23 1600.00 258.00 Z"/>
</g>
<g fill="None" fill-opacity="0.0" stroke="#000000" stroke-opacity="0.00" stroke-width="0.3"><path d="
M 1042.00 557.00 
C 1038.66 559.74 1035.46 562.43 1032.00 565.00
C 999.71 589.01 968.99 613.22 937.00 637.00
C 935.38 638.20 933.77 639.76 932.00 641.00
C 931.74 641.23 931.30 641.78 931.00 642.00
C 929.59 643.30 927.68 644.85 926.00 646.00
C 910.04 656.95 894.79 668.76 880.25 680.25 C 865.70 691.74 849.13 702.39 835.00 714.00
C 831.66 716.74 828.46 719.43 825.00 722.00
C 815.71 728.90 806.83 736.30 797.25 743.25 C 787.67 750.19 779.61 757.41 770.08 764.08 C 760.56 770.75 751.87 778.01 742.70 784.70 C 733.52 791.39 719.22 799.11 731.30 806.70 C 743.39 814.28 748.38 820.51 758.75 827.25 C 769.13 833.98 776.41 841.44 786.08 847.92 C 795.76 854.40 803.43 861.71 813.25 868.75 C 823.07 875.79 831.65 882.64 841.25 889.75 C 850.84 896.87 858.74 903.85 868.30 910.70 C 877.87 917.54 886.61 924.74 895.77 931.23 C 904.93 937.72 913.76 945.53 922.77 952.23 C 931.78 958.93 940.96 965.46 950.25 972.75 C 959.54 980.04 968.19 985.77 977.75 993.25 C 987.31 1000.73 995.67 1007.36 1004.92 1014.08 C 1014.17 1020.80 1023.02 1028.25 1032.00 1035.00
C 1033.71 1036.29 1036.12 1037.47 1038.00 1039.00
C 1081.22 1074.15 1127.11 1108.62 1172.00 1142.00
C 1175.85 1144.86 1183.29 1147.56 1186.25 1151.75 C 1189.21 1155.95 1198.07 1157.79 1200.00 1162.00
C 1200.01 920.99 1199.99 680.01 1200.00 439.00
C 1148.69 478.79 1092.24 515.74 1042.00 557.00 Z"/>
</g>
<g fill="None" fill-opacity="0.0" stroke="#156FAA" stroke-opacity="0.46" stroke-width="0.3"><path d="
M 283.00 467.00 
C 279.43 464.43 276.92 461.53 273.00 459.00
C 276.36 462.29 279.25 465.36 283.00 467.00 Z"/>
</g>
<g fill="None" fill-opacity="0.0" stroke="#258FD4" stroke-opacity="0.45" stroke-width="0.3"><path d="
M 0.00 519.00 
L 0.00 530.00
C 2.63 525.70 1.35 518.08 2.00 514.00
C 1.38 515.68 1.05 517.80 0.00 519.00 Z"/>
</g>
<g fill="None" fill-opacity="0.0" stroke="#238FD2" stroke-opacity="0.43" stroke-width="0.3"><path d="
M 0.00 548.00 
C 1.13 548.02 0.77 549.35 1.00 550.00
C 0.71 546.79 2.78 540.36 0.00 537.00
L 0.00 548.00 Z"/>
</g>
<g fill="None" fill-opacity="0.0" stroke="#000000" stroke-opacity="0.00" stroke-width="0.3"><path d="
M 0.00 1052.00 
C 10.78 1016.82 44.91 996.30 70.70 971.70 C 96.48 947.09 123.97 922.37 150.00 899.00
C 152.81 896.48 156.07 893.61 159.00 891.00
C 192.17 861.52 223.75 830.63 258.00 801.00
C 239.24 784.12 219.96 765.96 202.00 748.00
C 200.23 746.23 197.80 744.65 196.00 743.00
C 183.75 731.79 171.88 720.45 159.00 709.00
C 156.75 707.00 154.19 704.96 152.00 703.00
C 135.22 687.94 117.02 670.13 100.00 655.00
C 97.59 652.86 94.92 649.64 93.00 648.00
C 81.70 642.20 72.96 629.38 63.23 621.77 C 53.51 614.16 43.36 603.49 34.00 595.00
C 31.41 592.65 28.43 590.16 26.00 588.00
C 13.96 577.30 6.59 565.64 1.00 550.00
C 0.77 549.35 1.13 548.02 0.00 548.00
L 0.00 1052.00 Z"/>
</g>
<g fill="None" fill-opacity="0.0" stroke="#006EBA" stroke-opacity="0.36" stroke-width="0.3"><path d="
M 1032.00 565.00 
C 1035.46 562.43 1038.66 559.74 1042.00 557.00
C 1038.97 558.52 1034.00 562.58 1032.00 565.00 Z"/>
</g>
<g fill="None" fill-opacity="0.0" stroke="#2696D7" stroke-opacity="0.33" stroke-width="0.3"><path d="
M 26.00 588.00 
C 28.43 590.16 31.41 592.65 34.00 595.00
C 33.49 594.31 31.90 591.90 30.25 589.75 C 28.60 587.60 25.14 587.59 26.00 588.00 Z"/>
</g>
<g fill="None" fill-opacity="0.0" stroke="#046EA9" stroke-opacity="0.36" stroke-width="0.3"><path d="
M 926.00 646.00 
C 927.68 644.85 929.59 643.30 931.00 642.00
C 931.26 641.76 931.70 641.21 932.00 641.00
C 933.77 639.76 935.38 638.20 937.00 637.00
C 932.73 638.86 929.79 641.98 926.00 646.00 Z"/>
</g>
<g fill="None" fill-opacity="0.0" stroke="#006D92" stroke-opacity="0.03" stroke-width="0.3"><path d="
M 931.00 642.00 
C 931.30 641.78 931.74 641.23 932.00 641.00
C 931.70 641.21 931.26 641.76 931.00 642.00 Z"/>
</g>
<g fill="None" fill-opacity="0.0" stroke="#2390DD" stroke-opacity="0.41" stroke-width="0.3"><path d="
M 93.00 648.00 
C 94.92 649.64 97.59 652.86 100.00 655.00
C 98.58 653.11 95.51 649.29 93.00 648.00 Z"/>
</g>
<g fill="None" fill-opacity="0.0" stroke="#1F8FD7" stroke-opacity="0.35" stroke-width="0.3"><path d="
M 152.00 703.00 
C 154.19 704.96 156.75 707.00 159.00 709.00
C 158.63 708.51 157.27 706.22 155.75 704.25 C 154.24 702.28 151.01 702.52 152.00 703.00 Z"/>
</g>
<g fill="None" fill-opacity="0.0" stroke="#066BB0" stroke-opacity="0.40" stroke-width="0.3"><path d="
M 825.00 722.00 
C 828.46 719.43 831.66 716.74 835.00 714.00
C 831.97 715.52 827.00 719.58 825.00 722.00 Z"/>
</g>
<g fill="None" fill-opacity="0.0" stroke="#1B8DD2" stroke-opacity="0.46" stroke-width="0.3"><path d="
M 196.00 743.00 
C 197.80 744.65 200.23 746.23 202.00 748.00
C 202.70 745.57 197.25 742.11 195.00 740.00
C 194.86 741.17 195.41 742.07 196.00 743.00 Z"/>
</g>
<g fill="None" fill-opacity="0.0" stroke="#1072B0" stroke-opacity="0.99" stroke-width="0.3"><path d="
M 159.00 891.00 
C 156.69 894.08 153.83 896.74 150.00 899.00
C 123.97 922.37 96.48 947.09 70.70 971.70 C 44.91 996.30 10.78 1016.82 0.00 1052.00
L 0.00 1081.00
C 5.17 1101.84 20.24 1117.11 36.30 1130.70 C 52.36 1144.29 65.39 1157.48 81.70 1171.30 C 98.01 1185.13 108.29 1200.00 129.25 1209.75 C 150.20 1219.51 178.37 1211.27 197.00 1199.00
C 200.47 1195.46 203.28 1192.72 207.00 1191.00
C 215.80 1184.19 225.48 1177.09 234.00 1171.00
C 236.60 1168.13 238.33 1166.25 241.00 1165.00
C 268.67 1143.37 296.29 1123.09 324.75 1101.75 C 353.21 1080.41 380.03 1058.08 409.00 1038.00
C 412.48 1034.75 414.80 1032.54 418.00 1031.00
C 423.28 1026.79 429.23 1022.40 434.70 1018.70 C 440.16 1014.99 445.66 1008.42 451.75 1005.75 C 457.83 1003.08 462.44 993.00 469.00 993.00
C 446.97 970.97 422.68 948.98 399.25 927.75 C 375.82 906.52 351.65 884.84 328.75 863.25 C 305.85 841.66 280.07 820.86 258.00 801.00
C 223.75 830.63 192.17 861.52 159.00 891.00 Z"/>
</g>
<g fill="None" fill-opacity="0.0" stroke="#107CB3" stroke-opacity="0.31" stroke-width="0.3"><path d="
M 150.00 899.00 
C 153.83 896.74 156.69 894.08 159.00 891.00
C 156.07 893.61 152.81 896.48 150.00 899.00 Z"/>
</g>
<g fill="None" fill-opacity="0.0" stroke="#000000" stroke-opacity="0.00" stroke-width="0.3"><path d="
M 418.00 1031.00 
C 415.10 1033.31 412.11 1035.84 409.00 1038.00
C 380.03 1058.08 353.21 1080.41 324.75 1101.75 C 296.29 1123.09 268.67 1143.37 241.00 1165.00
C 238.64 1166.84 236.54 1169.19 234.00 1171.00
C 225.48 1177.09 215.80 1184.19 207.00 1191.00
C 203.75 1193.52 200.58 1196.65 197.00 1199.00
C 178.37 1211.27 150.20 1219.51 129.25 1209.75 C 108.29 1200.00 98.01 1185.13 81.70 1171.30 C 65.39 1157.48 52.36 1144.29 36.30 1130.70 C 20.24 1117.11 5.17 1101.84 0.00 1081.00
L 0.00 1600.00
L 1600.00 1600.00
L 1600.00 1355.00
C 1599.50 1355.00 1599.00 1355.00 1599.00 1355.00
C 1594.39 1394.02 1563.89 1419.31 1530.69 1434.69 C 1497.50 1450.07 1463.56 1465.89 1430.23 1482.23 C 1396.90 1498.57 1365.11 1513.07 1331.23 1530.23 C 1297.35 1547.39 1265.34 1559.15 1231.08 1578.08 C 1196.81 1597.00 1152.66 1603.30 1117.00 1581.00
C 1113.86 1579.03 1111.62 1577.03 1109.00 1575.00
C 1105.07 1571.96 1100.26 1567.64 1096.00 1564.00
C 1001.94 1483.61 913.90 1395.25 820.75 1313.25 C 727.61 1231.25 637.87 1143.66 546.00 1062.00
C 544.11 1060.32 541.81 1058.67 540.00 1057.00
C 516.76 1035.52 490.93 1014.93 469.00 993.00
C 462.44 993.00 457.83 1003.08 451.75 1005.75 C 445.66 1008.42 440.16 1014.99 434.70 1018.70 C 429.23 1022.40 423.28 1026.79 418.00 1031.00 Z"/>
</g>
<g fill="None" fill-opacity="0.0" stroke="#005999" stroke-opacity="0.27" stroke-width="0.3"><path d="
M 409.00 1038.00 
C 412.11 1035.84 415.10 1033.31 418.00 1031.00
C 414.80 1032.54 412.48 1034.75 409.00 1038.00 Z"/>
</g>
<g fill="None" fill-opacity="0.0" stroke="#016CAE" stroke-opacity="0.44" stroke-width="0.3"><path d="
M 1038.00 1039.00 
C 1036.12 1037.47 1033.71 1036.29 1032.00 1035.00
C 1032.30 1035.36 1033.20 1036.68 1034.75 1038.25 C 1036.31 1039.81 1039.00 1039.47 1038.00 1039.00 Z"/>
</g>
<g fill="None" fill-opacity="0.0" stroke="#0B90D5" stroke-opacity="0.36" stroke-width="0.3"><path d="
M 540.00 1057.00 
C 541.81 1058.67 544.11 1060.32 546.00 1062.00
C 545.75 1061.67 544.66 1059.54 543.25 1057.75 C 541.84 1055.97 538.92 1056.45 540.00 1057.00 Z"/>
</g>
<g fill="None" fill-opacity="0.0" stroke="#0276C0" stroke-opacity="1.00" stroke-width="0.3"><path d="
M 1096.00 1564.00 
C 1100.26 1567.64 1105.07 1571.96 1109.00 1575.00
C 1110.93 1575.92 1116.18 1578.69 1119.00 1580.00
C 1143.37 1591.27 1175.48 1581.76 1190.25 1557.25 C 1205.02 1532.74 1199.45 1497.13 1200.00 1466.00 C 1200.55 1434.87 1199.76 1396.52 1200.00 1364.00 C 1200.24 1331.48 1199.91 1296.07 1200.00 1263.00 C 1200.09 1229.93 1200.00 1195.22 1200.00 1162.00
C 1198.07 1157.79 1189.21 1155.95 1186.25 1151.75 C 1183.29 1147.56 1175.85 1144.86 1172.00 1142.00
C 1168.08 1147.04 1175.11 1160.17 1168.00 1162.00
C 1167.38 1173.85 1168.82 1188.42 1168.00 1200.00 C 1167.18 1211.58 1166.08 1223.50 1166.00 1235.00 C 1165.92 1246.50 1171.10 1264.37 1156.00 1262.00
C 1154.26 1269.61 1159.64 1283.44 1153.00 1287.00
C 1151.26 1294.62 1156.64 1308.44 1150.00 1312.00
C 1150.00 1320.33 1150.00 1328.67 1150.00 1337.00
C 1138.77 1335.19 1143.66 1348.84 1143.00 1357.00 C 1142.34 1365.16 1143.25 1375.42 1143.00 1384.00 C 1142.75 1392.58 1143.01 1402.27 1143.00 1411.00 C 1142.99 1419.73 1142.96 1428.51 1142.00 1437.00
C 1136.67 1437.00 1131.33 1437.00 1126.00 1437.00
C 1126.96 1447.03 1124.79 1457.54 1124.00 1467.00 C 1123.21 1476.46 1126.14 1491.00 1112.00 1487.00
C 1108.48 1495.22 1111.23 1507.51 1108.78 1515.78 C 1106.32 1524.04 1108.45 1538.09 1098.00 1537.00
C 1101.63 1545.07 1093.07 1557.56 1096.00 1564.00 Z"/>
</g>
<g fill="None" fill-opacity="0.0" stroke="#006CAF" stroke-opacity="0.29" stroke-width="0.3"><path d="
M 234.00 1171.00 
C 236.54 1169.19 238.64 1166.84 241.00 1165.00
C 238.33 1166.25 236.60 1168.13 234.00 1171.00 Z"/>
</g>
<g fill="None" fill-opacity="0.0" stroke="#006CB2" stroke-opacity="0.31" stroke-width="0.3"><path d="
M 197.00 1199.00 
C 200.58 1196.65 203.75 1193.52 207.00 1191.00
C 203.28 1192.72 200.47 1195.46 197.00 1199.00 Z"/>
</g>
<g fill="None" fill-opacity="0.0" stroke="#0689DA" stroke-opacity="0.42" stroke-width="0.3"><path d="
M 1599.00 1355.00 
C 1599.00 1355.00 1599.50 1355.00 1600.00 1355.00
L 1600.00 1342.00
C 1599.67 1344.77 1596.41 1352.49 1599.00 1355.00 Z"/>
</g>
<g fill="None" fill-opacity="0.0" stroke="#1291E2" stroke-opacity="0.54" stroke-width="0.3"><path d="
M 1109.00 1575.00 
C 1111.62 1577.03 1113.86 1579.03 1117.00 1581.00
C 1118.15 1581.17 1118.48 1580.08 1119.00 1580.00
C 1116.18 1578.69 1110.93 1575.92 1109.00 1575.00 Z"/>
</g>
<g fill="#000000" fill-opacity="0.00" stroke="None">
<path d="
M 0.00 519.00 
C 1.05 517.80 1.38 515.68 2.00 514.00
C 12.47 485.78 34.60 471.04 56.75 450.75 C 78.91 430.46 94.49 415.13 119.70 395.70 C 144.90 376.26 183.75 389.86 205.75 408.25 C 227.74 426.65 249.07 443.56 273.00 459.00
C 276.92 461.53 279.43 464.43 283.00 467.00
C 295.72 476.17 306.84 484.18 318.70 493.30 C 330.55 502.42 342.22 511.69 354.25 520.75 C 366.28 529.82 377.65 537.78 389.70 547.30 C 401.75 556.83 413.20 564.95 425.25 574.75 C 437.30 584.55 448.40 590.57 460.75 601.25 C 473.09 611.94 484.02 593.57 495.25 584.25 C 506.47 574.93 516.33 564.58 527.70 554.70 C 539.06 544.81 549.49 534.04 560.70 524.70 C 571.90 515.35 582.51 503.43 593.30 494.30 C 604.08 485.17 615.05 474.51 625.75 464.75 C 636.46 455.00 647.57 445.10 658.75 434.75 C 669.93 424.41 679.90 415.68 691.25 405.25 C 702.59 394.82 713.27 385.46 724.25 375.25 C 735.22 365.04 746.09 355.40 756.75 345.75 C 767.41 336.09 778.75 325.07 789.30 315.30 C 799.85 305.53 811.10 296.43 822.08 286.08 C 833.06 275.73 843.74 266.31 854.75 255.75 C 865.76 245.19 877.90 236.60 888.00 226.00
C 890.28 223.60 892.58 222.11 895.00 220.00
C 920.27 197.98 945.06 173.92 969.00 152.00
C 971.42 149.78 974.62 147.43 977.00 145.00
C 977.98 144.00 979.01 142.92 980.00 142.00
C 983.70 138.57 988.34 135.13 992.00 132.00
C 993.70 129.93 995.01 128.88 997.00 127.00
C 998.98 125.13 1001.02 122.83 1003.00 121.00
C 1007.56 116.79 1013.22 111.93 1018.00 108.00
C 1021.33 105.26 1024.78 101.70 1028.00 99.00
C 1034.80 91.04 1042.46 84.77 1050.00 78.00
C 1053.48 74.88 1057.32 71.15 1061.00 68.00
C 1077.45 53.95 1091.09 38.22 1108.00 25.00
C 1112.61 21.40 1118.14 18.69 1123.00 15.00
C 1123.32 14.76 1124.00 15.00 1124.00 15.00
C 1153.61 -0.49 1192.89 1.54 1221.23 16.77 C 1249.57 32.00 1275.01 42.00 1302.75 56.25 C 1330.48 70.51 1357.02 81.60 1384.70 95.30 C 1412.37 109.01 1438.41 121.31 1466.23 134.77 C 1494.05 148.23 1519.74 160.40 1548.08 173.92 C 1576.42 187.44 1590.72 216.35 1599.00 245.00
C 1599.04 245.13 1600.00 245.00 1600.00 245.00
L 1600.00 0.00
L 0.00 0.00
L 0.00 519.00 Z"/>
</g>
<g fill="#39AAF1" fill-opacity="1.00" stroke="None">
<path d="
M 1124.00 15.00 
C 1126.72 15.96 1123.75 17.45 1123.00 15.00
C 1118.14 18.69 1112.61 21.40 1108.00 25.00
C 1110.89 23.64 1119.53 20.86 1126.07 18.07 C 1132.62 15.29 1144.70 15.42 1152.00 17.00 C 1159.30 18.57 1167.04 21.71 1173.25 25.75 C 1179.45 29.79 1183.97 33.36 1188.30 39.70 C 1192.63 46.03 1195.86 51.00 1197.93 59.07 C 1199.99 67.14 1200.17 77.82 1200.00 87.00 C 1199.83 96.18 1200.08 106.51 1200.00 116.00 C 1199.92 125.49 1200.03 135.32 1200.00 145.00 C 1199.97 154.68 1200.02 165.26 1200.00 175.00 C 1199.98 184.74 1200.01 194.26 1200.00 204.00 C 1199.99 213.74 1200.00 223.22 1200.00 233.00 C 1200.00 242.78 1200.00 253.21 1200.00 263.00 C 1200.00 272.79 1200.00 282.24 1200.00 292.00 C 1200.00 301.76 1200.00 311.20 1200.00 321.00 C 1200.00 330.80 1200.00 341.20 1200.00 351.00 C 1200.00 360.80 1200.00 370.22 1200.00 380.00 C 1200.00 389.78 1200.00 399.17 1200.00 409.00 C 1200.00 418.83 1200.00 429.13 1200.00 439.00
C 1199.99 680.01 1200.01 920.99 1200.00 1162.00
C 1200.00 1195.22 1200.09 1229.93 1200.00 1263.00 C 1199.91 1296.07 1200.24 1331.48 1200.00 1364.00 C 1199.76 1396.52 1200.55 1434.87 1200.00 1466.00 C 1199.45 1497.13 1205.02 1532.74 1190.25 1557.25 C 1175.48 1581.76 1143.37 1591.27 1119.00 1580.00
C 1118.48 1580.08 1118.15 1581.17 1117.00 1581.00
C 1152.66 1603.30 1196.81 1597.00 1231.08 1578.08 C 1265.34 1559.15 1297.35 1547.39 1331.23 1530.23 C 1365.11 1513.07 1396.90 1498.57 1430.23 1482.23 C 1463.56 1465.89 1497.50 1450.07 1530.69 1434.69 C 1563.89 1419.31 1594.39 1394.02 1599.00 1355.00
C 1596.41 1352.49 1599.67 1344.77 1600.00 1342.00
L 1600.00 258.00
C 1599.71 255.23 1596.63 247.31 1599.00 245.00
C 1590.72 216.35 1576.42 187.44 1548.08 173.92 C 1519.74 160.40 1494.05 148.23 1466.23 134.77 C 1438.41 121.31 1412.37 109.01 1384.70 95.30 C 1357.02 81.60 1330.48 70.51 1302.75 56.25 C 1275.01 42.00 1249.57 32.00 1221.23 16.77 C 1192.89 1.54 1153.61 -0.49 1124.00 15.00 Z"/>
</g>
<g fill="#54B2EE" fill-opacity="0.53" stroke="None">
<path d="
M 1124.00 15.00 
C 1124.00 15.00 1123.32 14.76 1123.00 15.00
C 1123.75 17.45 1126.72 15.96 1124.00 15.00 Z"/>
</g>
<g fill="#1F85C7" fill-opacity="1.00" stroke="None">
<path d="
M 1108.00 25.00 
C 1091.09 38.22 1077.45 53.95 1061.00 68.00
C 1057.27 72.54 1054.55 75.32 1050.00 78.00
C 1042.46 84.77 1034.80 91.04 1028.00 99.00
C 1024.93 102.60 1020.84 106.58 1018.00 108.00
C 1013.22 111.93 1007.56 116.79 1003.00 121.00
C 1000.92 123.74 998.91 125.86 997.00 127.00
C 995.01 128.88 993.70 129.93 992.00 132.00
C 988.13 136.71 984.29 139.49 980.00 142.00
C 979.01 142.92 977.98 144.00 977.00 145.00
C 975.06 148.08 972.17 150.23 969.00 152.00
C 945.06 173.92 920.27 197.98 895.00 220.00
C 893.39 222.49 891.41 223.78 888.00 226.00
C 877.90 236.60 865.76 245.19 854.75 255.75 C 843.74 266.31 833.06 275.73 822.08 286.08 C 811.10 296.43 799.85 305.53 789.30 315.30 C 778.75 325.07 767.41 336.09 756.75 345.75 C 746.09 355.40 735.22 365.04 724.25 375.25 C 713.27 385.46 702.59 394.82 691.25 405.25 C 679.90 415.68 669.93 424.41 658.75 434.75 C 647.57 445.10 636.46 455.00 625.75 464.75 C 615.05 474.51 604.08 485.17 593.30 494.30 C 582.51 503.43 571.90 515.35 560.70 524.70 C 549.49 534.04 539.06 544.81 527.70 554.70 C 516.33 564.58 506.47 574.93 495.25 584.25 C 484.02 593.57 473.09 611.94 460.75 601.25 C 448.40 590.57 437.30 584.55 425.25 574.75 C 413.20 564.95 401.75 556.83 389.70 547.30 C 377.65 537.78 366.28 529.82 354.25 520.75 C 342.22 511.69 330.55 502.42 318.70 493.30 C 306.84 484.18 295.72 476.17 283.00 467.00
C 279.25 465.36 276.36 462.29 273.00 459.00
C 249.07 443.56 227.74 426.65 205.75 408.25 C 183.75 389.86 144.90 376.26 119.70 395.70 C 94.49 415.13 78.91 430.46 56.75 450.75 C 34.60 471.04 12.47 485.78 2.00 514.00
C 1.35 518.08 2.63 525.70 0.00 530.00
L 0.00 537.00
C 2.78 540.36 0.71 546.79 1.00 550.00
C 6.59 565.64 13.96 577.30 26.00 588.00
C 25.14 587.59 28.60 587.60 30.25 589.75 C 31.90 591.90 33.49 594.31 34.00 595.00
C 43.36 603.49 53.51 614.16 63.23 621.77 C 72.96 629.38 81.70 642.20 93.00 648.00
C 95.51 649.29 98.58 653.11 100.00 655.00
C 117.02 670.13 135.22 687.94 152.00 703.00
C 151.01 702.52 154.24 702.28 155.75 704.25 C 157.27 706.22 158.63 708.51 159.00 709.00
C 171.88 720.45 183.75 731.79 196.00 743.00
C 195.41 742.07 194.86 741.17 195.00 740.00
C 197.25 742.11 202.70 745.57 202.00 748.00
C 219.96 765.96 239.24 784.12 258.00 801.00
C 280.07 820.86 305.85 841.66 328.75 863.25 C 351.65 884.84 375.82 906.52 399.25 927.75 C 422.68 948.98 446.97 970.97 469.00 993.00
C 490.93 1014.93 516.76 1035.52 540.00 1057.00
C 538.92 1056.45 541.84 1055.97 543.25 1057.75 C 544.66 1059.54 545.75 1061.67 546.00 1062.00
C 637.87 1143.66 727.61 1231.25 820.75 1313.25 C 913.90 1395.25 1001.94 1483.61 1096.00 1564.00
C 1093.07 1557.56 1101.63 1545.07 1098.00 1537.00
C 1108.45 1538.09 1106.32 1524.04 1108.78 1515.78 C 1111.23 1507.51 1108.48 1495.22 1112.00 1487.00
C 1126.14 1491.00 1123.21 1476.46 1124.00 1467.00 C 1124.79 1457.54 1126.96 1447.03 1126.00 1437.00
C 1131.33 1437.00 1136.67 1437.00 1142.00 1437.00
C 1142.96 1428.51 1142.99 1419.73 1143.00 1411.00 C 1143.01 1402.27 1142.75 1392.58 1143.00 1384.00 C 1143.25 1375.42 1142.34 1365.16 1143.00 1357.00 C 1143.66 1348.84 1138.77 1335.19 1150.00 1337.00
C 1150.00 1328.67 1150.00 1320.33 1150.00 1312.00
C 1156.64 1308.44 1151.26 1294.62 1153.00 1287.00
C 1159.64 1283.44 1154.26 1269.61 1156.00 1262.00
C 1171.10 1264.37 1165.92 1246.50 1166.00 1235.00 C 1166.08 1223.50 1167.18 1211.58 1168.00 1200.00 C 1168.82 1188.42 1167.38 1173.85 1168.00 1162.00
C 1175.11 1160.17 1168.08 1147.04 1172.00 1142.00
C 1127.11 1108.62 1081.22 1074.15 1038.00 1039.00
C 1039.00 1039.47 1036.31 1039.81 1034.75 1038.25 C 1033.20 1036.68 1032.30 1035.36 1032.00 1035.00
C 1023.02 1028.25 1014.17 1020.80 1004.92 1014.08 C 995.67 1007.36 987.31 1000.73 977.75 993.25 C 968.19 985.77 959.54 980.04 950.25 972.75 C 940.96 965.46 931.78 958.93 922.77 952.23 C 913.76 945.53 904.93 937.72 895.77 931.23 C 886.61 924.74 877.87 917.54 868.30 910.70 C 858.74 903.85 850.84 896.87 841.25 889.75 C 831.65 882.64 823.07 875.79 813.25 868.75 C 803.43 861.71 795.76 854.40 786.08 847.92 C 776.41 841.44 769.13 833.98 758.75 827.25 C 748.38 820.51 743.39 814.28 731.30 806.70 C 719.22 799.11 733.52 791.39 742.70 784.70 C 751.87 778.01 760.56 770.75 770.08 764.08 C 779.61 757.41 787.67 750.19 797.25 743.25 C 806.83 736.30 815.71 728.90 825.00 722.00
C 827.00 719.58 831.97 715.52 835.00 714.00
C 849.13 702.39 865.70 691.74 880.25 680.25 C 894.79 668.76 910.04 656.95 926.00 646.00
C 929.79 641.98 932.73 638.86 937.00 637.00
C 968.99 613.22 999.71 589.01 1032.00 565.00
C 1034.00 562.58 1038.97 558.52 1042.00 557.00
C 1092.24 515.74 1148.69 478.79 1200.00 439.00
C 1200.00 429.13 1200.00 418.83 1200.00 409.00 C 1200.00 399.17 1200.00 389.78 1200.00 380.00 C 1200.00 370.22 1200.00 360.80 1200.00 351.00 C 1200.00 341.20 1200.00 330.80 1200.00 321.00 C 1200.00 311.20 1200.00 301.76 1200.00 292.00 C 1200.00 282.24 1200.00 272.79 1200.00 263.00 C 1200.00 253.21 1200.00 242.78 1200.00 233.00 C 1200.00 223.22 1199.99 213.74 1200.00 204.00 C 1200.01 194.26 1199.98 184.74 1200.00 175.00 C 1200.02 165.26 1199.97 154.68 1200.00 145.00 C 1200.03 135.32 1199.92 125.49 1200.00 116.00 C 1200.08 106.51 1199.83 96.18 1200.00 87.00 C 1200.17 77.82 1199.99 67.14 1197.93 59.07 C 1195.86 51.00 1192.63 46.03 1188.30 39.70 C 1183.97 33.36 1179.45 29.79 1173.25 25.75 C 1167.04 21.71 1159.30 18.57 1152.00 17.00 C 1144.70 15.42 1132.62 15.29 1126.07 18.07 C 1119.53 20.86 1110.89 23.64 1108.00 25.00 Z"/>
</g>
<g fill="#5FA3CB" fill-opacity="0.29" stroke="None">
<path d="
M 1050.00 78.00 
C 1054.55 75.32 1057.27 72.54 1061.00 68.00
C 1057.32 71.15 1053.48 74.88 1050.00 78.00 Z"/>
</g>
<g fill="#4592C6" fill-opacity="0.34" stroke="None">
<path d="
M 1018.00 108.00 
C 1020.84 106.58 1024.93 102.60 1028.00 99.00
C 1024.78 101.70 1021.33 105.26 1018.00 108.00 Z"/>
</g>
<g fill="#519FCB" fill-opacity="0.31" stroke="None">
<path d="
M 997.00 127.00 
C 998.91 125.86 1000.92 123.74 1003.00 121.00
C 1001.02 122.83 998.98 125.13 997.00 127.00 Z"/>
</g>
<g fill="#4391C5" fill-opacity="0.35" stroke="None">
<path d="
M 980.00 142.00 
C 984.29 139.49 988.13 136.71 992.00 132.00
C 988.34 135.13 983.70 138.57 980.00 142.00 Z"/>
</g>
<g fill="#4D96C4" fill-opacity="0.41" stroke="None">
<path d="
M 969.00 152.00 
C 972.17 150.23 975.06 148.08 977.00 145.00
C 974.62 147.43 971.42 149.78 969.00 152.00 Z"/>
</g>
<g fill="#3D98C9" fill-opacity="0.35" stroke="None">
<path d="
M 888.00 226.00 
C 891.41 223.78 893.39 222.49 895.00 220.00
C 892.58 222.11 890.28 223.60 888.00 226.00 Z"/>
</g>
<g fill="#0988D9" fill-opacity="0.39" stroke="None">
<path d="
M 1600.00 258.00 
L 1600.00 245.00
C 1600.00 245.00 1599.04 245.13 1599.00 245.00
C 1596.63 247.31 1599.71 255.23 1600.00 258.00 Z"/>
</g>
<g fill="#000000" fill-opacity="0.00" stroke="None">
<path d="
M 1042.00 557.00 
C 1038.66 559.74 1035.46 562.43 1032.00 565.00
C 999.71 589.01 968.99 613.22 937.00 637.00
C 935.38 638.20 933.77 639.76 932.00 641.00
C 931.74 641.23 931.30 641.78 931.00 642.00
C 929.59 643.30 927.68 644.85 926.00 646.00
C 910.04 656.95 894.79 668.76 880.25 680.25 C 865.70 691.74 849.13 702.39 835.00 714.00
C 831.66 716.74 828.46 719.43 825.00 722.00
C 815.71 728.90 806.83 736.30 797.25 743.25 C 787.67 750.19 779.61 757.41 770.08 764.08 C 760.56 770.75 751.87 778.01 742.70 784.70 C 733.52 791.39 719.22 799.11 731.30 806.70 C 743.39 814.28 748.38 820.51 758.75 827.25 C 769.13 833.98 776.41 841.44 786.08 847.92 C 795.76 854.40 803.43 861.71 813.25 868.75 C 823.07 875.79 831.65 882.64 841.25 889.75 C 850.84 896.87 858.74 903.85 868.30 910.70 C 877.87 917.54 886.61 924.74 895.77 931.23 C 904.93 937.72 913.76 945.53 922.77 952.23 C 931.78 958.93 940.96 965.46 950.25 972.75 C 959.54 980.04 968.19 985.77 977.75 993.25 C 987.31 1000.73 995.67 1007.36 1004.92 1014.08 C 1014.17 1020.80 1023.02 1028.25 1032.00 1035.00
C 1033.71 1036.29 1036.12 1037.47 1038.00 1039.00
C 1081.22 1074.15 1127.11 1108.62 1172.00 1142.00
C 1175.85 1144.86 1183.29 1147.56 1186.25 1151.75 C 1189.21 1155.95 1198.07 1157.79 1200.00 1162.00
C 1200.01 920.99 1199.99 680.01 1200.00 439.00
C 1148.69 478.79 1092.24 515.74 1042.00 557.00 Z"/>
</g>
<g fill="#156FAA" fill-opacity="0.46" stroke="None">
<path d="
M 283.00 467.00 
C 279.43 464.43 276.92 461.53 273.00 459.00
C 276.36 462.29 279.25 465.36 283.00 467.00 Z"/>
</g>
<g fill="#258FD4" fill-opacity="0.45" stroke="None">
<path d="
M 0.00 519.00 
L 0.00 530.00
C 2.63 525.70 1.35 518.08 2.00 514.00
C 1.38 515.68 1.05 517.80 0.00 519.00 Z"/>
</g>
<g fill="#238FD2" fill-opacity="0.43" stroke="None">
<path d="
M 0.00 548.00 
C 1.13 548.02 0.77 549.35 1.00 550.00
C 0.71 546.79 2.78 540.36 0.00 537.00
L 0.00 548.00 Z"/>
</g>
<g fill="#000000" fill-opacity="0.00" stroke="None">
<path d="
M 0.00 1052.00 
C 10.78 1016.82 44.91 996.30 70.70 971.70 C 96.48 947.09 123.97 922.37 150.00 899.00
C 152.81 896.48 156.07 893.61 159.00 891.00
C 192.17 861.52 223.75 830.63 258.00 801.00
C 239.24 784.12 219.96 765.96 202.00 748.00
C 200.23 746.23 197.80 744.65 196.00 743.00
C 183.75 731.79 171.88 720.45 159.00 709.00
C 156.75 707.00 154.19 704.96 152.00 703.00
C 135.22 687.94 117.02 670.13 100.00 655.00
C 97.59 652.86 94.92 649.64 93.00 648.00
C 81.70 642.20 72.96 629.38 63.23 621.77 C 53.51 614.16 43.36 603.49 34.00 595.00
C 31.41 592.65 28.43 590.16 26.00 588.00
C 13.96 577.30 6.59 565.64 1.00 550.00
C 0.77 549.35 1.13 548.02 0.00 548.00
L 0.00 1052.00 Z"/>
</g>
<g fill="#006EBA" fill-opacity="0.36" stroke="None">
<path d="
M 1032.00 565.00 
C 1035.46 562.43 1038.66 559.74 1042.00 557.00
C 1038.97 558.52 1034.00 562.58 1032.00 565.00 Z"/>
</g>
<g fill="#2696D7" fill-opacity="0.33" stroke="None">
<path d="
M 26.00 588.00 
C 28.43 590.16 31.41 592.65 34.00 595.00
C 33.49 594.31 31.90 591.90 30.25 589.75 C 28.60 587.60 25.14 587.59 26.00 588.00 Z"/>
</g>
<g fill="#046EA9" fill-opacity="0.36" stroke="None">
<path d="
M 926.00 646.00 
C 927.68 644.85 929.59 643.30 931.00 642.00
C 931.26 641.76 931.70 641.21 932.00 641.00
C 933.77 639.76 935.38 638.20 937.00 637.00
C 932.73 638.86 929.79 641.98 926.00 646.00 Z"/>
</g>
<g fill="#006D92" fill-opacity="0.03" stroke="None">
<path d="
M 931.00 642.00 
C 931.30 641.78 931.74 641.23 932.00 641.00
C 931.70 641.21 931.26 641.76 931.00 642.00 Z"/>
</g>
<g fill="#2390DD" fill-opacity="0.41" stroke="None">
<path d="
M 93.00 648.00 
C 94.92 649.64 97.59 652.86 100.00 655.00
C 98.58 653.11 95.51 649.29 93.00 648.00 Z"/>
</g>
<g fill="#1F8FD7" fill-opacity="0.35" stroke="None">
<path d="
M 152.00 703.00 
C 154.19 704.96 156.75 707.00 159.00 709.00
C 158.63 708.51 157.27 706.22 155.75 704.25 C 154.24 702.28 151.01 702.52 152.00 703.00 Z"/>
</g>
<g fill="#066BB0" fill-opacity="0.40" stroke="None">
<path d="
M 825.00 722.00 
C 828.46 719.43 831.66 716.74 835.00 714.00
C 831.97 715.52 827.00 719.58 825.00 722.00 Z"/>
</g>
<g fill="#1B8DD2" fill-opacity="0.46" stroke="None">
<path d="
M 196.00 743.00 
C 197.80 744.65 200.23 746.23 202.00 748.00
C 202.70 745.57 197.25 742.11 195.00 740.00
C 194.86 741.17 195.41 742.07 196.00 743.00 Z"/>
</g>
<g fill="#1072B0" fill-opacity="0.99" stroke="None">
<path d="
M 159.00 891.00 
C 156.69 894.08 153.83 896.74 150.00 899.00
C 123.97 922.37 96.48 947.09 70.70 971.70 C 44.91 996.30 10.78 1016.82 0.00 1052.00
L 0.00 1081.00
C 5.17 1101.84 20.24 1117.11 36.30 1130.70 C 52.36 1144.29 65.39 1157.48 81.70 1171.30 C 98.01 1185.13 108.29 1200.00 129.25 1209.75 C 150.20 1219.51 178.37 1211.27 197.00 1199.00
C 200.47 1195.46 203.28 1192.72 207.00 1191.00
C 215.80 1184.19 225.48 1177.09 234.00 1171.00
C 236.60 1168.13 238.33 1166.25 241.00 1165.00
C 268.67 1143.37 296.29 1123.09 324.75 1101.75 C 353.21 1080.41 380.03 1058.08 409.00 1038.00
C 412.48 1034.75 414.80 1032.54 418.00 1031.00
C 423.28 1026.79 429.23 1022.40 434.70 1018.70 C 440.16 1014.99 445.66 1008.42 451.75 1005.75 C 457.83 1003.08 462.44 993.00 469.00 993.00
C 446.97 970.97 422.68 948.98 399.25 927.75 C 375.82 906.52 351.65 884.84 328.75 863.25 C 305.85 841.66 280.07 820.86 258.00 801.00
C 223.75 830.63 192.17 861.52 159.00 891.00 Z"/>
</g>
<g fill="#107CB3" fill-opacity="0.31" stroke="None">
<path d="
M 150.00 899.00 
C 153.83 896.74 156.69 894.08 159.00 891.00
C 156.07 893.61 152.81 896.48 150.00 899.00 Z"/>
</g>
<g fill="#000000" fill-opacity="0.00" stroke="None">
<path d="
M 418.00 1031.00 
C 415.10 1033.31 412.11 1035.84 409.00 1038.00
C 380.03 1058.08 353.21 1080.41 324.75 1101.75 C 296.29 1123.09 268.67 1143.37 241.00 1165.00
C 238.64 1166.84 236.54 1169.19 234.00 1171.00
C 225.48 1177.09 215.80 1184.19 207.00 1191.00
C 203.75 1193.52 200.58 1196.65 197.00 1199.00
C 178.37 1211.27 150.20 1219.51 129.25 1209.75 C 108.29 1200.00 98.01 1185.13 81.70 1171.30 C 65.39 1157.48 52.36 1144.29 36.30 1130.70 C 20.24 1117.11 5.17 1101.84 0.00 1081.00
L 0.00 1600.00
L 1600.00 1600.00
L 1600.00 1355.00
C 1599.50 1355.00 1599.00 1355.00 1599.00 1355.00
C 1594.39 1394.02 1563.89 1419.31 1530.69 1434.69 C 1497.50 1450.07 1463.56 1465.89 1430.23 1482.23 C 1396.90 1498.57 1365.11 1513.07 1331.23 1530.23 C 1297.35 1547.39 1265.34 1559.15 1231.08 1578.08 C 1196.81 1597.00 1152.66 1603.30 1117.00 1581.00
C 1113.86 1579.03 1111.62 1577.03 1109.00 1575.00
C 1105.07 1571.96 1100.26 1567.64 1096.00 1564.00
C 1001.94 1483.61 913.90 1395.25 820.75 1313.25 C 727.61 1231.25 637.87 1143.66 546.00 1062.00
C 544.11 1060.32 541.81 1058.67 540.00 1057.00
C 516.76 1035.52 490.93 1014.93 469.00 993.00
C 462.44 993.00 457.83 1003.08 451.75 1005.75 C 445.66 1008.42 440.16 1014.99 434.70 1018.70 C 429.23 1022.40 423.28 1026.79 418.00 1031.00 Z"/>
</g>
<g fill="#005999" fill-opacity="0.27" stroke="None">
<path d="
M 409.00 1038.00 
C 412.11 1035.84 415.10 1033.31 418.00 1031.00
C 414.80 1032.54 412.48 1034.75 409.00 1038.00 Z"/>
</g>
<g fill="#016CAE" fill-opacity="0.44" stroke="None">
<path d="
M 1038.00 1039.00 
C 1036.12 1037.47 1033.71 1036.29 1032.00 1035.00
C 1032.30 1035.36 1033.20 1036.68 1034.75 1038.25 C 1036.31 1039.81 1039.00 1039.47 1038.00 1039.00 Z"/>
</g>
<g fill="#0B90D5" fill-opacity="0.36" stroke="None">
<path d="
M 540.00 1057.00 
C 541.81 1058.67 544.11 1060.32 546.00 1062.00
C 545.75 1061.67 544.66 1059.54 543.25 1057.75 C 541.84 1055.97 538.92 1056.45 540.00 1057.00 Z"/>
</g>
<g fill="#0276C0" fill-opacity="1.00" stroke="None">
<path d="
M 1096.00 1564.00 
C 1100.26 1567.64 1105.07 1571.96 1109.00 1575.00
C 1110.93 1575.92 1116.18 1578.69 1119.00 1580.00
C 1143.37 1591.27 1175.48 1581.76 1190.25 1557.25 C 1205.02 1532.74 1199.45 1497.13 1200.00 1466.00 C 1200.55 1434.87 1199.76 1396.52 1200.00 1364.00 C 1200.24 1331.48 1199.91 1296.07 1200.00 1263.00 C 1200.09 1229.93 1200.00 1195.22 1200.00 1162.00
C 1198.07 1157.79 1189.21 1155.95 1186.25 1151.75 C 1183.29 1147.56 1175.85 1144.86 1172.00 1142.00
C 1168.08 1147.04 1175.11 1160.17 1168.00 1162.00
C 1167.38 1173.85 1168.82 1188.42 1168.00 1200.00 C 1167.18 1211.58 1166.08 1223.50 1166.00 1235.00 C 1165.92 1246.50 1171.10 1264.37 1156.00 1262.00
C 1154.26 1269.61 1159.64 1283.44 1153.00 1287.00
C 1151.26 1294.62 1156.64 1308.44 1150.00 1312.00
C 1150.00 1320.33 1150.00 1328.67 1150.00 1337.00
C 1138.77 1335.19 1143.66 1348.84 1143.00 1357.00 C 1142.34 1365.16 1143.25 1375.42 1143.00 1384.00 C 1142.75 1392.58 1143.01 1402.27 1143.00 1411.00 C 1142.99 1419.73 1142.96 1428.51 1142.00 1437.00
C 1136.67 1437.00 1131.33 1437.00 1126.00 1437.00
C 1126.96 1447.03 1124.79 1457.54 1124.00 1467.00 C 1123.21 1476.46 1126.14 1491.00 1112.00 1487.00
C 1108.48 1495.22 1111.23 1507.51 1108.78 1515.78 C 1106.32 1524.04 1108.45 1538.09 1098.00 1537.00
C 1101.63 1545.07 1093.07 1557.56 1096.00 1564.00 Z"/>
</g>
<g fill="#006CAF" fill-opacity="0.29" stroke="None">
<path d="
M 234.00 1171.00 
C 236.54 1169.19 238.64 1166.84 241.00 1165.00
C 238.33 1166.25 236.60 1168.13 234.00 1171.00 Z"/>
</g>
<g fill="#006CB2" fill-opacity="0.31" stroke="None">
<path d="
M 197.00 1199.00 
C 200.58 1196.65 203.75 1193.52 207.00 1191.00
C 203.28 1192.72 200.47 1195.46 197.00 1199.00 Z"/>
</g>
<g fill="#0689DA" fill-opacity="0.42" stroke="None">
<path d="
M 1599.00 1355.00 
C 1599.00 1355.00 1599.50 1355.00 1600.00 1355.00
L 1600.00 1342.00
C 1599.67 1344.77 1596.41 1352.49 1599.00 1355.00 Z"/>
</g>
<g fill="#1291E2" fill-opacity="0.54" stroke="None">
<path d="
M 1109.00 1575.00 
C 1111.62 1577.03 1113.86 1579.03 1117.00 1581.00
C 1118.15 1581.17 1118.48 1580.08 1119.00 1580.00
C 1116.18 1578.69 1110.93 1575.92 1109.00 1575.00 Z"/>
</g>
</svg>